<?xml version="1.0" encoding="UTF-8"?>
<svg version="1.1" xmlns="http://www.w3.org/2000/svg" width="229" height="229" viewBox="0 0 229 229">
<g transform="translate(22.9,22.9) scale(0.8)">
<g transform="translate(2,2)">
<path d="M0 0 C1.48828125 0.7109375 1.48828125 0.7109375 3 2 C3.41137202 5.03866799 3.13193156 7.92159703 3 11 C6.63 9.02 10.26 7.04 14 5 C15 6 15 6 15.09765625 8.06640625 C15.08605469 8.89011719 15.07445312 9.71382812 15.0625 10.5625 C15.05347656 11.38878906 15.04445313 12.21507812 15.03515625 13.06640625 C15.02355469 13.70449219 15.01195312 14.34257812 15 15 C16.98 14.34 18.96 13.68 21 13 C22.09658936 16.28976808 21.79953138 17.71303767 21 21 C23.3125 21.625 23.3125 21.625 26 22 C27.5625 21.0625 27.5625 21.0625 29 20 C31.1875 19.875 31.1875 19.875 33 20 C32.835 20.9075 32.67 21.815 32.5 22.75 C31.81635288 27.19370626 31.86887362 30.12508215 33.42578125 34.3515625 C39.60424689 51.61652792 42.24310205 67.04458723 42.4375 85.3125 C42.44369858 85.65243484 42.44369858 85.65243484 42.47506714 87.37271118 C42.67575493 100.65038354 40.19681069 111.49856693 33.0625 122.9375 C32.64548828 123.63939453 32.22847656 124.34128906 31.79882812 125.06445312 C29.83847267 128.30343301 27.82923122 131.28739456 25.328125 134.1328125 C19.27431041 141.16890388 17.71795538 152.71918329 18.3203125 161.7734375 C19 165 19 165 20.4921875 166.7890625 C22.5625 168.0625 22.5625 168.0625 25.03125 169.296875 C29.06816026 171.61278668 32.20201702 174.61656279 35.5625 177.8125 C36.21694092 178.43318359 36.87138184 179.05386719 37.5456543 179.69335938 C44.38447139 186.24481671 50.43109753 193.00107061 55.875 200.75 C56.2570459 201.29342041 56.6390918 201.83684082 57.03271484 202.39672852 C59.14439942 205.4881929 60.74788567 208.44135927 62 212 C60.19140625 212.32421875 60.19140625 212.32421875 58 212 C56.46484375 209.83203125 56.46484375 209.83203125 54.9375 206.8125 C52.22434888 201.75610343 49.09790885 197.36541592 45.375 193 C44.91988037 192.46093018 44.46476074 191.92186035 43.99584961 191.36645508 C41.2322222 188.17919499 38.37354792 185.53320566 35 183 C35.14622803 183.48766846 35.29245605 183.97533691 35.44311523 184.4777832 C40.76767926 202.41148932 40.76767926 202.41148932 41 212 C40.01 212 39.02 212 38 212 C37.84442627 211.30551758 37.68885254 210.61103516 37.52856445 209.89550781 C30.10909268 177.081022 30.10909268 177.081022 23 172 C23.26264648 172.57322998 23.52529297 173.14645996 23.79589844 173.73706055 C26.78636419 180.66057918 28.17268254 187.37282818 29.25 194.8125 C29.42273438 195.91787109 29.59546875 197.02324219 29.7734375 198.16210938 C30.48298665 202.82204525 31.10082702 207.277756 31 212 C30.01 212 29.02 212 28 212 C27.81824219 210.94683594 27.63648438 209.89367187 27.44921875 208.80859375 C26.78530793 204.98318158 26.10584212 201.16070353 25.41894531 197.33935547 C25.15210812 195.84935897 24.88812481 194.35884652 24.62792969 192.86767578 C23.27400951 185.15256867 21.72986938 177.98640508 18 171 C17.34 171 16.68 171 16 171 C15.34 171.86625 14.68 172.7325 14 173.625 C10.01743089 178.6449449 4.02255453 181.99248182 -2 184 C-10.41704424 184.89679315 -17.02895817 183.9687213 -24 179 C-26.29984089 176.85654829 -28.34040201 174.67829431 -30 172 C-30 171.34 -30 170.68 -30 170 C-37.60833614 176.66474 -38.05369262 189.21347798 -39.25 198.6875 C-39.42334875 199.98647948 -39.59782179 201.28530944 -39.7734375 202.58398438 C-40.19521781 205.72104569 -40.60191903 208.85983238 -41 212 C-41.99 212 -42.98 212 -44 212 C-44.89111939 199.16127991 -42.37994019 185.08366477 -38 173 C-47.31089356 182.64342547 -48.51061495 199.37705763 -51 212 C-52.32 211.67 -53.64 211.34 -55 211 C-50.84363246 189.18621465 -50.84363246 189.18621465 -48 181 C-52.4688635 184.68336255 -56.19274144 187.85335931 -59 193 C-59.66 193 -60.32 193 -61 193 C-61.33 193.99 -61.66 194.98 -62 196 C-62.66 196 -63.32 196 -64 196 C-64.09152344 196.53109375 -64.18304688 197.0621875 -64.27734375 197.609375 C-65.23373611 200.77322431 -66.86537317 203.44049894 -68.5625 206.25 C-68.89185547 206.80429688 -69.22121094 207.35859375 -69.56054688 207.9296875 C-70.36919193 209.28914875 -71.18398649 210.64494884 -72 212 C-73.32 211.67 -74.64 211.34 -76 211 C-71.41723868 203.29858032 -66.78007448 195.87927668 -61 189 C-60.66742188 188.59458984 -60.66742188 188.59458984 -58.984375 186.54296875 C-53.34899889 179.94471363 -47.11306214 174.90931477 -40 170 C-39.73147217 169.81099121 -39.73147217 169.81099121 -38.37255859 168.85449219 C-34.23868251 166 -34.23868251 166 -32 166 C-32.79452588 156.33003865 -33.7243815 147.30819459 -37.1953125 138.1875 C-38 136 -38 136 -38 134 C-38.5878125 133.77828125 -39.175625 133.5565625 -39.78125 133.328125 C-42.6815402 131.5920358 -43.7651184 129.63621212 -45.5 126.75 C-47.31730217 123.74632272 -49.11509395 120.79180022 -51.25 118 C-62.09483582 99.40885287 -60.16506841 67.41965075 -55.29296875 47.04296875 C-53.28996818 40.50349201 -50.03115306 36.29153261 -45.30078125 31.4140625 C-43.12238828 29.12841418 -41.2525264 26.78444872 -39.375 24.25 C-32.07582177 14.784399 -23.41708696 10.83485129 -12.25 7 C-7.53917549 5.35087349 -3.82673443 3.1867686 0 0 Z M14.625 38.4375 C9.12832276 40.39250376 4.05115661 41.16240843 -1.77734375 41.203125 C-2.42514297 41.20882507 -3.0729422 41.21452515 -3.7403717 41.22039795 C-5.11115915 41.22981288 -6.48196888 41.23636793 -7.8527832 41.24023438 C-9.90033422 41.2498259 -11.94682959 41.28083162 -13.99414062 41.3125 C-23.03283449 41.38293883 -31.25387637 40.26710193 -40 38 C-42.21757189 48.81368694 -43.75610989 59.57330262 -44.8215332 70.56811523 C-44.93198975 71.60266846 -45.04244629 72.63722168 -45.15625 73.703125 C-45.20168945 74.16541504 -45.20168945 74.16541504 -45.43164062 76.50488281 C-46.07657411 79.33616298 -47.24978821 80.72559542 -49 83 C-49.38818359 84.91601562 -49.38818359 84.91601562 -49.3984375 86.90625 C-49.40488281 87.64375488 -49.41132812 88.38125977 -49.41796875 89.14111328 C-49.40378906 89.9195459 -49.38960937 90.69797852 -49.375 91.5 C-49.36339844 92.30808105 -49.35179688 93.11616211 -49.33984375 93.94873047 C-48.99762313 106.57314836 -44.71270734 116.16116389 -38.96044922 127.15039062 C-33.95978787 136.7805407 -30.06387502 146.07450344 -29.74853516 157.01782227 C-29.52540159 164.7212856 -28.80962091 170.33334515 -23 176 C-19.44219306 178.7836907 -15.57542789 180.73854698 -11 181 C-10.34 180.34 -9.68 179.68 -9 179 C-8.01184796 178.31589474 -7.01395492 177.64524404 -6 177 C-5.21625 177.61875 -4.4325 178.2375 -3.625 178.875 C-1.984375 179.7109375 -1.984375 179.7109375 0 180 C5.73696044 177.780987 10.80015442 174.29506741 14 169 C14.64322378 165.70347813 14.77934424 162.41271635 14.9375 159.0625 C15.74639658 147.60445031 18.53622274 138.3035642 23.8828125 128.140625 C25.42463858 125.18635686 26.87858545 122.19537434 28.3125 119.1875 C28.59150146 118.62345459 28.87050293 118.05940918 29.15795898 117.47827148 C31.11442092 113.34326275 31.11442092 113.34326275 30 110 C29.67 110.33 29.34 110.66 29 111 C26.38594597 110.8796753 23.79493441 110.70682436 21.1875 110.5 C13.98145956 109.98946752 7.18318821 110.10037142 0 111 C0 111.33 0 111.66 0 112 C3.63 112.165 3.63 112.165 22 113 C22.33 113.66 22.66 114.32 23 115 C3.53 115 -15.94 115 -36 115 C-35.505 114.67 -35.505 114.67 -33 113 C-32.67 112.67 -32.67 112.67 -31 111 C-35.29 111 -39.58 111 -44 111 C-45 106 -45 106 -44.1015625 104.05078125 C-39.83793298 99.03142904 -36.4185943 97.81567613 -30 97 C-27.85324723 96.65144974 -25.70742479 96.29712811 -23.5625 95.9375 C-23.05783203 95.85951172 -23.05783203 95.85951172 -20.50390625 95.46484375 C-18 95 -18 95 -16 94 C-16 91.03 -16 88.06 -16 85 C-15.67 85.165 -15.67 85.165 -14 86 C-13.65625 88.58203125 -13.65625 88.58203125 -13.5 91.8125 C-13.15623244 98.86832907 -13.15623244 98.86832907 -11 102 C-7.81458441 102.96947431 -5.85197748 103.29934344 -2.6875 102.1875 C-1 101 -1 101 0 99 C0.27358115 96.14693938 0.44625242 93.29429544 0.62109375 90.43359375 C0.68361328 90.03205078 0.68361328 90.03205078 1 88 C1.66 87.67 2.32 87.34 3 87 C2.96744792 88.79036458 2.93489583 90.58072917 2.90234375 92.37109375 C3 94 3 94 4 95 C5.53456689 95.21290008 7.07019143 95.42017144 8.60961914 95.59448242 C23.65308534 97.32944501 23.65308534 97.32944501 28.65625 102.81640625 C29.88212935 104.50199035 30.98373105 106.18195102 32 108 C35.02402029 102.35516213 35.20958893 97.35147344 35.25 91.0625 C35.270625 90.26392578 35.29125 89.46535156 35.3125 88.64257812 C35.31765625 87.86462891 35.3228125 87.08667969 35.328125 86.28515625 C35.3374707 85.58269775 35.34681641 84.88023926 35.35644531 84.15649414 C34.88704253 81.3166073 33.48207509 79.45584563 32 77 C31.17211914 74.16015625 31.17211914 74.16015625 30.53515625 71.0625 C30.41571152 70.50111328 30.29626678 69.93972656 30.17320251 69.36132812 C29.7942145 67.57592156 29.42729735 65.78835539 29.0625 64 C27.17111197 54.81471571 24.91141973 45.9223019 22 37 C19.04730782 37 17.36641299 37.45976055 14.625 38.4375 Z " fill="#142d7a" transform="translate(121,17)"/>
<path d="M0 0 C0 1.32 0 2.64 0 4 C-0.74765625 4.06058594 -1.4953125 4.12117188 -2.265625 4.18359375 C-3.25046875 4.26738281 -4.2353125 4.35117188 -5.25 4.4375 C-5.73726562 4.47810547 -5.73726562 4.47810547 -8.203125 4.68359375 C-10.56461753 4.95074584 -12.71901065 5.35371968 -15 6 C-15 5.01 -15 4.02 -15 3 C-9.90585649 -0.13485755 -5.91451756 -0.35487105 0 0 Z " fill="#142d7a" transform="translate(102,64)"/>
<path d="M0 0 C9.17286652 -0.63019694 9.17286652 -0.63019694 12.625 2 C13.07875 2.66 13.5325 3.32 14 4 C10.61725734 5.12758089 9.23221777 4.81750262 5.8125 4.0625 C4.91144531 3.86785156 4.01039063 3.67320313 3.08203125 3.47265625 C2.73849609 3.39466797 2.73849609 3.39466797 1 3 C0.67 2.01 0.34 1.02 0 0 Z " fill="#142d7a" transform="translate(128,67)"/>
<path d="M0 0 C3.65197208 3.24295121 5.69068344 6.54112908 6.30859375 11.453125 C6.53768363 16.42368111 6.58498658 20.09019008 3.4375 24.125 C1.24827223 26.27292159 -0.55113102 27.49102758 -3.5625 28.125 C-7.42972446 27.98437366 -9.00971793 27.40883833 -12 25 C-15.80262961 20.89426224 -15.43030933 17.28733159 -15.29296875 11.91796875 C-14.83220454 7.3287572 -13.44357011 4.74431388 -10.5 1.1875 C-7.02171418 -1.56614294 -4.03901193 -1.21170358 0 0 Z M-9.875 4.8125 C-12.30760622 9.54256765 -12.47438774 13.79085773 -12 19 C-11 22.0625 -11 22.0625 -9 24 C-6.24163098 24.59190002 -3.74562975 24.66426526 -1 24 C1.06658801 22.46074824 1.86513054 21.46706472 2.58203125 18.984375 C3.12150182 13.7542535 2.90993116 9.92561193 1 5 C-1 3 -1 3 -4.4375 2.625 C-7.25961254 2.70127331 -7.75659861 2.76471199 -9.875 4.8125 Z " fill="#142d7a" transform="translate(100,73)"/>
<path d="M0 0 C3.56849922 3.56849922 5.13108384 6.78829203 5.25 11.8125 C5.17446999 16.95798206 3.27991577 20.32286899 0.1875 24.375 C-2 26 -2 26 -4.9375 26.5 C-8.7503897 25.8774874 -10.31880287 24.75567483 -13 22 C-15.57785067 17.70358222 -15.68278181 12.87106536 -15 8 C-13.71721998 4.50211016 -12.06073542 1.87785 -9.1875 -0.5 C-5.93302023 -1.24388109 -3.15186598 -1.15079758 0 0 Z M-10 4 C-12.6691903 8.0673376 -11.96185424 12.07499872 -11.484375 16.6953125 C-11.00148739 18.9929229 -10.53231995 20.24410312 -9 22 C-6.6875 23 -6.6875 23 -4 23 C-0.39659253 20.46123565 1.21842553 18.4831272 2 14.125 C2.26814453 9.96875971 1.53994469 6.36712974 -1 3 C-4.53002064 1.46127305 -6.92740379 1.66906494 -10 4 Z " fill="#142d7a" transform="translate(138,74)"/>
<path d="M0 0 C0.99 0.33 1.98 0.66 3 1 C2.67 2.32 2.34 3.64 2 5 C0.68 4.34 -0.64 3.68 -2 3 C-1.34 2.01 -0.68 1.02 0 0 Z " fill="#142d7a" transform="translate(95,86)"/>
<path d="M0 0 C0.99 0.33 1.98 0.66 3 1 C2.67 2.32 2.34 3.64 2 5 C1.01 4.67 0.02 4.34 -1 4 C-0.67 2.68 -0.34 1.36 0 0 Z " fill="#142d7a" transform="translate(132,86)"/>
<path d="M0 0 C0.66 0.33 1.32 0.66 2 1 C1.03628506 3.40928735 0.34789837 4.76007009 -1.8125 6.25 C-4.32321365 7.11081611 -6.36348649 7.14647297 -9 7 C-9.33 6.01 -9.66 5.02 -10 4 C-9.36191406 3.79503906 -8.72382812 3.59007813 -8.06640625 3.37890625 C-7.24011719 3.10949219 -6.41382812 2.84007813 -5.5625 2.5625 C-4.73878906 2.29566406 -3.91507812 2.02882813 -3.06640625 1.75390625 C-1 1 -1 1 0 0 Z " fill="#142d7a" transform="translate(101,100)"/>
<path d="M0 0 C2.64 0.33 5.28 0.66 8 1 C8 2.32 8 3.64 8 5 C1.57142857 5.28571429 1.57142857 5.28571429 -1 3 C-0.67 2.01 -0.34 1.02 0 0 Z " fill="#142d7a" transform="translate(129,100)"/>
<path d="M0 0 C3.96 0 7.92 0 12 0 C12 0.99 12 1.98 12 3 C10.58566794 3.2236337 9.16832382 3.42826476 7.75 3.625 C6.96109375 3.74101562 6.1721875 3.85703125 5.359375 3.9765625 C2.67847541 4.00319395 1.27305911 3.36592084 -1 2 C-0.67 1.34 -0.34 0.68 0 0 Z " fill="#142d7a" transform="translate(109,134)"/>
<path d="M0 0 C1.39456452 0.00667256 2.78911118 0.01863093 4.18359375 0.03515625 C4.89451172 0.03966797 5.60542969 0.04417969 6.33789062 0.04882812 C8.09899388 0.06064761 9.86005411 0.07858362 11.62109375 0.09765625 C11.62109375 1.08765625 11.62109375 2.07765625 11.62109375 3.09765625 C8.7156747 4.06612927 6.65471921 4.29348437 3.62109375 4.34765625 C2.75484375 4.3734375 1.88859375 4.39921875 0.99609375 4.42578125 C-1.80793819 4.0383821 -2.64177407 3.26907147 -4.37890625 1.09765625 C-3.37890625 0.09765625 -3.37890625 0.09765625 0 0 Z " fill="#142d7a" transform="translate(110.37890625,154.90234375)"/>
<path d="M0 0 C0.4125 0.165 0.4125 0.165 2.5 1 C7.9120769 2.80402563 13.52066076 2.36983481 19 1 C19 2.32 19 3.64 19 5 C13.32384958 6.62175726 6.77174295 7.22407025 1.375 4.5 C0.59125 4.005 -0.1925 3.51 -1 3 C-0.67 2.01 -0.34 1.02 0 0 Z " fill="#142d7a" transform="translate(104,202)"/>
</g>
<path d="M0 0 C1.48828125 0.7109375 1.48828125 0.7109375 3 2 C3.41137202 5.03866799 3.13193156 7.92159703 3 11 C6.63 9.02 10.26 7.04 14 5 C15 6 15 6 15.09765625 8.06640625 C15.08605469 8.89011719 15.07445312 9.71382812 15.0625 10.5625 C15.05347656 11.38878906 15.04445313 12.21507812 15.03515625 13.06640625 C15.02355469 13.70449219 15.01195312 14.34257812 15 15 C16.98 14.34 18.96 13.68 21 13 C22.09658936 16.28976808 21.79953138 17.71303767 21 21 C23.3125 21.625 23.3125 21.625 26 22 C27.5625 21.0625 27.5625 21.0625 29 20 C31.1875 19.875 31.1875 19.875 33 20 C32.835 20.9075 32.67 21.815 32.5 22.75 C31.81635288 27.19370626 31.86887362 30.12508215 33.42578125 34.3515625 C39.60424689 51.61652792 42.24310205 67.04458723 42.4375 85.3125 C42.44369858 85.65243484 42.44369858 85.65243484 42.47506714 87.37271118 C42.67575493 100.65038354 40.19681069 111.49856693 33.0625 122.9375 C32.64548828 123.63939453 32.22847656 124.34128906 31.79882812 125.06445312 C29.83847267 128.30343301 27.82923122 131.28739456 25.328125 134.1328125 C19.27431041 141.16890388 17.71795538 152.71918329 18.3203125 161.7734375 C19 165 19 165 20.4921875 166.7890625 C22.5625 168.0625 22.5625 168.0625 25.03125 169.296875 C29.06816026 171.61278668 32.20201702 174.61656279 35.5625 177.8125 C36.21694092 178.43318359 36.87138184 179.05386719 37.5456543 179.69335938 C44.38447139 186.24481671 50.43109753 193.00107061 55.875 200.75 C56.2570459 201.29342041 56.6390918 201.83684082 57.03271484 202.39672852 C59.14439942 205.4881929 60.74788567 208.44135927 62 212 C60.19140625 212.32421875 60.19140625 212.32421875 58 212 C56.46484375 209.83203125 56.46484375 209.83203125 54.9375 206.8125 C52.22434888 201.75610343 49.09790885 197.36541592 45.375 193 C44.91988037 192.46093018 44.46476074 191.92186035 43.99584961 191.36645508 C41.2322222 188.17919499 38.37354792 185.53320566 35 183 C35.14622803 183.48766846 35.29245605 183.97533691 35.44311523 184.4777832 C40.76767926 202.41148932 40.76767926 202.41148932 41 212 C40.01 212 39.02 212 38 212 C37.84442627 211.30551758 37.68885254 210.61103516 37.52856445 209.89550781 C30.10909268 177.081022 30.10909268 177.081022 23 172 C23.26264648 172.57322998 23.52529297 173.14645996 23.79589844 173.73706055 C26.78636419 180.66057918 28.17268254 187.37282818 29.25 194.8125 C29.42273438 195.91787109 29.59546875 197.02324219 29.7734375 198.16210938 C30.48298665 202.82204525 31.10082702 207.277756 31 212 C30.01 212 29.02 212 28 212 C27.81824219 210.94683594 27.63648438 209.89367187 27.44921875 208.80859375 C26.78530793 204.98318158 26.10584212 201.16070353 25.41894531 197.33935547 C25.15210812 195.84935897 24.88812481 194.35884652 24.62792969 192.86767578 C23.27400951 185.15256867 21.72986938 177.98640508 18 171 C17.34 171 16.68 171 16 171 C15.34 171.86625 14.68 172.7325 14 173.625 C10.01743089 178.6449449 4.02255453 181.99248182 -2 184 C-10.41704424 184.89679315 -17.02895817 183.9687213 -24 179 C-26.29984089 176.85654829 -28.34040201 174.67829431 -30 172 C-30 171.34 -30 170.68 -30 170 C-37.60833614 176.66474 -38.05369262 189.21347798 -39.25 198.6875 C-39.42334875 199.98647948 -39.59782179 201.28530944 -39.7734375 202.58398438 C-40.19521781 205.72104569 -40.60191903 208.85983238 -41 212 C-41.99 212 -42.98 212 -44 212 C-44.89111939 199.16127991 -42.37994019 185.08366477 -38 173 C-47.31089356 182.64342547 -48.51061495 199.37705763 -51 212 C-52.32 211.67 -53.64 211.34 -55 211 C-50.84363246 189.18621465 -50.84363246 189.18621465 -48 181 C-52.4688635 184.68336255 -56.19274144 187.85335931 -59 193 C-59.66 193 -60.32 193 -61 193 C-61.33 193.99 -61.66 194.98 -62 196 C-62.66 196 -63.32 196 -64 196 C-64.09152344 196.53109375 -64.18304688 197.0621875 -64.27734375 197.609375 C-65.23373611 200.77322431 -66.86537317 203.44049894 -68.5625 206.25 C-68.89185547 206.80429688 -69.22121094 207.35859375 -69.56054688 207.9296875 C-70.36919193 209.28914875 -71.18398649 210.64494884 -72 212 C-73.32 211.67 -74.64 211.34 -76 211 C-71.41723868 203.29858032 -66.78007448 195.87927668 -61 189 C-60.66742188 188.59458984 -60.66742188 188.59458984 -58.984375 186.54296875 C-53.34899889 179.94471363 -47.11306214 174.90931477 -40 170 C-39.73147217 169.81099121 -39.73147217 169.81099121 -38.37255859 168.85449219 C-34.23868251 166 -34.23868251 166 -32 166 C-32.79452588 156.33003865 -33.7243815 147.30819459 -37.1953125 138.1875 C-38 136 -38 136 -38 134 C-38.5878125 133.77828125 -39.175625 133.5565625 -39.78125 133.328125 C-42.6815402 131.5920358 -43.7651184 129.63621212 -45.5 126.75 C-47.31730217 123.74632272 -49.11509395 120.79180022 -51.25 118 C-62.09483582 99.40885287 -60.16506841 67.41965075 -55.29296875 47.04296875 C-53.28996818 40.50349201 -50.03115306 36.29153261 -45.30078125 31.4140625 C-43.12238828 29.12841418 -41.2525264 26.78444872 -39.375 24.25 C-32.07582177 14.784399 -23.41708696 10.83485129 -12.25 7 C-7.53917549 5.35087349 -3.82673443 3.1867686 0 0 Z M14.625 38.4375 C9.12832276 40.39250376 4.05115661 41.16240843 -1.77734375 41.203125 C-2.42514297 41.20882507 -3.0729422 41.21452515 -3.7403717 41.22039795 C-5.11115915 41.22981288 -6.48196888 41.23636793 -7.8527832 41.24023438 C-9.90033422 41.2498259 -11.94682959 41.28083162 -13.99414062 41.3125 C-23.03283449 41.38293883 -31.25387637 40.26710193 -40 38 C-42.21757189 48.81368694 -43.75610989 59.57330262 -44.8215332 70.56811523 C-44.93198975 71.60266846 -45.04244629 72.63722168 -45.15625 73.703125 C-45.20168945 74.16541504 -45.20168945 74.16541504 -45.43164062 76.50488281 C-46.07657411 79.33616298 -47.24978821 80.72559542 -49 83 C-49.38818359 84.91601562 -49.38818359 84.91601562 -49.3984375 86.90625 C-49.40488281 87.64375488 -49.41132812 88.38125977 -49.41796875 89.14111328 C-49.40378906 89.9195459 -49.38960937 90.69797852 -49.375 91.5 C-49.36339844 92.30808105 -49.35179688 93.11616211 -49.33984375 93.94873047 C-48.99762313 106.57314836 -44.71270734 116.16116389 -38.96044922 127.15039062 C-33.95978787 136.7805407 -30.06387502 146.07450344 -29.74853516 157.01782227 C-29.52540159 164.7212856 -28.80962091 170.33334515 -23 176 C-19.44219306 178.7836907 -15.57542789 180.73854698 -11 181 C-10.34 180.34 -9.68 179.68 -9 179 C-8.01184796 178.31589474 -7.01395492 177.64524404 -6 177 C-5.21625 177.61875 -4.4325 178.2375 -3.625 178.875 C-1.984375 179.7109375 -1.984375 179.7109375 0 180 C5.73696044 177.780987 10.80015442 174.29506741 14 169 C14.64322378 165.70347813 14.77934424 162.41271635 14.9375 159.0625 C15.74639658 147.60445031 18.53622274 138.3035642 23.8828125 128.140625 C25.42463858 125.18635686 26.87858545 122.19537434 28.3125 119.1875 C28.59150146 118.62345459 28.87050293 118.05940918 29.15795898 117.47827148 C31.11442092 113.34326275 31.11442092 113.34326275 30 110 C29.67 110.33 29.34 110.66 29 111 C26.38594597 110.8796753 23.79493441 110.70682436 21.1875 110.5 C13.98145956 109.98946752 7.18318821 110.10037142 0 111 C0 111.33 0 111.66 0 112 C3.63 112.165 3.63 112.165 22 113 C22.33 113.66 22.66 114.32 23 115 C3.53 115 -15.94 115 -36 115 C-35.505 114.67 -35.505 114.67 -33 113 C-32.67 112.67 -32.67 112.67 -31 111 C-35.29 111 -39.58 111 -44 111 C-45 106 -45 106 -44.1015625 104.05078125 C-39.83793298 99.03142904 -36.4185943 97.81567613 -30 97 C-27.85324723 96.65144974 -25.70742479 96.29712811 -23.5625 95.9375 C-23.05783203 95.85951172 -23.05783203 95.85951172 -20.50390625 95.46484375 C-18 95 -18 95 -16 94 C-16 91.03 -16 88.06 -16 85 C-15.67 85.165 -15.67 85.165 -14 86 C-13.65625 88.58203125 -13.65625 88.58203125 -13.5 91.8125 C-13.15623244 98.86832907 -13.15623244 98.86832907 -11 102 C-7.81458441 102.96947431 -5.85197748 103.29934344 -2.6875 102.1875 C-1 101 -1 101 0 99 C0.27358115 96.14693938 0.44625242 93.29429544 0.62109375 90.43359375 C0.68361328 90.03205078 0.68361328 90.03205078 1 88 C1.66 87.67 2.32 87.34 3 87 C2.96744792 88.79036458 2.93489583 90.58072917 2.90234375 92.37109375 C3 94 3 94 4 95 C5.53456689 95.21290008 7.07019143 95.42017144 8.60961914 95.59448242 C23.65308534 97.32944501 23.65308534 97.32944501 28.65625 102.81640625 C29.88212935 104.50199035 30.98373105 106.18195102 32 108 C35.02402029 102.35516213 35.20958893 97.35147344 35.25 91.0625 C35.270625 90.26392578 35.29125 89.46535156 35.3125 88.64257812 C35.31765625 87.86462891 35.3228125 87.08667969 35.328125 86.28515625 C35.3374707 85.58269775 35.34681641 84.88023926 35.35644531 84.15649414 C34.88704253 81.3166073 33.48207509 79.45584563 32 77 C31.17211914 74.16015625 31.17211914 74.16015625 30.53515625 71.0625 C30.41571152 70.50111328 30.29626678 69.93972656 30.17320251 69.36132812 C29.7942145 67.57592156 29.42729735 65.78835539 29.0625 64 C27.17111197 54.81471571 24.91141973 45.9223019 22 37 C19.04730782 37 17.36641299 37.45976055 14.625 38.4375 Z " fill="#1e40af" transform="translate(121,17)"/>
<path d="M0 0 C0 1.32 0 2.64 0 4 C-0.74765625 4.06058594 -1.4953125 4.12117188 -2.265625 4.18359375 C-3.25046875 4.26738281 -4.2353125 4.35117188 -5.25 4.4375 C-5.73726562 4.47810547 -5.73726562 4.47810547 -8.203125 4.68359375 C-10.56461753 4.95074584 -12.71901065 5.35371968 -15 6 C-15 5.01 -15 4.02 -15 3 C-9.90585649 -0.13485755 -5.91451756 -0.35487105 0 0 Z " fill="#1e40af" transform="translate(102,64)"/>
<path d="M0 0 C9.17286652 -0.63019694 9.17286652 -0.63019694 12.625 2 C13.07875 2.66 13.5325 3.32 14 4 C10.61725734 5.12758089 9.23221777 4.81750262 5.8125 4.0625 C4.91144531 3.86785156 4.01039063 3.67320313 3.08203125 3.47265625 C2.73849609 3.39466797 2.73849609 3.39466797 1 3 C0.67 2.01 0.34 1.02 0 0 Z " fill="#1e40af" transform="translate(128,67)"/>
<path d="M0 0 C3.65197208 3.24295121 5.69068344 6.54112908 6.30859375 11.453125 C6.53768363 16.42368111 6.58498658 20.09019008 3.4375 24.125 C1.24827223 26.27292159 -0.55113102 27.49102758 -3.5625 28.125 C-7.42972446 27.98437366 -9.00971793 27.40883833 -12 25 C-15.80262961 20.89426224 -15.43030933 17.28733159 -15.29296875 11.91796875 C-14.83220454 7.3287572 -13.44357011 4.74431388 -10.5 1.1875 C-7.02171418 -1.56614294 -4.03901193 -1.21170358 0 0 Z M-9.875 4.8125 C-12.30760622 9.54256765 -12.47438774 13.79085773 -12 19 C-11 22.0625 -11 22.0625 -9 24 C-6.24163098 24.59190002 -3.74562975 24.66426526 -1 24 C1.06658801 22.46074824 1.86513054 21.46706472 2.58203125 18.984375 C3.12150182 13.7542535 2.90993116 9.92561193 1 5 C-1 3 -1 3 -4.4375 2.625 C-7.25961254 2.70127331 -7.75659861 2.76471199 -9.875 4.8125 Z " fill="#1e40af" transform="translate(100,73)"/>
<path d="M0 0 C3.56849922 3.56849922 5.13108384 6.78829203 5.25 11.8125 C5.17446999 16.95798206 3.27991577 20.32286899 0.1875 24.375 C-2 26 -2 26 -4.9375 26.5 C-8.7503897 25.8774874 -10.31880287 24.75567483 -13 22 C-15.57785067 17.70358222 -15.68278181 12.87106536 -15 8 C-13.71721998 4.50211016 -12.06073542 1.87785 -9.1875 -0.5 C-5.93302023 -1.24388109 -3.15186598 -1.15079758 0 0 Z M-10 4 C-12.6691903 8.0673376 -11.96185424 12.07499872 -11.484375 16.6953125 C-11.00148739 18.9929229 -10.53231995 20.24410312 -9 22 C-6.6875 23 -6.6875 23 -4 23 C-0.39659253 20.46123565 1.21842553 18.4831272 2 14.125 C2.26814453 9.96875971 1.53994469 6.36712974 -1 3 C-4.53002064 1.46127305 -6.92740379 1.66906494 -10 4 Z " fill="#1e40af" transform="translate(138,74)"/>
<path d="M0 0 C0.99 0.33 1.98 0.66 3 1 C2.67 2.32 2.34 3.64 2 5 C0.68 4.34 -0.64 3.68 -2 3 C-1.34 2.01 -0.68 1.02 0 0 Z " fill="#1e40af" transform="translate(95,86)"/>
<path d="M0 0 C0.99 0.33 1.98 0.66 3 1 C2.67 2.32 2.34 3.64 2 5 C1.01 4.67 0.02 4.34 -1 4 C-0.67 2.68 -0.34 1.36 0 0 Z " fill="#1e40af" transform="translate(132,86)"/>
<path d="M0 0 C0.66 0.33 1.32 0.66 2 1 C1.03628506 3.40928735 0.34789837 4.76007009 -1.8125 6.25 C-4.32321365 7.11081611 -6.36348649 7.14647297 -9 7 C-9.33 6.01 -9.66 5.02 -10 4 C-9.36191406 3.79503906 -8.72382812 3.59007813 -8.06640625 3.37890625 C-7.24011719 3.10949219 -6.41382812 2.84007813 -5.5625 2.5625 C-4.73878906 2.29566406 -3.91507812 2.02882813 -3.06640625 1.75390625 C-1 1 -1 1 0 0 Z " fill="#1e40af" transform="translate(101,100)"/>
<path d="M0 0 C2.64 0.33 5.28 0.66 8 1 C8 2.32 8 3.64 8 5 C1.57142857 5.28571429 1.57142857 5.28571429 -1 3 C-0.67 2.01 -0.34 1.02 0 0 Z " fill="#1e40af" transform="translate(129,100)"/>
<path d="M0 0 C3.96 0 7.92 0 12 0 C12 0.99 12 1.98 12 3 C10.58566794 3.2236337 9.16832382 3.42826476 7.75 3.625 C6.96109375 3.74101562 6.1721875 3.85703125 5.359375 3.9765625 C2.67847541 4.00319395 1.27305911 3.36592084 -1 2 C-0.67 1.34 -0.34 0.68 0 0 Z " fill="#1e40af" transform="translate(109,134)"/>
<path d="M0 0 C1.39456452 0.00667256 2.78911118 0.01863093 4.18359375 0.03515625 C4.89451172 0.03966797 5.60542969 0.04417969 6.33789062 0.04882812 C8.09899388 0.06064761 9.86005411 0.07858362 11.62109375 0.09765625 C11.62109375 1.08765625 11.62109375 2.07765625 11.62109375 3.09765625 C8.7156747 4.06612927 6.65471921 4.29348437 3.62109375 4.34765625 C2.75484375 4.3734375 1.88859375 4.39921875 0.99609375 4.42578125 C-1.80793819 4.0383821 -2.64177407 3.26907147 -4.37890625 1.09765625 C-3.37890625 0.09765625 -3.37890625 0.09765625 0 0 Z " fill="#1e40af" transform="translate(110.37890625,154.90234375)"/>
<path d="M0 0 C0.4125 0.165 0.4125 0.165 2.5 1 C7.9120769 2.80402563 13.52066076 2.36983481 19 1 C19 2.32 19 3.64 19 5 C13.32384958 6.62175726 6.77174295 7.22407025 1.375 4.5 C0.59125 4.005 -0.1925 3.51 -1 3 C-0.67 2.01 -0.34 1.02 0 0 Z " fill="#1e40af" transform="translate(104,202)"/>
</g>
</svg>
