<?xml version="1.0" encoding="UTF-8"?>
<svg version="1.1" xmlns="http://www.w3.org/2000/svg" width="229" height="229" viewBox="0 0 229 229">
<defs>
<filter id="glow">
<feGaussianBlur stdDeviation="4" result="blur"/>
<feMerge>
<feMergeNode in="blur"/>
<feMergeNode in="blur"/>
<feMergeNode in="SourceGraphic"/>
</feMerge>
</filter>
</defs>
<g transform="translate(34.35,34.35) scale(0.7)">
<g transform="translate(2,2)">
<path d="M0 0 C1.02270996 0.0107959 2.04541992 0.0215918 3.09912109 0.03271484 C10.4576311 0.3252055 15.75762226 1.88046757 22.04663086 5.59936523 C28.27638871 9.25935799 34.71542838 11.00241479 41.70751953 12.70751953 C52.4178746 15.43704539 61.44148564 21.66418638 67.484375 31.09375 C69.91403073 35.81221185 71.18752445 40.0613862 71.1953125 45.39453125 C71.19660156 46.25240234 71.19789063 47.11027344 71.19921875 47.99414062 C71.19535156 48.88294922 71.19148437 49.77175781 71.1875 50.6875 C71.19136719 51.56470703 71.19523438 52.44191406 71.19921875 53.34570312 C71.19356158 57.12752372 71.14905533 60.81726295 70.56640625 64.55859375 C70.02496967 68.12200194 69.87122392 71.52876016 69.875 75.125 C69.87467773 75.4509314 69.87467773 75.4509314 69.87304688 77.1003418 C69.91588877 81.06759907 70.27971832 84.7846949 71.0625 88.6875 C73.14951807 99.1998873 71.92432126 105.2051123 66.859375 114.46484375 C65.27425486 117.37388097 64.12988758 120.29619707 63.0625 123.4375 C61.49801464 127.42759502 59.81036319 129.83711109 56.14453125 132.11328125 C52.19765457 133.55726052 48.19210497 133.2489079 44.0625 132.875 C44.26214528 146.28753258 44.26214528 146.28753258 47.0625 149.875 C48.42578125 150.87890625 48.42578125 150.87890625 50.0625 151.875 C50.71605469 152.33777344 51.36960938 152.80054688 52.04296875 153.27734375 C55.08798871 155.39538418 58.18134295 157.37650849 61.41015625 159.203125 C68.50276605 163.21650421 74.37463643 168.1978719 80.48828125 173.52734375 C81.9168095 174.75027737 83.366 175.93113977 84.84375 177.09375 C89.02095062 180.38636696 92.90052661 183.63845263 96.54296875 187.51171875 C97.14761963 188.14875732 97.75227051 188.7857959 98.37524414 189.44213867 C99.55388664 190.69921972 100.71450633 191.97353027 101.85327148 193.2668457 C105.03302976 196.65774331 107.0907245 198.21007571 111.80078125 198.62890625 C112.53852783 198.6347876 113.27627441 198.64066895 114.03637695 198.64672852 C116.49319997 198.92352446 117.38066563 199.59643386 119.125 201.3125 C121.0625 203.875 121.0625 203.875 121.0625 205.875 C121.825625 205.936875 122.58875 205.99875 123.375 206.0625 C126.0625 206.875 126.0625 206.875 127.875 209.4375 C128.266875 210.241875 128.65875 211.04625 129.0625 211.875 C126.0925 211.875 123.1225 211.875 120.0625 211.875 C119.7325 211.05 119.7325 211.05 118.0625 206.875 C117.7325 208.525 117.4025 210.175 117.0625 211.875 C116.0725 211.875 115.0825 211.875 114.0625 211.875 C112.328125 209.99609375 112.328125 209.99609375 110.3125 207.3125 C101.32495615 195.80737256 90.57021936 185.8099966 79.0625 176.875 C77.6203943 175.72504079 76.18272558 174.56969569 74.74536133 173.41381836 C72.85565879 171.89512102 70.95919464 170.38494997 69.0625 168.875 C69.33964844 169.81601563 69.61679688 170.75703125 69.90234375 171.7265625 C70.26840833 172.98432287 70.63428368 174.24213832 71 175.5 C71.09120117 175.80873047 71.09120117 175.80873047 71.55273438 177.37109375 C73.55468926 184.28693791 74.22284675 190.75621804 74.1875 197.9375 C74.19136719 198.72705078 74.19523438 199.51660156 74.19921875 200.33007812 C74.19857422 200.71454102 74.19857422 200.71454102 74.1953125 202.66015625 C74.19418457 203.34988525 74.19305664 204.03961426 74.19189453 204.75024414 C74.0625 206.875 74.0625 206.875 73.0625 211.875 C68.7725 211.875 64.4825 211.875 60.0625 211.875 C59.89234375 210.46089844 59.7221875 209.04679688 59.546875 207.58984375 C58.13859286 196.35714063 56.27577048 185.73363817 53.0625 174.875 C53.0625 182.795 53.0625 190.715 53.0625 198.875 C52.4025 199.205 52.4025 199.205 49.0625 200.875 C47.4125 198.235 45.7625 195.595 44.0625 192.875 C43.4025 199.145 42.7425 205.415 42.0625 211.875 C40.7425 211.875 39.4225 211.875 38.0625 211.875 C38.3925 205.935 38.7225 199.995 39.0625 193.875 C38.4953125 194.8959375 38.4953125 194.8959375 35.625 200.0625 C35.26865479 200.69567139 34.91230957 201.32884277 34.54516602 201.98120117 C34.40429565 202.23889282 34.40429565 202.23889282 33.69140625 203.54296875 C33.40338135 204.06141357 33.11535645 204.5798584 32.81860352 205.11401367 C32.0625 206.875 32.0625 206.875 31.0625 211.875 C24.1325 211.875 17.2025 211.875 10.0625 211.875 C9.0725 209.895 8.0825 207.915 7.0625 205.875 C5.45703125 203.9765625 5.45703125 203.9765625 3.875 202.5 C3.34519531 201.99726563 2.81539063 201.49453125 2.26953125 200.9765625 C1.87121094 200.61304688 1.47289063 200.24953125 1.0625 199.875 C1.66670849 204.10445943 2.6327837 207.87179436 4.0625 211.875 C2.7425 211.875 1.4225 211.875 0.0625 211.875 C-1.2575 207.915 -2.5775 203.955 -3.9375 199.875 C-5.2575 201.855 -6.5775 203.835 -7.9375 205.875 C-8.9275 205.545 -9.9175 205.215 -10.9375 204.875 C-11.73706055 203.10913086 -11.73706055 203.10913086 -12.32421875 200.83984375 C-12.54013672 200.03095703 -12.75605469 199.22207031 -12.97851562 198.38867188 C-13.19185547 197.53853516 -13.40519531 196.68839844 -13.625 195.8125 C-13.7374707 195.38549805 -13.7374707 195.38549805 -14.30664062 193.22460938 C-14.86167305 191.11076247 -15.40469069 188.99453756 -15.9375 186.875 C-17.65193219 188.58943219 -17.16802967 190.87945241 -17.25390625 193.22265625 C-17.29580078 194.30224609 -17.33769531 195.38183594 -17.38085938 196.49414062 C-17.42017578 197.63044922 -17.45949219 198.76675781 -17.5 199.9375 C-17.5215918 200.50758789 -17.5215918 200.50758789 -17.63085938 203.39257812 C-17.73732738 206.21989508 -17.83795262 209.04743092 -17.9375 211.875 C-23.8775 211.875 -29.8175 211.875 -35.9375 211.875 C-37.88139992 196.32380065 -36.78608076 180.8409526 -31.9375 165.875 C-42.87164258 174.2016364 -53.65048009 182.59464032 -63.70336914 191.98217773 C-66.10899416 194.22534496 -68.54120983 196.39540838 -71.0859375 198.48046875 C-73.32865719 200.33092153 -75.34819236 202.22812239 -77.25 204.4375 C-77.49556641 204.71658203 -77.49556641 204.71658203 -78.73828125 206.12890625 C-80.04874787 208.0369798 -80.516937 209.61385542 -80.9375 211.875 C-81.9275 211.875 -82.9175 211.875 -83.9375 211.875 C-84.2675 209.895 -84.5975 207.915 -84.9375 205.875 C-85.5975 205.875 -86.2575 205.875 -86.9375 205.875 C-87.5975 207.855 -88.2575 209.835 -88.9375 211.875 C-90.9175 211.875 -92.8975 211.875 -94.9375 211.875 C-94.00612408 210.57891053 -93.0671434 209.28828368 -92.125 208 C-91.86396484 207.64035156 -91.86396484 207.64035156 -90.54296875 205.8203125 C-89.04551546 204.00588004 -88.042518 202.88540864 -85.9375 201.875 C-83.89453125 201.6796875 -83.89453125 201.6796875 -81.75 201.75 C-81.03457031 201.76804688 -80.31914063 201.78609375 -79.58203125 201.8046875 C-79.03933594 201.82789063 -78.49664062 201.85109375 -77.9375 201.875 C-77.83179688 201.60171875 -77.83179688 201.60171875 -77.296875 200.21875 C-75.42981791 196.99968605 -72.94221967 194.84414976 -70.1875 192.375 C-69.60967773 191.85091553 -69.03185547 191.32683105 -68.43652344 190.78686523 C-66.61161043 189.14026246 -64.77657703 187.5057594 -62.9375 185.875 C-62.37417969 185.37371582 -61.81085937 184.87243164 -61.23046875 184.35595703 C-54.31978178 178.23627667 -47.19872902 172.4312964 -39.875 166.8125 C-39.16053711 166.26408447 -38.44607422 165.71566895 -37.70996094 165.15063477 C-28.1183686 157.875 -28.1183686 157.875 -24.9375 157.875 C-24.73125 157.318125 -24.525 156.76125 -24.3125 156.1875 C-22.72043285 153.50993252 -20.9308575 152.07969008 -18.47265625 150.21875 C-15.97680712 148.03408816 -14.13022267 146.13474821 -13.6171875 142.78125 C-14.5686873 131.0587725 -18.99340768 118.02617107 -24.9375 107.875 C-26.92895391 106.85808736 -28.92937074 105.85857352 -30.9375 104.875 C-34.58632373 101.32219795 -35.14526261 98.80215548 -35.25439453 93.6965332 C-35.24551468 89.88954534 -35.19742524 86.17050039 -34.4453125 82.421875 C-33.63704517 78.36810346 -33.58110583 74.26262235 -33.41992188 70.13867188 C-33.15373884 65.09123884 -33.15373884 65.09123884 -30.9375 62.875 C-31.03125 61 -31.03125 61 -31.4375 58.875 C-31.84375 56.75 -31.84375 56.75 -31.9375 54.875 C-31.6075 54.545 -31.6075 54.545 -29.9375 52.875 C-28.9475 52.875 -27.9575 52.875 -26.9375 52.875 C-27.78640306 48.00497721 -29.41677632 43.54603507 -31.09765625 38.91015625 C-32.20569572 34.90575313 -32.69405668 31.58965509 -30.984375 27.71484375 C-30.55640625 27.08707031 -30.1284375 26.45929687 -29.6875 25.8125 C-29.45804688 25.47025391 -29.45804688 25.47025391 -28.296875 23.73828125 C-27.23438461 22.28193667 -26.09870103 20.87892623 -24.9375 19.5 C-22.54906115 16.365174 -21.11546401 13.08799365 -19.57421875 9.47265625 C-14.56437049 1.52146509 -9.15459241 -0.1858417 0 0 Z M-14.9375 34.875 C-19.18549119 40.69021124 -21.95630387 45.94081353 -23.9375 52.875 C-21.2975 54.525 -18.6575 56.175 -15.9375 57.875 C-16.9375 61.875 -16.9375 61.875 -18.9375 63.875 C-18.463125 64.24625 -17.98875 64.6175 -17.5 65 C-15.32362659 67.6116481 -15.16503021 69.49861415 -14.9375 72.875 C-16.15234375 75.76953125 -16.15234375 75.76953125 -17.875 78.6875 C-20.62840178 83.72271779 -22.45936743 88.12702377 -20.9375 93.875 C-19.7220594 96.39269839 -18.50581931 97.738785 -15.9375 98.875 C-12.70698182 99.24288819 -10.01807074 98.90378347 -6.9375 97.875 C-2.65239562 94.26649104 -1.44174798 89.10568046 0.0625 83.875 C1.34899314 87.85869255 0.7045934 90.12210775 -0.87109375 93.90234375 C-2.62954084 97.1551488 -4.56604189 99.29485657 -7.9375 100.875 C-12.51628322 101.78752646 -15.81246526 101.52129655 -19.875 99.1875 C-24.15741219 94.38600755 -24.21208923 90.02274781 -23.9375 83.875 C-24.5975 83.545 -25.2575 83.215 -25.9375 82.875 C-25.9375 81.885 -25.9375 80.895 -25.9375 79.875 C-27.2575 79.875 -28.5775 79.875 -29.9375 79.875 C-31.9787042 86.56358876 -32.81167441 92.8537977 -31.3125 99.75 C-29.41347003 102.6848645 -27.17744728 103.84342057 -23.9375 104.875 C-15.55455087 106.28389901 -7.02157157 106.21457971 1.45825195 106.42724609 C3.46838355 106.47900099 5.47830931 106.53617329 7.48828125 106.59375 C8.10391434 106.60732544 8.71954742 106.62090088 9.35383606 106.6348877 C12.19066963 106.71742678 14.34292919 106.9684764 17.0625 107.875 C17.0625 108.535 17.0625 109.195 17.0625 109.875 C16.22444824 109.71201416 15.38639648 109.54902832 14.52294922 109.38110352 C10.85752693 108.84502193 7.38897354 108.7478839 3.6953125 108.77734375 C3.01572479 108.7787587 2.33613708 108.78017365 1.63595581 108.78163147 C-0.51357612 108.78718482 -2.66300008 108.79972831 -4.8125 108.8125 C-6.27864432 108.81752104 -7.74479029 108.82208289 -9.2109375 108.82617188 C-12.78649931 108.83713891 -16.36198141 108.85437079 -19.9375 108.875 C-19.74196533 109.45072754 -19.54643066 110.02645508 -19.3449707 110.61962891 C-16.94320541 117.74740084 -16.94320541 117.74740084 -15.98046875 121.2734375 C-13.71449918 129.15776999 -13.71449918 129.15776999 -10.5 132.125 C-5.4264106 133.8249819 0.79603587 133.08597112 6.0625 132.875 C5.7325 133.535 5.4025 134.195 5.0625 134.875 C3.49609375 135.32421875 3.49609375 135.32421875 1.5 135.5625 C0.85933594 135.64886719 0.21867187 135.73523438 -0.44140625 135.82421875 C-3.99097578 135.89643221 -7.42942809 135.38060509 -10.9375 134.875 C-10.76927864 157.53540632 -2.98668437 168.3229502 11.8203125 184.4140625 C14.32831051 187.16674324 16.71773691 189.98312552 19.0625 192.875 C22.309496 191.792668 22.48836544 191.65783468 24.0078125 188.875 C24.183125 188.55897827 24.183125 188.55897827 25.0703125 186.9597168 C25.43898437 186.27176025 25.80765625 185.58380371 26.1875 184.875 C26.57421875 184.16964111 26.9609375 183.46428223 27.359375 182.73754883 C28.60502641 180.45594741 29.83500685 178.16641593 31.0625 175.875 C31.48499023 175.0917334 31.90748047 174.3084668 32.34277344 173.50146484 C33.58783265 171.1911883 34.82709188 168.87795051 36.0625 166.5625 C36.44809082 165.83998047 36.83368164 165.11746094 37.23095703 164.37304688 C37.58786621 163.69693359 37.94477539 163.02082031 38.3125 162.32421875 C38.62703125 161.72955811 38.9415625 161.13489746 39.265625 160.5222168 C41.08355075 156.7643905 41.21062632 153.63161375 41.2734375 149.51171875 C41.30156915 148.21808767 41.33023378 146.9244681 41.359375 145.63085938 C41.40009121 143.61516449 41.43700471 141.59966953 41.46386719 139.58374023 C41.60252697 129.98394102 42.6680834 121.19397904 45.0625 111.875 C45.15760864 111.49375977 45.15760864 111.49375977 45.63891602 109.56445312 C46.51325806 106.87889914 47.43525273 105.20798312 49.9609375 103.8671875 C52.125 103.0625 52.125 103.0625 54.22265625 102.48046875 C56.0625 101.875 56.0625 101.875 58.0625 99.875 C57.92423981 95.03589332 55.10415884 91.44072844 52.0625 87.875 C51.7325 87.875 51.4025 87.875 51.0625 87.875 C50.96582031 88.29652344 50.96582031 88.29652344 50.4765625 90.4296875 C50.21617187 91.52539062 49.95578125 92.62109375 49.6875 93.75 C49.43226563 94.84054688 49.17703125 95.93109375 48.9140625 97.0546875 C48.0625 99.875 48.0625 99.875 46.0625 101.875 C40.49431818 101.30681818 40.49431818 101.30681818 39.0625 99.875 C38.9296875 98.16796875 38.9296875 98.16796875 38.9375 96.0625 C38.93621094 95.71896484 38.93621094 95.71896484 38.9296875 93.98046875 C39.0625 91.875 39.0625 91.875 39.5625 90.0859375 C40.0205258 88.06060465 40.12472417 86.43334907 40.1328125 84.37109375 C40.22116994 74.41860933 41.90726073 68.75008554 48.0625 60.875 C50.19364761 56.61270478 49.73997109 51.03996198 48.34375 46.578125 C45.94597589 41.4345128 42.98627195 38.27135315 37.796875 35.79296875 C29.90965297 33.14511564 20.84985854 34.73535387 12.875 36.375 C2.91685755 38.41681163 -5.36731134 38.84485604 -14.9375 34.875 Z M-25.9375 60.875 C-26.2675 61.535 -26.5975 62.195 -26.9375 62.875 C-25.2875 62.875 -23.6375 62.875 -21.9375 62.875 C-23.2575 62.215 -24.5775 61.555 -25.9375 60.875 Z M-29.9375 65.875 C-29.2775 67.195 -28.6175 68.515 -27.9375 69.875 C-28.5975 70.535 -29.2575 71.195 -29.9375 71.875 C-30.0625 74 -30.0625 74 -29.9375 75.875 C-27.13879973 77.27435013 -25.03251208 77.12765405 -21.9375 76.875 C-20.0625 75.8125 -20.0625 75.8125 -18.9375 73.875 C-18.69822622 71.48226217 -18.80069308 69.29192224 -18.9375 66.875 C-21.34295638 65.67227181 -22.88746953 65.77428528 -25.5625 65.8125 C-26.37976563 65.82152344 -27.19703125 65.83054687 -28.0390625 65.83984375 C-28.66554688 65.85144531 -29.29203125 65.86304687 -29.9375 65.875 Z M43.0625 77.875 C42.72530953 80.43704544 42.39262847 82.99954318 42.0625 85.5625 C41.96710938 86.28373047 41.87171875 87.00496094 41.7734375 87.74804688 C41.29566265 91.48492871 40.94330206 95.09791531 41.0625 98.875 C42.7125 98.875 44.3625 98.875 46.0625 98.875 C47.20077089 94.48452657 48.21803114 90.09963535 48.5 85.5625 C48.53996094 84.94761719 48.57992187 84.33273438 48.62109375 83.69921875 C47.72566753 80.77499466 45.47362791 79.60049912 43.0625 77.875 Z M-14.9375 151.875 C-19.64301151 161.28602303 -15.24187115 175.65154067 -13.0625 185.375 C-12.92762177 185.98656952 -12.79274353 186.59813904 -12.65377808 187.22824097 C-10.95499152 194.83721614 -10.95499152 194.83721614 -9.9375 197.875 C-9.2775 198.205 -8.6175 198.535 -7.9375 198.875 C-7.81632812 198.46507812 -7.81632812 198.46507812 -7.203125 196.390625 C-6.86796875 195.31296875 -6.5328125 194.2353125 -6.1875 193.125 C-5.86265625 192.05765625 -5.5378125 190.9903125 -5.203125 189.890625 C-3.86094846 186.69259941 -2.6495929 185.01180047 0.0625 182.875 C3.3125 182.625 3.3125 182.625 6.0625 182.875 C5.73378906 182.43671875 5.40507813 181.9984375 5.06640625 181.546875 C4.03421533 180.17062044 3.0060218 178.79136428 1.98046875 177.41015625 C0.61094744 175.59993358 -0.77531597 173.82452121 -2.19921875 172.05859375 C-7.32629553 165.60778351 -10.67792052 159.9020376 -12.9375 151.875 C-13.5975 151.875 -14.2575 151.875 -14.9375 151.875 Z M45.0625 152.875 C44.96227539 153.11359741 44.96227539 153.11359741 44.45507812 154.32104492 C40.66961833 163.26215504 36.84848123 171.91191335 31.4140625 179.98901367 C30.577786 181.25113316 29.81206164 182.55952999 29.0625 183.875 C29.3925 184.535 29.7225 185.195 30.0625 185.875 C30.43761719 185.50246094 30.81273437 185.12992188 31.19921875 184.74609375 C31.71097656 184.27300781 32.22273438 183.79992187 32.75 183.3125 C33.24886719 182.83683594 33.74773437 182.36117187 34.26171875 181.87109375 C36.0625 180.875 36.0625 180.875 38.57421875 180.921875 C41.8615043 182.18105502 42.5424347 183.61761038 44.1875 186.6875 C45.97254061 189.95364187 47.79930666 192.92125459 50.0625 195.875 C49.967404 192.10672447 49.86101656 188.33896863 49.74511719 184.57128906 C49.70734422 183.2953311 49.67241214 182.01928517 49.640625 180.74316406 C49.06512265 157.90291468 49.06512265 157.90291468 45.0625 152.875 Z M2.0625 185.875 C4.3566348 192.27994487 8.40754884 199.21284241 14.00390625 203.2890625 C16.43631238 204.41332797 18.510062 204.92374453 21.1875 204.6875 C21.80625 204.419375 22.425 204.15125 23.0625 203.875 C23.8565625 203.67261719 24.650625 203.47023437 25.46875 203.26171875 C29.18604303 201.27431058 29.95926597 198.68930335 31.4375 194.875 C31.57349609 194.55402344 31.57349609 194.55402344 32.26171875 192.9296875 C32.93733246 191.27356774 33.50815259 189.57555446 34.0625 187.875 C33.7325 187.215 33.4025 186.555 33.0625 185.875 C31.4125 187.195 29.7625 188.515 28.0625 189.875 C27.7325 189.215 27.4025 188.555 27.0625 187.875 C25.0825 190.515 23.1025 193.155 21.0625 195.875 C16.64004011 193.66377005 16.64004011 193.66377005 14.5625 191.3125 C12.0959222 188.90758664 11.29215937 188.41327656 8.0625 187.875 C7.546875 187.524375 7.03125 187.17375 6.5 186.8125 C5.0625 185.875 5.0625 185.875 2.0625 185.875 Z M111.0625 201.875 C111.7225 203.195 112.3825 204.515 113.0625 205.875 C113.7225 204.885 114.3825 203.895 115.0625 202.875 C113.7425 202.545 112.4225 202.215 111.0625 201.875 Z " fill="#8b1414" transform="translate(97.9375,17.125)"/>
<path d="M0 0 C0.97710937 -0.03867188 1.95421875 -0.07734375 2.9609375 -0.1171875 C3.41791016 -0.13587891 3.41791016 -0.13587891 5.73046875 -0.23046875 C8.1484375 0.1953125 8.1484375 0.1953125 9.97265625 2.21484375 C10.36066406 2.86839844 10.74867187 3.52195312 11.1484375 4.1953125 C9.3984375 8.0703125 9.3984375 8.0703125 7.1484375 9.1953125 C-11.79490901 11.90150486 -11.79490901 11.90150486 -16.6640625 9.18359375 C-17.0559375 8.85746094 -17.4478125 8.53132813 -17.8515625 8.1953125 C-17.7265625 6.3828125 -17.7265625 6.3828125 -16.8515625 4.1953125 C-11.48229359 0.65945249 -6.26930901 0.42940473 0 0 Z " fill="#8b1414" transform="translate(114.8515625,68.8046875)"/>
<path d="M0 0 C1.13050781 -0.01675781 2.26101562 -0.03351563 3.42578125 -0.05078125 C7.26059264 0.37632948 9.93826644 1.56326644 12.6875 4.3125 C13.0804393 8.39906867 13.09774262 10.49201476 11.25 14.1875 C7.61539682 17.20156118 4.34513114 17.61116959 -0.3125 17.3125 C-3.58758806 16.33620525 -5.88729583 14.73770417 -8.3125 12.3125 C-8.578125 10 -8.578125 10 -8.5625 7.3125 C-8.56765625 6.425625 -8.5728125 5.53875 -8.578125 4.625 C-7.98054084 -0.57749736 -4.36580135 0.01483285 0 0 Z M-5.3125 3.3125 C-4.6525 4.6325 -3.9925 5.9525 -3.3125 7.3125 C-3.6425 7.4775 -3.6425 7.4775 -5.3125 8.3125 C-4.9375 10.25 -4.9375 10.25 -4.3125 12.3125 C-1.98563547 13.47593227 -0.46528587 13.51145988 2.125 13.5625 C2.51623047 13.57539062 2.51623047 13.57539062 4.49609375 13.640625 C7.21087628 13.2341335 8.06794746 12.4942539 9.6875 10.3125 C9.875 7.625 9.875 7.625 9.6875 5.3125 C6.33810119 3.28691119 3.81787449 3.09511013 -0.0625 3.1875 C-1.04734375 3.20554687 -2.0321875 3.22359375 -3.046875 3.2421875 C-3.79453125 3.26539062 -4.5421875 3.28859375 -5.3125 3.3125 Z " fill="#8b1414" transform="translate(106.3125,79.6875)"/>
<path d="M0 0 C1.52519276 0.08937803 3.04681929 0.24537146 4.5625 0.4375 C4.97564453 0.48841797 4.97564453 0.48841797 7.06640625 0.74609375 C7.70449219 0.82988281 8.34257813 0.91367188 9 1 C9 1.99 9 2.98 9 4 C7.70936389 4.08103994 6.41727602 4.13921211 5.125 4.1875 C4.40570313 4.22230469 3.68640625 4.25710937 2.9453125 4.29296875 C1 4 1 4 -0.2578125 2.48828125 C-0.38027344 2.24271484 -0.38027344 2.24271484 -1 1 C-0.67 0.67 -0.34 0.34 0 0 Z " fill="#8b1414" transform="translate(103,97)"/>
<path d="M0 0 C0.99 0.33 1.98 0.66 3 1 C3 2.65 3 4.3 3 6 C2.01 6 1.02 6 0 6 C0 4.02 0 2.04 0 0 Z " fill="#8b1414" transform="translate(118,125)"/>
<path d="M0 0 C3.3 0 6.6 0 10 0 C10.33 0.99 10.66 1.98 11 3 C6.58937864 4.0257259 4.07369424 4.03684712 0 2 C0 1.34 0 0.68 0 0 Z " fill="#8b1414" transform="translate(82,127)"/>
</g>
<g filter="url(#glow)">
<path d="M0 0 C1.02270996 0.0107959 2.04541992 0.0215918 3.09912109 0.03271484 C10.4576311 0.3252055 15.75762226 1.88046757 22.04663086 5.59936523 C28.27638871 9.25935799 34.71542838 11.00241479 41.70751953 12.70751953 C52.4178746 15.43704539 61.44148564 21.66418638 67.484375 31.09375 C69.91403073 35.81221185 71.18752445 40.0613862 71.1953125 45.39453125 C71.19660156 46.25240234 71.19789063 47.11027344 71.19921875 47.99414062 C71.19535156 48.88294922 71.19148437 49.77175781 71.1875 50.6875 C71.19136719 51.56470703 71.19523438 52.44191406 71.19921875 53.34570312 C71.19356158 57.12752372 71.14905533 60.81726295 70.56640625 64.55859375 C70.02496967 68.12200194 69.87122392 71.52876016 69.875 75.125 C69.87467773 75.4509314 69.87467773 75.4509314 69.87304688 77.1003418 C69.91588877 81.06759907 70.27971832 84.7846949 71.0625 88.6875 C73.14951807 99.1998873 71.92432126 105.2051123 66.859375 114.46484375 C65.27425486 117.37388097 64.12988758 120.29619707 63.0625 123.4375 C61.49801464 127.42759502 59.81036319 129.83711109 56.14453125 132.11328125 C52.19765457 133.55726052 48.19210497 133.2489079 44.0625 132.875 C44.26214528 146.28753258 44.26214528 146.28753258 47.0625 149.875 C48.42578125 150.87890625 48.42578125 150.87890625 50.0625 151.875 C50.71605469 152.33777344 51.36960938 152.80054688 52.04296875 153.27734375 C55.08798871 155.39538418 58.18134295 157.37650849 61.41015625 159.203125 C68.50276605 163.21650421 74.37463643 168.1978719 80.48828125 173.52734375 C81.9168095 174.75027737 83.366 175.93113977 84.84375 177.09375 C89.02095062 180.38636696 92.90052661 183.63845263 96.54296875 187.51171875 C97.14761963 188.14875732 97.75227051 188.7857959 98.37524414 189.44213867 C99.55388664 190.69921972 100.71450633 191.97353027 101.85327148 193.2668457 C105.03302976 196.65774331 107.0907245 198.21007571 111.80078125 198.62890625 C112.53852783 198.6347876 113.27627441 198.64066895 114.03637695 198.64672852 C116.49319997 198.92352446 117.38066563 199.59643386 119.125 201.3125 C121.0625 203.875 121.0625 203.875 121.0625 205.875 C121.825625 205.936875 122.58875 205.99875 123.375 206.0625 C126.0625 206.875 126.0625 206.875 127.875 209.4375 C128.266875 210.241875 128.65875 211.04625 129.0625 211.875 C126.0925 211.875 123.1225 211.875 120.0625 211.875 C119.7325 211.05 119.7325 211.05 118.0625 206.875 C117.7325 208.525 117.4025 210.175 117.0625 211.875 C116.0725 211.875 115.0825 211.875 114.0625 211.875 C112.328125 209.99609375 112.328125 209.99609375 110.3125 207.3125 C101.32495615 195.80737256 90.57021936 185.8099966 79.0625 176.875 C77.6203943 175.72504079 76.18272558 174.56969569 74.74536133 173.41381836 C72.85565879 171.89512102 70.95919464 170.38494997 69.0625 168.875 C69.33964844 169.81601563 69.61679688 170.75703125 69.90234375 171.7265625 C70.26840833 172.98432287 70.63428368 174.24213832 71 175.5 C71.09120117 175.80873047 71.09120117 175.80873047 71.55273438 177.37109375 C73.55468926 184.28693791 74.22284675 190.75621804 74.1875 197.9375 C74.19136719 198.72705078 74.19523438 199.51660156 74.19921875 200.33007812 C74.19857422 200.71454102 74.19857422 200.71454102 74.1953125 202.66015625 C74.19418457 203.34988525 74.19305664 204.03961426 74.19189453 204.75024414 C74.0625 206.875 74.0625 206.875 73.0625 211.875 C68.7725 211.875 64.4825 211.875 60.0625 211.875 C59.89234375 210.46089844 59.7221875 209.04679688 59.546875 207.58984375 C58.13859286 196.35714063 56.27577048 185.73363817 53.0625 174.875 C53.0625 182.795 53.0625 190.715 53.0625 198.875 C52.4025 199.205 52.4025 199.205 49.0625 200.875 C47.4125 198.235 45.7625 195.595 44.0625 192.875 C43.4025 199.145 42.7425 205.415 42.0625 211.875 C40.7425 211.875 39.4225 211.875 38.0625 211.875 C38.3925 205.935 38.7225 199.995 39.0625 193.875 C38.4953125 194.8959375 38.4953125 194.8959375 35.625 200.0625 C35.26865479 200.69567139 34.91230957 201.32884277 34.54516602 201.98120117 C34.40429565 202.23889282 34.40429565 202.23889282 33.69140625 203.54296875 C33.40338135 204.06141357 33.11535645 204.5798584 32.81860352 205.11401367 C32.0625 206.875 32.0625 206.875 31.0625 211.875 C24.1325 211.875 17.2025 211.875 10.0625 211.875 C9.0725 209.895 8.0825 207.915 7.0625 205.875 C5.45703125 203.9765625 5.45703125 203.9765625 3.875 202.5 C3.34519531 201.99726563 2.81539063 201.49453125 2.26953125 200.9765625 C1.87121094 200.61304688 1.47289063 200.24953125 1.0625 199.875 C1.66670849 204.10445943 2.6327837 207.87179436 4.0625 211.875 C2.7425 211.875 1.4225 211.875 0.0625 211.875 C-1.2575 207.915 -2.5775 203.955 -3.9375 199.875 C-5.2575 201.855 -6.5775 203.835 -7.9375 205.875 C-8.9275 205.545 -9.9175 205.215 -10.9375 204.875 C-11.73706055 203.10913086 -11.73706055 203.10913086 -12.32421875 200.83984375 C-12.54013672 200.03095703 -12.75605469 199.22207031 -12.97851562 198.38867188 C-13.19185547 197.53853516 -13.40519531 196.68839844 -13.625 195.8125 C-13.7374707 195.38549805 -13.7374707 195.38549805 -14.30664062 193.22460938 C-14.86167305 191.11076247 -15.40469069 188.99453756 -15.9375 186.875 C-17.65193219 188.58943219 -17.16802967 190.87945241 -17.25390625 193.22265625 C-17.29580078 194.30224609 -17.33769531 195.38183594 -17.38085938 196.49414062 C-17.42017578 197.63044922 -17.45949219 198.76675781 -17.5 199.9375 C-17.5215918 200.50758789 -17.5215918 200.50758789 -17.63085938 203.39257812 C-17.73732738 206.21989508 -17.83795262 209.04743092 -17.9375 211.875 C-23.8775 211.875 -29.8175 211.875 -35.9375 211.875 C-37.88139992 196.32380065 -36.78608076 180.8409526 -31.9375 165.875 C-42.87164258 174.2016364 -53.65048009 182.59464032 -63.70336914 191.98217773 C-66.10899416 194.22534496 -68.54120983 196.39540838 -71.0859375 198.48046875 C-73.32865719 200.33092153 -75.34819236 202.22812239 -77.25 204.4375 C-77.49556641 204.71658203 -77.49556641 204.71658203 -78.73828125 206.12890625 C-80.04874787 208.0369798 -80.516937 209.61385542 -80.9375 211.875 C-81.9275 211.875 -82.9175 211.875 -83.9375 211.875 C-84.2675 209.895 -84.5975 207.915 -84.9375 205.875 C-85.5975 205.875 -86.2575 205.875 -86.9375 205.875 C-87.5975 207.855 -88.2575 209.835 -88.9375 211.875 C-90.9175 211.875 -92.8975 211.875 -94.9375 211.875 C-94.00612408 210.57891053 -93.0671434 209.28828368 -92.125 208 C-91.86396484 207.64035156 -91.86396484 207.64035156 -90.54296875 205.8203125 C-89.04551546 204.00588004 -88.042518 202.88540864 -85.9375 201.875 C-83.89453125 201.6796875 -83.89453125 201.6796875 -81.75 201.75 C-81.03457031 201.76804688 -80.31914063 201.78609375 -79.58203125 201.8046875 C-79.03933594 201.82789063 -78.49664062 201.85109375 -77.9375 201.875 C-77.83179688 201.60171875 -77.83179688 201.60171875 -77.296875 200.21875 C-75.42981791 196.99968605 -72.94221967 194.84414976 -70.1875 192.375 C-69.60967773 191.85091553 -69.03185547 191.32683105 -68.43652344 190.78686523 C-66.61161043 189.14026246 -64.77657703 187.5057594 -62.9375 185.875 C-62.37417969 185.37371582 -61.81085937 184.87243164 -61.23046875 184.35595703 C-54.31978178 178.23627667 -47.19872902 172.4312964 -39.875 166.8125 C-39.16053711 166.26408447 -38.44607422 165.71566895 -37.70996094 165.15063477 C-28.1183686 157.875 -28.1183686 157.875 -24.9375 157.875 C-24.73125 157.318125 -24.525 156.76125 -24.3125 156.1875 C-22.72043285 153.50993252 -20.9308575 152.07969008 -18.47265625 150.21875 C-15.97680712 148.03408816 -14.13022267 146.13474821 -13.6171875 142.78125 C-14.5686873 131.0587725 -18.99340768 118.02617107 -24.9375 107.875 C-26.92895391 106.85808736 -28.92937074 105.85857352 -30.9375 104.875 C-34.58632373 101.32219795 -35.14526261 98.80215548 -35.25439453 93.6965332 C-35.24551468 89.88954534 -35.19742524 86.17050039 -34.4453125 82.421875 C-33.63704517 78.36810346 -33.58110583 74.26262235 -33.41992188 70.13867188 C-33.15373884 65.09123884 -33.15373884 65.09123884 -30.9375 62.875 C-31.03125 61 -31.03125 61 -31.4375 58.875 C-31.84375 56.75 -31.84375 56.75 -31.9375 54.875 C-31.6075 54.545 -31.6075 54.545 -29.9375 52.875 C-28.9475 52.875 -27.9575 52.875 -26.9375 52.875 C-27.78640306 48.00497721 -29.41677632 43.54603507 -31.09765625 38.91015625 C-32.20569572 34.90575313 -32.69405668 31.58965509 -30.984375 27.71484375 C-30.55640625 27.08707031 -30.1284375 26.45929687 -29.6875 25.8125 C-29.45804688 25.47025391 -29.45804688 25.47025391 -28.296875 23.73828125 C-27.23438461 22.28193667 -26.09870103 20.87892623 -24.9375 19.5 C-22.54906115 16.365174 -21.11546401 13.08799365 -19.57421875 9.47265625 C-14.56437049 1.52146509 -9.15459241 -0.1858417 0 0 Z M-14.9375 34.875 C-19.18549119 40.69021124 -21.95630387 45.94081353 -23.9375 52.875 C-21.2975 54.525 -18.6575 56.175 -15.9375 57.875 C-16.9375 61.875 -16.9375 61.875 -18.9375 63.875 C-18.463125 64.24625 -17.98875 64.6175 -17.5 65 C-15.32362659 67.6116481 -15.16503021 69.49861415 -14.9375 72.875 C-16.15234375 75.76953125 -16.15234375 75.76953125 -17.875 78.6875 C-20.62840178 83.72271779 -22.45936743 88.12702377 -20.9375 93.875 C-19.7220594 96.39269839 -18.50581931 97.738785 -15.9375 98.875 C-12.70698182 99.24288819 -10.01807074 98.90378347 -6.9375 97.875 C-2.65239562 94.26649104 -1.44174798 89.10568046 0.0625 83.875 C1.34899314 87.85869255 0.7045934 90.12210775 -0.87109375 93.90234375 C-2.62954084 97.1551488 -4.56604189 99.29485657 -7.9375 100.875 C-12.51628322 101.78752646 -15.81246526 101.52129655 -19.875 99.1875 C-24.15741219 94.38600755 -24.21208923 90.02274781 -23.9375 83.875 C-24.5975 83.545 -25.2575 83.215 -25.9375 82.875 C-25.9375 81.885 -25.9375 80.895 -25.9375 79.875 C-27.2575 79.875 -28.5775 79.875 -29.9375 79.875 C-31.9787042 86.56358876 -32.81167441 92.8537977 -31.3125 99.75 C-29.41347003 102.6848645 -27.17744728 103.84342057 -23.9375 104.875 C-15.55455087 106.28389901 -7.02157157 106.21457971 1.45825195 106.42724609 C3.46838355 106.47900099 5.47830931 106.53617329 7.48828125 106.59375 C8.10391434 106.60732544 8.71954742 106.62090088 9.35383606 106.6348877 C12.19066963 106.71742678 14.34292919 106.9684764 17.0625 107.875 C17.0625 108.535 17.0625 109.195 17.0625 109.875 C16.22444824 109.71201416 15.38639648 109.54902832 14.52294922 109.38110352 C10.85752693 108.84502193 7.38897354 108.7478839 3.6953125 108.77734375 C3.01572479 108.7787587 2.33613708 108.78017365 1.63595581 108.78163147 C-0.51357612 108.78718482 -2.66300008 108.79972831 -4.8125 108.8125 C-6.27864432 108.81752104 -7.74479029 108.82208289 -9.2109375 108.82617188 C-12.78649931 108.83713891 -16.36198141 108.85437079 -19.9375 108.875 C-19.74196533 109.45072754 -19.54643066 110.02645508 -19.3449707 110.61962891 C-16.94320541 117.74740084 -16.94320541 117.74740084 -15.98046875 121.2734375 C-13.71449918 129.15776999 -13.71449918 129.15776999 -10.5 132.125 C-5.4264106 133.8249819 0.79603587 133.08597112 6.0625 132.875 C5.7325 133.535 5.4025 134.195 5.0625 134.875 C3.49609375 135.32421875 3.49609375 135.32421875 1.5 135.5625 C0.85933594 135.64886719 0.21867187 135.73523438 -0.44140625 135.82421875 C-3.99097578 135.89643221 -7.42942809 135.38060509 -10.9375 134.875 C-10.76927864 157.53540632 -2.98668437 168.3229502 11.8203125 184.4140625 C14.32831051 187.16674324 16.71773691 189.98312552 19.0625 192.875 C22.309496 191.792668 22.48836544 191.65783468 24.0078125 188.875 C24.183125 188.55897827 24.183125 188.55897827 25.0703125 186.9597168 C25.43898437 186.27176025 25.80765625 185.58380371 26.1875 184.875 C26.57421875 184.16964111 26.9609375 183.46428223 27.359375 182.73754883 C28.60502641 180.45594741 29.83500685 178.16641593 31.0625 175.875 C31.48499023 175.0917334 31.90748047 174.3084668 32.34277344 173.50146484 C33.58783265 171.1911883 34.82709188 168.87795051 36.0625 166.5625 C36.44809082 165.83998047 36.83368164 165.11746094 37.23095703 164.37304688 C37.58786621 163.69693359 37.94477539 163.02082031 38.3125 162.32421875 C38.62703125 161.72955811 38.9415625 161.13489746 39.265625 160.5222168 C41.08355075 156.7643905 41.21062632 153.63161375 41.2734375 149.51171875 C41.30156915 148.21808767 41.33023378 146.9244681 41.359375 145.63085938 C41.40009121 143.61516449 41.43700471 141.59966953 41.46386719 139.58374023 C41.60252697 129.98394102 42.6680834 121.19397904 45.0625 111.875 C45.15760864 111.49375977 45.15760864 111.49375977 45.63891602 109.56445312 C46.51325806 106.87889914 47.43525273 105.20798312 49.9609375 103.8671875 C52.125 103.0625 52.125 103.0625 54.22265625 102.48046875 C56.0625 101.875 56.0625 101.875 58.0625 99.875 C57.92423981 95.03589332 55.10415884 91.44072844 52.0625 87.875 C51.7325 87.875 51.4025 87.875 51.0625 87.875 C50.96582031 88.29652344 50.96582031 88.29652344 50.4765625 90.4296875 C50.21617187 91.52539062 49.95578125 92.62109375 49.6875 93.75 C49.43226563 94.84054688 49.17703125 95.93109375 48.9140625 97.0546875 C48.0625 99.875 48.0625 99.875 46.0625 101.875 C40.49431818 101.30681818 40.49431818 101.30681818 39.0625 99.875 C38.9296875 98.16796875 38.9296875 98.16796875 38.9375 96.0625 C38.93621094 95.71896484 38.93621094 95.71896484 38.9296875 93.98046875 C39.0625 91.875 39.0625 91.875 39.5625 90.0859375 C40.0205258 88.06060465 40.12472417 86.43334907 40.1328125 84.37109375 C40.22116994 74.41860933 41.90726073 68.75008554 48.0625 60.875 C50.19364761 56.61270478 49.73997109 51.03996198 48.34375 46.578125 C45.94597589 41.4345128 42.98627195 38.27135315 37.796875 35.79296875 C29.90965297 33.14511564 20.84985854 34.73535387 12.875 36.375 C2.91685755 38.41681163 -5.36731134 38.84485604 -14.9375 34.875 Z M-25.9375 60.875 C-26.2675 61.535 -26.5975 62.195 -26.9375 62.875 C-25.2875 62.875 -23.6375 62.875 -21.9375 62.875 C-23.2575 62.215 -24.5775 61.555 -25.9375 60.875 Z M-29.9375 65.875 C-29.2775 67.195 -28.6175 68.515 -27.9375 69.875 C-28.5975 70.535 -29.2575 71.195 -29.9375 71.875 C-30.0625 74 -30.0625 74 -29.9375 75.875 C-27.13879973 77.27435013 -25.03251208 77.12765405 -21.9375 76.875 C-20.0625 75.8125 -20.0625 75.8125 -18.9375 73.875 C-18.69822622 71.48226217 -18.80069308 69.29192224 -18.9375 66.875 C-21.34295638 65.67227181 -22.88746953 65.77428528 -25.5625 65.8125 C-26.37976563 65.82152344 -27.19703125 65.83054687 -28.0390625 65.83984375 C-28.66554688 65.85144531 -29.29203125 65.86304687 -29.9375 65.875 Z M43.0625 77.875 C42.72530953 80.43704544 42.39262847 82.99954318 42.0625 85.5625 C41.96710938 86.28373047 41.87171875 87.00496094 41.7734375 87.74804688 C41.29566265 91.48492871 40.94330206 95.09791531 41.0625 98.875 C42.7125 98.875 44.3625 98.875 46.0625 98.875 C47.20077089 94.48452657 48.21803114 90.09963535 48.5 85.5625 C48.53996094 84.94761719 48.57992187 84.33273438 48.62109375 83.69921875 C47.72566753 80.77499466 45.47362791 79.60049912 43.0625 77.875 Z M-14.9375 151.875 C-19.64301151 161.28602303 -15.24187115 175.65154067 -13.0625 185.375 C-12.92762177 185.98656952 -12.79274353 186.59813904 -12.65377808 187.22824097 C-10.95499152 194.83721614 -10.95499152 194.83721614 -9.9375 197.875 C-9.2775 198.205 -8.6175 198.535 -7.9375 198.875 C-7.81632812 198.46507812 -7.81632812 198.46507812 -7.203125 196.390625 C-6.86796875 195.31296875 -6.5328125 194.2353125 -6.1875 193.125 C-5.86265625 192.05765625 -5.5378125 190.9903125 -5.203125 189.890625 C-3.86094846 186.69259941 -2.6495929 185.01180047 0.0625 182.875 C3.3125 182.625 3.3125 182.625 6.0625 182.875 C5.73378906 182.43671875 5.40507813 181.9984375 5.06640625 181.546875 C4.03421533 180.17062044 3.0060218 178.79136428 1.98046875 177.41015625 C0.61094744 175.59993358 -0.77531597 173.82452121 -2.19921875 172.05859375 C-7.32629553 165.60778351 -10.67792052 159.9020376 -12.9375 151.875 C-13.5975 151.875 -14.2575 151.875 -14.9375 151.875 Z M45.0625 152.875 C44.96227539 153.11359741 44.96227539 153.11359741 44.45507812 154.32104492 C40.66961833 163.26215504 36.84848123 171.91191335 31.4140625 179.98901367 C30.577786 181.25113316 29.81206164 182.55952999 29.0625 183.875 C29.3925 184.535 29.7225 185.195 30.0625 185.875 C30.43761719 185.50246094 30.81273437 185.12992188 31.19921875 184.74609375 C31.71097656 184.27300781 32.22273438 183.79992187 32.75 183.3125 C33.24886719 182.83683594 33.74773437 182.36117187 34.26171875 181.87109375 C36.0625 180.875 36.0625 180.875 38.57421875 180.921875 C41.8615043 182.18105502 42.5424347 183.61761038 44.1875 186.6875 C45.97254061 189.95364187 47.79930666 192.92125459 50.0625 195.875 C49.967404 192.10672447 49.86101656 188.33896863 49.74511719 184.57128906 C49.70734422 183.2953311 49.67241214 182.01928517 49.640625 180.74316406 C49.06512265 157.90291468 49.06512265 157.90291468 45.0625 152.875 Z M2.0625 185.875 C4.3566348 192.27994487 8.40754884 199.21284241 14.00390625 203.2890625 C16.43631238 204.41332797 18.510062 204.92374453 21.1875 204.6875 C21.80625 204.419375 22.425 204.15125 23.0625 203.875 C23.8565625 203.67261719 24.650625 203.47023437 25.46875 203.26171875 C29.18604303 201.27431058 29.95926597 198.68930335 31.4375 194.875 C31.57349609 194.55402344 31.57349609 194.55402344 32.26171875 192.9296875 C32.93733246 191.27356774 33.50815259 189.57555446 34.0625 187.875 C33.7325 187.215 33.4025 186.555 33.0625 185.875 C31.4125 187.195 29.7625 188.515 28.0625 189.875 C27.7325 189.215 27.4025 188.555 27.0625 187.875 C25.0825 190.515 23.1025 193.155 21.0625 195.875 C16.64004011 193.66377005 16.64004011 193.66377005 14.5625 191.3125 C12.0959222 188.90758664 11.29215937 188.41327656 8.0625 187.875 C7.546875 187.524375 7.03125 187.17375 6.5 186.8125 C5.0625 185.875 5.0625 185.875 2.0625 185.875 Z M111.0625 201.875 C111.7225 203.195 112.3825 204.515 113.0625 205.875 C113.7225 204.885 114.3825 203.895 115.0625 202.875 C113.7425 202.545 112.4225 202.215 111.0625 201.875 Z " fill="#c81e1e" transform="translate(97.9375,17.125)"/>
<path d="M0 0 C0.97710937 -0.03867188 1.95421875 -0.07734375 2.9609375 -0.1171875 C3.41791016 -0.13587891 3.41791016 -0.13587891 5.73046875 -0.23046875 C8.1484375 0.1953125 8.1484375 0.1953125 9.97265625 2.21484375 C10.36066406 2.86839844 10.74867187 3.52195312 11.1484375 4.1953125 C9.3984375 8.0703125 9.3984375 8.0703125 7.1484375 9.1953125 C-11.79490901 11.90150486 -11.79490901 11.90150486 -16.6640625 9.18359375 C-17.0559375 8.85746094 -17.4478125 8.53132813 -17.8515625 8.1953125 C-17.7265625 6.3828125 -17.7265625 6.3828125 -16.8515625 4.1953125 C-11.48229359 0.65945249 -6.26930901 0.42940473 0 0 Z " fill="#c81e1e" transform="translate(114.8515625,68.8046875)"/>
<path d="M0 0 C1.13050781 -0.01675781 2.26101562 -0.03351563 3.42578125 -0.05078125 C7.26059264 0.37632948 9.93826644 1.56326644 12.6875 4.3125 C13.0804393 8.39906867 13.09774262 10.49201476 11.25 14.1875 C7.61539682 17.20156118 4.34513114 17.61116959 -0.3125 17.3125 C-3.58758806 16.33620525 -5.88729583 14.73770417 -8.3125 12.3125 C-8.578125 10 -8.578125 10 -8.5625 7.3125 C-8.56765625 6.425625 -8.5728125 5.53875 -8.578125 4.625 C-7.98054084 -0.57749736 -4.36580135 0.01483285 0 0 Z M-5.3125 3.3125 C-4.6525 4.6325 -3.9925 5.9525 -3.3125 7.3125 C-3.6425 7.4775 -3.6425 7.4775 -5.3125 8.3125 C-4.9375 10.25 -4.9375 10.25 -4.3125 12.3125 C-1.98563547 13.47593227 -0.46528587 13.51145988 2.125 13.5625 C2.51623047 13.57539062 2.51623047 13.57539062 4.49609375 13.640625 C7.21087628 13.2341335 8.06794746 12.4942539 9.6875 10.3125 C9.875 7.625 9.875 7.625 9.6875 5.3125 C6.33810119 3.28691119 3.81787449 3.09511013 -0.0625 3.1875 C-1.04734375 3.20554687 -2.0321875 3.22359375 -3.046875 3.2421875 C-3.79453125 3.26539062 -4.5421875 3.28859375 -5.3125 3.3125 Z " fill="#c81e1e" transform="translate(106.3125,79.6875)"/>
<path d="M0 0 C1.52519276 0.08937803 3.04681929 0.24537146 4.5625 0.4375 C4.97564453 0.48841797 4.97564453 0.48841797 7.06640625 0.74609375 C7.70449219 0.82988281 8.34257813 0.91367188 9 1 C9 1.99 9 2.98 9 4 C7.70936389 4.08103994 6.41727602 4.13921211 5.125 4.1875 C4.40570313 4.22230469 3.68640625 4.25710937 2.9453125 4.29296875 C1 4 1 4 -0.2578125 2.48828125 C-0.38027344 2.24271484 -0.38027344 2.24271484 -1 1 C-0.67 0.67 -0.34 0.34 0 0 Z " fill="#c81e1e" transform="translate(103,97)"/>
<path d="M0 0 C0.99 0.33 1.98 0.66 3 1 C3 2.65 3 4.3 3 6 C2.01 6 1.02 6 0 6 C0 4.02 0 2.04 0 0 Z " fill="#c81e1e" transform="translate(118,125)"/>
<path d="M0 0 C3.3 0 6.6 0 10 0 C10.33 0.99 10.66 1.98 11 3 C6.58937864 4.0257259 4.07369424 4.03684712 0 2 C0 1.34 0 0.68 0 0 Z " fill="#c81e1e" transform="translate(82,127)"/>
</g>
</g>
</svg>
