<?xml version="1.0" encoding="UTF-8"?>
<!-- Generator: visioncortex VTracer 0.6.12 -->
<svg version="1.1" xmlns="http://www.w3.org/2000/svg" width="229" height="229">
<path d="M0 0 C0.78246094 0.15984375 1.56492188 0.3196875 2.37109375 0.484375 C4.82134344 1.34043372 5.84160387 2.35108013 7.5625 4.25 C8.325625 4.6625 9.08875 5.075 9.875 5.5 C12.4325937 7.16540985 13.60338878 8.45016475 15.4375 10.8125 C17.53155044 13.39516221 18.78606827 14.60770391 22.0625 15.25 C25.98865209 16.08203223 27.78446437 18.04308046 30.25 21.125 C31.68655718 23.45085448 32.42519647 25.64869656 33.25 28.25 C35.28407514 33.92309566 38.81220963 35.71538747 43.87890625 38.62890625 C52.17947661 43.64307903 56.45471757 53.39350774 59.2265625 62.41015625 C59.76895769 65.38071593 59.62047897 68.23509346 59.5625 71.25 C59.82224609 71.27449219 59.82224609 71.27449219 61.13671875 71.3984375 C64.34005311 71.74186336 67.07907853 72.04454588 70.0625 73.3125 C72.61265337 74.26880751 74.01472814 74.29441087 76.6875 74.1875 C80.31598339 74.11903805 80.31598339 74.11903805 82.5625 75.3125 C84.72646811 79.50518821 83.71435087 84.20600178 82.4609375 88.5546875 C75.88938231 108.98822061 75.88938231 108.98822061 68.984375 112.59765625 C66.19963161 113.65905435 63.4445747 114.49706321 60.5625 115.25 C59.22905365 115.64545244 57.89570053 116.04121959 56.5625 116.4375 C56.0675 116.5715625 56.0675 116.5715625 53.5625 117.25 C50.5625 118.25 50.5625 118.25 49.53515625 119.76196289 C48.52490694 121.93828054 47.52357223 124.1138673 46.5625 126.3125 C46.38525391 126.71488892 46.38525391 126.71488892 45.48828125 128.7512207 C42.27250437 136.37449476 40.37959421 144.02428059 39.5625 152.25 C39.47645508 152.83072266 39.39041016 153.41144531 39.30175781 154.00976562 C38.9552887 157.77682984 39.63134963 159.78064137 41.984375 162.7578125 C43.07623342 163.97942655 44.18681479 165.18448393 45.3125 166.375 C45.90087646 167.02605713 46.48925293 167.67711426 47.09545898 168.34790039 C49.91498524 171.45372282 52.79646213 174.50050546 55.67578125 177.55078125 C67.16248891 189.7441888 76.75532642 203.01618411 85.5625 217.25 C84.2425 217.58 82.9225 217.91 81.5625 218.25 C81.05203125 217.425 80.5415625 216.6 80.015625 215.75 C75.79199569 209.00663117 71.37509093 202.44746282 66.625 196.0625 C66.1722168 195.44697266 65.71943359 194.83144531 65.25292969 194.19726562 C60.73932302 188.2063075 55.65425283 182.74722938 50.5625 177.25 C50.71396484 178.20777344 50.86542969 179.16554687 51.02148438 180.15234375 C51.58673149 183.73717052 52.14389116 187.32321688 52.69873047 190.90966797 C52.93906996 192.45590581 53.18154381 194.00181358 53.42626953 195.54736328 C53.77951209 197.78072134 54.12482745 200.01519004 54.46875 202.25 C54.5781189 202.93054443 54.68748779 203.61108887 54.8001709 204.31225586 C55.50931334 208.98831543 55.68623945 213.52354582 55.5625 218.25 C54.5725 218.25 53.5825 218.25 52.5625 218.25 C52.39645264 217.15647217 52.23040527 216.06294434 52.05932617 214.9362793 C51.43396927 210.8294753 50.80009946 206.7240209 50.16381836 202.61889648 C49.89103284 200.85134285 49.62047231 199.0834442 49.35229492 197.31518555 C45.365 171.0525 45.365 171.0525 42.5625 168.25 C38.9547887 184.81680872 37.09640924 201.39290297 35.5625 218.25 C34.5725 218.25 33.5825 218.25 32.5625 218.25 C32.5625 215.28 32.5625 212.31 32.5625 209.25 C31.2425 208.92 29.9225 208.59 28.5625 208.25 C27.078125 206.69140625 27.078125 206.69140625 25.8125 204.8125 C25.38453125 204.19503906 24.9565625 203.57757813 24.515625 202.94140625 C23.5625 201.25 23.5625 201.25 23.5625 199.25 C22.9025 199.25 22.2425 199.25 21.5625 199.25 C21.6346875 199.68441406 21.6346875 199.68441406 22 201.8828125 C22.18774563 203.04683541 22.37523177 204.21090019 22.5625 205.375 C22.748125 206.51195312 22.93375 207.64890625 23.125 208.8203125 C23.53206049 212.01137602 23.64059902 215.03817791 23.5625 218.25 C22.5725 218.25 21.5825 218.25 20.5625 218.25 C19.5725 212.97 18.5825 207.69 17.5625 202.25 C15.5825 201.92 13.6025 201.59 11.5625 201.25 C10.9025 206.86 10.2425 212.47 9.5625 218.25 C8.2425 218.25 6.9225 218.25 5.5625 218.25 C6.2225 211.98 6.8825 205.71 7.5625 199.25 C4.84749589 201.96500411 2.87801188 204.57849648 0.74609375 207.7265625 C-0.4375 209.25 -0.4375 209.25 -2.4375 210.25 C-2.4375 212.89 -2.4375 215.53 -2.4375 218.25 C-3.4275 218.25 -4.4175 218.25 -5.4375 218.25 C-5.57325439 217.26306152 -5.70900879 216.27612305 -5.84887695 215.25927734 C-6.36364764 211.52725434 -6.88534807 207.79622504 -7.40893555 204.06542969 C-7.63277321 202.46379669 -7.85483759 200.86191467 -8.07495117 199.25976562 C-9.46535464 189.15004381 -11.12626835 179.19201255 -13.4375 169.25 C-15.8004023 178.50244031 -18.05990352 187.77666438 -20.22161865 197.07818604 C-20.61871223 198.78546612 -21.01856264 200.49210424 -21.41845703 202.19873047 C-22.6524557 207.537483 -23.78936485 212.80722649 -24.4375 218.25 C-25.7575 218.25 -27.0775 218.25 -28.4375 218.25 C-26.80563666 207.38417822 -24.73143936 196.73191344 -22.0637207 186.06958008 C-21.85320068 185.22290771 -21.64268066 184.37623535 -21.42578125 183.50390625 C-21.23540283 182.75439697 -21.04502441 182.0048877 -20.84887695 181.23266602 C-20.4375 179.25 -20.4375 179.25 -20.4375 176.25 C-30.26256628 185.82239396 -39.43527135 195.39968989 -47.54296875 206.484375 C-48.0841333 207.21986572 -48.62529785 207.95535645 -49.18286133 208.71313477 C-50.25392593 210.17507777 -51.31530432 211.64417595 -52.3659668 213.12084961 C-52.85105713 213.78608643 -53.33614746 214.45132324 -53.8359375 215.13671875 C-54.26567871 215.73701904 -54.69541992 216.33731934 -55.13818359 216.95581055 C-56.4375 218.25 -56.4375 218.25 -59.4375 218.25 C-58.00254834 214.06024808 -55.84149822 210.81956028 -53.125 207.375 C-52.68696045 206.81474121 -52.2489209 206.25448242 -51.79760742 205.67724609 C-43.80856285 195.56513139 -35.32170518 185.96610934 -26.25 176.8125 C-25.60200439 176.15523926 -24.95400879 175.49797852 -24.28637695 174.82080078 C-23.98453491 174.52101318 -23.98453491 174.52101318 -22.45703125 173.00390625 C-21.92182861 172.47095947 -21.38662598 171.9380127 -20.83520508 171.38891602 C-19.4375 170.25 -19.4375 170.25 -17.4375 170.25 C-17.210625 169.734375 -16.98375 169.21875 -16.75 168.6875 C-15.57989478 166.51444744 -14.35200348 164.90584426 -12.8125 163 C-9.90666974 158.90776567 -9.74657187 156.14083955 -10.4375 151.25 C-10.58316406 150.19039062 -10.72882813 149.13078125 -10.87890625 148.0390625 C-12.45461909 138.1548005 -14.82437873 126.66711649 -20.4375 118.25 C-23.77376225 116.18442824 -26.5969721 116.330011 -30.4375 116.25 C-35.86827804 114.75022118 -40.9984143 112.90858489 -44.35546875 108.19921875 C-48.7760487 100.23579132 -54.20825673 89.0499274 -53.4375 79.6875 C-52.4375 77.25 -52.4375 77.25 -50.25 75.875 C-47.4375 75.25 -47.4375 75.25 -44.4375 75.4375 C-41.10794183 75.22940261 -39.90114632 74.50989637 -37.69140625 72.05078125 C-36.15704283 69.84722505 -35.05780652 67.53544244 -33.875 65.125 C-31.34961021 60.17364522 -28.45772486 57.31063882 -24.1875 53.8125 C-19.80766586 50.16747101 -17.66844847 47.6791786 -16.75 41.8125 C-16.6241758 39.95967702 -16.51744902 38.10536866 -16.4375 36.25 C-16.24671875 35.528125 -16.0559375 34.80625 -15.859375 34.0625 C-15.31309457 31.71551741 -16.13405474 30.34386811 -16.94140625 28.14453125 C-18.64668949 21.6322291 -18.14269969 14.94205861 -14.78515625 9.10546875 C-10.86647289 3.71018006 -7.00420081 -1.5181519 0 0 Z M-11.0625 9.1328125 C-14.30734698 14.12913939 -15.25003733 18.36405884 -14.4375 24.25 C-12.59668608 31.10086416 -10.7195802 36.55323722 -4.49609375 40.47265625 C3.50587407 43.49427218 11.14095579 40.65864847 18.51953125 37.44140625 C21.56043129 36.25080996 24.34608506 35.73705712 27.5625 35.25 C29.5 34.0625 29.5 34.0625 30.5625 32.25 C30.44925473 27.15396303 28.58256223 24.15831583 25.5625 20.25 C22.87042495 17.79667166 20.40985727 18.04182689 16.875 18.125 C15.88113281 18.14304687 14.88726562 18.16109375 13.86328125 18.1796875 C13.10402344 18.20289063 12.34476563 18.22609375 11.5625 18.25 C12.5525 16.93 13.5425 15.61 14.5625 14.25 C12.34643647 9.6947583 10.1279693 8.28989054 5.5625 6.25 C4.9025 5.59 4.2425 4.93 3.5625 4.25 C-3.36617044 1.73818057 -6.77985596 3.4027934 -11.0625 9.1328125 Z M26.15625 38.3046875 C23.74852992 39.73279598 21.31803637 39.87178913 18.5625 40.25 C17.20355105 40.75822481 15.8498033 41.28046074 14.5 41.8125 C7.18811599 44.35738323 -0.95960645 43.96714593 -8.4375 42.25 C-9.7575 45.22 -11.0775 48.19 -12.4375 51.25 C-6.36472683 56.99744603 -0.04512241 61.74349655 6.88867188 66.3918457 C7.54931641 66.83488037 8.20996094 67.27791504 8.890625 67.734375 C9.52291016 68.15654297 10.15519531 68.57871094 10.80664062 69.01367188 C12.41507176 70.14619346 13.87789806 71.34959204 15.359375 72.640625 C16.08640625 73.17171875 16.8134375 73.7028125 17.5625 74.25 C18.0575 74.085 18.0575 74.085 20.5625 73.25 C20.3975 72.59 20.3975 72.59 19.5625 69.25 C24.04942514 66.63684721 27.62385044 67.06505556 32.5625 68.25 C35.05637055 69.37406209 37.31418879 70.69570125 39.5625 72.25 C39.5625 73.24 39.5625 74.23 39.5625 75.25 C38.5725 75.415 38.5725 75.415 33.5625 76.25 C33.5625 76.58 33.5625 76.91 33.5625 77.25 C35.54104258 77.44397476 37.5203648 77.63001321 39.5 77.8125 C40.05107422 77.86470703 40.05107422 77.86470703 42.83984375 78.12890625 C43.73832031 78.16886719 44.63679688 78.20882812 45.5625 78.25 C47.28806351 76.52443649 46.77586795 74.291109 46.8125 71.9375 C46.64098827 59.80304484 42.4541915 44.1416915 33.5625 35.25 C30.06932424 35.25 28.92741445 36.36215556 26.15625 38.3046875 Z M-13.4375 37.25 C-14.31088459 39.87015378 -14.55020274 41.27675489 -14.5 43.9375 C-14.479375 45.030625 -14.45875 46.12375 -14.4375 47.25 C-11.93451566 44.31171403 -10.96819061 42.07097239 -10.4375 38.25 C-11.4275 37.92 -12.4175 37.59 -13.4375 37.25 Z M41.5625 41.25 C41.81 42.013125 42.0575 42.77625 42.3125 43.5625 C42.49296875 44.119375 42.6734375 44.67625 42.859375 45.25 C43.36364943 46.68438061 43.92256617 48.09999226 44.515625 49.5 C47.94992456 57.90634519 48.7638079 66.28573214 49.5625 75.25 C55.43888513 72.00252401 55.43888513 72.00252401 56.5625 69.25 C56.57381415 62.75567726 54.23464585 56.95435543 51.25 51.3125 C50.96648682 50.76932129 50.68297363 50.22614258 50.39086914 49.66650391 C48.27381186 45.88860608 46.05528409 43.67798224 42.5625 41.25 C42.2325 41.25 41.9025 41.25 41.5625 41.25 Z M-24.76953125 57.33203125 C-28.21889063 60.85064991 -30.46229315 64.99882411 -32.66064453 69.37548828 C-34.67228753 73.30277157 -36.60855401 75.82344912 -40.4375 78.25 C-42.89453125 78.859375 -42.89453125 78.859375 -45.25 79 C-46.04019531 79.05671875 -46.83039062 79.1134375 -47.64453125 79.171875 C-48.23621094 79.19765625 -48.82789063 79.2234375 -49.4375 79.25 C-49.86413827 88.72136949 -46.53421684 99.78898941 -41.15234375 107.6640625 C-36.81084951 111.67920296 -30.43376226 114.11972773 -24.5625 114.375 C-23.86125 114.33375 -23.16 114.2925 -22.4375 114.25 C-23.37719572 110.63578568 -24.15569787 107.72689591 -26.0625 104.5 C-28.36286156 100.19120094 -28.00932502 94.98055242 -27.4375 90.25 C-26.60546875 88.41796875 -26.60546875 88.41796875 -25.4375 87.25 C-24.4475 87.25 -23.4575 87.25 -22.4375 87.25 C-21.25327716 89.61844568 -21.26747692 91.18588595 -21.19140625 93.828125 C-21.15853516 94.74207031 -21.12566406 95.65601563 -21.09179688 96.59765625 C-21.03109647 98.5168223 -20.97374829 100.43609761 -20.91992188 102.35546875 C-20.7333504 107.37529759 -20.36715087 111.59383839 -18.4375 116.25 C-18.1075 116.25 -17.7775 116.25 -17.4375 116.25 C-17.50026123 115.43442627 -17.56302246 114.61885254 -17.62768555 113.77856445 C-18.33083743 104.33803802 -18.90027553 94.89810679 -19.25 85.4375 C-19.27762421 84.69485901 -19.30524841 83.95221802 -19.33370972 83.18707275 C-19.70895563 72.03489035 -19.26476872 61.86122572 -15.4375 51.25 C-19.28249042 51.25 -22.07076543 54.80347965 -24.76953125 57.33203125 Z M-13.4375 53.25 C-15.40568336 59.07254243 -16.83964229 64.08381819 -16.4375 70.25 C-14.49830375 69.46229548 -12.56119387 68.67002309 -10.625 67.875 C-10.07779297 67.65328125 -9.53058594 67.4315625 -8.96679688 67.203125 C-6.27841585 66.09518615 -3.77032605 65.00166588 -1.4375 63.25 C-2.13617188 62.69570312 -2.83484375 62.14140625 -3.5546875 61.5703125 C-4.47401013 60.83860674 -5.39327811 60.10683231 -6.3125 59.375 C-6.77269531 59.01019531 -7.23289062 58.64539063 -7.70703125 58.26953125 C-9.71718104 56.66723794 -11.61779421 55.06970579 -13.4375 53.25 Z M-1.4375 64.25 C-1.1075 66.23 -0.7775 68.21 -0.4375 70.25 C-4.21789863 71.74226262 -7.60582869 72.44777781 -11.6640625 72.81640625 C-12.55947754 72.89963135 -13.45489258 72.98285645 -14.37744141 73.06860352 C-15.05726074 73.12846436 -15.73708008 73.1883252 -16.4375 73.25 C-16.49729195 77.20822724 -16.53750934 81.16641267 -16.5625 85.125 C-16.56638733 85.71258087 -16.57027466 86.30016174 -16.57427979 86.9055481 C-16.61310875 95.32237392 -16.2493434 103.56903644 -14.97314453 111.90380859 C-14.23965623 116.9772044 -14.23965623 116.9772044 -15.50146484 118.71704102 C-16.4375 120.25 -16.4375 120.25 -16.05371094 122.06835938 C-15.76270508 122.73673828 -15.47169922 123.40511719 -15.171875 124.09375 C-14.85951904 124.83947266 -14.54716309 125.58519531 -14.2253418 126.35351562 C-13.882854 127.14435547 -13.54036621 127.93519531 -13.1875 128.75 C-9.78114913 137.07572279 -7.83505839 144.59120913 -7.0625 153.56640625 C-6.04666021 164.93672468 -4.56666782 173.32717271 3.625 181.875 C8.15558213 185.59007735 11.9116512 186.34193017 17.703125 185.87890625 C24.38595131 184.40904964 27.88436547 180.69045825 31.55224609 175.04272461 C35.2927165 168.70743535 36.14602869 163.11134514 36.29394531 155.83959961 C36.55641828 144.3332478 39.42676058 133.39776925 44.71948242 123.18261719 C45.38286906 121.89587042 45.97946034 120.57509013 46.5625 119.25 C46.2325 118.59 45.9025 117.93 45.5625 117.25 C45.44897461 115.55419922 45.44897461 115.55419922 45.46484375 113.5546875 C45.46806641 112.83925781 45.47128906 112.12382813 45.47460938 111.38671875 C45.47879883 111.01353516 45.47879883 111.01353516 45.5 109.125 C45.50451172 108.37089844 45.50902344 107.61679688 45.51367188 106.83984375 C45.52546501 104.97652873 45.54340058 103.11325445 45.5625 101.25 C45.16417969 101.59933594 44.76585937 101.94867188 44.35546875 102.30859375 C43.82566406 102.76363281 43.29585937 103.21867187 42.75 103.6875 C42.22792969 104.13996094 41.70585937 104.59242187 41.16796875 105.05859375 C37.88648611 107.49375727 34.80025686 107.35867949 30.875 107.3125 C29.88113281 107.30347656 28.88726562 107.29445312 27.86328125 107.28515625 C27.48365234 107.27935547 27.48365234 107.27935547 25.5625 107.25 C25.43552734 107.52714844 25.43552734 107.52714844 24.79296875 108.9296875 C24.44878906 109.65414062 24.10460937 110.37859375 23.75 111.125 C23.41355469 111.84429687 23.07710937 112.56359375 22.73046875 113.3046875 C21.48813132 115.3738649 20.72135148 116.21522204 18.5625 117.25 C15.26413948 117.9055319 11.99337031 118.05128737 9 116.375 C5.59317289 113.29263262 4.173777 109.7415571 3.5625 105.25 C3.42331167 102.24065222 3.43966475 99.25946352 3.5625 96.25 C4.2225 96.25 4.8825 96.25 5.5625 96.25 C5.500625 97.19875 5.43875 98.1475 5.375 99.125 C5.375 104.01301299 6.5816659 108.79108537 8.5625 113.25 C10.65921811 115.12206974 11.61257965 115.25639315 14.5 115.625 C17.5625 115.25 17.5625 115.25 19.875 113.75 C22.26436504 110.21019994 22.94877396 107.43568994 22.5625 103.25 C21.68451458 100.16450837 20.7052629 97.17693066 19.58398438 94.17382812 C18.39150543 90.9416667 17.42671908 87.9539463 17.05078125 84.51953125 C16.40657758 78.81482686 15.78302227 74.98047898 11.3359375 71.15234375 C2.24944196 64.25 2.24944196 64.25 -1.4375 64.25 Z M21.5625 70.25 C21.5625 70.58 21.5625 70.91 21.5625 71.25 C26.1825 71.91 30.8025 72.57 35.5625 73.25 C35.2325 72.59 34.9025 71.93 34.5625 71.25 C31.54759443 70.24503148 29.52068308 70.14664697 26.375 70.1875 C25.47394531 70.19652344 24.57289062 70.20554687 23.64453125 70.21484375 C23.30099609 70.22064453 23.30099609 70.22064453 21.5625 70.25 Z M50.875 77.08203125 C48.26350235 81.39566577 49.06808612 86.40003532 49.5625 91.25 C50.5525 89.93 51.5425 88.61 52.5625 87.25 C54.50390625 87.99609375 54.50390625 87.99609375 56.5625 89.25 C58.94254349 95.40169711 57.03472698 101.46107246 54.5625 107.25 C54.2325 107.91 53.9025 108.57 53.5625 109.25 C54 111.375 54 111.375 54.5625 113.25 C56.62965783 113.03240444 58.5373861 112.70224876 60.5625 112.25 C61.35914063 112.07339844 62.15578125 111.89679688 62.9765625 111.71484375 C67.11547033 110.47067055 69.78243566 109.30225701 72.3984375 105.7734375 C74.01346026 102.66636326 75.37364891 99.53815142 76.5625 96.25 C76.77132812 95.67378906 76.98015625 95.09757812 77.1953125 94.50390625 C79.08994746 89.11978538 80.83936769 84.03227531 80.5625 78.25 C80.005625 78.21261719 79.44875 78.17523438 78.875 78.13671875 C74.818143 77.787226 71.22966552 77.27430183 67.4375 75.75 C60.95901249 73.19709106 56.4241818 71.86728674 50.875 77.08203125 Z M27.5625 75.25 C31.5625 76.25 31.5625 76.25 31.5625 76.25 Z M18.5625 77.25 C19.21852662 83.81026621 19.77539844 89.12048014 21.8125 95.1875 C22.00457031 95.83267578 22.19664063 96.47785156 22.39453125 97.14257812 C23.47539803 100.42256693 24.2101864 101.96284424 26.94921875 104.1953125 C31.05063774 105.85059371 34.35418646 105.37694539 38.5625 104.25 C41.96835824 102.15408723 42.86113918 99.85126771 43.875 96.125 C44.5625 91.25 44.5625 91.25 43.5625 81.25 C35.3125 79.93 27.0625 78.61 18.5625 77.25 Z M-25.4375 93.25 C-25.47875 94.343125 -25.52 95.43625 -25.5625 96.5625 C-25.58570313 97.17738281 -25.60890625 97.79226562 -25.6328125 98.42578125 C-25.4375 100.25 -25.4375 100.25 -23.4375 103.25 C-23.4375 100.28 -23.4375 97.31 -23.4375 94.25 C-24.0975 93.92 -24.7575 93.59 -25.4375 93.25 Z M52.5625 93.25 C52.5625 95.89 52.5625 98.53 52.5625 101.25 C52.8925 101.415 52.8925 101.415 54.5625 102.25 C54.5625 99.28 54.5625 96.31 54.5625 93.25 C53.9025 93.25 53.2425 93.25 52.5625 93.25 Z M48.5625 100.25 C48.3975 102.725 48.3975 102.725 47.5625 115.25 C48.5525 115.25 49.5425 115.25 50.5625 115.25 C50.61656122 113.31280622 50.65532025 111.37518079 50.6875 109.4375 C50.71070313 108.35855469 50.73390625 107.27960938 50.7578125 106.16796875 C50.5625 103.25 50.5625 103.25 48.5625 100.25 Z M-9.4375 164.25 C-9.82067088 171.03045863 -8.57553063 177.05216741 -6.98388672 183.63232422 C-6.56212649 185.37654469 -6.15303268 187.12336203 -5.74609375 188.87109375 C-4.51159158 194.09213463 -3.18640087 199.18054449 -1.4375 204.25 C1.93340668 201.23084011 3.91356752 198.04976416 5.8125 194 C5.9465625 193.72285156 5.9465625 193.72285156 6.625 192.3203125 C7.27827145 190.96710734 7.9214456 189.60903533 8.5625 188.25 C7.82644531 187.64414063 7.09039062 187.03828125 6.33203125 186.4140625 C-0.07479132 180.97445216 -4.22887281 176.16739177 -7.4375 168.25 C-8.09317807 166.91122874 -8.75634155 165.57598846 -9.4375 164.25 Z M37.5625 167.25 C37.18738281 167.97445312 36.81226563 168.69890625 36.42578125 169.4453125 C32.10335945 177.61109676 28.50704464 183.44632185 20.5625 188.25 C21.49497032 190.1692593 22.43323762 192.0853058 23.375 194 C23.63603516 194.53882813 23.89707031 195.07765625 24.16601562 195.6328125 C25.70402239 198.7468015 27.25221731 201.64222885 29.5625 204.25 C30.2225 204.25 30.8825 204.25 31.5625 204.25 C32.56780652 199.94689087 33.56441596 195.64189155 34.55322266 191.33496094 C34.89039066 189.87185224 35.22987679 188.40927565 35.57177734 186.94726562 C36.06446564 184.83861718 36.54862429 182.7281588 37.03125 180.6171875 C37.18436646 179.97006805 37.33748291 179.32294861 37.49523926 178.65621948 C38.37047477 174.78300676 38.71319725 171.2488592 38.5625 167.25 C38.2325 167.25 37.9025 167.25 37.5625 167.25 Z M9.6875 190.5 C8.5625 193.25 8.5625 193.25 8.8125 195.5 C9.5625 197.25 9.5625 197.25 10.5625 198.25 C12.08178038 198.32179964 13.60417482 198.33392007 15.125 198.3125 C15.53814453 198.30798828 15.53814453 198.30798828 17.62890625 198.28515625 C18.26699219 198.27355469 18.90507813 198.26195312 19.5625 198.25 C20.73660714 194.74292672 20.73660714 194.74292672 19.9609375 192.546875 C17.23795305 188.43121911 17.23795305 188.43121911 14 187.5625 C11.5625 188.25 11.5625 188.25 9.6875 190.5 Z " fill="#1e40af" transform="translate(97.4375,10.75)"/>
<path d="M0 0 C0.58483154 0.20496094 1.16966309 0.40992187 1.7722168 0.62109375 C9.4645706 3.1437211 16.83353016 3.7203897 24.87304688 4.171875 C33.98830934 4.79760919 33.98830934 4.79760919 38 8 C37.67 8.99 37.34 9.98 37 11 C36.17757812 10.67902344 35.35515625 10.35804687 34.5078125 10.02734375 C30.64661004 8.74140725 26.91406063 8.67249024 22.875 8.5625 C5.29215481 7.81287338 5.29215481 7.81287338 -1 3 C-0.67 2.01 -0.34 1.02 0 0 Z " fill="#1e40af" transform="translate(99,67)"/>
<path d="M0 0 C2.63260715 0.99700221 3.40137163 2.04802395 4.578125 4.59765625 C5.71626955 8.76788902 5.8801015 11.7252797 4.453125 15.84765625 C2.3891242 18.87485742 0.71782745 20.69923151 -2.421875 22.59765625 C-6.44704448 23.35237553 -7.88805764 22.95740273 -11.296875 20.66015625 C-13.98188623 17.62003064 -14.01837227 14.67030101 -13.77734375 10.7421875 C-13.0742432 6.50040505 -11.05838298 4.26952578 -8.171875 1.22265625 C-4.99087187 -0.65702742 -3.52068264 -0.78832677 0 0 Z M-9.421875 6.59765625 C-10.58125463 10.07579514 -10.88457451 12.96460824 -10.421875 16.59765625 C-9.296875 18.59765625 -9.296875 18.59765625 -7.421875 19.59765625 C-4.296875 19.41015625 -4.296875 19.41015625 -1.421875 18.59765625 C-1.091875 17.93765625 -0.761875 17.27765625 -0.421875 16.59765625 C-1.081875 16.26765625 -1.741875 15.93765625 -2.421875 15.59765625 C-2.421875 14.93765625 -2.421875 14.27765625 -2.421875 13.59765625 C-1.101875 13.92765625 0.218125 14.25765625 1.578125 14.59765625 C1.65943963 13.16109771 1.71746059 11.72320795 1.765625 10.28515625 C1.80042969 9.48464844 1.83523437 8.68414062 1.87109375 7.859375 C1.578125 5.59765625 1.578125 5.59765625 0.25390625 3.8046875 C-3.78892037 0.89272147 -6.32925714 3.74919243 -9.421875 6.59765625 Z " fill="#1e40af" transform="translate(95.421875,86.40234375)"/>
<path d="M0 0 C-0.625 1.9375 -0.625 1.9375 -2 4 C-5.125 4.75 -5.125 4.75 -8 5 C-8 3.68 -8 2.36 -8 1 C-5.23735711 0.40267181 -2.83967231 0 0 0 Z " fill="#1e40af" transform="translate(96,109)"/>
<path d="M0 0 C0.66 0.33 1.32 0.66 2 1 C2 1.66 2 2.32 2 3 C12.49869043 3.84099507 22.90787924 4.12859853 33.4375 4.0625 C34.8626286 4.05746421 36.28775896 4.05290506 37.71289062 4.04882812 C41.14197225 4.0380118 44.57096543 4.02086764 48 4 C48.33 3.01 48.66 2.02 49 1 C51.83954427 3.30712972 52.92160277 4.35975595 53.375 8.0625 C53.02930919 10.77041138 52.77674418 12.0011628 51 14 C50.01 13.67 49.02 13.34 48 13 C48.33 11.68 48.66 10.36 49 9 C48.41562164 8.98969254 47.83124329 8.97938507 47.22915649 8.96876526 C41.16241997 8.86082159 35.09583564 8.74621394 29.02929688 8.62768555 C26.76337866 8.5842977 24.49742693 8.54262551 22.23144531 8.50268555 C18.97971482 8.44507615 15.72815364 8.38135498 12.4765625 8.31640625 C11.45881744 8.29969376 10.44107239 8.28298126 9.39248657 8.26576233 C8.92207443 8.25578972 8.92207443 8.25578972 6.54150391 8.20532227 C5.71099518 8.18977798 4.88048645 8.1742337 4.02481079 8.15821838 C2 8 2 8 0 7 C0.66 8.98 1.32 10.96 2 13 C1.01 13 0.02 13 -1 13 C-2.61851626 11.32367959 -2.99138115 10.36271008 -3.046875 8.02734375 C-2.94890625 7.33769531 -2.8509375 6.64804688 -2.75 5.9375 C-2.66234375 5.24527344 -2.5746875 4.55304688 -2.484375 3.83984375 C-2 2 -2 2 0 0 Z " fill="#1e40af" transform="translate(87,126)"/>
<path d="M0 0 C3.63 0 7.26 0 11 0 C11 0.99 11 1.98 11 3 C7.7 3 4.4 3 1 3 C0.67 2.01 0.34 1.02 0 0 Z " fill="#1e40af" transform="translate(107,137)"/>
<path d="M0 0 C4.62 0 9.24 0 14 0 C14 0.99 14 1.98 14 3 C9.49292178 4.50235941 4.95795377 4.78318151 0.5 3 C0.005 2.67 -0.49 2.34 -1 2 C-0.67 1.34 -0.34 0.68 0 0 Z " fill="#1e40af" transform="translate(105,164)"/>
</svg>
