<?xml version="1.0" encoding="UTF-8"?>
<svg version="1.1" xmlns="http://www.w3.org/2000/svg" width="229" height="229" viewBox="0 0 229 229">
<defs>
<filter id="glow">
<feGaussianBlur stdDeviation="4" result="blur"/>
<feMerge>
<feMergeNode in="blur"/>
<feMergeNode in="blur"/>
<feMergeNode in="SourceGraphic"/>
</feMerge>
</filter>
</defs>
<g transform="translate(22.9,22.9) scale(0.8)">
<g transform="translate(2,2)">
<path d="M0 0 C2.04502468 0.11855216 4.08675404 0.29571111 6.125 0.5 C9.8254479 0.86397025 13.17907624 1.16149471 16.8125 0.1875 C20.6493255 -0.03819562 21.01306702 0.58382273 23.8125 3 C26.21826607 5.04139761 27.32908189 5.98023652 30.51953125 6.07421875 C32.24123961 5.81867283 33.96026188 5.54423916 35.67578125 5.25 C40.39931755 4.74192215 43.11100774 7.31305144 46.75 10.125 C47.4925 10.74375 48.235 11.3625 49 12 C51.2559269 13.12796345 52.80825755 13.19822994 55.3125 13.375 C59.29316275 13.81446517 61.88457701 14.31727465 65 17 C65.77709277 18.25444976 66.52422317 19.52767886 67.25 20.8125 C69.72758199 25.11858499 72.77599767 27.19129947 77.01171875 29.67578125 C79.08659375 31.05767246 79.96872425 31.75456216 81 34 C81.40221797 36.09209206 81.72705984 38.19965071 82 40.3125 C82.45517994 43.81169577 82.92924776 46.81218923 84.17578125 50.12109375 C85.16063126 53.5610675 84.76266111 54.61021398 83.1875 57.75 C81.18436808 62.18502786 80.47850239 65.9307513 80.2734375 70.7734375 C79.97252293 73.22374188 79.13173169 74.82892288 78 77 C78.33100276 79.11841769 78.95519059 80.88797646 79.75 82.875 C80.13660253 86.16112148 78.83559513 88.39087648 77 91 C74.77379681 93.45326604 72.43005006 95.74970707 70 98 C70.969375 98.556875 71.93875 99.11375 72.9375 99.6875 C75.31636885 101.27717066 75.92546319 101.82023476 77.0625 104.5625 C77 107 77 107 75.8203125 108.578125 C73.51727276 110.37706592 71.68032105 110.70332242 68.8125 111.1875 C67.91144531 111.34605469 67.01039063 111.50460938 66.08203125 111.66796875 C65.73849609 111.72275391 65.73849609 111.72275391 64 112 C67.96209625 116.71935696 72.11580998 121.17577496 76.5 125.5 C80.30829282 129.25669867 83.91530318 133.10078373 87.390625 137.171875 C89.02586434 139.02937988 90.73481793 140.76606009 92.5 142.5 C95.44841786 145.40936597 98.20983649 148.42263323 100.90625 151.56640625 C102.57669453 153.50798637 104.26596133 155.42688048 105.96875 157.33984375 C107.04194147 158.55965411 108.11485648 159.77970777 109.1875 161 C109.69885498 161.56920166 110.21020996 162.13840332 110.73706055 162.72485352 C115.80117498 168.53240015 119.93893523 174.75723451 119.5 182.69921875 C118.29239118 188.25610623 115.28918543 192.49943348 110.55078125 195.60546875 C107.21318154 197.3066967 103.84343872 198.69631288 100.3203125 199.96484375 C98 201 98 201 95.9375 203.625 C93.96562492 205.80814741 93.02329264 205.99746952 90.015625 206.32421875 C86.99591369 206.31358596 84.01157593 206.21614181 81 206 C81 206.99 81 207.98 81 209 C80.01 209 79.02 209 78 209 C78 208.01 78 207.02 78 206 C77.319375 206.350625 76.63875 206.70125 75.9375 207.0625 C72.28534332 208.22808192 69.62034715 208.29535357 66 207 C64.00986392 205.56624605 62.5340899 203.90204504 61 202 C60.443125 201.401875 59.88625 200.80375 59.3125 200.1875 C54.98790908 192.97984847 55.70393895 185.04483609 57 177 C59.61782345 166.75479097 59.61782345 166.75479097 62.6953125 162.84765625 C63.12585938 162.23792969 63.55640625 161.62820312 64 161 C63.67 160.01 63.34 159.02 63 158 C62.236875 157.79375 61.47375 157.5875 60.6875 157.375 C56.95690851 155.46632528 56.5354627 153.04810194 55.046875 149.265625 C53.56750832 146.06401054 51.65195182 144.28362518 49 142 C43.91331935 143.52439956 39.34545284 145.70928905 34.625 148.125 C33.88894531 148.49753906 33.15289062 148.87007812 32.39453125 149.25390625 C30.59446387 150.16562869 28.79638644 151.08105222 27 152 C27.04189453 152.53254395 27.08378906 153.06508789 27.12695312 153.61376953 C28.03402598 166.95290743 26.61899263 175.06279916 19 186 C18.03911617 188.88265149 17.88329059 190.67662271 17.90234375 193.66796875 C17.90556641 194.56064453 17.90878906 195.45332031 17.91210938 196.37304688 C17.92048828 197.30181641 17.92886719 198.23058594 17.9375 199.1875 C17.94201172 200.12787109 17.94652344 201.06824219 17.95117188 202.03710938 C17.96295374 204.35813712 17.97940442 206.67903644 18 209 C17.01 209 16.02 209 15 209 C12.59029213 199.51177528 12.19492921 192.17693544 16 183 C17.45849868 180.56916887 19.00701178 178.28407865 20.6953125 176.0078125 C22.01545722 173.97621255 22.56490166 172.36651051 23 170 C22.13890625 170.15984375 21.2778125 170.3196875 20.390625 170.484375 C9.54421018 172.13382979 -0.25341195 171.08325454 -10 166 C-9.7834375 166.93199219 -9.566875 167.86398438 -9.34375 168.82421875 C-6.21301074 182.87726427 -6.75777843 195.04686788 -10 209 C-11.32 209 -12.64 209 -14 209 C-13.7834375 207.87722656 -13.566875 206.75445312 -13.34375 205.59765625 C-11.34550923 194.98266924 -10.20712404 186.20037669 -12.55078125 175.5625 C-13.46489346 170.348086 -13.68056234 165.04168702 -12 160 C-10.80647277 151.48878125 -13.76964701 143.11490039 -16 135 C-17.65 135.33 -19.3 135.66 -21 136 C-22.4783459 142.52936107 -21.43942215 146.45542664 -18.8125 152.58203125 C-18 155 -18 155 -19 158 C-19.99 157.67 -20.98 157.34 -22 157 C-22 155.68 -22 154.36 -22 153 C-26.77267206 155.46002336 -30.7251948 157.54316632 -32.48046875 162.8203125 C-36.12283703 178.10182753 -35.378281 193.46972657 -34 209 C-35.32 209 -36.64 209 -38 209 C-38.77718054 201.27492084 -39.25897726 193.5697452 -39.5625 185.8125 C-39.60568359 184.76513672 -39.64886719 183.71777344 -39.69335938 182.63867188 C-39.79799509 180.09253603 -39.90017546 177.54632822 -40 175 C-42.34494031 178.09555286 -44.67388628 181.20278233 -47 184.3125 C-47.66773438 185.19357422 -48.33546875 186.07464844 -49.0234375 186.98242188 C-49.65507813 187.82998047 -50.28671875 188.67753906 -50.9375 189.55078125 C-51.52402344 190.33106689 -52.11054687 191.11135254 -52.71484375 191.9152832 C-54 194 -54 194 -54 197 C-53.49210937 197.21914062 -52.98421875 197.43828125 -52.4609375 197.6640625 C-47.47696797 199.96004847 -43.34677618 202.56298613 -40 207 C-40 207.66 -40 208.32 -40 209 C-43.20955896 208.64338234 -44.05438323 207.94120732 -46.3125 205.5 C-48.27739539 203.41987926 -49.7443609 202.50955815 -52.5625 201.9375 C-56 202 -56 202 -58.375 203.75 C-60 206 -60 206 -61 209 C-62.7109375 209.390625 -62.7109375 209.390625 -65 209 C-66.77881468 206.94031985 -68.17886964 205.0308135 -69.625 202.75 C-70.05087402 202.09483398 -70.47674805 201.43966797 -70.91552734 200.76464844 C-74.49698191 195.10613369 -77.6142447 189.22808102 -80.625 183.25 C-81.06279785 182.38084961 -81.5005957 181.51169922 -81.95166016 180.61621094 C-85 174.39185209 -85 174.39185209 -85 171 C-83.57421875 169.23828125 -83.57421875 169.23828125 -81.6875 167.3125 C-78.18833319 163.49458318 -76.38454137 159.95797671 -75 155 C-80.70422535 157.53521127 -80.70422535 157.53521127 -82.3125 160.0625 C-84.74733136 162.85804712 -87.37999391 162.9797362 -90.94140625 163.60546875 C-93 164 -93 164 -95 165 C-95.6328125 166.62890625 -95.6328125 166.62890625 -96.125 168.5625 C-96.29257813 169.20316406 -96.46015625 169.84382812 -96.6328125 170.50390625 C-96.69339844 170.75076172 -96.69339844 170.75076172 -97 172 C-97.99 171.34 -98.98 170.68 -100 170 C-99.75412044 166.39376645 -99.43315996 164.48730496 -97 161.75 C-93.66311479 159.80348363 -90.86995539 159.16454954 -87.0859375 158.58984375 C-84.52060112 157.86443964 -83.60304986 157.12333797 -82 155 C-79.5909634 148.99652784 -78.22137727 143.29358811 -80 137 C-80.66 136.67 -81.32 136.34 -82 136 C-81.95359375 136.72445312 -81.9071875 137.44890625 -81.859375 138.1953125 C-81.62503233 144.47234826 -81.6653703 148.28290298 -86 153 C-86.66 153 -87.32 153 -88 153 C-87.97679688 152.40832031 -87.95359375 151.81664062 -87.9296875 151.20703125 C-87.72451936 142.22359758 -87.72451936 142.22359758 -90 139 C-92.58651182 137.6961869 -95.2189501 136.79550962 -98 136 C-98 136.99 -98 137.98 -98 139 C-97.6184375 139.12375 -97.6184375 139.12375 -95.6875 139.75 C-92.65581915 141.16008412 -91.49186812 142.01626376 -90 145 C-90.3125 148.25 -90.3125 148.25 -91 151 C-91.99 151 -92.98 151 -94 151 C-94.33 150.01 -94.66 149.02 -95 148 C-96.35501595 150.32288448 -97.68320281 152.65556716 -99 155 C-99.3815625 155.64839844 -99.763125 156.29679688 -100.15625 156.96484375 C-103.33228155 162.6930435 -103.95764371 167.0587149 -102.40869141 173.43359375 C-101.60996025 176.14876932 -100.72781277 178.82194093 -99.8125 181.5 C-99.1714577 183.43996632 -98.53083637 185.3800718 -97.890625 187.3203125 C-97.73110352 187.79742676 -97.73110352 187.79742676 -96.92382812 190.21191406 C-95.5856192 194.25058899 -94.32021422 198.31068085 -93.0625 202.375 C-92.65771103 203.67452869 -92.25278092 204.97401343 -91.84765625 206.2734375 C-91.56792969 207.17320312 -91.28820312 208.07296875 -91 209 C-92.8515625 208.83203125 -92.8515625 208.83203125 -95 208 C-96.2734375 205.76171875 -96.2734375 205.76171875 -97.375 202.6875 C-97.57778564 202.12643555 -97.78057129 201.56537109 -97.98950195 200.98730469 C-101.00171815 192.44720023 -103.61453168 183.73422314 -106 175 C-106.22115479 174.19409424 -106.44230957 173.38818848 -106.67016602 172.55786133 C-107.73938279 168.30861239 -108.47331758 165.31397377 -106.5625 161.1875 C-106.18738281 160.36894531 -105.81226562 159.55039063 -105.42578125 158.70703125 C-102.78858775 153.6999762 -99.9524902 148.82682386 -97 144 C-97.66515625 143.23300781 -98.3303125 142.46601563 -99.015625 141.67578125 C-101 139 -101 139 -100.75 136.1875 C-100.5025 135.465625 -100.255 134.74375 -100 134 C-98.68 133.67 -97.36 133.34 -96 133 C-95.835 132.34 -95.835 132.34 -95 129 C-93.68 128.67 -92.36 128.34 -91 128 C-88.08772731 131.28804981 -86.50298788 133.59885603 -86 138 C-85.01 136.35 -84.02 134.7 -83 133 C-79.74322102 133.26406316 -78.38010847 133.56746278 -76.1875 136.0625 C-74.22941533 140.90618313 -74.34256794 146.02770383 -76 151 C-74.35 151.99 -72.7 152.98 -71 154 C-71.39105846 161.6256399 -76.55710195 167.12047623 -81 173 C-67.96786377 199.36196084 -67.96786377 199.36196084 -64 204 C-63.34 204 -62.68 204 -62 204 C-61.938125 203.4740625 -61.938125 203.4740625 -61.625 200.8125 C-60.03326168 194.50081542 -55.50876992 189.81325023 -51.5 184.86083984 C-37.83665863 167.91064649 -37.83665863 167.91064649 -34.92578125 159.05859375 C-33.01674715 154.81361075 -29.08242271 152.04121135 -25 150 C-25.165 149.484375 -25.33 148.96875 -25.5 148.4375 C-26.4128785 143.98721731 -26.6422696 140.45355751 -24.8125 136.3125 C-22.80256236 133.74809681 -20.56434727 131.99355966 -18 130 C-18.09087891 129.7733667 -18.09087891 129.7733667 -18.55078125 128.62646484 C-19.37781328 126.54669134 -20.18895808 124.46105826 -21 122.375 C-21.28617187 121.66214844 -21.57234375 120.94929688 -21.8671875 120.21484375 C-23.48935878 116.00492306 -24.45203418 112.59097211 -24 108 C-22.33657163 106.33657163 -20.2174291 106.63951903 -17.9375 106.4375 C-17.01839844 106.35371094 -16.09929687 106.26992187 -15.15234375 106.18359375 C-14.44207031 106.12300781 -13.73179688 106.06242187 -13 106 C-13.165 104.515 -13.165 104.515 -14 97 C-14.72445312 96.97421875 -15.44890625 96.9484375 -16.1953125 96.921875 C-22.30704367 96.5633201 -26.42729504 96.22095843 -31 92 C-32.91631921 88.60288868 -33.22083696 85.86464681 -33 82 C-33.721875 81.79375 -34.44375 81.5875 -35.1875 81.375 C-38.88269184 79.56846177 -41.05102255 77.65169258 -43 74 C-43.69060821 70.29030171 -43.69987118 66.64078608 -43.6875 62.875 C-43.70411884 60.91397686 -43.72855209 58.95300057 -43.76171875 56.9921875 C-43.76131592 56.12964355 -43.76091309 55.26709961 -43.76049805 54.37841797 C-44.01886117 51.81269573 -44.81060043 50.25827809 -46 48 C-45.78975223 45.12661384 -45.4106801 43.52268376 -43.625 41.25 C-40.13788624 38.5676048 -36.20759742 38.61829812 -32 39 C-29.90752601 39.52540286 -28.01649999 40.21307317 -26 41 C-26.350625 40.505 -26.70125 40.01 -27.0625 39.5 C-28.83640621 34.76958344 -27.22890071 29.76199026 -26 25 C-25.938125 24.4328125 -25.938125 24.4328125 -25.625 21.5625 C-25.15755877 18.11512092 -23.87182347 15.95172162 -22 13 C-21.25911936 10.96958658 -20.58012196 8.9319666 -19.94140625 6.8671875 C-18.65530069 4.31632254 -17.50998636 3.38424497 -15 2 C-12.53710136 1.65660156 -10.27904446 1.44568909 -7.8125 1.375 C-1.10536649 1.10536649 -1.10536649 1.10536649 0 0 Z M-0.3046875 3.9765625 C-3.52617215 5.92132973 -7.5370648 5.01815432 -11.1875 4.875 C-15.13980473 5.05065799 -15.13980473 5.05065799 -17 7 C-17.87890625 9.09375 -17.87890625 9.09375 -18.5625 11.5 C-19.79726651 15.79726651 -19.79726651 15.79726651 -22 18 C-22.37890625 20.3125 -22.37890625 20.3125 -22.5625 23 C-22.90508475 27.81016949 -22.90508475 27.81016949 -24 30 C-24.06950541 31.54023996 -24.08452357 33.08334988 -24.0625 34.625 C-24.05347656 35.44226562 -24.04445313 36.25953125 -24.03515625 37.1015625 C-24.02355469 37.72804687 -24.01195313 38.35453125 -24 39 C-23.34 39.33 -22.68 39.66 -22 40 C-20.845 37.69 -20.845 37.69 -15 26 C-12.20826945 25.97309896 -9.41679652 25.95320947 -6.625 25.9375 C-5.8309375 25.92912109 -5.036875 25.92074219 -4.21875 25.91210938 C-3.45820312 25.90888672 -2.69765625 25.90566406 -1.9140625 25.90234375 C-1.2123291 25.89710693 -0.5105957 25.89187012 0.21240234 25.88647461 C2 26 2 26 4 27 C7.08022093 27.19896164 10.15306937 27.34482902 13.23828125 27.4296875 C17.87980201 27.65115171 20.82185915 28.84882207 25 31 C28 31.37109375 28 31.37109375 31 31.4375 C35.47035411 31.70693094 38.05305216 32.1187276 41.48828125 34.9453125 C44.5858252 37.10638968 48.40653837 37.94591792 52 39 C51.95810547 39.29003906 51.95810547 39.29003906 51.74609375 40.7578125 C51.64425781 41.53898437 51.54242188 42.32015625 51.4375 43.125 C51.33308594 43.89070313 51.22867188 44.65640625 51.12109375 45.4453125 C51 48 51 48 51.46875 50.65625 C52.19738751 55.2423802 52.10547564 59.74024276 52.0625 64.375 C52.05798828 65.30183594 52.05347656 66.22867188 52.04882812 67.18359375 C52.03711574 69.45579709 52.02071372 71.72786388 52 74 C52.66 74.33 52.66 74.33 56 76 C56.38671875 75.62746094 56.7734375 75.25492187 57.171875 74.87109375 C61.35167869 71.07409386 61.35167869 71.07409386 64.1875 70.75 C66.69102317 72.4765677 67.2287781 74.48201886 68.2734375 77.27734375 C69.14110593 79.3345576 70.27129963 80.60057589 72 82 C75.83917855 78.16082145 76.15862526 73.18820696 76.9375 68 C77.91332062 61.66887582 77.91332062 61.66887582 79.625 58.6875 C81.47467585 55.07222447 81.36747845 53.04226299 81 49 C80.3409159 47.33032028 79.67349161 45.66392045 79 44 C78.87376921 42.50169546 78.77172864 41.00125156 78.6875 39.5 C78.3047127 35.52033201 77.49034907 33.61803605 74.4609375 31.03515625 C72.98929596 29.99241559 71.47920654 29.06019762 69.9375 28.125 C67.33591644 26.53298618 66.63095043 25.32118935 65.5625 22.5 C64.02642954 19.42132261 63.04558279 19.01558985 59.69921875 17.87109375 C57.70592474 17.3729597 55.70679248 16.92822619 53.69799805 16.49707031 C49.62070546 15.57971647 47.02364336 14.64864378 43.875 11.75 C39.58840493 7.9616276 35.41590007 8.82774908 29.9609375 9.12109375 C27 9 27 9 25.2890625 7.91015625 C24.86367187 7.44480469 24.43828125 6.97945312 24 6.5 C21.93840691 4.26921842 21.12902305 4.01278455 18.00390625 3.703125 C15.71413051 3.73431377 13.42456024 3.7993064 11.13671875 3.8984375 C8.54493896 3.98235565 6.4006345 3.85966334 3.875 3.375 C1 3 1 3 -0.3046875 3.9765625 Z M-14 28 C-15.65 31.3 -17.3 34.6 -19 38 C-18.34 38.33 -17.68 38.66 -17 39 C-16.34 38.67 -15.68 38.34 -15 38 C-12.65965477 37.86762753 -10.3461964 37.95655192 -8 38 C-8 38.33 -8 38.66 -8 39 C-11.96 39.99 -15.92 40.98 -20 42 C-17.6840106 46.6319788 -15.23916875 49.98336306 -11 53 C-7.97338298 53.82631449 -5.12972211 54.04967813 -2 54 C-1.79375 53.608125 -1.79375 53.608125 -0.75 51.625 C1.15385866 48.76921202 1.87606438 48.19209809 5 47 C8.05859375 46.5859375 8.05859375 46.5859375 11.4375 46.375 C12.54996094 46.30023438 13.66242188 46.22546875 14.80859375 46.1484375 C17.54621342 46.02110635 20.26024107 45.96927373 23 46 C21.04612336 44.04612336 19.87139895 43.39205142 17.375 42.375 C16.74335937 42.11460938 16.11171875 41.85421875 15.4609375 41.5859375 C14.97882813 41.39257812 14.49671875 41.19921875 14 41 C14.66 40.67 15.32 40.34 16 40 C18.06949805 40.69669181 20.00466114 41.44424524 22 42.3125 C22.5465625 42.53873047 23.093125 42.76496094 23.65625 42.99804688 C26.23706159 44.09552435 27.99687533 44.99687533 30 47 C32.08085703 47.65817163 34.14380418 48.25100408 36.25 48.8125 C41.53666774 50.30948083 45.14877657 52.03874162 49 56 C49.12549801 49.47410359 49.12549801 49.47410359 48.4375 46.875 C47.85464055 44.37703091 48.38519955 42.45920181 49 40 C48.40832031 39.81824219 47.81664062 39.63648438 47.20703125 39.44921875 C40.42776735 37.29268293 40.42776735 37.29268293 37.625 35.375 C34.01894367 33.48611335 30.64706261 33.56778516 26.625 33.31640625 C24 33 24 33 21.0625 31.4375 C16.9030426 29.48510163 13.33736777 29.86493977 8.8046875 30.08984375 C6 30 6 30 4.0078125 28.9765625 C1.17796892 27.60017943 -0.90689826 28.06246141 -4 28.4375 C-7.92048539 28.90305764 -10.09300874 28.97674781 -14 28 Z M-43 44 C-42.49396008 46.16874252 -42.00016187 47.99967627 -41 50 C-36.25 48.125 -36.25 48.125 -34 47 C-28.63051551 46.46922337 -24.08169718 47.30610094 -19 49 C-21.93068552 45.61843979 -24.57951971 43.6874369 -29 43 C-39.88836105 42.44418052 -39.88836105 42.44418052 -43 44 Z M-19 49 C-18.01 49.99 -17.02 50.98 -16 52 C-16.33 51.01 -16.66 50.02 -17 49 C-17.66 49 -18.32 49 -19 49 Z M2 51 C1.25 53.125 1.25 53.125 1 55 C1.49886719 54.855625 1.99773437 54.71125 2.51171875 54.5625 C12.06439544 52.09286725 23.02952969 51.22624095 32 56 C33.98950965 57.50072417 35.80307589 59.05688934 37.58984375 60.79296875 C39 62 39 62 41 62 C43.1875 60.25 43.1875 60.25 45 58 C45.1875 55.9375 45.1875 55.9375 44 54 C35.25922801 48.94977618 24.84116339 48.82008045 15 48.75 C14.58733887 48.74536743 14.58733887 48.74536743 12.49902344 48.72192383 C11.7155957 48.72603271 10.93216797 48.7301416 10.125 48.734375 C9.42632812 48.73663086 8.72765625 48.73888672 8.0078125 48.74121094 C5.63050459 49.04762465 4.02913382 49.73400658 2 51 Z M-39 52 C-40.34168518 56.17927222 -40.25219296 60.6418111 -40.3125 65 C-40.32700195 65.34933594 -40.32700195 65.34933594 -40.40039062 67.1171875 C-40.44621789 70.85387205 -40.20960614 72.65204456 -38.23046875 75.9375 C-35.94856795 78.04755889 -34.93506384 78.41460477 -32 79 C-31.85377197 78.26362305 -31.70754395 77.52724609 -31.55688477 76.76855469 C-31.0116056 74.02507157 -30.46544753 71.28176528 -29.91870117 68.53857422 C-29.68267384 67.35342256 -29.44699243 66.16820196 -29.21166992 64.98291016 C-28.8725023 63.27488211 -28.53196919 61.56712539 -28.19140625 59.859375 C-27.98717041 58.83295898 -27.78293457 57.80654297 -27.57250977 56.74902344 C-27.10025013 54.48137161 -26.58369814 52.24102581 -26 50 C-30.75108833 48.72531776 -35.09406737 48.75043621 -39 52 Z M-23 51 C-23.52992692 52.45505358 -24.0486789 53.91418127 -24.5625 55.375 C-24.85253906 56.18710938 -25.14257812 56.99921875 -25.44140625 57.8359375 C-26 60 -26 60 -25 62 C-22.36 62 -19.72 62 -17 62 C-16.67 59.69 -16.34 57.38 -16 55 C-16.97726954 54.33055542 -17.95687405 53.66451829 -18.9375 53 C-19.21013672 52.814375 -19.21013672 52.814375 -20.58984375 51.875 C-22 51 -22 51 -23 51 Z M-13 56 C-13 57.32 -13 58.64 -13 60 C-11.7303392 60.33777199 -10.45921383 60.67004182 -9.1875 61 C-8.83365234 61.0928125 -8.83365234 61.0928125 -7.04296875 61.5625 C-5 62 -5 62 -2 62 C-2 60.68 -2 59.36 -2 58 C-9.42857143 55.71428571 -9.42857143 55.71428571 -13 56 Z M2 58 C-0.93826386 63.74526507 -0.19551702 69.78931873 1.53125 75.87109375 C3.28430839 79.88851923 6.15456425 82.97225972 10 85 C16.57050825 86.8214164 23.02161371 86.36069898 29 83 C34.05742712 78.60317899 36.92399187 73.69922504 37.5 67 C37.44077102 64.58527993 37.29185226 63.38848562 35.83203125 61.4453125 C27.05342708 53.81763073 12.34708386 52.82645807 2 58 Z M47 59 C43.55850607 62.16979704 41.43526912 64.4332346 40 69 C42.97 69.99 45.94 70.98 49 72 C50.23621824 69.52756353 49.98408601 68.22682061 49.6875 65.5 C49.60886719 64.7059375 49.53023437 63.911875 49.44921875 63.09375 C49 61 49 61 47 59 Z M-27 64 C-27.66 69.28 -28.32 74.56 -29 80 C-27.02 80 -25.04 80 -23 80 C-22.79503906 79.16855469 -22.59007813 78.33710937 -22.37890625 77.48046875 C-22.24419922 76.93712891 -22.24419922 76.93712891 -21.5625 74.1875 C-21.29566406 73.10855469 -21.02882813 72.02960938 -20.75390625 70.91796875 C-20.23922588 68.9259157 -19.65062825 66.95188476 -19 65 C-19.33 64.67 -19.66 64.34 -20 64 C-22.31 64 -24.62 64 -27 64 Z M-16.875 66.3125 C-19.41310431 72.37574918 -20.32208084 78.62134896 -17.875 84.875 C-14.46360361 88.74124924 -11.33731863 91.18543178 -6.0625 91.625 C-1.1209174 91.41553022 1.72725697 88.43638018 5 85 C4.66226563 84.56429687 4.32453125 84.12859375 3.9765625 83.6796875 C-0.47760733 77.73221217 -2.12302986 72.30808452 -3 65 C-13.7063655 62.40451745 -13.7063655 62.40451745 -16.875 66.3125 Z M39 72 C38.79246094 72.50789063 38.58492187 73.01578125 38.37109375 73.5390625 C35.43433941 80.10068099 31.64562895 84.25643833 25.125 87.375 C19.80618214 88.43876357 14.92083817 88.90161792 9.9375 86.5625 C8.968125 86.376875 7.99875 86.19125 7 86 C4.76094892 87.58155196 2.92550204 89.32498867 1.02734375 91.30078125 C-1.3207527 93.26883897 -2.9944366 93.64058254 -6 94 C-6 94.33 -6 94.66 -6 95 C-5.44650879 95.08975098 -4.89301758 95.17950195 -4.32275391 95.27197266 C19.23277581 99.20851592 19.23277581 99.20851592 26.5625 107.6875 C29.2069348 111.94159076 29.09105221 115.17423261 29 120 C25.32599747 121.3296701 23.037056 120.64569438 19.37890625 119.453125 C19.10860344 119.36719086 19.10860344 119.36719086 17.7407074 118.93231201 C16.01136466 118.38117532 14.28682054 117.81663498 12.5625 117.25 C-11.71541553 109.35223829 -11.71541553 109.35223829 -21 110 C-19.75533356 116.39011368 -17.96987319 122.36811918 -15.625 128.4375 C-15.33367187 129.23865234 -15.04234375 130.03980469 -14.7421875 130.86523438 C-14.44828125 131.63029297 -14.154375 132.39535156 -13.8515625 133.18359375 C-13.59197754 133.86993896 -13.33239258 134.55628418 -13.06494141 135.26342773 C-11.69405795 137.49889175 -10.42345059 138.07331893 -8 139 C-5.203125 139.4140625 -5.203125 139.4140625 -2.25 139.625 C-1.26515625 139.69976562 -0.2803125 139.77453125 0.734375 139.8515625 C1.10820313 139.87605469 1.10820313 139.87605469 3 140 C3 140.33 3 140.66 3 141 C-1.29 141 -5.58 141 -10 141 C-9.83628906 141.99128906 -9.67257813 142.98257813 -9.50390625 144.00390625 C-8.93312832 147.99935177 -8.88609799 151.90837307 -8.9375 155.9375 C-8.94201172 156.62134766 -8.94652344 157.30519531 -8.95117188 158.00976562 C-8.9628044 159.67321604 -8.98073306 161.3366205 -9 163 C0.104344 168.3667712 10.74677522 167.89940568 21 167 C21.99 166.67 22.98 166.34 24 166 C23.88140625 165.11957031 23.7628125 164.23914063 23.640625 163.33203125 C23.50924381 162.15898493 23.37910091 160.98579946 23.25 159.8125 C23.16878906 159.23435547 23.08757812 158.65621094 23.00390625 158.06054688 C22.68361692 154.91103508 22.92576974 153.13716461 24.4375 150.34375 C27.86746877 147.20658344 31.51908759 145.53633154 35.75 143.6875 C36.54277344 143.32849609 37.33554688 142.96949219 38.15234375 142.59960938 C40.09660231 141.7211793 42.04543972 140.85519981 44 140 C43.53599578 135.3711386 43.09843903 132.49368868 40.1875 128.75 C35.94537286 122.72494987 32.51551457 115.9866941 32.875 108.4375 C34.19898463 101.02318604 38.83338839 95.11095654 43.9375 89.8125 C46.94685714 86.55291185 46.94685714 86.55291185 47.18359375 84.08984375 C46.875 82.25 46.875 82.25 46 79 C46.4375 76.5625 46.4375 76.5625 47 75 C41.25 72 41.25 72 39 72 Z M60.4152832 74.41772461 C59.79999756 75.07264893 59.18471191 75.72757324 58.55078125 76.40234375 C57.86693359 77.12873047 57.18308594 77.85511719 56.47851562 78.60351562 C55.76373047 79.37373047 55.04894531 80.14394531 54.3125 80.9375 C53.96477539 81.30520508 53.96477539 81.30520508 52.20507812 83.16601562 C35.27048984 101.27068751 35.27048984 101.27068751 35.65625 113.1328125 C36.72031199 122.00805683 41.32868998 128.38007158 47 135 C47.91187202 136.08428765 48.82329941 137.16894932 49.734375 138.25390625 C55.51242482 145.0940067 61.46435806 151.75494952 67.54296875 158.328125 C70.16753203 161.17014923 72.71602022 164.07364989 75.24609375 167 C76.96645277 168.9617457 78.72335171 170.88691466 80.48608398 172.81054688 C84.03913842 176.697896 87.27186344 180.49264394 90 185 C89.51789063 184.57847656 89.03578125 184.15695313 88.5390625 183.72265625 C87.90742188 183.17480469 87.27578125 182.62695312 86.625 182.0625 C85.99851563 181.51722656 85.37203125 180.97195312 84.7265625 180.41015625 C83 179 83 179 81 178 C80.5375338 184.98837808 80.43228388 191.2865357 85 197 C91.56366065 199.18788688 101.05835867 196.55223971 107.3515625 193.91015625 C110.96670494 191.91411789 113.21827582 189.27918503 115.375 185.75 C116.71779727 179.84169202 115.84964378 174.82269863 112.625 169.6875 C109.09506788 164.82214778 105.00133732 160.4526127 100.87890625 156.08984375 C98.74042521 153.82090827 96.67673761 151.49898074 94.6328125 149.14453125 C90.95563367 144.92020986 87.15550466 140.82341531 83.3125 136.75 C82.96654785 136.38209351 82.96654785 136.38209351 81.21582031 134.52026367 C76.51919086 129.54701163 71.74864068 124.66031171 66.8059082 119.93066406 C63.67001926 116.87683682 61.3263494 113.71237532 59 110 C59.763125 110.04125 60.52625 110.0825 61.3125 110.125 C64.2211009 109.98971624 64.71072053 109.55671004 67 108 C69.30672603 107.1998081 71.63615719 106.62441131 74 106 C73.67 105.01 73.34 104.02 73 103 C66.47692308 102.75384615 66.47692308 102.75384615 64.0625 104 C63.711875 104.33 63.36125 104.66 63 105 C65.4851503 99.48456966 68.77351532 95.86946026 73.0390625 91.5625 C75.2744849 88.64131057 75.69449537 86.62391702 76 83 C71.80628401 84.70855096 68.14971916 87.49420183 66.23828125 91.66015625 C65.76256443 93.08730671 65.37282762 94.54258294 65 96 C64.67 96 64.34 96 64 96 C64 93.03 64 90.06 64 87 C60.78977531 88.0700749 60.47705133 88.36477888 58.8125 91.0625 C58.214375 92.031875 57.61625 93.00125 57 94 C57 90.33809961 58.08126875 88.87720371 59.9375 85.75 C62.43095732 81.33218033 63.77566563 78.04752326 64 73 C62 73 62 73 60.4152832 74.41772461 Z M50 76 C48.5393715 78.64738916 48 79.89448334 48 83 C50.87559551 81.75390861 52.48482479 80.77782122 54 78 C52.68 77.34 51.36 76.68 50 76 Z M66 79 C64.875 83.75 64.875 83.75 66 86 C66.66 86 67.32 86 68 86 C67.67 83.69 67.34 81.38 67 79 C66.67 79 66.34 79 66 79 Z M-29 83 C-29.04125 84.11375 -29.0825 85.2275 -29.125 86.375 C-29.14820312 87.00148438 -29.17140625 87.62796875 -29.1953125 88.2734375 C-29 90 -29 90 -27 92 C-25.30419922 92.41064453 -25.30419922 92.41064453 -23.3046875 92.6328125 C-22.58925781 92.71660156 -21.87382813 92.80039063 -21.13671875 92.88671875 C-20.76353516 92.92603516 -20.76353516 92.92603516 -18.875 93.125 C-18.12089844 93.21136719 -17.36679688 93.29773438 -16.58984375 93.38671875 C-14.72742873 93.59889261 -12.86381069 93.80045763 -11 94 C-11.77859375 93.39414063 -12.5571875 92.78828125 -13.359375 92.1640625 C-16.57416442 89.52945697 -19.13318351 86.73363298 -21 83 C-23.64 83 -26.28 83 -29 83 Z M-10 98 C-10 101.3 -10 104.6 -10 108 C-8.27507022 108.53469802 -6.544802 109.05219175 -4.8125 109.5625 C-3.84957031 109.85253906 -2.88664062 110.14257812 -1.89453125 110.44140625 C2.23234824 111.23782159 5.07599877 110.30800041 9 109 C14.72206293 108.52316142 19.5841011 109.15628973 25 111 C23.24121727 106.5230985 20.37057052 104.03503783 16.05859375 102.15234375 C7.60000624 99.14114712 -1.03477473 97.66168961 -10 98 Z M7 113 C9.39287704 113.8427743 11.78871019 114.67437002 14.1875 115.5 C14.52426758 115.61923828 14.52426758 115.61923828 16.22851562 116.22265625 C19.94262203 117.49088771 23.01697894 118.30936086 27 118 C26.75390625 116.109375 26.75390625 116.109375 26 114 C20.90507674 111.01216754 11.5687128 108.4312872 7 113 Z M-93 132 C-93 132.66 -93 133.32 -93 134 C-92.34 134 -91.68 134 -91 134 C-91 133.34 -91 132.68 -91 132 C-91.66 132 -92.32 132 -93 132 Z M67 162 C59.83691736 170.83446859 59.04100259 182.07005693 60 193 C60.90277965 197.59087945 61.89106943 200.17474934 65.6875 203 C66.450625 203.33 67.21375 203.66 68 204 C68.165 203.835 68.165 203.835 69 203 C70.26700599 202.84460376 71.54161883 202.74969384 72.81640625 202.68359375 C73.58017578 202.64169922 74.34394531 202.59980469 75.13085938 202.55664062 C75.93330078 202.51732422 76.73574219 202.47800781 77.5625 202.4375 C78.36880859 202.39431641 79.17511719 202.35113281 80.00585938 202.30664062 C82.00372484 202.20024542 84.00171883 202.09822435 86 202 C85.59007812 201.41992188 85.18015625 200.83984375 84.7578125 200.2421875 C84.48839844 199.85160156 84.48839844 199.85160156 83.125 197.875 C82.85816406 197.49214844 82.85816406 197.49214844 81.5078125 195.5546875 C78.37714066 190.25038858 77.89150801 186.37667587 78.5 180.3125 C78.79476114 175.10435636 77.91017478 172.06678643 74.4765625 168.09448242 C72.39783329 165.93428367 70.30036863 163.92680449 68 162 C67.67 162 67.34 162 67 162 Z M92 200 C91.67 200.66 91.34 201.32 91 202 C92.32 201.67 93.64 201.34 95 201 C94.01 200.67 93.02 200.34 92 200 Z " fill="#142d7a" transform="translate(110,20)"/>
<path d="M0 0 C6.26727535 0.0895325 10.81086603 3.14556903 15.3125 7.25 C15.3125 7.91 15.3125 8.57 15.3125 9.25 C12.38223262 8.63412522 10.14829023 7.67806916 7.5625 6.1875 C3.38950736 4.01472 -0.06042437 3.80698212 -4.6875 4.25 C-4.6875 -0.00282881 -3.88761232 0.08885971 0 0 Z " fill="#142d7a" transform="translate(122.6875,82.75)"/>
<path d="M0 0 C2.64 0.33 5.28 0.66 8 1 C8 1.99 8 2.98 8 4 C5.36 3.67 2.72 3.34 0 3 C0 2.01 0 1.02 0 0 Z " fill="#142d7a" transform="translate(98,134)"/>
<path d="M0 0 C0.66 0.66 1.32 1.32 2 2 C-3.22136411 6.09242052 -8.59402535 7.49539385 -15 9 C-15 8.01 -15 7.02 -15 6 C-10.05 4.02 -5.1 2.04 0 0 Z " fill="#142d7a" transform="translate(165,176)"/>
<path d="M0 0 C0.26039062 0.07669922 0.26039062 0.07669922 1.578125 0.46484375 C4.61906786 1.13679403 7.65091812 1.35475935 10.75 1.5625 C11.05099609 1.5840918 11.05099609 1.5840918 12.57421875 1.69335938 C14.0492578 1.79871931 15.52460198 1.89979233 17 2 C17 2.99 17 3.98 17 5 C14.9366903 5.08156568 12.87665478 5.14073921 10.8125 5.1875 C10.23822266 5.20490234 10.23822266 5.20490234 7.33203125 5.29296875 C3.72960801 4.97622579 1.90633161 4.08533398 -1 2 C-0.67 1.34 -0.34 0.68 0 0 Z " fill="#142d7a" transform="translate(108,193)"/>
</g>
<g filter="url(#glow)">
<path d="M0 0 C2.04502468 0.11855216 4.08675404 0.29571111 6.125 0.5 C9.8254479 0.86397025 13.17907624 1.16149471 16.8125 0.1875 C20.6493255 -0.03819562 21.01306702 0.58382273 23.8125 3 C26.21826607 5.04139761 27.32908189 5.98023652 30.51953125 6.07421875 C32.24123961 5.81867283 33.96026188 5.54423916 35.67578125 5.25 C40.39931755 4.74192215 43.11100774 7.31305144 46.75 10.125 C47.4925 10.74375 48.235 11.3625 49 12 C51.2559269 13.12796345 52.80825755 13.19822994 55.3125 13.375 C59.29316275 13.81446517 61.88457701 14.31727465 65 17 C65.77709277 18.25444976 66.52422317 19.52767886 67.25 20.8125 C69.72758199 25.11858499 72.77599767 27.19129947 77.01171875 29.67578125 C79.08659375 31.05767246 79.96872425 31.75456216 81 34 C81.40221797 36.09209206 81.72705984 38.19965071 82 40.3125 C82.45517994 43.81169577 82.92924776 46.81218923 84.17578125 50.12109375 C85.16063126 53.5610675 84.76266111 54.61021398 83.1875 57.75 C81.18436808 62.18502786 80.47850239 65.9307513 80.2734375 70.7734375 C79.97252293 73.22374188 79.13173169 74.82892288 78 77 C78.33100276 79.11841769 78.95519059 80.88797646 79.75 82.875 C80.13660253 86.16112148 78.83559513 88.39087648 77 91 C74.77379681 93.45326604 72.43005006 95.74970707 70 98 C70.969375 98.556875 71.93875 99.11375 72.9375 99.6875 C75.31636885 101.27717066 75.92546319 101.82023476 77.0625 104.5625 C77 107 77 107 75.8203125 108.578125 C73.51727276 110.37706592 71.68032105 110.70332242 68.8125 111.1875 C67.91144531 111.34605469 67.01039063 111.50460938 66.08203125 111.66796875 C65.73849609 111.72275391 65.73849609 111.72275391 64 112 C67.96209625 116.71935696 72.11580998 121.17577496 76.5 125.5 C80.30829282 129.25669867 83.91530318 133.10078373 87.390625 137.171875 C89.02586434 139.02937988 90.73481793 140.76606009 92.5 142.5 C95.44841786 145.40936597 98.20983649 148.42263323 100.90625 151.56640625 C102.57669453 153.50798637 104.26596133 155.42688048 105.96875 157.33984375 C107.04194147 158.55965411 108.11485648 159.77970777 109.1875 161 C109.69885498 161.56920166 110.21020996 162.13840332 110.73706055 162.72485352 C115.80117498 168.53240015 119.93893523 174.75723451 119.5 182.69921875 C118.29239118 188.25610623 115.28918543 192.49943348 110.55078125 195.60546875 C107.21318154 197.3066967 103.84343872 198.69631288 100.3203125 199.96484375 C98 201 98 201 95.9375 203.625 C93.96562492 205.80814741 93.02329264 205.99746952 90.015625 206.32421875 C86.99591369 206.31358596 84.01157593 206.21614181 81 206 C81 206.99 81 207.98 81 209 C80.01 209 79.02 209 78 209 C78 208.01 78 207.02 78 206 C77.319375 206.350625 76.63875 206.70125 75.9375 207.0625 C72.28534332 208.22808192 69.62034715 208.29535357 66 207 C64.00986392 205.56624605 62.5340899 203.90204504 61 202 C60.443125 201.401875 59.88625 200.80375 59.3125 200.1875 C54.98790908 192.97984847 55.70393895 185.04483609 57 177 C59.61782345 166.75479097 59.61782345 166.75479097 62.6953125 162.84765625 C63.12585938 162.23792969 63.55640625 161.62820312 64 161 C63.67 160.01 63.34 159.02 63 158 C62.236875 157.79375 61.47375 157.5875 60.6875 157.375 C56.95690851 155.46632528 56.5354627 153.04810194 55.046875 149.265625 C53.56750832 146.06401054 51.65195182 144.28362518 49 142 C43.91331935 143.52439956 39.34545284 145.70928905 34.625 148.125 C33.88894531 148.49753906 33.15289062 148.87007812 32.39453125 149.25390625 C30.59446387 150.16562869 28.79638644 151.08105222 27 152 C27.04189453 152.53254395 27.08378906 153.06508789 27.12695312 153.61376953 C28.03402598 166.95290743 26.61899263 175.06279916 19 186 C18.03911617 188.88265149 17.88329059 190.67662271 17.90234375 193.66796875 C17.90556641 194.56064453 17.90878906 195.45332031 17.91210938 196.37304688 C17.92048828 197.30181641 17.92886719 198.23058594 17.9375 199.1875 C17.94201172 200.12787109 17.94652344 201.06824219 17.95117188 202.03710938 C17.96295374 204.35813712 17.97940442 206.67903644 18 209 C17.01 209 16.02 209 15 209 C12.59029213 199.51177528 12.19492921 192.17693544 16 183 C17.45849868 180.56916887 19.00701178 178.28407865 20.6953125 176.0078125 C22.01545722 173.97621255 22.56490166 172.36651051 23 170 C22.13890625 170.15984375 21.2778125 170.3196875 20.390625 170.484375 C9.54421018 172.13382979 -0.25341195 171.08325454 -10 166 C-9.7834375 166.93199219 -9.566875 167.86398438 -9.34375 168.82421875 C-6.21301074 182.87726427 -6.75777843 195.04686788 -10 209 C-11.32 209 -12.64 209 -14 209 C-13.7834375 207.87722656 -13.566875 206.75445312 -13.34375 205.59765625 C-11.34550923 194.98266924 -10.20712404 186.20037669 -12.55078125 175.5625 C-13.46489346 170.348086 -13.68056234 165.04168702 -12 160 C-10.80647277 151.48878125 -13.76964701 143.11490039 -16 135 C-17.65 135.33 -19.3 135.66 -21 136 C-22.4783459 142.52936107 -21.43942215 146.45542664 -18.8125 152.58203125 C-18 155 -18 155 -19 158 C-19.99 157.67 -20.98 157.34 -22 157 C-22 155.68 -22 154.36 -22 153 C-26.77267206 155.46002336 -30.7251948 157.54316632 -32.48046875 162.8203125 C-36.12283703 178.10182753 -35.378281 193.46972657 -34 209 C-35.32 209 -36.64 209 -38 209 C-38.77718054 201.27492084 -39.25897726 193.5697452 -39.5625 185.8125 C-39.60568359 184.76513672 -39.64886719 183.71777344 -39.69335938 182.63867188 C-39.79799509 180.09253603 -39.90017546 177.54632822 -40 175 C-42.34494031 178.09555286 -44.67388628 181.20278233 -47 184.3125 C-47.66773438 185.19357422 -48.33546875 186.07464844 -49.0234375 186.98242188 C-49.65507813 187.82998047 -50.28671875 188.67753906 -50.9375 189.55078125 C-51.52402344 190.33106689 -52.11054687 191.11135254 -52.71484375 191.9152832 C-54 194 -54 194 -54 197 C-53.49210937 197.21914062 -52.98421875 197.43828125 -52.4609375 197.6640625 C-47.47696797 199.96004847 -43.34677618 202.56298613 -40 207 C-40 207.66 -40 208.32 -40 209 C-43.20955896 208.64338234 -44.05438323 207.94120732 -46.3125 205.5 C-48.27739539 203.41987926 -49.7443609 202.50955815 -52.5625 201.9375 C-56 202 -56 202 -58.375 203.75 C-60 206 -60 206 -61 209 C-62.7109375 209.390625 -62.7109375 209.390625 -65 209 C-66.77881468 206.94031985 -68.17886964 205.0308135 -69.625 202.75 C-70.05087402 202.09483398 -70.47674805 201.43966797 -70.91552734 200.76464844 C-74.49698191 195.10613369 -77.6142447 189.22808102 -80.625 183.25 C-81.06279785 182.38084961 -81.5005957 181.51169922 -81.95166016 180.61621094 C-85 174.39185209 -85 174.39185209 -85 171 C-83.57421875 169.23828125 -83.57421875 169.23828125 -81.6875 167.3125 C-78.18833319 163.49458318 -76.38454137 159.95797671 -75 155 C-80.70422535 157.53521127 -80.70422535 157.53521127 -82.3125 160.0625 C-84.74733136 162.85804712 -87.37999391 162.9797362 -90.94140625 163.60546875 C-93 164 -93 164 -95 165 C-95.6328125 166.62890625 -95.6328125 166.62890625 -96.125 168.5625 C-96.29257813 169.20316406 -96.46015625 169.84382812 -96.6328125 170.50390625 C-96.69339844 170.75076172 -96.69339844 170.75076172 -97 172 C-97.99 171.34 -98.98 170.68 -100 170 C-99.75412044 166.39376645 -99.43315996 164.48730496 -97 161.75 C-93.66311479 159.80348363 -90.86995539 159.16454954 -87.0859375 158.58984375 C-84.52060112 157.86443964 -83.60304986 157.12333797 -82 155 C-79.5909634 148.99652784 -78.22137727 143.29358811 -80 137 C-80.66 136.67 -81.32 136.34 -82 136 C-81.95359375 136.72445312 -81.9071875 137.44890625 -81.859375 138.1953125 C-81.62503233 144.47234826 -81.6653703 148.28290298 -86 153 C-86.66 153 -87.32 153 -88 153 C-87.97679688 152.40832031 -87.95359375 151.81664062 -87.9296875 151.20703125 C-87.72451936 142.22359758 -87.72451936 142.22359758 -90 139 C-92.58651182 137.6961869 -95.2189501 136.79550962 -98 136 C-98 136.99 -98 137.98 -98 139 C-97.6184375 139.12375 -97.6184375 139.12375 -95.6875 139.75 C-92.65581915 141.16008412 -91.49186812 142.01626376 -90 145 C-90.3125 148.25 -90.3125 148.25 -91 151 C-91.99 151 -92.98 151 -94 151 C-94.33 150.01 -94.66 149.02 -95 148 C-96.35501595 150.32288448 -97.68320281 152.65556716 -99 155 C-99.3815625 155.64839844 -99.763125 156.29679688 -100.15625 156.96484375 C-103.33228155 162.6930435 -103.95764371 167.0587149 -102.40869141 173.43359375 C-101.60996025 176.14876932 -100.72781277 178.82194093 -99.8125 181.5 C-99.1714577 183.43996632 -98.53083637 185.3800718 -97.890625 187.3203125 C-97.73110352 187.79742676 -97.73110352 187.79742676 -96.92382812 190.21191406 C-95.5856192 194.25058899 -94.32021422 198.31068085 -93.0625 202.375 C-92.65771103 203.67452869 -92.25278092 204.97401343 -91.84765625 206.2734375 C-91.56792969 207.17320312 -91.28820312 208.07296875 -91 209 C-92.8515625 208.83203125 -92.8515625 208.83203125 -95 208 C-96.2734375 205.76171875 -96.2734375 205.76171875 -97.375 202.6875 C-97.57778564 202.12643555 -97.78057129 201.56537109 -97.98950195 200.98730469 C-101.00171815 192.44720023 -103.61453168 183.73422314 -106 175 C-106.22115479 174.19409424 -106.44230957 173.38818848 -106.67016602 172.55786133 C-107.73938279 168.30861239 -108.47331758 165.31397377 -106.5625 161.1875 C-106.18738281 160.36894531 -105.81226562 159.55039063 -105.42578125 158.70703125 C-102.78858775 153.6999762 -99.9524902 148.82682386 -97 144 C-97.66515625 143.23300781 -98.3303125 142.46601563 -99.015625 141.67578125 C-101 139 -101 139 -100.75 136.1875 C-100.5025 135.465625 -100.255 134.74375 -100 134 C-98.68 133.67 -97.36 133.34 -96 133 C-95.835 132.34 -95.835 132.34 -95 129 C-93.68 128.67 -92.36 128.34 -91 128 C-88.08772731 131.28804981 -86.50298788 133.59885603 -86 138 C-85.01 136.35 -84.02 134.7 -83 133 C-79.74322102 133.26406316 -78.38010847 133.56746278 -76.1875 136.0625 C-74.22941533 140.90618313 -74.34256794 146.02770383 -76 151 C-74.35 151.99 -72.7 152.98 -71 154 C-71.39105846 161.6256399 -76.55710195 167.12047623 -81 173 C-67.96786377 199.36196084 -67.96786377 199.36196084 -64 204 C-63.34 204 -62.68 204 -62 204 C-61.938125 203.4740625 -61.938125 203.4740625 -61.625 200.8125 C-60.03326168 194.50081542 -55.50876992 189.81325023 -51.5 184.86083984 C-37.83665863 167.91064649 -37.83665863 167.91064649 -34.92578125 159.05859375 C-33.01674715 154.81361075 -29.08242271 152.04121135 -25 150 C-25.165 149.484375 -25.33 148.96875 -25.5 148.4375 C-26.4128785 143.98721731 -26.6422696 140.45355751 -24.8125 136.3125 C-22.80256236 133.74809681 -20.56434727 131.99355966 -18 130 C-18.09087891 129.7733667 -18.09087891 129.7733667 -18.55078125 128.62646484 C-19.37781328 126.54669134 -20.18895808 124.46105826 -21 122.375 C-21.28617187 121.66214844 -21.57234375 120.94929688 -21.8671875 120.21484375 C-23.48935878 116.00492306 -24.45203418 112.59097211 -24 108 C-22.33657163 106.33657163 -20.2174291 106.63951903 -17.9375 106.4375 C-17.01839844 106.35371094 -16.09929687 106.26992187 -15.15234375 106.18359375 C-14.44207031 106.12300781 -13.73179688 106.06242187 -13 106 C-13.165 104.515 -13.165 104.515 -14 97 C-14.72445312 96.97421875 -15.44890625 96.9484375 -16.1953125 96.921875 C-22.30704367 96.5633201 -26.42729504 96.22095843 -31 92 C-32.91631921 88.60288868 -33.22083696 85.86464681 -33 82 C-33.721875 81.79375 -34.44375 81.5875 -35.1875 81.375 C-38.88269184 79.56846177 -41.05102255 77.65169258 -43 74 C-43.69060821 70.29030171 -43.69987118 66.64078608 -43.6875 62.875 C-43.70411884 60.91397686 -43.72855209 58.95300057 -43.76171875 56.9921875 C-43.76131592 56.12964355 -43.76091309 55.26709961 -43.76049805 54.37841797 C-44.01886117 51.81269573 -44.81060043 50.25827809 -46 48 C-45.78975223 45.12661384 -45.4106801 43.52268376 -43.625 41.25 C-40.13788624 38.5676048 -36.20759742 38.61829812 -32 39 C-29.90752601 39.52540286 -28.01649999 40.21307317 -26 41 C-26.350625 40.505 -26.70125 40.01 -27.0625 39.5 C-28.83640621 34.76958344 -27.22890071 29.76199026 -26 25 C-25.938125 24.4328125 -25.938125 24.4328125 -25.625 21.5625 C-25.15755877 18.11512092 -23.87182347 15.95172162 -22 13 C-21.25911936 10.96958658 -20.58012196 8.9319666 -19.94140625 6.8671875 C-18.65530069 4.31632254 -17.50998636 3.38424497 -15 2 C-12.53710136 1.65660156 -10.27904446 1.44568909 -7.8125 1.375 C-1.10536649 1.10536649 -1.10536649 1.10536649 0 0 Z M-0.3046875 3.9765625 C-3.52617215 5.92132973 -7.5370648 5.01815432 -11.1875 4.875 C-15.13980473 5.05065799 -15.13980473 5.05065799 -17 7 C-17.87890625 9.09375 -17.87890625 9.09375 -18.5625 11.5 C-19.79726651 15.79726651 -19.79726651 15.79726651 -22 18 C-22.37890625 20.3125 -22.37890625 20.3125 -22.5625 23 C-22.90508475 27.81016949 -22.90508475 27.81016949 -24 30 C-24.06950541 31.54023996 -24.08452357 33.08334988 -24.0625 34.625 C-24.05347656 35.44226562 -24.04445313 36.25953125 -24.03515625 37.1015625 C-24.02355469 37.72804687 -24.01195313 38.35453125 -24 39 C-23.34 39.33 -22.68 39.66 -22 40 C-20.845 37.69 -20.845 37.69 -15 26 C-12.20826945 25.97309896 -9.41679652 25.95320947 -6.625 25.9375 C-5.8309375 25.92912109 -5.036875 25.92074219 -4.21875 25.91210938 C-3.45820312 25.90888672 -2.69765625 25.90566406 -1.9140625 25.90234375 C-1.2123291 25.89710693 -0.5105957 25.89187012 0.21240234 25.88647461 C2 26 2 26 4 27 C7.08022093 27.19896164 10.15306937 27.34482902 13.23828125 27.4296875 C17.87980201 27.65115171 20.82185915 28.84882207 25 31 C28 31.37109375 28 31.37109375 31 31.4375 C35.47035411 31.70693094 38.05305216 32.1187276 41.48828125 34.9453125 C44.5858252 37.10638968 48.40653837 37.94591792 52 39 C51.95810547 39.29003906 51.95810547 39.29003906 51.74609375 40.7578125 C51.64425781 41.53898437 51.54242188 42.32015625 51.4375 43.125 C51.33308594 43.89070313 51.22867188 44.65640625 51.12109375 45.4453125 C51 48 51 48 51.46875 50.65625 C52.19738751 55.2423802 52.10547564 59.74024276 52.0625 64.375 C52.05798828 65.30183594 52.05347656 66.22867188 52.04882812 67.18359375 C52.03711574 69.45579709 52.02071372 71.72786388 52 74 C52.66 74.33 52.66 74.33 56 76 C56.38671875 75.62746094 56.7734375 75.25492187 57.171875 74.87109375 C61.35167869 71.07409386 61.35167869 71.07409386 64.1875 70.75 C66.69102317 72.4765677 67.2287781 74.48201886 68.2734375 77.27734375 C69.14110593 79.3345576 70.27129963 80.60057589 72 82 C75.83917855 78.16082145 76.15862526 73.18820696 76.9375 68 C77.91332062 61.66887582 77.91332062 61.66887582 79.625 58.6875 C81.47467585 55.07222447 81.36747845 53.04226299 81 49 C80.3409159 47.33032028 79.67349161 45.66392045 79 44 C78.87376921 42.50169546 78.77172864 41.00125156 78.6875 39.5 C78.3047127 35.52033201 77.49034907 33.61803605 74.4609375 31.03515625 C72.98929596 29.99241559 71.47920654 29.06019762 69.9375 28.125 C67.33591644 26.53298618 66.63095043 25.32118935 65.5625 22.5 C64.02642954 19.42132261 63.04558279 19.01558985 59.69921875 17.87109375 C57.70592474 17.3729597 55.70679248 16.92822619 53.69799805 16.49707031 C49.62070546 15.57971647 47.02364336 14.64864378 43.875 11.75 C39.58840493 7.9616276 35.41590007 8.82774908 29.9609375 9.12109375 C27 9 27 9 25.2890625 7.91015625 C24.86367187 7.44480469 24.43828125 6.97945312 24 6.5 C21.93840691 4.26921842 21.12902305 4.01278455 18.00390625 3.703125 C15.71413051 3.73431377 13.42456024 3.7993064 11.13671875 3.8984375 C8.54493896 3.98235565 6.4006345 3.85966334 3.875 3.375 C1 3 1 3 -0.3046875 3.9765625 Z M-14 28 C-15.65 31.3 -17.3 34.6 -19 38 C-18.34 38.33 -17.68 38.66 -17 39 C-16.34 38.67 -15.68 38.34 -15 38 C-12.65965477 37.86762753 -10.3461964 37.95655192 -8 38 C-8 38.33 -8 38.66 -8 39 C-11.96 39.99 -15.92 40.98 -20 42 C-17.6840106 46.6319788 -15.23916875 49.98336306 -11 53 C-7.97338298 53.82631449 -5.12972211 54.04967813 -2 54 C-1.79375 53.608125 -1.79375 53.608125 -0.75 51.625 C1.15385866 48.76921202 1.87606438 48.19209809 5 47 C8.05859375 46.5859375 8.05859375 46.5859375 11.4375 46.375 C12.54996094 46.30023438 13.66242188 46.22546875 14.80859375 46.1484375 C17.54621342 46.02110635 20.26024107 45.96927373 23 46 C21.04612336 44.04612336 19.87139895 43.39205142 17.375 42.375 C16.74335937 42.11460938 16.11171875 41.85421875 15.4609375 41.5859375 C14.97882813 41.39257812 14.49671875 41.19921875 14 41 C14.66 40.67 15.32 40.34 16 40 C18.06949805 40.69669181 20.00466114 41.44424524 22 42.3125 C22.5465625 42.53873047 23.093125 42.76496094 23.65625 42.99804688 C26.23706159 44.09552435 27.99687533 44.99687533 30 47 C32.08085703 47.65817163 34.14380418 48.25100408 36.25 48.8125 C41.53666774 50.30948083 45.14877657 52.03874162 49 56 C49.12549801 49.47410359 49.12549801 49.47410359 48.4375 46.875 C47.85464055 44.37703091 48.38519955 42.45920181 49 40 C48.40832031 39.81824219 47.81664062 39.63648438 47.20703125 39.44921875 C40.42776735 37.29268293 40.42776735 37.29268293 37.625 35.375 C34.01894367 33.48611335 30.64706261 33.56778516 26.625 33.31640625 C24 33 24 33 21.0625 31.4375 C16.9030426 29.48510163 13.33736777 29.86493977 8.8046875 30.08984375 C6 30 6 30 4.0078125 28.9765625 C1.17796892 27.60017943 -0.90689826 28.06246141 -4 28.4375 C-7.92048539 28.90305764 -10.09300874 28.97674781 -14 28 Z M-43 44 C-42.49396008 46.16874252 -42.00016187 47.99967627 -41 50 C-36.25 48.125 -36.25 48.125 -34 47 C-28.63051551 46.46922337 -24.08169718 47.30610094 -19 49 C-21.93068552 45.61843979 -24.57951971 43.6874369 -29 43 C-39.88836105 42.44418052 -39.88836105 42.44418052 -43 44 Z M-19 49 C-18.01 49.99 -17.02 50.98 -16 52 C-16.33 51.01 -16.66 50.02 -17 49 C-17.66 49 -18.32 49 -19 49 Z M2 51 C1.25 53.125 1.25 53.125 1 55 C1.49886719 54.855625 1.99773437 54.71125 2.51171875 54.5625 C12.06439544 52.09286725 23.02952969 51.22624095 32 56 C33.98950965 57.50072417 35.80307589 59.05688934 37.58984375 60.79296875 C39 62 39 62 41 62 C43.1875 60.25 43.1875 60.25 45 58 C45.1875 55.9375 45.1875 55.9375 44 54 C35.25922801 48.94977618 24.84116339 48.82008045 15 48.75 C14.58733887 48.74536743 14.58733887 48.74536743 12.49902344 48.72192383 C11.7155957 48.72603271 10.93216797 48.7301416 10.125 48.734375 C9.42632812 48.73663086 8.72765625 48.73888672 8.0078125 48.74121094 C5.63050459 49.04762465 4.02913382 49.73400658 2 51 Z M-39 52 C-40.34168518 56.17927222 -40.25219296 60.6418111 -40.3125 65 C-40.32700195 65.34933594 -40.32700195 65.34933594 -40.40039062 67.1171875 C-40.44621789 70.85387205 -40.20960614 72.65204456 -38.23046875 75.9375 C-35.94856795 78.04755889 -34.93506384 78.41460477 -32 79 C-31.85377197 78.26362305 -31.70754395 77.52724609 -31.55688477 76.76855469 C-31.0116056 74.02507157 -30.46544753 71.28176528 -29.91870117 68.53857422 C-29.68267384 67.35342256 -29.44699243 66.16820196 -29.21166992 64.98291016 C-28.8725023 63.27488211 -28.53196919 61.56712539 -28.19140625 59.859375 C-27.98717041 58.83295898 -27.78293457 57.80654297 -27.57250977 56.74902344 C-27.10025013 54.48137161 -26.58369814 52.24102581 -26 50 C-30.75108833 48.72531776 -35.09406737 48.75043621 -39 52 Z M-23 51 C-23.52992692 52.45505358 -24.0486789 53.91418127 -24.5625 55.375 C-24.85253906 56.18710938 -25.14257812 56.99921875 -25.44140625 57.8359375 C-26 60 -26 60 -25 62 C-22.36 62 -19.72 62 -17 62 C-16.67 59.69 -16.34 57.38 -16 55 C-16.97726954 54.33055542 -17.95687405 53.66451829 -18.9375 53 C-19.21013672 52.814375 -19.21013672 52.814375 -20.58984375 51.875 C-22 51 -22 51 -23 51 Z M-13 56 C-13 57.32 -13 58.64 -13 60 C-11.7303392 60.33777199 -10.45921383 60.67004182 -9.1875 61 C-8.83365234 61.0928125 -8.83365234 61.0928125 -7.04296875 61.5625 C-5 62 -5 62 -2 62 C-2 60.68 -2 59.36 -2 58 C-9.42857143 55.71428571 -9.42857143 55.71428571 -13 56 Z M2 58 C-0.93826386 63.74526507 -0.19551702 69.78931873 1.53125 75.87109375 C3.28430839 79.88851923 6.15456425 82.97225972 10 85 C16.57050825 86.8214164 23.02161371 86.36069898 29 83 C34.05742712 78.60317899 36.92399187 73.69922504 37.5 67 C37.44077102 64.58527993 37.29185226 63.38848562 35.83203125 61.4453125 C27.05342708 53.81763073 12.34708386 52.82645807 2 58 Z M47 59 C43.55850607 62.16979704 41.43526912 64.4332346 40 69 C42.97 69.99 45.94 70.98 49 72 C50.23621824 69.52756353 49.98408601 68.22682061 49.6875 65.5 C49.60886719 64.7059375 49.53023437 63.911875 49.44921875 63.09375 C49 61 49 61 47 59 Z M-27 64 C-27.66 69.28 -28.32 74.56 -29 80 C-27.02 80 -25.04 80 -23 80 C-22.79503906 79.16855469 -22.59007813 78.33710937 -22.37890625 77.48046875 C-22.24419922 76.93712891 -22.24419922 76.93712891 -21.5625 74.1875 C-21.29566406 73.10855469 -21.02882813 72.02960938 -20.75390625 70.91796875 C-20.23922588 68.9259157 -19.65062825 66.95188476 -19 65 C-19.33 64.67 -19.66 64.34 -20 64 C-22.31 64 -24.62 64 -27 64 Z M-16.875 66.3125 C-19.41310431 72.37574918 -20.32208084 78.62134896 -17.875 84.875 C-14.46360361 88.74124924 -11.33731863 91.18543178 -6.0625 91.625 C-1.1209174 91.41553022 1.72725697 88.43638018 5 85 C4.66226563 84.56429687 4.32453125 84.12859375 3.9765625 83.6796875 C-0.47760733 77.73221217 -2.12302986 72.30808452 -3 65 C-13.7063655 62.40451745 -13.7063655 62.40451745 -16.875 66.3125 Z M39 72 C38.79246094 72.50789063 38.58492187 73.01578125 38.37109375 73.5390625 C35.43433941 80.10068099 31.64562895 84.25643833 25.125 87.375 C19.80618214 88.43876357 14.92083817 88.90161792 9.9375 86.5625 C8.968125 86.376875 7.99875 86.19125 7 86 C4.76094892 87.58155196 2.92550204 89.32498867 1.02734375 91.30078125 C-1.3207527 93.26883897 -2.9944366 93.64058254 -6 94 C-6 94.33 -6 94.66 -6 95 C-5.44650879 95.08975098 -4.89301758 95.17950195 -4.32275391 95.27197266 C19.23277581 99.20851592 19.23277581 99.20851592 26.5625 107.6875 C29.2069348 111.94159076 29.09105221 115.17423261 29 120 C25.32599747 121.3296701 23.037056 120.64569438 19.37890625 119.453125 C19.10860344 119.36719086 19.10860344 119.36719086 17.7407074 118.93231201 C16.01136466 118.38117532 14.28682054 117.81663498 12.5625 117.25 C-11.71541553 109.35223829 -11.71541553 109.35223829 -21 110 C-19.75533356 116.39011368 -17.96987319 122.36811918 -15.625 128.4375 C-15.33367187 129.23865234 -15.04234375 130.03980469 -14.7421875 130.86523438 C-14.44828125 131.63029297 -14.154375 132.39535156 -13.8515625 133.18359375 C-13.59197754 133.86993896 -13.33239258 134.55628418 -13.06494141 135.26342773 C-11.69405795 137.49889175 -10.42345059 138.07331893 -8 139 C-5.203125 139.4140625 -5.203125 139.4140625 -2.25 139.625 C-1.26515625 139.69976562 -0.2803125 139.77453125 0.734375 139.8515625 C1.10820313 139.87605469 1.10820313 139.87605469 3 140 C3 140.33 3 140.66 3 141 C-1.29 141 -5.58 141 -10 141 C-9.83628906 141.99128906 -9.67257813 142.98257813 -9.50390625 144.00390625 C-8.93312832 147.99935177 -8.88609799 151.90837307 -8.9375 155.9375 C-8.94201172 156.62134766 -8.94652344 157.30519531 -8.95117188 158.00976562 C-8.9628044 159.67321604 -8.98073306 161.3366205 -9 163 C0.104344 168.3667712 10.74677522 167.89940568 21 167 C21.99 166.67 22.98 166.34 24 166 C23.88140625 165.11957031 23.7628125 164.23914063 23.640625 163.33203125 C23.50924381 162.15898493 23.37910091 160.98579946 23.25 159.8125 C23.16878906 159.23435547 23.08757812 158.65621094 23.00390625 158.06054688 C22.68361692 154.91103508 22.92576974 153.13716461 24.4375 150.34375 C27.86746877 147.20658344 31.51908759 145.53633154 35.75 143.6875 C36.54277344 143.32849609 37.33554688 142.96949219 38.15234375 142.59960938 C40.09660231 141.7211793 42.04543972 140.85519981 44 140 C43.53599578 135.3711386 43.09843903 132.49368868 40.1875 128.75 C35.94537286 122.72494987 32.51551457 115.9866941 32.875 108.4375 C34.19898463 101.02318604 38.83338839 95.11095654 43.9375 89.8125 C46.94685714 86.55291185 46.94685714 86.55291185 47.18359375 84.08984375 C46.875 82.25 46.875 82.25 46 79 C46.4375 76.5625 46.4375 76.5625 47 75 C41.25 72 41.25 72 39 72 Z M60.4152832 74.41772461 C59.79999756 75.07264893 59.18471191 75.72757324 58.55078125 76.40234375 C57.86693359 77.12873047 57.18308594 77.85511719 56.47851562 78.60351562 C55.76373047 79.37373047 55.04894531 80.14394531 54.3125 80.9375 C53.96477539 81.30520508 53.96477539 81.30520508 52.20507812 83.16601562 C35.27048984 101.27068751 35.27048984 101.27068751 35.65625 113.1328125 C36.72031199 122.00805683 41.32868998 128.38007158 47 135 C47.91187202 136.08428765 48.82329941 137.16894932 49.734375 138.25390625 C55.51242482 145.0940067 61.46435806 151.75494952 67.54296875 158.328125 C70.16753203 161.17014923 72.71602022 164.07364989 75.24609375 167 C76.96645277 168.9617457 78.72335171 170.88691466 80.48608398 172.81054688 C84.03913842 176.697896 87.27186344 180.49264394 90 185 C89.51789063 184.57847656 89.03578125 184.15695313 88.5390625 183.72265625 C87.90742188 183.17480469 87.27578125 182.62695312 86.625 182.0625 C85.99851563 181.51722656 85.37203125 180.97195312 84.7265625 180.41015625 C83 179 83 179 81 178 C80.5375338 184.98837808 80.43228388 191.2865357 85 197 C91.56366065 199.18788688 101.05835867 196.55223971 107.3515625 193.91015625 C110.96670494 191.91411789 113.21827582 189.27918503 115.375 185.75 C116.71779727 179.84169202 115.84964378 174.82269863 112.625 169.6875 C109.09506788 164.82214778 105.00133732 160.4526127 100.87890625 156.08984375 C98.74042521 153.82090827 96.67673761 151.49898074 94.6328125 149.14453125 C90.95563367 144.92020986 87.15550466 140.82341531 83.3125 136.75 C82.96654785 136.38209351 82.96654785 136.38209351 81.21582031 134.52026367 C76.51919086 129.54701163 71.74864068 124.66031171 66.8059082 119.93066406 C63.67001926 116.87683682 61.3263494 113.71237532 59 110 C59.763125 110.04125 60.52625 110.0825 61.3125 110.125 C64.2211009 109.98971624 64.71072053 109.55671004 67 108 C69.30672603 107.1998081 71.63615719 106.62441131 74 106 C73.67 105.01 73.34 104.02 73 103 C66.47692308 102.75384615 66.47692308 102.75384615 64.0625 104 C63.711875 104.33 63.36125 104.66 63 105 C65.4851503 99.48456966 68.77351532 95.86946026 73.0390625 91.5625 C75.2744849 88.64131057 75.69449537 86.62391702 76 83 C71.80628401 84.70855096 68.14971916 87.49420183 66.23828125 91.66015625 C65.76256443 93.08730671 65.37282762 94.54258294 65 96 C64.67 96 64.34 96 64 96 C64 93.03 64 90.06 64 87 C60.78977531 88.0700749 60.47705133 88.36477888 58.8125 91.0625 C58.214375 92.031875 57.61625 93.00125 57 94 C57 90.33809961 58.08126875 88.87720371 59.9375 85.75 C62.43095732 81.33218033 63.77566563 78.04752326 64 73 C62 73 62 73 60.4152832 74.41772461 Z M50 76 C48.5393715 78.64738916 48 79.89448334 48 83 C50.87559551 81.75390861 52.48482479 80.77782122 54 78 C52.68 77.34 51.36 76.68 50 76 Z M66 79 C64.875 83.75 64.875 83.75 66 86 C66.66 86 67.32 86 68 86 C67.67 83.69 67.34 81.38 67 79 C66.67 79 66.34 79 66 79 Z M-29 83 C-29.04125 84.11375 -29.0825 85.2275 -29.125 86.375 C-29.14820312 87.00148438 -29.17140625 87.62796875 -29.1953125 88.2734375 C-29 90 -29 90 -27 92 C-25.30419922 92.41064453 -25.30419922 92.41064453 -23.3046875 92.6328125 C-22.58925781 92.71660156 -21.87382813 92.80039063 -21.13671875 92.88671875 C-20.76353516 92.92603516 -20.76353516 92.92603516 -18.875 93.125 C-18.12089844 93.21136719 -17.36679688 93.29773438 -16.58984375 93.38671875 C-14.72742873 93.59889261 -12.86381069 93.80045763 -11 94 C-11.77859375 93.39414063 -12.5571875 92.78828125 -13.359375 92.1640625 C-16.57416442 89.52945697 -19.13318351 86.73363298 -21 83 C-23.64 83 -26.28 83 -29 83 Z M-10 98 C-10 101.3 -10 104.6 -10 108 C-8.27507022 108.53469802 -6.544802 109.05219175 -4.8125 109.5625 C-3.84957031 109.85253906 -2.88664062 110.14257812 -1.89453125 110.44140625 C2.23234824 111.23782159 5.07599877 110.30800041 9 109 C14.72206293 108.52316142 19.5841011 109.15628973 25 111 C23.24121727 106.5230985 20.37057052 104.03503783 16.05859375 102.15234375 C7.60000624 99.14114712 -1.03477473 97.66168961 -10 98 Z M7 113 C9.39287704 113.8427743 11.78871019 114.67437002 14.1875 115.5 C14.52426758 115.61923828 14.52426758 115.61923828 16.22851562 116.22265625 C19.94262203 117.49088771 23.01697894 118.30936086 27 118 C26.75390625 116.109375 26.75390625 116.109375 26 114 C20.90507674 111.01216754 11.5687128 108.4312872 7 113 Z M-93 132 C-93 132.66 -93 133.32 -93 134 C-92.34 134 -91.68 134 -91 134 C-91 133.34 -91 132.68 -91 132 C-91.66 132 -92.32 132 -93 132 Z M67 162 C59.83691736 170.83446859 59.04100259 182.07005693 60 193 C60.90277965 197.59087945 61.89106943 200.17474934 65.6875 203 C66.450625 203.33 67.21375 203.66 68 204 C68.165 203.835 68.165 203.835 69 203 C70.26700599 202.84460376 71.54161883 202.74969384 72.81640625 202.68359375 C73.58017578 202.64169922 74.34394531 202.59980469 75.13085938 202.55664062 C75.93330078 202.51732422 76.73574219 202.47800781 77.5625 202.4375 C78.36880859 202.39431641 79.17511719 202.35113281 80.00585938 202.30664062 C82.00372484 202.20024542 84.00171883 202.09822435 86 202 C85.59007812 201.41992188 85.18015625 200.83984375 84.7578125 200.2421875 C84.48839844 199.85160156 84.48839844 199.85160156 83.125 197.875 C82.85816406 197.49214844 82.85816406 197.49214844 81.5078125 195.5546875 C78.37714066 190.25038858 77.89150801 186.37667587 78.5 180.3125 C78.79476114 175.10435636 77.91017478 172.06678643 74.4765625 168.09448242 C72.39783329 165.93428367 70.30036863 163.92680449 68 162 C67.67 162 67.34 162 67 162 Z M92 200 C91.67 200.66 91.34 201.32 91 202 C92.32 201.67 93.64 201.34 95 201 C94.01 200.67 93.02 200.34 92 200 Z " fill="#1e40af" transform="translate(110,20)"/>
<path d="M0 0 C6.26727535 0.0895325 10.81086603 3.14556903 15.3125 7.25 C15.3125 7.91 15.3125 8.57 15.3125 9.25 C12.38223262 8.63412522 10.14829023 7.67806916 7.5625 6.1875 C3.38950736 4.01472 -0.06042437 3.80698212 -4.6875 4.25 C-4.6875 -0.00282881 -3.88761232 0.08885971 0 0 Z " fill="#1e40af" transform="translate(122.6875,82.75)"/>
<path d="M0 0 C2.64 0.33 5.28 0.66 8 1 C8 1.99 8 2.98 8 4 C5.36 3.67 2.72 3.34 0 3 C0 2.01 0 1.02 0 0 Z " fill="#1e40af" transform="translate(98,134)"/>
<path d="M0 0 C0.66 0.66 1.32 1.32 2 2 C-3.22136411 6.09242052 -8.59402535 7.49539385 -15 9 C-15 8.01 -15 7.02 -15 6 C-10.05 4.02 -5.1 2.04 0 0 Z " fill="#1e40af" transform="translate(165,176)"/>
<path d="M0 0 C0.26039062 0.07669922 0.26039062 0.07669922 1.578125 0.46484375 C4.61906786 1.13679403 7.65091812 1.35475935 10.75 1.5625 C11.05099609 1.5840918 11.05099609 1.5840918 12.57421875 1.69335938 C14.0492578 1.79871931 15.52460198 1.89979233 17 2 C17 2.99 17 3.98 17 5 C14.9366903 5.08156568 12.87665478 5.14073921 10.8125 5.1875 C10.23822266 5.20490234 10.23822266 5.20490234 7.33203125 5.29296875 C3.72960801 4.97622579 1.90633161 4.08533398 -1 2 C-0.67 1.34 -0.34 0.68 0 0 Z " fill="#1e40af" transform="translate(108,193)"/>
</g>
</g>
</svg>
