<?xml version="1.0" encoding="UTF-8"?>
<svg version="1.1" xmlns="http://www.w3.org/2000/svg" width="229" height="229" viewBox="0 0 229 229">
<g transform="translate(22.9,22.9) scale(0.8)">
<g transform="translate(2,2)">
<path d="M0 0 C5.12157382 3.47130665 9.30119706 8.06102638 11.06689453 14.06201172 C11.39111328 16.03466797 11.39111328 16.03466797 11.56689453 18.06201172 C11.63521484 18.78259766 11.70353516 19.50318359 11.77392578 20.24560547 C12.06878716 26.54690225 11.25536379 33.02287255 6.94970703 37.89013672 C3.54552974 40.89983853 0.00142022 43.92676029 -4.68310547 44.18701172 C-5.26060547 44.14576172 -5.83810547 44.10451172 -6.43310547 44.06201172 C-6.45888672 44.72845703 -6.48466797 45.39490234 -6.51123047 46.08154297 C-6.90066396 52.40983721 -8.17928868 57.48996974 -10.52685547 63.35888672 C-11.4521431 66.11879637 -11.7596639 68.47803757 -11.93310547 71.37451172 C-12.25060602 76.15969855 -13.51928916 78.29119061 -16.43310547 82.06201172 C-16.97771851 83.11252124 -17.49923882 84.17536379 -17.99560547 85.24951172 C-20.33901357 89.8344406 -20.33901357 89.8344406 -22.43310547 91.06201172 C-25.15582213 90.99718513 -27.76439697 90.58814665 -30.43310547 90.06201172 C-38.59017462 106.88917324 -38.59017462 106.88917324 -38.43310547 116.06201172 C-37.77826172 116.07619141 -37.12341797 116.09037109 -36.44873047 116.10498047 C-26.39564395 116.63035363 -17.6848456 119.07863058 -10.74560547 126.68701172 C-6.41669511 131.93906445 -5.7955055 136.4247006 -6.43310547 143.06201172 C-7.12286343 145.45139429 -7.93171797 147.71862622 -8.87451172 150.01904297 C-9.92148854 153.84819597 -8.0747038 157.03700491 -6.40185547 160.46826172 C-6.00353516 161.29455078 -5.60521484 162.12083984 -5.19482422 162.97216797 C-4.98664063 163.39949219 -4.98664063 163.39949219 -3.93310547 165.56201172 C-3.10673332 167.25824929 -2.28368726 168.95611227 -1.46435547 170.65576172 C-1.09890625 171.40535156 -0.73345703 172.15494141 -0.35693359 172.92724609 C0.52418862 174.96332765 1.09872397 176.89764205 1.56689453 179.06201172 C0.57689453 179.06201172 -0.41310547 179.06201172 -1.43310547 179.06201172 C-1.83400391 178.16482422 -2.23490234 177.26763672 -2.64794922 176.34326172 C-17.18848045 144.24016899 -17.18848045 144.24016899 -27.37060547 137.99951172 C-32.56483798 136.40944054 -37.03311998 137.17140961 -41.80810547 139.68701172 C-42.67435547 140.14076172 -43.54060547 140.59451172 -44.43310547 141.06201172 C-45.09310547 140.73201172 -45.75310547 140.40201172 -46.43310547 140.06201172 C-49.07131427 140.3809816 -51.6353356 140.77231689 -54.24560547 141.24951172 C-55.00301025 141.38462158 -55.76041504 141.51973145 -56.54077148 141.65893555 C-62.52152437 142.77761491 -68.22595355 144.36575444 -73.99169922 146.29248047 C-76.43310547 147.06201172 -76.43310547 147.06201172 -78.43310547 147.06201172 C-78.40990234 147.58150391 -78.38669922 148.10099609 -78.36279297 148.63623047 C-78.25057281 152.97273807 -78.50157083 156.09163496 -80.43310547 160.06201172 C-82.30014938 164.14617027 -83.00428898 167.96667724 -83.55810547 172.37451172 C-83.64447266 173.0196875 -83.73083984 173.66486328 -83.81982422 174.32958984 C-84.0300524 175.90630118 -84.23239184 177.48406097 -84.43310547 179.06201172 C-85.42310547 179.06201172 -86.41310547 179.06201172 -87.43310547 179.06201172 C-88.42310547 179.39201172 -89.41310547 179.72201172 -90.43310547 180.06201172 C-90.76310547 179.73201172 -91.09310547 179.40201172 -91.43310547 179.06201172 C-91.36792008 177.01756102 -91.22989529 174.97527471 -91.05810547 172.93701172 C-91.00992676 172.34605713 -90.96174805 171.75510254 -90.91210938 171.14624023 C-90.65116491 168.07528703 -90.31364276 165.03938725 -89.80810547 161.99951172 C-89.43310547 159.06201172 -89.43310547 159.06201172 -89.96044922 157.15576172 C-90.65808057 154.06542779 -89.80585737 151.42541279 -89.10107422 148.37841797 C-89.58108333 145.02964851 -91.50209094 143.97285771 -94.11401367 141.99536133 C-94.54931396 141.68735596 -94.98461426 141.37935059 -95.43310547 141.06201172 C-102.59565217 153.12023529 -107.11696666 165.75102575 -111.43310547 179.06201172 C-112.42310547 179.06201172 -113.41310547 179.06201172 -114.43310547 179.06201172 C-111.85774619 163.0770231 -103.20679301 139.12588229 -89.95654297 128.92529297 C-88.55810547 128.06201172 -88.55810547 128.06201172 -86.43310547 127.06201172 C-87.59942312 120.00593066 -89.50506581 113.6585163 -92.24560547 107.06201172 C-92.59945312 106.19205566 -92.95330078 105.32209961 -93.31787109 104.42578125 C-95.52358877 99.06516412 -97.8614208 93.84256035 -100.62060547 88.74169922 C-101.43310547 87.06201172 -101.43310547 87.06201172 -101.43310547 85.06201172 C-102.00158203 85.03623047 -102.57005859 85.01044922 -103.15576172 84.98388672 C-109.35563327 84.52847044 -114.40704319 83.4474189 -118.68310547 78.66357422 C-121.70494836 74.10859045 -122.23241111 69.17820163 -122.84326172 63.83154297 C-123.48829738 60.80286559 -124.51020723 59.4332541 -126.43310547 57.06201172 C-127.09326172 55.24560547 -127.09326172 55.24560547 -127.49560547 53.49951172 C-128.09132034 50.95212147 -128.88232253 49.17905564 -130.43310547 47.06201172 C-129.44310547 47.06201172 -128.45310547 47.06201172 -127.43310547 47.06201172 C-127.59810547 46.56701172 -127.59810547 46.56701172 -128.43310547 44.06201172 C-128.10310547 43.07201172 -127.77310547 42.08201172 -127.43310547 41.06201172 C-126.11310547 42.05201172 -124.79310547 43.04201172 -123.43310547 44.06201172 C-123.43310547 42.41201172 -123.43310547 40.76201172 -123.43310547 39.06201172 C-122.44310547 39.06201172 -121.45310547 39.06201172 -120.43310547 39.06201172 C-120.10310547 39.72201172 -119.77310547 40.38201172 -119.43310547 41.06201172 C-119.26875 40.62630859 -119.26875 40.62630859 -118.43701172 38.42138672 C-114.7474438 29.04456232 -110.08924605 20.50817956 -102.74951172 13.44091797 C-100.90908087 11.51310761 -100.32330301 9.46138853 -99.47216797 6.97607422 C-97.22601192 2.83841833 -94.40754394 0.1489795 -89.96435547 -1.30126953 C-88.62721133 -1.64452238 -87.28259383 -1.95952758 -85.93310547 -2.25048828 C-85.20043457 -2.41291016 -84.46776367 -2.57533203 -83.71289062 -2.74267578 C-70.2384649 -5.42572395 -56.55296668 -5.12710989 -43.46435547 -0.91064453 C-38.20436816 0.77716068 -38.20436816 0.77716068 -35.43310547 1.06201172 C-34.18588283 -0.11956763 -32.94532909 -1.31259922 -31.79248047 -2.58642578 C-22.795751 -11.53144991 -9.17699519 -5.59119389 0 0 Z M-33.43310547 2.06201172 C-33.43310547 2.72201172 -33.43310547 3.38201172 -33.43310547 4.06201172 C-31.59716797 5.25341797 -31.59716797 5.25341797 -29.05810547 6.62451172 C-19.98007137 11.92432992 -11.83886075 18.22933861 -8.99316406 28.67724609 C-8.02705393 32.45036794 -7.20133515 36.24414299 -6.43310547 40.06201172 C-5.77310547 40.06201172 -5.11310547 40.06201172 -4.43310547 40.06201172 C-4.14435547 39.42263672 -3.85560547 38.78326172 -3.55810547 38.12451172 C-2.43310547 36.06201172 -2.43310547 36.06201172 -0.43310547 35.06201172 C-0.76310547 36.71201172 -1.09310547 38.36201172 -1.43310547 40.06201172 C-0.96904297 39.86607422 -0.96904297 39.86607422 1.37939453 38.87451172 C1.90146484 38.65408203 2.42353516 38.43365234 2.96142578 38.20654297 C6.22184179 35.88220747 7.40749774 32.88787968 8.14892578 29.04638672 C9.26519698 13.3807503 9.26519698 13.3807503 4.39892578 7.04638672 C1.63486158 3.87540194 -1.35027246 2.04199907 -5.12060547 0.24951172 C-5.73564941 -0.04745605 -6.35069336 -0.34442383 -6.984375 -0.65039062 C-15.82330874 -4.71413588 -26.4659184 -6.20486468 -33.43310547 2.06201172 Z M-76.43310547 -0.93798828 C-73.60719489 1.08173159 -70.74755481 2.0308497 -67.43310547 3.06201172 C-70.59710232 4.11667734 -70.93684658 4.08981303 -73.87060547 3.12451172 C-80.04916675 1.45401182 -87.36500397 0.53657923 -93.21435547 3.44482422 C-95.56306079 5.15673268 -96.41416218 6.37570669 -97.43310547 9.06201172 C-97.05154297 8.97951172 -97.05154297 8.97951172 -95.12060547 8.56201172 C-84.87356769 6.94659635 -77.37572511 8.58464377 -68.19482422 13.18310547 C-58.25617553 18.00237916 -50.26017012 17.52995523 -40.08544922 14.06982422 C-37.43310547 13.06201172 -37.43310547 13.06201172 -35.43310547 12.06201172 C-35.61486328 12.54444336 -35.79662109 13.026875 -35.98388672 13.52392578 C-44.23248338 35.76341141 -44.23248338 35.76341141 -40.21435547 44.80419922 C-38.74106236 47.33736136 -37.15996033 49.69605126 -35.43310547 52.06201172 C-32.99402041 55.61901076 -30.879786 58.96308355 -29.43310547 63.06201172 C-28.89685547 62.73201172 -28.36060547 62.40201172 -27.80810547 62.06201172 C-24.74569408 60.77257534 -22.73371108 60.65785593 -19.43310547 61.06201172 C-17.49763506 62.22430465 -16.09334057 63.4994375 -14.43310547 65.06201172 C-8.15636682 54.79098483 -8.36473871 41.23236067 -10.68701172 29.76513672 C-13.36830572 20.05071029 -19.36741825 13.91580771 -27.94482422 8.99169922 C-43.87405625 0.30973898 -58.44578903 -1.6597016 -76.43310547 -0.93798828 Z M-103.05810547 16.62451172 C-107.41027993 22.02480158 -112.06884233 28.14551489 -113.43310547 35.06201172 C-112.93939453 35.25537109 -112.44568359 35.44873047 -111.93701172 35.64794922 C-111.29634766 35.90833984 -110.65568359 36.16873047 -109.99560547 36.43701172 C-109.6765625 36.56462891 -109.6765625 36.56462891 -108.06201172 37.21044922 C-106.43310547 38.06201172 -106.43310547 38.06201172 -105.43310547 40.06201172 C-105.79404297 39.88669922 -105.79404297 39.88669922 -107.62060547 38.99951172 C-110.74537597 37.95792155 -112.31472543 38.17104599 -115.43310547 39.06201172 C-115.76310547 40.38201172 -116.09310547 41.70201172 -116.43310547 43.06201172 C-116.16755859 43.14128906 -116.16755859 43.14128906 -114.82373047 43.54248047 C-110.07814759 45.10990839 -106.85959707 46.42002779 -104.43310547 51.06201172 C-104.07536016 54.31153158 -104.62020435 56.88782122 -106.48779297 59.58544922 C-108.92159832 62.20065622 -110.95891801 63.4416211 -114.43310547 64.06201172 C-114.76310547 64.72201172 -115.09310547 65.38201172 -115.43310547 66.06201172 C-117.49560547 67.18701172 -117.49560547 67.18701172 -119.43310547 68.06201172 C-117.92522563 73.79931061 -116.82372107 77.90652942 -111.43310547 81.06201172 C-99.10534277 84.90268724 -84.15242615 83.17431216 -71.43310547 83.06201172 C-72.09310547 81.41201172 -72.75310547 79.76201172 -73.43310547 78.06201172 C-70.91415074 80.51099548 -68.61731664 82.81837759 -66.49560547 85.62451172 C-64.0500779 88.51468067 -61.64757869 90.08949406 -58.43310547 92.06201172 C-59.42310547 92.06201172 -60.41310547 92.06201172 -61.43310547 92.06201172 C-62.37840548 91.11653161 -63.28033935 90.12722404 -64.15576172 89.11669922 C-69.6141165 84.2313209 -76.96618995 85.17089685 -83.87060547 85.18701172 C-85.28405396 85.16886358 -86.69747092 85.14805424 -88.11083984 85.12451172 C-91.55199697 85.07294009 -94.99158339 85.05756079 -98.43310547 85.06201172 C-97.32027666 88.526746 -96.1580831 91.84406327 -94.55029297 95.10888672 C-88.03211016 108.73316113 -83.57359632 122.57798345 -79.43310547 137.06201172 C-76.5689556 135.92322745 -73.71399144 134.77155148 -70.88232422 133.55419922 C-70.26679687 133.28994141 -69.65126953 133.02568359 -69.01708984 132.75341797 C-68.39125 132.48400391 -67.76541016 132.21458984 -67.12060547 131.93701172 C-66.79801758 131.7984375 -66.79801758 131.7984375 -65.16552734 131.09716797 C-63.58781542 130.41933618 -62.01042721 129.74075098 -60.43310547 129.06201172 C-60.76310547 127.08201172 -61.09310547 125.10201172 -61.43310547 123.06201172 C-58.92227433 124.31742729 -58.56185101 125.5626466 -57.43310547 128.06201172 C-56.44310547 127.40201172 -55.45310547 126.74201172 -54.43310547 126.06201172 C-54.59810547 124.57701172 -54.59810547 124.57701172 -55.43310547 117.06201172 C-52.87704468 120.89610291 -53.26347028 122.56667932 -53.43310547 127.06201172 C-49.80310547 126.73201172 -46.17310547 126.40201172 -42.43310547 126.06201172 C-42.40732422 125.13001953 -42.38154297 124.19802734 -42.35498047 123.23779297 C-41.86233804 110.7619119 -39.30763765 100.41599228 -32.70263672 89.59716797 C-31.27436924 86.74502769 -30.91765975 84.19633581 -30.43310547 81.06201172 C-28.68310547 79.12451172 -28.68310547 79.12451172 -26.43310547 78.06201172 C-23.93310547 78.31201172 -23.93310547 78.31201172 -21.43310547 79.06201172 C-21.05154297 79.15482422 -21.05154297 79.15482422 -19.12060547 79.62451172 C-18.56373047 79.76888672 -18.00685547 79.91326172 -17.43310547 80.06201172 C-15.19456659 76.56429472 -14.81708408 73.11144646 -15.43310547 69.06201172 C-16.58950352 66.74921561 -17.60720375 64.88791344 -19.43310547 63.06201172 C-24.75156389 62.59953707 -24.75156389 62.59953707 -27.18310547 64.24951172 C-28.67581356 66.41393845 -29.56362065 68.58732417 -30.43310547 71.06201172 C-31.42310547 69.74201172 -32.41310547 68.42201172 -33.43310547 67.06201172 C-34.17560547 67.84576172 -34.91810547 68.62951172 -35.68310547 69.43701172 C-37.7668356 71.53261496 -39.66533899 72.93440315 -42.43310547 74.06201172 C-41.69060547 73.50513672 -40.94810547 72.94826172 -40.18310547 72.37451172 C-36.36873294 69.3078429 -33.13849765 66.05618835 -32.43310547 61.06201172 C-34.13879691 55.56850893 -37.93503081 50.63642907 -41.16357422 45.94482422 C-44.46771259 41.04453285 -43.84690022 35.8068622 -43.43310547 30.06201172 C-42.8031974 27.33363084 -42.02474363 24.75788041 -41.08935547 22.12060547 C-40.43310547 20.06201172 -40.43310547 20.06201172 -40.43310547 17.06201172 C-41.00158203 17.20638672 -41.57005859 17.35076172 -42.15576172 17.49951172 C-54.43090477 20.45046431 -63.16669968 18.08141548 -74.20654297 12.14794922 C-83.66384089 7.53544251 -95.87154064 8.85737288 -103.05810547 16.62451172 Z M-118.18310547 47.49951172 C-118.59560547 48.01513672 -119.00810547 48.53076172 -119.43310547 49.06201172 C-120.42310547 49.06201172 -121.41310547 49.06201172 -122.43310547 49.06201172 C-123.43310547 50.06201172 -123.43310547 50.06201172 -123.74560547 53.37451172 C-123.67807175 56.10962747 -123.43781478 57.05402636 -121.99560547 59.49951172 C-118.31470323 61.7439643 -114.64536491 61.92308133 -110.43310547 61.06201172 C-107.98051306 59.19336988 -107.00441588 57.66077494 -106.55810547 54.62451172 C-106.31164814 52.09028748 -106.41606121 51.10249183 -107.43310547 48.68701172 C-110.60645782 46.10866293 -114.79736966 44.71837159 -118.18310547 47.49951172 Z M-28.43310547 81.06201172 C-28.47564903 83.06155918 -28.4739133 85.06242808 -28.43310547 87.06201172 C-27.43310547 88.06201172 -27.43310547 88.06201172 -24.93310547 88.18701172 C-22.43310547 88.06201172 -22.43310547 88.06201172 -21.43310547 87.06201172 C-21.24560547 84.62451172 -21.24560547 84.62451172 -21.43310547 82.06201172 C-22.09310547 81.40201172 -22.75310547 80.74201172 -23.43310547 80.06201172 C-26.43310547 80.06201172 -26.43310547 80.06201172 -28.43310547 81.06201172 Z M-39.43310547 120.06201172 C-39.43310547 122.04201172 -39.43310547 124.02201172 -39.43310547 126.06201172 C-38.66224609 126.11099609 -37.89138672 126.15998047 -37.09716797 126.21044922 C-36.09427734 126.28521484 -35.09138672 126.35998047 -34.05810547 126.43701172 C-33.55923828 126.47181641 -33.55923828 126.47181641 -31.03466797 126.64794922 C-28.43310547 127.06201172 -28.43310547 127.06201172 -26.43310547 129.06201172 C-27.09205811 129.04630127 -27.75101074 129.03059082 -28.42993164 129.0144043 C-48.60140537 128.59699058 -67.09239156 129.75659581 -83.43310547 143.06201172 C-83.10310547 142.40201172 -82.77310547 141.74201172 -82.43310547 141.06201172 C-82.52012587 139.34967484 -82.67407709 137.64025766 -82.87060547 135.93701172 C-82.97244141 135.02693359 -83.07427734 134.11685547 -83.17919922 133.17919922 C-83.26298828 132.48052734 -83.34677734 131.78185547 -83.43310547 131.06201172 C-86.43310547 130.06201172 -86.43310547 130.06201172 -89.05810547 131.18701172 C-91.43310547 133.06201172 -91.43310547 133.06201172 -92.43310547 135.43701172 C-92.43310547 139.99803059 -90.1584728 142.29743534 -87.12060547 145.49951172 C-86.23373047 146.01513672 -85.34685547 146.53076172 -84.43310547 147.06201172 C-81.69482422 146.31201172 -81.69482422 146.31201172 -78.43310547 145.06201172 C-77.33297515 144.66350435 -76.23136925 144.26904991 -75.12841797 143.87841797 C-74.5530127 143.67450439 -73.97760742 143.47059082 -73.38476562 143.26049805 C-65.4023856 140.48128127 -57.47548393 138.76771615 -49.15283203 137.36621094 C-46.89392879 136.96663776 -44.66571869 136.46255813 -42.43310547 135.93701172 C-41.10026998 135.64307842 -39.76696085 135.35128156 -38.43310547 135.06201172 C-37.74990234 134.90216797 -37.06669922 134.74232422 -36.36279297 134.57763672 C-31.95082055 133.73885869 -29.09706683 134.00103928 -25.30419922 136.47998047 C-20.93414656 140.17491017 -16.00282409 144.92257447 -13.43310547 150.06201172 C-12.77310547 150.06201172 -12.11310547 150.06201172 -11.43310547 150.06201172 C-9.21285382 143.5400225 -7.76006895 136.77040462 -10.93310547 130.31201172 C-14.53345046 124.80935678 -21.1351411 121.39427341 -27.43310547 120.06201172 C-31.43937312 119.91267783 -35.4263876 119.9453112 -39.43310547 120.06201172 Z M-85.43310547 149.06201172 C-85.76310547 150.05201172 -86.09310547 151.04201172 -86.43310547 152.06201172 C-85.60810547 152.22701172 -85.60810547 152.22701172 -81.43310547 153.06201172 C-81.76310547 151.74201172 -82.09310547 150.42201172 -82.43310547 149.06201172 C-83.42310547 149.06201172 -84.41310547 149.06201172 -85.43310547 149.06201172 Z M-86.43310547 162.06201172 C-85.43310547 165.06201172 -85.43310547 165.06201172 -85.43310547 165.06201172 Z M-87.43310547 166.06201172 C-87.43310547 167.71201172 -87.43310547 169.36201172 -87.43310547 171.06201172 C-87.10310547 171.06201172 -86.77310547 171.06201172 -86.43310547 171.06201172 C-86.43310547 169.41201172 -86.43310547 167.76201172 -86.43310547 166.06201172 C-86.76310547 166.06201172 -87.09310547 166.06201172 -87.43310547 166.06201172 Z " fill="#8b1414" transform="translate(176.43310546875,47.93798828125)"/>
<path d="M0 0 C0 0.99 0 1.98 0 3 C-9.02662961 3.75785796 -17.93984517 4.13545082 -27 4 C-27 3.01 -27 2.02 -27 1 C-17.96910061 0.15991634 -9.06587867 -0.1223282 0 0 Z " fill="#8b1414" transform="translate(105,72)"/>
<path d="M0 0 C1.0725 0.165 2.145 0.33 3.25 0.5 C10.82491721 1.4401493 18.43384097 1.35247319 25.9765625 0.22265625 C29.96854226 -0.21661565 33.98980598 -0.0739585 38 0 C38 0.99 38 1.98 38 3 C11.39016575 6.0813975 11.39016575 6.0813975 0 3 C0 2.01 0 1.02 0 0 Z " fill="#8b1414" transform="translate(73,78)"/>
<path d="M0 0 C7.26 0 14.52 0 22 0 C22 0.99 22 1.98 22 3 C19.69 3.33 17.38 3.66 15 4 C16.98 4 18.96 4 21 4 C21 5.65 21 7.3 21 9 C22.65 8.34 24.3 7.68 26 7 C26 10.51716303 25.17554415 11.37121748 23 14 C24.32 13.34 25.64 12.68 27 12 C27 15 27 15 24.75 17.375 C24.29238281 17.80167969 23.83476563 18.22835937 23.36328125 18.66796875 C22 20 22 20 19.9375 22.6875 C17.50207208 25.59430106 15.94562215 26.72861494 12.1796875 27.25390625 C7.71094676 27.5172731 4.80008841 26.90207867 1.25390625 24.12890625 C-1.84820627 21.33603859 -2.88761045 19.8670051 -3.4375 15.625 C-3.25769147 11.64352544 -1.71333716 8.86917072 1 6 C3.25 4.625 3.25 4.625 5 4 C3.02 3.34 1.04 2.68 -1 2 C-0.67 1.34 -0.34 0.68 0 0 Z M5 7 C4.3125 9.0625 4.3125 9.0625 4 11 C2.68 11.33 1.36 11.66 0 12 C-0.49065421 18.37850467 -0.49065421 18.37850467 1.875 21.375 C5.34472697 24.02832062 7.69024984 24.33179318 11.9609375 24.29296875 C15.13134567 23.83745033 16.8192402 22.24684343 19 20 C20.44430855 17.11138291 20.37688506 15.20352299 20 12 C17.44165811 8.51135197 15.66413384 6.84440886 11.375 6.125 C8 6 8 6 5 7 Z " fill="#8b1414" transform="translate(90,87)"/>
<path d="M0 0 C2 1 2 1 2 1 Z " fill="#8b1414" transform="translate(113,89)"/>
<path d="M0 0 C0.825 0.33 0.825 0.33 5 2 C4.67 3.65 4.34 5.3 4 7 C2.68 6.67 1.36 6.34 0 6 C0 4 0 2 0 0 Z " fill="#8b1414" transform="translate(120,103)"/>
<path d="M0 0 C0.97650282 2.92950845 1.03620325 3.76118721 0.5 6.625 C0.4175 7.181875 0.4175 7.181875 0 10 C1 11 1 11 4.25 11.4375 C6.70670206 11.43243463 7.68157512 11.27101671 9.57421875 9.66015625 C10.81180724 8.15306425 11.94238243 6.6376014 13 5 C13.33 5.99 13.66 6.98 14 8 C12.25468863 11.2865339 9.79505698 14.36760575 6.21484375 15.62890625 C2.81107583 15.86081132 0.59914894 15.07815672 -2 12.875 C-3.9462837 10.6150061 -4 10.10864296 -4 6.9375 C-3.02622389 4.07703267 -1.98968147 2.24920514 0 0 Z " fill="#8b1414" transform="translate(72,114)"/>
<path d="M0 0 C2.97 0.33 5.94 0.66 9 1 C9 1.99 9 2.98 9 4 C6.03 3.67 3.06 3.34 0 3 C0 2.01 0 1.02 0 0 Z " fill="#8b1414" transform="translate(99,115)"/>
<path d="M0 0 C0.825 0.33 0.825 0.33 5 2 C5 2.99 5 3.98 5 5 C3.02 4.01 1.04 3.02 -1 2 C-0.67 1.34 -0.34 0.68 0 0 Z " fill="#8b1414" transform="translate(153,116)"/>
<path d="M0 0 C0.99 0.66 0.99 0.66 6 4 C5.34 4.66 4.68 5.32 4 6 C2.35 4.35 0.7 2.7 -1 1 C-0.67 0.67 -0.34 0.34 0 0 Z " fill="#8b1414" transform="translate(117,125)"/>
<path d="M0 0 C3.95587311 1.46513819 6.95484993 4.32993618 9 8 C8.67 8.99 8.34 9.98 8 11 C5.97812317 9.08453774 4.12780708 7.04676306 2.3125 4.9375 C2.09400391 4.68419922 2.09400391 4.68419922 0.98828125 3.40234375 C0 2 0 2 0 0 Z " fill="#8b1414" transform="translate(129,217)"/>
</g>
<path d="M0 0 C5.12157382 3.47130665 9.30119706 8.06102638 11.06689453 14.06201172 C11.39111328 16.03466797 11.39111328 16.03466797 11.56689453 18.06201172 C11.63521484 18.78259766 11.70353516 19.50318359 11.77392578 20.24560547 C12.06878716 26.54690225 11.25536379 33.02287255 6.94970703 37.89013672 C3.54552974 40.89983853 0.00142022 43.92676029 -4.68310547 44.18701172 C-5.26060547 44.14576172 -5.83810547 44.10451172 -6.43310547 44.06201172 C-6.45888672 44.72845703 -6.48466797 45.39490234 -6.51123047 46.08154297 C-6.90066396 52.40983721 -8.17928868 57.48996974 -10.52685547 63.35888672 C-11.4521431 66.11879637 -11.7596639 68.47803757 -11.93310547 71.37451172 C-12.25060602 76.15969855 -13.51928916 78.29119061 -16.43310547 82.06201172 C-16.97771851 83.11252124 -17.49923882 84.17536379 -17.99560547 85.24951172 C-20.33901357 89.8344406 -20.33901357 89.8344406 -22.43310547 91.06201172 C-25.15582213 90.99718513 -27.76439697 90.58814665 -30.43310547 90.06201172 C-38.59017462 106.88917324 -38.59017462 106.88917324 -38.43310547 116.06201172 C-37.77826172 116.07619141 -37.12341797 116.09037109 -36.44873047 116.10498047 C-26.39564395 116.63035363 -17.6848456 119.07863058 -10.74560547 126.68701172 C-6.41669511 131.93906445 -5.7955055 136.4247006 -6.43310547 143.06201172 C-7.12286343 145.45139429 -7.93171797 147.71862622 -8.87451172 150.01904297 C-9.92148854 153.84819597 -8.0747038 157.03700491 -6.40185547 160.46826172 C-6.00353516 161.29455078 -5.60521484 162.12083984 -5.19482422 162.97216797 C-4.98664063 163.39949219 -4.98664063 163.39949219 -3.93310547 165.56201172 C-3.10673332 167.25824929 -2.28368726 168.95611227 -1.46435547 170.65576172 C-1.09890625 171.40535156 -0.73345703 172.15494141 -0.35693359 172.92724609 C0.52418862 174.96332765 1.09872397 176.89764205 1.56689453 179.06201172 C0.57689453 179.06201172 -0.41310547 179.06201172 -1.43310547 179.06201172 C-1.83400391 178.16482422 -2.23490234 177.26763672 -2.64794922 176.34326172 C-17.18848045 144.24016899 -17.18848045 144.24016899 -27.37060547 137.99951172 C-32.56483798 136.40944054 -37.03311998 137.17140961 -41.80810547 139.68701172 C-42.67435547 140.14076172 -43.54060547 140.59451172 -44.43310547 141.06201172 C-45.09310547 140.73201172 -45.75310547 140.40201172 -46.43310547 140.06201172 C-49.07131427 140.3809816 -51.6353356 140.77231689 -54.24560547 141.24951172 C-55.00301025 141.38462158 -55.76041504 141.51973145 -56.54077148 141.65893555 C-62.52152437 142.77761491 -68.22595355 144.36575444 -73.99169922 146.29248047 C-76.43310547 147.06201172 -76.43310547 147.06201172 -78.43310547 147.06201172 C-78.40990234 147.58150391 -78.38669922 148.10099609 -78.36279297 148.63623047 C-78.25057281 152.97273807 -78.50157083 156.09163496 -80.43310547 160.06201172 C-82.30014938 164.14617027 -83.00428898 167.96667724 -83.55810547 172.37451172 C-83.64447266 173.0196875 -83.73083984 173.66486328 -83.81982422 174.32958984 C-84.0300524 175.90630118 -84.23239184 177.48406097 -84.43310547 179.06201172 C-85.42310547 179.06201172 -86.41310547 179.06201172 -87.43310547 179.06201172 C-88.42310547 179.39201172 -89.41310547 179.72201172 -90.43310547 180.06201172 C-90.76310547 179.73201172 -91.09310547 179.40201172 -91.43310547 179.06201172 C-91.36792008 177.01756102 -91.22989529 174.97527471 -91.05810547 172.93701172 C-91.00992676 172.34605713 -90.96174805 171.75510254 -90.91210938 171.14624023 C-90.65116491 168.07528703 -90.31364276 165.03938725 -89.80810547 161.99951172 C-89.43310547 159.06201172 -89.43310547 159.06201172 -89.96044922 157.15576172 C-90.65808057 154.06542779 -89.80585737 151.42541279 -89.10107422 148.37841797 C-89.58108333 145.02964851 -91.50209094 143.97285771 -94.11401367 141.99536133 C-94.54931396 141.68735596 -94.98461426 141.37935059 -95.43310547 141.06201172 C-102.59565217 153.12023529 -107.11696666 165.75102575 -111.43310547 179.06201172 C-112.42310547 179.06201172 -113.41310547 179.06201172 -114.43310547 179.06201172 C-111.85774619 163.0770231 -103.20679301 139.12588229 -89.95654297 128.92529297 C-88.55810547 128.06201172 -88.55810547 128.06201172 -86.43310547 127.06201172 C-87.59942312 120.00593066 -89.50506581 113.6585163 -92.24560547 107.06201172 C-92.59945312 106.19205566 -92.95330078 105.32209961 -93.31787109 104.42578125 C-95.52358877 99.06516412 -97.8614208 93.84256035 -100.62060547 88.74169922 C-101.43310547 87.06201172 -101.43310547 87.06201172 -101.43310547 85.06201172 C-102.00158203 85.03623047 -102.57005859 85.01044922 -103.15576172 84.98388672 C-109.35563327 84.52847044 -114.40704319 83.4474189 -118.68310547 78.66357422 C-121.70494836 74.10859045 -122.23241111 69.17820163 -122.84326172 63.83154297 C-123.48829738 60.80286559 -124.51020723 59.4332541 -126.43310547 57.06201172 C-127.09326172 55.24560547 -127.09326172 55.24560547 -127.49560547 53.49951172 C-128.09132034 50.95212147 -128.88232253 49.17905564 -130.43310547 47.06201172 C-129.44310547 47.06201172 -128.45310547 47.06201172 -127.43310547 47.06201172 C-127.59810547 46.56701172 -127.59810547 46.56701172 -128.43310547 44.06201172 C-128.10310547 43.07201172 -127.77310547 42.08201172 -127.43310547 41.06201172 C-126.11310547 42.05201172 -124.79310547 43.04201172 -123.43310547 44.06201172 C-123.43310547 42.41201172 -123.43310547 40.76201172 -123.43310547 39.06201172 C-122.44310547 39.06201172 -121.45310547 39.06201172 -120.43310547 39.06201172 C-120.10310547 39.72201172 -119.77310547 40.38201172 -119.43310547 41.06201172 C-119.26875 40.62630859 -119.26875 40.62630859 -118.43701172 38.42138672 C-114.7474438 29.04456232 -110.08924605 20.50817956 -102.74951172 13.44091797 C-100.90908087 11.51310761 -100.32330301 9.46138853 -99.47216797 6.97607422 C-97.22601192 2.83841833 -94.40754394 0.1489795 -89.96435547 -1.30126953 C-88.62721133 -1.64452238 -87.28259383 -1.95952758 -85.93310547 -2.25048828 C-85.20043457 -2.41291016 -84.46776367 -2.57533203 -83.71289062 -2.74267578 C-70.2384649 -5.42572395 -56.55296668 -5.12710989 -43.46435547 -0.91064453 C-38.20436816 0.77716068 -38.20436816 0.77716068 -35.43310547 1.06201172 C-34.18588283 -0.11956763 -32.94532909 -1.31259922 -31.79248047 -2.58642578 C-22.795751 -11.53144991 -9.17699519 -5.59119389 0 0 Z M-33.43310547 2.06201172 C-33.43310547 2.72201172 -33.43310547 3.38201172 -33.43310547 4.06201172 C-31.59716797 5.25341797 -31.59716797 5.25341797 -29.05810547 6.62451172 C-19.98007137 11.92432992 -11.83886075 18.22933861 -8.99316406 28.67724609 C-8.02705393 32.45036794 -7.20133515 36.24414299 -6.43310547 40.06201172 C-5.77310547 40.06201172 -5.11310547 40.06201172 -4.43310547 40.06201172 C-4.14435547 39.42263672 -3.85560547 38.78326172 -3.55810547 38.12451172 C-2.43310547 36.06201172 -2.43310547 36.06201172 -0.43310547 35.06201172 C-0.76310547 36.71201172 -1.09310547 38.36201172 -1.43310547 40.06201172 C-0.96904297 39.86607422 -0.96904297 39.86607422 1.37939453 38.87451172 C1.90146484 38.65408203 2.42353516 38.43365234 2.96142578 38.20654297 C6.22184179 35.88220747 7.40749774 32.88787968 8.14892578 29.04638672 C9.26519698 13.3807503 9.26519698 13.3807503 4.39892578 7.04638672 C1.63486158 3.87540194 -1.35027246 2.04199907 -5.12060547 0.24951172 C-5.73564941 -0.04745605 -6.35069336 -0.34442383 -6.984375 -0.65039062 C-15.82330874 -4.71413588 -26.4659184 -6.20486468 -33.43310547 2.06201172 Z M-76.43310547 -0.93798828 C-73.60719489 1.08173159 -70.74755481 2.0308497 -67.43310547 3.06201172 C-70.59710232 4.11667734 -70.93684658 4.08981303 -73.87060547 3.12451172 C-80.04916675 1.45401182 -87.36500397 0.53657923 -93.21435547 3.44482422 C-95.56306079 5.15673268 -96.41416218 6.37570669 -97.43310547 9.06201172 C-97.05154297 8.97951172 -97.05154297 8.97951172 -95.12060547 8.56201172 C-84.87356769 6.94659635 -77.37572511 8.58464377 -68.19482422 13.18310547 C-58.25617553 18.00237916 -50.26017012 17.52995523 -40.08544922 14.06982422 C-37.43310547 13.06201172 -37.43310547 13.06201172 -35.43310547 12.06201172 C-35.61486328 12.54444336 -35.79662109 13.026875 -35.98388672 13.52392578 C-44.23248338 35.76341141 -44.23248338 35.76341141 -40.21435547 44.80419922 C-38.74106236 47.33736136 -37.15996033 49.69605126 -35.43310547 52.06201172 C-32.99402041 55.61901076 -30.879786 58.96308355 -29.43310547 63.06201172 C-28.89685547 62.73201172 -28.36060547 62.40201172 -27.80810547 62.06201172 C-24.74569408 60.77257534 -22.73371108 60.65785593 -19.43310547 61.06201172 C-17.49763506 62.22430465 -16.09334057 63.4994375 -14.43310547 65.06201172 C-8.15636682 54.79098483 -8.36473871 41.23236067 -10.68701172 29.76513672 C-13.36830572 20.05071029 -19.36741825 13.91580771 -27.94482422 8.99169922 C-43.87405625 0.30973898 -58.44578903 -1.6597016 -76.43310547 -0.93798828 Z M-103.05810547 16.62451172 C-107.41027993 22.02480158 -112.06884233 28.14551489 -113.43310547 35.06201172 C-112.93939453 35.25537109 -112.44568359 35.44873047 -111.93701172 35.64794922 C-111.29634766 35.90833984 -110.65568359 36.16873047 -109.99560547 36.43701172 C-109.6765625 36.56462891 -109.6765625 36.56462891 -108.06201172 37.21044922 C-106.43310547 38.06201172 -106.43310547 38.06201172 -105.43310547 40.06201172 C-105.79404297 39.88669922 -105.79404297 39.88669922 -107.62060547 38.99951172 C-110.74537597 37.95792155 -112.31472543 38.17104599 -115.43310547 39.06201172 C-115.76310547 40.38201172 -116.09310547 41.70201172 -116.43310547 43.06201172 C-116.16755859 43.14128906 -116.16755859 43.14128906 -114.82373047 43.54248047 C-110.07814759 45.10990839 -106.85959707 46.42002779 -104.43310547 51.06201172 C-104.07536016 54.31153158 -104.62020435 56.88782122 -106.48779297 59.58544922 C-108.92159832 62.20065622 -110.95891801 63.4416211 -114.43310547 64.06201172 C-114.76310547 64.72201172 -115.09310547 65.38201172 -115.43310547 66.06201172 C-117.49560547 67.18701172 -117.49560547 67.18701172 -119.43310547 68.06201172 C-117.92522563 73.79931061 -116.82372107 77.90652942 -111.43310547 81.06201172 C-99.10534277 84.90268724 -84.15242615 83.17431216 -71.43310547 83.06201172 C-72.09310547 81.41201172 -72.75310547 79.76201172 -73.43310547 78.06201172 C-70.91415074 80.51099548 -68.61731664 82.81837759 -66.49560547 85.62451172 C-64.0500779 88.51468067 -61.64757869 90.08949406 -58.43310547 92.06201172 C-59.42310547 92.06201172 -60.41310547 92.06201172 -61.43310547 92.06201172 C-62.37840548 91.11653161 -63.28033935 90.12722404 -64.15576172 89.11669922 C-69.6141165 84.2313209 -76.96618995 85.17089685 -83.87060547 85.18701172 C-85.28405396 85.16886358 -86.69747092 85.14805424 -88.11083984 85.12451172 C-91.55199697 85.07294009 -94.99158339 85.05756079 -98.43310547 85.06201172 C-97.32027666 88.526746 -96.1580831 91.84406327 -94.55029297 95.10888672 C-88.03211016 108.73316113 -83.57359632 122.57798345 -79.43310547 137.06201172 C-76.5689556 135.92322745 -73.71399144 134.77155148 -70.88232422 133.55419922 C-70.26679687 133.28994141 -69.65126953 133.02568359 -69.01708984 132.75341797 C-68.39125 132.48400391 -67.76541016 132.21458984 -67.12060547 131.93701172 C-66.79801758 131.7984375 -66.79801758 131.7984375 -65.16552734 131.09716797 C-63.58781542 130.41933618 -62.01042721 129.74075098 -60.43310547 129.06201172 C-60.76310547 127.08201172 -61.09310547 125.10201172 -61.43310547 123.06201172 C-58.92227433 124.31742729 -58.56185101 125.5626466 -57.43310547 128.06201172 C-56.44310547 127.40201172 -55.45310547 126.74201172 -54.43310547 126.06201172 C-54.59810547 124.57701172 -54.59810547 124.57701172 -55.43310547 117.06201172 C-52.87704468 120.89610291 -53.26347028 122.56667932 -53.43310547 127.06201172 C-49.80310547 126.73201172 -46.17310547 126.40201172 -42.43310547 126.06201172 C-42.40732422 125.13001953 -42.38154297 124.19802734 -42.35498047 123.23779297 C-41.86233804 110.7619119 -39.30763765 100.41599228 -32.70263672 89.59716797 C-31.27436924 86.74502769 -30.91765975 84.19633581 -30.43310547 81.06201172 C-28.68310547 79.12451172 -28.68310547 79.12451172 -26.43310547 78.06201172 C-23.93310547 78.31201172 -23.93310547 78.31201172 -21.43310547 79.06201172 C-21.05154297 79.15482422 -21.05154297 79.15482422 -19.12060547 79.62451172 C-18.56373047 79.76888672 -18.00685547 79.91326172 -17.43310547 80.06201172 C-15.19456659 76.56429472 -14.81708408 73.11144646 -15.43310547 69.06201172 C-16.58950352 66.74921561 -17.60720375 64.88791344 -19.43310547 63.06201172 C-24.75156389 62.59953707 -24.75156389 62.59953707 -27.18310547 64.24951172 C-28.67581356 66.41393845 -29.56362065 68.58732417 -30.43310547 71.06201172 C-31.42310547 69.74201172 -32.41310547 68.42201172 -33.43310547 67.06201172 C-34.17560547 67.84576172 -34.91810547 68.62951172 -35.68310547 69.43701172 C-37.7668356 71.53261496 -39.66533899 72.93440315 -42.43310547 74.06201172 C-41.69060547 73.50513672 -40.94810547 72.94826172 -40.18310547 72.37451172 C-36.36873294 69.3078429 -33.13849765 66.05618835 -32.43310547 61.06201172 C-34.13879691 55.56850893 -37.93503081 50.63642907 -41.16357422 45.94482422 C-44.46771259 41.04453285 -43.84690022 35.8068622 -43.43310547 30.06201172 C-42.8031974 27.33363084 -42.02474363 24.75788041 -41.08935547 22.12060547 C-40.43310547 20.06201172 -40.43310547 20.06201172 -40.43310547 17.06201172 C-41.00158203 17.20638672 -41.57005859 17.35076172 -42.15576172 17.49951172 C-54.43090477 20.45046431 -63.16669968 18.08141548 -74.20654297 12.14794922 C-83.66384089 7.53544251 -95.87154064 8.85737288 -103.05810547 16.62451172 Z M-118.18310547 47.49951172 C-118.59560547 48.01513672 -119.00810547 48.53076172 -119.43310547 49.06201172 C-120.42310547 49.06201172 -121.41310547 49.06201172 -122.43310547 49.06201172 C-123.43310547 50.06201172 -123.43310547 50.06201172 -123.74560547 53.37451172 C-123.67807175 56.10962747 -123.43781478 57.05402636 -121.99560547 59.49951172 C-118.31470323 61.7439643 -114.64536491 61.92308133 -110.43310547 61.06201172 C-107.98051306 59.19336988 -107.00441588 57.66077494 -106.55810547 54.62451172 C-106.31164814 52.09028748 -106.41606121 51.10249183 -107.43310547 48.68701172 C-110.60645782 46.10866293 -114.79736966 44.71837159 -118.18310547 47.49951172 Z M-28.43310547 81.06201172 C-28.47564903 83.06155918 -28.4739133 85.06242808 -28.43310547 87.06201172 C-27.43310547 88.06201172 -27.43310547 88.06201172 -24.93310547 88.18701172 C-22.43310547 88.06201172 -22.43310547 88.06201172 -21.43310547 87.06201172 C-21.24560547 84.62451172 -21.24560547 84.62451172 -21.43310547 82.06201172 C-22.09310547 81.40201172 -22.75310547 80.74201172 -23.43310547 80.06201172 C-26.43310547 80.06201172 -26.43310547 80.06201172 -28.43310547 81.06201172 Z M-39.43310547 120.06201172 C-39.43310547 122.04201172 -39.43310547 124.02201172 -39.43310547 126.06201172 C-38.66224609 126.11099609 -37.89138672 126.15998047 -37.09716797 126.21044922 C-36.09427734 126.28521484 -35.09138672 126.35998047 -34.05810547 126.43701172 C-33.55923828 126.47181641 -33.55923828 126.47181641 -31.03466797 126.64794922 C-28.43310547 127.06201172 -28.43310547 127.06201172 -26.43310547 129.06201172 C-27.09205811 129.04630127 -27.75101074 129.03059082 -28.42993164 129.0144043 C-48.60140537 128.59699058 -67.09239156 129.75659581 -83.43310547 143.06201172 C-83.10310547 142.40201172 -82.77310547 141.74201172 -82.43310547 141.06201172 C-82.52012587 139.34967484 -82.67407709 137.64025766 -82.87060547 135.93701172 C-82.97244141 135.02693359 -83.07427734 134.11685547 -83.17919922 133.17919922 C-83.26298828 132.48052734 -83.34677734 131.78185547 -83.43310547 131.06201172 C-86.43310547 130.06201172 -86.43310547 130.06201172 -89.05810547 131.18701172 C-91.43310547 133.06201172 -91.43310547 133.06201172 -92.43310547 135.43701172 C-92.43310547 139.99803059 -90.1584728 142.29743534 -87.12060547 145.49951172 C-86.23373047 146.01513672 -85.34685547 146.53076172 -84.43310547 147.06201172 C-81.69482422 146.31201172 -81.69482422 146.31201172 -78.43310547 145.06201172 C-77.33297515 144.66350435 -76.23136925 144.26904991 -75.12841797 143.87841797 C-74.5530127 143.67450439 -73.97760742 143.47059082 -73.38476562 143.26049805 C-65.4023856 140.48128127 -57.47548393 138.76771615 -49.15283203 137.36621094 C-46.89392879 136.96663776 -44.66571869 136.46255813 -42.43310547 135.93701172 C-41.10026998 135.64307842 -39.76696085 135.35128156 -38.43310547 135.06201172 C-37.74990234 134.90216797 -37.06669922 134.74232422 -36.36279297 134.57763672 C-31.95082055 133.73885869 -29.09706683 134.00103928 -25.30419922 136.47998047 C-20.93414656 140.17491017 -16.00282409 144.92257447 -13.43310547 150.06201172 C-12.77310547 150.06201172 -12.11310547 150.06201172 -11.43310547 150.06201172 C-9.21285382 143.5400225 -7.76006895 136.77040462 -10.93310547 130.31201172 C-14.53345046 124.80935678 -21.1351411 121.39427341 -27.43310547 120.06201172 C-31.43937312 119.91267783 -35.4263876 119.9453112 -39.43310547 120.06201172 Z M-85.43310547 149.06201172 C-85.76310547 150.05201172 -86.09310547 151.04201172 -86.43310547 152.06201172 C-85.60810547 152.22701172 -85.60810547 152.22701172 -81.43310547 153.06201172 C-81.76310547 151.74201172 -82.09310547 150.42201172 -82.43310547 149.06201172 C-83.42310547 149.06201172 -84.41310547 149.06201172 -85.43310547 149.06201172 Z M-86.43310547 162.06201172 C-85.43310547 165.06201172 -85.43310547 165.06201172 -85.43310547 165.06201172 Z M-87.43310547 166.06201172 C-87.43310547 167.71201172 -87.43310547 169.36201172 -87.43310547 171.06201172 C-87.10310547 171.06201172 -86.77310547 171.06201172 -86.43310547 171.06201172 C-86.43310547 169.41201172 -86.43310547 167.76201172 -86.43310547 166.06201172 C-86.76310547 166.06201172 -87.09310547 166.06201172 -87.43310547 166.06201172 Z " fill="#c81e1e" transform="translate(176.43310546875,47.93798828125)"/>
<path d="M0 0 C0 0.99 0 1.98 0 3 C-9.02662961 3.75785796 -17.93984517 4.13545082 -27 4 C-27 3.01 -27 2.02 -27 1 C-17.96910061 0.15991634 -9.06587867 -0.1223282 0 0 Z " fill="#c81e1e" transform="translate(105,72)"/>
<path d="M0 0 C1.0725 0.165 2.145 0.33 3.25 0.5 C10.82491721 1.4401493 18.43384097 1.35247319 25.9765625 0.22265625 C29.96854226 -0.21661565 33.98980598 -0.0739585 38 0 C38 0.99 38 1.98 38 3 C11.39016575 6.0813975 11.39016575 6.0813975 0 3 C0 2.01 0 1.02 0 0 Z " fill="#c81e1e" transform="translate(73,78)"/>
<path d="M0 0 C7.26 0 14.52 0 22 0 C22 0.99 22 1.98 22 3 C19.69 3.33 17.38 3.66 15 4 C16.98 4 18.96 4 21 4 C21 5.65 21 7.3 21 9 C22.65 8.34 24.3 7.68 26 7 C26 10.51716303 25.17554415 11.37121748 23 14 C24.32 13.34 25.64 12.68 27 12 C27 15 27 15 24.75 17.375 C24.29238281 17.80167969 23.83476563 18.22835937 23.36328125 18.66796875 C22 20 22 20 19.9375 22.6875 C17.50207208 25.59430106 15.94562215 26.72861494 12.1796875 27.25390625 C7.71094676 27.5172731 4.80008841 26.90207867 1.25390625 24.12890625 C-1.84820627 21.33603859 -2.88761045 19.8670051 -3.4375 15.625 C-3.25769147 11.64352544 -1.71333716 8.86917072 1 6 C3.25 4.625 3.25 4.625 5 4 C3.02 3.34 1.04 2.68 -1 2 C-0.67 1.34 -0.34 0.68 0 0 Z M5 7 C4.3125 9.0625 4.3125 9.0625 4 11 C2.68 11.33 1.36 11.66 0 12 C-0.49065421 18.37850467 -0.49065421 18.37850467 1.875 21.375 C5.34472697 24.02832062 7.69024984 24.33179318 11.9609375 24.29296875 C15.13134567 23.83745033 16.8192402 22.24684343 19 20 C20.44430855 17.11138291 20.37688506 15.20352299 20 12 C17.44165811 8.51135197 15.66413384 6.84440886 11.375 6.125 C8 6 8 6 5 7 Z " fill="#c81e1e" transform="translate(90,87)"/>
<path d="M0 0 C2 1 2 1 2 1 Z " fill="#c81e1e" transform="translate(113,89)"/>
<path d="M0 0 C0.825 0.33 0.825 0.33 5 2 C4.67 3.65 4.34 5.3 4 7 C2.68 6.67 1.36 6.34 0 6 C0 4 0 2 0 0 Z " fill="#c81e1e" transform="translate(120,103)"/>
<path d="M0 0 C0.97650282 2.92950845 1.03620325 3.76118721 0.5 6.625 C0.4175 7.181875 0.4175 7.181875 0 10 C1 11 1 11 4.25 11.4375 C6.70670206 11.43243463 7.68157512 11.27101671 9.57421875 9.66015625 C10.81180724 8.15306425 11.94238243 6.6376014 13 5 C13.33 5.99 13.66 6.98 14 8 C12.25468863 11.2865339 9.79505698 14.36760575 6.21484375 15.62890625 C2.81107583 15.86081132 0.59914894 15.07815672 -2 12.875 C-3.9462837 10.6150061 -4 10.10864296 -4 6.9375 C-3.02622389 4.07703267 -1.98968147 2.24920514 0 0 Z " fill="#c81e1e" transform="translate(72,114)"/>
<path d="M0 0 C2.97 0.33 5.94 0.66 9 1 C9 1.99 9 2.98 9 4 C6.03 3.67 3.06 3.34 0 3 C0 2.01 0 1.02 0 0 Z " fill="#c81e1e" transform="translate(99,115)"/>
<path d="M0 0 C0.825 0.33 0.825 0.33 5 2 C5 2.99 5 3.98 5 5 C3.02 4.01 1.04 3.02 -1 2 C-0.67 1.34 -0.34 0.68 0 0 Z " fill="#c81e1e" transform="translate(153,116)"/>
<path d="M0 0 C0.99 0.66 0.99 0.66 6 4 C5.34 4.66 4.68 5.32 4 6 C2.35 4.35 0.7 2.7 -1 1 C-0.67 0.67 -0.34 0.34 0 0 Z " fill="#c81e1e" transform="translate(117,125)"/>
<path d="M0 0 C3.95587311 1.46513819 6.95484993 4.32993618 9 8 C8.67 8.99 8.34 9.98 8 11 C5.97812317 9.08453774 4.12780708 7.04676306 2.3125 4.9375 C2.09400391 4.68419922 2.09400391 4.68419922 0.98828125 3.40234375 C0 2 0 2 0 0 Z " fill="#c81e1e" transform="translate(129,217)"/>
</g>
</svg>
