<?xml version="1.0" encoding="UTF-8"?>
<!-- Generator: visioncortex VTracer 0.6.12 -->
<svg version="1.1" xmlns="http://www.w3.org/2000/svg" width="229" height="229" viewBox="0 0 229 229">
<g transform="translate(45.8,45.8) scale(0.6)">
<path d="M0 0 C1.51226332 1.19468803 2.99940546 2.42222559 4.453125 3.6875 C11.93604942 9.94147698 20.97994905 13.58639575 30.59375 14.4765625 C30.92375 15.1365625 31.25375 15.7965625 31.59375 16.4765625 C33.65625 17.6015625 33.65625 17.6015625 35.59375 18.4765625 C34.93375 20.1265625 34.27375 21.7765625 33.59375 23.4765625 C32.93375 23.4765625 32.27375 23.4765625 31.59375 23.4765625 C31.99207031 24.28738281 32.39039063 25.09820312 32.80078125 25.93359375 C39.0591868 38.8982794 41.28111681 51.21198674 42.59375 65.4765625 C42.90570313 65.53457031 42.90570313 65.53457031 44.484375 65.828125 C46.59375 66.4765625 46.59375 66.4765625 48.34375 68.8515625 C50.38227786 73.47745264 50.15888335 78.5410646 49.59375 83.4765625 C48.28125 86.4765625 48.28125 86.4765625 46.59375 88.4765625 C46.09875 89.0746875 45.60375 89.6728125 45.09375 90.2890625 C43.59375 91.4765625 43.59375 91.4765625 40.59375 91.4765625 C40.65433594 92.1250415 40.71492187 92.77352051 40.77734375 93.44165039 C41.91597489 105.80784146 42.95212374 118.05293948 42.59375 130.4765625 C43.20347656 130.75371094 43.81320313 131.03085938 44.44140625 131.31640625 C49.7416728 134.17335574 52.35376171 139.68689594 55.09765625 144.82421875 C56.86044158 147.94936559 58.81021453 150.91788517 60.78125 153.9140625 C83.59375 189.06114452 83.59375 189.06114452 83.59375 201.4765625 C82.27375 201.4765625 80.95375 201.4765625 79.59375 201.4765625 C79.2534375 200.5071875 78.913125 199.5378125 78.5625 198.5390625 C65.66157189 162.54438439 65.66157189 162.54438439 54.59375 151.4765625 C54.58907715 151.86251587 54.58907715 151.86251587 54.56542969 153.81567383 C54.52136947 156.68455541 54.45974541 159.5519465 54.38623047 162.42016602 C54.35803542 163.66058594 54.33681331 164.90118504 54.32275391 166.1418457 C54.30129999 167.92752699 54.25465277 169.71105803 54.203125 171.49609375 C54.18217773 172.56964111 54.16123047 173.64318848 54.13964844 174.74926758 C53.59375 177.4765625 53.59375 177.4765625 51.68945312 179.33203125 C48.32845935 181.16757864 45.30504146 180.66212707 41.59375 180.4765625 C42.39941406 181.18941406 43.20507812 181.90226563 44.03515625 182.63671875 C45.07655083 183.60305786 46.11685942 184.57056823 47.15625 185.5390625 C47.68927734 186.00505859 48.22230469 186.47105469 48.77148438 186.95117188 C52.50677056 190.4936691 52.50677056 190.4936691 52.75878906 193.34155273 C52.41024717 196.08756495 51.82553742 198.14995296 50.21875 200.4140625 C48.59375 201.4765625 48.59375 201.4765625 45.59375 201.4765625 C45.903125 200.9196875 46.2125 200.3628125 46.53125 199.7890625 C47.73566077 197.16769788 48.52291471 195.38080959 48.59375 192.4765625 C46.97531456 190.55467041 45.48182087 189.09556047 43.59375 187.4765625 C42.28747761 186.30514819 40.99606026 185.11699123 39.71875 183.9140625 C39.10257813 183.35589844 38.48640625 182.79773438 37.8515625 182.22265625 C36.59375 180.4765625 36.59375 180.4765625 36.8984375 178.26171875 C37.12789062 177.67261719 37.35734375 177.08351562 37.59375 176.4765625 C41.97227796 175.28241851 45.19329351 175.77684327 49.59375 176.4765625 C49.62328103 172.87241365 49.64072407 169.26829674 49.65625 165.6640625 C49.66462891 164.65923828 49.67300781 163.65441406 49.68164062 162.61914062 C49.74423135 143.15342381 49.74423135 143.15342381 45.59375 136.4765625 C45.42359375 137.52972656 45.2534375 138.58289063 45.078125 139.66796875 C44.83370917 141.12506309 44.5888953 142.58209071 44.34375 144.0390625 C44.23417969 144.72419922 44.12460938 145.40933594 44.01171875 146.11523438 C41.76724992 159.2867225 37.70266415 171.42253646 32.46875 183.6640625 C31.92492073 184.95862322 31.38194931 186.25354465 30.83984375 187.54882812 C26.69849678 197.40100738 26.69849678 197.40100738 24.59375 201.4765625 C23.60375 201.4765625 22.61375 201.4765625 21.59375 201.4765625 C22.2798657 197.28889079 23.59650179 193.58309373 25.15625 189.6640625 C25.39021484 189.06658203 25.62417969 188.46910156 25.86523438 187.85351562 C26.43772416 186.39308251 27.0152253 184.93461552 27.59375 183.4765625 C26.85125 183.39792969 26.10875 183.31929687 25.34375 183.23828125 C21.92671682 182.29180189 20.84103236 180.99395679 18.59375 178.2890625 C17.913125 177.48210937 17.2325 176.67515625 16.53125 175.84375 C15.891875 175.06257812 15.2525 174.28140625 14.59375 173.4765625 C14.0575 172.83976563 13.52125 172.20296875 12.96875 171.546875 C11.83345237 170.19870907 10.71174128 168.83911437 9.59375 167.4765625 C10.91375 167.1465625 12.23375 166.8165625 13.59375 166.4765625 C20.44570336 174.23312768 20.44570336 174.23312768 22.90625 177.4140625 C24.59375 179.4765625 24.59375 179.4765625 26.59375 180.4765625 C26.83222656 179.83460938 27.07070312 179.19265625 27.31640625 178.53125 C28.345902 176.06927546 29.44708 173.73560419 30.65234375 171.359375 C36.31988316 160.09548152 40.9545555 149.32123843 40.59375 136.4765625 C40.36300781 136.77949219 40.36300781 136.77949219 39.1953125 138.3125 C31.64021059 148.01767044 23.36778951 156.0171672 13.64404297 163.50708008 C5.79211469 169.58644472 -0.21142117 175.9759335 -5.40625 184.4765625 C-4.74625 184.8065625 -4.74625 184.8065625 -1.40625 186.4765625 C-1.73625 187.7965625 -2.06625 189.1165625 -2.40625 190.4765625 C-3.72625 190.8065625 -5.04625 191.1365625 -6.40625 191.4765625 C-7.06625 194.7765625 -7.72625 198.0765625 -8.40625 201.4765625 C-9.39625 201.4765625 -10.38625 201.4765625 -11.40625 201.4765625 C-11.75158487 189.62006529 -11.75158487 189.62006529 -10.34375 186.0390625 C-9.20614189 182.92960033 -9.47480711 181.62550139 -10.40625 178.4765625 C-11.9296875 176.30859375 -11.9296875 176.30859375 -13.78125 174.2890625 C-14.38710937 173.61488281 -14.99296875 172.94070312 -15.6171875 172.24609375 C-17.14996741 170.73004725 -18.56491539 169.5779743 -20.40625 168.4765625 C-26.0112254 170.84758807 -28.57635565 173.76333782 -32.06054688 178.625 C-33.91676721 181.07798034 -35.13364377 182.37779794 -38.05859375 183.4375 C-38.83332031 183.45039063 -39.60804687 183.46328125 -40.40625 183.4765625 C-40.73625 183.1465625 -40.73625 183.1465625 -42.40625 181.4765625 C-40.71668049 186.75054583 -38.61928569 191.77921945 -36.4296875 196.8671875 C-35.40625 199.4765625 -35.40625 199.4765625 -35.40625 201.4765625 C-37.24902344 201.28051758 -37.24902344 201.28051758 -39.40625 200.4765625 C-40.74316406 198.38549805 -40.74316406 198.38549805 -41.921875 195.61328125 C-42.3645874 194.59097412 -42.8072998 193.56866699 -43.26342773 192.51538086 C-43.72840767 191.39856835 -44.19266535 190.28145491 -44.65625 189.1640625 C-45.14107186 188.02246962 -45.62683917 186.88127782 -46.11352539 185.74047852 C-47.33489886 182.86534727 -48.53615009 179.98226152 -49.73199463 177.09643555 C-50.7286891 174.70191475 -51.74726944 172.31673008 -52.76171875 169.9296875 C-56.9409629 159.94625564 -60.15833267 150.06543625 -62.40625 139.4765625 C-65.36140304 143.55651428 -65.81549089 146.84795505 -65.69921875 151.74609375 C-65.69709633 152.08659508 -65.69709633 152.08659508 -65.68635559 153.80973816 C-65.6696561 155.96992709 -65.63202312 158.12915892 -65.59375 160.2890625 C-65.57869174 161.75975208 -65.56500534 163.23045639 -65.55273438 164.70117188 C-65.51978161 168.2933336 -65.46806241 171.88478617 -65.40625 175.4765625 C-61.77625 174.4865625 -58.14625 173.4965625 -54.40625 172.4765625 C-54.07625 172.8065625 -54.07625 172.8065625 -52.40625 174.4765625 C-52.64809785 178.78714479 -54.19210175 180.71609436 -57.28125 183.6015625 C-57.97992188 184.26414063 -58.67859375 184.92671875 -59.3984375 185.609375 C-60.06101563 186.22554687 -60.72359375 186.84171875 -61.40625 187.4765625 C-62.41070428 188.47208829 -63.41251941 189.47033215 -64.40625 190.4765625 C-62.93620079 194.64170192 -60.91529389 197.88026626 -58.40625 201.4765625 C-60.19921875 201.703125 -60.19921875 201.703125 -62.40625 201.4765625 C-64.14453125 199.9375 -64.14453125 199.9375 -65.71875 197.8515625 C-66.25113281 197.17867187 -66.78351563 196.50578125 -67.33203125 195.8125 C-68.84430006 192.52400274 -68.54075607 190.89753465 -67.40625 187.4765625 C-65.76663977 185.41218462 -63.87098141 183.77700219 -61.84375 182.1015625 C-61.32361328 181.65167969 -60.80347656 181.20179688 -60.26757812 180.73828125 C-58.99165089 179.63794033 -57.70041762 178.55539086 -56.40625 177.4765625 C-57.09332031 177.59515625 -57.78039062 177.71375 -58.48828125 177.8359375 C-59.38933594 177.96484375 -60.29039063 178.09375 -61.21875 178.2265625 C-62.11207031 178.36578125 -63.00539062 178.505 -63.92578125 178.6484375 C-66.40625 178.4765625 -66.40625 178.4765625 -68.02929688 176.83203125 C-69.72777876 173.92654309 -69.83241449 171.97091433 -69.91796875 168.6171875 C-69.95341797 167.50214844 -69.98886719 166.38710937 -70.02539062 165.23828125 C-70.04848745 164.06771442 -70.07126997 162.89714134 -70.09375 161.7265625 C-70.12694386 160.54032716 -70.16143545 159.35412738 -70.19726562 158.16796875 C-70.27970173 155.27092861 -70.34886811 152.37418952 -70.40625 149.4765625 C-73.33674538 154.14274594 -76.25603589 158.81574348 -79.16699219 163.49414062 C-80.16670304 165.09336288 -81.17904397 166.68468582 -82.1953125 168.2734375 C-88.65847097 178.57301623 -92.80538221 189.91142242 -96.40625 201.4765625 C-97.72625 201.4765625 -99.04625 201.4765625 -100.40625 201.4765625 C-97.29432928 187.48773791 -91.09046365 174.51417588 -83.40625 162.4765625 C-83.0256543 161.87956543 -82.64505859 161.28256836 -82.25292969 160.66748047 C-77.04712206 152.5651929 -71.57168169 144.88046518 -65.40625 137.4765625 C-64.06014064 135.82019746 -62.72563197 134.15429513 -61.40625 132.4765625 C-61.0357251 132.08001465 -60.6652002 131.6834668 -60.28344727 131.27490234 C-58.87347852 128.38432907 -59.29456233 125.42116059 -59.47265625 122.2890625 C-59.50801987 121.59014893 -59.54338348 120.89123535 -59.57981873 120.17114258 C-59.6591088 118.69482457 -59.74438327 117.21881753 -59.83520508 115.74316406 C-59.96822059 113.48554791 -60.06393327 111.22827291 -60.15820312 108.96875 C-60.23990174 107.53372221 -60.32381248 106.09881829 -60.41015625 104.6640625 C-60.43437149 103.98899658 -60.45858673 103.31393066 -60.48353577 102.6184082 C-60.62329102 100.70703125 -60.62329102 100.70703125 -61.40625 97.4765625 C-63.85913086 95.65234375 -63.85913086 95.65234375 -66.40625 94.4765625 C-69.92677067 90.45311031 -70.60917157 86.92569132 -70.78125 81.6640625 C-70.83023438 80.64699219 -70.87921875 79.62992187 -70.9296875 78.58203125 C-70.36931188 75.25741467 -70.15274058 75.04879036 -67.88671875 72.9140625 C-64.34317759 69.05804086 -65.01393374 64.87352376 -65.16210938 59.88867188 C-65.22001342 58.68867164 -65.28057191 57.48879662 -65.34375 56.2890625 C-65.91066152 45.04814932 -64.97036347 34.42902591 -57.40625 25.4765625 C-56.87515625 24.82945313 -56.3440625 24.18234375 -55.796875 23.515625 C-51.17080173 18.37341959 -46.76944654 16.20347974 -40.34765625 13.81640625 C-36.41320325 12.0242185 -33.84940976 9.44780037 -30.765625 6.4765625 C-22.74439249 -0.32289288 -9.80826712 -6.20977951 0 0 Z M-34.40625 13.4765625 C-34.73625 14.1365625 -35.06625 14.7965625 -35.40625 15.4765625 C-36.96875 16.6015625 -36.96875 16.6015625 -38.40625 17.4765625 C-32.01419144 16.75293323 -25.72597924 15.67312888 -19.40625 14.4765625 C-19.07625 13.1565625 -18.74625 11.8365625 -18.40625 10.4765625 C-12.33067859 9.05462026 -7.95152513 9.51800463 -2.40625 12.4765625 C1.99241408 15.5400503 6.12515747 18.95166199 10.22436523 22.40087891 C13.24098469 24.77050368 15.70660683 24.67137214 19.46875 24.7265625 C20.51804688 24.75234375 21.56734375 24.778125 22.6484375 24.8046875 C25.89931586 24.44252068 27.21725767 23.65788396 29.59375 21.4765625 C24.9757155 17.84810682 20.48181608 16.05119131 14.91015625 14.35546875 C10.1624418 12.55405939 6.61507907 9.76444087 2.90625 6.3515625 C-2.21108429 1.65565574 -5.08398386 1.00799304 -12.03515625 1.06640625 C-20.51948428 2.09868255 -28.62151134 7.26124459 -34.40625 13.4765625 Z M-16.40625 12.4765625 C-16.40625 12.8065625 -16.40625 13.1365625 -16.40625 13.4765625 C-13.43625 13.4765625 -10.46625 13.4765625 -7.40625 13.4765625 C-7.40625 13.1465625 -7.40625 12.8165625 -7.40625 12.4765625 C-10.37625 12.4765625 -13.34625 12.4765625 -16.40625 12.4765625 Z M-43.40625 23.4765625 C-46.79872608 27.81353476 -48.73043056 32.32702514 -50.59375 37.4765625 C-50.85349609 38.16234375 -51.11324219 38.848125 -51.38085938 39.5546875 C-53.50665646 45.31136799 -55.0214478 50.37470413 -53.40625 56.4765625 C-51.75625 55.1565625 -50.10625 53.8365625 -48.40625 52.4765625 C-49.06625 52.1465625 -49.72625 51.8165625 -50.40625 51.4765625 C-50.28125 49.1640625 -50.28125 49.1640625 -49.40625 46.4765625 C-42.83981781 41.93057098 -34.21064263 41.13724108 -26.40625 41.4765625 C-25.40625 44.4765625 -25.40625 44.4765625 -25.96875 46.0390625 C-28.10574413 48.17605663 -30.54558289 48.6681131 -33.40625 49.4765625 C-33.40625 50.1365625 -33.40625 50.7965625 -33.40625 51.4765625 C-32.81457031 51.64671875 -32.22289063 51.816875 -31.61328125 51.9921875 C-30.82308594 52.23453125 -30.03289062 52.476875 -29.21875 52.7265625 C-28.44144531 52.95859375 -27.66414063 53.190625 -26.86328125 53.4296875 C-24.40625 54.4765625 -24.40625 54.4765625 -22.10546875 56.58203125 C-18.40151778 59.18176529 -15.78861105 58.90695443 -11.40625 58.5390625 C-11.05691406 58.52713867 -11.05691406 58.52713867 -9.2890625 58.46679688 C-3.83364114 58.09109333 -1.99806738 56.50134938 1.59375 52.4765625 C4.05078125 51.11328125 4.05078125 51.11328125 6.40625 50.1640625 C7.19644531 49.83792969 7.98664063 49.51179688 8.80078125 49.17578125 C9.39246094 48.94503906 9.98414063 48.71429688 10.59375 48.4765625 C10.59375 48.1465625 10.59375 47.8165625 10.59375 47.4765625 C10.03945312 47.37859375 9.48515625 47.280625 8.9140625 47.1796875 C2.96500431 45.95176802 2.96500431 45.95176802 1.03125 43.4765625 C0.59375 41.4765625 0.59375 41.4765625 1.59375 39.4765625 C17.59115579 38.93833202 17.59115579 38.93833202 24.15625 43.1015625 C24.630625 43.5553125 25.105 44.0090625 25.59375 44.4765625 C25.26375 46.4565625 24.93375 48.4365625 24.59375 50.4765625 C26.57375 51.1365625 28.55375 51.7965625 30.59375 52.4765625 C30.91890471 43.65674099 27.53244998 35.03512678 21.59375 28.4765625 C19.19442124 27.27689812 17.48431021 27.00484445 14.828125 26.8125 C9.83220394 26.06136502 5.86032536 21.68024285 2.3125 18.30859375 C-1.06699909 16.03131635 -3.71988945 15.9054296 -7.65625 16.0390625 C-8.3486377 16.05227539 -9.04102539 16.06548828 -9.75439453 16.07910156 C-20.2396469 16.43214036 -34.54048676 17.40867326 -43.40625 23.4765625 Z M-53.09375 24.5390625 C-61.53559503 33.48316834 -62.58646546 44.30673164 -62.59375 55.9765625 C-62.60599609 57.00910156 -62.61824219 58.04164062 -62.63085938 59.10546875 C-62.63279297 60.10449219 -62.63472656 61.10351562 -62.63671875 62.1328125 C-62.64082764 63.03837891 -62.64493652 63.94394531 -62.64916992 64.87695312 C-62.38034899 67.75374237 -61.66099385 69.88197877 -60.40625 72.4765625 C-58.78125 73.7890625 -58.78125 73.7890625 -57.40625 74.4765625 C-57.19142479 69.66686465 -57.19894659 65.89116933 -59.40625 61.4765625 C-58.890625 61.1259375 -58.375 60.7753125 -57.84375 60.4140625 C-56.152754 58.13489398 -56.25839388 57.57353636 -56.59375 54.8515625 C-56.7278125 54.2946875 -56.7278125 54.2946875 -57.40625 51.4765625 C-58.06625 51.1465625 -58.72625 50.8165625 -59.40625 50.4765625 C-59.04273438 49.9403125 -58.67921875 49.4040625 -58.3046875 48.8515625 C-54.42449767 42.80244604 -51.86122621 36.84575402 -49.67529297 30.01171875 C-48.12810625 25.46470272 -46.53616965 23.21673141 -42.40625 20.4765625 C-41.643125 19.8990625 -40.88 19.3215625 -40.09375 18.7265625 C-39.536875 18.3140625 -38.98 17.9015625 -38.40625 17.4765625 C-44.15253191 17.4765625 -48.93085016 20.74963945 -53.09375 24.5390625 Z M24.59375 27.4765625 C25.89594635 31.92902174 27.59011869 35.28602002 30.21875 39.1640625 C32.77730459 42.93923591 33.76315962 44.6593432 33.48828125 49.23046875 C33.40625 51.0390625 33.40625 51.0390625 33.59375 54.4765625 C35.09375 55.9140625 35.09375 55.9140625 36.59375 56.4765625 C35.71875 61.3515625 35.71875 61.3515625 34.59375 62.4765625 C34.40625 65.4140625 34.40625 65.4140625 34.59375 68.4765625 C35.25375 69.1365625 35.91375 69.7965625 36.59375 70.4765625 C39.25697493 67.81333757 38.89252075 66.50968898 38.90625 62.7890625 C38.80728658 51.27848135 36.59977452 38.46391772 30.59375 28.4765625 C27.20788485 26.16949508 27.20788485 26.16949508 24.59375 27.4765625 Z M3.59375 41.4765625 C3.59375 42.1365625 3.59375 42.7965625 3.59375 43.4765625 C10.24365964 44.93388312 16.8079564 45.92792387 23.59375 46.4765625 C21.0334284 43.25408876 18.70755648 42.87097068 14.71875 42.2890625 C13.69007813 42.13050781 12.66140625 41.97195312 11.6015625 41.80859375 C8.89818215 41.51016865 6.30983477 41.41141656 3.59375 41.4765625 Z M-40.09375 45.3515625 C-40.43825195 45.43857422 -40.43825195 45.43857422 -42.18164062 45.87890625 C-43.94180839 46.34620743 -45.67710776 46.90504866 -47.40625 47.4765625 C-47.73625 48.1365625 -48.06625 48.7965625 -48.40625 49.4765625 C-45.63475791 49.00115568 -42.8641855 48.52058524 -40.09375 48.0390625 C-39.7009082 47.97170898 -39.7009082 47.97170898 -37.71289062 47.63085938 C-36.95556641 47.49873047 -36.19824219 47.36660156 -35.41796875 47.23046875 C-34.72147217 47.11002197 -34.02497559 46.9895752 -33.30737305 46.86547852 C-31.40625 46.4765625 -31.40625 46.4765625 -28.40625 45.4765625 C-28.40625 44.8165625 -28.40625 44.1565625 -28.40625 43.4765625 C-32.49073503 43.16156365 -36.1888081 44.30380454 -40.09375 45.3515625 Z M0.59375 59.4765625 C-0.27963459 62.09671628 -0.51895274 63.50331739 -0.46875 66.1640625 C-0.448125 67.2571875 -0.4275 68.3503125 -0.40625 69.4765625 C-0.138125 68.9403125 0.13 68.4040625 0.40625 67.8515625 C0.6021875 67.4596875 0.6021875 67.4596875 1.59375 65.4765625 C2.026875 64.4659375 2.46 63.4553125 2.90625 62.4140625 C4.84228488 59.04392771 6.01558865 57.94035578 9.59375 56.4765625 C14.41477722 55.86297722 17.40617805 56.23907455 21.30078125 59.21484375 C23.57906118 61.43805951 24.59194369 63.47114356 25.59375 66.4765625 C25.59375 71.72236788 24.35925983 74.39588557 20.9453125 78.3125 C18.15292181 80.71750701 14.91457805 80.76233946 11.3671875 80.6875 C8.46149963 80.34188955 6.82511797 79.33603581 4.59375 77.4765625 C3.35273695 75.51785516 2.5017455 73.62707817 1.59375 71.4765625 C0.35478757 74.40501916 0.59760724 75.48706275 1.71875 78.5390625 C3.80414128 81.8061755 5.02446963 83.01640235 8.59375 84.4765625 C14.25590641 85.12988824 19.51074588 84.12129772 24.59375 81.4765625 C28.58548602 77.57231658 29.59686168 73.0235964 29.84375 67.6640625 C29.75800797 63.48608733 29.14119078 59.87915124 26.59375 56.4765625 C19.22179455 51.10475 6.44191763 52.34250259 0.59375 59.4765625 Z M-50.03125 61.2265625 C-52.68462325 65.56844601 -51.95886418 70.57211162 -51.40625 75.4765625 C-50.40192597 79.2367995 -49.04566996 82.16235356 -45.96875 84.62890625 C-40.92937989 87.25761614 -34.92369961 87.24405935 -29.40625 86.4765625 C-25.21624528 84.16778439 -23.83494072 81.94356057 -22.40625 77.4765625 C-22.21889006 75.07119151 -22.12572884 72.81251673 -22.15625 70.4140625 C-22.14851563 69.80240234 -22.14078125 69.19074219 -22.1328125 68.56054688 C-22.14806134 65.03425314 -22.41308029 62.42507907 -24.40625 59.4765625 C-31.71796259 54.0889848 -43.7428821 54.45447399 -50.03125 61.2265625 Z M6.59375 61.4765625 C4.20329001 64.34511449 3.33391572 66.36759641 3.65625 70.0390625 C4.38542817 73.56214439 5.56192723 75.40215745 8.59375 77.4765625 C12.3252697 78.76176525 14.77318111 78.84125978 18.40625 77.2265625 C20.92129171 75.21452913 22.32977078 73.80479479 22.96484375 70.609375 C23.08711857 66.91235981 23.0298113 64.36364136 20.46875 61.5390625 C15.76199191 57.61676409 11.32276662 57.6422247 6.59375 61.4765625 Z M-17.40625 64.4765625 C-17.45366034 65.99665667 -17.44338905 67.51868271 -17.40625 69.0390625 C-17.35029759 72.3262663 -17.49871615 75.26122195 -18.15625 78.4765625 C-18.89987077 83.53731498 -16.89528343 88.12883527 -14.40625 92.4765625 C-12.74559809 93.99539565 -11.89568507 94.44386083 -9.65234375 94.59375 C-9.05550781 94.51382813 -8.45867187 94.43390625 -7.84375 94.3515625 C-7.54404297 94.31933594 -7.54404297 94.31933594 -6.02734375 94.15625 C-4.40625 93.4765625 -4.40625 93.4765625 -3.2109375 91.65625 C-0.15482346 83.37803818 -3.49876812 72.77855616 -5.40625 64.4765625 C-6.40625 63.4765625 -6.40625 63.4765625 -8.65625 63.34375 C-9.11 63.34503906 -9.11 63.34503906 -11.40625 63.3515625 C-12.31375 63.34898438 -13.22125 63.34640625 -14.15625 63.34375 C-16.40625 63.4765625 -16.40625 63.4765625 -17.40625 64.4765625 Z M39.90625 69.9765625 C39.473125 70.4715625 39.04 70.9665625 38.59375 71.4765625 C38.92375 72.1365625 39.25375 72.7965625 39.59375 73.4765625 C43.46875 70.7265625 43.46875 70.7265625 44.59375 68.4765625 C41.59375 68.4765625 41.59375 68.4765625 39.90625 69.9765625 Z M44.59375 70.4765625 C45.59375 73.4765625 45.59375 73.4765625 45.59375 73.4765625 Z M-64.40625 73.4765625 C-65.06625 74.1365625 -65.72625 74.7965625 -66.40625 75.4765625 C-66.014375 75.63125 -66.014375 75.63125 -64.03125 76.4140625 C-61.40625 77.4765625 -61.40625 77.4765625 -59.40625 78.4765625 C-60.21875 76.5390625 -60.21875 76.5390625 -61.40625 74.4765625 C-62.39625 74.1465625 -63.38625 73.8165625 -64.40625 73.4765625 Z M33.59375 74.4765625 C33.408125 75.0025 33.408125 75.0025 32.46875 77.6640625 C30.26651104 82.77160262 26.85937584 85.34374958 21.96875 87.7890625 C15.82192882 89.04119274 8.62354081 89.88021931 2.84375 86.9765625 C2.10125 86.4815625 1.35875 85.9865625 0.59375 85.4765625 C0.41199219 86.10304688 0.23023437 86.72953125 0.04296875 87.375 C-0.20839844 88.19226563 -0.45976563 89.00953125 -0.71875 89.8515625 C-0.96238281 90.66367188 -1.20601563 91.47578125 -1.45703125 92.3125 C-2.49841242 94.68667766 -3.08097063 95.40727344 -5.40625 96.4765625 C-11.23794705 97.23252323 -11.23794705 97.23252323 -13.8671875 95.53125 C-16.62251258 92.87611856 -18.58119474 89.83850641 -20.40625 86.4765625 C-20.63570312 86.61513672 -20.63570312 86.61513672 -21.796875 87.31640625 C-22.41046875 87.67863281 -23.0240625 88.04085937 -23.65625 88.4140625 C-24.25953125 88.77371094 -24.8628125 89.13335937 -25.484375 89.50390625 C-30.8384782 92.21360482 -37.09492676 92.41575467 -42.81640625 90.79296875 C-48.03267753 88.69426862 -51.30627224 86.1452037 -54.40625 81.4765625 C-54.59251953 81.19876953 -54.59251953 81.19876953 -55.53515625 79.79296875 C-55.82261719 79.35855469 -56.11007813 78.92414063 -56.40625 78.4765625 C-56.73625 78.6415625 -56.73625 78.6415625 -58.40625 79.4765625 C-58.07625 81.7865625 -57.74625 84.0965625 -57.40625 86.4765625 C-57.73625 86.6415625 -57.73625 86.6415625 -59.40625 87.4765625 C-59.509375 86.7134375 -59.6125 85.9503125 -59.71875 85.1640625 C-60.44989039 82.30596826 -61.17576913 81.31913365 -63.40625 79.4765625 C-64.06625 80.1365625 -64.72625 80.7965625 -65.40625 81.4765625 C-65.73625 79.8265625 -66.06625 78.1765625 -66.40625 76.4765625 C-66.73625 76.4765625 -67.06625 76.4765625 -67.40625 76.4765625 C-68.00403598 87.67951453 -68.00403598 87.67951453 -64.40625 92.4765625 C-62.42966081 93.20973343 -60.42955411 93.88437593 -58.40625 94.4765625 C-58.33108154 95.56074463 -58.25591309 96.64492676 -58.1784668 97.76196289 C-57.89457214 101.80898697 -57.59433361 105.85466487 -57.28930664 109.90014648 C-57.15988812 111.64656946 -57.0348218 113.39332091 -56.91430664 115.14038086 C-56.73965313 117.66099765 -56.54904369 120.17999282 -56.35546875 122.69921875 C-56.30533127 123.47241959 -56.25519379 124.24562042 -56.20353699 125.04225159 C-55.57383903 132.8323726 -53.22155306 138.48742746 -47.28125 143.6640625 C-47.02448486 143.89440186 -47.02448486 143.89440186 -45.72509766 145.06005859 C-40.63815147 149.50161249 -35.12199722 153.2990859 -29.56835938 157.12670898 C-20.74675867 163.23987108 -13.24002777 170.17193852 -6.40625 178.4765625 C-3.29036087 176.21046131 -0.85674179 173.89009617 1.59375 170.9140625 C6.18264476 165.53190147 11.64520544 161.21409458 17.08251953 156.72802734 C38.62120314 138.89163119 38.62120314 138.89163119 40 129.796875 C40.03400996 126.6594562 39.8519221 123.60371749 39.59375 120.4765625 C39.50892157 119.2111219 39.4270075 117.94548335 39.34765625 116.6796875 C39.22142304 114.66809233 39.09325224 112.65692023 38.953125 110.64624023 C38.47843931 103.58783363 38.50232045 96.54711468 38.59375 89.4765625 C39.38136719 89.19039062 40.16898437 88.90421875 40.98046875 88.609375 C44.40973636 87.12284644 45.17279272 85.91677487 46.59375 82.4765625 C46.82317421 79.7883092 46.77396684 77.16646569 46.59375 74.4765625 C46.26375 75.1365625 45.93375 75.7965625 45.59375 76.4765625 C44.60375 76.4765625 43.61375 76.4765625 42.59375 76.4765625 C42.42875 76.1465625 42.42875 76.1465625 41.59375 74.4765625 C40.60375 76.7865625 39.61375 79.0965625 38.59375 81.4765625 C38.5215625 81.1775 38.5215625 81.1775 38.15625 79.6640625 C37.7065061 77.91505846 37.16482659 76.18979227 36.59375 74.4765625 C35.60375 74.4765625 34.61375 74.4765625 33.59375 74.4765625 Z M-58.40625 135.4765625 C-58.93093217 152.07750645 -50.16962761 167.59721331 -40.40625 180.4765625 C-37.42514644 180.14459106 -36.48818463 179.56745619 -34.44140625 177.296875 C-33.79042969 176.40742188 -33.13945313 175.51796875 -32.46875 174.6015625 C-29.75954821 170.90670677 -27.48000732 168.61617069 -23.40625 166.4765625 C-24.9506921 162.12044376 -27.97613481 160.42516462 -31.65625 157.9765625 C-37.00149812 154.29493286 -42.05491709 150.40530959 -46.96875 146.1640625 C-47.53948242 145.67292969 -48.11021484 145.18179688 -48.69824219 144.67578125 C-52.07343401 141.73422864 -55.27570429 138.67706454 -58.40625 135.4765625 Z " fill="#1e40af" transform="translate(124.40625,27.5234375)"/>
<path d="M0 0 C0 0.99 0 1.98 0 3 C-11.22 3.33 -22.44 3.66 -34 4 C-34 2.68 -34 1.36 -34 0 C-22.48521308 -1.22590887 -11.50281145 -1.00965116 0 0 Z " fill="#1e40af" transform="translate(128,58)"/>
<path d="M0 0 C3.54547968 2.69590247 6.3787824 5.73065406 7.57421875 10.09765625 C7.8090359 14.30007353 6.77718283 17.43954322 4.19140625 20.74609375 C1.20983766 23.88407249 -1.61188873 25.1921525 -5.875 25.5625 C-10.25412802 25.42123781 -12.55166064 23.43191913 -15.65234375 20.5078125 C-18.62584507 17.18093855 -18.39101472 13.83316976 -18.34765625 9.546875 C-17.80677057 5.58443159 -16.08017613 3.4420181 -13 1 C-8.86570044 -1.56997 -4.50562305 -1.72573864 0 0 Z M-14.15234375 6.375 C-15.80913233 9.55114769 -15.73117006 12.55305544 -15 16 C-13.46452173 19.00697829 -12.38113648 20.53577667 -9.12890625 21.62890625 C-5.58997416 22.26444226 -3.48636512 22.20088994 -0.125 20.8125 C3.09109021 18.06936424 3.84218883 16.23618747 4.375 12.0625 C3.90977662 8.2631757 2.63608379 6.71361566 0 4 C-4.95959773 1.52020114 -10.53427767 2.05784997 -14.15234375 6.375 Z " fill="#1e40af" transform="translate(94,86)"/>
<path d="M0 0 C1.32 0.33 2.64 0.66 4 1 C3.01 1.99 2.02 2.98 1 4 C0.67 2.68 0.34 1.36 0 0 Z " fill="#1e40af" transform="translate(136,95)"/>
<path d="M0 0 C0.99 0 1.98 0 3 0 C2.67 1.32 2.34 2.64 2 4 C1.01 3.01 0.02 2.02 -1 1 C-0.67 0.67 -0.34 0.34 0 0 Z " fill="#1e40af" transform="translate(87,97)"/>
<path d="M0 0 C5.8961027 5.59373846 5.8961027 5.59373846 6.09765625 10.26171875 C6.08605469 11.06222656 6.07445312 11.86273438 6.0625 12.6875 C6.05347656 13.49574219 6.04445312 14.30398437 6.03515625 15.13671875 C6.02355469 15.75160156 6.01195312 16.36648437 6 17 C5.01 17.33 4.02 17.66 3 18 C2.87882813 17.27554688 2.75765625 16.55109375 2.6328125 15.8046875 C1.74909881 10.70633929 0.83290562 5.84410771 -1 1 C-0.67 0.67 -0.34 0.34 0 0 Z " fill="#1e40af" transform="translate(152,119)"/>
<path d="M0 0 C0.66 0.66 1.32 1.32 2 2 C1.67 2.78375 1.34 3.5675 1 4.375 C-0.51513489 8.81370504 -0.16469045 13.37036852 0 18 C-0.99 18 -1.98 18 -3 18 C-4.8394737 14.3210526 -4.3733578 10.02467049 -4 6 C-2.83567931 3.51949071 -1.90574048 1.90574048 0 0 Z " fill="#1e40af" transform="translate(76,122)"/>
<path d="M0 0 C2.4375 2.125 2.4375 2.125 4 5 C4.17095347 8.93192985 2.97555996 11.41756907 0.6875 14.5 C-7.48329031 23.29481248 -19.12173073 25.60120687 -30.59765625 26.21484375 C-43.18943941 26.65740838 -57.0408501 25.10174022 -67 16.6875 C-68.89107885 14.1463628 -69.38357929 13.41078665 -69.625 10.4375 C-69.00072282 7.0039755 -68.52463005 5.81901836 -65.74902344 3.77856445 C-61.87066446 2.05214251 -57.46232521 2.7043174 -53.3125 2.875 C-44.13358731 3.07272364 -35.1399266 2.81136365 -26 2.0625 C-25.46072876 2.01891357 -25.46072876 2.01891357 -22.73168945 1.79833984 C-0.57616629 -0.07856813 -0.57616629 -0.07856813 0 0 Z M-43 21 C-43 21.33 -43 21.66 -43 22 C-24.94485104 24.26998971 -24.94485104 24.26998971 -19.1875 20.95703125 C-18.795625 20.64121094 -18.40375 20.32539063 -18 20 C-21.75363405 18.80912625 -25.47664919 18.81633696 -29.375 18.8125 C-30.02210937 18.80025391 -30.66921875 18.78800781 -31.3359375 18.77539062 C-35.64939367 18.7623459 -38.98098946 19.42599123 -43 21 Z " fill="#1e40af" transform="translate(148,123)"/>
<path d="M0 0 C0 0.66 0 1.32 0 2 C-2.52475462 3.26237731 -4.31200466 3.09856404 -7.125 3.0625 C-8.03507812 3.05347656 -8.94515625 3.04445312 -9.8828125 3.03515625 C-10.58148438 3.02355469 -11.28015625 3.01195312 -12 3 C-12 2.01 -12 1.02 -12 0 C-3.55353075 -1.33257403 -3.55353075 -1.33257403 0 0 Z " fill="#1e40af" transform="translate(124,153)"/>
<path d="M0 0 C0 0.99 0 1.98 0 3 C-5.86397354 5.60621046 -11.67719151 5.18415947 -18 5 C-18.33 3.68 -18.66 2.36 -19 1 C-18.18015625 1.01160156 -17.3603125 1.02320313 -16.515625 1.03515625 C-15.97679688 1.03966797 -15.97679688 1.03966797 -13.25 1.0625 C-12.18265625 1.07410156 -11.1153125 1.08570313 -10.015625 1.09765625 C-6.54378864 0.98522632 -3.46326274 0 0 0 Z " fill="#1e40af" transform="translate(129,178)"/>
<path d="M0 0 C3.875 1.75 3.875 1.75 5 4 C3.68 4 2.36 4 1 4 C0.67 2.68 0.34 1.36 0 0 Z " fill="#1e40af" transform="translate(33,225)"/>
<path d="M0 0 C0.99 0.33 1.98 0.66 3 1 C2.67 1.99 2.34 2.98 2 4 C0.68 3.67 -0.64 3.34 -2 3 C-1.34 2.01 -0.68 1.02 0 0 Z " fill="#1e40af" transform="translate(197,225)"/>
</g>
</svg>
