<?xml version="1.0" encoding="UTF-8"?>
<!-- Generator: visioncortex VTracer 0.6.12 -->
<svg version="1.1" xmlns="http://www.w3.org/2000/svg" width="229" height="229">
<path d="M0 0 C4.23014411 0.01903453 7.92415057 1.15651328 11.9140625 2.47265625 C12.25888672 2.57932617 12.25888672 2.57932617 14.00390625 3.11914062 C20.64336439 5.24554452 25.57726451 8.63274739 30.8515625 13.09765625 C31.36783203 13.52755859 31.88410156 13.95746094 32.41601562 14.40039062 C34.63723759 16.26508524 36.70968328 18.0724911 38.66015625 20.2265625 C41.6817839 22.97097661 45.10777186 24.45289102 48.7890625 26.16015625 C59.30169836 31.03558157 59.30169836 31.03558157 61.8359375 36.359375 C64.84118967 46.9946285 65.60988697 58.8021529 61.3203125 69.12890625 C60.44782897 72.46487267 61.47263821 75.32836989 62.2890625 78.609375 C63.22287557 83.37328074 63.10128515 88.54144119 60.89453125 92.9453125 C59.91041451 94.38647222 58.85152142 95.77574008 57.7890625 97.16015625 C56.3515625 99.78515625 56.3515625 99.78515625 55.7890625 102.16015625 C56.74483307 103.52554278 57.75259226 104.8549715 58.7890625 106.16015625 C59.34694295 108.50325415 59.55760582 110.75300673 59.7890625 113.16015625 C59.2940625 113.32515625 59.2940625 113.32515625 56.7890625 114.16015625 C56.881875 114.77761719 56.9746875 115.39507812 57.0703125 116.03125 C57.42728318 120.21928106 57.43491251 123.09177253 55.21875 126.7578125 C51.38283378 131.24277158 48.46297366 133.74167846 42.7890625 135.16015625 C42.48871094 135.47919922 42.48871094 135.47919922 40.96875 137.09375 C38.4087898 139.52066567 36.5651984 140.08508285 33.1640625 140.91015625 C32.20242187 141.1525 31.24078125 141.39484375 30.25 141.64453125 C27.7890625 142.16015625 27.7890625 142.16015625 25.7890625 142.16015625 C27.95970034 150.84270762 34.22461509 156.91049832 40.6015625 162.84765625 C41.7890625 164.16015625 41.7890625 164.16015625 41.7890625 166.16015625 C42.37558594 166.40894531 42.96210938 166.65773437 43.56640625 166.9140625 C46.09962583 168.33426821 47.49891603 169.87199371 49.3515625 172.09765625 C52.62298138 175.99567206 52.62298138 175.99567206 54.4140625 177.76953125 C56.29851149 179.67539444 57.4434186 181.84564875 58.7890625 184.16015625 C63.15949282 190.95860342 67.86734356 197.66301893 73.0390625 203.875 C74.7890625 206.16015625 74.7890625 206.16015625 74.7890625 208.16015625 C75.7790625 208.49015625 76.7690625 208.82015625 77.7890625 209.16015625 C77.7890625 210.15015625 77.7890625 211.14015625 77.7890625 212.16015625 C75.51953125 212.484375 75.51953125 212.484375 72.7890625 212.16015625 C71.27100996 210.41581016 70.23864 208.94546131 69.1015625 206.97265625 C68.4250999 205.87739938 67.74390287 204.7850559 67.05859375 203.6953125 C66.87852783 203.40793213 66.87852783 203.40793213 65.96728516 201.95361328 C62.57847199 196.79525823 58.58710418 192.01320951 54.7890625 187.16015625 C55.1190625 195.41015625 55.4490625 203.66015625 55.7890625 212.16015625 C54.4690625 212.16015625 53.1490625 212.16015625 51.7890625 212.16015625 C51.74418701 211.2880249 51.69931152 210.41589355 51.65307617 209.51733398 C51.48164076 206.25317987 51.29298828 202.99020179 51.09936523 199.72729492 C51.01823438 198.32032789 50.94165116 196.9130904 50.86987305 195.50561523 C50.765324 193.47159545 50.64394868 191.43914001 50.51953125 189.40625 C50.49126755 188.78616562 50.46300385 188.16608124 50.43388367 187.52720642 C50.00789427 181.10665669 48.08588327 175.78550822 43.21484375 171.4140625 C42.54775391 170.80498047 41.88066406 170.19589844 41.19335938 169.56835938 C40.50306641 168.95927734 39.81277344 168.35019531 39.1015625 167.72265625 C38.39966797 167.08650391 37.69777344 166.45035156 36.97460938 165.79492188 C35.25522507 164.23928846 33.52694888 162.69504984 31.7890625 161.16015625 C31.593125 162.12953125 31.3971875 163.09890625 31.1953125 164.09765625 C27.74849803 179.97219621 20.20582268 198.10872447 7.7890625 209.16015625 C4.43316325 209.27201956 2.02014675 207.15170964 -0.43359375 205.00390625 C-12.63788198 192.34363363 -19.25843102 176.73390081 -20.2109375 159.16015625 C-20.8709375 160.00578125 -21.5309375 160.85140625 -22.2109375 161.72265625 C-24.31973561 164.26631951 -26.56498584 166.40166604 -29.0859375 168.53515625 C-33.61002459 172.38964411 -38.52109541 176.78047208 -41.2109375 182.16015625 C-41.28445939 184.2422961 -41.29445766 186.32682479 -41.2734375 188.41015625 C-41.26965088 189.02407227 -41.26586426 189.63798828 -41.26196289 190.27050781 C-41.24973601 192.23379479 -41.23110757 194.19693575 -41.2109375 196.16015625 C-41.18439644 198.74348568 -41.16437194 201.32674206 -41.1484375 203.91015625 C-41.13683594 205.06 -41.12523438 206.20984375 -41.11328125 207.39453125 C-41.2109375 210.16015625 -41.2109375 210.16015625 -42.2109375 212.16015625 C-43.2009375 212.16015625 -44.1909375 212.16015625 -45.2109375 212.16015625 C-45.3759375 208.20015625 -45.3759375 208.20015625 -46.2109375 188.16015625 C-52.9323515 195.37040035 -59.76864025 203.27556175 -64.2109375 212.16015625 C-65.5309375 212.16015625 -66.8509375 212.16015625 -68.2109375 212.16015625 C-66.60685344 207.16319137 -63.65751931 203.40996257 -60.5234375 199.28515625 C-60.01876953 198.60324219 -59.51410156 197.92132813 -58.99414062 197.21875 C-55.89000371 193.09821427 -52.63424458 189.46233697 -48.81323242 185.99169922 C-47.2109375 184.16015625 -47.2109375 184.16015625 -45.7722168 181.23730469 C-44.15291579 178.04580041 -42.47276476 176.06220181 -39.9375 173.55859375 C-39.53187836 173.15484528 -39.12625671 172.7510968 -38.70834351 172.33511353 C-37.8562729 171.4897133 -37.00063796 170.64789144 -36.14160156 169.80957031 C-34.83915692 168.53829862 -33.54770078 167.25665463 -32.2578125 165.97265625 C-29.10453634 162.85400572 -25.99445751 159.77912714 -22.50927734 157.02587891 C-19.75423118 154.7894159 -19.05152802 153.59893565 -18.2109375 150.16015625 C-17.96437285 147.13842775 -17.80879737 144.1702934 -18.2109375 141.16015625 C-20.2109375 139.16015625 -20.2109375 139.16015625 -21.89916992 139.140625 C-22.55248291 139.20894531 -23.2057959 139.27726563 -23.87890625 139.34765625 C-28.99192063 139.46777224 -31.70603538 137.33643595 -35.5234375 134.16015625 C-36.12994141 133.70253906 -36.73644531 133.24492187 -37.36132812 132.7734375 C-41.30055294 129.60992363 -43.14189401 126.83684472 -44.53344727 121.97387695 C-45.66303276 118.94984429 -47.86472806 117.32113863 -50.2109375 115.16015625 C-51.2109375 112.16015625 -51.2109375 112.16015625 -49.9609375 109.59765625 C-48.43668071 107.4745843 -47.48013849 106.34878534 -45.2109375 105.16015625 C-45.64565499 102.33449257 -46.42067216 100.85953658 -48.0859375 98.47265625 C-52.238945 92.45534247 -54.11868346 85.43958055 -53.2109375 78.16015625 C-53.0459375 77.83015625 -53.0459375 77.83015625 -52.2109375 76.16015625 C-52.71458396 70.7039863 -53.58133914 65.26556233 -55.7734375 60.22265625 C-57.96976387 54.74327952 -58.69479029 49.03236969 -58.2109375 43.16015625 C-55.80531732 37.60264685 -51.43124408 34.0075962 -46.2109375 31.16015625 C-45.5509375 31.16015625 -44.8909375 31.16015625 -44.2109375 31.16015625 C-44.1078125 30.79921875 -44.1078125 30.79921875 -43.5859375 28.97265625 C-41.00922695 23.70211195 -36.97760772 21.37208824 -31.6484375 19.22265625 C-27.15552579 17.34872825 -24.95487412 15.09118601 -22.2109375 11.16015625 C-18.12651595 5.62288676 -13.72669058 1.55847458 -6.7109375 0.41015625 C-4.48069752 0.15982319 -2.24205856 0.11183017 0 0 Z M-22.2109375 31.16015625 C-24.24424787 32.9591312 -26.22982663 34.8039803 -28.2109375 36.66015625 C-28.78328125 37.16546875 -29.355625 37.67078125 -29.9453125 38.19140625 C-34.02566217 42.07745356 -34.02566217 42.07745356 -34.5859375 45.3515625 C-34.5859375 47.32542618 -34.48181569 49.20632186 -34.2109375 51.16015625 C-33.19773438 51.12535156 -32.18453125 51.09054688 -31.140625 51.0546875 C-29.7890792 51.0265303 -28.43751531 50.99923222 -27.0859375 50.97265625 C-26.42078125 50.94751953 -25.755625 50.92238281 -25.0703125 50.89648438 C-18.93034591 50.80619075 -15.26624663 52.34952678 -10.5859375 56.47265625 C-6.45333408 60.91088628 -3.87511378 65.33553926 -2.2109375 71.16015625 C-1.53546875 71.07636719 -0.86 70.99257812 -0.1640625 70.90625 C0.72796875 70.80441406 1.62 70.70257813 2.5390625 70.59765625 C2.97992188 70.54544922 2.97992188 70.54544922 5.2109375 70.28125 C7.67338701 70.16558949 9.45444314 70.4237693 11.7890625 71.16015625 C11.85673828 70.88171875 11.85673828 70.88171875 12.19921875 69.47265625 C14.3447414 61.86697117 18.1612463 56.73993666 24.6015625 52.16015625 C31.12001953 50.11515012 37.52418101 50.52231141 43.7890625 53.16015625 C43.52137637 47.13721832 42.90435517 42.70932961 38.7890625 38.16015625 C38.57185547 37.91652344 38.57185547 37.91652344 37.47265625 36.68359375 C34.84668782 34.12202236 32.76520951 32.84025556 29.05078125 32.75390625 C24.24787144 32.88710636 21.22431587 34.8779832 17.3515625 37.53515625 C6.28396635 44.604597 6.28396635 44.604597 0.7890625 44.16015625 C-4.37272234 42.5280031 -8.62364442 39.69882885 -12.9609375 36.53515625 C-18.84034063 32.28368854 -18.84034063 32.28368854 -22.2109375 31.16015625 Z M-33.2109375 55.16015625 C-35.87181246 61.60508956 -35.43526834 69.18922126 -35.2734375 76.03515625 C-35.23892108 77.86580498 -35.20880042 79.69654316 -35.18359375 81.52734375 C-35.16562744 82.32253418 -35.14766113 83.11772461 -35.12915039 83.93701172 C-35.21061839 86.15148223 -35.59277356 88.03822752 -36.2109375 90.16015625 C-31.96182785 93.67666079 -28.02405745 93.48280762 -22.63671875 93.4609375 C-20.2109375 93.16015625 -20.2109375 93.16015625 -18.2109375 91.16015625 C-18.6646875 90.96421875 -18.6646875 90.96421875 -20.9609375 89.97265625 C-24.34035905 88.239005 -26.25211427 86.49741065 -28.2109375 83.16015625 C-29.41661693 78.69253591 -29.58100709 75.24980559 -28.0859375 70.84765625 C-25.31261677 66.87256321 -22.90580832 64.65449357 -18.2109375 63.28515625 C-13.79746221 63.10126145 -10.71576248 64.57765363 -7.2109375 67.16015625 C-7.52787503 64.22848406 -7.84319584 62.57032964 -9.8359375 60.34765625 C-13.07779168 58.72672916 -15.70843086 58.53588208 -19.2109375 59.16015625 C-22.62959453 60.31301723 -25.92286438 61.6782078 -29.2109375 63.16015625 C-25.30994064 58.52772248 -22.1484328 57.14728326 -16.2109375 56.16015625 C-18.98069356 53.39040019 -21.3790058 53.00883122 -25.1484375 52.97265625 C-25.81746094 52.95847656 -26.48648438 52.94429687 -27.17578125 52.9296875 C-29.65810241 53.21079489 -31.11009868 53.79947529 -33.2109375 55.16015625 Z M24.7890625 55.16015625 C28.62886143 57.24004734 32.69571048 58.66985819 36.7890625 60.16015625 C36.7890625 60.82015625 36.7890625 61.48015625 36.7890625 62.16015625 C36.4178125 61.99515625 36.4178125 61.99515625 34.5390625 61.16015625 C29.57584713 59.50177419 23.93305095 59.44400217 18.7890625 60.16015625 C17.3671875 61.4921875 17.3671875 61.4921875 16.7890625 63.16015625 C17.1190625 64.15015625 17.4490625 65.14015625 17.7890625 66.16015625 C18.2015625 65.90234375 18.2015625 65.90234375 20.2890625 64.59765625 C23.63631549 62.94381258 26.24677866 62.88093 29.89453125 63.515625 C33.77084144 64.8343697 35.84013057 67.59263729 37.93359375 71.05078125 C39.43971724 74.76451039 38.61839112 78.32879513 37.7890625 82.16015625 C35.96708386 86.35070711 33.92116233 88.23824935 29.7890625 90.16015625 C26.4765625 90.84765625 26.4765625 90.84765625 23.7890625 91.16015625 C27.62791936 94.47953477 30.24474103 94.66882427 35.18359375 94.515625 C40.33008943 93.81347941 44.34509123 91.78462392 47.7890625 87.91015625 C48.1190625 87.33265625 48.4490625 86.75515625 48.7890625 86.16015625 C47.7990625 86.16015625 46.8090625 86.16015625 45.7890625 86.16015625 C45.79019043 85.33290039 45.79131836 84.50564453 45.79248047 83.65332031 C45.78253425 80.57345222 45.74593354 77.49626966 45.69140625 74.41699219 C45.67327606 73.08636547 45.66567245 71.75555089 45.66894531 70.42480469 C45.68537416 59.43390898 45.68537416 59.43390898 43.5559082 56.40771484 C38.15346299 52.59775905 30.54561313 52.00333816 24.7890625 55.16015625 Z M-25.2109375 70.16015625 C-27.06088864 73.86005853 -26.68080592 78.12182766 -26.2109375 82.16015625 C-25.14477101 84.5036113 -24.19351847 85.40415596 -22.2109375 87.16015625 C-18.81196905 88.29314573 -15.74525391 88.75591801 -12.2109375 88.16015625 C-9.30376677 85.94152596 -8.37112107 84.64070696 -7.2109375 81.16015625 C-6.65376807 76.03848345 -6.89779882 72.33225681 -10.2109375 68.16015625 C-12.14115291 66.22994084 -13.26406657 66.15307237 -16.0234375 65.78515625 C-20.19328282 66.27572629 -21.93509162 67.56995253 -25.2109375 70.16015625 Z M17.7890625 70.16015625 C16.06712153 73.60403818 16.41109966 77.38704449 16.7890625 81.16015625 C18.87014358 85.70069679 18.87014358 85.70069679 21.7890625 87.16015625 C26.12676841 87.74426234 28.98053391 87.67623833 32.7265625 85.28515625 C36.13231536 81.77619875 36.12003525 79.14197186 36.08203125 74.421875 C35.6284555 70.92027021 34.33152131 69.55305866 31.7890625 67.16015625 C26.2201474 64.3756987 21.94311461 66.00610414 17.7890625 70.16015625 Z M-1.6484375 74.84765625 C-4.59496357 79.20851483 -4.39300745 84.10212174 -4.3984375 89.22265625 C-4.41068359 89.83431641 -4.42292969 90.44597656 -4.43554688 91.07617188 C-4.44699904 94.60725738 -4.22921027 97.21305899 -2.2109375 100.16015625 C0.74663842 101.88540887 2.4836231 102.17848261 5.9140625 101.97265625 C8.98726172 101.10414343 10.03888733 100.78541901 11.7890625 98.16015625 C14.86898311 89.73089985 14.24370332 82.43227785 10.7890625 74.16015625 C6.68248189 72.10686594 2.09625434 72.25517728 -1.6484375 74.84765625 Z M54.7890625 76.16015625 C54.7890625 76.82015625 54.7890625 77.48015625 54.7890625 78.16015625 C55.7790625 78.49015625 56.7690625 78.82015625 57.7890625 79.16015625 C57.4590625 78.17015625 57.1290625 77.18015625 56.7890625 76.16015625 C56.1290625 76.16015625 55.4690625 76.16015625 54.7890625 76.16015625 Z M-48.2109375 77.16015625 C-48.2109375 78.15015625 -48.2109375 79.14015625 -48.2109375 80.16015625 C-47.5509375 79.83015625 -46.8909375 79.50015625 -46.2109375 79.16015625 C-46.2109375 78.50015625 -46.2109375 77.84015625 -46.2109375 77.16015625 C-46.8709375 77.16015625 -47.5309375 77.16015625 -48.2109375 77.16015625 Z M54.7890625 82.16015625 C53.6640625 84.47265625 53.6640625 84.47265625 52.7890625 87.16015625 C53.5390625 88.97265625 53.5390625 88.97265625 54.7890625 90.16015625 C55.4490625 90.16015625 56.1090625 90.16015625 56.7890625 90.16015625 C57.4490625 87.85015625 58.1090625 85.54015625 58.7890625 83.16015625 C57.4690625 82.83015625 56.1490625 82.50015625 54.7890625 82.16015625 Z M-47.2109375 83.16015625 C-47.8709375 83.82015625 -48.5309375 84.48015625 -49.2109375 85.16015625 C-48.90763981 89.00192699 -47.68618326 91.25443297 -45.2109375 94.16015625 C-44.0234375 91.47265625 -44.0234375 91.47265625 -43.2109375 88.16015625 C-44.5234375 85.28515625 -44.5234375 85.28515625 -46.2109375 83.16015625 C-46.5409375 83.16015625 -46.8709375 83.16015625 -47.2109375 83.16015625 Z M16.7890625 90.16015625 C16.4590625 92.14015625 16.1290625 94.12015625 15.7890625 96.16015625 C19.4190625 96.49015625 23.0490625 96.82015625 26.7890625 97.16015625 C24.3806177 95.35382265 22.04048629 93.62132193 19.5390625 91.97265625 C18.6315625 91.37453125 17.7240625 90.77640625 16.7890625 90.16015625 Z M-11.7734375 91.53515625 C-16.20853254 95.2805834 -21.14371349 96.17108147 -26.8359375 96.47265625 C-30.77028896 96.10836445 -32.79962992 95.06414188 -36.2109375 93.16015625 C-36.8709375 93.16015625 -37.5309375 93.16015625 -38.2109375 93.16015625 C-38.2109375 93.82015625 -38.2109375 94.48015625 -38.2109375 95.16015625 C-39.5309375 95.49015625 -40.8509375 95.82015625 -42.2109375 96.16015625 C-42.2109375 96.82015625 -42.2109375 97.48015625 -42.2109375 98.16015625 C-40.5609375 97.83015625 -38.9109375 97.50015625 -37.2109375 97.16015625 C-36.90542969 97.91296875 -36.59992188 98.66578125 -36.28515625 99.44140625 C-33.39354922 106.25088507 -29.95987865 112.20627219 -25.6484375 118.22265625 C-18.98864906 127.61940507 -15.0947355 136.56357146 -13.28515625 147.99829102 C-12.06263489 155.3721191 -8.63819108 159.42440323 -2.73046875 163.73828125 C0.696866 165.67246706 3.22717831 166.33995292 7.15234375 166.01953125 C12.81678291 164.17334367 17.67146456 160.26153354 20.7890625 155.16015625 C21.57574768 151.81778484 21.66417012 148.87706135 21.66015625 145.44921875 C22.08048497 134.72446768 29.18396714 126.59092814 35.6171875 118.63378906 C40.53130313 112.45428865 45.7890625 105.34873684 45.7890625 97.16015625 C46.253125 97.20140625 46.253125 97.20140625 48.6015625 97.41015625 C51.7890625 97.16015625 51.7890625 97.16015625 53.6640625 95.16015625 C53.8496875 94.83015625 53.8496875 94.83015625 54.7890625 93.16015625 C53.4690625 92.50015625 52.1490625 91.84015625 50.7890625 91.16015625 C50.4590625 92.15015625 50.1290625 93.14015625 49.7890625 94.16015625 C49.1290625 94.49015625 48.4690625 94.82015625 47.7890625 95.16015625 C47.6240625 94.66515625 47.6240625 94.66515625 46.7890625 92.16015625 C46.25796875 92.62035156 45.726875 93.08054687 45.1796875 93.5546875 C42.33864903 95.4626398 39.86695857 96.0880278 36.5390625 96.84765625 C35.46140625 97.09902344 34.38375 97.35039063 33.2734375 97.609375 C32.86351562 97.70025391 32.86351562 97.70025391 30.7890625 98.16015625 C31.2221875 98.44890625 31.6553125 98.73765625 32.1015625 99.03515625 C33.6640625 100.07682292 35.2265625 101.11848958 36.7890625 102.16015625 C35.7784375 102.03640625 34.7678125 101.91265625 33.7265625 101.78515625 C33.00597656 101.70265625 32.28539062 101.62015625 31.54296875 101.53515625 C29.38087462 101.24074343 27.27015618 100.88082687 25.12890625 100.47265625 C14.87265013 98.63198588 14.87265013 98.63198588 11.76953125 100.14453125 C10.3515625 101.53515625 10.3515625 101.53515625 9.10546875 102.9609375 C7.3391397 104.57002658 6.15284177 104.62987239 3.7890625 104.72265625 C0.73170263 104.56143953 -0.72913004 103.95620736 -3.0234375 101.97265625 C-5.18372009 100.30548164 -5.93989997 100.12797054 -8.7109375 100.45703125 C-11.59678547 101.2426232 -14.3929721 102.15873053 -17.2109375 103.16015625 C-18.93992748 103.7231991 -20.66907758 104.28575066 -22.3984375 104.84765625 C-23.67034594 105.28202078 -24.94162992 105.71824917 -26.2109375 106.16015625 C-23.87442547 103.48876953 -21.69964725 102.35018898 -18.3984375 101.09765625 C-17.95822266 100.92943359 -17.95822266 100.92943359 -15.73046875 100.078125 C-12.90503139 99.04870209 -10.07838143 98.06566486 -7.2109375 97.16015625 C-7.3759375 95.84015625 -7.3759375 95.84015625 -8.2109375 89.16015625 C-9.2109375 89.16015625 -9.2109375 89.16015625 -11.7734375 91.53515625 Z M24.7890625 153.16015625 C24.50933594 153.60746094 24.22960937 154.05476562 23.94140625 154.515625 C20.84097222 159.19119914 17.53387652 162.19293826 12.7890625 165.16015625 C13.4563741 169.03244329 15.35029394 172.09716514 17.3515625 175.41015625 C17.68091797 175.96445313 18.01027344 176.51875 18.34960938 177.08984375 C19.15825443 178.449305 19.97304899 179.80510509 20.7890625 181.16015625 C25.39557829 177.00525966 26.58398954 171.84474767 27.046875 165.78515625 C27.29300826 156.0132578 27.29300826 156.0132578 24.7890625 153.16015625 Z M-16.2109375 155.16015625 C-16.6142323 160.80628344 -16.02255462 166.07874601 -14.8984375 171.59765625 C-14.78072998 172.2127002 -14.66302246 172.82774414 -14.54174805 173.46142578 C-13.59462893 177.82314261 -13.59462893 177.82314261 -11.60546875 179.5703125 C-11.14527344 179.76496094 -10.68507813 179.95960938 -10.2109375 180.16015625 C-8.98219665 178.25410947 -7.77879873 176.33846576 -6.5859375 174.41015625 C-6.2353125 173.87132812 -5.8846875 173.3325 -5.5234375 172.77734375 C-4.546875 171.17578125 -4.546875 171.17578125 -3.2109375 168.16015625 C-4.0888441 164.6100814 -6.51693782 162.80639192 -9.2734375 160.53515625 C-13.11371528 157.35460069 -13.11371528 157.35460069 -14.2109375 155.16015625 C-14.8709375 155.16015625 -15.5309375 155.16015625 -16.2109375 155.16015625 Z M3.1015625 168.59765625 C2.29332031 168.69949219 1.48507813 168.80132812 0.65234375 168.90625 C0.34490234 168.94814453 0.34490234 168.94814453 -1.2109375 169.16015625 C-2.09430587 171.62692075 -2.3421781 172.79874997 -1.43359375 175.30078125 C-1.24216797 175.64882812 -1.24216797 175.64882812 -0.2734375 177.41015625 C0.10683594 178.1165625 0.48710938 178.82296875 0.87890625 179.55078125 C1.17925781 180.081875 1.47960937 180.61296875 1.7890625 181.16015625 C4.0990625 181.16015625 6.4090625 181.16015625 8.7890625 181.16015625 C11.88753077 175.085758 11.88753077 175.085758 11.4765625 171.22265625 C11.2496875 170.54203125 11.0228125 169.86140625 10.7890625 169.16015625 C7.69427371 168.12855999 6.26274857 168.18532763 3.1015625 168.59765625 Z M-5.2109375 176.16015625 C-5.6646875 177.06765625 -6.1184375 177.97515625 -6.5859375 178.91015625 C-7.79427083 181.32682292 -9.00260417 183.74348958 -10.2109375 186.16015625 C-8.2309375 189.13015625 -6.2509375 192.10015625 -4.2109375 195.16015625 C-3.5509375 194.83015625 -2.8909375 194.50015625 -2.2109375 194.16015625 C-1.69140625 191.39453125 -1.69140625 191.39453125 -1.3984375 187.91015625 C-1.28886719 186.770625 -1.17929688 185.63109375 -1.06640625 184.45703125 C-1.22720968 180.78897474 -2.01501806 179.05898787 -4.2109375 176.16015625 C-4.5409375 176.16015625 -4.8709375 176.16015625 -5.2109375 176.16015625 Z M13.7890625 176.16015625 C12.28482042 178.68513402 11.31880081 180.32117036 10.7890625 183.16015625 C11.69793839 186.40540801 13.12594864 189.23811158 14.7890625 192.16015625 C15.4490625 192.16015625 16.1090625 192.16015625 16.7890625 192.16015625 C18.1090625 189.52015625 19.4290625 186.88015625 20.7890625 184.16015625 C18.57926942 181.34076508 16.38844204 178.62956681 13.7890625 176.16015625 Z M2.7890625 184.16015625 C2.25492138 186.05228327 1.73727921 187.94907261 1.2265625 189.84765625 C0.93652344 190.90339844 0.64648438 191.95914063 0.34765625 193.046875 C-0.22043162 196.21307104 -0.16156171 198.11287754 0.7890625 201.16015625 C2.6015625 203.53515625 2.6015625 203.53515625 4.7890625 205.16015625 C7.29691099 204.90987197 8.49491744 204.4350858 10.34375 202.70703125 C11.67355791 200.89723351 12.83467255 199.19531656 13.7890625 197.16015625 C13.3515625 194.72265625 13.3515625 194.72265625 11.7890625 192.16015625 C11.07238372 190.72679869 10.36451193 189.28901428 9.6640625 187.84765625 C9.04102315 186.61749461 8.41668705 185.38798487 7.7890625 184.16015625 C6.1390625 184.16015625 4.4890625 184.16015625 2.7890625 184.16015625 Z " fill="#c81e1e" transform="translate(112.2109375,16.83984375)"/>
<path d="M0 0 C0.99 0.33 1.98 0.66 3 1 C2.67 2.32 2.34 3.64 2 5 C1.01 4.67 0.02 4.34 -1 4 C-0.67 2.68 -0.34 1.36 0 0 Z " fill="#c81e1e" transform="translate(95,94)"/>
<path d="M0 0 C0.99 0.33 1.98 0.66 3 1 C2.67 2.32 2.34 3.64 2 5 C1.01 4.67 0.02 4.34 -1 4 C-0.67 2.68 -0.34 1.36 0 0 Z " fill="#c81e1e" transform="translate(136,94)"/>
<path d="M0 0 C0.27908203 0.08121094 0.27908203 0.08121094 1.69140625 0.4921875 C7.24500276 1.71379079 13.51693163 1.46215157 19 0 C18.875 1.875 18.875 1.875 18 4 C13.81564241 5.99255123 9.57328559 6.70594341 5 6 C2.82948831 5.17472852 1.01594121 4.18006314 -1 3 C-0.67 2.01 -0.34 1.02 0 0 Z " fill="#c81e1e" transform="translate(108,137)"/>
</svg>
