<?xml version="1.0" encoding="UTF-8"?>
<svg version="1.1" xmlns="http://www.w3.org/2000/svg" width="229" height="229" viewBox="0 0 229 229">
<defs>
<filter id="glow">
<feGaussianBlur stdDeviation="4" result="blur"/>
<feMerge>
<feMergeNode in="blur"/>
<feMergeNode in="blur"/>
<feMergeNode in="SourceGraphic"/>
</feMerge>
</filter>
</defs>
<g transform="translate(34.35,34.35) scale(0.7)">
<g transform="translate(2,2)">
<path d="M0 0 C11.83001614 9.48763357 17.22639759 22.92067232 19.125 37.63818359 C20.19279066 48.40273109 19.995393 59.362787 17.34765625 69.8828125 C19.32765625 70.2128125 21.30765625 70.5428125 23.34765625 70.8828125 C23.75740908 75.01186022 22.26714196 78.49608005 20.91015625 82.3203125 C18.97327374 87.83798621 17.46861294 93.02580021 16.97265625 98.8828125 C16.45721091 103.15134426 15.14326339 106.24334511 11.91015625 109.1953125 C9.97599106 110.04634519 8.44077501 109.93009034 6.34765625 109.8828125 C3.78057999 121.52633698 2.54368018 132.05271283 8.34765625 142.8828125 C10.88607813 146.64950303 13.75465323 149.18806024 17.34765625 151.8828125 C16.97169416 154.66493194 16.67447166 156.4707409 14.91015625 158.6953125 C13.34765625 159.8828125 13.34765625 159.8828125 11.34765625 159.8828125 C11.67975098 160.60645996 12.0118457 161.33010742 12.35400391 162.07568359 C29.34765625 199.26366578 29.34765625 199.26366578 29.34765625 206.8828125 C27.46875 206.67578125 27.46875 206.67578125 25.34765625 205.8828125 C24.2578125 203.87109375 24.2578125 203.87109375 23.41015625 201.1953125 C23.07878662 200.19838379 22.74741699 199.20145508 22.40600586 198.17431641 C22.05675049 197.08812012 21.70749512 196.00192383 21.34765625 194.8828125 C18.18041535 185.4911074 14.56322946 176.44850483 10.28515625 167.5078125 C9.81529297 166.50621094 9.34542969 165.50460938 8.86132812 164.47265625 C5.38140399 157.32186564 1.19093745 151.15997499 -3.65234375 144.8828125 C-3.68730957 145.13188354 -3.68730957 145.13188354 -3.86425781 146.39233398 C-7.33261015 170.50630451 -7.33261015 170.50630451 -15.65234375 177.8828125 C-20.12321361 180.63701925 -24.55564758 180.38439212 -29.65234375 179.8828125 C-35.11103064 178.09824179 -38.60919266 174.65461746 -41.65234375 169.8828125 C-44.45507885 163.60381681 -45.07304772 157.15742495 -45.44140625 150.3515625 C-45.65234375 147.8828125 -45.65234375 147.8828125 -46.65234375 145.8828125 C-50.74188563 151.08712933 -54.31208094 156.34129551 -57.40234375 162.1953125 C-57.61149414 162.59121582 -57.61149414 162.59121582 -58.66992188 164.59472656 C-65.42722986 177.86261518 -70.8278889 192.49953664 -74.65234375 206.8828125 C-75.97234375 206.8828125 -77.29234375 206.8828125 -78.65234375 206.8828125 C-73.69157426 185.85859895 -65.08821769 157.65202248 -48.453125 142.9375 C-45.54413872 139.61835297 -46.17945745 136.63583338 -46.3203125 132.39453125 C-46.90297911 124.99360594 -47.92259779 116.36932721 -51.65234375 109.8828125 C-52.51859375 110.1303125 -53.38484375 110.3778125 -54.27734375 110.6328125 C-57.8907241 110.9004703 -59.40932697 110.37872548 -62.26171875 108.171875 C-65.33609316 105.32203355 -67.34450613 102.87165108 -68 98.63671875 C-68.23034401 92.53761 -68.23034401 92.53761 -65.9765625 89.984375 C-65.53957031 89.29085937 -65.10257813 88.59734375 -64.65234375 87.8828125 C-65.48828125 85.0078125 -65.48828125 85.0078125 -67.02734375 81.8828125 C-69.71981237 76.35979995 -69.71981237 76.35979995 -69.31640625 73.5078125 C-69.09726563 72.9715625 -68.878125 72.4353125 -68.65234375 71.8828125 C-67.99234375 71.8828125 -67.33234375 71.8828125 -66.65234375 71.8828125 C-66.78511719 71.34914063 -66.91789062 70.81546875 -67.0546875 70.265625 C-71.5302075 51.38350412 -71.97458463 30.46114581 -61.921875 13.40625 C-55.94075851 3.84367289 -48.10817455 -3.61027072 -37.33984375 -7.4921875 C-24.4422803 -10.3918739 -10.96317358 -7.09486681 0 0 Z M-23.65234375 55.8828125 C-24.31234375 58.5228125 -24.97234375 61.1628125 -25.65234375 63.8828125 C-28.54871356 64.60690495 -30.75430403 65.04095608 -33.65625 65.19921875 C-34.0265332 65.22016602 -34.0265332 65.22016602 -35.90039062 65.32617188 C-36.66416016 65.36548828 -37.42792969 65.40480469 -38.21484375 65.4453125 C-38.98248047 65.48849609 -39.75011719 65.53167969 -40.54101562 65.57617188 C-49.37918103 66.06161601 -49.37918103 66.06161601 -53.65234375 64.8828125 C-53.65234375 66.2028125 -53.65234375 67.5228125 -53.65234375 68.8828125 C-52.36079195 68.90984498 -51.06907822 68.92922328 -49.77734375 68.9453125 C-49.05804688 68.95691406 -48.33875 68.96851562 -47.59765625 68.98046875 C-45.65234375 68.8828125 -45.65234375 68.8828125 -43.65234375 67.8828125 C-37.83531091 67.15568339 -32.79515941 69.22908088 -27.65234375 71.8828125 C-26.65218188 73.88313623 -26.15838367 75.71406998 -25.65234375 77.8828125 C-23.67234375 77.5528125 -21.69234375 77.2228125 -19.65234375 76.8828125 C-19.55953125 76.41875 -19.55953125 76.41875 -19.08984375 74.0703125 C-17.41787919 70.36291281 -17.41787919 70.36291281 -14.58984375 69.0078125 C-10.33507516 67.47286434 -6.11581785 67.60953858 -1.65234375 67.8828125 C-1.81734375 67.5528125 -1.81734375 67.5528125 -2.65234375 65.8828125 C-5.11450723 65.62144895 -7.4958384 65.46134027 -9.96484375 65.3828125 C-18.74857287 65.09865761 -18.74857287 65.09865761 -21.65234375 62.8828125 C-22.4817965 60.53269638 -22.46611482 58.39690301 -22.65234375 55.8828125 C-22.98234375 55.8828125 -23.31234375 55.8828125 -23.65234375 55.8828125 Z M5.34765625 64.8828125 C3.69765625 65.5428125 2.04765625 66.2028125 0.34765625 66.8828125 C0.34765625 67.2128125 0.34765625 67.5428125 0.34765625 67.8828125 C2.32765625 67.8828125 4.30765625 67.8828125 6.34765625 67.8828125 C6.01765625 66.8928125 5.68765625 65.9028125 5.34765625 64.8828125 Z M-14.65234375 73.8828125 C-14.78515625 75.625 -14.78515625 75.625 -14.77734375 77.7578125 C-14.77992187 78.45648438 -14.7825 79.15515625 -14.78515625 79.875 C-14.65234375 81.8828125 -14.65234375 81.8828125 -13.65234375 84.8828125 C-6.50407877 86.16672417 -6.50407877 86.16672417 -3.21484375 85.0703125 C-1.65234375 83.8828125 -1.65234375 83.8828125 -0.65234375 81.8828125 C-0.51953125 80.2265625 -0.51953125 80.2265625 -0.52734375 78.3828125 C-0.52476562 77.774375 -0.5221875 77.1659375 -0.51953125 76.5390625 C-0.65234375 74.8828125 -0.65234375 74.8828125 -1.65234375 72.8828125 C-3.63143773 72.85594697 -5.61063346 72.83647875 -7.58984375 72.8203125 C-8.14091797 72.81451172 -8.14091797 72.81451172 -10.9296875 72.78515625 C-13.65234375 72.8828125 -13.65234375 72.8828125 -14.65234375 73.8828125 Z M1.34765625 72.8828125 C1.41726562 73.54667969 1.486875 74.21054688 1.55859375 74.89453125 C1.984688 81.84392559 1.984688 81.84392559 0.2578125 84.66015625 C-2.5104505 87.19344732 -4.76894539 88.1570396 -8.52734375 88.1953125 C-9.55859375 88.0921875 -10.58984375 87.9890625 -11.65234375 87.8828125 C-10.44577487 91.26120538 -8.54351124 93.27417667 -5.51171875 95.1953125 C-1.95089807 96.51191847 1.73426403 95.77284806 5.34765625 94.8828125 C6.34765625 93.8828125 6.34765625 93.8828125 6.46118164 91.84155273 C6.45856323 91.40427856 6.45856323 91.40427856 6.4453125 89.19140625 C6.44370117 88.71928711 6.44370117 88.71928711 6.43554688 86.33007812 C6.42716797 85.33685547 6.41878906 84.34363281 6.41015625 83.3203125 C6.40564453 82.32322266 6.40113281 81.32613281 6.39648438 80.29882812 C6.38465632 77.82676401 6.36817474 75.35481732 6.34765625 72.8828125 C4.69765625 72.8828125 3.04765625 72.8828125 1.34765625 72.8828125 Z M-54.65234375 73.8828125 C-54.65234375 80.1528125 -54.65234375 86.4228125 -54.65234375 92.8828125 C-49.5051399 95.45641443 -45.32282284 95.68585723 -39.65234375 94.8828125 C-37.0391548 93.65724714 -35.3114676 92.24387336 -33.65234375 89.8828125 C-32.77734375 87.0703125 -32.77734375 87.0703125 -32.65234375 84.8828125 C-33.31234375 85.3778125 -33.97234375 85.8728125 -34.65234375 86.3828125 C-38.47447803 88.29387964 -41.45729402 88.75396194 -45.65234375 87.8828125 C-48.09724842 86.66623734 -49.4564316 85.34201214 -50.65234375 82.8828125 C-51.04499899 79.83336014 -50.95180955 76.93736369 -50.65234375 73.8828125 C-51.97234375 73.8828125 -53.29234375 73.8828125 -54.65234375 73.8828125 Z M-47.65234375 73.8828125 C-49.07276196 76.72364891 -48.96686647 78.73758528 -48.65234375 81.8828125 C-47.03516329 84.3409268 -45.86875772 85.58082574 -42.96875 86.30078125 C-41.02330462 86.45558013 -39.53932689 86.38629988 -37.65234375 85.8828125 C-34.57364884 83.19882207 -33.73156979 81.70676328 -33.33984375 77.6328125 C-33.65234375 74.8828125 -33.65234375 74.8828125 -34.65234375 73.8828125 C-36.85101385 73.80981548 -39.01741874 73.79021079 -41.21484375 73.8203125 C-41.52260742 73.82256836 -41.52260742 73.82256836 -43.08007812 73.83398438 C-44.60420778 73.84579933 -46.1282877 73.8637353 -47.65234375 73.8828125 Z M16.34765625 73.8828125 C15.68765625 77.5128125 15.02765625 81.1428125 14.34765625 84.8828125 C16.66060445 82.5698643 16.843466 81.40376375 17.47265625 78.2578125 C17.64023438 77.44054687 17.8078125 76.62328125 17.98046875 75.78125 C18.10164063 75.15476562 18.2228125 74.52828125 18.34765625 73.8828125 C17.68765625 73.8828125 17.02765625 73.8828125 16.34765625 73.8828125 Z M-27.65234375 81.8828125 C-27.96171875 83.2853125 -28.27109375 84.6878125 -28.58984375 86.1328125 C-29.10450573 88.46594683 -29.61301113 90.75509718 -30.31640625 93.0390625 C-30.42726562 93.6475 -30.538125 94.2559375 -30.65234375 94.8828125 C-29.08984375 97.1328125 -29.08984375 97.1328125 -26.65234375 98.8828125 C-23.50711653 99.19733522 -21.49318016 99.30323071 -18.65234375 97.8828125 C-18.31211589 95.88397381 -17.97905278 93.88390528 -17.65234375 91.8828125 C-16.99234375 91.2228125 -16.33234375 90.5628125 -15.65234375 89.8828125 C-15.96171875 89.4909375 -16.27109375 89.0990625 -16.58984375 88.6953125 C-17.89356986 86.47130914 -18.24226693 84.41161954 -18.65234375 81.8828125 C-21.62234375 81.8828125 -24.59234375 81.8828125 -27.65234375 81.8828125 Z M13.34765625 84.8828125 C14.34765625 87.8828125 14.34765625 87.8828125 14.34765625 87.8828125 Z M-61.65234375 92.8828125 C-62.64234375 93.2128125 -63.63234375 93.5428125 -64.65234375 93.8828125 C-65.17602377 99.38145275 -63.96113271 101.69816764 -60.65234375 105.8828125 C-57.90637115 107.2557988 -55.69343905 107.00693884 -52.65234375 106.8828125 C-51.66234375 106.5528125 -50.67234375 106.2228125 -49.65234375 105.8828125 C-49.0128459 107.31392177 -48.39183048 108.75328708 -47.77734375 110.1953125 C-47.42929688 110.99582031 -47.08125 111.79632813 -46.72265625 112.62109375 C-43.3263362 122.97119316 -43.09594353 133.78091966 -42.54785156 144.56347656 C-41.3640135 167.31706129 -41.3640135 167.31706129 -35.65234375 173.8828125 C-31.74538546 176.67633738 -27.30848132 177.45177466 -22.5703125 177.22265625 C-18.5085527 176.50295543 -16.00305541 174.62271226 -13.5 171.3984375 C-6.49979198 159.45846004 -6.90629956 142.30143974 -5.96484375 128.8828125 C-5.83480527 127.12493908 -5.70395008 125.36712588 -5.57226562 123.609375 C-5.25624708 119.36781961 -4.95114612 115.125614 -4.65234375 110.8828125 C-11.83382476 107.92427372 -18.41606579 107.72554714 -26.08984375 107.7578125 C-26.5477832 107.75587891 -26.5477832 107.75587891 -28.86523438 107.74609375 C-33.90244947 107.75332593 -38.68791277 108.02240218 -43.65234375 108.8828125 C-42.65234375 106.8828125 -42.65234375 106.8828125 -40.93408203 106.27050781 C-36.17846678 105.46247047 -31.33855344 105.65508662 -26.52734375 105.6328125 C-25.43679687 105.6121875 -24.34625 105.5915625 -23.22265625 105.5703125 C-16.85150678 105.53982853 -11.70642781 106.11994526 -5.77783203 108.52832031 C-3.65234375 108.8828125 -3.65234375 108.8828125 -1.37451172 107.46386719 C-1.090354 107.20299316 -1.090354 107.20299316 0.34765625 105.8828125 C0.67765625 106.0478125 0.67765625 106.0478125 2.34765625 106.8828125 C8.50326542 107.45277631 8.50326542 107.45277631 11.84765625 105.1953125 C13.34765625 102.8828125 13.34765625 102.8828125 13.09765625 100.1328125 C12.85015625 99.3903125 12.60265625 98.6478125 12.34765625 97.8828125 C9.34765625 96.8828125 9.34765625 96.8828125 7.28515625 97.8203125 C2.16279758 99.67308053 -3.28108015 99.50140301 -8.52734375 98.1328125 C-10.98550645 96.68683444 -12.74977685 94.99677572 -14.65234375 92.8828125 C-14.84570312 93.37652344 -15.0390625 93.87023437 -15.23828125 94.37890625 C-15.49867187 95.01957031 -15.7590625 95.66023438 -16.02734375 96.3203125 C-16.28257813 96.95839844 -16.5378125 97.59648438 -16.80078125 98.25390625 C-17.65234375 99.8828125 -17.65234375 99.8828125 -19.65234375 100.8828125 C-23.07099312 101.41108061 -26.34025531 101.77841463 -29.2890625 99.765625 C-30.65234375 98.3828125 -30.65234375 98.3828125 -32.65234375 95.8828125 C-32.94947266 95.99689453 -32.94947266 95.99689453 -34.453125 96.57421875 C-41.40491674 98.98518229 -48.69387135 100.24823147 -55.609375 96.94921875 C-57.21484375 95.8828125 -57.21484375 95.8828125 -59.65234375 93.8828125 C-60.31234375 93.5528125 -60.97234375 93.2228125 -61.65234375 92.8828125 Z " fill="#142d7a" transform="translate(139.65234375,22.1171875)"/>
<path d="M0 0 C0.99 0.33 1.98 0.66 3 1 C2.67 1.66 2.34 2.32 2 3 C1.01 2.67 0.02 2.34 -1 2 C-0.67 1.34 -0.34 0.68 0 0 Z " fill="#142d7a" transform="translate(98,99)"/>
<path d="M0 0 C0.99 0.33 1.98 0.66 3 1 C2.67 1.66 2.34 2.32 2 3 C1.34 3 0.68 3 0 3 C0 2.01 0 1.02 0 0 Z " fill="#142d7a" transform="translate(130,99)"/>
<path d="M0 0 C3.63 0 7.26 0 11 0 C11 0.99 11 1.98 11 3 C7.04 3 3.08 3 -1 3 C-0.67 2.01 -0.34 1.02 0 0 Z " fill="#142d7a" transform="translate(111,131)"/>
<path d="M0 0 C0.804375 0.350625 1.60875 0.70125 2.4375 1.0625 C6.65909367 2.51019279 10.68512635 1.709557 15 1 C15 4 15 4 13.9375 5.1875 C10.39833865 6.67166444 6.76738204 6.6675919 3.2109375 5.32421875 C1.77693804 4.60721902 0.38363669 3.80993367 -1 3 C-0.67 2.01 -0.34 1.02 0 0 Z " fill="#142d7a" transform="translate(108,148)"/>
</g>
<g filter="url(#glow)">
<path d="M0 0 C11.83001614 9.48763357 17.22639759 22.92067232 19.125 37.63818359 C20.19279066 48.40273109 19.995393 59.362787 17.34765625 69.8828125 C19.32765625 70.2128125 21.30765625 70.5428125 23.34765625 70.8828125 C23.75740908 75.01186022 22.26714196 78.49608005 20.91015625 82.3203125 C18.97327374 87.83798621 17.46861294 93.02580021 16.97265625 98.8828125 C16.45721091 103.15134426 15.14326339 106.24334511 11.91015625 109.1953125 C9.97599106 110.04634519 8.44077501 109.93009034 6.34765625 109.8828125 C3.78057999 121.52633698 2.54368018 132.05271283 8.34765625 142.8828125 C10.88607813 146.64950303 13.75465323 149.18806024 17.34765625 151.8828125 C16.97169416 154.66493194 16.67447166 156.4707409 14.91015625 158.6953125 C13.34765625 159.8828125 13.34765625 159.8828125 11.34765625 159.8828125 C11.67975098 160.60645996 12.0118457 161.33010742 12.35400391 162.07568359 C29.34765625 199.26366578 29.34765625 199.26366578 29.34765625 206.8828125 C27.46875 206.67578125 27.46875 206.67578125 25.34765625 205.8828125 C24.2578125 203.87109375 24.2578125 203.87109375 23.41015625 201.1953125 C23.07878662 200.19838379 22.74741699 199.20145508 22.40600586 198.17431641 C22.05675049 197.08812012 21.70749512 196.00192383 21.34765625 194.8828125 C18.18041535 185.4911074 14.56322946 176.44850483 10.28515625 167.5078125 C9.81529297 166.50621094 9.34542969 165.50460938 8.86132812 164.47265625 C5.38140399 157.32186564 1.19093745 151.15997499 -3.65234375 144.8828125 C-3.68730957 145.13188354 -3.68730957 145.13188354 -3.86425781 146.39233398 C-7.33261015 170.50630451 -7.33261015 170.50630451 -15.65234375 177.8828125 C-20.12321361 180.63701925 -24.55564758 180.38439212 -29.65234375 179.8828125 C-35.11103064 178.09824179 -38.60919266 174.65461746 -41.65234375 169.8828125 C-44.45507885 163.60381681 -45.07304772 157.15742495 -45.44140625 150.3515625 C-45.65234375 147.8828125 -45.65234375 147.8828125 -46.65234375 145.8828125 C-50.74188563 151.08712933 -54.31208094 156.34129551 -57.40234375 162.1953125 C-57.61149414 162.59121582 -57.61149414 162.59121582 -58.66992188 164.59472656 C-65.42722986 177.86261518 -70.8278889 192.49953664 -74.65234375 206.8828125 C-75.97234375 206.8828125 -77.29234375 206.8828125 -78.65234375 206.8828125 C-73.69157426 185.85859895 -65.08821769 157.65202248 -48.453125 142.9375 C-45.54413872 139.61835297 -46.17945745 136.63583338 -46.3203125 132.39453125 C-46.90297911 124.99360594 -47.92259779 116.36932721 -51.65234375 109.8828125 C-52.51859375 110.1303125 -53.38484375 110.3778125 -54.27734375 110.6328125 C-57.8907241 110.9004703 -59.40932697 110.37872548 -62.26171875 108.171875 C-65.33609316 105.32203355 -67.34450613 102.87165108 -68 98.63671875 C-68.23034401 92.53761 -68.23034401 92.53761 -65.9765625 89.984375 C-65.53957031 89.29085937 -65.10257813 88.59734375 -64.65234375 87.8828125 C-65.48828125 85.0078125 -65.48828125 85.0078125 -67.02734375 81.8828125 C-69.71981237 76.35979995 -69.71981237 76.35979995 -69.31640625 73.5078125 C-69.09726563 72.9715625 -68.878125 72.4353125 -68.65234375 71.8828125 C-67.99234375 71.8828125 -67.33234375 71.8828125 -66.65234375 71.8828125 C-66.78511719 71.34914063 -66.91789062 70.81546875 -67.0546875 70.265625 C-71.5302075 51.38350412 -71.97458463 30.46114581 -61.921875 13.40625 C-55.94075851 3.84367289 -48.10817455 -3.61027072 -37.33984375 -7.4921875 C-24.4422803 -10.3918739 -10.96317358 -7.09486681 0 0 Z M-23.65234375 55.8828125 C-24.31234375 58.5228125 -24.97234375 61.1628125 -25.65234375 63.8828125 C-28.54871356 64.60690495 -30.75430403 65.04095608 -33.65625 65.19921875 C-34.0265332 65.22016602 -34.0265332 65.22016602 -35.90039062 65.32617188 C-36.66416016 65.36548828 -37.42792969 65.40480469 -38.21484375 65.4453125 C-38.98248047 65.48849609 -39.75011719 65.53167969 -40.54101562 65.57617188 C-49.37918103 66.06161601 -49.37918103 66.06161601 -53.65234375 64.8828125 C-53.65234375 66.2028125 -53.65234375 67.5228125 -53.65234375 68.8828125 C-52.36079195 68.90984498 -51.06907822 68.92922328 -49.77734375 68.9453125 C-49.05804688 68.95691406 -48.33875 68.96851562 -47.59765625 68.98046875 C-45.65234375 68.8828125 -45.65234375 68.8828125 -43.65234375 67.8828125 C-37.83531091 67.15568339 -32.79515941 69.22908088 -27.65234375 71.8828125 C-26.65218188 73.88313623 -26.15838367 75.71406998 -25.65234375 77.8828125 C-23.67234375 77.5528125 -21.69234375 77.2228125 -19.65234375 76.8828125 C-19.55953125 76.41875 -19.55953125 76.41875 -19.08984375 74.0703125 C-17.41787919 70.36291281 -17.41787919 70.36291281 -14.58984375 69.0078125 C-10.33507516 67.47286434 -6.11581785 67.60953858 -1.65234375 67.8828125 C-1.81734375 67.5528125 -1.81734375 67.5528125 -2.65234375 65.8828125 C-5.11450723 65.62144895 -7.4958384 65.46134027 -9.96484375 65.3828125 C-18.74857287 65.09865761 -18.74857287 65.09865761 -21.65234375 62.8828125 C-22.4817965 60.53269638 -22.46611482 58.39690301 -22.65234375 55.8828125 C-22.98234375 55.8828125 -23.31234375 55.8828125 -23.65234375 55.8828125 Z M5.34765625 64.8828125 C3.69765625 65.5428125 2.04765625 66.2028125 0.34765625 66.8828125 C0.34765625 67.2128125 0.34765625 67.5428125 0.34765625 67.8828125 C2.32765625 67.8828125 4.30765625 67.8828125 6.34765625 67.8828125 C6.01765625 66.8928125 5.68765625 65.9028125 5.34765625 64.8828125 Z M-14.65234375 73.8828125 C-14.78515625 75.625 -14.78515625 75.625 -14.77734375 77.7578125 C-14.77992187 78.45648438 -14.7825 79.15515625 -14.78515625 79.875 C-14.65234375 81.8828125 -14.65234375 81.8828125 -13.65234375 84.8828125 C-6.50407877 86.16672417 -6.50407877 86.16672417 -3.21484375 85.0703125 C-1.65234375 83.8828125 -1.65234375 83.8828125 -0.65234375 81.8828125 C-0.51953125 80.2265625 -0.51953125 80.2265625 -0.52734375 78.3828125 C-0.52476562 77.774375 -0.5221875 77.1659375 -0.51953125 76.5390625 C-0.65234375 74.8828125 -0.65234375 74.8828125 -1.65234375 72.8828125 C-3.63143773 72.85594697 -5.61063346 72.83647875 -7.58984375 72.8203125 C-8.14091797 72.81451172 -8.14091797 72.81451172 -10.9296875 72.78515625 C-13.65234375 72.8828125 -13.65234375 72.8828125 -14.65234375 73.8828125 Z M1.34765625 72.8828125 C1.41726562 73.54667969 1.486875 74.21054688 1.55859375 74.89453125 C1.984688 81.84392559 1.984688 81.84392559 0.2578125 84.66015625 C-2.5104505 87.19344732 -4.76894539 88.1570396 -8.52734375 88.1953125 C-9.55859375 88.0921875 -10.58984375 87.9890625 -11.65234375 87.8828125 C-10.44577487 91.26120538 -8.54351124 93.27417667 -5.51171875 95.1953125 C-1.95089807 96.51191847 1.73426403 95.77284806 5.34765625 94.8828125 C6.34765625 93.8828125 6.34765625 93.8828125 6.46118164 91.84155273 C6.45856323 91.40427856 6.45856323 91.40427856 6.4453125 89.19140625 C6.44370117 88.71928711 6.44370117 88.71928711 6.43554688 86.33007812 C6.42716797 85.33685547 6.41878906 84.34363281 6.41015625 83.3203125 C6.40564453 82.32322266 6.40113281 81.32613281 6.39648438 80.29882812 C6.38465632 77.82676401 6.36817474 75.35481732 6.34765625 72.8828125 C4.69765625 72.8828125 3.04765625 72.8828125 1.34765625 72.8828125 Z M-54.65234375 73.8828125 C-54.65234375 80.1528125 -54.65234375 86.4228125 -54.65234375 92.8828125 C-49.5051399 95.45641443 -45.32282284 95.68585723 -39.65234375 94.8828125 C-37.0391548 93.65724714 -35.3114676 92.24387336 -33.65234375 89.8828125 C-32.77734375 87.0703125 -32.77734375 87.0703125 -32.65234375 84.8828125 C-33.31234375 85.3778125 -33.97234375 85.8728125 -34.65234375 86.3828125 C-38.47447803 88.29387964 -41.45729402 88.75396194 -45.65234375 87.8828125 C-48.09724842 86.66623734 -49.4564316 85.34201214 -50.65234375 82.8828125 C-51.04499899 79.83336014 -50.95180955 76.93736369 -50.65234375 73.8828125 C-51.97234375 73.8828125 -53.29234375 73.8828125 -54.65234375 73.8828125 Z M-47.65234375 73.8828125 C-49.07276196 76.72364891 -48.96686647 78.73758528 -48.65234375 81.8828125 C-47.03516329 84.3409268 -45.86875772 85.58082574 -42.96875 86.30078125 C-41.02330462 86.45558013 -39.53932689 86.38629988 -37.65234375 85.8828125 C-34.57364884 83.19882207 -33.73156979 81.70676328 -33.33984375 77.6328125 C-33.65234375 74.8828125 -33.65234375 74.8828125 -34.65234375 73.8828125 C-36.85101385 73.80981548 -39.01741874 73.79021079 -41.21484375 73.8203125 C-41.52260742 73.82256836 -41.52260742 73.82256836 -43.08007812 73.83398438 C-44.60420778 73.84579933 -46.1282877 73.8637353 -47.65234375 73.8828125 Z M16.34765625 73.8828125 C15.68765625 77.5128125 15.02765625 81.1428125 14.34765625 84.8828125 C16.66060445 82.5698643 16.843466 81.40376375 17.47265625 78.2578125 C17.64023438 77.44054687 17.8078125 76.62328125 17.98046875 75.78125 C18.10164063 75.15476562 18.2228125 74.52828125 18.34765625 73.8828125 C17.68765625 73.8828125 17.02765625 73.8828125 16.34765625 73.8828125 Z M-27.65234375 81.8828125 C-27.96171875 83.2853125 -28.27109375 84.6878125 -28.58984375 86.1328125 C-29.10450573 88.46594683 -29.61301113 90.75509718 -30.31640625 93.0390625 C-30.42726562 93.6475 -30.538125 94.2559375 -30.65234375 94.8828125 C-29.08984375 97.1328125 -29.08984375 97.1328125 -26.65234375 98.8828125 C-23.50711653 99.19733522 -21.49318016 99.30323071 -18.65234375 97.8828125 C-18.31211589 95.88397381 -17.97905278 93.88390528 -17.65234375 91.8828125 C-16.99234375 91.2228125 -16.33234375 90.5628125 -15.65234375 89.8828125 C-15.96171875 89.4909375 -16.27109375 89.0990625 -16.58984375 88.6953125 C-17.89356986 86.47130914 -18.24226693 84.41161954 -18.65234375 81.8828125 C-21.62234375 81.8828125 -24.59234375 81.8828125 -27.65234375 81.8828125 Z M13.34765625 84.8828125 C14.34765625 87.8828125 14.34765625 87.8828125 14.34765625 87.8828125 Z M-61.65234375 92.8828125 C-62.64234375 93.2128125 -63.63234375 93.5428125 -64.65234375 93.8828125 C-65.17602377 99.38145275 -63.96113271 101.69816764 -60.65234375 105.8828125 C-57.90637115 107.2557988 -55.69343905 107.00693884 -52.65234375 106.8828125 C-51.66234375 106.5528125 -50.67234375 106.2228125 -49.65234375 105.8828125 C-49.0128459 107.31392177 -48.39183048 108.75328708 -47.77734375 110.1953125 C-47.42929688 110.99582031 -47.08125 111.79632813 -46.72265625 112.62109375 C-43.3263362 122.97119316 -43.09594353 133.78091966 -42.54785156 144.56347656 C-41.3640135 167.31706129 -41.3640135 167.31706129 -35.65234375 173.8828125 C-31.74538546 176.67633738 -27.30848132 177.45177466 -22.5703125 177.22265625 C-18.5085527 176.50295543 -16.00305541 174.62271226 -13.5 171.3984375 C-6.49979198 159.45846004 -6.90629956 142.30143974 -5.96484375 128.8828125 C-5.83480527 127.12493908 -5.70395008 125.36712588 -5.57226562 123.609375 C-5.25624708 119.36781961 -4.95114612 115.125614 -4.65234375 110.8828125 C-11.83382476 107.92427372 -18.41606579 107.72554714 -26.08984375 107.7578125 C-26.5477832 107.75587891 -26.5477832 107.75587891 -28.86523438 107.74609375 C-33.90244947 107.75332593 -38.68791277 108.02240218 -43.65234375 108.8828125 C-42.65234375 106.8828125 -42.65234375 106.8828125 -40.93408203 106.27050781 C-36.17846678 105.46247047 -31.33855344 105.65508662 -26.52734375 105.6328125 C-25.43679687 105.6121875 -24.34625 105.5915625 -23.22265625 105.5703125 C-16.85150678 105.53982853 -11.70642781 106.11994526 -5.77783203 108.52832031 C-3.65234375 108.8828125 -3.65234375 108.8828125 -1.37451172 107.46386719 C-1.090354 107.20299316 -1.090354 107.20299316 0.34765625 105.8828125 C0.67765625 106.0478125 0.67765625 106.0478125 2.34765625 106.8828125 C8.50326542 107.45277631 8.50326542 107.45277631 11.84765625 105.1953125 C13.34765625 102.8828125 13.34765625 102.8828125 13.09765625 100.1328125 C12.85015625 99.3903125 12.60265625 98.6478125 12.34765625 97.8828125 C9.34765625 96.8828125 9.34765625 96.8828125 7.28515625 97.8203125 C2.16279758 99.67308053 -3.28108015 99.50140301 -8.52734375 98.1328125 C-10.98550645 96.68683444 -12.74977685 94.99677572 -14.65234375 92.8828125 C-14.84570312 93.37652344 -15.0390625 93.87023437 -15.23828125 94.37890625 C-15.49867187 95.01957031 -15.7590625 95.66023438 -16.02734375 96.3203125 C-16.28257813 96.95839844 -16.5378125 97.59648438 -16.80078125 98.25390625 C-17.65234375 99.8828125 -17.65234375 99.8828125 -19.65234375 100.8828125 C-23.07099312 101.41108061 -26.34025531 101.77841463 -29.2890625 99.765625 C-30.65234375 98.3828125 -30.65234375 98.3828125 -32.65234375 95.8828125 C-32.94947266 95.99689453 -32.94947266 95.99689453 -34.453125 96.57421875 C-41.40491674 98.98518229 -48.69387135 100.24823147 -55.609375 96.94921875 C-57.21484375 95.8828125 -57.21484375 95.8828125 -59.65234375 93.8828125 C-60.31234375 93.5528125 -60.97234375 93.2228125 -61.65234375 92.8828125 Z " fill="#1e40af" transform="translate(139.65234375,22.1171875)"/>
<path d="M0 0 C0.99 0.33 1.98 0.66 3 1 C2.67 1.66 2.34 2.32 2 3 C1.01 2.67 0.02 2.34 -1 2 C-0.67 1.34 -0.34 0.68 0 0 Z " fill="#1e40af" transform="translate(98,99)"/>
<path d="M0 0 C0.99 0.33 1.98 0.66 3 1 C2.67 1.66 2.34 2.32 2 3 C1.34 3 0.68 3 0 3 C0 2.01 0 1.02 0 0 Z " fill="#1e40af" transform="translate(130,99)"/>
<path d="M0 0 C3.63 0 7.26 0 11 0 C11 0.99 11 1.98 11 3 C7.04 3 3.08 3 -1 3 C-0.67 2.01 -0.34 1.02 0 0 Z " fill="#1e40af" transform="translate(111,131)"/>
<path d="M0 0 C0.804375 0.350625 1.60875 0.70125 2.4375 1.0625 C6.65909367 2.51019279 10.68512635 1.709557 15 1 C15 4 15 4 13.9375 5.1875 C10.39833865 6.67166444 6.76738204 6.6675919 3.2109375 5.32421875 C1.77693804 4.60721902 0.38363669 3.80993367 -1 3 C-0.67 2.01 -0.34 1.02 0 0 Z " fill="#1e40af" transform="translate(108,148)"/>
</g>
</g>
</svg>
