<?xml version="1.0" encoding="UTF-8"?>
<!-- Generator: visioncortex VTracer 0.6.12 -->
<svg version="1.1" xmlns="http://www.w3.org/2000/svg" width="229" height="229" viewBox="0 0 229 229">
<g transform="translate(45.8,45.8) scale(0.6)">
<path d="M0 0 C12.13521146 11.46666057 18.28238723 26.91847647 18.8984375 43.51171875 C18.97541308 46.38349983 19.02795552 49.25443171 19.06835938 52.12695312 C19.21554393 57.31431109 19.49055284 60.56268407 22.58984375 64.8984375 C23.3342116 68.75163581 23.19765296 71.93607291 21.08984375 75.2734375 C18.79729221 79.2854027 19.19096647 83.37271451 19.58984375 87.8984375 C19.91984375 88.8884375 20.24984375 89.8784375 20.58984375 90.8984375 C19.99171875 90.9190625 19.39359375 90.9396875 18.77734375 90.9609375 C16.58984375 91.8984375 16.58984375 91.8984375 15.76171875 93.48828125 C15.27695977 94.74917031 14.82167287 96.02183743 14.3984375 97.3046875 C13.58984375 98.8984375 13.58984375 98.8984375 10.58984375 99.8984375 C9.40234375 101.4609375 9.40234375 101.4609375 8.58984375 102.8984375 C6.93984375 102.2384375 5.28984375 101.5784375 3.58984375 100.8984375 C3.48027344 101.44371094 3.37070313 101.98898438 3.2578125 102.55078125 C2.21852937 107.49371322 0.89095762 112.13866728 -0.921875 116.85546875 C-1.52346384 119.37251647 -1.43548481 120.51687888 -0.41015625 122.8984375 C1.5234375 124.90625 1.5234375 124.90625 4.02734375 127.0234375 C4.94571925 127.82356368 5.86233652 128.62571162 6.77734375 129.4296875 C7.2465625 129.83960938 7.71578125 130.24953125 8.19921875 130.671875 C26.14131569 146.4972077 39.54933243 168.03891172 46.58984375 190.8984375 C46.58984375 191.5584375 46.58984375 192.2184375 46.58984375 192.8984375 C44.70385742 192.64282227 44.70385742 192.64282227 42.58984375 191.8984375 C41.54418945 190.20288086 41.54418945 190.20288086 40.765625 187.98828125 C40.46414551 187.17109619 40.16266602 186.35391113 39.85205078 185.51196289 C39.53864746 184.62887451 39.22524414 183.74578613 38.90234375 182.8359375 C33.26361965 167.93625375 25.80977283 155.10523503 15.58984375 142.8984375 C15.20296387 142.43179688 14.81608398 141.96515625 14.41748047 141.484375 C9.37327381 135.45630046 3.98490958 130.4641819 -2.41015625 125.8984375 C-2.90515625 126.5996875 -3.40015625 127.3009375 -3.91015625 128.0234375 C-10.10963136 135.6220997 -18.7211394 140.03421129 -28.43457031 141.12597656 C-41.75500268 142.09263505 -52.06079992 139.65558516 -62.41015625 130.8984375 C-63.40847528 130.10465212 -64.40822972 129.31266455 -65.41015625 128.5234375 C-65.74015625 128.2553125 -65.74015625 128.2553125 -67.41015625 126.8984375 C-89.55544094 142.57130807 -103.08496812 167.99594646 -112.41015625 192.8984375 C-113.40015625 192.8984375 -114.39015625 192.8984375 -115.41015625 192.8984375 C-114.84742761 188.60936169 -113.82333054 185.16750453 -111.96875 181.265625 C-111.72550491 180.75134445 -111.48225983 180.2370639 -111.23164368 179.7071991 C-110.44655108 178.05781208 -109.64861863 176.41517075 -108.84765625 174.7734375 C-108.71196228 174.4929808 -108.71196228 174.4929808 -108.02526855 173.07369995 C-104.06256085 164.90511173 -99.95439435 157.12345516 -94.41015625 149.8984375 C-93.76691406 149.04894531 -93.12367187 148.19945312 -92.4609375 147.32421875 C-90.4945408 144.80151336 -88.47423872 142.34171694 -86.41015625 139.8984375 C-85.68828125 139.04121094 -84.96640625 138.18398437 -84.22265625 137.30078125 C-79.41561427 131.76767564 -74.37525108 127.15720497 -68.41015625 122.8984375 C-68.56162109 122.36887451 -68.71308594 121.83931152 -68.86914062 121.29370117 C-69.55354 118.89224906 -70.23190859 116.48913394 -70.91015625 114.0859375 C-71.14863281 113.25255859 -71.38710937 112.41917969 -71.6328125 111.56054688 C-71.85839844 110.75810547 -72.08398438 109.95566406 -72.31640625 109.12890625 C-72.42114258 108.75971069 -72.42114258 108.75971069 -72.95117188 106.89135742 C-73.41015625 104.8984375 -73.41015625 104.8984375 -73.41015625 101.8984375 C-74.40015625 102.0634375 -74.40015625 102.0634375 -79.41015625 102.8984375 C-79.41015625 101.2484375 -79.41015625 99.5984375 -79.41015625 97.8984375 C-80.21453125 97.9190625 -81.01890625 97.9396875 -81.84765625 97.9609375 C-84.41015625 97.8984375 -84.41015625 97.8984375 -85.41015625 96.8984375 C-85.45096408 94.89885386 -85.45269981 92.89798496 -85.41015625 90.8984375 C-86.73015625 90.8984375 -88.05015625 90.8984375 -89.41015625 90.8984375 C-89.38695313 90.05539063 -89.36375 89.21234375 -89.33984375 88.34375 C-89.32179688 87.24804688 -89.30375 86.15234375 -89.28515625 85.0234375 C-89.26195313 83.93289062 -89.23875 82.84234375 -89.21484375 81.71875 C-89.41015625 78.8984375 -89.41015625 78.8984375 -91.41015625 76.8984375 C-92.87642134 70.96722984 -92.54476417 66.50880266 -90.10546875 61.00390625 C-89.27034861 58.4750874 -89.2777832 56.43249527 -89.34765625 53.7734375 C-89.85405949 34.47680873 -83.66692615 14.87568986 -70.38427734 0.65771484 C-63.33999466 -6.44995846 -55.1963406 -11.02570521 -45.41015625 -13.1015625 C-44.76820312 -13.24335938 -44.12625 -13.38515625 -43.46484375 -13.53125 C-27.03587317 -16.34960897 -12.22569767 -10.66033282 0 0 Z M-32.41015625 30.8984375 C-32.41273437 31.44113281 -32.4153125 31.98382813 -32.41796875 32.54296875 C-32.53916113 34.78502774 -32.77417595 36.74293381 -33.41015625 38.8984375 C-37.99215967 42.42305552 -43.80409158 42.95670727 -49.41015625 43.8984375 C-49.41015625 44.5584375 -49.41015625 45.2184375 -49.41015625 45.8984375 C-51.67911745 46.42896079 -53.94968943 46.94812035 -56.22265625 47.4609375 C-56.86525391 47.61240234 -57.50785156 47.76386719 -58.16992188 47.91992188 C-61.43570055 48.6475306 -63.1734362 48.97734418 -66.41015625 47.8984375 C-67.21453125 47.7953125 -68.01890625 47.6921875 -68.84765625 47.5859375 C-72.00582472 46.73862401 -73.20419921 45.24490136 -75.41015625 42.8984375 C-75.25417969 43.66027344 -75.09820312 44.42210937 -74.9375 45.20703125 C-72.91022218 55.96100166 -73.4411693 63.12224457 -78.41015625 72.8984375 C-78.74015625 72.8984375 -79.07015625 72.8984375 -79.41015625 72.8984375 C-79.74015625 71.2484375 -80.07015625 69.5984375 -80.41015625 67.8984375 C-80.88453125 67.8365625 -80.88453125 67.8365625 -83.28515625 67.5234375 C-86.41015625 66.8984375 -86.41015625 66.8984375 -88.41015625 64.8984375 C-89.57024417 69.65479797 -89.6666631 73.51881336 -87.41015625 77.8984375 C-84.92971651 79.84256595 -82.96617985 80.76087419 -79.91650391 81.51538086 C-76.18786082 83.57292645 -75.77084016 86.26756898 -74.62109375 90.21484375 C-74.39112701 90.94533432 -74.16116028 91.67582489 -73.92422485 92.42845154 C-73.1924597 94.76727583 -72.48842809 97.11340646 -71.78515625 99.4609375 C-71.30522382 101.01424109 -70.82347147 102.56698361 -70.33984375 104.11914062 C-67.0867638 114.59308023 -67.0867638 114.59308023 -65.5456543 119.84399414 C-63.49561232 126.55579432 -60.31939119 130.0202285 -54.41015625 133.8984375 C-43.98308369 139.19401799 -32.06636662 139.60294957 -20.97265625 136.2734375 C-15.3532288 134.35939671 -9.27809701 131.12050275 -6.22227478 125.84942627 C-5.30859576 123.50247256 -4.57437643 121.16212649 -3.890625 118.73828125 C-3.62051102 117.87078751 -3.35039703 117.00329376 -3.07209778 116.10951233 C-2.22079892 113.35893013 -1.40792207 110.59885465 -0.59765625 107.8359375 C0.23779186 105.07223562 1.08109396 102.31114183 1.93034363 99.551651 C2.4542662 97.84058291 2.96899233 96.12666336 3.47309875 94.40965271 C6.47645849 84.39399844 6.47645849 84.39399844 10.52734375 81.52734375 C11.20796875 81.17542969 11.88859375 80.82351562 12.58984375 80.4609375 C16.66191308 78.0656026 18.11994022 76.40001706 19.58984375 71.8984375 C19.90234375 68.6484375 19.90234375 68.6484375 19.58984375 65.8984375 C18.92984375 65.2384375 18.26984375 64.5784375 17.58984375 63.8984375 C16.92984375 65.2184375 16.26984375 66.5384375 15.58984375 67.8984375 C14.59984375 67.8984375 13.60984375 67.8984375 12.58984375 67.8984375 C12.09484375 68.0634375 12.09484375 68.0634375 9.58984375 68.8984375 C9.58984375 70.8784375 9.58984375 72.8584375 9.58984375 74.8984375 C7.58984375 73.8984375 7.58984375 73.8984375 6.58984375 71.08984375 C6.2472788 69.88279023 5.91451204 68.67292737 5.58984375 67.4609375 C5.41614258 66.83364746 5.24244141 66.20635742 5.06347656 65.56005859 C3.65776759 60.38689135 2.51464625 55.17954653 1.58984375 49.8984375 C0.29863601 49.84438694 -0.99321852 49.805621 -2.28515625 49.7734375 C-3.00445312 49.75023438 -3.72375 49.72703125 -4.46484375 49.703125 C-6.41015625 49.8984375 -6.41015625 49.8984375 -8.41015625 51.8984375 C-8.18328125 52.0840625 -8.18328125 52.0840625 -7.03515625 53.0234375 C-3.80052108 56.75570885 -3.19574056 60.59812993 -3.53515625 65.3984375 C-4.22359371 70.25847815 -5.90439367 73.85147652 -9.796875 77.03125 C-12.8386327 78.66628683 -16.07845761 78.57686807 -19.41015625 77.8984375 C-23.53847852 73.87596965 -24.58840062 70.84260775 -24.72265625 65.2109375 C-24.68246954 58.51583162 -23.090657 54.57893825 -18.41015625 49.8984375 C-18.74015625 49.5684375 -18.74015625 49.5684375 -20.41015625 47.8984375 C-20.24515625 47.4034375 -20.24515625 47.4034375 -19.41015625 44.8984375 C-19.95285156 44.72570312 -20.49554688 44.55296875 -21.0546875 44.375 C-24.6645977 42.95705329 -26.87796789 42.00441852 -28.609375 38.40625 C-29.33351007 35.91239948 -29.94230681 33.45211569 -30.41015625 30.8984375 C-31.07015625 30.8984375 -31.73015625 30.8984375 -32.41015625 30.8984375 Z M-58.41015625 38.8984375 C-58.74015625 40.8784375 -59.07015625 42.8584375 -59.41015625 44.8984375 C-57.43015625 44.5684375 -55.45015625 44.2384375 -53.41015625 43.8984375 C-55.06015625 42.2484375 -56.71015625 40.5984375 -58.41015625 38.8984375 Z M-9.41015625 41.8984375 C-10.44028902 43.54664994 -11.44130253 45.21347452 -12.41015625 46.8984375 C-11.09015625 46.8984375 -9.77015625 46.8984375 -8.41015625 46.8984375 C-8.41015625 45.2484375 -8.41015625 43.5984375 -8.41015625 41.8984375 C-8.74015625 41.8984375 -9.07015625 41.8984375 -9.41015625 41.8984375 Z M-20.41015625 54.8984375 C-23.22709722 59.32505903 -22.97655271 64.82585748 -22.41015625 69.8984375 C-21.24583556 72.37894679 -20.31589673 73.99269702 -18.41015625 75.8984375 C-12.33252092 76.47179932 -12.33252092 76.47179932 -9.09765625 74.4609375 C-6.29838774 70.21019643 -4.89505556 65.73394413 -5.8203125 60.640625 C-7.15175886 56.69721556 -8.54096457 53.83303334 -12.41015625 51.8984375 C-16.08733718 51.8984375 -17.48091814 52.72028608 -20.41015625 54.8984375 Z M-85.41015625 59.8984375 C-85.74015625 60.8884375 -86.07015625 61.8784375 -86.41015625 62.8984375 C-84.43015625 63.8884375 -82.45015625 64.8784375 -80.41015625 65.8984375 C-80.74015625 64.2484375 -81.07015625 62.5984375 -81.41015625 60.8984375 C-82.73015625 60.5684375 -84.05015625 60.2384375 -85.41015625 59.8984375 Z M11.58984375 59.8984375 C9.46484375 64.5234375 9.46484375 64.5234375 10.58984375 67.8984375 C11.20859375 67.0940625 11.82734375 66.2896875 12.46484375 65.4609375 C14.58984375 62.8984375 14.58984375 62.8984375 16.58984375 61.8984375 C16.58984375 61.2384375 16.58984375 60.5784375 16.58984375 59.8984375 C14.93984375 59.8984375 13.28984375 59.8984375 11.58984375 59.8984375 Z " fill="#1e40af" transform="translate(149.41015625,36.1015625)"/>
<path d="M0 0 C3.79202511 1.41098609 5.40403281 3.30675151 7.3125 6.75 C10.22031299 13.18956965 9.13746189 18.45402297 7 25 C7.33 25.33 7.66 25.66 8 26 C8.29245992 27.18985106 8.53555936 28.39200166 8.75390625 29.59765625 C8.88603516 30.31630859 9.01816406 31.03496094 9.15429688 31.77539062 C9.28900391 32.53013672 9.42371094 33.28488281 9.5625 34.0625 C9.70107422 34.82111328 9.83964844 35.57972656 9.98242188 36.36132812 C10.32512329 38.24027727 10.6641513 40.11981596 11 42 C12.26954846 42.19601104 13.54072846 42.38147306 14.8125 42.5625 C15.52019531 42.66691406 16.22789063 42.77132812 16.95703125 42.87890625 C19 43 19 43 22 42 C24.16628678 37.18602938 24.55917295 32.22032031 25 27 C25.99 27 26.98 27 28 27 C28.33000502 33.18453852 28.42942174 37.72396656 25 43 C24.34 43.66 23.68 44.32 23 45 C29.93777107 44.50322133 36.34206192 42.97871431 43 41 C43 41.99 43 42.98 43 44 C26.01677829 51.74014087 8.02248797 51.19892021 -10 48 C-10.165 47.505 -10.165 47.505 -11 45 C-3.74 45.33 3.52 45.66 11 46 C9.68 45.01 8.36 44.02 7 43 C6.27050781 41.2824707 6.27050781 41.2824707 5.953125 39.42578125 C5.83066406 38.75869141 5.70820312 38.09160156 5.58203125 37.40429688 C5.47246094 36.71400391 5.36289063 36.02371094 5.25 35.3125 C5.12496094 34.61060547 4.99992187 33.90871094 4.87109375 33.18554688 C4.56582445 31.45960119 4.28089846 29.73007916 4 28 C3.08347656 28.5053125 2.16695312 29.010625 1.22265625 29.53125 C-1.29610568 30.78508629 -2.78965937 31.40868994 -5.5625 30.5 C-9.35234634 29.14708368 -11.44920201 27.07596228 -14 24 C-15.77379285 18.67862145 -16.18291919 11.78545754 -13.8125 6.5625 C-10.00047127 1.17308007 -6.53778024 -1.18732101 0 0 Z M-8.9375 5.25 C-12.44858358 9.93144477 -12.55883907 14.34416323 -12 20 C-11.25083053 22.34966787 -10.36473168 23.9004128 -9 26 C-5.79807128 27.60096436 -2.51399059 27.38242608 1 27 C3.77851739 25.42550681 4.07213527 23.81605507 5.25 20.8125 C6.56213187 15.59705148 5.74237582 11.05245079 3.9375 6.0625 C1.43459211 3.39811418 -0.40635314 2.97777823 -3.99609375 2.7265625 C-6.34670542 3.04730873 -7.24204066 3.61880005 -8.9375 5.25 Z " fill="#1e40af" transform="translate(98,85)"/>
<path d="M0 0 C0.99 0.99 1.98 1.98 3 3 C2.505 3.33 2.505 3.33 0 5 C-0.5625 3.0625 -0.5625 3.0625 -1 1 C-0.67 0.67 -0.34 0.34 0 0 Z " fill="#1e40af" transform="translate(94,99)"/>
<path d="M0 0 C0.99 0 1.98 0 3 0 C2.67 1.32 2.34 2.64 2 4 C1.01 3.67 0.02 3.34 -1 3 C-0.67 2.01 -0.34 1.02 0 0 Z " fill="#1e40af" transform="translate(134,100)"/>
<path d="M0 0 C0.67417969 0.16371094 1.34835938 0.32742187 2.04296875 0.49609375 C5.51317896 1.08745058 8.80275809 1.10948934 12.3125 1.0625 C12.95767578 1.05798828 13.60285156 1.05347656 14.26757812 1.04882812 C15.84509277 1.03714283 17.42255906 1.01921105 19 1 C19 1.99 19 2.98 19 4 C11.75289981 6.10302072 6.9166056 6.10746049 0 3 C0 2.01 0 1.02 0 0 Z " fill="#1e40af" transform="translate(105,147)"/>
<path d="M0 0 C0.66 0.33 1.32 0.66 2 1 C1.01 4.96 0.02 8.92 -1 13 C-2.32 13.33 -3.64 13.66 -5 14 C-4.54857225 12.22739369 -4.08859477 10.4569632 -3.625 8.6875 C-3.36976562 7.70136719 -3.11453125 6.71523437 -2.8515625 5.69921875 C-2.12671519 3.40165229 -1.46882213 1.87115167 0 0 Z " fill="#1e40af" transform="translate(66,215)"/>
<path d="M0 0 C4.75612527 3.60809503 5.60804595 8.47436423 7 14 C5.140625 13.87890625 5.140625 13.87890625 3 13 C1.734375 10.27734375 1.734375 10.27734375 0.75 6.9375 C0.41484375 5.83277344 0.0796875 4.72804687 -0.265625 3.58984375 C-0.38679687 3.16251953 -0.38679687 3.16251953 -1 1 C-0.67 0.67 -0.34 0.34 0 0 Z " fill="#1e40af" transform="translate(162,215)"/>
</g>
</svg>
