<?xml version="1.0" encoding="UTF-8"?>
<svg version="1.1" xmlns="http://www.w3.org/2000/svg" width="229" height="229" viewBox="0 0 229 229">
<defs>
<filter id="glow">
<feGaussianBlur stdDeviation="4" result="blur"/>
<feMerge>
<feMergeNode in="blur"/>
<feMergeNode in="blur"/>
<feMergeNode in="SourceGraphic"/>
</feMerge>
</filter>
</defs>
<g transform="translate(34.35,34.35) scale(0.7)">
<g transform="translate(2,2)">
<path d="M0 0 C6.85409644 5.59740871 10.25925014 11.17145449 12.546875 19.578125 C13.88903813 24.4369055 16.03388411 28.63695417 18.359375 33.078125 C21.42575698 39.00839204 23.76205437 44.3347345 24.296875 51.078125 C24.33683594 51.45195313 24.33683594 51.45195313 24.5390625 53.34375 C24.90067904 59.76776156 23.33396445 65.54326565 21.45654297 71.63330078 C20.87890625 73.63671875 20.87890625 73.63671875 20.296875 77.078125 C21.68359375 79.05078125 21.68359375 79.05078125 23.296875 80.078125 C21.976875 80.408125 20.656875 80.738125 19.296875 81.078125 C19.296875 82.068125 19.296875 83.058125 19.296875 84.078125 C19.895 84.284375 20.493125 84.490625 21.109375 84.703125 C24.0803822 86.57061524 25.3116665 88.79889088 26.296875 92.078125 C26.73267963 95.56456201 26.99284937 98.74558871 25.3359375 101.91796875 C23.53379169 105.66453503 23.44548425 109.79414657 22.95703125 113.88671875 C21.99751883 118.52530839 20.54700078 121.23501691 16.609375 123.890625 C16.2278125 124.0865625 16.2278125 124.0865625 14.296875 125.078125 C14.6990625 125.201875 14.6990625 125.201875 16.734375 125.828125 C19.296875 127.078125 19.296875 127.078125 20.234375 128.890625 C20.31441789 131.69212629 19.33826206 133.47465735 18.296875 136.078125 C17.74634476 138.1538084 17.22608222 140.23772572 16.734375 142.328125 C15.40692285 147.96807715 15.40692285 147.96807715 14.296875 149.078125 C12.20598329 162.57063136 12.20598329 162.57063136 15.046875 166.578125 C15.789375 167.403125 16.531875 168.228125 17.296875 169.078125 C17.73257813 170.00238281 18.16828125 170.92664063 18.6171875 171.87890625 C20.32803864 175.41401722 22.70777457 177.96480908 25.421875 180.765625 C37.642096 193.7221271 37.642096 193.7221271 42.296875 201.078125 C37.96378309 200.75802271 36.13232756 199.31346121 33.35131836 196.22973633 C32.90022705 195.70532959 32.44913574 195.18092285 31.984375 194.640625 C31.50943604 194.10655029 31.03449707 193.57247559 30.54516602 193.0222168 C26.81712659 188.79125262 23.28774636 184.41549785 19.85546875 179.94140625 C18.296875 178.078125 18.296875 178.078125 16.296875 177.078125 C16.235 177.861875 16.173125 178.645625 16.109375 179.453125 C15.29513745 184.30365443 13.10014146 189.06590266 10.296875 193.078125 C8.12890625 193.87109375 8.12890625 193.87109375 6.296875 194.078125 C4.53121751 189.44033132 2.83080678 184.7979151 1.296875 180.078125 C1.99929927 187.24285256 3.60464927 194.09636351 5.296875 201.078125 C3.976875 201.078125 2.656875 201.078125 1.296875 201.078125 C0.62532151 198.80863398 -0.0405213 196.5377289 -0.703125 194.265625 C-0.89390625 193.62302734 -1.0846875 192.98042969 -1.28125 192.31835938 C-2.10929562 189.4645593 -2.703125 187.06672068 -2.703125 184.078125 C-5.343125 184.408125 -7.983125 184.738125 -10.703125 185.078125 C-10.69152344 185.89796875 -10.67992187 186.7178125 -10.66796875 187.5625 C-10.65894531 188.64015625 -10.64992188 189.7178125 -10.640625 190.828125 C-10.62902344 191.89546875 -10.61742187 192.9628125 -10.60546875 194.0625 C-10.68802413 196.61181001 -10.95694942 198.65746091 -11.703125 201.078125 C-12.693125 201.078125 -13.683125 201.078125 -14.703125 201.078125 C-14.70723389 200.57885498 -14.71134277 200.07958496 -14.71557617 199.56518555 C-14.74852565 197.29747065 -14.81915713 195.03243927 -14.890625 192.765625 C-14.89642578 191.97994141 -14.90222656 191.19425781 -14.90820312 190.38476562 C-14.99295919 188.1716907 -15.11552428 186.21490639 -15.703125 184.078125 C-18.25390625 182.03515625 -18.25390625 182.03515625 -20.703125 181.078125 C-20.74050781 181.68140625 -20.77789062 182.2846875 -20.81640625 182.90625 C-21.46938159 190.84438159 -21.46938159 190.84438159 -24.703125 194.078125 C-36.37499925 193.81875002 -46.35565253 183.68218212 -53.99560547 175.73339844 C-61.22615992 168.03205515 -61.22615992 168.03205515 -62.703125 165.078125 C-66.26501613 165.69447954 -68.39186005 167.12446645 -71.23046875 169.32421875 C-72.09889404 169.99187256 -72.96731934 170.65952637 -73.86206055 171.34741211 C-74.78841204 172.06994037 -75.71459693 172.79268227 -76.640625 173.515625 C-77.59177463 174.2512876 -78.54335596 174.98639238 -79.49536133 175.72094727 C-81.37748886 177.17427379 -83.25702144 178.63085925 -85.13476562 180.08984375 C-87.28786436 181.75665327 -89.4503668 183.40835735 -91.625 185.046875 C-100.00211042 191.37358446 -100.00211042 191.37358446 -103.53515625 194.68359375 C-103.98673096 195.10648682 -104.43830566 195.52937988 -104.90356445 195.96508789 C-106.11133527 197.11568076 -107.29877194 198.28751529 -108.484375 199.4609375 C-111.11708336 201.37984817 -112.51732535 201.42587074 -115.703125 201.078125 C-114.5509028 199.9259028 -113.39810697 198.77425092 -112.24316406 197.62475586 C-111.20504694 196.5821953 -110.17587199 195.5306634 -109.15527344 194.47094727 C-105.04599569 190.24711885 -100.73264126 186.60037441 -96.015625 183.078125 C-95.29810059 182.53124023 -94.58057617 181.98435547 -93.84130859 181.42089844 C-89.69837003 178.2749237 -85.50462756 175.21748989 -81.25390625 172.21875 C-80.35051514 171.57035156 -79.44712402 170.92195312 -78.51635742 170.25390625 C-76.76307102 168.99789652 -74.9966953 167.75990236 -73.21606445 166.54296875 C-67.5335365 162.44450581 -64.94782867 159.02243251 -63.703125 152.078125 C-62.59212935 143.99617625 -63.64680323 133.76126333 -68.703125 127.078125 C-69.425 127.284375 -70.146875 127.490625 -70.890625 127.703125 C-74.26344852 128.1528348 -75.7254615 127.68148227 -78.703125 126.078125 C-81.41901035 123.73944595 -82.55973073 122.50830782 -83.703125 119.078125 C-83.79918744 116.7528489 -83.84251625 114.4648116 -83.828125 112.140625 C-83.83005859 111.8302832 -83.83005859 111.8302832 -83.83984375 110.25976562 C-83.82957356 105.43790957 -83.82957356 105.43790957 -82.99609375 103.06640625 C-82.50410295 99.7274287 -84.39135176 97.09021649 -85.890625 94.203125 C-93.47216523 78.59562899 -96.8958568 62.22577907 -92.140625 45.078125 C-87.55357341 32.5679843 -79.95886368 21.01756714 -68.19921875 14.203125 C-61.03113607 10.97243985 -53.18368909 8.30431776 -45.328125 7.6875 C-43.3215332 7.47509766 -43.3215332 7.47509766 -41.703125 7.078125 C-40.43359375 5.2109375 -40.43359375 5.2109375 -39.703125 3.078125 C-29.21169552 -7.00329459 -12.04054387 -8.56061789 0 0 Z M-38.703125 6.015625 C-40.51584724 8.53293892 -41.74527704 11.11750402 -42.703125 14.078125 C-43.05246094 13.5521875 -43.40179688 13.02625 -43.76171875 12.484375 C-45.703125 11.078125 -45.703125 11.078125 -48.92578125 11.484375 C-50.21179651 11.82694242 -51.49170678 12.1930016 -52.765625 12.578125 C-53.4366626 12.77172607 -54.1077002 12.96532715 -54.79907227 13.16479492 C-67.74767112 17.05884197 -77.10453925 23.33766095 -84.1640625 35.0390625 C-91.5392865 49.60232207 -92.55267028 65.8732173 -87.63110352 81.33276367 C-85.66845846 87.12641549 -83.55679075 92.66128643 -80.703125 98.078125 C-80.14625 98.02011719 -79.589375 97.96210937 -79.015625 97.90234375 C-73.22818561 97.56018095 -70.01650372 98.57748593 -65.33203125 101.984375 C-63.703125 103.078125 -63.703125 103.078125 -61.703125 103.078125 C-61.58195312 102.14871094 -61.46078125 101.21929687 -61.3359375 100.26171875 C-59.82211296 88.99788949 -59.82211296 88.99788949 -58.578125 85.328125 C-57.36771497 80.83231631 -56.83481512 76.68684665 -57.703125 72.078125 C-59.36558823 69.36678906 -61.46229369 67.31325445 -63.703125 65.078125 C-66.703125 60.578125 -66.703125 60.578125 -66.703125 58.078125 C-64.723125 57.418125 -62.743125 56.758125 -60.703125 56.078125 C-60.703125 55.088125 -60.703125 54.098125 -60.703125 53.078125 C-59.60675866 52.37825279 -58.50066557 51.69360009 -57.390625 51.015625 C-56.77574219 50.63277344 -56.16085938 50.24992187 -55.52734375 49.85546875 C-53.703125 49.078125 -53.703125 49.078125 -50.703125 50.078125 C-51.858125 50.738125 -51.858125 50.738125 -57.703125 54.078125 C-57.043125 55.728125 -56.383125 57.378125 -55.703125 59.078125 C-56.858125 59.243125 -56.858125 59.243125 -62.703125 60.078125 C-60.43581473 67.08617492 -56.0733103 71.38757129 -49.80859375 75.04296875 C-40.90614353 79.41986913 -32.07124668 78.64364284 -22.7265625 76.11328125 C-11.52766279 72.27903264 -3.21521898 64.77785287 2.109375 54.328125 C8.15934621 41.67253872 11.52068841 26.06875342 6.734375 12.390625 C3.79116222 6.33954418 -0.56944633 2.70232718 -6.765625 0.203125 C-17.16217886 -2.75971543 -31.03353855 -2.58765023 -38.703125 6.015625 Z M12.296875 29.078125 C10.07216085 36.03035671 11.62949231 42.15411966 13.671875 48.890625 C15.52366212 55.24424884 17.19675793 61.54310123 18.296875 68.078125 C18.626875 68.078125 18.956875 68.078125 19.296875 68.078125 C22.53155364 54.19267521 19.75447029 41.53073712 13.296875 29.078125 C12.966875 29.078125 12.636875 29.078125 12.296875 29.078125 Z M9.296875 45.078125 C9.1788855 45.31466797 9.1788855 45.31466797 8.58178711 46.51171875 C2.76163667 58.08714758 -2.47447019 67.97915783 -13.703125 75.078125 C-13.538125 75.573125 -13.538125 75.573125 -12.703125 78.078125 C-13.35539062 78.25988281 -14.00765625 78.44164062 -14.6796875 78.62890625 C-19.64680395 80.05750169 -24.1770191 81.57685595 -28.703125 84.078125 C-28.373125 83.088125 -28.043125 82.098125 -27.703125 81.078125 C-28.404375 81.10132813 -29.105625 81.12453125 -29.828125 81.1484375 C-38.88765381 81.32076549 -45.50223115 79.67925023 -53.703125 76.078125 C-56.00549501 84.01327003 -58.08728732 91.60804301 -58.52734375 99.90625 C-58.703125 102.078125 -58.703125 102.078125 -59.703125 105.078125 C-61.5234375 105.91796875 -61.5234375 105.91796875 -63.703125 106.078125 C-65.6328125 105.08203125 -65.6328125 105.08203125 -67.578125 103.640625 C-71.08558068 101.29141494 -73.38682748 100.25597309 -77.703125 101.078125 C-79.140625 102.390625 -79.140625 102.390625 -79.703125 104.078125 C-79.373125 105.068125 -79.043125 106.058125 -78.703125 107.078125 C-77.713125 106.088125 -76.723125 105.098125 -75.703125 104.078125 C-74.383125 104.738125 -73.063125 105.398125 -71.703125 106.078125 C-72.528125 106.243125 -72.528125 106.243125 -76.703125 107.078125 C-76.703125 108.17125 -76.703125 109.264375 -76.703125 110.390625 C-76.703125 112.61979167 -76.703125 114.84895833 -76.703125 117.078125 C-77.693125 115.098125 -78.683125 113.118125 -79.703125 111.078125 C-81.07600012 114.5103128 -80.52820167 117.12126587 -79.42578125 120.5234375 C-78.703125 122.078125 -78.703125 122.078125 -76.953125 123.578125 C-73.83073763 124.27198886 -71.78073491 123.95744212 -68.703125 123.078125 C-66.84139929 121.87748205 -65.35053917 120.5801791 -63.703125 119.078125 C-63.826875 119.5421875 -63.826875 119.5421875 -64.453125 121.890625 C-65.11416338 126.4363958 -63.43968011 129.68536396 -61.7265625 133.8359375 C-60.69909464 137.09089294 -60.38789954 139.88031292 -60.16357422 143.25683594 C-59.55700803 152.00500173 -59.55700803 152.00500173 -56.96875 155.2578125 C-54.61581564 156.8681541 -52.33257445 157.9792506 -49.703125 159.078125 C-49.27128906 159.29984375 -49.27128906 159.29984375 -47.0859375 160.421875 C-30.60033498 168.64078408 -11.59243689 169.57759144 6.12890625 164.83203125 C8.296875 164.078125 8.296875 164.078125 9.296875 163.078125 C9.36893011 161.39203534 9.38073568 159.70311841 9.359375 158.015625 C9.35035156 157.09652344 9.34132813 156.17742187 9.33203125 155.23046875 C9.32042969 154.52019531 9.30882812 153.80992187 9.296875 153.078125 C5.54859134 152.92819365 2.96222415 152.8322351 -0.578125 154.140625 C-5.37691572 155.58026222 -10.01028978 155.28962551 -14.61328125 153.21875 C-16.265625 152.203125 -16.265625 152.203125 -18.703125 150.078125 C-18.703125 149.088125 -18.703125 148.098125 -18.703125 147.078125 C-17.919375 147.7175 -17.135625 148.356875 -16.328125 149.015625 C-12.12879035 151.80191339 -7.67556298 152.32227089 -2.703125 152.078125 C0.484375 150.640625 0.484375 150.640625 3.296875 149.078125 C5.69590963 148.82405209 7.87617758 148.93288315 10.296875 149.078125 C13.31007084 143.76916089 15.2023294 138.08869004 16.296875 132.078125 C15.966875 131.088125 15.636875 130.098125 15.296875 129.078125 C9.63533654 130.55504808 9.63533654 130.55504808 7.921875 133.203125 C7.715625 133.821875 7.509375 134.440625 7.296875 135.078125 C5.976875 135.078125 4.656875 135.078125 3.296875 135.078125 C3.296875 134.088125 3.296875 133.098125 3.296875 132.078125 C2.90886719 132.10112671 2.90886719 132.10112671 0.9453125 132.2175293 C-1.96914152 132.38207596 -4.88357609 132.53112386 -7.79931641 132.67016602 C-9.05451847 132.73310318 -10.30943887 132.80197838 -11.56396484 132.87719727 C-26.16580575 133.74399977 -26.16580575 133.74399977 -31.703125 130.078125 C-33.203125 127.390625 -33.203125 127.390625 -33.703125 125.078125 C-31.41920492 122.79420492 -31.10974531 122.82485684 -28.0546875 122.79101562 C-27.30630615 122.77760132 -26.5579248 122.76418701 -25.78686523 122.75036621 C-24.97548096 122.74508911 -24.16409668 122.73981201 -23.328125 122.734375 C-22.48902588 122.7197522 -21.64992676 122.70512939 -20.78540039 122.69006348 C-18.09135768 122.64347665 -15.39738653 122.60938093 -12.703125 122.578125 C9.37968582 122.31785615 9.37968582 122.31785615 17.296875 120.078125 C17.956875 117.768125 18.616875 115.458125 19.296875 113.078125 C17.976875 112.088125 16.656875 111.098125 15.296875 110.078125 C15.461875 109.748125 15.461875 109.748125 16.296875 108.078125 C15.905 107.871875 15.905 107.871875 13.921875 106.828125 C11.10270924 104.94868116 10.49801185 104.14648368 9.296875 101.078125 C8.6159033 96.27964998 8.46746446 91.68324274 11.171875 87.515625 C13.296875 85.078125 13.296875 85.078125 15.296875 84.078125 C15.546875 82.265625 15.546875 82.265625 15.296875 80.078125 C13.296875 78.328125 13.296875 78.328125 11.296875 77.078125 C12.616875 77.078125 13.936875 77.078125 15.296875 77.078125 C14.94237643 66.05321941 12.9231525 55.76939227 10.296875 45.078125 C9.966875 45.078125 9.636875 45.078125 9.296875 45.078125 Z M13.546875 88.015625 C11.61694598 91.20000788 11.28245268 94.38601007 11.296875 98.078125 C12.20578778 101.29427793 12.93727628 102.71852628 15.296875 105.078125 C17.99949233 104.8754287 19.68097588 104.6660287 21.671875 102.765625 C22.49313219 100.5482306 22.05427018 99.27457103 21.296875 97.078125 C20.306875 97.078125 19.316875 97.078125 18.296875 97.078125 C18.296875 95.758125 18.296875 94.438125 18.296875 93.078125 C19.616875 93.078125 20.936875 93.078125 22.296875 93.078125 C21.609375 90.640625 21.609375 90.640625 20.296875 88.078125 C17.56176006 86.95602656 16.19277208 86.59818014 13.546875 88.015625 Z M1.53808594 125.16992188 C0.81764099 125.18994263 0.09719604 125.20996338 -0.64508057 125.23059082 C-1.02848602 125.24152771 -1.02848602 125.24152771 -2.96875 125.296875 C-3.76214783 125.31907104 -4.55554565 125.34126709 -5.37298584 125.36413574 C-7.89971388 125.43494311 -10.42641934 125.50652379 -12.953125 125.578125 C-14.6692694 125.62635312 -16.38541522 125.67453079 -18.1015625 125.72265625 C-22.3021 125.84056099 -26.50261742 125.95915913 -30.703125 126.078125 C-28.92977905 128.9934082 -28.92977905 128.9934082 -26.88989258 129.75585938 C-18.43911 131.00125772 -9.90012894 129.77206976 -1.515625 128.578125 C-0.46826172 128.43503906 0.57910156 128.29195312 1.65820312 128.14453125 C4.20540736 127.79559916 6.75149102 127.44005531 9.296875 127.078125 C9.296875 126.418125 9.296875 125.758125 9.296875 125.078125 C6.70843969 125.0697114 4.1254675 125.09703789 1.53808594 125.16992188 Z M3.296875 131.078125 C3.296875 131.408125 3.296875 131.738125 3.296875 132.078125 C4.946875 132.078125 6.596875 132.078125 8.296875 132.078125 C8.296875 131.748125 8.296875 131.418125 8.296875 131.078125 C6.646875 131.078125 4.996875 131.078125 3.296875 131.078125 Z M-61.703125 156.078125 C-62.13394845 159.98425763 -62.03352863 161.62133396 -59.69140625 164.859375 C-58.81415191 165.77983565 -57.92141368 166.68572943 -57.015625 167.578125 C-56.082248 168.54191886 -55.14994206 169.50675121 -54.21875 170.47265625 C-53.99670898 170.69928955 -53.99670898 170.69928955 -52.87304688 171.84619141 C-51.54948195 173.23991191 -50.40251418 174.71724981 -49.265625 176.265625 C-44.03573253 182.6638977 -35.34916691 188.16534713 -27.703125 191.078125 C-27.043125 191.078125 -26.383125 191.078125 -25.703125 191.078125 C-24.86560339 188.12096093 -24.03382469 185.162212 -23.203125 182.203125 C-22.96464844 181.36136719 -22.72617188 180.51960938 -22.48046875 179.65234375 C-22.25488281 178.84667969 -22.02929688 178.04101562 -21.796875 177.2109375 C-21.58740234 176.46730957 -21.37792969 175.72368164 -21.16210938 174.95751953 C-20.703125 173.078125 -20.703125 173.078125 -20.703125 171.078125 C-21.53972656 170.93117187 -22.37632813 170.78421875 -23.23828125 170.6328125 C-35.72273563 168.28789682 -47.18005728 164.14847074 -57.84765625 157.1796875 C-59.703125 156.078125 -59.703125 156.078125 -61.703125 156.078125 Z M5.171875 167.578125 C4.80964844 167.71734375 4.80964844 167.71734375 2.9765625 168.421875 C2.42226562 168.6384375 1.86796875 168.855 1.296875 169.078125 C1.47863281 169.61179688 1.66039062 170.14546875 1.84765625 170.6953125 C3.7904805 176.45404283 5.58071932 182.24806422 7.296875 188.078125 C7.956875 188.078125 8.616875 188.078125 9.296875 188.078125 C14.1851058 176.77835427 14.1851058 176.77835427 14.296875 171.078125 C12.984375 168.140625 12.984375 168.140625 11.296875 166.078125 C8.93143784 166.078125 7.37383236 166.72575441 5.171875 167.578125 Z M-11.828125 170.578125 C-12.73820312 170.6709375 -13.64828125 170.76375 -14.5859375 170.859375 C-14.93527344 170.89546875 -14.93527344 170.89546875 -16.703125 171.078125 C-17.363125 173.058125 -18.023125 175.038125 -18.703125 177.078125 C-16.06063795 180.77760687 -16.06063795 180.77760687 -13.703125 182.078125 C-10.21756706 181.92380259 -7.03131105 181.09273706 -3.703125 180.078125 C-3.67609252 178.7865732 -3.65671422 177.49485947 -3.640625 176.203125 C-3.62902344 175.48382813 -3.61742187 174.76453125 -3.60546875 174.0234375 C-3.703125 172.078125 -3.703125 172.078125 -4.703125 170.078125 C-7.10534783 170.078125 -9.4382847 170.33301317 -11.828125 170.578125 Z M-0.703125 174.078125 C0.296875 176.078125 0.296875 176.078125 0.296875 176.078125 Z " fill="#8b1414" transform="translate(138.703125,27.921875)"/>
<path d="M0 0 C4.27270522 1.89440424 7.28321393 4.61265783 9 9 C9.72734566 13.3199924 10.10960041 17.25634221 7.6875 21.0625 C6.0625 22.875 6.0625 22.875 4.41015625 24.4296875 C2.76086749 26.26629161 2.53320527 27.62699635 2 30 C0 32 0 32 -1.7265625 32.1953125 C-3.484375 32.13020833 -5.2421875 32.06510417 -7 32 C-7 31.01 -7 30.02 -7 29 C-6.34 28.67 -5.68 28.34 -5 28 C-5.9075 27.62875 -6.815 27.2575 -7.75 26.875 C-11.40234198 25.01860869 -13.36695857 22.745894 -15 19 C-16.21855773 14.8185108 -16.3087533 11.89195396 -14.875 7.75 C-10.99089865 2.05331801 -6.8822284 -0.66175273 0 0 Z M-11 8 C-12.60771547 11.21543093 -12.50623316 14.47661724 -12 18 C-10.20636089 20.8100346 -8.98119065 22.50940468 -6 24 C-2.04569274 24.52724097 -0.48094709 24.34200682 2.8125 22 C5.70773593 18.77997799 5.88573559 15.18623262 6 11 C5.566875 11.33 5.13375 11.66 4.6875 12 C3 13 3 13 0 13 C0.33 11.35 0.66 9.7 1 8 C1.99 7.67 2.98 7.34 4 7 C3 5.5 3 5.5 1 4 C-4.27739648 3.02519428 -7.68462484 3.49108978 -11 8 Z M4 8 C5 10 5 10 5 10 Z " fill="#8b1414" transform="translate(123,114)"/>
<path d="M0 0 C0.66 0.33 1.32 0.66 2 1 C1.52173913 7.2173913 1.52173913 7.2173913 -0.625 10.4375 C-3.22126898 12.14557169 -5.1345365 12.63815595 -8.25390625 12.45703125 C-11.56836831 11.58948749 -12.9282792 9.68105045 -15 7 C-15.8125 4.6875 -15.8125 4.6875 -16 3 C-15.01 3 -14.02 3 -13 3 C-12.34 4.32 -11.68 5.64 -11 7 C-8.36 7 -5.72 7 -3 7 C-2.01 4.69 -1.02 2.38 0 0 Z " fill="#8b1414" transform="translate(150,136)"/>
<path d="M0 0 C3 1 3 1 4.16796875 3.21484375 C4.50441406 4.11332031 4.84085938 5.01179687 5.1875 5.9375 C5.35958984 6.38544922 5.35958984 6.38544922 6.23046875 8.65234375 C7 11 7 11 7 13 C5.68 13 4.36 13 3 13 C2.30093058 11.40084119 1.61610532 9.79544955 0.9375 8.1875 C0.55464844 7.29417969 0.17179688 6.40085938 -0.22265625 5.48046875 C-1 3 -1 3 0 0 Z " fill="#8b1414" transform="translate(159,216)"/>
</g>
<g filter="url(#glow)">
<path d="M0 0 C6.85409644 5.59740871 10.25925014 11.17145449 12.546875 19.578125 C13.88903813 24.4369055 16.03388411 28.63695417 18.359375 33.078125 C21.42575698 39.00839204 23.76205437 44.3347345 24.296875 51.078125 C24.33683594 51.45195313 24.33683594 51.45195313 24.5390625 53.34375 C24.90067904 59.76776156 23.33396445 65.54326565 21.45654297 71.63330078 C20.87890625 73.63671875 20.87890625 73.63671875 20.296875 77.078125 C21.68359375 79.05078125 21.68359375 79.05078125 23.296875 80.078125 C21.976875 80.408125 20.656875 80.738125 19.296875 81.078125 C19.296875 82.068125 19.296875 83.058125 19.296875 84.078125 C19.895 84.284375 20.493125 84.490625 21.109375 84.703125 C24.0803822 86.57061524 25.3116665 88.79889088 26.296875 92.078125 C26.73267963 95.56456201 26.99284937 98.74558871 25.3359375 101.91796875 C23.53379169 105.66453503 23.44548425 109.79414657 22.95703125 113.88671875 C21.99751883 118.52530839 20.54700078 121.23501691 16.609375 123.890625 C16.2278125 124.0865625 16.2278125 124.0865625 14.296875 125.078125 C14.6990625 125.201875 14.6990625 125.201875 16.734375 125.828125 C19.296875 127.078125 19.296875 127.078125 20.234375 128.890625 C20.31441789 131.69212629 19.33826206 133.47465735 18.296875 136.078125 C17.74634476 138.1538084 17.22608222 140.23772572 16.734375 142.328125 C15.40692285 147.96807715 15.40692285 147.96807715 14.296875 149.078125 C12.20598329 162.57063136 12.20598329 162.57063136 15.046875 166.578125 C15.789375 167.403125 16.531875 168.228125 17.296875 169.078125 C17.73257813 170.00238281 18.16828125 170.92664063 18.6171875 171.87890625 C20.32803864 175.41401722 22.70777457 177.96480908 25.421875 180.765625 C37.642096 193.7221271 37.642096 193.7221271 42.296875 201.078125 C37.96378309 200.75802271 36.13232756 199.31346121 33.35131836 196.22973633 C32.90022705 195.70532959 32.44913574 195.18092285 31.984375 194.640625 C31.50943604 194.10655029 31.03449707 193.57247559 30.54516602 193.0222168 C26.81712659 188.79125262 23.28774636 184.41549785 19.85546875 179.94140625 C18.296875 178.078125 18.296875 178.078125 16.296875 177.078125 C16.235 177.861875 16.173125 178.645625 16.109375 179.453125 C15.29513745 184.30365443 13.10014146 189.06590266 10.296875 193.078125 C8.12890625 193.87109375 8.12890625 193.87109375 6.296875 194.078125 C4.53121751 189.44033132 2.83080678 184.7979151 1.296875 180.078125 C1.99929927 187.24285256 3.60464927 194.09636351 5.296875 201.078125 C3.976875 201.078125 2.656875 201.078125 1.296875 201.078125 C0.62532151 198.80863398 -0.0405213 196.5377289 -0.703125 194.265625 C-0.89390625 193.62302734 -1.0846875 192.98042969 -1.28125 192.31835938 C-2.10929562 189.4645593 -2.703125 187.06672068 -2.703125 184.078125 C-5.343125 184.408125 -7.983125 184.738125 -10.703125 185.078125 C-10.69152344 185.89796875 -10.67992187 186.7178125 -10.66796875 187.5625 C-10.65894531 188.64015625 -10.64992188 189.7178125 -10.640625 190.828125 C-10.62902344 191.89546875 -10.61742187 192.9628125 -10.60546875 194.0625 C-10.68802413 196.61181001 -10.95694942 198.65746091 -11.703125 201.078125 C-12.693125 201.078125 -13.683125 201.078125 -14.703125 201.078125 C-14.70723389 200.57885498 -14.71134277 200.07958496 -14.71557617 199.56518555 C-14.74852565 197.29747065 -14.81915713 195.03243927 -14.890625 192.765625 C-14.89642578 191.97994141 -14.90222656 191.19425781 -14.90820312 190.38476562 C-14.99295919 188.1716907 -15.11552428 186.21490639 -15.703125 184.078125 C-18.25390625 182.03515625 -18.25390625 182.03515625 -20.703125 181.078125 C-20.74050781 181.68140625 -20.77789062 182.2846875 -20.81640625 182.90625 C-21.46938159 190.84438159 -21.46938159 190.84438159 -24.703125 194.078125 C-36.37499925 193.81875002 -46.35565253 183.68218212 -53.99560547 175.73339844 C-61.22615992 168.03205515 -61.22615992 168.03205515 -62.703125 165.078125 C-66.26501613 165.69447954 -68.39186005 167.12446645 -71.23046875 169.32421875 C-72.09889404 169.99187256 -72.96731934 170.65952637 -73.86206055 171.34741211 C-74.78841204 172.06994037 -75.71459693 172.79268227 -76.640625 173.515625 C-77.59177463 174.2512876 -78.54335596 174.98639238 -79.49536133 175.72094727 C-81.37748886 177.17427379 -83.25702144 178.63085925 -85.13476562 180.08984375 C-87.28786436 181.75665327 -89.4503668 183.40835735 -91.625 185.046875 C-100.00211042 191.37358446 -100.00211042 191.37358446 -103.53515625 194.68359375 C-103.98673096 195.10648682 -104.43830566 195.52937988 -104.90356445 195.96508789 C-106.11133527 197.11568076 -107.29877194 198.28751529 -108.484375 199.4609375 C-111.11708336 201.37984817 -112.51732535 201.42587074 -115.703125 201.078125 C-114.5509028 199.9259028 -113.39810697 198.77425092 -112.24316406 197.62475586 C-111.20504694 196.5821953 -110.17587199 195.5306634 -109.15527344 194.47094727 C-105.04599569 190.24711885 -100.73264126 186.60037441 -96.015625 183.078125 C-95.29810059 182.53124023 -94.58057617 181.98435547 -93.84130859 181.42089844 C-89.69837003 178.2749237 -85.50462756 175.21748989 -81.25390625 172.21875 C-80.35051514 171.57035156 -79.44712402 170.92195312 -78.51635742 170.25390625 C-76.76307102 168.99789652 -74.9966953 167.75990236 -73.21606445 166.54296875 C-67.5335365 162.44450581 -64.94782867 159.02243251 -63.703125 152.078125 C-62.59212935 143.99617625 -63.64680323 133.76126333 -68.703125 127.078125 C-69.425 127.284375 -70.146875 127.490625 -70.890625 127.703125 C-74.26344852 128.1528348 -75.7254615 127.68148227 -78.703125 126.078125 C-81.41901035 123.73944595 -82.55973073 122.50830782 -83.703125 119.078125 C-83.79918744 116.7528489 -83.84251625 114.4648116 -83.828125 112.140625 C-83.83005859 111.8302832 -83.83005859 111.8302832 -83.83984375 110.25976562 C-83.82957356 105.43790957 -83.82957356 105.43790957 -82.99609375 103.06640625 C-82.50410295 99.7274287 -84.39135176 97.09021649 -85.890625 94.203125 C-93.47216523 78.59562899 -96.8958568 62.22577907 -92.140625 45.078125 C-87.55357341 32.5679843 -79.95886368 21.01756714 -68.19921875 14.203125 C-61.03113607 10.97243985 -53.18368909 8.30431776 -45.328125 7.6875 C-43.3215332 7.47509766 -43.3215332 7.47509766 -41.703125 7.078125 C-40.43359375 5.2109375 -40.43359375 5.2109375 -39.703125 3.078125 C-29.21169552 -7.00329459 -12.04054387 -8.56061789 0 0 Z M-38.703125 6.015625 C-40.51584724 8.53293892 -41.74527704 11.11750402 -42.703125 14.078125 C-43.05246094 13.5521875 -43.40179688 13.02625 -43.76171875 12.484375 C-45.703125 11.078125 -45.703125 11.078125 -48.92578125 11.484375 C-50.21179651 11.82694242 -51.49170678 12.1930016 -52.765625 12.578125 C-53.4366626 12.77172607 -54.1077002 12.96532715 -54.79907227 13.16479492 C-67.74767112 17.05884197 -77.10453925 23.33766095 -84.1640625 35.0390625 C-91.5392865 49.60232207 -92.55267028 65.8732173 -87.63110352 81.33276367 C-85.66845846 87.12641549 -83.55679075 92.66128643 -80.703125 98.078125 C-80.14625 98.02011719 -79.589375 97.96210937 -79.015625 97.90234375 C-73.22818561 97.56018095 -70.01650372 98.57748593 -65.33203125 101.984375 C-63.703125 103.078125 -63.703125 103.078125 -61.703125 103.078125 C-61.58195312 102.14871094 -61.46078125 101.21929687 -61.3359375 100.26171875 C-59.82211296 88.99788949 -59.82211296 88.99788949 -58.578125 85.328125 C-57.36771497 80.83231631 -56.83481512 76.68684665 -57.703125 72.078125 C-59.36558823 69.36678906 -61.46229369 67.31325445 -63.703125 65.078125 C-66.703125 60.578125 -66.703125 60.578125 -66.703125 58.078125 C-64.723125 57.418125 -62.743125 56.758125 -60.703125 56.078125 C-60.703125 55.088125 -60.703125 54.098125 -60.703125 53.078125 C-59.60675866 52.37825279 -58.50066557 51.69360009 -57.390625 51.015625 C-56.77574219 50.63277344 -56.16085938 50.24992187 -55.52734375 49.85546875 C-53.703125 49.078125 -53.703125 49.078125 -50.703125 50.078125 C-51.858125 50.738125 -51.858125 50.738125 -57.703125 54.078125 C-57.043125 55.728125 -56.383125 57.378125 -55.703125 59.078125 C-56.858125 59.243125 -56.858125 59.243125 -62.703125 60.078125 C-60.43581473 67.08617492 -56.0733103 71.38757129 -49.80859375 75.04296875 C-40.90614353 79.41986913 -32.07124668 78.64364284 -22.7265625 76.11328125 C-11.52766279 72.27903264 -3.21521898 64.77785287 2.109375 54.328125 C8.15934621 41.67253872 11.52068841 26.06875342 6.734375 12.390625 C3.79116222 6.33954418 -0.56944633 2.70232718 -6.765625 0.203125 C-17.16217886 -2.75971543 -31.03353855 -2.58765023 -38.703125 6.015625 Z M12.296875 29.078125 C10.07216085 36.03035671 11.62949231 42.15411966 13.671875 48.890625 C15.52366212 55.24424884 17.19675793 61.54310123 18.296875 68.078125 C18.626875 68.078125 18.956875 68.078125 19.296875 68.078125 C22.53155364 54.19267521 19.75447029 41.53073712 13.296875 29.078125 C12.966875 29.078125 12.636875 29.078125 12.296875 29.078125 Z M9.296875 45.078125 C9.1788855 45.31466797 9.1788855 45.31466797 8.58178711 46.51171875 C2.76163667 58.08714758 -2.47447019 67.97915783 -13.703125 75.078125 C-13.538125 75.573125 -13.538125 75.573125 -12.703125 78.078125 C-13.35539062 78.25988281 -14.00765625 78.44164062 -14.6796875 78.62890625 C-19.64680395 80.05750169 -24.1770191 81.57685595 -28.703125 84.078125 C-28.373125 83.088125 -28.043125 82.098125 -27.703125 81.078125 C-28.404375 81.10132813 -29.105625 81.12453125 -29.828125 81.1484375 C-38.88765381 81.32076549 -45.50223115 79.67925023 -53.703125 76.078125 C-56.00549501 84.01327003 -58.08728732 91.60804301 -58.52734375 99.90625 C-58.703125 102.078125 -58.703125 102.078125 -59.703125 105.078125 C-61.5234375 105.91796875 -61.5234375 105.91796875 -63.703125 106.078125 C-65.6328125 105.08203125 -65.6328125 105.08203125 -67.578125 103.640625 C-71.08558068 101.29141494 -73.38682748 100.25597309 -77.703125 101.078125 C-79.140625 102.390625 -79.140625 102.390625 -79.703125 104.078125 C-79.373125 105.068125 -79.043125 106.058125 -78.703125 107.078125 C-77.713125 106.088125 -76.723125 105.098125 -75.703125 104.078125 C-74.383125 104.738125 -73.063125 105.398125 -71.703125 106.078125 C-72.528125 106.243125 -72.528125 106.243125 -76.703125 107.078125 C-76.703125 108.17125 -76.703125 109.264375 -76.703125 110.390625 C-76.703125 112.61979167 -76.703125 114.84895833 -76.703125 117.078125 C-77.693125 115.098125 -78.683125 113.118125 -79.703125 111.078125 C-81.07600012 114.5103128 -80.52820167 117.12126587 -79.42578125 120.5234375 C-78.703125 122.078125 -78.703125 122.078125 -76.953125 123.578125 C-73.83073763 124.27198886 -71.78073491 123.95744212 -68.703125 123.078125 C-66.84139929 121.87748205 -65.35053917 120.5801791 -63.703125 119.078125 C-63.826875 119.5421875 -63.826875 119.5421875 -64.453125 121.890625 C-65.11416338 126.4363958 -63.43968011 129.68536396 -61.7265625 133.8359375 C-60.69909464 137.09089294 -60.38789954 139.88031292 -60.16357422 143.25683594 C-59.55700803 152.00500173 -59.55700803 152.00500173 -56.96875 155.2578125 C-54.61581564 156.8681541 -52.33257445 157.9792506 -49.703125 159.078125 C-49.27128906 159.29984375 -49.27128906 159.29984375 -47.0859375 160.421875 C-30.60033498 168.64078408 -11.59243689 169.57759144 6.12890625 164.83203125 C8.296875 164.078125 8.296875 164.078125 9.296875 163.078125 C9.36893011 161.39203534 9.38073568 159.70311841 9.359375 158.015625 C9.35035156 157.09652344 9.34132813 156.17742187 9.33203125 155.23046875 C9.32042969 154.52019531 9.30882812 153.80992187 9.296875 153.078125 C5.54859134 152.92819365 2.96222415 152.8322351 -0.578125 154.140625 C-5.37691572 155.58026222 -10.01028978 155.28962551 -14.61328125 153.21875 C-16.265625 152.203125 -16.265625 152.203125 -18.703125 150.078125 C-18.703125 149.088125 -18.703125 148.098125 -18.703125 147.078125 C-17.919375 147.7175 -17.135625 148.356875 -16.328125 149.015625 C-12.12879035 151.80191339 -7.67556298 152.32227089 -2.703125 152.078125 C0.484375 150.640625 0.484375 150.640625 3.296875 149.078125 C5.69590963 148.82405209 7.87617758 148.93288315 10.296875 149.078125 C13.31007084 143.76916089 15.2023294 138.08869004 16.296875 132.078125 C15.966875 131.088125 15.636875 130.098125 15.296875 129.078125 C9.63533654 130.55504808 9.63533654 130.55504808 7.921875 133.203125 C7.715625 133.821875 7.509375 134.440625 7.296875 135.078125 C5.976875 135.078125 4.656875 135.078125 3.296875 135.078125 C3.296875 134.088125 3.296875 133.098125 3.296875 132.078125 C2.90886719 132.10112671 2.90886719 132.10112671 0.9453125 132.2175293 C-1.96914152 132.38207596 -4.88357609 132.53112386 -7.79931641 132.67016602 C-9.05451847 132.73310318 -10.30943887 132.80197838 -11.56396484 132.87719727 C-26.16580575 133.74399977 -26.16580575 133.74399977 -31.703125 130.078125 C-33.203125 127.390625 -33.203125 127.390625 -33.703125 125.078125 C-31.41920492 122.79420492 -31.10974531 122.82485684 -28.0546875 122.79101562 C-27.30630615 122.77760132 -26.5579248 122.76418701 -25.78686523 122.75036621 C-24.97548096 122.74508911 -24.16409668 122.73981201 -23.328125 122.734375 C-22.48902588 122.7197522 -21.64992676 122.70512939 -20.78540039 122.69006348 C-18.09135768 122.64347665 -15.39738653 122.60938093 -12.703125 122.578125 C9.37968582 122.31785615 9.37968582 122.31785615 17.296875 120.078125 C17.956875 117.768125 18.616875 115.458125 19.296875 113.078125 C17.976875 112.088125 16.656875 111.098125 15.296875 110.078125 C15.461875 109.748125 15.461875 109.748125 16.296875 108.078125 C15.905 107.871875 15.905 107.871875 13.921875 106.828125 C11.10270924 104.94868116 10.49801185 104.14648368 9.296875 101.078125 C8.6159033 96.27964998 8.46746446 91.68324274 11.171875 87.515625 C13.296875 85.078125 13.296875 85.078125 15.296875 84.078125 C15.546875 82.265625 15.546875 82.265625 15.296875 80.078125 C13.296875 78.328125 13.296875 78.328125 11.296875 77.078125 C12.616875 77.078125 13.936875 77.078125 15.296875 77.078125 C14.94237643 66.05321941 12.9231525 55.76939227 10.296875 45.078125 C9.966875 45.078125 9.636875 45.078125 9.296875 45.078125 Z M13.546875 88.015625 C11.61694598 91.20000788 11.28245268 94.38601007 11.296875 98.078125 C12.20578778 101.29427793 12.93727628 102.71852628 15.296875 105.078125 C17.99949233 104.8754287 19.68097588 104.6660287 21.671875 102.765625 C22.49313219 100.5482306 22.05427018 99.27457103 21.296875 97.078125 C20.306875 97.078125 19.316875 97.078125 18.296875 97.078125 C18.296875 95.758125 18.296875 94.438125 18.296875 93.078125 C19.616875 93.078125 20.936875 93.078125 22.296875 93.078125 C21.609375 90.640625 21.609375 90.640625 20.296875 88.078125 C17.56176006 86.95602656 16.19277208 86.59818014 13.546875 88.015625 Z M1.53808594 125.16992188 C0.81764099 125.18994263 0.09719604 125.20996338 -0.64508057 125.23059082 C-1.02848602 125.24152771 -1.02848602 125.24152771 -2.96875 125.296875 C-3.76214783 125.31907104 -4.55554565 125.34126709 -5.37298584 125.36413574 C-7.89971388 125.43494311 -10.42641934 125.50652379 -12.953125 125.578125 C-14.6692694 125.62635312 -16.38541522 125.67453079 -18.1015625 125.72265625 C-22.3021 125.84056099 -26.50261742 125.95915913 -30.703125 126.078125 C-28.92977905 128.9934082 -28.92977905 128.9934082 -26.88989258 129.75585938 C-18.43911 131.00125772 -9.90012894 129.77206976 -1.515625 128.578125 C-0.46826172 128.43503906 0.57910156 128.29195312 1.65820312 128.14453125 C4.20540736 127.79559916 6.75149102 127.44005531 9.296875 127.078125 C9.296875 126.418125 9.296875 125.758125 9.296875 125.078125 C6.70843969 125.0697114 4.1254675 125.09703789 1.53808594 125.16992188 Z M3.296875 131.078125 C3.296875 131.408125 3.296875 131.738125 3.296875 132.078125 C4.946875 132.078125 6.596875 132.078125 8.296875 132.078125 C8.296875 131.748125 8.296875 131.418125 8.296875 131.078125 C6.646875 131.078125 4.996875 131.078125 3.296875 131.078125 Z M-61.703125 156.078125 C-62.13394845 159.98425763 -62.03352863 161.62133396 -59.69140625 164.859375 C-58.81415191 165.77983565 -57.92141368 166.68572943 -57.015625 167.578125 C-56.082248 168.54191886 -55.14994206 169.50675121 -54.21875 170.47265625 C-53.99670898 170.69928955 -53.99670898 170.69928955 -52.87304688 171.84619141 C-51.54948195 173.23991191 -50.40251418 174.71724981 -49.265625 176.265625 C-44.03573253 182.6638977 -35.34916691 188.16534713 -27.703125 191.078125 C-27.043125 191.078125 -26.383125 191.078125 -25.703125 191.078125 C-24.86560339 188.12096093 -24.03382469 185.162212 -23.203125 182.203125 C-22.96464844 181.36136719 -22.72617188 180.51960938 -22.48046875 179.65234375 C-22.25488281 178.84667969 -22.02929688 178.04101562 -21.796875 177.2109375 C-21.58740234 176.46730957 -21.37792969 175.72368164 -21.16210938 174.95751953 C-20.703125 173.078125 -20.703125 173.078125 -20.703125 171.078125 C-21.53972656 170.93117187 -22.37632813 170.78421875 -23.23828125 170.6328125 C-35.72273563 168.28789682 -47.18005728 164.14847074 -57.84765625 157.1796875 C-59.703125 156.078125 -59.703125 156.078125 -61.703125 156.078125 Z M5.171875 167.578125 C4.80964844 167.71734375 4.80964844 167.71734375 2.9765625 168.421875 C2.42226562 168.6384375 1.86796875 168.855 1.296875 169.078125 C1.47863281 169.61179688 1.66039062 170.14546875 1.84765625 170.6953125 C3.7904805 176.45404283 5.58071932 182.24806422 7.296875 188.078125 C7.956875 188.078125 8.616875 188.078125 9.296875 188.078125 C14.1851058 176.77835427 14.1851058 176.77835427 14.296875 171.078125 C12.984375 168.140625 12.984375 168.140625 11.296875 166.078125 C8.93143784 166.078125 7.37383236 166.72575441 5.171875 167.578125 Z M-11.828125 170.578125 C-12.73820312 170.6709375 -13.64828125 170.76375 -14.5859375 170.859375 C-14.93527344 170.89546875 -14.93527344 170.89546875 -16.703125 171.078125 C-17.363125 173.058125 -18.023125 175.038125 -18.703125 177.078125 C-16.06063795 180.77760687 -16.06063795 180.77760687 -13.703125 182.078125 C-10.21756706 181.92380259 -7.03131105 181.09273706 -3.703125 180.078125 C-3.67609252 178.7865732 -3.65671422 177.49485947 -3.640625 176.203125 C-3.62902344 175.48382813 -3.61742187 174.76453125 -3.60546875 174.0234375 C-3.703125 172.078125 -3.703125 172.078125 -4.703125 170.078125 C-7.10534783 170.078125 -9.4382847 170.33301317 -11.828125 170.578125 Z M-0.703125 174.078125 C0.296875 176.078125 0.296875 176.078125 0.296875 176.078125 Z " fill="#c81e1e" transform="translate(138.703125,27.921875)"/>
<path d="M0 0 C4.27270522 1.89440424 7.28321393 4.61265783 9 9 C9.72734566 13.3199924 10.10960041 17.25634221 7.6875 21.0625 C6.0625 22.875 6.0625 22.875 4.41015625 24.4296875 C2.76086749 26.26629161 2.53320527 27.62699635 2 30 C0 32 0 32 -1.7265625 32.1953125 C-3.484375 32.13020833 -5.2421875 32.06510417 -7 32 C-7 31.01 -7 30.02 -7 29 C-6.34 28.67 -5.68 28.34 -5 28 C-5.9075 27.62875 -6.815 27.2575 -7.75 26.875 C-11.40234198 25.01860869 -13.36695857 22.745894 -15 19 C-16.21855773 14.8185108 -16.3087533 11.89195396 -14.875 7.75 C-10.99089865 2.05331801 -6.8822284 -0.66175273 0 0 Z M-11 8 C-12.60771547 11.21543093 -12.50623316 14.47661724 -12 18 C-10.20636089 20.8100346 -8.98119065 22.50940468 -6 24 C-2.04569274 24.52724097 -0.48094709 24.34200682 2.8125 22 C5.70773593 18.77997799 5.88573559 15.18623262 6 11 C5.566875 11.33 5.13375 11.66 4.6875 12 C3 13 3 13 0 13 C0.33 11.35 0.66 9.7 1 8 C1.99 7.67 2.98 7.34 4 7 C3 5.5 3 5.5 1 4 C-4.27739648 3.02519428 -7.68462484 3.49108978 -11 8 Z M4 8 C5 10 5 10 5 10 Z " fill="#c81e1e" transform="translate(123,114)"/>
<path d="M0 0 C0.66 0.33 1.32 0.66 2 1 C1.52173913 7.2173913 1.52173913 7.2173913 -0.625 10.4375 C-3.22126898 12.14557169 -5.1345365 12.63815595 -8.25390625 12.45703125 C-11.56836831 11.58948749 -12.9282792 9.68105045 -15 7 C-15.8125 4.6875 -15.8125 4.6875 -16 3 C-15.01 3 -14.02 3 -13 3 C-12.34 4.32 -11.68 5.64 -11 7 C-8.36 7 -5.72 7 -3 7 C-2.01 4.69 -1.02 2.38 0 0 Z " fill="#c81e1e" transform="translate(150,136)"/>
<path d="M0 0 C3 1 3 1 4.16796875 3.21484375 C4.50441406 4.11332031 4.84085938 5.01179687 5.1875 5.9375 C5.35958984 6.38544922 5.35958984 6.38544922 6.23046875 8.65234375 C7 11 7 11 7 13 C5.68 13 4.36 13 3 13 C2.30093058 11.40084119 1.61610532 9.79544955 0.9375 8.1875 C0.55464844 7.29417969 0.17179688 6.40085938 -0.22265625 5.48046875 C-1 3 -1 3 0 0 Z " fill="#c81e1e" transform="translate(159,216)"/>
</g>
</g>
</svg>
