<?xml version="1.0" encoding="UTF-8"?>
<!-- Generator: visioncortex VTracer 0.6.12 -->
<svg version="1.1" xmlns="http://www.w3.org/2000/svg" width="229" height="229" viewBox="0 0 229 229">
<g transform="translate(45.8,45.8) scale(0.6)">
<path d="M0 0 C0.33 0.165 0.33 0.165 2 1 C2 4.3 2 7.6 2 11 C2.66 11.33 2.66 11.33 6 13 C6.02775643 14.18735835 6.04672572 15.37492202 6.0625 16.5625 C6.06765625 16.92923828 6.06765625 16.92923828 6.09375 18.78515625 C6.00565187 20.86647456 5.61499447 22.50641579 5.0625 24.5 C4.76953125 26.22265625 4.76953125 26.22265625 5 28 C6.56956969 30.18855492 8.35042761 32.04293897 10.20703125 33.9921875 C15.59845409 40.0296414 15.53317671 47.38148187 15.31640625 55.11328125 C15.10055505 58.8780625 14.29779123 62.2366735 13.3125 65.875 C11.95612037 71.06078631 12.09743876 73.77936187 14.16015625 78.6484375 C15.71789342 83.01010159 15.75617711 87.58019567 15.92822266 92.17626953 C15.97819654 93.44601417 16.04137106 94.71527923 16.11474609 95.98388672 C16.22948283 98.00993409 16.30686811 100.03439938 16.375 102.0625 C16.41326904 102.69365723 16.45153809 103.32481445 16.4909668 103.97509766 C16.5234375 105.78515625 16.5234375 105.78515625 16 109 C13.79260103 111.24153401 11.85316403 112.61603985 8.99389648 113.90283203 C6.78257147 115.11964293 5.82181921 116.19986408 4.37109375 118.24609375 C3.89905518 118.90851074 3.4270166 119.57092773 2.94067383 120.25341797 C2.44462646 120.97416504 1.9485791 121.69491211 1.4375 122.4375 C0.91373779 123.1917627 0.38997559 123.94602539 -0.1496582 124.72314453 C-8.1239629 136.38426127 -15.0178519 148.64124572 -21.25 161.3125 C-21.64533936 162.0947998 -22.04067871 162.87709961 -22.44799805 163.68310547 C-24.5820319 168.16589416 -25.5967092 171.05606097 -24 176 C-23.03747316 177.47587449 -22.07056461 178.95038715 -21.0390625 180.37890625 C-19.52470285 182.74153502 -18.69707161 185.24685122 -17.77734375 187.88671875 C-16.98646597 190.03679352 -16.04817787 192.0577612 -15.0625 194.125 C-13.25411212 198.11881416 -11.95624559 202.16963101 -10.75 206.375 C-10.57476807 206.98230957 -10.39953613 207.58961914 -10.21899414 208.21533203 C-9.46831727 210.91928146 -9 213.17662541 -9 216 C-10.90722656 215.73852539 -10.90722656 215.73852539 -13 215 C-13.91308594 213.32592773 -13.91308594 213.32592773 -14.484375 211.18359375 C-14.67741211 210.49579834 -14.87044922 209.80800293 -15.06933594 209.09936523 C-15.29395508 208.22094971 -15.51857422 207.34253418 -15.75 206.4375 C-16.4925 203.653125 -17.235 200.86875 -18 198 C-18.66 203.94 -19.32 209.88 -20 216 C-26.6 216 -33.2 216 -40 216 C-39.47866032 206.61588584 -37.4404651 198.04674738 -35 189 C-35.78761719 189.48082031 -36.57523437 189.96164063 -37.38671875 190.45703125 C-42.06247824 193.21775621 -46.64933699 193.64883455 -52 193 C-58.24364345 191.31229246 -63.1127341 189.19160102 -68 185 C-67.89659302 185.30965698 -67.89659302 185.30965698 -67.37329102 186.87670898 C-66.42715362 189.72734311 -65.49477207 192.58230275 -64.5625 195.4375 C-64.39975586 195.92444336 -64.39975586 195.92444336 -63.57617188 198.38867188 C-63.26357422 199.35224609 -62.95097656 200.31582031 -62.62890625 201.30859375 C-62.4848938 201.74586792 -62.4848938 201.74586792 -61.75610352 203.95874023 C-60.77745831 207.8951249 -60.44793388 211.96859504 -60 216 C-68.91 216 -77.82 216 -87 216 C-87.20625 213.7725 -87.4125 211.545 -87.625 209.25 C-88.59259228 200.91719394 -91.2852038 193.92499892 -96.37890625 187.171875 C-98 186 -98 186 -100.42578125 185.56640625 C-105.7199956 186.45814797 -109.01252009 191.82029005 -112 196 C-115.20806774 200.96255212 -118.13126365 206.092011 -120.99780273 211.25756836 C-121.32852783 211.8325708 -121.65925293 212.40757324 -122 213 C-122.31074463 213.57049072 -122.62148926 214.14098145 -122.94165039 214.72875977 C-123.29090576 215.14826904 -123.64016113 215.56777832 -124 216 C-124.99 216 -125.98 216 -127 216 C-125.57942654 211.15071259 -123.54240598 207.07037257 -120.9375 202.75 C-120.54409424 202.09394775 -120.15068848 201.43789551 -119.74536133 200.76196289 C-116.59707223 195.66107202 -113.06670224 191.40079735 -108.91796875 187.06640625 C-107.34125092 185.36766138 -106.16637484 183.85414283 -105 181.875 C-98.88029631 172.30795231 -86.99364022 165.8062037 -77 161 C-76.34 161 -75.68 161 -75 161 C-74.55060934 148.81287086 -74.64285786 138.45694964 -79 127 C-79 126.34 -79 125.68 -79 125 C-80.03125 124.79375 -81.0625 124.5875 -82.125 124.375 C-86.52464958 123.07835531 -89.5501025 120.91153126 -92 117 C-92.57822923 114.73964938 -92.80594121 112.67240255 -92.89453125 110.34375 C-93.17067367 104.20725176 -94.85567248 100.02303693 -97.75 94.75 C-105.4702312 79.84585762 -110.15942896 62.86431766 -106.3359375 46.0859375 C-100.90754976 32.34975635 -87.07061441 24.03363745 -74.25 18.375 C-60.32531203 12.72697605 -46.62623615 11.75388603 -31.77514648 12.24682617 C-21.80847817 12.5603812 -14.50259629 11.22361136 -6.625 4.875 C-4.46088758 3.1561782 -2.32444603 1.49734253 0 0 Z M-7.40625 10.078125 C-16.48830907 16.8076025 -24.85319466 16.42086277 -35.6875 16.0625 C-49.66152648 15.62844781 -62.34213193 16.25308029 -75.25 22.25 C-75.91765381 22.55301025 -76.58530762 22.85602051 -77.27319336 23.16821289 C-87.88510878 28.13360931 -97.33689857 34.76622831 -102.4375 45.625 C-107.91357208 61.17609646 -101.65989932 78.79781721 -95 93 C-93.70917807 95.69025671 -92.3900675 98.35964832 -91 101 C-90.41992188 100.83242187 -89.83984375 100.66484375 -89.2421875 100.4921875 C-88.85160156 100.39035156 -88.85160156 100.39035156 -86.875 99.875 C-86.10929687 99.66617188 -85.34359375 99.45734375 -84.5546875 99.2421875 C-81.30276141 98.93390093 -79.04723375 99.91091646 -76 101 C-76.01571045 100.12375977 -76.0314209 99.24751953 -76.04760742 98.34472656 C-76.10268562 95.03476477 -76.13662703 91.7248417 -76.16479492 88.41455078 C-76.17970701 86.99293159 -76.20004409 85.57135693 -76.22631836 84.14990234 C-76.45800808 71.27522254 -75.92143483 58.37102978 -66.5546875 48.47265625 C-61.81483773 44.19190188 -56.5733253 42.81730514 -50.25 42.375 C-49.67999268 42.33415283 -49.10998535 42.29330566 -48.52270508 42.2512207 C-44.21552078 41.99502927 -39.93472488 42.0094112 -35.62109375 42.08203125 C-35.05148926 42.08984619 -35.05148926 42.08984619 -32.16894531 42.12939453 C-29.88795267 42.16746439 -27.6071747 42.22376201 -25.32714844 42.30029297 C-17.1655628 42.43872875 -10.55434294 41.18161053 -4.1875 35.8125 C-0.13958602 31.23048625 2.23917437 25.54315255 2.25 19.4375 C2.1675 18.303125 2.085 17.16875 2 16 C0.68 16 -0.64 16 -2 16 C-1.67 12.37 -1.34 8.74 -1 5 C-3.33806237 5 -5.79129143 8.52935326 -7.40625 10.078125 Z M1 32 C-0.28125 33.42578125 -0.28125 33.42578125 -1.5 35.3125 C-3.14615759 37.8292217 -4.8105292 39.93145928 -7 42 C-6.10023438 42.66386719 -5.20046875 43.32773437 -4.2734375 44.01171875 C-0.6013042 47.07182984 1.28957828 50.57268347 3.375 54.8125 C3.72949219 55.50537109 4.08398438 56.19824219 4.44921875 56.91210938 C5.31161269 58.60193534 6.15755422 60.30014112 7 62 C8.32 62 9.64 62 11 62 C13.07346113 52.73631075 12.72261024 45.10797214 7.79296875 37.01953125 C5.4131682 33.41747664 5.4131682 33.41747664 4 32 C3.01 32 2.02 32 1 32 Z M-14 44 C-15.2872454 44.09769302 -16.57874117 44.14532518 -17.86962891 44.15771484 C-18.25540604 44.16284592 -18.25540604 44.16284592 -20.20767212 44.18881226 C-21.03890594 44.19611359 -21.87013977 44.20341492 -22.7265625 44.2109375 C-24.49870686 44.23902472 -26.27084214 44.26768929 -28.04296875 44.296875 C-30.82730676 44.33797224 -33.6114788 44.37487134 -36.39599609 44.40136719 C-39.08987223 44.42920343 -41.78298628 44.4750907 -44.4765625 44.5234375 C-44.88610672 44.52506393 -44.88610672 44.52506393 -46.95864868 44.53329468 C-54.0770184 44.68248017 -61.09517789 45.74480254 -66.3125 50.9375 C-72.19038409 58.61140423 -74.12167939 69.27593441 -74.1328125 78.73828125 C-74.13410156 79.80626953 -74.13539062 80.87425781 -74.13671875 81.97460938 C-74.13285156 83.07611328 -74.12898438 84.17761719 -74.125 85.3125 C-74.12886719 86.40240234 -74.13273437 87.49230469 -74.13671875 88.61523438 C-74.12926483 94.81316954 -73.8643256 100.86013805 -73 107 C-73.4434375 106.6803125 -73.4434375 106.6803125 -75.6875 105.0625 C-78.44138598 103.24169539 -80.63545536 102.1770813 -84 102 C-86.70637529 102.97730219 -87.70256222 103.40512445 -89 106 C-89.5160529 110.30608077 -89.50193226 113.90052933 -87.6875 117.875 C-83.60953142 121.09944027 -79.02203152 121.93498297 -74 123 C-72.03965721 131.64651193 -71.80685491 140.156023 -71.8125 149 C-71.81254028 149.57057129 -71.81254028 149.57057129 -71.81274414 152.45800781 C-71.8526696 158.27283614 -72.14219921 163.86917906 -72.9375 169.625 C-73.35325307 174.00822526 -72.84907345 176.05776221 -70.0625 179.5 C-68.08203125 181.3515625 -68.08203125 181.3515625 -66 183 C-65.38511719 183.50273437 -64.77023438 184.00546875 -64.13671875 184.5234375 C-58.41237595 188.62410543 -51.49932718 190.67455137 -44.47265625 189.62109375 C-39.60234101 188.20294871 -36.13477273 186.07289157 -33 182 C-31.99144831 179.70004501 -31.1880142 177.56382397 -30.4375 175.1875 C-23.416253 155.15643402 -12.61573688 137.54057824 -0.50537109 120.27636719 C0.84496818 118.23443346 1.96399506 116.21446851 3 114 C-39.10216944 111.62341755 -39.10216944 111.62341755 -56 117 C-54.89120646 114.69216229 -54.14453076 114.05831069 -51.734375 113.0859375 C-40.9339097 110.51305179 -30.06714685 110.26971234 -19 110 C-19.39445312 109.61199219 -19.39445312 109.61199219 -21.390625 107.6484375 C-25.94946866 103.16408475 -27.38729821 99.24955824 -28 93 C-27.34 92.67 -26.68 92.34 -26 92 C-25.90203125 92.59167969 -25.8040625 93.18335938 -25.703125 93.79296875 C-24.72548617 98.9592843 -23.7430667 102.2569333 -20 106 C-16.73973931 107.63013035 -13.56543065 107.55219863 -10 107 C-6.22988506 104.87931034 -6.22988506 104.87931034 -5 102 C-4.32851055 95.90193884 -4.6390779 89.97913316 -6 84 C-5.34 84 -4.68 84 -4 84 C-3.97550781 83.66226563 -3.97550781 83.66226563 -3.8515625 81.953125 C-3.77679688 81.06109375 -3.70203125 80.1690625 -3.625 79.25 C-3.59019531 78.80914062 -3.59019531 78.80914062 -3.4140625 76.578125 C-3.00149945 74.00933618 -2.28839043 72.24158985 -1 70 C-2.65 69.34 -4.3 68.68 -6 68 C-5.835 67.505 -5.835 67.505 -5 65 C-3.15234375 64.26953125 -3.15234375 64.26953125 -0.9375 63.8125 C-0.20402344 63.65394531 0.52945313 63.49539062 1.28515625 63.33203125 C1.85105469 63.22246094 2.41695313 63.11289063 3 63 C0.20924775 55.28363434 -2.59648251 48.48412078 -9 43 C-11 43 -11 43 -14 44 Z M0 66 C0 66.33 0 66.66 0 67 C2.31 67 4.62 67 7 67 C7 66.67 7 66.34 7 66 C4.69 66 2.38 66 0 66 Z M1.25 71.75 C-1.0307382 74.0307382 -1.17751116 76.74984643 -1.25 79.8125 C-1.19385691 84.89344998 0.36426601 88.36426601 4 92 C6.625 92.125 6.625 92.125 9 92 C9 90.68 9 89.36 9 88 C9.66 87.67 10.32 87.34 11 87 C11.34622492 81.22958467 11.47659441 76.79530263 8 72 C5.30832138 70.92332855 3.93402617 70.59970307 1.25 71.75 Z M-1 91 C-1.09796875 91.89203125 -1.1959375 92.7840625 -1.296875 93.703125 C-1.44702175 94.88553065 -1.59811348 96.06781657 -1.75 97.25 C-1.811875 97.83652344 -1.87375 98.42304687 -1.9375 99.02734375 C-2.51474197 103.30855501 -3.71015011 105.26264399 -7 108 C-7.66 108.66 -8.32 109.32 -9 110 C-6.08341779 110.05825994 -3.16698614 110.09368266 -0.25 110.125 C0.575 110.14175781 1.4 110.15851563 2.25 110.17578125 C3.04921875 110.18222656 3.8484375 110.18867187 4.671875 110.1953125 C5.03845215 110.20054932 5.03845215 110.20054932 6.89355469 110.22705078 C9.29896076 109.96777544 10.91251494 109.19225925 13 108 C13.05406122 106.06280622 13.09282025 104.12518079 13.125 102.1875 C13.14820313 101.10855469 13.17140625 100.02960938 13.1953125 98.91796875 C13.00907041 96.13551189 12.81441579 95.03586024 11 93 C10.67 93.33 10.34 93.66 10 94 C6.19133837 94.14106154 3.62460883 94.20820294 0 93 C-0.33 92.34 -0.66 91.68 -1 91 Z " fill="#1e40af" transform="translate(152,13)"/>
<path d="M0 0 C7.02057673 0.7178887 13.84122494 1.98622899 20.70361328 3.60888672 C22.46483068 4.02371379 24.22921419 4.42243739 25.99438477 4.82006836 C27.11135742 5.07981445 28.22833008 5.33956055 29.37915039 5.60717773 C30.38792236 5.84170654 31.39669434 6.07623535 32.43603516 6.31787109 C34.87524414 7.07983398 34.87524414 7.07983398 36.87524414 9.07983398 C36.54524414 10.39983398 36.21524414 11.71983398 35.87524414 13.07983398 C31.91524414 13.07983398 27.95524414 13.07983398 23.87524414 13.07983398 C24.49399414 13.92545898 25.11274414 14.77108398 25.75024414 15.64233398 C29.34979173 21.07994843 30.47322064 26.62168774 29.87524414 33.07983398 C28.1850333 36.79829783 26.3084201 38.91119081 22.87524414 41.07983398 C18.37849692 41.9034956 13.54552675 41.90174364 9.50024414 39.57983398 C5.35879798 36.21490898 3.23609477 31.74364146 2.52758789 26.51342773 C2.35667489 21.52722665 2.69375675 18.11787567 5.87524414 14.07983398 C6.54850766 13.08426346 7.21652945 12.08508988 7.87524414 11.07983398 C7.53170898 11.02504883 7.53170898 11.02504883 5.79321289 10.74780273 C4.8921582 10.58924805 3.99110352 10.43069336 3.06274414 10.26733398 C2.16942383 10.11651367 1.27610352 9.96569336 0.35571289 9.81030273 C-2.32831895 9.01988706 -3.45973389 8.30358816 -5.12475586 6.07983398 C-4.81305606 2.65113617 -3.77693037 0.14191155 0 0 Z M-1.12475586 3.07983398 C-1.12475586 4.06983398 -1.12475586 5.05983398 -1.12475586 6.07983398 C6.62799484 7.59520585 13.97567352 8.35974003 21.87524414 8.07983398 C21.87524414 7.74983398 21.87524414 7.41983398 21.87524414 7.07983398 C18.08024414 6.41983398 18.08024414 6.41983398 -1.12475586 3.07983398 Z M21.87524414 8.07983398 C25.87524414 9.07983398 25.87524414 9.07983398 25.87524414 9.07983398 Z M8.50024414 15.07983398 C5.87956165 19.91801705 5.28298122 24.45713558 6.56274414 29.82983398 C7.71680659 33.11216744 8.91033287 35.10322647 11.87524414 37.07983398 C19.3622399 38.92445613 19.3622399 38.92445613 22.65258789 37.08764648 C23.05606445 36.75506836 23.45954102 36.42249023 23.87524414 36.07983398 C23.54524414 35.08983398 23.21524414 34.09983398 22.87524414 33.07983398 C23.86524414 32.74983398 24.85524414 32.41983398 25.87524414 32.07983398 C26.22762751 26.20677786 26.21692204 22.0347357 22.87524414 17.07983398 C20.20728475 14.26365463 18.16123894 12.82224685 14.31274414 12.51733398 C10.87524414 13.07983398 10.87524414 13.07983398 8.50024414 15.07983398 Z " fill="#1e40af" transform="translate(90.124755859375,66.920166015625)"/>
<path d="M0 0 C5.53846154 0.49230769 5.53846154 0.49230769 7.875 3.0625 C8.060625 3.3821875 8.060625 3.3821875 9 5 C6 6 6 6 4.17578125 5.22265625 C3.56089844 4.83980469 2.94601563 4.45695312 2.3125 4.0625 C1.68988281 3.68222656 1.06726563 3.30195312 0.42578125 2.91015625 C-0.04472656 2.60980469 -0.51523438 2.30945313 -1 2 C-0.67 1.34 -0.34 0.68 0 0 Z " fill="#1e40af" transform="translate(67,119)"/>
<path d="M0 0 C-0.33 1.32 -0.66 2.64 -1 4 C-5.62 4 -10.24 4 -15 4 C-15.33 3.01 -15.66 2.02 -16 1 C-14.08351538 0.83125293 -12.16680367 0.66508357 -10.25 0.5 C-9.18265625 0.4071875 -8.1153125 0.314375 -7.015625 0.21875 C-4.6578167 0.04771727 -2.36094536 -0.0458436 0 0 Z " fill="#1e40af" transform="translate(144,128)"/>
<path d="M0 0 C0.66 0.33 1.32 0.66 2 1 C2 1.66 2 2.32 2 3 C3.65 3.33 5.3 3.66 7 4 C6.67 4.99 6.34 5.98 6 7 C0.72 6.67 -4.56 6.34 -10 6 C-10.33 5.01 -10.66 4.02 -11 3 C-10.37351562 2.86722656 -9.74703125 2.73445312 -9.1015625 2.59765625 C-8.28429687 2.42105469 -7.46703125 2.24445313 -6.625 2.0625 C-5.81289062 1.88847656 -5.00078125 1.71445313 -4.1640625 1.53515625 C-2 1 -2 1 0 0 Z " fill="#1e40af" transform="translate(126,152)"/>
</g>
</svg>
