<?xml version="1.0" encoding="UTF-8"?>
<svg version="1.1" xmlns="http://www.w3.org/2000/svg" width="229" height="229" viewBox="0 0 229 229">
<g transform="translate(22.9,22.9) scale(0.8)">
<g transform="translate(2,2)">
<path d="M0 0 C0.598125 0.09152344 1.19625 0.18304688 1.8125 0.27734375 C8.26397286 1.4349669 14.01693464 4.81388954 19 9 C20.1953125 11.66015625 20.1953125 11.66015625 21 14 C23 15.125 23 15.125 25 16 C27.06265388 18.06265388 27.0432282 19.38905379 27.375 22.375 C27.82615651 26.20983035 29.41832569 28.1145993 32 31 C32.474375 31.825 32.94875 32.65 33.4375 33.5 C34.75162643 35.60260229 35.79580069 36.84694802 37.5625 38.5 C41.19859818 42.22933147 42.0648953 46.09200204 43.4296875 51.03125 C44.49995256 54.72586363 45.76480404 58.35793649 47 62 C47.8837382 64.6512146 48.11115496 66.03075282 48.0625 68.72265625 C48.05476562 69.42583984 48.04703125 70.12902344 48.0390625 70.85351562 C48.02617187 71.58248047 48.01328125 72.31144531 48 73.0625 C47.97450933 74.51164431 47.95347003 75.96087575 47.9375 77.41015625 C47.93169922 77.73052856 47.93169922 77.73052856 47.90234375 79.35180664 C48 81 48 81 49 83 C49.43871642 88.59363437 48.46145742 91.97452443 46 97 C46.34611328 97.12503906 46.34611328 97.12503906 48.09765625 97.7578125 C70.10143189 107.17531002 87.65990265 127.27820888 101.3125 146.25 C101.72097168 146.81605957 102.12944336 147.38211914 102.55029297 147.96533203 C110.60849453 159.3289529 110.60849453 159.3289529 110.25 164.4375 C110.21390625 165.11683594 110.1778125 165.79617187 110.140625 166.49609375 C110.09421875 166.99238281 110.0478125 167.48867187 110 168 C106.79829624 165.24853583 105.05703619 161.8035772 103 158.1875 C89.28868315 134.78507213 67.14261735 109.493525 41 100 C40.93941406 100.68707031 40.87882813 101.37414062 40.81640625 102.08203125 C40.73261719 102.98308594 40.64882812 103.88414063 40.5625 104.8125 C40.48128906 105.70582031 40.40007812 106.59914063 40.31640625 107.51953125 C40 110 40 110 39 113 C38.938125 113.350625 38.938125 113.350625 38.625 115.125 C37.90646394 118.43026588 36.85282734 121.53735701 35.74609375 124.73046875 C35.09525245 126.71025302 34.59693709 128.66041784 34.125 130.6875 C32.96391329 134.10625532 31.80315434 135.54003333 29.44140625 138.11328125 C26.26824411 142.26676991 24.22078716 147.28368913 22 152 C21.34 152 20.68 152 20 152 C19.938125 152.556875 19.87625 153.11375 19.8125 153.6875 C18.11266008 158.52550592 13.06052934 162.03691102 9 165 C8.34 165 7.68 165 7 165 C6.731875 165.78375 6.46375 166.5675 6.1875 167.375 C4.55561157 170.98233233 2.13438223 172.22360685 -1.5 173.625 C-4.70964921 174.40524622 -5.78655798 174.11881708 -8.72265625 172.484375 C-10.68021193 171.09080918 -12.54227842 169.59453284 -14.40234375 168.07421875 C-16.50669908 166.39389893 -18.21464106 165.28921859 -20.625 164.1875 C-28.79994882 159.70887971 -34.06562099 149.65929544 -38.4375 141.765625 C-39.76684643 139.41268181 -41.19464003 137.26592662 -42.75 135.0625 C-45.59500101 130.64526158 -46.41936843 125.7368029 -47.421875 120.66015625 C-48 118 -48 118 -49 117 C-49.31699738 115.20368154 -49.51082207 113.40569342 -49.71875 111.59375 C-50 110 -50 110 -51 109 C-51.23287008 107.31816052 -51.41264166 105.6287584 -51.5625 103.9375 C-51.64628906 103.01839844 -51.73007813 102.09929687 -51.81640625 101.15234375 C-51.87699219 100.44207031 -51.93757813 99.73179688 -52 99 C-56.4709687 99.55783036 -59.73458488 101.38405961 -63.4375 103.8125 C-64.04803223 104.21138428 -64.65856445 104.61026855 -65.28759766 105.02124023 C-82.53127099 116.57525321 -105.36888733 134.81134928 -112 155 C-113.47265625 157.3359375 -113.47265625 157.3359375 -115.0625 159.375 C-115.58972656 160.06335938 -116.11695312 160.75171875 -116.66015625 161.4609375 C-117.10230469 161.96882812 -117.54445313 162.47671875 -118 163 C-118.33 163 -118.66 163 -119 163 C-119.90482105 155.98530486 -117.10800576 152.44495385 -112.9375 147 C-112.37611328 146.23171875 -111.81472656 145.4634375 -111.23632812 144.671875 C-107.95942754 140.26772062 -104.4765074 136.30830034 -100.53344727 132.4921875 C-98.74286338 130.74978204 -97.11187281 128.90793108 -95.5 127 C-86.85157499 117.03135081 -77.01800403 108.89301362 -66.125 101.5 C-65.49464844 101.06647217 -64.86429688 100.63294434 -64.21484375 100.1862793 C-60.83538478 97.9403622 -58.13026685 96.43972423 -54 96 C-54.515625 94.989375 -55.03125 93.97875 -55.5625 92.9375 C-57.32942576 88.82022959 -57.06089093 86.3251707 -56 82 C-55.66666667 81.33333333 -55.66666667 81.33333333 -54 78 C-54.33 77.01 -54.66 76.02 -55 75 C-55.1079128 72.12055201 -54.91068863 69.25083257 -54.75 66.375 C-54.72740112 65.96954956 -54.72740112 65.96954956 -54.61303711 63.91772461 C-54.19809386 57.76407295 -53.5414763 51.69756138 -49.9609375 46.48828125 C-48.91009379 44.86075502 -48.50859794 43.50285991 -48.0625 41.625 C-47.18501587 38.35500055 -45.83529655 35.86306262 -44 33 C-42.39405646 29.92194155 -40.92583645 26.84055078 -39.625 23.625 C-37.15116635 17.80954812 -34.81184678 12.79196561 -29 10 C-27.67997588 8.54994365 -26.58356605 7.02936035 -25.44140625 5.4375 C-19.72284961 -0.2655592 -7.54210964 -1.88552741 0 0 Z M-16 5 C-16.53625 5.04125 -16.53625 5.04125 -19.25 5.25 C-22 6 -22 6 -23.875 8.4375 C-25 11 -25 11 -25 13 C-25.37125 12.9484375 -25.37125 12.9484375 -27.25 12.6875 C-30 13 -30 13 -32.0625 15.0625 C-32.73297736 16.02495944 -33.37742265 17.00588456 -34 18 C-34.3403125 18.53109375 -34.680625 19.0621875 -35.03125 19.609375 C-37.21978148 23.2237679 -38.7481891 26.8613358 -40.15234375 30.8359375 C-41.11637133 33.29709546 -42.28333151 35.59132733 -43.5 37.9375 C-48.05416935 46.96353443 -49.54961056 54.95165624 -50 65 C-49.5153125 64.690625 -49.5153125 64.690625 -47.0625 63.125 C-46.51722656 62.77695313 -45.97195312 62.42890625 -45.41015625 62.0703125 C-44 61 -44 61 -43 59 C-42.845364 57.27323132 -42.7252657 55.54327704 -42.625 53.8125 C-42.11369747 47.62005829 -40.53344891 43.13956205 -37 38 C-37.33 37.34 -37.66 36.68 -38 36 C-37.51055908 36.14219971 -37.02111816 36.28439941 -36.5168457 36.4309082 C-30.01798857 38.11290467 -23.68983575 38.27456241 -17.01733398 38.20581055 C-15.20086401 38.18763373 -13.38491073 38.18530123 -11.56835938 38.18554688 C-1.60957014 38.15607701 8.18820277 37.80375709 17.88671875 35.41015625 C21.2884549 34.7499302 24.54503711 34.87436499 28 35 C27.58467483 32.59111402 27.33524378 31.30810917 25.50390625 29.625 C23.66129977 27.63402781 23.57021501 26.47310998 23.25 23.8125 C21.88025277 17.06238565 17.98917111 13.1930123 12.55078125 9.203125 C3.68152809 3.76504277 -5.91578088 2.9419961 -16 5 Z M16.6875 38.875 C4.96308004 41.48042666 -7.42800947 41.08548716 -19.375 41.125 C-20.36781982 41.12967285 -21.36063965 41.1343457 -22.38354492 41.13916016 C-23.31658447 41.13706543 -24.24962402 41.1349707 -25.2109375 41.1328125 C-26.03899902 41.13168457 -26.86706055 41.13055664 -27.72021484 41.12939453 C-30 41 -30 41 -32.19775391 40.42919922 C-32.79249512 40.28756348 -33.38723633 40.14592773 -34 40 C-37.00095231 41.84673988 -37.80373005 44.64841814 -38.66479492 47.96142578 C-39.04214285 50.25629484 -39.07850457 52.41769353 -39.05078125 54.7421875 C-39.04344971 55.54253418 -39.03611816 56.34288086 -39.02856445 57.16748047 C-39.01913818 57.77221191 -39.00971191 58.37694336 -39 59 C-38.73840088 59.02243774 -38.73840088 59.02243774 -37.41455078 59.13598633 C-11.86287487 61.39319158 -11.86287487 61.39319158 -7.4375 66.4375 C-6.1699431 68.69705796 -5.3776738 70.45070183 -5 73 C-4.01 73 -3.02 73 -2 73 C-1.92072266 72.72865234 -1.92072266 72.72865234 -1.51953125 71.35546875 C-0.40183707 67.92828492 0.38312262 65.54430357 3.125 63.125 C12.11768428 59.60612354 21.46216503 59.44470887 31 59 C30.93941406 58.45472656 30.87882812 57.90945312 30.81640625 57.34765625 C30.73261719 56.59355469 30.64882812 55.83945313 30.5625 55.0625 C30.47097656 54.2478125 30.37945312 53.433125 30.28515625 52.59375 C30.09743747 50.88628052 29.91753929 49.17793015 29.74609375 47.46875 C29.66488281 46.6746875 29.58367187 45.880625 29.5 45.0625 C29.46390625 44.69705078 29.46390625 44.69705078 29.28125 42.84765625 C29 41 29 41 28 39 C23.86654878 37.94465075 20.83007509 37.91461062 16.6875 38.875 Z M33 40 C33.08378906 40.60328125 33.16757813 41.2065625 33.25390625 41.828125 C33.35574219 42.62734375 33.45757812 43.4265625 33.5625 44.25 C33.66691406 45.03890625 33.77132812 45.8278125 33.87890625 46.640625 C34 49 34 49 33.42578125 51.04296875 C32.72281093 54.27405251 34.24459122 56.34823597 35.7421875 59.16015625 C37.42203408 61.61732314 39.30374726 62.80166545 42 64 C42.51646105 58.96450479 41.1884574 55.77150626 39.01171875 51.25 C38.08223094 49.18287653 37.4726247 47.25788339 36.9375 45.0625 C35.95259394 41.84514022 35.72613848 41.5292972 33 40 Z M-39 63 C-41.33342971 67.87898939 -42.59307075 72.39078052 -43.5078125 77.71875 C-44 80 -44 80 -45.4375 82.625 C-46.15807323 85.66742029 -45.48038288 86.46352704 -43.9375 89.125 C-41.60978539 92.41483666 -39.90120245 94.64306002 -36 96 C-29.34373829 96.92244257 -24.21615379 96.48941871 -18.71484375 92.484375 C-13.5270643 87.9938142 -9.74209878 82.82364209 -8.6796875 75.91796875 C-8.48388442 72.40004007 -8.41499093 70.76826493 -10.62109375 67.87109375 C-13.4513301 65.64501294 -16.03673627 64.89537886 -19.5 64.25 C-20.10859863 64.12713623 -20.71719727 64.00427246 -21.34423828 63.87768555 C-27.24946031 62.77859429 -33.00041237 62.7033171 -39 63 Z M3.9375 66.625 C1.60428313 69.48507229 1.21387283 70.95387406 1.4453125 74.58203125 C3.09114581 81.75647362 7.06871047 89.55153285 13 94 C18.50625188 96.51372369 23.38763475 96.9063308 29.0625 94.9375 C32.79831375 92.8430276 35.61402596 89.51127385 38 86 C38 85.34 38 84.68 38 84 C37.52949219 83.690625 37.05898437 83.38125 36.57421875 83.0625 C34.34365175 81.55700565 33.98443391 79.6694148 33.3359375 77.14453125 C32.81237563 73.8022584 32.90852573 70.5101173 33.02734375 67.13671875 C33 65 33 65 32 63 C11.61761508 62.5498369 11.61761508 62.5498369 3.9375 66.625 Z M37 65 C36.07603343 70.61871565 35.70051841 74.72471871 38 80 C38.66 80 39.32 80 40 80 C41.30148765 73.96297897 40.85839807 70.48812429 38 65 C37.67 65 37.34 65 37 65 Z M-46 66 C-47.80230168 69.82989106 -48.19622241 72.78121808 -48 77 C-47.34 77 -46.68 77 -46 77 C-45.67 73.37 -45.34 69.74 -45 66 C-45.33 66 -45.66 66 -46 66 Z M-6 79 C-6.94921875 80.9453125 -6.94921875 80.9453125 -7.6875 83.125 C-7.93886719 83.84945312 -8.19023438 84.57390625 -8.44921875 85.3203125 C-8.63097656 85.87460938 -8.81273438 86.42890625 -9 87 C-8.34 87 -7.68 87 -7 87 C-7.09539062 87.54269531 -7.19078125 88.08539063 -7.2890625 88.64453125 C-7.39992188 89.35996094 -7.51078125 90.07539062 -7.625 90.8125 C-7.74101563 91.52019531 -7.85703125 92.22789063 -7.9765625 92.95703125 C-8.00370595 95.32303568 -7.48330752 96.20531113 -6 98 C-4.35 97.67 -2.7 97.34 -1 97 C-0.835 95.515 -0.835 95.515 0 88 C0.99 87.67 1.98 87.34 3 87 C1.35 83.7 -0.3 80.4 -2 77 C-3.75893381 77 -4.66762128 77.91385836 -6 79 Z M-52 88 C-51.50168276 91.68754757 -50.89932357 93.60490662 -48 96 C-48 95.34 -48 94.68 -48 94 C-47.01 93.67 -46.02 93.34 -45 93 C-46.8125 90.5 -46.8125 90.5 -49 88 C-49.99 88 -50.98 88 -52 88 Z M3 88 C4 90 4 90 4 90 Z M39 90 C38.46375 90.763125 37.9275 91.52625 37.375 92.3125 C34.15070768 96.54592198 29.06334237 98.42123875 23.953125 99.38671875 C17.85987733 99.74012711 12.01507806 97.47516873 7.3203125 93.62109375 C6.15740879 92.46804515 5.06859826 91.24095281 4 90 C3.81824219 90.61488281 3.63648438 91.22976562 3.44921875 91.86328125 C3.32353516 92.26740234 3.32353516 92.26740234 2.6875 94.3125 C2.44386719 95.11300781 2.20023438 95.91351563 1.94921875 96.73828125 C0.95817977 99.09964573 -0.08074943 100.33879993 -2 102 C1.32336556 103.73721381 4.28950904 105.28644405 8 106 C8 107.32 8 108.64 8 110 C7.4225 110.12375 6.845 110.2475 6.25 110.375 C4 111 4 111 2.25 112.0625 C-1.14505901 113.47710792 -4.37439952 113.49833951 -8 113 C-10.8125 111.5 -10.8125 111.5 -13 110 C-13.99 110 -14.98 110 -16 110 C-16 108.68 -16 107.36 -16 106 C-15.7215625 105.95875 -15.7215625 105.95875 -14.3125 105.75 C-11.30285794 104.77389987 -9.37845248 103.04811186 -7 101 C-7.226875 100.814375 -7.226875 100.814375 -8.375 99.875 C-10.47029394 97.45735315 -11.12013285 95.04569398 -12 92 C-12.68707031 92.42152344 -13.37414062 92.84304687 -14.08203125 93.27734375 C-14.98308594 93.82519531 -15.88414063 94.37304688 -16.8125 94.9375 C-17.70582031 95.48277344 -18.59914063 96.02804688 -19.51953125 96.58984375 C-25.08614935 99.75448805 -30.75270596 99.4830382 -37 99 C-39.61711352 98.24976079 -41.59543615 97.31158028 -44 96 C-43.49547791 104.74504957 -39.95399954 112.27590788 -36 120 C-36.99 120.33 -37.98 120.66 -39 121 C-34.23641464 136.29673064 -24.89810842 149.29227675 -12.75 159.625 C-12.2547583 160.05111572 -11.7595166 160.47723145 -11.24926758 160.91625977 C-8.27561485 163.3430683 -5.90950611 165.17632298 -2 165 C0.30181883 163.48975329 2.07800933 161.57882232 3.9375 159.5625 C4.46311523 159.01352051 4.98873047 158.46454102 5.53027344 157.89892578 C16 146.8093239 16 146.8093239 16 143 C15.28457031 143.2165625 14.56914062 143.433125 13.83203125 143.65625 C0.66378719 147.33586283 -10.64087323 146.92988405 -23 141 C-27.77804296 137.66587112 -27.77804296 137.66587112 -29 134 C-26.08295771 135.02954434 -23.83589249 136.11831007 -21.3125 137.9375 C-13.85152122 143.00640924 -4.7937096 144.03388575 4 143 C7.8500029 142.0095639 11.38286164 140.63741122 15 139 C15.69351563 138.72285156 16.38703125 138.44570312 17.1015625 138.16015625 C21.82313058 135.98019822 23.56689462 132.93978924 25.44140625 128.1640625 C26 126 26 126 25.4375 123.4375 C25 121 25 121 25.85546875 119.44921875 C26.75032368 118.16338105 27.64625806 116.87829423 28.54296875 115.59375 C30.74027244 111.68219599 31.85245945 107.44220844 32.94775391 103.10400391 C33.48559953 101.23184136 33.98294821 99.66333888 35 98 C38.04296875 96.7109375 38.04296875 96.7109375 41 96 C44 92 44 92 44 89 C42 89 42 89 39 90 Z M-47 105 C-46 107 -46 107 -46 107 Z M31 122 C32 124 32 124 32 124 Z M-41 128 C-40 130 -40 130 -40 130 Z M29 128 C28.67 129.32 28.34 130.64 28 132 C28.66 131.67 29.32 131.34 30 131 C29.67 130.01 29.34 129.02 29 128 Z M26 134 C27 136 27 136 27 136 Z M18 147 C19 149 19 149 19 149 Z M15 151 C16 153 16 153 16 153 Z M-26 152 C-26 152.66 -26 153.32 -26 154 C-25.34 153.67 -24.68 153.34 -24 153 C-24.66 152.67 -25.32 152.34 -26 152 Z M-22 156 C-21.34 157.32 -20.68 158.64 -20 160 C-19.34 159.67 -18.68 159.34 -18 159 C-19.32 158.01 -20.64 157.02 -22 156 Z " fill="#8b1414" transform="translate(119,15)"/>
<path d="M0 0 C5.28 0 10.56 0 16 0 C17.95098266 3.90196532 18.92199012 6.74173635 18 11 C16.69110938 13.24702253 15.23283427 14.67315869 13 16 C10 16.625 10 16.625 7 16 C2.88887792 12.82322385 1.18086637 10.15287145 0 5 C0 3.35 0 1.7 0 0 Z M6 4 C5.3125 5.8125 5.3125 5.8125 5 8 C6.4375 9.75 6.4375 9.75 8 11 C8 10.01 8 9.02 8 8 C9.32 8 10.64 8 12 8 C12.33 8.99 12.66 9.98 13 11 C14 10 14 10 14.125 7.5 C14 5 14 5 13 4 C11.37109375 3.90234375 11.37109375 3.90234375 9.4375 3.9375 C8.8703125 3.9478125 8.8703125 3.9478125 6 4 Z " fill="#8b1414" transform="translate(86,89)"/>
<path d="M0 0 C1.39456452 0.00667256 2.78911118 0.01863093 4.18359375 0.03515625 C4.89451172 0.03966797 5.60542969 0.04417969 6.33789062 0.04882812 C8.09899388 0.06064761 9.86005411 0.07858362 11.62109375 0.09765625 C13.33701066 3.36410049 14.24329566 5.36444479 13.62109375 9.09765625 C11.98563832 12.12032834 10.10550714 14.45519943 6.90625 15.83984375 C3.28690636 16.61598309 1.96559522 16.31484196 -1.25390625 14.28515625 C-4.21467946 11.23730148 -4.51718291 9.67083447 -4.50390625 5.53515625 C-4.50519531 5.13232422 -4.50519531 5.13232422 -4.51171875 3.09375 C-4.28200761 -0.35867338 -3.57370128 0.10328616 0 0 Z M0.62109375 4.09765625 C-0.00390625 6.47265625 -0.00390625 6.47265625 -0.37890625 9.09765625 C0.28109375 9.75765625 0.94109375 10.41765625 1.62109375 11.09765625 C1.90984375 10.60265625 2.19859375 10.10765625 2.49609375 9.59765625 C2.86734375 9.10265625 3.23859375 8.60765625 3.62109375 8.09765625 C4.28109375 8.09765625 4.94109375 8.09765625 5.62109375 8.09765625 C5.62109375 9.08765625 5.62109375 10.07765625 5.62109375 11.09765625 C6.28109375 11.09765625 6.94109375 11.09765625 7.62109375 11.09765625 C8.00242674 9.10625065 8.33434957 7.10486548 8.62109375 5.09765625 C7.62109375 4.09765625 7.62109375 4.09765625 5.9921875 4 C5.67314453 4.00580078 5.67314453 4.00580078 4.05859375 4.03515625 C3.49140625 4.04546875 3.49140625 4.04546875 0.62109375 4.09765625 Z " fill="#8b1414" transform="translate(131.37890625,88.90234375)"/>
<path d="M0 0 C4.35145241 0.38395168 6.443714 1.9902133 9.57421875 4.7890625 C11.2494848 6.2118912 12.97984779 7.14532022 15 8 C15 8.99 15 9.98 15 11 C8.88999426 10.87270821 6.01684567 8.81388513 1.50390625 4.7890625 C0 3 0 3 0 0 Z " fill="#8b1414" transform="translate(95,132)"/>
<path d="M0 0 C-0.1637162 2.29202683 -0.5889582 3.6223863 -2.296875 5.19140625 C-5.25370038 7.29192329 -5.25370038 7.29192329 -7 8 C-7.99 7.67 -8.98 7.34 -10 7 C-8.95703186 3.87109557 -8.70829534 3.48971414 -6.125 1.8125 C-5.61195312 1.46832031 -5.09890625 1.12414062 -4.5703125 0.76953125 C-3 0 -3 0 0 0 Z " fill="#8b1414" transform="translate(132,135)"/>
<path d="M0 0 C1.32 0.33 2.64 0.66 4 1 C1.61308916 9.01855067 -3.04982941 15.27288851 -7.81835938 22.046875 C-13.22448861 29.89986785 -16.60092236 37.80353572 -19 47 C-20.32 47 -21.64 47 -23 47 C-22.66184234 40.00013635 -20.79975415 34.38132645 -18 28 C-17.32812578 26.3354258 -16.66002743 24.66930705 -16 23 C-16.71027344 22.72285156 -17.42054687 22.44570312 -18.15234375 22.16015625 C-19.07144531 21.79792969 -19.99054687 21.43570313 -20.9375 21.0625 C-21.85402344 20.70285156 -22.77054688 20.34320313 -23.71484375 19.97265625 C-26 19 -26 19 -27 18 C-27.07179964 16.48071962 -27.08392007 14.95832518 -27.0625 13.4375 C-27.05347656 12.61121094 -27.04445313 11.78492188 -27.03515625 10.93359375 C-27.02355469 10.29550781 -27.01195313 9.65742188 -27 9 C-26.56131592 9.2172876 -26.12263184 9.4345752 -25.6706543 9.65844727 C-23.6811429 10.63676181 -21.68457374 11.5997234 -19.6875 12.5625 C-18.99720703 12.90474609 -18.30691406 13.24699219 -17.59570312 13.59960938 C-17.2621582 13.75913086 -17.2621582 13.75913086 -15.57421875 14.56640625 C-14.96151123 14.86490479 -14.34880371 15.16340332 -13.7175293 15.47094727 C-12 16 -12 16 -9 15 C-7.83325195 13.50952148 -7.83325195 13.50952148 -6.73828125 11.62109375 C-6.34189453 10.94755859 -5.94550781 10.27402344 -5.53710938 9.58007812 C-5.13298828 8.87302734 -4.72886719 8.16597656 -4.3125 7.4375 C-3.89677734 6.72658203 -3.48105469 6.01566406 -3.05273438 5.28320312 C-2.02707904 3.526621 -1.00997248 1.76563079 0 0 Z " fill="#8b1414" transform="translate(27,182)"/>
<path d="M0 0 C2.31954208 0.38059276 3.64575834 0.60766039 5.24853516 2.3828125 C5.42022217 2.67027344 5.42022217 2.67027344 6.2890625 4.125 C6.67320312 4.74890625 7.05734375 5.3728125 7.453125 6.015625 C7.83984375 6.67046875 8.2265625 7.3253125 8.625 8 C9.40460038 9.29423853 10.18827088 10.58603667 10.9765625 11.875 C11.31768066 12.44992188 11.65879883 13.02484375 12.01025391 13.6171875 C13 15 13 15 15 16 C20.91550746 14.26577749 25.98693222 11.50914744 31 8 C31.66 8 32.32 8 33 8 C33.63742849 11.18714246 33.85753413 13.84201502 33 17 C29.27947305 20.39164059 25.10087045 23 20 23 C21.64791802 28.17477061 23.74492263 33.04653348 25.9765625 38 C27.06425448 41.188349 27.18907782 43.65630803 27 47 C25.68 47 24.36 47 23 47 C22.85304687 46.33355469 22.70609375 45.66710937 22.5546875 44.98046875 C22.33039063 44.05878906 22.10609375 43.13710937 21.875 42.1875 C21.77058594 41.74083984 21.77058594 41.74083984 21.2421875 39.48046875 C18.01661946 29.14941692 10.79844539 20.04555804 4.68359375 11.27929688 C4.38130859 10.83682617 4.38130859 10.83682617 2.8515625 8.59765625 C2.57739502 8.20324341 2.57739502 8.20324341 1.18994141 6.20727539 C-0.06666 3.8763494 -0.27061919 2.60053917 0 0 Z " fill="#8b1414" transform="translate(196,182)"/>
</g>
<path d="M0 0 C0.598125 0.09152344 1.19625 0.18304688 1.8125 0.27734375 C8.26397286 1.4349669 14.01693464 4.81388954 19 9 C20.1953125 11.66015625 20.1953125 11.66015625 21 14 C23 15.125 23 15.125 25 16 C27.06265388 18.06265388 27.0432282 19.38905379 27.375 22.375 C27.82615651 26.20983035 29.41832569 28.1145993 32 31 C32.474375 31.825 32.94875 32.65 33.4375 33.5 C34.75162643 35.60260229 35.79580069 36.84694802 37.5625 38.5 C41.19859818 42.22933147 42.0648953 46.09200204 43.4296875 51.03125 C44.49995256 54.72586363 45.76480404 58.35793649 47 62 C47.8837382 64.6512146 48.11115496 66.03075282 48.0625 68.72265625 C48.05476562 69.42583984 48.04703125 70.12902344 48.0390625 70.85351562 C48.02617187 71.58248047 48.01328125 72.31144531 48 73.0625 C47.97450933 74.51164431 47.95347003 75.96087575 47.9375 77.41015625 C47.93169922 77.73052856 47.93169922 77.73052856 47.90234375 79.35180664 C48 81 48 81 49 83 C49.43871642 88.59363437 48.46145742 91.97452443 46 97 C46.34611328 97.12503906 46.34611328 97.12503906 48.09765625 97.7578125 C70.10143189 107.17531002 87.65990265 127.27820888 101.3125 146.25 C101.72097168 146.81605957 102.12944336 147.38211914 102.55029297 147.96533203 C110.60849453 159.3289529 110.60849453 159.3289529 110.25 164.4375 C110.21390625 165.11683594 110.1778125 165.79617187 110.140625 166.49609375 C110.09421875 166.99238281 110.0478125 167.48867187 110 168 C106.79829624 165.24853583 105.05703619 161.8035772 103 158.1875 C89.28868315 134.78507213 67.14261735 109.493525 41 100 C40.93941406 100.68707031 40.87882813 101.37414062 40.81640625 102.08203125 C40.73261719 102.98308594 40.64882812 103.88414063 40.5625 104.8125 C40.48128906 105.70582031 40.40007812 106.59914063 40.31640625 107.51953125 C40 110 40 110 39 113 C38.938125 113.350625 38.938125 113.350625 38.625 115.125 C37.90646394 118.43026588 36.85282734 121.53735701 35.74609375 124.73046875 C35.09525245 126.71025302 34.59693709 128.66041784 34.125 130.6875 C32.96391329 134.10625532 31.80315434 135.54003333 29.44140625 138.11328125 C26.26824411 142.26676991 24.22078716 147.28368913 22 152 C21.34 152 20.68 152 20 152 C19.938125 152.556875 19.87625 153.11375 19.8125 153.6875 C18.11266008 158.52550592 13.06052934 162.03691102 9 165 C8.34 165 7.68 165 7 165 C6.731875 165.78375 6.46375 166.5675 6.1875 167.375 C4.55561157 170.98233233 2.13438223 172.22360685 -1.5 173.625 C-4.70964921 174.40524622 -5.78655798 174.11881708 -8.72265625 172.484375 C-10.68021193 171.09080918 -12.54227842 169.59453284 -14.40234375 168.07421875 C-16.50669908 166.39389893 -18.21464106 165.28921859 -20.625 164.1875 C-28.79994882 159.70887971 -34.06562099 149.65929544 -38.4375 141.765625 C-39.76684643 139.41268181 -41.19464003 137.26592662 -42.75 135.0625 C-45.59500101 130.64526158 -46.41936843 125.7368029 -47.421875 120.66015625 C-48 118 -48 118 -49 117 C-49.31699738 115.20368154 -49.51082207 113.40569342 -49.71875 111.59375 C-50 110 -50 110 -51 109 C-51.23287008 107.31816052 -51.41264166 105.6287584 -51.5625 103.9375 C-51.64628906 103.01839844 -51.73007813 102.09929687 -51.81640625 101.15234375 C-51.87699219 100.44207031 -51.93757813 99.73179688 -52 99 C-56.4709687 99.55783036 -59.73458488 101.38405961 -63.4375 103.8125 C-64.04803223 104.21138428 -64.65856445 104.61026855 -65.28759766 105.02124023 C-82.53127099 116.57525321 -105.36888733 134.81134928 -112 155 C-113.47265625 157.3359375 -113.47265625 157.3359375 -115.0625 159.375 C-115.58972656 160.06335938 -116.11695312 160.75171875 -116.66015625 161.4609375 C-117.10230469 161.96882812 -117.54445313 162.47671875 -118 163 C-118.33 163 -118.66 163 -119 163 C-119.90482105 155.98530486 -117.10800576 152.44495385 -112.9375 147 C-112.37611328 146.23171875 -111.81472656 145.4634375 -111.23632812 144.671875 C-107.95942754 140.26772062 -104.4765074 136.30830034 -100.53344727 132.4921875 C-98.74286338 130.74978204 -97.11187281 128.90793108 -95.5 127 C-86.85157499 117.03135081 -77.01800403 108.89301362 -66.125 101.5 C-65.49464844 101.06647217 -64.86429688 100.63294434 -64.21484375 100.1862793 C-60.83538478 97.9403622 -58.13026685 96.43972423 -54 96 C-54.515625 94.989375 -55.03125 93.97875 -55.5625 92.9375 C-57.32942576 88.82022959 -57.06089093 86.3251707 -56 82 C-55.66666667 81.33333333 -55.66666667 81.33333333 -54 78 C-54.33 77.01 -54.66 76.02 -55 75 C-55.1079128 72.12055201 -54.91068863 69.25083257 -54.75 66.375 C-54.72740112 65.96954956 -54.72740112 65.96954956 -54.61303711 63.91772461 C-54.19809386 57.76407295 -53.5414763 51.69756138 -49.9609375 46.48828125 C-48.91009379 44.86075502 -48.50859794 43.50285991 -48.0625 41.625 C-47.18501587 38.35500055 -45.83529655 35.86306262 -44 33 C-42.39405646 29.92194155 -40.92583645 26.84055078 -39.625 23.625 C-37.15116635 17.80954812 -34.81184678 12.79196561 -29 10 C-27.67997588 8.54994365 -26.58356605 7.02936035 -25.44140625 5.4375 C-19.72284961 -0.2655592 -7.54210964 -1.88552741 0 0 Z M-16 5 C-16.53625 5.04125 -16.53625 5.04125 -19.25 5.25 C-22 6 -22 6 -23.875 8.4375 C-25 11 -25 11 -25 13 C-25.37125 12.9484375 -25.37125 12.9484375 -27.25 12.6875 C-30 13 -30 13 -32.0625 15.0625 C-32.73297736 16.02495944 -33.37742265 17.00588456 -34 18 C-34.3403125 18.53109375 -34.680625 19.0621875 -35.03125 19.609375 C-37.21978148 23.2237679 -38.7481891 26.8613358 -40.15234375 30.8359375 C-41.11637133 33.29709546 -42.28333151 35.59132733 -43.5 37.9375 C-48.05416935 46.96353443 -49.54961056 54.95165624 -50 65 C-49.5153125 64.690625 -49.5153125 64.690625 -47.0625 63.125 C-46.51722656 62.77695313 -45.97195312 62.42890625 -45.41015625 62.0703125 C-44 61 -44 61 -43 59 C-42.845364 57.27323132 -42.7252657 55.54327704 -42.625 53.8125 C-42.11369747 47.62005829 -40.53344891 43.13956205 -37 38 C-37.33 37.34 -37.66 36.68 -38 36 C-37.51055908 36.14219971 -37.02111816 36.28439941 -36.5168457 36.4309082 C-30.01798857 38.11290467 -23.68983575 38.27456241 -17.01733398 38.20581055 C-15.20086401 38.18763373 -13.38491073 38.18530123 -11.56835938 38.18554688 C-1.60957014 38.15607701 8.18820277 37.80375709 17.88671875 35.41015625 C21.2884549 34.7499302 24.54503711 34.87436499 28 35 C27.58467483 32.59111402 27.33524378 31.30810917 25.50390625 29.625 C23.66129977 27.63402781 23.57021501 26.47310998 23.25 23.8125 C21.88025277 17.06238565 17.98917111 13.1930123 12.55078125 9.203125 C3.68152809 3.76504277 -5.91578088 2.9419961 -16 5 Z M16.6875 38.875 C4.96308004 41.48042666 -7.42800947 41.08548716 -19.375 41.125 C-20.36781982 41.12967285 -21.36063965 41.1343457 -22.38354492 41.13916016 C-23.31658447 41.13706543 -24.24962402 41.1349707 -25.2109375 41.1328125 C-26.03899902 41.13168457 -26.86706055 41.13055664 -27.72021484 41.12939453 C-30 41 -30 41 -32.19775391 40.42919922 C-32.79249512 40.28756348 -33.38723633 40.14592773 -34 40 C-37.00095231 41.84673988 -37.80373005 44.64841814 -38.66479492 47.96142578 C-39.04214285 50.25629484 -39.07850457 52.41769353 -39.05078125 54.7421875 C-39.04344971 55.54253418 -39.03611816 56.34288086 -39.02856445 57.16748047 C-39.01913818 57.77221191 -39.00971191 58.37694336 -39 59 C-38.73840088 59.02243774 -38.73840088 59.02243774 -37.41455078 59.13598633 C-11.86287487 61.39319158 -11.86287487 61.39319158 -7.4375 66.4375 C-6.1699431 68.69705796 -5.3776738 70.45070183 -5 73 C-4.01 73 -3.02 73 -2 73 C-1.92072266 72.72865234 -1.92072266 72.72865234 -1.51953125 71.35546875 C-0.40183707 67.92828492 0.38312262 65.54430357 3.125 63.125 C12.11768428 59.60612354 21.46216503 59.44470887 31 59 C30.93941406 58.45472656 30.87882812 57.90945312 30.81640625 57.34765625 C30.73261719 56.59355469 30.64882812 55.83945313 30.5625 55.0625 C30.47097656 54.2478125 30.37945312 53.433125 30.28515625 52.59375 C30.09743747 50.88628052 29.91753929 49.17793015 29.74609375 47.46875 C29.66488281 46.6746875 29.58367187 45.880625 29.5 45.0625 C29.46390625 44.69705078 29.46390625 44.69705078 29.28125 42.84765625 C29 41 29 41 28 39 C23.86654878 37.94465075 20.83007509 37.91461062 16.6875 38.875 Z M33 40 C33.08378906 40.60328125 33.16757813 41.2065625 33.25390625 41.828125 C33.35574219 42.62734375 33.45757812 43.4265625 33.5625 44.25 C33.66691406 45.03890625 33.77132812 45.8278125 33.87890625 46.640625 C34 49 34 49 33.42578125 51.04296875 C32.72281093 54.27405251 34.24459122 56.34823597 35.7421875 59.16015625 C37.42203408 61.61732314 39.30374726 62.80166545 42 64 C42.51646105 58.96450479 41.1884574 55.77150626 39.01171875 51.25 C38.08223094 49.18287653 37.4726247 47.25788339 36.9375 45.0625 C35.95259394 41.84514022 35.72613848 41.5292972 33 40 Z M-39 63 C-41.33342971 67.87898939 -42.59307075 72.39078052 -43.5078125 77.71875 C-44 80 -44 80 -45.4375 82.625 C-46.15807323 85.66742029 -45.48038288 86.46352704 -43.9375 89.125 C-41.60978539 92.41483666 -39.90120245 94.64306002 -36 96 C-29.34373829 96.92244257 -24.21615379 96.48941871 -18.71484375 92.484375 C-13.5270643 87.9938142 -9.74209878 82.82364209 -8.6796875 75.91796875 C-8.48388442 72.40004007 -8.41499093 70.76826493 -10.62109375 67.87109375 C-13.4513301 65.64501294 -16.03673627 64.89537886 -19.5 64.25 C-20.10859863 64.12713623 -20.71719727 64.00427246 -21.34423828 63.87768555 C-27.24946031 62.77859429 -33.00041237 62.7033171 -39 63 Z M3.9375 66.625 C1.60428313 69.48507229 1.21387283 70.95387406 1.4453125 74.58203125 C3.09114581 81.75647362 7.06871047 89.55153285 13 94 C18.50625188 96.51372369 23.38763475 96.9063308 29.0625 94.9375 C32.79831375 92.8430276 35.61402596 89.51127385 38 86 C38 85.34 38 84.68 38 84 C37.52949219 83.690625 37.05898437 83.38125 36.57421875 83.0625 C34.34365175 81.55700565 33.98443391 79.6694148 33.3359375 77.14453125 C32.81237563 73.8022584 32.90852573 70.5101173 33.02734375 67.13671875 C33 65 33 65 32 63 C11.61761508 62.5498369 11.61761508 62.5498369 3.9375 66.625 Z M37 65 C36.07603343 70.61871565 35.70051841 74.72471871 38 80 C38.66 80 39.32 80 40 80 C41.30148765 73.96297897 40.85839807 70.48812429 38 65 C37.67 65 37.34 65 37 65 Z M-46 66 C-47.80230168 69.82989106 -48.19622241 72.78121808 -48 77 C-47.34 77 -46.68 77 -46 77 C-45.67 73.37 -45.34 69.74 -45 66 C-45.33 66 -45.66 66 -46 66 Z M-6 79 C-6.94921875 80.9453125 -6.94921875 80.9453125 -7.6875 83.125 C-7.93886719 83.84945312 -8.19023438 84.57390625 -8.44921875 85.3203125 C-8.63097656 85.87460938 -8.81273438 86.42890625 -9 87 C-8.34 87 -7.68 87 -7 87 C-7.09539062 87.54269531 -7.19078125 88.08539063 -7.2890625 88.64453125 C-7.39992188 89.35996094 -7.51078125 90.07539062 -7.625 90.8125 C-7.74101563 91.52019531 -7.85703125 92.22789063 -7.9765625 92.95703125 C-8.00370595 95.32303568 -7.48330752 96.20531113 -6 98 C-4.35 97.67 -2.7 97.34 -1 97 C-0.835 95.515 -0.835 95.515 0 88 C0.99 87.67 1.98 87.34 3 87 C1.35 83.7 -0.3 80.4 -2 77 C-3.75893381 77 -4.66762128 77.91385836 -6 79 Z M-52 88 C-51.50168276 91.68754757 -50.89932357 93.60490662 -48 96 C-48 95.34 -48 94.68 -48 94 C-47.01 93.67 -46.02 93.34 -45 93 C-46.8125 90.5 -46.8125 90.5 -49 88 C-49.99 88 -50.98 88 -52 88 Z M3 88 C4 90 4 90 4 90 Z M39 90 C38.46375 90.763125 37.9275 91.52625 37.375 92.3125 C34.15070768 96.54592198 29.06334237 98.42123875 23.953125 99.38671875 C17.85987733 99.74012711 12.01507806 97.47516873 7.3203125 93.62109375 C6.15740879 92.46804515 5.06859826 91.24095281 4 90 C3.81824219 90.61488281 3.63648438 91.22976562 3.44921875 91.86328125 C3.32353516 92.26740234 3.32353516 92.26740234 2.6875 94.3125 C2.44386719 95.11300781 2.20023438 95.91351563 1.94921875 96.73828125 C0.95817977 99.09964573 -0.08074943 100.33879993 -2 102 C1.32336556 103.73721381 4.28950904 105.28644405 8 106 C8 107.32 8 108.64 8 110 C7.4225 110.12375 6.845 110.2475 6.25 110.375 C4 111 4 111 2.25 112.0625 C-1.14505901 113.47710792 -4.37439952 113.49833951 -8 113 C-10.8125 111.5 -10.8125 111.5 -13 110 C-13.99 110 -14.98 110 -16 110 C-16 108.68 -16 107.36 -16 106 C-15.7215625 105.95875 -15.7215625 105.95875 -14.3125 105.75 C-11.30285794 104.77389987 -9.37845248 103.04811186 -7 101 C-7.226875 100.814375 -7.226875 100.814375 -8.375 99.875 C-10.47029394 97.45735315 -11.12013285 95.04569398 -12 92 C-12.68707031 92.42152344 -13.37414062 92.84304687 -14.08203125 93.27734375 C-14.98308594 93.82519531 -15.88414063 94.37304688 -16.8125 94.9375 C-17.70582031 95.48277344 -18.59914063 96.02804688 -19.51953125 96.58984375 C-25.08614935 99.75448805 -30.75270596 99.4830382 -37 99 C-39.61711352 98.24976079 -41.59543615 97.31158028 -44 96 C-43.49547791 104.74504957 -39.95399954 112.27590788 -36 120 C-36.99 120.33 -37.98 120.66 -39 121 C-34.23641464 136.29673064 -24.89810842 149.29227675 -12.75 159.625 C-12.2547583 160.05111572 -11.7595166 160.47723145 -11.24926758 160.91625977 C-8.27561485 163.3430683 -5.90950611 165.17632298 -2 165 C0.30181883 163.48975329 2.07800933 161.57882232 3.9375 159.5625 C4.46311523 159.01352051 4.98873047 158.46454102 5.53027344 157.89892578 C16 146.8093239 16 146.8093239 16 143 C15.28457031 143.2165625 14.56914062 143.433125 13.83203125 143.65625 C0.66378719 147.33586283 -10.64087323 146.92988405 -23 141 C-27.77804296 137.66587112 -27.77804296 137.66587112 -29 134 C-26.08295771 135.02954434 -23.83589249 136.11831007 -21.3125 137.9375 C-13.85152122 143.00640924 -4.7937096 144.03388575 4 143 C7.8500029 142.0095639 11.38286164 140.63741122 15 139 C15.69351563 138.72285156 16.38703125 138.44570312 17.1015625 138.16015625 C21.82313058 135.98019822 23.56689462 132.93978924 25.44140625 128.1640625 C26 126 26 126 25.4375 123.4375 C25 121 25 121 25.85546875 119.44921875 C26.75032368 118.16338105 27.64625806 116.87829423 28.54296875 115.59375 C30.74027244 111.68219599 31.85245945 107.44220844 32.94775391 103.10400391 C33.48559953 101.23184136 33.98294821 99.66333888 35 98 C38.04296875 96.7109375 38.04296875 96.7109375 41 96 C44 92 44 92 44 89 C42 89 42 89 39 90 Z M-47 105 C-46 107 -46 107 -46 107 Z M31 122 C32 124 32 124 32 124 Z M-41 128 C-40 130 -40 130 -40 130 Z M29 128 C28.67 129.32 28.34 130.64 28 132 C28.66 131.67 29.32 131.34 30 131 C29.67 130.01 29.34 129.02 29 128 Z M26 134 C27 136 27 136 27 136 Z M18 147 C19 149 19 149 19 149 Z M15 151 C16 153 16 153 16 153 Z M-26 152 C-26 152.66 -26 153.32 -26 154 C-25.34 153.67 -24.68 153.34 -24 153 C-24.66 152.67 -25.32 152.34 -26 152 Z M-22 156 C-21.34 157.32 -20.68 158.64 -20 160 C-19.34 159.67 -18.68 159.34 -18 159 C-19.32 158.01 -20.64 157.02 -22 156 Z " fill="#c81e1e" transform="translate(119,15)"/>
<path d="M0 0 C5.28 0 10.56 0 16 0 C17.95098266 3.90196532 18.92199012 6.74173635 18 11 C16.69110938 13.24702253 15.23283427 14.67315869 13 16 C10 16.625 10 16.625 7 16 C2.88887792 12.82322385 1.18086637 10.15287145 0 5 C0 3.35 0 1.7 0 0 Z M6 4 C5.3125 5.8125 5.3125 5.8125 5 8 C6.4375 9.75 6.4375 9.75 8 11 C8 10.01 8 9.02 8 8 C9.32 8 10.64 8 12 8 C12.33 8.99 12.66 9.98 13 11 C14 10 14 10 14.125 7.5 C14 5 14 5 13 4 C11.37109375 3.90234375 11.37109375 3.90234375 9.4375 3.9375 C8.8703125 3.9478125 8.8703125 3.9478125 6 4 Z " fill="#c81e1e" transform="translate(86,89)"/>
<path d="M0 0 C1.39456452 0.00667256 2.78911118 0.01863093 4.18359375 0.03515625 C4.89451172 0.03966797 5.60542969 0.04417969 6.33789062 0.04882812 C8.09899388 0.06064761 9.86005411 0.07858362 11.62109375 0.09765625 C13.33701066 3.36410049 14.24329566 5.36444479 13.62109375 9.09765625 C11.98563832 12.12032834 10.10550714 14.45519943 6.90625 15.83984375 C3.28690636 16.61598309 1.96559522 16.31484196 -1.25390625 14.28515625 C-4.21467946 11.23730148 -4.51718291 9.67083447 -4.50390625 5.53515625 C-4.50519531 5.13232422 -4.50519531 5.13232422 -4.51171875 3.09375 C-4.28200761 -0.35867338 -3.57370128 0.10328616 0 0 Z M0.62109375 4.09765625 C-0.00390625 6.47265625 -0.00390625 6.47265625 -0.37890625 9.09765625 C0.28109375 9.75765625 0.94109375 10.41765625 1.62109375 11.09765625 C1.90984375 10.60265625 2.19859375 10.10765625 2.49609375 9.59765625 C2.86734375 9.10265625 3.23859375 8.60765625 3.62109375 8.09765625 C4.28109375 8.09765625 4.94109375 8.09765625 5.62109375 8.09765625 C5.62109375 9.08765625 5.62109375 10.07765625 5.62109375 11.09765625 C6.28109375 11.09765625 6.94109375 11.09765625 7.62109375 11.09765625 C8.00242674 9.10625065 8.33434957 7.10486548 8.62109375 5.09765625 C7.62109375 4.09765625 7.62109375 4.09765625 5.9921875 4 C5.67314453 4.00580078 5.67314453 4.00580078 4.05859375 4.03515625 C3.49140625 4.04546875 3.49140625 4.04546875 0.62109375 4.09765625 Z " fill="#c81e1e" transform="translate(131.37890625,88.90234375)"/>
<path d="M0 0 C4.35145241 0.38395168 6.443714 1.9902133 9.57421875 4.7890625 C11.2494848 6.2118912 12.97984779 7.14532022 15 8 C15 8.99 15 9.98 15 11 C8.88999426 10.87270821 6.01684567 8.81388513 1.50390625 4.7890625 C0 3 0 3 0 0 Z " fill="#c81e1e" transform="translate(95,132)"/>
<path d="M0 0 C-0.1637162 2.29202683 -0.5889582 3.6223863 -2.296875 5.19140625 C-5.25370038 7.29192329 -5.25370038 7.29192329 -7 8 C-7.99 7.67 -8.98 7.34 -10 7 C-8.95703186 3.87109557 -8.70829534 3.48971414 -6.125 1.8125 C-5.61195312 1.46832031 -5.09890625 1.12414062 -4.5703125 0.76953125 C-3 0 -3 0 0 0 Z " fill="#c81e1e" transform="translate(132,135)"/>
<path d="M0 0 C1.32 0.33 2.64 0.66 4 1 C1.61308916 9.01855067 -3.04982941 15.27288851 -7.81835938 22.046875 C-13.22448861 29.89986785 -16.60092236 37.80353572 -19 47 C-20.32 47 -21.64 47 -23 47 C-22.66184234 40.00013635 -20.79975415 34.38132645 -18 28 C-17.32812578 26.3354258 -16.66002743 24.66930705 -16 23 C-16.71027344 22.72285156 -17.42054687 22.44570312 -18.15234375 22.16015625 C-19.07144531 21.79792969 -19.99054687 21.43570313 -20.9375 21.0625 C-21.85402344 20.70285156 -22.77054688 20.34320313 -23.71484375 19.97265625 C-26 19 -26 19 -27 18 C-27.07179964 16.48071962 -27.08392007 14.95832518 -27.0625 13.4375 C-27.05347656 12.61121094 -27.04445313 11.78492188 -27.03515625 10.93359375 C-27.02355469 10.29550781 -27.01195313 9.65742188 -27 9 C-26.56131592 9.2172876 -26.12263184 9.4345752 -25.6706543 9.65844727 C-23.6811429 10.63676181 -21.68457374 11.5997234 -19.6875 12.5625 C-18.99720703 12.90474609 -18.30691406 13.24699219 -17.59570312 13.59960938 C-17.2621582 13.75913086 -17.2621582 13.75913086 -15.57421875 14.56640625 C-14.96151123 14.86490479 -14.34880371 15.16340332 -13.7175293 15.47094727 C-12 16 -12 16 -9 15 C-7.83325195 13.50952148 -7.83325195 13.50952148 -6.73828125 11.62109375 C-6.34189453 10.94755859 -5.94550781 10.27402344 -5.53710938 9.58007812 C-5.13298828 8.87302734 -4.72886719 8.16597656 -4.3125 7.4375 C-3.89677734 6.72658203 -3.48105469 6.01566406 -3.05273438 5.28320312 C-2.02707904 3.526621 -1.00997248 1.76563079 0 0 Z " fill="#c81e1e" transform="translate(27,182)"/>
<path d="M0 0 C2.31954208 0.38059276 3.64575834 0.60766039 5.24853516 2.3828125 C5.42022217 2.67027344 5.42022217 2.67027344 6.2890625 4.125 C6.67320312 4.74890625 7.05734375 5.3728125 7.453125 6.015625 C7.83984375 6.67046875 8.2265625 7.3253125 8.625 8 C9.40460038 9.29423853 10.18827088 10.58603667 10.9765625 11.875 C11.31768066 12.44992188 11.65879883 13.02484375 12.01025391 13.6171875 C13 15 13 15 15 16 C20.91550746 14.26577749 25.98693222 11.50914744 31 8 C31.66 8 32.32 8 33 8 C33.63742849 11.18714246 33.85753413 13.84201502 33 17 C29.27947305 20.39164059 25.10087045 23 20 23 C21.64791802 28.17477061 23.74492263 33.04653348 25.9765625 38 C27.06425448 41.188349 27.18907782 43.65630803 27 47 C25.68 47 24.36 47 23 47 C22.85304687 46.33355469 22.70609375 45.66710937 22.5546875 44.98046875 C22.33039063 44.05878906 22.10609375 43.13710937 21.875 42.1875 C21.77058594 41.74083984 21.77058594 41.74083984 21.2421875 39.48046875 C18.01661946 29.14941692 10.79844539 20.04555804 4.68359375 11.27929688 C4.38130859 10.83682617 4.38130859 10.83682617 2.8515625 8.59765625 C2.57739502 8.20324341 2.57739502 8.20324341 1.18994141 6.20727539 C-0.06666 3.8763494 -0.27061919 2.60053917 0 0 Z " fill="#c81e1e" transform="translate(196,182)"/>
</g>
</svg>
