<?xml version="1.0" encoding="UTF-8"?>
<!-- Generator: visioncortex VTracer 0.6.12 -->
<svg version="1.1" xmlns="http://www.w3.org/2000/svg" width="229" height="229">
<path d="M0 0 C4.69610983 2.13064242 9.08559451 1.96442376 14.13134766 1.81347656 C23.23467979 1.59758726 29.33219983 3.19383731 36.234375 9.33203125 C46.95189117 20.86245283 50.38996361 36.66953927 51.109375 51.95703125 C51.150625 52.79234375 51.191875 53.62765625 51.234375 54.48828125 C51.51230684 66.0224526 51.01711008 78.8083202 45.109375 88.95703125 C44.62597656 89.8284375 44.14257812 90.69984375 43.64453125 91.59765625 C41.06584421 96.13614544 38.36633502 100.57683334 35.5390625 104.96484375 C29.12592759 114.9374555 24.32938136 122.73713094 25.109375 134.95703125 C26.099375 134.95703125 27.089375 134.95703125 28.109375 134.95703125 C28.439375 132.64703125 28.769375 130.33703125 29.109375 127.95703125 C33.69088966 129.4842028 36.90544506 131.54917136 39.109375 135.95703125 C39.80286156 143.34664213 39.75710934 149.90416793 35.109375 155.95703125 C32.04699056 159.07509541 28.73933788 161.537056 25.109375 163.95703125 C27.419375 167.58703125 29.729375 171.21703125 32.109375 174.95703125 C33.429375 173.30703125 34.749375 171.65703125 36.109375 169.95703125 C38.859375 169.64453125 38.859375 169.64453125 41.109375 169.95703125 C41.18865234 169.66699219 41.18865234 169.66699219 41.58984375 168.19921875 C43.49222722 161.82991277 46.05302948 156.28486694 52.109375 152.95703125 C55.30606091 153.27669984 57.58234159 153.96200487 60.109375 155.95703125 C60.769375 155.62703125 61.429375 155.29703125 62.109375 154.95703125 C64.10897512 154.91703925 66.10984742 154.91356326 68.109375 154.95703125 C69.3203125 157.15625 69.3203125 157.15625 70.109375 159.95703125 C68.7734375 162.4140625 68.7734375 162.4140625 66.734375 164.76953125 C66.06664062 165.55972656 65.39890625 166.34992188 64.7109375 167.1640625 C64.18242187 167.75574219 63.65390625 168.34742188 63.109375 168.95703125 C63.56570312 168.65023437 64.02203125 168.3434375 64.4921875 168.02734375 C68.08085395 165.652236 70.71634805 164.39382267 75.109375 164.95703125 C76.984375 166.20703125 76.984375 166.20703125 78.109375 167.95703125 C78.109375 169.95703125 78.109375 169.95703125 77.109375 171.95703125 C74.859375 173.45703125 74.859375 173.45703125 72.109375 174.95703125 C68.12687202 177.550289 66.69346048 179.39687871 65.49975586 183.99511719 C64.8545311 187.23778522 64.72793962 190.40729127 64.734375 193.70703125 C64.73373047 194.05427246 64.73373047 194.05427246 64.73046875 195.81152344 C64.84099863 201.25009583 66.00223172 205.73133585 68.234375 210.72265625 C69.12357014 212.99327956 69.28632121 214.54613919 69.109375 216.95703125 C67.789375 216.95703125 66.469375 216.95703125 65.109375 216.95703125 C64.449375 214.31703125 63.789375 211.67703125 63.109375 208.95703125 C62.51769531 209.17359375 61.92601562 209.39015625 61.31640625 209.61328125 C53.46789873 212.37882387 53.46789873 212.37882387 49.109375 211.95703125 C48.779375 213.60703125 48.449375 215.25703125 48.109375 216.95703125 C46.789375 216.95703125 45.469375 216.95703125 44.109375 216.95703125 C44.13 216.12300781 44.150625 215.28898438 44.171875 214.4296875 C44.02479063 206.40439666 42.98030999 202.99381043 37.07421875 197.22265625 C34.87248759 194.68388075 34.22828966 192.86806958 33.359375 189.64453125 C31.57916804 183.41380688 28.58233494 178.23745145 25.234375 172.70703125 C24.7280957 171.86744873 24.22181641 171.02786621 23.70019531 170.1628418 C14.06580399 154.50308853 14.06580399 154.50308853 6.109375 151.95703125 C5.573125 152.84390625 5.036875 153.73078125 4.484375 154.64453125 C0.8351909 160.08607079 -2.40941776 162.6607898 -8.890625 163.95703125 C-7.900625 170.22703125 -6.910625 176.49703125 -5.890625 182.95703125 C-6.880625 183.61703125 -7.870625 184.27703125 -8.890625 184.95703125 C-9.220625 184.13203125 -9.220625 184.13203125 -10.890625 179.95703125 C-11.550625 180.61703125 -12.210625 181.27703125 -12.890625 181.95703125 C-15.515625 181.58203125 -15.515625 181.58203125 -17.890625 180.95703125 C-18.515625 178.58203125 -18.515625 178.58203125 -18.890625 175.95703125 C-18.230625 175.29703125 -17.570625 174.63703125 -16.890625 173.95703125 C-14.265625 174.33203125 -14.265625 174.33203125 -11.890625 174.95703125 C-12.220625 173.63703125 -12.550625 172.31703125 -12.890625 170.95703125 C-13.674375 171.16328125 -14.458125 171.36953125 -15.265625 171.58203125 C-16.131875 171.70578125 -16.998125 171.82953125 -17.890625 171.95703125 C-18.220625 171.62703125 -18.220625 171.62703125 -19.890625 169.95703125 C-19.515625 166.83203125 -19.515625 166.83203125 -18.890625 163.95703125 C-19.6125 163.87453125 -20.334375 163.79203125 -21.078125 163.70703125 C-24.47989368 162.79989294 -26.34528584 161.35692246 -28.890625 158.95703125 C-28.890625 158.29703125 -28.890625 157.63703125 -28.890625 156.95703125 C-44.39549742 163.38588079 -52.02104135 182.70580723 -59.58056641 196.56347656 C-61.87094858 200.74814053 -64.19540931 204.91385984 -66.515625 209.08203125 C-67.36212452 210.60538799 -68.20849264 212.12881776 -69.0546875 213.65234375 C-69.36067708 214.203125 -69.36067708 214.203125 -70.890625 216.95703125 C-72.210625 216.62703125 -73.530625 216.29703125 -74.890625 215.95703125 C-61.79252624 190.09967839 -61.79252624 190.09967839 -54.390625 177.76953125 C-53.92366211 176.98868164 -53.45669922 176.20783203 -52.97558594 175.40332031 C-49.89761687 170.3584432 -46.5160704 165.62249861 -42.890625 160.95703125 C-43.86 160.91578125 -44.829375 160.87453125 -45.828125 160.83203125 C-51.5185101 160.01085779 -56.35126505 156.60338671 -60.28125 152.5078125 C-64.27104837 147.07394532 -65.76029288 139.57772867 -64.890625 132.95703125 C-63.51081051 126.03287127 -60.35575521 120.51544667 -54.890625 115.95703125 C-53.900625 115.95703125 -52.910625 115.95703125 -51.890625 115.95703125 C-51.725625 117.93703125 -51.725625 117.93703125 -50.890625 127.95703125 C-49.240625 127.95703125 -47.590625 127.95703125 -45.890625 127.95703125 C-47.14139559 118.95201691 -50.44093029 110.94319652 -53.828125 102.58203125 C-59.08432415 89.59115095 -63.47891501 77.5722627 -63.328125 63.33203125 C-63.31910156 62.29369141 -63.31007813 61.25535156 -63.30078125 60.18554688 C-62.88171103 41.26918289 -57.70170917 22.81175071 -44.171875 9.00390625 C-40.63701332 5.83221529 -37.0603118 3.23011434 -32.890625 0.95703125 C-32.14425781 0.54453125 -31.39789063 0.13203125 -30.62890625 -0.29296875 C-20.76965413 -4.98629868 -9.78140241 -4.52309948 0 0 Z M-46.66796875 17.1171875 C-59.03403393 34.4548514 -61.4552405 57.40459422 -58.375 78.0390625 C-56.35265251 88.36117836 -51.7519937 98.16446052 -47.68823242 107.81933594 C-47.44720795 108.3923645 -47.20618347 108.96539307 -46.95785522 109.55578613 C-46.29239379 111.13152218 -45.62157934 112.70499445 -44.95043945 114.27832031 C-43.06931433 119.03291714 -41.92980511 123.8506514 -42.890625 128.95703125 C-45.078125 131.08203125 -45.078125 131.08203125 -47.890625 131.95703125 C-50.515625 131.58203125 -50.515625 131.58203125 -52.890625 129.95703125 C-54.18276174 127.71252281 -55.08275396 125.41348466 -55.890625 122.95703125 C-59.26868902 125.56735345 -60.13656239 128.91860705 -60.890625 132.95703125 C-61.47822731 139.30313623 -60.53643058 145.65156683 -56.44921875 150.7578125 C-51.72283725 155.1771437 -45.81855261 158.05055334 -39.265625 157.89453125 C-38.481875 157.58515625 -37.698125 157.27578125 -36.890625 156.95703125 C-36.30152344 156.76496094 -35.71242188 156.57289063 -35.10546875 156.375 C-32.13052608 155.13493149 -30.34826989 153.97067454 -29 150.984375 C-28.33286857 147.97751836 -28.0728443 145.02205336 -27.890625 141.95703125 C-27.83229492 141.21710938 -27.77396484 140.4771875 -27.71386719 139.71484375 C-26.88980082 128.18712203 -27.8884903 118.61732244 -32.31225586 107.88110352 C-35.48251749 100.16536006 -36.46627018 93.0548136 -35.140625 84.76953125 C-34.7134536 80.65075517 -34.67419677 78.42198602 -37.203125 75.08203125 C-37.6671875 74.54320313 -38.13125 74.004375 -38.609375 73.44921875 C-43.02902603 68.30194225 -42.09374614 61.29892462 -41.890625 54.95703125 C-38.85013329 53.98618117 -36.13935103 53.9666357 -32.96777344 54.02368164 C-28.47902519 54.01348539 -25.09619102 53.95363249 -21.546875 51.01953125 C-20.24297448 49.30949779 -18.99851144 47.55293813 -17.80859375 45.76171875 C-15.78194738 42.7981096 -13.57269509 40.59160285 -10.953125 38.14453125 C-7.04995322 34.40695316 -3.83612136 30.40215671 -0.765625 25.95703125 C-0.37511963 25.39266357 0.01538574 24.8282959 0.41772461 24.24682617 C3.109375 20.23289718 3.109375 20.23289718 3.109375 17.95703125 C4.099375 17.95703125 5.089375 17.95703125 6.109375 17.95703125 C6.17125 18.98828125 6.233125 20.01953125 6.296875 21.08203125 C7.60106295 31.01124888 12.05377165 40.33169635 16.484375 49.20703125 C16.835 49.94622803 17.185625 50.6854248 17.546875 51.44702148 C20.148741 56.45011499 20.148741 56.45011499 22.71850586 57.80615234 C24.50976605 58.31922311 26.27275917 58.64830675 28.109375 58.95703125 C29.26734462 59.29509621 30.42005321 59.65176918 31.56640625 60.02734375 C32.12134766 60.20136719 32.67628906 60.37539062 33.24804688 60.5546875 C34.38394006 60.9125535 35.51934213 61.27198134 36.65429688 61.6328125 C40.89080122 62.95703125 40.89080122 62.95703125 43.109375 62.95703125 C40.79498034 71.82887744 38.07897895 78.78147668 30.109375 83.95703125 C29.284375 84.1271875 28.459375 84.29734375 27.609375 84.47265625 C23.99704048 86.61747987 23.77379411 89.16521313 22.73242188 93.109375 C22.61930664 93.57923828 22.61930664 93.57923828 22.046875 95.95703125 C19.75960003 104.99080636 17.13702567 113.60421373 12.546875 121.76953125 C9.55856658 127.61702365 8.24420171 133.53475267 7.109375 139.95703125 C6.94566406 140.67375 6.78195313 141.39046875 6.61328125 142.12890625 C6.359375 143.89453125 6.359375 143.89453125 7.109375 146.95703125 C9.22438881 148.72627847 11.41023489 150.08506744 13.796875 151.46484375 C16.08433431 152.94087324 17.25348658 154.1911412 18.796875 156.39453125 C21.109375 158.95703125 21.109375 158.95703125 24.046875 159.14453125 C28.81815037 157.29444488 31.9202159 155.38541931 34.22265625 150.68359375 C36.24003149 144.90696862 36.32339432 140.65932562 34.109375 134.95703125 C33.119375 134.95703125 32.129375 134.95703125 31.109375 134.95703125 C30.655625 135.45203125 30.201875 135.94703125 29.734375 136.45703125 C28.109375 137.95703125 28.109375 137.95703125 25.421875 138.14453125 C24.65875 138.08265625 23.895625 138.02078125 23.109375 137.95703125 C20.52601153 134.08198604 20.56998285 130.42770144 21.109375 125.95703125 C23.40737573 117.41136799 27.72993765 110.26872656 32.546875 102.95703125 C45.49204669 83.20144946 45.49204669 83.20144946 46.484375 72.08203125 C46.55543457 71.37570557 46.62649414 70.66937988 46.69970703 69.94165039 C48.24668181 51.67666562 47.29072987 30.3090059 36.109375 14.95703125 C31.36251827 9.80916304 26.87524702 6.21154036 19.69921875 5.7265625 C18.48169296 5.73050271 17.26416011 5.74500483 16.046875 5.76953125 C15.43521484 5.77017578 14.82355469 5.77082031 14.19335938 5.77148438 C11.66536195 5.79608111 9.41295235 5.86254769 6.98828125 6.6171875 C4.15045564 7.13047404 2.58900774 5.95036517 0.109375 4.58203125 C-17.08606658 -4.80206644 -34.94903875 2.87418027 -46.66796875 17.1171875 Z M2.109375 25.95703125 C0.87035428 27.62819823 -0.32830152 29.31219995 -1.515625 31.01953125 C-4.56110102 35.32515634 -7.77137135 39.10469191 -11.640625 42.71484375 C-12.053125 43.12476562 -12.465625 43.5346875 -12.890625 43.95703125 C-12.890625 44.28703125 -12.890625 44.61703125 -12.890625 44.95703125 C-10.580625 45.61703125 -8.270625 46.27703125 -5.890625 46.95703125 C-6.31214844 47.00601563 -6.31214844 47.00601563 -8.4453125 47.25390625 C-9.54101562 47.4034375 -10.63671875 47.55296875 -11.765625 47.70703125 C-12.85617188 47.84625 -13.94671875 47.98546875 -15.0703125 48.12890625 C-17.890625 48.95703125 -17.890625 48.95703125 -19.2734375 51.03515625 C-19.47710937 51.669375 -19.68078125 52.30359375 -19.890625 52.95703125 C-19.01019531 53.4159375 -18.12976563 53.87484375 -17.22265625 54.34765625 C-16.0493329 54.96717098 -14.876164 55.58697827 -13.703125 56.20703125 C-13.12498047 56.50738281 -12.54683594 56.80773437 -11.95117188 57.1171875 C-9.14295682 58.60855595 -6.60200531 60.10503303 -4.16796875 62.16015625 C-1.65067624 64.14635617 -0.05292263 64.53429042 3.14453125 64.359375 C6.31833245 63.70947137 9.10507949 62.36235709 11.99609375 60.9296875 C14.02870145 59.99416196 15.92707834 59.42501812 18.109375 58.95703125 C16.80076543 55.03120254 15.36088287 52.55823755 12.109375 49.95703125 C9.359375 49.20703125 9.359375 49.20703125 7.109375 48.95703125 C8.20596436 46.76385253 9.06612815 46.20074673 11.109375 44.95703125 C8.47282821 38.61056091 5.83386483 32.26637613 3.109375 25.95703125 C2.779375 25.95703125 2.449375 25.95703125 2.109375 25.95703125 Z M-38.890625 57.95703125 C-39.32954932 63.33385421 -38.68910347 68.23531861 -35.890625 72.95703125 C-34.900625 73.28703125 -33.910625 73.61703125 -32.890625 73.95703125 C-32.07518697 71.87480573 -31.26319529 69.79134433 -30.453125 67.70703125 C-30.22302734 67.12050781 -29.99292969 66.53398438 -29.75585938 65.9296875 C-28.6079794 62.96848989 -27.5598592 60.06473948 -26.890625 56.95703125 C-28.70304552 56.93015846 -30.51557733 56.9106941 -32.328125 56.89453125 C-32.83279297 56.88873047 -32.83279297 56.88873047 -35.38671875 56.859375 C-37.890625 56.95703125 -37.890625 56.95703125 -38.890625 57.95703125 Z M-22.890625 56.95703125 C-29.59449744 71.55384218 -29.59449744 71.55384218 -29.890625 78.95703125 C-28.4788467 79.49097304 -27.06092256 80.00868229 -25.640625 80.51953125 C-24.85171875 80.80957031 -24.0628125 81.09960938 -23.25 81.3984375 C-20.69959048 82.00225962 -19.33740271 81.80442445 -16.890625 80.95703125 C-17.2103125 80.65796875 -17.2103125 80.65796875 -18.828125 79.14453125 C-22.38556982 75.37148372 -21.95789276 71.97957239 -21.828125 67.11328125 C-21.890625 64.95703125 -21.890625 64.95703125 -22.890625 61.95703125 C-21.453125 59.26953125 -21.453125 59.26953125 -19.890625 56.95703125 C-20.880625 56.95703125 -21.870625 56.95703125 -22.890625 56.95703125 Z M-18.703125 63.89453125 C-20.31487055 68.05113821 -20.0120312 71.66533383 -18.890625 75.95703125 C-18.230625 76.61703125 -17.570625 77.27703125 -16.890625 77.95703125 C-15.900625 77.95703125 -14.910625 77.95703125 -13.890625 77.95703125 C-13.890625 76.63703125 -13.890625 75.31703125 -13.890625 73.95703125 C-12.570625 74.28703125 -11.250625 74.61703125 -9.890625 74.95703125 C-9.80940576 73.35370334 -9.75133366 71.74919099 -9.703125 70.14453125 C-9.66832031 69.25121094 -9.63351563 68.35789062 -9.59765625 67.4375 C-9.890625 64.95703125 -9.890625 64.95703125 -11.27734375 63.1640625 C-12.890625 61.95703125 -12.890625 61.95703125 -14.890625 61.45703125 C-16.890625 61.95703125 -16.890625 61.95703125 -18.703125 63.89453125 Z M18.109375 61.95703125 C18.769375 62.61703125 19.429375 63.27703125 20.109375 63.95703125 C20.109375 63.29703125 20.109375 62.63703125 20.109375 61.95703125 C19.449375 61.95703125 18.789375 61.95703125 18.109375 61.95703125 Z M24.109375 61.95703125 C24.769375 68.55703125 25.429375 75.15703125 26.109375 81.95703125 C32.3509105 79.46041705 35.49425036 76.18728054 38.484375 70.20703125 C39.109375 67.95703125 39.109375 67.95703125 39.109375 64.95703125 C37.1730046 64.45267431 35.23523354 63.95369251 33.296875 63.45703125 C32.21792969 63.17859375 31.13898438 62.90015625 30.02734375 62.61328125 C27.109375 61.95703125 27.109375 61.95703125 24.109375 61.95703125 Z M-6.890625 64.95703125 C-6.560625 66.60703125 -6.230625 68.25703125 -5.890625 69.95703125 C-5.560625 68.63703125 -5.230625 67.31703125 -4.890625 65.95703125 C-5.550625 65.62703125 -6.210625 65.29703125 -6.890625 64.95703125 Z M8.109375 68.95703125 C7.80859375 70.83203125 7.80859375 70.83203125 7.796875 72.95703125 C7.78011719 73.65828125 7.76335937 74.35953125 7.74609375 75.08203125 C8.109375 76.95703125 8.109375 76.95703125 9.44140625 78.26953125 C11.109375 78.95703125 11.109375 78.95703125 14.109375 77.95703125 C14.439375 78.45203125 14.439375 78.45203125 16.109375 80.95703125 C18.31346907 78.56926267 19.07582057 77.22546668 19.484375 73.95703125 C19.06249409 70.58198399 18.68208948 69.18671713 16.109375 66.95703125 C10.76392045 66.3024858 10.76392045 66.3024858 8.109375 68.95703125 Z M-0.890625 67.95703125 C-1.18195313 68.62089844 -1.47328125 69.28476563 -1.7734375 69.96875 C-4.93532174 76.77972705 -7.81756787 80.53521349 -14.203125 84.33203125 C-18.21973988 85.26612773 -21.85711136 84.6080545 -25.890625 83.95703125 C-26.52226563 83.8590625 -27.15390625 83.76109375 -27.8046875 83.66015625 C-29.16908568 83.44030062 -30.53036401 83.20118066 -31.890625 82.95703125 C-33.62955645 93.44732425 -31.54574474 101.15384566 -27.73046875 110.9296875 C-23.63384757 122.30919078 -24.05222877 134.35371196 -25.3046875 146.27734375 C-25.36954346 146.91744385 -25.43439941 147.55754395 -25.5012207 148.21704102 C-25.68927986 149.89592944 -25.92294386 151.56953605 -26.16015625 153.2421875 C-25.890625 155.95703125 -25.890625 155.95703125 -23.51953125 158.28125 C-19.21864806 161.02282339 -14.96812523 161.69557674 -9.890625 160.95703125 C-4.74831584 159.18846137 -0.52974037 156.82924424 2.109375 151.95703125 C2.73731056 149.13132125 3.15849626 146.30604865 3.57421875 143.44140625 C5.25587365 132.0748448 8.66391847 122.3222828 13.81054688 112.0625 C17.51445686 104.51864328 21.109375 95.5089174 21.109375 86.95703125 C20.44550781 86.79847656 19.78164062 86.63992187 19.09765625 86.4765625 C13.32503125 84.95124115 9.72955958 83.78394402 6.109375 78.95703125 C4.24550868 75.45736663 2.88849796 71.85264606 2.109375 67.95703125 C1.119375 67.95703125 0.129375 67.95703125 -0.890625 67.95703125 Z M21.109375 76.95703125 C20.119375 78.93703125 19.129375 80.91703125 18.109375 82.95703125 C19.429375 82.95703125 20.749375 82.95703125 22.109375 82.95703125 C22.109375 80.97703125 22.109375 78.99703125 22.109375 76.95703125 C21.779375 76.95703125 21.449375 76.95703125 21.109375 76.95703125 Z M50.7578125 158.1640625 C50.33757812 158.69386719 49.91734375 159.22367188 49.484375 159.76953125 C49.27167969 160.03056641 49.27167969 160.03056641 48.1953125 161.3515625 C45.33641506 165.57820583 45.77796774 170.49597317 45.671875 175.39453125 C45.62611328 176.25369141 45.58035156 177.11285156 45.53320312 177.99804688 C45.42215497 184.22157168 45.42215497 184.22157168 47.41015625 186.34912109 C49.01953125 187.3828125 49.01953125 187.3828125 52.109375 188.95703125 C53.984375 191.70703125 53.984375 191.70703125 55.109375 193.95703125 C54.119375 193.95703125 53.129375 193.95703125 52.109375 193.95703125 C51.7175 193.35890625 51.325625 192.76078125 50.921875 192.14453125 C48.57472048 189.31175856 46.28257495 188.6951316 42.8515625 187.5703125 C41.109375 186.95703125 41.109375 186.95703125 40.109375 185.95703125 C39.87509722 183.94108543 39.69601376 181.91855725 39.546875 179.89453125 C39.46308594 178.78980469 39.37929687 177.68507812 39.29296875 176.546875 C39.26267578 176.11955078 39.26267578 176.11955078 39.109375 173.95703125 C38.449375 173.95703125 37.789375 173.95703125 37.109375 173.95703125 C36.50246994 190.16364426 36.50246994 190.16364426 40.109375 194.95703125 C42.08500769 197.08083639 44.12608456 199.09781932 46.234375 201.08984375 C48.40024805 203.24669233 49.75173773 205.24175671 51.109375 207.95703125 C54.079375 207.29703125 57.049375 206.63703125 60.109375 205.95703125 C60.15835938 204.61769531 60.20734375 203.27835938 60.2578125 201.8984375 C60.33291141 200.10545103 60.40845608 198.31248319 60.484375 196.51953125 C60.5153125 195.64103516 60.54625 194.76253906 60.578125 193.85742188 C60.83613938 188.03059717 61.64091847 182.60221989 63.109375 176.95703125 C61.459375 177.28703125 59.809375 177.61703125 58.109375 177.95703125 C58.14401734 170.47428522 60.36328225 166.57953317 65.109375 160.95703125 C65.439375 160.29703125 65.769375 159.63703125 66.109375 158.95703125 C62.70611988 159.15150297 60.79774949 159.91297707 58.546875 162.39453125 C55.42060707 166.4408717 53.80016286 171.17748567 52.109375 175.95703125 C51.119375 175.95703125 50.129375 175.95703125 49.109375 175.95703125 C48.524524 169.70237473 49.67632439 166.13281366 53.109375 160.95703125 C53.7896117 159.63056969 54.46429761 158.30094248 55.109375 156.95703125 C52.109375 156.95703125 52.109375 156.95703125 50.7578125 158.1640625 Z M-16.890625 166.95703125 C-16.230625 167.61703125 -15.570625 168.27703125 -14.890625 168.95703125 C-14.890625 168.29703125 -14.890625 167.63703125 -14.890625 166.95703125 C-15.550625 166.95703125 -16.210625 166.95703125 -16.890625 166.95703125 Z M66.359375 171.95703125 C65.74578125 172.51390625 65.1321875 173.07078125 64.5 173.64453125 C64.04109375 174.07765625 63.5821875 174.51078125 63.109375 174.95703125 C63.439375 175.61703125 63.769375 176.27703125 64.109375 176.95703125 C64.49609375 176.63089844 64.8828125 176.30476562 65.28125 175.96875 C68.16733575 173.54700973 71.06587863 171.18112475 74.109375 168.95703125 C70.43769715 168.56711856 69.0299506 169.49188454 66.359375 171.95703125 Z M-15.890625 176.95703125 C-15.890625 177.61703125 -15.890625 178.27703125 -15.890625 178.95703125 C-15.230625 178.95703125 -14.570625 178.95703125 -13.890625 178.95703125 C-13.890625 178.29703125 -13.890625 177.63703125 -13.890625 176.95703125 C-14.550625 176.95703125 -15.210625 176.95703125 -15.890625 176.95703125 Z " fill="#1e40af" transform="translate(114.890625,12.04296875)"/>
<path d="M0 0 C0.99 0 1.98 0 3 0 C3.22786458 1.79036458 3.45572917 3.58072917 3.68359375 5.37109375 C4 7 4 7 5 8 C6.66617115 8.04063832 8.33388095 8.042721 10 8 C10.33 5.69 10.66 3.38 11 1 C11.99 0.67 12.98 0.34 14 0 C14.92183496 2.09507946 15.12927431 3.54295934 14.50390625 5.75390625 C12.24664271 11.35613027 12.24664271 11.35613027 9 13 C5.91141276 12.84161091 4.25219974 12.17040523 1.6875 10.4375 C-0.69743929 6.9925877 -0.35525375 4.06568177 0 0 Z " fill="#1e40af" transform="translate(107,93)"/>
<path d="M0 0 C4.74209108 0.74518574 8.31002229 2.59163698 12.5 4.84375 C18.00804282 7.39121981 23.8429285 7.2909535 29.8125 7.5625 C30.25432617 7.5840918 30.25432617 7.5840918 32.49023438 7.69335938 C34.66001848 7.79891644 36.82990728 7.90102671 39 8 C39.57861328 9.87280273 39.57861328 9.87280273 40 12 C36.66067115 17.40307556 31.82012146 21.86428821 25.6875 23.6875 C25.130625 23.790625 24.57375 23.89375 24 24 C24 24.99 24 25.98 24 27 C23.67 27.33 23.34 27.66 23 28 C20.63856228 27.82444947 18.33924855 27.38278613 16 27 C16 25.68 16 24.36 16 23 C15.5771875 22.979375 15.5771875 22.979375 13.4375 22.875 C8.89843445 22.07020114 5.89774396 19.47869263 3 16 C0.58931714 11.7503105 -1.55119118 7.34709823 -0.75 2.375 C-0.5025 1.59125 -0.255 0.8075 0 0 Z M3 4 C3.103125 5.093125 3.20625 6.18625 3.3125 7.3125 C3.37050781 7.92738281 3.42851563 8.54226562 3.48828125 9.17578125 C4.16456277 11.58664744 4.97197457 12.53531497 7 14 C9.26953125 14.1875 9.26953125 14.1875 11.8125 14 C18.35584132 13.7999852 21.91638156 15.89400049 27 20 C28.13224233 19.43085145 29.25558285 18.84397645 30.375 18.25 C31.00148438 17.92515625 31.62796875 17.6003125 32.2734375 17.265625 C34.33361431 15.75545015 35.02970428 14.33263012 36 12 C35.51233154 11.96036133 35.02466309 11.92072266 34.5222168 11.87988281 C23.01674194 10.89884833 13.37758153 9.30725631 3 4 Z M9 16 C10.01061546 17.81711646 10.64337198 18.83201653 12.55078125 19.73046875 C16.12052626 20.65654451 19.27529798 21.22573952 23 21 C20.23986645 18.04951241 18.404344 16.12871221 14.17578125 15.90234375 C13.56089844 15.91394531 12.94601563 15.92554687 12.3125 15.9375 C11.219375 15.958125 10.12625 15.97875 9 16 Z " fill="#1e40af" transform="translate(91,100)"/>
<path d="M0 0 C3.3 0 6.6 0 10 0 C10 0.99 10 1.98 10 3 C4.58461538 4.23076923 4.58461538 4.23076923 1.625 3.0625 C1.08875 2.711875 0.5525 2.36125 0 2 C0 1.34 0 0.68 0 0 Z " fill="#1e40af" transform="translate(103,143)"/>
<path d="M0 0 C0.99 0 1.98 0 3 0 C3.21205078 0.41701172 3.21205078 0.41701172 4.28515625 2.52734375 C7.55947108 8.84801479 10.96289423 14.46784149 15.48828125 20 C18.27058458 23.68098012 20 27.31897981 20 32 C18.68 32 17.36 32 16 32 C15.82984375 31.63068359 15.82984375 31.63068359 14.96875 29.76171875 C11.77720797 23.08154966 8.25374916 17.46610071 3.76953125 11.55859375 C1.41710653 8.15718494 0.19043287 4.94330889 -1 1 C-0.67 0.67 -0.34 0.34 0 0 Z " fill="#1e40af" transform="translate(127,197)"/>
<path d="M0 0 C0.99 0 1.98 0 3 0 C3.9214702 2.45725388 4.27270846 4.25908726 3.3515625 6.76171875 C2.28244903 8.87001051 1.14588091 10.93243228 0 13 C-0.9239676 14.82966466 -1.84061563 16.66304356 -2.75 18.5 C-3.5 20 -4.25 21.5 -5 23 C-6.32 23 -7.64 23 -9 23 C-8.43356002 19.02075917 -7.21456632 16.45749643 -5 13.125 C-2.35139069 8.89607488 -1.31507371 5.93615484 -1 1 C-0.67 0.67 -0.34 0.34 0 0 Z " fill="#1e40af" transform="translate(73,206)"/>
</svg>
