<?xml version="1.0" encoding="UTF-8"?>
<!-- Generator: visioncortex VTracer 0.6.12 -->
<svg version="1.1" xmlns="http://www.w3.org/2000/svg" width="229" height="229" viewBox="0 0 229 229">
<g transform="translate(45.8,45.8) scale(0.6)">
<path d="M0 0 C1.4296875 0.6328125 1.4296875 0.6328125 3 2 C3.6953125 4.6171875 3.6953125 4.6171875 4.125 7.875 C4.20282715 8.45507812 4.2806543 9.03515625 4.36083984 9.6328125 C4.59252051 11.4202021 4.80063869 13.20873863 5 15 C5.1134375 16.01320313 5.226875 17.02640625 5.34375 18.0703125 C7.4408013 39.91459683 4.32712021 60.34120691 -6.046875 79.83203125 C-6.31016602 80.33758545 -6.31016602 80.33758545 -7.64257812 82.89599609 C-8.69528517 84.88788922 -9.78676056 86.85988065 -10.91992188 88.80712891 C-12.40302336 91.61330267 -13.47937841 93.86487829 -14 97 C-12.92501364 99.98903853 -11.55829719 102.16934371 -9.65039062 104.70092773 C-3.19835777 113.68891493 -1.44871273 133.14098912 -3 144 C-4.83715685 149.81949686 -8.67248597 154.37463506 -12.51171875 159.01953125 C-14.64690368 161.86084033 -15.12773955 164.22980362 -15.0625 167.6875 C-15.041875 168.780625 -15.02125 169.87375 -15 171 C-10.67522164 173.20601086 -7.83477081 174.56803377 -3 173 C-2.29875 172.7525 -1.5975 172.505 -0.875 172.25 C1 172 1 172 2.8125 173.0625 C4.1870873 175.30524771 4.29107073 176.64506378 3.6953125 179.19921875 C0.98536415 186.2176805 -4.43088733 193.27502658 -11 197 C-15.3313399 198.11525518 -19.54801457 198.56422365 -24 199 C-24.70640625 199.23976562 -25.4128125 199.47953125 -26.140625 199.7265625 C-28 200 -28 200 -30.25 198.5625 C-30.8275 198.046875 -31.405 197.53125 -32 197 C-33.40652883 202.69798178 -34.19061182 207.43906316 -31.1328125 212.5859375 C-28.92907201 215.86405261 -26.48520318 218.93212041 -24 222 C-23.32334553 222.99326893 -22.65384267 223.99156844 -22 225 C-24.23046875 225.3359375 -24.23046875 225.3359375 -27 225 C-28.72296308 223.20186401 -29.96553007 221.66973613 -31.3125 219.625 C-31.67150391 219.11710938 -32.03050781 218.60921875 -32.40039062 218.0859375 C-35 214.32269345 -35 214.32269345 -35 212 C-35.26683594 212.07798828 -35.26683594 212.07798828 -36.6171875 212.47265625 C-44.43417448 214.51481029 -51.18230311 213.62175627 -59 212 C-62.76381642 216.26072477 -66.49941122 220.51924637 -70 225 C-71.32 224.67 -72.64 224.34 -74 224 C-72.58608624 222.24771372 -71.168994 220.49816502 -69.75 218.75 C-69.35425781 218.25886719 -68.95851563 217.76773438 -68.55078125 217.26171875 C-66.69180488 214.97609206 -64.92722778 212.93484203 -62.72265625 210.9609375 C-60.52654205 208.4610524 -60.54564191 207.15241105 -60.6875 203.875 C-60.71199219 203.00617188 -60.73648438 202.13734375 -60.76171875 201.2421875 C-61 199 -61 199 -62 197 C-62.495 197.165 -62.99 197.33 -63.5 197.5 C-69.79392771 198.75878554 -75.45894816 198.45761635 -81 195 C-82.75 193.125 -82.75 193.125 -84 191 C-84.474375 190.21625 -84.94875 189.4325 -85.4375 188.625 C-85.953125 187.75875 -86.46875 186.8925 -87 186 C-87.70701026 184.99906413 -88.41538784 183.99909293 -89.125 183 C-90.87278384 180.37495014 -91.91278785 178.22684946 -92 175 C-90.875 173.1875 -90.875 173.1875 -89 172 C-86.375 171.75 -86.375 171.75 -84 172 C-83.67 172.33 -83.34 172.66 -83 173 C-81.64756083 173.07148199 -80.29165633 173.08399454 -78.9375 173.0625 C-78.20402344 173.05347656 -77.47054687 173.04445312 -76.71484375 173.03515625 C-76.14894531 173.02355469 -75.58304688 173.01195312 -75 173 C-75.28329124 163.70804739 -76.13944104 156.76892578 -82.125 149.375 C-86.13904505 144.29054294 -86.26760726 139.79082792 -85.54296875 133.6015625 C-84.84966266 128.82295376 -84.03826956 124.06531713 -83.1875 119.3125 C-83.03458496 118.42167725 -82.88166992 117.53085449 -82.72412109 116.61303711 C-81.4989074 110.09856012 -79.79823706 103.79823706 -75 99 C-75.26605042 94.95419876 -77.9795285 91.80703998 -80.1875 88.5625 C-89.78346244 74.02032291 -93.36271499 61.16843346 -93.1875 43.8125 C-93.17928323 42.38964981 -93.1713102 40.9667982 -93.16357422 39.54394531 C-93.10387742 31.10979395 -92.9524726 22.67826277 -92.625 14.25 C-92.5943042 13.35901611 -92.5636084 12.46803223 -92.53198242 11.55004883 C-92.49306885 10.73431396 -92.45415527 9.9185791 -92.4140625 9.078125 C-92.3826416 8.38106445 -92.3512207 7.68400391 -92.31884766 6.96582031 C-91.94940058 4.68803482 -91.11935824 3.00530643 -90 1 C-77.92629054 5.58059591 -69.44328974 31.82035273 -64.19140625 42.69140625 C-57.93805801 56.62690931 -58.47268791 72.00657005 -58 87 C-56.96875 86.51015625 -55.9375 86.0203125 -54.875 85.515625 C-51.474205 84.06156275 -48.73097892 83.65077184 -45 83.75 C-44.5153125 83.75773437 -44.5153125 83.75773437 -42.0625 83.796875 C-38.66193926 84.0224224 -35.36703821 84.47810908 -32 85 C-31.93006836 84.19481934 -31.86013672 83.38963867 -31.78808594 82.56005859 C-31.51553896 79.49850591 -31.23063314 76.43857937 -30.93798828 73.37890625 C-30.81505529 72.06847248 -30.69670033 70.75759909 -30.58349609 69.44628906 C-29.50963335 57.07310948 -26.95845613 45.44072876 -21.8125 34.0625 C-21.51915771 33.40556152 -21.22581543 32.74862305 -20.92358398 32.07177734 C-15.66064818 20.61562335 -8.98153333 8.98153333 0 0 Z M-1 6 C-21.91976389 30.70880276 -25.9536907 60.0210261 -29 91 C-29.57355225 90.78851318 -30.14710449 90.57702637 -30.73803711 90.35913086 C-38.15359275 87.73639671 -45.83277179 86.21041394 -53.50390625 88.8671875 C-55.40629386 89.82713999 -57.18543107 90.88712398 -59 92 C-59.495 92.165 -59.495 92.165 -62 93 C-62.01981934 92.15405273 -62.03963867 91.30810547 -62.06005859 90.43652344 C-62.13727797 87.23802462 -62.22579355 84.03991373 -62.31738281 80.84179688 C-62.35520032 79.46882902 -62.39012652 78.09577785 -62.421875 76.72265625 C-62.93841735 54.64047088 -62.93841735 54.64047088 -67.375 44.75 C-67.80941406 43.7703125 -68.24382812 42.790625 -68.69140625 41.78125 C-70.39819432 38.15368849 -72.13223082 34.547718 -74 31 C-74.66 31 -75.32 31 -76 31 C-77.65 34.96 -79.3 38.92 -81 43 C-81.33 42.67 -81.66 42.34 -82 42 C-81.835 41.195625 -81.67 40.39125 -81.5 39.5625 C-81 37 -81 37 -82 35 C-81.5625 32.875 -81.5625 32.875 -81 31 C-81.66 31 -82.32 31 -83 31 C-82.34 29.35 -81.68 27.7 -81 26 C-80.54625 26.495 -80.0925 26.99 -79.625 27.5 C-78 29 -78 29 -76 29 C-77.50450209 23.75904217 -79.90146135 19.33161524 -82.625 14.625 C-83.04523438 13.88894531 -83.46546875 13.15289062 -83.8984375 12.39453125 C-84.92755913 10.5935684 -85.96147736 8.79555267 -87 7 C-87.33 7 -87.66 7 -88 7 C-88.82070982 18.24079338 -89.15341454 29.48515493 -89.23217773 40.75344849 C-89.24392487 42.19301616 -89.2608914 43.63255208 -89.28344727 45.07199097 C-89.46082014 57.08324225 -88.3322918 67.97688876 -82.25 78.625 C-81.90654541 79.25253174 -81.56309082 79.88006348 -81.20922852 80.52661133 C-78.54824182 85.29271246 -75.53628049 89.66191159 -72.15234375 93.94921875 C-71 96 -71 96 -71.1953125 98.09375 C-72 100 -72 100 -73.9375 102.8125 C-78.25819723 109.12008719 -78.24112012 114.60359496 -77 122 C-76.649375 121.6390625 -76.649375 121.6390625 -74.875 119.8125 C-73.92040179 118.87119703 -72.9619031 117.93383696 -72 117 C-71.56558594 116.56945312 -71.13117188 116.13890625 -70.68359375 115.6953125 C-63.32280015 108.94267564 -53.39413107 106.63683022 -43.62109375 106.78515625 C-31.94040829 107.74258948 -21.95916855 111.31727067 -14 120 C-13.34 120.33 -12.68 120.66 -12 121 C-10.54524874 119.23070793 -10.01076284 118.26907097 -9.91796875 115.94921875 C-10.77894723 108.72448626 -12.41253347 104.00945275 -18 99 C-16.34695322 93.37594698 -13.77429947 88.30899321 -11.1875 83.0625 C1.3189182 57.13155591 3.0312754 34.42223782 0 6 C-0.33 6 -0.66 6 -1 6 Z M-65 115 C-64.67 115.66 -64.34 116.32 -64 117 C-62.845 116.835 -62.845 116.835 -57 116 C-57.185625 116.598125 -57.37125 117.19625 -57.5625 117.8125 C-58 120 -58 120 -57 123 C-56.21625 123.433125 -55.4325 123.86625 -54.625 124.3125 C-51.25052498 126.48180537 -50.3692491 128.25258141 -49 132 C-48.28669477 135.86228688 -48.64654883 138.92298454 -50.5625 142.375 C-52.27332175 144.63182869 -53.66926214 145.52058125 -56.4375 146.125 C-59.38299218 146.30198236 -60.100481 145.94194431 -62.8125 144.375 C-65.2253293 141.75535676 -66.24370469 140.47895843 -67 137 C-66.84663627 134.37623677 -66.56198702 131.80889834 -66.19140625 129.20703125 C-66 127 -66 127 -67 125 C-67.66 125 -68.32 125 -69 125 C-70.47265625 126.93359375 -70.47265625 126.93359375 -72.0625 129.4375 C-74.95217391 133.95217391 -74.95217391 133.95217391 -76 135 C-76.89731468 144.6516042 -71.38611598 152.85155377 -67 161 C-65.69128398 163.44980712 -64.40323921 165.90918659 -63.125 168.375 C-62.83931152 168.89674805 -62.55362305 169.41849609 -62.25927734 169.95605469 C-57.92833355 178.2957845 -57.58929413 187.92114449 -56.875 197.125 C-56.78863281 198.176875 -56.70226562 199.22875 -56.61328125 200.3125 C-56.4036527 202.87462673 -56.19931886 205.43705423 -56 208 C-51.68634875 209.37228363 -48.25331677 210.31524983 -43.6875 209.875 C-42.84574219 209.81054688 -42.00398438 209.74609375 -41.13671875 209.6796875 C-39 209 -39 209 -37.76171875 207.375 C-36.78315266 204.32388112 -36.44579985 201.29595186 -36.125 198.125 C-34.26982361 182.63806322 -28.90513781 169.80064269 -20.3125 156.8125 C-16.01605151 150.31034081 -11.55874336 143.10706858 -13 135 C-14.4651207 132.78705728 -16.13245169 130.88088794 -18 129 C-18.33 129.165 -18.33 129.165 -20 130 C-20.34375 131.92578125 -20.34375 131.92578125 -20.5 134.3125 C-20.7593056 138.23449714 -21.4105586 141.32690379 -24.1875 144.25 C-27.16738513 145.48305592 -29.89889378 145.76679432 -33 145 C-35.84897402 143.00358678 -37.55681143 140.61061214 -38.48046875 137.25390625 C-38.77658834 133.66045501 -37.94084258 131.46901303 -35.75 128.625 C-33.63193503 126.35693042 -32.125917 125.43116096 -29 125 C-28.34 124.34 -27.68 123.68 -27 123 C-24.375 123.375 -24.375 123.375 -22 124 C-22.165 123.505 -22.165 123.505 -23 121 C-26.0625 119.8125 -26.0625 119.8125 -29 119 C-28.34 118.34 -27.68 117.68 -27 117 C-26.34 117 -25.68 117 -25 117 C-26 114 -26 114 -27.63671875 113.0859375 C-39.08137563 109.11845645 -54.60467863 107.1351187 -65 115 Z M-20 118 C-18.66342599 122.67800902 -16.8296065 126.03855091 -14 130 C-13.67 129.34 -13.34 128.68 -13 128 C-13.671875 126.125 -13.671875 126.125 -14.75 124 C-15.09546875 123.29875 -15.4409375 122.5975 -15.796875 121.875 C-17.02814156 119.95614302 -18.02489257 119.08971444 -20 118 Z M-71 119 C-71.69987221 120.09636634 -72.38452491 121.20245943 -73.0625 122.3125 C-73.25392578 122.61994141 -73.25392578 122.61994141 -74.22265625 124.17578125 C-75 126 -75 126 -74 129 C-73.30289269 127.71349294 -72.61757124 126.42059335 -71.9375 125.125 C-71.55464844 124.40570313 -71.17179687 123.68640625 -70.77734375 122.9453125 C-70.64908203 122.62433594 -70.64908203 122.62433594 -70 121 C-70.33 120.34 -70.66 119.68 -71 119 Z M-67 121 C-66.67 121.99 -66.34 122.98 -66 124 C-63.37098712 122.47793991 -61.15634036 121.15634036 -59 119 C-62.2510934 118.76777904 -64.18033336 119.38876192 -67 121 Z M-78 122 C-77 124 -77 124 -77 124 Z M-79 124 C-78 126 -78 126 -78 126 Z M-80 126 C-79 129 -79 129 -79 129 Z M-62.375 127.375 C-64.74303878 131.20029341 -64.8116462 134.61398882 -64 139 C-62.87080218 141.11237869 -61.74481935 142.30970626 -60 144 C-54.25 143.25 -54.25 143.25 -52 141 C-50.78408938 136.22988911 -50.71427237 132.86474697 -52.9140625 128.39453125 C-54 127 -54 127 -56.9375 125.8125 C-60 126 -60 126 -62.375 127.375 Z M-10 126 C-9 128 -9 128 -9 128 Z M-33.75 129.0625 C-36.02542579 132.58940997 -36.35589828 136.30948317 -35.5 140.375 C-33.45345512 142.59209029 -31.71382131 142.90907547 -28.75390625 143.15625 C-27 143 -27 143 -24.5625 141.5 C-22.51959734 138.23135575 -22.13660488 135.75882118 -23 132 C-24.6875 129.5625 -24.6875 129.5625 -27 128 C-29.85066467 127.51330115 -31.27232514 127.55819741 -33.75 129.0625 Z M-9 129 C-9.02578125 129.73863281 -9.0515625 130.47726563 -9.078125 131.23828125 C-9.45691883 138.01352535 -10.62649789 143.55959843 -13.2578125 149.8203125 C-13.50273437 150.53960937 -13.74765625 151.25890625 -14 152 C-13.67 152.66 -13.34 153.32 -13 154 C-7.92493365 148.0186718 -6.34773618 143.5409092 -6.59375 135.69921875 C-6.99130087 133.05779903 -7.65321229 131.28628075 -9 129 Z M-81 130 C-82.04350941 136.95253862 -82.46505172 141.7629069 -79 148 C-78.04941687 145.14825061 -77.9313312 144.23730879 -78.33984375 141.42578125 C-78.38657227 141.09223633 -78.38657227 141.09223633 -78.62304688 139.40429688 C-78.72681641 138.71400391 -78.83058594 138.02371094 -78.9375 137.3125 C-79.03740234 136.61060547 -79.13730469 135.90871094 -79.24023438 135.18554688 C-79.48729325 133.45613473 -79.74282852 131.7279373 -80 130 C-80.33 130 -80.66 130 -81 130 Z M-78 148 C-77 150 -77 150 -77 150 Z M-71 161 C-71 167.27 -71 173.54 -71 180 C-66.96308362 175.96308362 -66.26997005 175.24907524 -65.81640625 170.10546875 C-66.12978107 166.51165962 -67.91402126 163.8648635 -70 161 C-70.33 161 -70.66 161 -71 161 Z M-20 161 C-25.94344018 168.6527673 -25.94344018 168.6527673 -26.0546875 173.26953125 C-25.10461399 177.21309033 -23.3700699 180.70251144 -21 184 C-20.67 184 -20.34 184 -20 184 C-19.67 176.41 -19.34 168.82 -19 161 C-19.33 161 -19.66 161 -20 161 Z M-16 175 C-16.74376595 181.36185519 -17.13924551 187.59470649 -17 194 C-11.58120027 193.61294288 -8.50871701 192.00727466 -5 188 C0 180.51968504 0 180.51968504 0 176 C-0.763125 176.33 -1.52625 176.66 -2.3125 177 C-5 178 -5 178 -8 178 C-10.00812926 177.01642648 -12.00854609 176.01691264 -14 175 C-14.66 175 -15.32 175 -16 175 Z M-88 176 C-86.8364386 180.44268898 -85.28866367 183.13891586 -82.23046875 186.546875 C-81 188 -81 188 -79.375 190.8125 C-78 193 -78 193 -75 194 C-72.9140625 194.16796875 -72.9140625 194.16796875 -70.625 194.1875 C-70.24988281 194.19458984 -70.24988281 194.19458984 -68.3515625 194.23046875 C-65.62226697 193.96297965 -63.49295631 193.11434266 -61 192 C-61.11373904 189.70726034 -61.24046777 187.41653227 -61.375 185.125 C-61.4059375 184.47402344 -61.436875 183.82304687 -61.46875 183.15234375 C-61.7734375 178.2265625 -61.7734375 178.2265625 -64 176 C-67.66512272 180.69593848 -68.34096208 183.08999069 -68 189 C-68.33 189.66 -68.66 190.32 -69 191 C-70.32 190.67 -71.64 190.34 -73 190 C-73.66 185.71 -74.32 181.42 -75 177 C-77.64 177.33 -80.28 177.66 -83 178 C-83.33 177.34 -83.66 176.68 -84 176 C-85.32 176 -86.64 176 -88 176 Z M-29 179 C-29.53532823 180.55759343 -30.05265378 182.12138045 -30.5625 183.6875 C-30.85253906 184.55761719 -31.14257812 185.42773438 -31.44140625 186.32421875 C-32.0599625 189.28723293 -31.91728811 191.12848938 -31 194 C-28.9375 195.3125 -28.9375 195.3125 -27 196 C-26.34 195.01 -25.68 194.02 -25 193 C-24.34 193.33 -23.68 193.66 -23 194 C-22.42458018 187.84620471 -23.4574594 184.06077228 -27 179 C-27.66 179 -28.32 179 -29 179 Z " fill="#1e40af" transform="translate(159,4)"/>
<path d="M0 0 C0.825 0.33 0.825 0.33 5 2 C4.43040847 5.62613199 3.07625466 7.25517741 0.4375 9.75 C0.11716797 10.05679688 0.11716797 10.05679688 -1.50390625 11.609375 C-1.99761719 12.06828125 -2.49132812 12.5271875 -3 13 C-3.66 12.34 -4.32 11.68 -5 11 C-4.625 9.0625 -4.625 9.0625 -4 7 C-4 6.01 -4 5.02 -4 4 C-2 1.8125 -2 1.8125 0 0 Z M0 3 C0 3.66 0 4.32 0 5 C0.66 5 1.32 5 2 5 C2 4.34 2 3.68 2 3 C1.34 3 0.68 3 0 3 Z " fill="#1e40af" transform="translate(146,35)"/>
<path d="M0 0 C1.9375 0.6875 1.9375 0.6875 4 2 C5.36422493 6.15198892 4.70253371 9.1627773 3.5625 13.3125 C3.27503906 14.38113281 2.98757812 15.44976562 2.69140625 16.55078125 C2.46324219 17.35902344 2.23507813 18.16726562 2 19 C1.01 19 0.02 19 -1 19 C-2.85682327 13.4295302 -3.38260759 8.7468385 -2 3 C-0.95703125 1.2578125 -0.95703125 1.2578125 0 0 Z " fill="#1e40af" transform="translate(88,66)"/>
<path d="M0 0 C0.66 0.66 1.32 1.32 2 2 C-0.64 4.97 -3.28 7.94 -6 11 C-6.66 10.34 -7.32 9.68 -8 9 C-5.36 6.03 -2.72 3.06 0 0 Z " fill="#1e40af" transform="translate(145,77)"/>
<path d="M0 0 C0 3 0 3 -1.00976562 4.3503418 C-1.47060547 4.79547119 -1.93144531 5.24060059 -2.40625 5.69921875 C-2.90253906 6.18583984 -3.39882812 6.67246094 -3.91015625 7.17382812 C-4.43480469 7.67333984 -4.95945313 8.17285156 -5.5 8.6875 C-6.02464844 9.19861328 -6.54929688 9.70972656 -7.08984375 10.23632812 C-8.38660904 11.49772708 -9.69246117 12.74977212 -11 14 C-11.66 13.34 -12.32 12.68 -13 12 C-11.21135158 10.18443212 -9.41928379 8.37248378 -7.625 6.5625 C-7.11710938 6.04623047 -6.60921875 5.52996094 -6.0859375 4.99804688 C-5.59609375 4.50498047 -5.10625 4.01191406 -4.6015625 3.50390625 C-4.15119629 3.04830322 -3.70083008 2.5927002 -3.23681641 2.12329102 C-2 1 -2 1 0 0 Z " fill="#1e40af" transform="translate(146,82)"/>
<path d="M0 0 C0.66 0.66 1.32 1.32 2 2 C0.845 2.99 0.845 2.99 -5 8 C-5 5 -5 5 -3.90625 3.61328125 C-2.60416667 2.40885417 -1.30208333 1.20442708 0 0 Z " fill="#1e40af" transform="translate(143,89)"/>
<path d="M0 0 C0.66 0.165 0.66 0.165 4 1 C3.67 2.32 3.34 3.64 3 5 C1.68 4.67 0.36 4.34 -1 4 C-0.67 2.68 -0.34 1.36 0 0 Z " fill="#1e40af" transform="translate(100,136)"/>
<path d="M0 0 C2.0625 0.4375 2.0625 0.4375 4 1 C3.67 2.32 3.34 3.64 3 5 C2.01 5 1.02 5 0 5 C-0.5625 3.0625 -0.5625 3.0625 -1 1 C-0.67 0.67 -0.34 0.34 0 0 Z " fill="#1e40af" transform="translate(128,136)"/>
<path d="M0 0 C0.66 0.33 1.32 0.66 2 1 C1.125 6.875 1.125 6.875 0 8 C6.02900687 7.48758893 12.02004643 6.930215 18 6 C18 6.99 18 7.98 18 9 C8.42473047 12.06331561 8.42473047 12.06331561 4 12.4375 C1 13 1 13 -0.4375 15.0625 C-0.623125 15.701875 -0.80875 16.34125 -1 17 C-6.2734375 16.51171875 -6.2734375 16.51171875 -8 16 C-8.28101562 15.52175781 -8.56203125 15.04351562 -8.8515625 14.55078125 C-10.6866986 12.07272333 -13.05735875 12.09418718 -16 11.5 C-21.69863014 10.34931507 -21.69863014 10.34931507 -23.375 8.40625 C-23.58125 7.9421875 -23.7875 7.478125 -24 7 C-21.25816852 5.62908426 -19.81247657 6.6434284 -17.01953125 7.51953125 C-13.6920248 8.31118172 -10.39783652 8.15885989 -7 8 C-7.16886719 7.77505859 -7.16886719 7.77505859 -8.0234375 6.63671875 C-9 5 -9 5 -8.625 2.8125 C-8.41875 2.214375 -8.2125 1.61625 -8 1 C-7.34 1.33 -6.68 1.66 -6 2 C-5.67 2.99 -5.34 3.98 -5 5 C-4.01 5 -3.02 5 -2 5 C-1.34 3.35 -0.68 1.7 0 0 Z " fill="#1e40af" transform="translate(119,148)"/>
<path d="M0 0 C0.4846875 0.0103125 0.4846875 0.0103125 2.9375 0.0625 C2.9375 1.0525 2.9375 2.0425 2.9375 3.0625 C1.125 3.75 1.125 3.75 -1.0625 4.0625 C-2.8125 2.625 -2.8125 2.625 -4.0625 1.0625 C-3.0625 0.0625 -3.0625 0.0625 0 0 Z " fill="#1e40af" transform="translate(115.0625,175.9375)"/>
</g>
</svg>
