<?xml version="1.0" encoding="UTF-8"?>
<svg version="1.1" xmlns="http://www.w3.org/2000/svg" width="229" height="229" viewBox="0 0 229 229">
<defs>
<filter id="glow">
<feGaussianBlur stdDeviation="4" result="blur"/>
<feMerge>
<feMergeNode in="blur"/>
<feMergeNode in="blur"/>
<feMergeNode in="SourceGraphic"/>
</feMerge>
</filter>
</defs>
<g transform="translate(34.35,34.35) scale(0.7)">
<g transform="translate(2,2)">
<path d="M0 0 C0.76957031 0.40992188 1.53914063 0.81984375 2.33203125 1.2421875 C3.09128906 1.63148437 3.85054688 2.02078125 4.6328125 2.421875 C14.7672806 8.33802391 21.56202064 19.35862746 25.33203125 30.2421875 C25.88587333 32.63245331 26.16833672 34.78676954 26.33203125 37.2421875 C27.06679687 37.5 27.8015625 37.7578125 28.55859375 38.0234375 C38.07193413 42.20394764 45.84207489 52.55261088 49.73828125 61.9909668 C51.11293634 67.20301228 50.84084614 72.75285969 50.89453125 78.1171875 C51.08311615 92.68965666 51.08311615 92.68965666 52.87329102 99.44042969 C53.56659191 102.16345287 53.72894902 104.46376311 53.33203125 107.2421875 C51.33203125 109.1171875 51.33203125 109.1171875 49.33203125 110.2421875 C48.63078125 109.7471875 47.92953125 109.2521875 47.20703125 108.7421875 C43.14115313 106.62085978 40.04735374 106.84327529 35.64453125 107.8671875 C33.33203125 108.2421875 33.33203125 108.2421875 31.70703125 107.3046875 C31.25328125 106.9540625 30.79953125 106.6034375 30.33203125 106.2421875 C29.34203125 106.2421875 28.35203125 106.2421875 27.33203125 106.2421875 C27.06390625 106.7371875 26.79578125 107.2321875 26.51953125 107.7421875 C25.33203125 109.2421875 25.33203125 109.2421875 22.51953125 109.6171875 C19.04351081 109.20824392 17.16464063 108.24167647 14.33203125 106.2421875 C14.62078125 106.561875 14.62078125 106.561875 16.08203125 108.1796875 C17.82774014 110.366354 18.94706533 112.47483861 20.01953125 115.0546875 C21.90622024 119.53371688 24.22549855 123.66261852 26.64453125 127.8671875 C38.86452492 149.40346328 53.04849736 179.87064642 52.33203125 205.2421875 C51.34203125 205.2421875 50.35203125 205.2421875 49.33203125 205.2421875 C49.18507812 204.57058594 49.038125 203.89898437 48.88671875 203.20703125 C48.06447861 199.54475475 47.20646145 195.89232471 46.33203125 192.2421875 C46.13335449 191.41106445 45.93467773 190.57994141 45.72998047 189.72363281 C39.96413873 165.90876288 32.51779941 141.54475478 18.33203125 121.2421875 C15.80003798 124.32426238 13.99017843 127.6283296 12.12329102 131.12988281 C3.81203864 146.68561446 -6.63532201 160.53440067 -17.66796875 174.2421875 C-18.43910837 175.20548406 -19.20996516 176.16900713 -19.98046875 177.1328125 C-20.53734375 177.82890625 -21.09421875 178.525 -21.66796875 179.2421875 C-26.02061573 178.73874881 -28.57898457 176.02632077 -31.73046875 173.2421875 C-32.78032714 172.32148343 -33.83359794 171.40465252 -34.890625 170.4921875 C-35.35218994 170.08484375 -35.81375488 169.6775 -36.28930664 169.2578125 C-37.66796875 168.2421875 -37.66796875 168.2421875 -40.66796875 167.2421875 C-42.26372931 167.68356808 -43.85760896 168.13371652 -45.4375 168.62890625 C-51.6749239 170.34392473 -58.19670719 171.40811728 -64.66796875 171.2421875 C-66.54817859 177.46369487 -68.39568102 183.69466262 -70.23046875 189.9296875 C-70.44018311 190.64181396 -70.64989746 191.35394043 -70.8659668 192.08764648 C-72.15327734 196.46694175 -73.41930229 200.85171513 -74.66796875 205.2421875 C-75.65796875 205.2421875 -76.64796875 205.2421875 -77.66796875 205.2421875 C-77.07491238 198.92357462 -75.6299899 193.22444665 -73.73046875 187.1796875 C-72.94669346 184.63766203 -72.16391134 182.09533939 -71.3828125 179.55249023 C-70.93132132 178.09331638 -70.47147118 176.63667909 -70 175.18383789 C-68.56500191 170.59705556 -68.77747312 168.54831644 -70.66796875 164.2421875 C-74.09863424 167.30581673 -76.13745053 170.55013987 -78.04296875 174.6796875 C-78.33896973 175.31277832 -78.6349707 175.94586914 -78.93994141 176.59814453 C-82.63378235 184.8861386 -84.84742661 193.67598346 -87.11474609 202.43896484 C-87.66796875 204.2421875 -87.66796875 204.2421875 -88.66796875 205.2421875 C-91.00606469 205.38236112 -93.32405181 205.28480417 -95.66796875 205.2421875 C-97.38312136 199.32686004 -95.65586097 194.85952489 -93.66796875 189.1796875 C-93.35053711 188.25172363 -93.03310547 187.32375977 -92.70605469 186.36767578 C-86.44457841 168.62271371 -86.44457841 168.62271371 -81.06640625 163.80859375 C-78.9857833 161.47806358 -78.62907877 158.78519018 -78.04296875 155.8046875 C-77.80092425 154.660126 -77.55874003 153.51559404 -77.31640625 152.37109375 C-77.10242188 151.33855469 -76.8884375 150.30601562 -76.66796875 149.2421875 C-76.45527344 148.54609375 -76.24257812 147.85 -76.0234375 147.1328125 C-75.55823459 144.65854645 -76.04262215 142.88340437 -76.60546875 140.4296875 C-80.01999253 121.19061212 -78.48161436 101.9327987 -68.95483398 84.75561523 C-67.30286905 81.7644382 -66.3023655 79.67733466 -66.66796875 76.2421875 C-66.58546875 75.4378125 -66.50296875 74.6334375 -66.41796875 73.8046875 C-66.66796875 71.2421875 -66.66796875 71.2421875 -68.66796875 68.9921875 C-71.48805411 65.11457013 -71.26006231 61.89892331 -70.66796875 57.2421875 C-70.28153474 55.98251299 -69.86695152 54.7309472 -69.41796875 53.4921875 C-69.17046875 52.4196875 -68.92296875 51.3471875 -68.66796875 50.2421875 C-69.95522782 48.53968357 -71.28928594 46.87153991 -72.66796875 45.2421875 C-72.73046875 42.1796875 -72.73046875 42.1796875 -71.66796875 39.2421875 C-68.90062524 36.47484399 -66.56844091 34.82003523 -62.66796875 34.2421875 C-62.91546875 33.7059375 -63.16296875 33.1696875 -63.41796875 32.6171875 C-63.73409552 29.61398319 -62.77194198 28.07654227 -61.03125 25.671875 C-59.56218423 24.13125015 -58.24519563 23.33124681 -56.35546875 22.3671875 C-53.3276115 20.81476916 -51.51979904 19.11592752 -49.35546875 16.4921875 C-37.51140814 2.33195504 -18.17881011 -8.51672848 0 0 Z M-49.66796875 20.2421875 C-49.33410156 20.82742187 -49.00023438 21.41265625 -48.65625 22.015625 C-47.10603032 25.5082148 -47.78031027 27.55499075 -48.66796875 31.2421875 C-50.96325074 34.04753215 -55.2756681 33.85815346 -58.66796875 34.2421875 C-58.66796875 37.2421875 -58.66796875 37.2421875 -57.57421875 38.55859375 C-57.3421875 38.76419922 -57.3421875 38.76419922 -56.16796875 39.8046875 C-55.75546875 40.206875 -55.75546875 40.206875 -53.66796875 42.2421875 C-53.66796875 42.9021875 -53.66796875 43.5621875 -53.66796875 44.2421875 C-54.45171875 44.6959375 -55.23546875 45.1496875 -56.04296875 45.6171875 C-58.89742478 47.38423171 -59.77983122 48.04489239 -60.66796875 51.2421875 C-60.73838497 55.00945516 -60.21082618 57.52484018 -57.91796875 60.5546875 C-53.84810322 63.60708665 -50.15482665 64.53361925 -45.10546875 64.5546875 C-44.64076172 64.56306641 -44.64076172 64.56306641 -42.2890625 64.60546875 C-39.21143009 64.17891165 -37.84574158 63.44021868 -35.66796875 61.2421875 C-35.31080972 57.31343819 -35.45921899 54.0195305 -36.66796875 50.2421875 C-35.67796875 50.5721875 -34.68796875 50.9021875 -33.66796875 51.2421875 C-33.57 50.72269531 -33.47203125 50.20320313 -33.37109375 49.66796875 C-32.33082378 44.81636484 -31.06591714 41.86666579 -27.66796875 38.2421875 C-28.02310547 38.18160156 -28.02310547 38.18160156 -29.8203125 37.875 C-30.73941406 37.70742188 -31.65851563 37.53984375 -32.60546875 37.3671875 C-33.06373047 37.28597656 -33.06373047 37.28597656 -35.3828125 36.875 C-36.13691406 36.66617188 -36.89101562 36.45734375 -37.66796875 36.2421875 C-38.71974735 34.1386303 -38.83098449 33.05350149 -38.85546875 30.7421875 C-38.86964844 30.13375 -38.88382813 29.5253125 -38.8984375 28.8984375 C-38.66796875 27.2421875 -38.66796875 27.2421875 -36.66796875 25.2421875 C-25.03263875 23.58823976 -13.86243186 27.14142202 -4.375 33.77734375 C-2.72670676 35.19178303 -1.66425444 36.32041815 -0.66796875 38.2421875 C-0.54296875 40.9296875 -0.54296875 40.9296875 -0.66796875 43.2421875 C-4.32654407 44.55753244 -6.74823356 43.89687059 -10.41796875 42.8046875 C-11.4028125 42.51722656 -12.38765625 42.22976562 -13.40234375 41.93359375 C-14.15 41.70542969 -14.89765625 41.47726563 -15.66796875 41.2421875 C-15.36761719 41.66628906 -15.06726563 42.09039062 -14.7578125 42.52734375 C-12.72844454 45.65738585 -11.27580218 48.1220386 -11.60546875 51.9296875 C-12.91198147 56.00293304 -13.89614344 57.23589744 -17.66796875 59.2421875 C-23.06865817 60.3404409 -26.87058996 59.04050244 -31.41796875 56.1171875 C-31.83046875 55.8284375 -32.24296875 55.5396875 -32.66796875 55.2421875 C-32.72984375 56.3146875 -32.79171875 57.3871875 -32.85546875 58.4921875 C-33.0280439 61.48349018 -33.66666047 62.24085078 -35.82421875 64.4453125 C-40.79864712 67.58849526 -45.9826939 66.92112865 -51.66796875 66.2421875 C-56.00866659 64.98372161 -58.79026784 63.34639187 -61.60546875 59.8046875 C-62.65624166 57.27047049 -63.28051693 54.95435023 -63.66796875 52.2421875 C-64.32796875 52.2421875 -64.98796875 52.2421875 -65.66796875 52.2421875 C-67.08600018 56.67353573 -68.29438521 60.54406402 -67.66796875 65.2421875 C-65.80086965 67.54494306 -64.31149134 68.92042621 -61.66796875 70.2421875 C-59.01759214 70.45732517 -56.38541148 70.61934312 -53.73046875 70.7421875 C-52.93358643 70.78351807 -52.1367041 70.82484863 -51.31567383 70.86743164 C-47.11358944 71.08375463 -42.91077291 71.27610861 -38.70703125 71.45703125 C-13.31753308 72.59262317 -13.31753308 72.59262317 -9.66796875 76.2421875 C-10.56128906 76.10941406 -11.45460937 75.97664063 -12.375 75.83984375 C-29.04033782 73.59602504 -45.87986223 73.58663072 -62.66796875 73.2421875 C-62.64379883 74.34594727 -62.61962891 75.44970703 -62.59472656 76.58691406 C-62.51670657 80.14982711 -63.35339178 82.02819085 -65.41796875 84.9921875 C-76.55292786 102.35116857 -76.6374193 123.9189358 -72.80078125 143.60546875 C-70.97438963 151.75033079 -67.81377305 159.53064261 -64.66796875 167.2421875 C-56.46892677 162.7995348 -48.30382579 158.2963827 -40.1640625 153.74609375 C-37.41759837 152.21084299 -34.66256297 150.69573328 -31.890625 149.20703125 C-14.31751164 139.66045082 2.25270019 126.40084962 11.33203125 108.2421875 C11.54051282 105.82148479 11.70635685 103.41723793 11.83203125 100.9921875 C12.07910242 96.33443844 12.47700978 91.83080273 13.33203125 87.2421875 C12.89890625 86.98824219 12.46578125 86.73429687 12.01953125 86.47265625 C11.46265625 86.12847656 10.90578125 85.78429687 10.33203125 85.4296875 C9.77515625 85.09324219 9.21828125 84.75679688 8.64453125 84.41015625 C8.21140625 84.02472656 7.77828125 83.63929687 7.33203125 83.2421875 C7.33203125 82.2521875 7.33203125 81.2621875 7.33203125 80.2421875 C8.15703125 81.0465625 8.98203125 81.8509375 9.83203125 82.6796875 C13.40350421 85.64325017 16.70860369 86.56630407 21.33203125 86.2421875 C24.55498758 84.98103068 25.87034252 84.01166871 27.64453125 81.0546875 C28.93479783 75.77632423 29.18246818 71.29921068 26.64453125 66.3671875 C25.15676384 64.07267298 24.28675609 63.21432586 21.89453125 61.7421875 C19.03817407 61.18484951 17.11335413 61.44752382 14.33203125 62.2421875 C14.66203125 62.9021875 14.99203125 63.5621875 15.33203125 64.2421875 C15.78578125 64.190625 15.78578125 64.190625 18.08203125 63.9296875 C21.33203125 64.2421875 21.33203125 64.2421875 23.70703125 66.3671875 C25.55365225 69.63428619 25.67548505 71.55005913 25.33203125 75.2421875 C25.00203125 75.2421875 24.67203125 75.2421875 24.33203125 75.2421875 C23.87630208 73.484375 23.42057292 71.7265625 22.96484375 69.96875 C22.33203125 68.2421875 22.33203125 68.2421875 20.33203125 66.2421875 C17.70703125 66.1171875 17.70703125 66.1171875 15.33203125 66.2421875 C15.13867188 66.88027344 14.9453125 67.51835938 14.74609375 68.17578125 C14.48570312 69.00207031 14.2253125 69.82835938 13.95703125 70.6796875 C13.70179688 71.50339844 13.4465625 72.32710938 13.18359375 73.17578125 C12.33203125 75.2421875 12.33203125 75.2421875 10.33203125 76.2421875 C10.66203125 74.2621875 10.99203125 72.2821875 11.33203125 70.2421875 C9.35203125 70.5721875 7.37203125 70.9021875 5.33203125 71.2421875 C5.00203125 70.5821875 4.67203125 69.9221875 4.33203125 69.2421875 C2.69060162 68.2012809 1.0249091 67.19714424 -0.66796875 66.2421875 C-0.11590938 62.39796922 0.91629251 60.04668772 3.20703125 56.9296875 C5.29168129 53.9657301 6.76073351 51.38881755 7.83203125 47.9296875 C9.03022259 44.43960691 10.42862025 42.68936767 13.63671875 40.8515625 C16.60498222 39.78462909 19.20844539 39.99230063 22.33203125 40.2421875 C24.00633867 35.12624815 22.27682095 31.08431696 20.33203125 26.2421875 C15.56916049 16.90414532 11.00629981 8.90054729 1.26953125 4.4296875 C0.96370117 4.28047852 0.96370117 4.28047852 -0.58398438 3.52539062 C-19.06434356 -5.32520302 -37.28534793 6.23856905 -49.66796875 20.2421875 Z M-68.04296875 39.6796875 C-68.57921875 40.1953125 -69.11546875 40.7109375 -69.66796875 41.2421875 C-69.30083903 43.95894745 -68.94052276 45.85282463 -67.35546875 48.1171875 C-65.66796875 49.2421875 -65.66796875 49.2421875 -63.66796875 49.1796875 C-61.03102053 47.94361802 -60.02681847 46.81685014 -58.66796875 44.2421875 C-58.98046875 41.4921875 -58.98046875 41.4921875 -59.66796875 39.2421875 C-65.08335337 37.88834135 -65.08335337 37.88834135 -68.04296875 39.6796875 Z M-29.60546875 43.8671875 C-30.98362076 46.94776258 -31.15543483 48.89956298 -30.66796875 52.2421875 C-29.05269663 54.63279024 -27.79176889 55.87735191 -25.01953125 56.77734375 C-21.13295726 57.51562309 -18.0921431 57.45782973 -14.66796875 55.2421875 C-13.18904987 51.91462003 -13.58204271 50.47283109 -14.85546875 47.0546875 C-16.74447982 44.12346342 -17.36892509 43.15858852 -20.66796875 42.2421875 C-24.13412112 41.73455878 -26.78800097 41.50415001 -29.60546875 43.8671875 Z M13.33203125 110.2421875 C12.93113281 110.84804687 12.53023438 111.45390625 12.1171875 112.078125 C-2.62788518 133.81122532 -22.10724879 146.6136292 -44.91992188 158.50854492 C-45.47468201 158.79997375 -46.02944214 159.09140259 -46.60101318 159.3916626 C-48.1244534 160.1908623 -49.65147553 160.98322335 -51.17871094 161.77514648 C-53.4074298 163.08863919 -54.96667064 164.31622345 -56.66796875 166.2421875 C-54.54095747 166.15530957 -52.41822925 166.04850481 -50.29296875 165.9296875 C-49.99132812 165.9184082 -49.99132812 165.9184082 -48.46484375 165.86132812 C-43.98445683 165.5875267 -43.98445683 165.5875267 -42.25390625 163.69921875 C-42.06054688 163.21839844 -41.8671875 162.73757812 -41.66796875 162.2421875 C-39.77136601 163.65783357 -37.87567358 165.07467205 -35.98046875 166.4921875 C-35.45001953 166.88792969 -34.91957031 167.28367188 -34.37304688 167.69140625 C-33.84775391 168.08457031 -33.32246094 168.47773438 -32.78125 168.8828125 C-32.25611816 169.27275391 -31.73098633 169.66269531 -31.18994141 170.06445312 C-30.19889706 170.83134403 -29.23249832 171.6315493 -28.29833984 172.46679688 C-27.0234375 173.6015625 -27.0234375 173.6015625 -24.66796875 175.2421875 C-21.98769611 175.02787352 -20.90808697 174.48566773 -19.01147461 172.5625 C-18.47401611 171.83804688 -17.93655762 171.11359375 -17.3828125 170.3671875 C-16.77501953 169.55507812 -16.16722656 168.74296875 -15.54101562 167.90625 C-14.90228516 167.02710938 -14.26355469 166.14796875 -13.60546875 165.2421875 C-12.94224609 164.34242188 -12.27902344 163.44265625 -11.59570312 162.515625 C16.67618902 123.80194434 16.67618902 123.80194434 15.33203125 112.2421875 C15.00203125 111.9121875 15.00203125 111.9121875 13.33203125 110.2421875 Z M-73.66796875 152.2421875 C-74.66796875 153.2421875 -74.66796875 153.2421875 -74.73046875 155.8046875 C-74.70984375 156.6090625 -74.68921875 157.4134375 -74.66796875 158.2421875 C-73.67796875 158.2421875 -72.68796875 158.2421875 -71.66796875 158.2421875 C-71.99796875 156.2621875 -72.32796875 154.2821875 -72.66796875 152.2421875 C-72.99796875 152.2421875 -73.32796875 152.2421875 -73.66796875 152.2421875 Z M-75.66796875 160.2421875 C-75.33796875 161.2321875 -75.00796875 162.2221875 -74.66796875 163.2421875 C-74.33796875 162.2521875 -74.00796875 161.2621875 -73.66796875 160.2421875 C-74.32796875 160.2421875 -74.98796875 160.2421875 -75.66796875 160.2421875 Z M-78.66796875 165.2421875 C-85.50444513 174.98265385 -93.60462034 190.06571684 -92.66796875 202.2421875 C-92.00796875 202.2421875 -91.34796875 202.2421875 -90.66796875 202.2421875 C-90.59018188 201.9858252 -90.59018188 201.9858252 -90.1965332 200.68847656 C-82.29579912 174.79146488 -82.29579912 174.79146488 -78.46484375 169.6171875 C-78.201875 169.1634375 -77.93890625 168.7096875 -77.66796875 168.2421875 C-77.99796875 167.2521875 -78.32796875 166.2621875 -78.66796875 165.2421875 Z " fill="#142d7a" transform="translate(133.66796875,23.7578125)"/>
<path d="M0 0 C0.99 0.33 1.98 0.66 3 1 C2.34 2.32 1.68 3.64 1 5 C0.01 4.01 -0.98 3.02 -2 2 C-1.34 1.34 -0.68 0.68 0 0 Z " fill="#142d7a" transform="translate(70,64)"/>
<path d="M0 0 C0.66 0.165 0.66 0.165 4 1 C3.67 2.32 3.34 3.64 3 5 C1.68 4.67 0.36 4.34 -1 4 C-0.67 2.68 -0.34 1.36 0 0 Z " fill="#142d7a" transform="translate(110,68)"/>
<path d="M0 0 C2.875 -0.1875 2.875 -0.1875 6 0 C7.375 1.5 7.375 1.5 8 3 C7 4 7 4 4.0625 4.125 C1 4 1 4 -1 3 C-0.67 2.01 -0.34 1.02 0 0 Z " fill="#142d7a" transform="translate(79,99)"/>
<path d="M0 0 C0.66 0.33 1.32 0.66 2 1 C2.20638953 24.99516389 2.20638953 24.99516389 1 34 C-1.31 34 -3.62 34 -6 34 C-5.5155542 33.43829102 -5.0311084 32.87658203 -4.53198242 32.29785156 C-2.79660611 29.69492537 -2.58733099 28.32472677 -2.48828125 25.234375 C-2.45283203 24.34492188 -2.41738281 23.45546875 -2.38085938 22.5390625 C-2.35830078 21.61867187 -2.33574219 20.69828125 -2.3125 19.75 C-2.27833984 18.81414062 -2.24417969 17.87828125 -2.20898438 16.9140625 C-2.12667838 14.60949467 -2.0574737 12.30529881 -2 10 C-9.31839056 8.54198409 -16.55769906 7.54701632 -24 7 C-23.86050849 9.75035996 -23.71228678 12.50018303 -23.5625 15.25 C-23.52318359 16.02730469 -23.48386719 16.80460937 -23.44335938 17.60546875 C-23.40146484 18.35957031 -23.35957031 19.11367187 -23.31640625 19.890625 C-23.27974854 20.58188477 -23.24309082 21.27314453 -23.20532227 21.98535156 C-22.66352309 27.30155464 -22.66352309 27.30155464 -20.58984375 29.484375 C-20.04457031 29.90203125 -19.49929687 30.3196875 -18.9375 30.75 C-18.38964844 31.17796875 -17.84179688 31.6059375 -17.27734375 32.046875 C-16.85582031 32.36140625 -16.43429688 32.6759375 -16 33 C-17.6875 33.75 -17.6875 33.75 -20 34 C-23.46101271 31.77506326 -25.46691765 29.79476683 -27 26 C-27.25878906 23.74169922 -27.25878906 23.74169922 -27.265625 21.3046875 C-27.26820313 20.42425781 -27.27078125 19.54382813 -27.2734375 18.63671875 C-27.26570312 17.72535156 -27.25796875 16.81398437 -27.25 15.875 C-27.25773438 14.95589844 -27.26546875 14.03679687 -27.2734375 13.08984375 C-27.27085937 12.21199219 -27.26828125 11.33414063 -27.265625 10.4296875 C-27.26336914 9.62772949 -27.26111328 8.82577148 -27.25878906 7.99951172 C-27 6 -27 6 -25 4 C-16.57993786 3.04514759 -9.00399098 4.30526957 -1 7 C-1.020625 6.030625 -1.04125 5.06125 -1.0625 4.0625 C-1 1 -1 1 0 0 Z " fill="#142d7a" transform="translate(170,195)"/>
<path d="M0 0 C0.66 0.33 1.32 0.66 2 1 C1.67 5.95 1.34 10.9 1 16 C-0.32 16.33 -1.64 16.66 -3 17 C-2.69268013 14.35346869 -2.37940678 11.707885 -2.0625 9.0625 C-1.97548828 8.30775391 -1.88847656 7.55300781 -1.79882812 6.77539062 C-1.71181641 6.05673828 -1.62480469 5.33808594 -1.53515625 4.59765625 C-1.456604 3.93258057 -1.37805176 3.26750488 -1.29711914 2.58227539 C-1 1 -1 1 0 0 Z " fill="#142d7a" transform="translate(134,212)"/>
<path d="M0 0 C0.6396167 0.00404846 1.2792334 0.00809692 1.93823242 0.01226807 C2.59654053 0.01035461 3.25484863 0.00844116 3.93310547 0.00646973 C5.32511782 0.00510857 6.71714289 0.00880024 8.10913086 0.01715088 C10.24255831 0.02785207 12.37514373 0.017254 14.50854492 0.00445557 C15.86010928 0.00577717 17.21167312 0.0083396 18.56323242 0.01226807 C18.88304077 0.01024384 18.88304077 0.01024384 20.50146484 0 C25.02080331 0.04796395 25.02080331 0.04796395 27.25073242 2.27789307 C27.58666992 4.11773682 27.58666992 4.11773682 27.62573242 6.21539307 C27.6540918 6.9050415 27.68245117 7.59468994 27.71166992 8.30523682 C27.25073242 10.27789307 27.25073242 10.27789307 25.59301758 11.87408447 C21.42631931 14.3713239 16.80426694 13.75819277 12.06030273 13.72393799 C10.25543568 13.71541528 8.45372552 13.744225 6.64916992 13.77593994 C5.50706055 13.77529541 4.36495117 13.77465088 3.18823242 13.77398682 C2.14538086 13.77583984 1.1025293 13.77769287 0.02807617 13.77960205 C-3.42074936 13.15659427 -4.59680326 11.98479923 -6.74926758 9.27789307 C-7.38494996 6.72438928 -7.04744602 4.96149903 -6.74926758 2.27789307 C-4.37437137 -0.09700314 -3.2402198 0.03438861 0 0 Z M-3.74926758 3.27789307 C-3.74926758 4.92789307 -3.74926758 6.57789307 -3.74926758 8.27789307 C-0.65955229 10.07440475 1.57067279 10.52577593 5.12963867 10.50836182 C6.05067383 10.50642822 6.97170898 10.50449463 7.9206543 10.50250244 C8.87520508 10.49025635 9.82975586 10.47801025 10.81323242 10.46539307 C11.29244141 10.4650708 11.29244141 10.4650708 13.7175293 10.46343994 C20.82863979 10.41859061 20.82863979 10.41859061 24.25073242 9.27789307 C24.25073242 7.29789307 24.25073242 5.31789307 24.25073242 3.27789307 C15.01073242 3.27789307 5.77073242 3.27789307 -3.74926758 3.27789307 Z " fill="#142d7a" transform="translate(83.749267578125,213.72210693359375)"/>
</g>
<g filter="url(#glow)">
<path d="M0 0 C0.76957031 0.40992188 1.53914063 0.81984375 2.33203125 1.2421875 C3.09128906 1.63148437 3.85054688 2.02078125 4.6328125 2.421875 C14.7672806 8.33802391 21.56202064 19.35862746 25.33203125 30.2421875 C25.88587333 32.63245331 26.16833672 34.78676954 26.33203125 37.2421875 C27.06679687 37.5 27.8015625 37.7578125 28.55859375 38.0234375 C38.07193413 42.20394764 45.84207489 52.55261088 49.73828125 61.9909668 C51.11293634 67.20301228 50.84084614 72.75285969 50.89453125 78.1171875 C51.08311615 92.68965666 51.08311615 92.68965666 52.87329102 99.44042969 C53.56659191 102.16345287 53.72894902 104.46376311 53.33203125 107.2421875 C51.33203125 109.1171875 51.33203125 109.1171875 49.33203125 110.2421875 C48.63078125 109.7471875 47.92953125 109.2521875 47.20703125 108.7421875 C43.14115313 106.62085978 40.04735374 106.84327529 35.64453125 107.8671875 C33.33203125 108.2421875 33.33203125 108.2421875 31.70703125 107.3046875 C31.25328125 106.9540625 30.79953125 106.6034375 30.33203125 106.2421875 C29.34203125 106.2421875 28.35203125 106.2421875 27.33203125 106.2421875 C27.06390625 106.7371875 26.79578125 107.2321875 26.51953125 107.7421875 C25.33203125 109.2421875 25.33203125 109.2421875 22.51953125 109.6171875 C19.04351081 109.20824392 17.16464063 108.24167647 14.33203125 106.2421875 C14.62078125 106.561875 14.62078125 106.561875 16.08203125 108.1796875 C17.82774014 110.366354 18.94706533 112.47483861 20.01953125 115.0546875 C21.90622024 119.53371688 24.22549855 123.66261852 26.64453125 127.8671875 C38.86452492 149.40346328 53.04849736 179.87064642 52.33203125 205.2421875 C51.34203125 205.2421875 50.35203125 205.2421875 49.33203125 205.2421875 C49.18507812 204.57058594 49.038125 203.89898437 48.88671875 203.20703125 C48.06447861 199.54475475 47.20646145 195.89232471 46.33203125 192.2421875 C46.13335449 191.41106445 45.93467773 190.57994141 45.72998047 189.72363281 C39.96413873 165.90876288 32.51779941 141.54475478 18.33203125 121.2421875 C15.80003798 124.32426238 13.99017843 127.6283296 12.12329102 131.12988281 C3.81203864 146.68561446 -6.63532201 160.53440067 -17.66796875 174.2421875 C-18.43910837 175.20548406 -19.20996516 176.16900713 -19.98046875 177.1328125 C-20.53734375 177.82890625 -21.09421875 178.525 -21.66796875 179.2421875 C-26.02061573 178.73874881 -28.57898457 176.02632077 -31.73046875 173.2421875 C-32.78032714 172.32148343 -33.83359794 171.40465252 -34.890625 170.4921875 C-35.35218994 170.08484375 -35.81375488 169.6775 -36.28930664 169.2578125 C-37.66796875 168.2421875 -37.66796875 168.2421875 -40.66796875 167.2421875 C-42.26372931 167.68356808 -43.85760896 168.13371652 -45.4375 168.62890625 C-51.6749239 170.34392473 -58.19670719 171.40811728 -64.66796875 171.2421875 C-66.54817859 177.46369487 -68.39568102 183.69466262 -70.23046875 189.9296875 C-70.44018311 190.64181396 -70.64989746 191.35394043 -70.8659668 192.08764648 C-72.15327734 196.46694175 -73.41930229 200.85171513 -74.66796875 205.2421875 C-75.65796875 205.2421875 -76.64796875 205.2421875 -77.66796875 205.2421875 C-77.07491238 198.92357462 -75.6299899 193.22444665 -73.73046875 187.1796875 C-72.94669346 184.63766203 -72.16391134 182.09533939 -71.3828125 179.55249023 C-70.93132132 178.09331638 -70.47147118 176.63667909 -70 175.18383789 C-68.56500191 170.59705556 -68.77747312 168.54831644 -70.66796875 164.2421875 C-74.09863424 167.30581673 -76.13745053 170.55013987 -78.04296875 174.6796875 C-78.33896973 175.31277832 -78.6349707 175.94586914 -78.93994141 176.59814453 C-82.63378235 184.8861386 -84.84742661 193.67598346 -87.11474609 202.43896484 C-87.66796875 204.2421875 -87.66796875 204.2421875 -88.66796875 205.2421875 C-91.00606469 205.38236112 -93.32405181 205.28480417 -95.66796875 205.2421875 C-97.38312136 199.32686004 -95.65586097 194.85952489 -93.66796875 189.1796875 C-93.35053711 188.25172363 -93.03310547 187.32375977 -92.70605469 186.36767578 C-86.44457841 168.62271371 -86.44457841 168.62271371 -81.06640625 163.80859375 C-78.9857833 161.47806358 -78.62907877 158.78519018 -78.04296875 155.8046875 C-77.80092425 154.660126 -77.55874003 153.51559404 -77.31640625 152.37109375 C-77.10242188 151.33855469 -76.8884375 150.30601562 -76.66796875 149.2421875 C-76.45527344 148.54609375 -76.24257812 147.85 -76.0234375 147.1328125 C-75.55823459 144.65854645 -76.04262215 142.88340437 -76.60546875 140.4296875 C-80.01999253 121.19061212 -78.48161436 101.9327987 -68.95483398 84.75561523 C-67.30286905 81.7644382 -66.3023655 79.67733466 -66.66796875 76.2421875 C-66.58546875 75.4378125 -66.50296875 74.6334375 -66.41796875 73.8046875 C-66.66796875 71.2421875 -66.66796875 71.2421875 -68.66796875 68.9921875 C-71.48805411 65.11457013 -71.26006231 61.89892331 -70.66796875 57.2421875 C-70.28153474 55.98251299 -69.86695152 54.7309472 -69.41796875 53.4921875 C-69.17046875 52.4196875 -68.92296875 51.3471875 -68.66796875 50.2421875 C-69.95522782 48.53968357 -71.28928594 46.87153991 -72.66796875 45.2421875 C-72.73046875 42.1796875 -72.73046875 42.1796875 -71.66796875 39.2421875 C-68.90062524 36.47484399 -66.56844091 34.82003523 -62.66796875 34.2421875 C-62.91546875 33.7059375 -63.16296875 33.1696875 -63.41796875 32.6171875 C-63.73409552 29.61398319 -62.77194198 28.07654227 -61.03125 25.671875 C-59.56218423 24.13125015 -58.24519563 23.33124681 -56.35546875 22.3671875 C-53.3276115 20.81476916 -51.51979904 19.11592752 -49.35546875 16.4921875 C-37.51140814 2.33195504 -18.17881011 -8.51672848 0 0 Z M-49.66796875 20.2421875 C-49.33410156 20.82742187 -49.00023438 21.41265625 -48.65625 22.015625 C-47.10603032 25.5082148 -47.78031027 27.55499075 -48.66796875 31.2421875 C-50.96325074 34.04753215 -55.2756681 33.85815346 -58.66796875 34.2421875 C-58.66796875 37.2421875 -58.66796875 37.2421875 -57.57421875 38.55859375 C-57.3421875 38.76419922 -57.3421875 38.76419922 -56.16796875 39.8046875 C-55.75546875 40.206875 -55.75546875 40.206875 -53.66796875 42.2421875 C-53.66796875 42.9021875 -53.66796875 43.5621875 -53.66796875 44.2421875 C-54.45171875 44.6959375 -55.23546875 45.1496875 -56.04296875 45.6171875 C-58.89742478 47.38423171 -59.77983122 48.04489239 -60.66796875 51.2421875 C-60.73838497 55.00945516 -60.21082618 57.52484018 -57.91796875 60.5546875 C-53.84810322 63.60708665 -50.15482665 64.53361925 -45.10546875 64.5546875 C-44.64076172 64.56306641 -44.64076172 64.56306641 -42.2890625 64.60546875 C-39.21143009 64.17891165 -37.84574158 63.44021868 -35.66796875 61.2421875 C-35.31080972 57.31343819 -35.45921899 54.0195305 -36.66796875 50.2421875 C-35.67796875 50.5721875 -34.68796875 50.9021875 -33.66796875 51.2421875 C-33.57 50.72269531 -33.47203125 50.20320313 -33.37109375 49.66796875 C-32.33082378 44.81636484 -31.06591714 41.86666579 -27.66796875 38.2421875 C-28.02310547 38.18160156 -28.02310547 38.18160156 -29.8203125 37.875 C-30.73941406 37.70742188 -31.65851563 37.53984375 -32.60546875 37.3671875 C-33.06373047 37.28597656 -33.06373047 37.28597656 -35.3828125 36.875 C-36.13691406 36.66617188 -36.89101562 36.45734375 -37.66796875 36.2421875 C-38.71974735 34.1386303 -38.83098449 33.05350149 -38.85546875 30.7421875 C-38.86964844 30.13375 -38.88382813 29.5253125 -38.8984375 28.8984375 C-38.66796875 27.2421875 -38.66796875 27.2421875 -36.66796875 25.2421875 C-25.03263875 23.58823976 -13.86243186 27.14142202 -4.375 33.77734375 C-2.72670676 35.19178303 -1.66425444 36.32041815 -0.66796875 38.2421875 C-0.54296875 40.9296875 -0.54296875 40.9296875 -0.66796875 43.2421875 C-4.32654407 44.55753244 -6.74823356 43.89687059 -10.41796875 42.8046875 C-11.4028125 42.51722656 -12.38765625 42.22976562 -13.40234375 41.93359375 C-14.15 41.70542969 -14.89765625 41.47726563 -15.66796875 41.2421875 C-15.36761719 41.66628906 -15.06726563 42.09039062 -14.7578125 42.52734375 C-12.72844454 45.65738585 -11.27580218 48.1220386 -11.60546875 51.9296875 C-12.91198147 56.00293304 -13.89614344 57.23589744 -17.66796875 59.2421875 C-23.06865817 60.3404409 -26.87058996 59.04050244 -31.41796875 56.1171875 C-31.83046875 55.8284375 -32.24296875 55.5396875 -32.66796875 55.2421875 C-32.72984375 56.3146875 -32.79171875 57.3871875 -32.85546875 58.4921875 C-33.0280439 61.48349018 -33.66666047 62.24085078 -35.82421875 64.4453125 C-40.79864712 67.58849526 -45.9826939 66.92112865 -51.66796875 66.2421875 C-56.00866659 64.98372161 -58.79026784 63.34639187 -61.60546875 59.8046875 C-62.65624166 57.27047049 -63.28051693 54.95435023 -63.66796875 52.2421875 C-64.32796875 52.2421875 -64.98796875 52.2421875 -65.66796875 52.2421875 C-67.08600018 56.67353573 -68.29438521 60.54406402 -67.66796875 65.2421875 C-65.80086965 67.54494306 -64.31149134 68.92042621 -61.66796875 70.2421875 C-59.01759214 70.45732517 -56.38541148 70.61934312 -53.73046875 70.7421875 C-52.93358643 70.78351807 -52.1367041 70.82484863 -51.31567383 70.86743164 C-47.11358944 71.08375463 -42.91077291 71.27610861 -38.70703125 71.45703125 C-13.31753308 72.59262317 -13.31753308 72.59262317 -9.66796875 76.2421875 C-10.56128906 76.10941406 -11.45460937 75.97664063 -12.375 75.83984375 C-29.04033782 73.59602504 -45.87986223 73.58663072 -62.66796875 73.2421875 C-62.64379883 74.34594727 -62.61962891 75.44970703 -62.59472656 76.58691406 C-62.51670657 80.14982711 -63.35339178 82.02819085 -65.41796875 84.9921875 C-76.55292786 102.35116857 -76.6374193 123.9189358 -72.80078125 143.60546875 C-70.97438963 151.75033079 -67.81377305 159.53064261 -64.66796875 167.2421875 C-56.46892677 162.7995348 -48.30382579 158.2963827 -40.1640625 153.74609375 C-37.41759837 152.21084299 -34.66256297 150.69573328 -31.890625 149.20703125 C-14.31751164 139.66045082 2.25270019 126.40084962 11.33203125 108.2421875 C11.54051282 105.82148479 11.70635685 103.41723793 11.83203125 100.9921875 C12.07910242 96.33443844 12.47700978 91.83080273 13.33203125 87.2421875 C12.89890625 86.98824219 12.46578125 86.73429687 12.01953125 86.47265625 C11.46265625 86.12847656 10.90578125 85.78429687 10.33203125 85.4296875 C9.77515625 85.09324219 9.21828125 84.75679688 8.64453125 84.41015625 C8.21140625 84.02472656 7.77828125 83.63929687 7.33203125 83.2421875 C7.33203125 82.2521875 7.33203125 81.2621875 7.33203125 80.2421875 C8.15703125 81.0465625 8.98203125 81.8509375 9.83203125 82.6796875 C13.40350421 85.64325017 16.70860369 86.56630407 21.33203125 86.2421875 C24.55498758 84.98103068 25.87034252 84.01166871 27.64453125 81.0546875 C28.93479783 75.77632423 29.18246818 71.29921068 26.64453125 66.3671875 C25.15676384 64.07267298 24.28675609 63.21432586 21.89453125 61.7421875 C19.03817407 61.18484951 17.11335413 61.44752382 14.33203125 62.2421875 C14.66203125 62.9021875 14.99203125 63.5621875 15.33203125 64.2421875 C15.78578125 64.190625 15.78578125 64.190625 18.08203125 63.9296875 C21.33203125 64.2421875 21.33203125 64.2421875 23.70703125 66.3671875 C25.55365225 69.63428619 25.67548505 71.55005913 25.33203125 75.2421875 C25.00203125 75.2421875 24.67203125 75.2421875 24.33203125 75.2421875 C23.87630208 73.484375 23.42057292 71.7265625 22.96484375 69.96875 C22.33203125 68.2421875 22.33203125 68.2421875 20.33203125 66.2421875 C17.70703125 66.1171875 17.70703125 66.1171875 15.33203125 66.2421875 C15.13867188 66.88027344 14.9453125 67.51835938 14.74609375 68.17578125 C14.48570312 69.00207031 14.2253125 69.82835938 13.95703125 70.6796875 C13.70179688 71.50339844 13.4465625 72.32710938 13.18359375 73.17578125 C12.33203125 75.2421875 12.33203125 75.2421875 10.33203125 76.2421875 C10.66203125 74.2621875 10.99203125 72.2821875 11.33203125 70.2421875 C9.35203125 70.5721875 7.37203125 70.9021875 5.33203125 71.2421875 C5.00203125 70.5821875 4.67203125 69.9221875 4.33203125 69.2421875 C2.69060162 68.2012809 1.0249091 67.19714424 -0.66796875 66.2421875 C-0.11590938 62.39796922 0.91629251 60.04668772 3.20703125 56.9296875 C5.29168129 53.9657301 6.76073351 51.38881755 7.83203125 47.9296875 C9.03022259 44.43960691 10.42862025 42.68936767 13.63671875 40.8515625 C16.60498222 39.78462909 19.20844539 39.99230063 22.33203125 40.2421875 C24.00633867 35.12624815 22.27682095 31.08431696 20.33203125 26.2421875 C15.56916049 16.90414532 11.00629981 8.90054729 1.26953125 4.4296875 C0.96370117 4.28047852 0.96370117 4.28047852 -0.58398438 3.52539062 C-19.06434356 -5.32520302 -37.28534793 6.23856905 -49.66796875 20.2421875 Z M-68.04296875 39.6796875 C-68.57921875 40.1953125 -69.11546875 40.7109375 -69.66796875 41.2421875 C-69.30083903 43.95894745 -68.94052276 45.85282463 -67.35546875 48.1171875 C-65.66796875 49.2421875 -65.66796875 49.2421875 -63.66796875 49.1796875 C-61.03102053 47.94361802 -60.02681847 46.81685014 -58.66796875 44.2421875 C-58.98046875 41.4921875 -58.98046875 41.4921875 -59.66796875 39.2421875 C-65.08335337 37.88834135 -65.08335337 37.88834135 -68.04296875 39.6796875 Z M-29.60546875 43.8671875 C-30.98362076 46.94776258 -31.15543483 48.89956298 -30.66796875 52.2421875 C-29.05269663 54.63279024 -27.79176889 55.87735191 -25.01953125 56.77734375 C-21.13295726 57.51562309 -18.0921431 57.45782973 -14.66796875 55.2421875 C-13.18904987 51.91462003 -13.58204271 50.47283109 -14.85546875 47.0546875 C-16.74447982 44.12346342 -17.36892509 43.15858852 -20.66796875 42.2421875 C-24.13412112 41.73455878 -26.78800097 41.50415001 -29.60546875 43.8671875 Z M13.33203125 110.2421875 C12.93113281 110.84804687 12.53023438 111.45390625 12.1171875 112.078125 C-2.62788518 133.81122532 -22.10724879 146.6136292 -44.91992188 158.50854492 C-45.47468201 158.79997375 -46.02944214 159.09140259 -46.60101318 159.3916626 C-48.1244534 160.1908623 -49.65147553 160.98322335 -51.17871094 161.77514648 C-53.4074298 163.08863919 -54.96667064 164.31622345 -56.66796875 166.2421875 C-54.54095747 166.15530957 -52.41822925 166.04850481 -50.29296875 165.9296875 C-49.99132812 165.9184082 -49.99132812 165.9184082 -48.46484375 165.86132812 C-43.98445683 165.5875267 -43.98445683 165.5875267 -42.25390625 163.69921875 C-42.06054688 163.21839844 -41.8671875 162.73757812 -41.66796875 162.2421875 C-39.77136601 163.65783357 -37.87567358 165.07467205 -35.98046875 166.4921875 C-35.45001953 166.88792969 -34.91957031 167.28367188 -34.37304688 167.69140625 C-33.84775391 168.08457031 -33.32246094 168.47773438 -32.78125 168.8828125 C-32.25611816 169.27275391 -31.73098633 169.66269531 -31.18994141 170.06445312 C-30.19889706 170.83134403 -29.23249832 171.6315493 -28.29833984 172.46679688 C-27.0234375 173.6015625 -27.0234375 173.6015625 -24.66796875 175.2421875 C-21.98769611 175.02787352 -20.90808697 174.48566773 -19.01147461 172.5625 C-18.47401611 171.83804688 -17.93655762 171.11359375 -17.3828125 170.3671875 C-16.77501953 169.55507812 -16.16722656 168.74296875 -15.54101562 167.90625 C-14.90228516 167.02710938 -14.26355469 166.14796875 -13.60546875 165.2421875 C-12.94224609 164.34242188 -12.27902344 163.44265625 -11.59570312 162.515625 C16.67618902 123.80194434 16.67618902 123.80194434 15.33203125 112.2421875 C15.00203125 111.9121875 15.00203125 111.9121875 13.33203125 110.2421875 Z M-73.66796875 152.2421875 C-74.66796875 153.2421875 -74.66796875 153.2421875 -74.73046875 155.8046875 C-74.70984375 156.6090625 -74.68921875 157.4134375 -74.66796875 158.2421875 C-73.67796875 158.2421875 -72.68796875 158.2421875 -71.66796875 158.2421875 C-71.99796875 156.2621875 -72.32796875 154.2821875 -72.66796875 152.2421875 C-72.99796875 152.2421875 -73.32796875 152.2421875 -73.66796875 152.2421875 Z M-75.66796875 160.2421875 C-75.33796875 161.2321875 -75.00796875 162.2221875 -74.66796875 163.2421875 C-74.33796875 162.2521875 -74.00796875 161.2621875 -73.66796875 160.2421875 C-74.32796875 160.2421875 -74.98796875 160.2421875 -75.66796875 160.2421875 Z M-78.66796875 165.2421875 C-85.50444513 174.98265385 -93.60462034 190.06571684 -92.66796875 202.2421875 C-92.00796875 202.2421875 -91.34796875 202.2421875 -90.66796875 202.2421875 C-90.59018188 201.9858252 -90.59018188 201.9858252 -90.1965332 200.68847656 C-82.29579912 174.79146488 -82.29579912 174.79146488 -78.46484375 169.6171875 C-78.201875 169.1634375 -77.93890625 168.7096875 -77.66796875 168.2421875 C-77.99796875 167.2521875 -78.32796875 166.2621875 -78.66796875 165.2421875 Z " fill="#1e40af" transform="translate(133.66796875,23.7578125)"/>
<path d="M0 0 C0.99 0.33 1.98 0.66 3 1 C2.34 2.32 1.68 3.64 1 5 C0.01 4.01 -0.98 3.02 -2 2 C-1.34 1.34 -0.68 0.68 0 0 Z " fill="#1e40af" transform="translate(70,64)"/>
<path d="M0 0 C0.66 0.165 0.66 0.165 4 1 C3.67 2.32 3.34 3.64 3 5 C1.68 4.67 0.36 4.34 -1 4 C-0.67 2.68 -0.34 1.36 0 0 Z " fill="#1e40af" transform="translate(110,68)"/>
<path d="M0 0 C2.875 -0.1875 2.875 -0.1875 6 0 C7.375 1.5 7.375 1.5 8 3 C7 4 7 4 4.0625 4.125 C1 4 1 4 -1 3 C-0.67 2.01 -0.34 1.02 0 0 Z " fill="#1e40af" transform="translate(79,99)"/>
<path d="M0 0 C0.66 0.33 1.32 0.66 2 1 C2.20638953 24.99516389 2.20638953 24.99516389 1 34 C-1.31 34 -3.62 34 -6 34 C-5.5155542 33.43829102 -5.0311084 32.87658203 -4.53198242 32.29785156 C-2.79660611 29.69492537 -2.58733099 28.32472677 -2.48828125 25.234375 C-2.45283203 24.34492188 -2.41738281 23.45546875 -2.38085938 22.5390625 C-2.35830078 21.61867187 -2.33574219 20.69828125 -2.3125 19.75 C-2.27833984 18.81414062 -2.24417969 17.87828125 -2.20898438 16.9140625 C-2.12667838 14.60949467 -2.0574737 12.30529881 -2 10 C-9.31839056 8.54198409 -16.55769906 7.54701632 -24 7 C-23.86050849 9.75035996 -23.71228678 12.50018303 -23.5625 15.25 C-23.52318359 16.02730469 -23.48386719 16.80460937 -23.44335938 17.60546875 C-23.40146484 18.35957031 -23.35957031 19.11367187 -23.31640625 19.890625 C-23.27974854 20.58188477 -23.24309082 21.27314453 -23.20532227 21.98535156 C-22.66352309 27.30155464 -22.66352309 27.30155464 -20.58984375 29.484375 C-20.04457031 29.90203125 -19.49929687 30.3196875 -18.9375 30.75 C-18.38964844 31.17796875 -17.84179688 31.6059375 -17.27734375 32.046875 C-16.85582031 32.36140625 -16.43429688 32.6759375 -16 33 C-17.6875 33.75 -17.6875 33.75 -20 34 C-23.46101271 31.77506326 -25.46691765 29.79476683 -27 26 C-27.25878906 23.74169922 -27.25878906 23.74169922 -27.265625 21.3046875 C-27.26820313 20.42425781 -27.27078125 19.54382813 -27.2734375 18.63671875 C-27.26570312 17.72535156 -27.25796875 16.81398437 -27.25 15.875 C-27.25773438 14.95589844 -27.26546875 14.03679687 -27.2734375 13.08984375 C-27.27085937 12.21199219 -27.26828125 11.33414063 -27.265625 10.4296875 C-27.26336914 9.62772949 -27.26111328 8.82577148 -27.25878906 7.99951172 C-27 6 -27 6 -25 4 C-16.57993786 3.04514759 -9.00399098 4.30526957 -1 7 C-1.020625 6.030625 -1.04125 5.06125 -1.0625 4.0625 C-1 1 -1 1 0 0 Z " fill="#1e40af" transform="translate(170,195)"/>
<path d="M0 0 C0.66 0.33 1.32 0.66 2 1 C1.67 5.95 1.34 10.9 1 16 C-0.32 16.33 -1.64 16.66 -3 17 C-2.69268013 14.35346869 -2.37940678 11.707885 -2.0625 9.0625 C-1.97548828 8.30775391 -1.88847656 7.55300781 -1.79882812 6.77539062 C-1.71181641 6.05673828 -1.62480469 5.33808594 -1.53515625 4.59765625 C-1.456604 3.93258057 -1.37805176 3.26750488 -1.29711914 2.58227539 C-1 1 -1 1 0 0 Z " fill="#1e40af" transform="translate(134,212)"/>
<path d="M0 0 C0.6396167 0.00404846 1.2792334 0.00809692 1.93823242 0.01226807 C2.59654053 0.01035461 3.25484863 0.00844116 3.93310547 0.00646973 C5.32511782 0.00510857 6.71714289 0.00880024 8.10913086 0.01715088 C10.24255831 0.02785207 12.37514373 0.017254 14.50854492 0.00445557 C15.86010928 0.00577717 17.21167312 0.0083396 18.56323242 0.01226807 C18.88304077 0.01024384 18.88304077 0.01024384 20.50146484 0 C25.02080331 0.04796395 25.02080331 0.04796395 27.25073242 2.27789307 C27.58666992 4.11773682 27.58666992 4.11773682 27.62573242 6.21539307 C27.6540918 6.9050415 27.68245117 7.59468994 27.71166992 8.30523682 C27.25073242 10.27789307 27.25073242 10.27789307 25.59301758 11.87408447 C21.42631931 14.3713239 16.80426694 13.75819277 12.06030273 13.72393799 C10.25543568 13.71541528 8.45372552 13.744225 6.64916992 13.77593994 C5.50706055 13.77529541 4.36495117 13.77465088 3.18823242 13.77398682 C2.14538086 13.77583984 1.1025293 13.77769287 0.02807617 13.77960205 C-3.42074936 13.15659427 -4.59680326 11.98479923 -6.74926758 9.27789307 C-7.38494996 6.72438928 -7.04744602 4.96149903 -6.74926758 2.27789307 C-4.37437137 -0.09700314 -3.2402198 0.03438861 0 0 Z M-3.74926758 3.27789307 C-3.74926758 4.92789307 -3.74926758 6.57789307 -3.74926758 8.27789307 C-0.65955229 10.07440475 1.57067279 10.52577593 5.12963867 10.50836182 C6.05067383 10.50642822 6.97170898 10.50449463 7.9206543 10.50250244 C8.87520508 10.49025635 9.82975586 10.47801025 10.81323242 10.46539307 C11.29244141 10.4650708 11.29244141 10.4650708 13.7175293 10.46343994 C20.82863979 10.41859061 20.82863979 10.41859061 24.25073242 9.27789307 C24.25073242 7.29789307 24.25073242 5.31789307 24.25073242 3.27789307 C15.01073242 3.27789307 5.77073242 3.27789307 -3.74926758 3.27789307 Z " fill="#1e40af" transform="translate(83.749267578125,213.72210693359375)"/>
</g>
</g>
</svg>
