<?xml version="1.0" encoding="UTF-8"?>
<svg version="1.1" xmlns="http://www.w3.org/2000/svg" width="229" height="229" viewBox="0 0 229 229">
<defs>
<filter id="glow">
<feGaussianBlur stdDeviation="4" result="blur"/>
<feMerge>
<feMergeNode in="blur"/>
<feMergeNode in="blur"/>
<feMergeNode in="SourceGraphic"/>
</feMerge>
</filter>
</defs>
<g transform="translate(22.9,22.9) scale(0.8)">
<g transform="translate(2,2)">
<path d="M0 0 C5.73093767 4.81512061 10.1068457 9.88694336 12.49609375 17.0546875 C13.90625 18.15234375 13.90625 18.15234375 15.55859375 19.1171875 C17.21875 20.08984375 17.21875 20.08984375 18.49609375 21.0546875 C18.49609375 21.7146875 18.49609375 22.3746875 18.49609375 23.0546875 C17.17609375 23.0546875 15.85609375 23.0546875 14.49609375 23.0546875 C14.82609375 24.0446875 15.15609375 25.0346875 15.49609375 26.0546875 C18.49609375 27.0546875 18.49609375 27.0546875 21.49609375 27.0546875 C23.68359375 28.0546875 23.68359375 28.0546875 25.49609375 29.0546875 C25.16609375 30.0446875 24.83609375 31.0346875 24.49609375 32.0546875 C25.48609375 32.3846875 26.47609375 32.7146875 27.49609375 33.0546875 C27.18671875 33.7353125 26.87734375 34.4159375 26.55859375 35.1171875 C25.69499178 37.50479295 25.31293735 39.15853265 25.05859375 41.6171875 C24.49609375 45.0546875 24.49609375 45.0546875 22.97265625 46.78515625 C20.82628093 50.08421461 21.1669583 52.96237208 21.30859375 56.8046875 C21.32212891 57.50207031 21.33566406 58.19945313 21.34960938 58.91796875 C21.38479925 60.63054291 21.4386022 62.34271691 21.49609375 64.0546875 C22.44871094 64.51488281 23.40132812 64.97507812 24.3828125 65.44921875 C27.34371457 66.87958687 28.94999523 68.04386406 30.49609375 71.0546875 C30.8145993 73.07613608 31.00399986 75.08602954 31.17578125 77.125 C31.49609375 79.0546875 31.49609375 79.0546875 33.12109375 81.3671875 C35.07943808 85.1948605 34.26621331 88.26859556 33.625 92.43359375 C33.4805506 95.37073147 34.10364475 96.53251573 35.49609375 99.0546875 C35.49609375 102.43055224 35.44275151 104.69269768 33.5078125 107.4765625 C30.18118688 110.6559923 26.69368476 111.64615732 22.30859375 112.8671875 C16.87702372 114.49665851 16.87702372 114.49665851 15.16015625 117.01171875 C14.43359375 119.1796875 14.43359375 119.1796875 14.0234375 121.25 C13.49609375 123.0546875 13.49609375 123.0546875 12.19360352 124.14379883 C10.26281164 125.17986736 8.98793973 125.34766872 6.80859375 125.43359375 C6.10992187 125.46775391 5.41125 125.50191406 4.69140625 125.53710938 C3.96695313 125.56353516 3.2425 125.58996094 2.49609375 125.6171875 C1.05843487 125.67730313 -0.37908094 125.74097051 -1.81640625 125.80859375 C-2.45191406 125.83252197 -3.08742188 125.8564502 -3.7421875 125.88110352 C-5.50390625 126.0546875 -5.50390625 126.0546875 -8.50390625 127.0546875 C-8.17777344 127.72113281 -7.85164063 128.38757813 -7.515625 129.07421875 C-1.99370238 140.72075172 0.59749986 151.51282877 0.40698242 164.34741211 C0.37451673 171.33866727 1.41490078 178.16208231 2.49609375 185.0546875 C1.17609375 185.0546875 -0.14390625 185.0546875 -1.50390625 185.0546875 C-2.16390625 180.1046875 -2.82390625 175.1546875 -3.50390625 170.0546875 C-4.82390625 170.0546875 -6.14390625 170.0546875 -7.50390625 170.0546875 C-7.17390625 172.5296875 -7.17390625 172.5296875 -5.50390625 185.0546875 C-6.82390625 185.0546875 -8.14390625 185.0546875 -9.50390625 185.0546875 C-10.01495173 181.43115756 -10.51066458 177.80568031 -11.00390625 174.1796875 C-11.14699219 173.16648438 -11.29007812 172.15328125 -11.4375 171.109375 C-12.29859783 164.71264827 -12.69712053 158.50768676 -12.50390625 152.0546875 C-11.51390625 152.3846875 -10.52390625 152.7146875 -9.50390625 153.0546875 C-8.38444495 155.9460961 -8.39622428 158.73231362 -8.44140625 161.8046875 C-8.45042969 162.60390625 -8.45945312 163.403125 -8.46875 164.2265625 C-8.48035156 164.82984375 -8.49195313 165.433125 -8.50390625 166.0546875 C-6.85390625 166.0546875 -5.20390625 166.0546875 -3.50390625 166.0546875 C-4.02116155 153.99728802 -5.90377451 143.19656547 -10.734375 132.015625 C-11.50390625 130.0546875 -11.50390625 130.0546875 -11.50390625 128.0546875 C-12.13296875 128.6321875 -12.76203125 129.2096875 -13.41015625 129.8046875 C-21.277655 136.62950569 -21.277655 136.62950569 -25.62890625 136.7421875 C-33.15997847 135.86507467 -39.31901021 132.21633298 -45.50390625 128.0546875 C-46.22578125 128.6734375 -46.94765625 129.2921875 -47.69140625 129.9296875 C-53.27531043 134.71589109 -59.52736816 134.53710769 -66.50390625 134.0546875 C-69.87729822 133.53432384 -73.18767466 132.86036632 -76.50390625 132.0546875 C-76.60316406 132.81265625 -76.70242187 133.570625 -76.8046875 134.3515625 C-77.92095026 138.66694702 -80.83916797 140.71580981 -84.50390625 143.0546875 C-86.62600962 143.7651308 -88.24591492 143.94454158 -90.50390625 144.0546875 C-92.77249452 151.32704139 -94.71035819 158.65153167 -96.50390625 166.0546875 C-87.81541238 166.71130782 -79.22476511 167.17415132 -70.50390625 167.0546875 C-69.51390625 162.1046875 -68.52390625 157.1546875 -67.50390625 152.0546875 C-66.51390625 152.0546875 -65.52390625 152.0546875 -64.50390625 152.0546875 C-65.51917343 167.06995468 -65.51917343 167.06995468 -69.50390625 171.0546875 C-70.12673689 173.43744324 -70.66077208 175.76736347 -71.12890625 178.1796875 C-71.26296875 178.83839844 -71.39703125 179.49710938 -71.53515625 180.17578125 C-71.86485439 181.8007221 -72.18527433 183.42754051 -72.50390625 185.0546875 C-73.49390625 185.0546875 -74.48390625 185.0546875 -75.50390625 185.0546875 C-75.60505951 180.09817774 -75.22615911 176.1104575 -74.50390625 171.0546875 C-80.44390625 171.0546875 -86.38390625 171.0546875 -92.50390625 171.0546875 C-92.99890625 173.3646875 -92.99890625 173.3646875 -95.50390625 185.0546875 C-96.82390625 185.0546875 -98.14390625 185.0546875 -99.50390625 185.0546875 C-99.33632812 183.92289063 -99.16875 182.79109375 -98.99609375 181.625 C-98.7897825 180.1433101 -98.58408508 178.66153464 -98.37890625 177.1796875 C-98.26675781 176.43332031 -98.15460938 175.68695313 -98.0390625 174.91796875 C-97.94238281 174.20253906 -97.84570312 173.48710937 -97.74609375 172.75 C-97.65183105 172.09016113 -97.55756836 171.43032227 -97.46044922 170.75048828 C-97.50390625 169.0546875 -97.50390625 169.0546875 -99.50390625 167.0546875 C-100.01499003 161.42566751 -98.79900404 156.9200034 -97.00390625 151.6171875 C-96.76542969 150.88564453 -96.52695313 150.15410156 -96.28125 149.40039062 C-95.69794453 147.6154759 -95.1022069 145.83463193 -94.50390625 144.0546875 C-95.45265625 143.7453125 -96.40140625 143.4359375 -97.37890625 143.1171875 C-100.50390625 142.0546875 -100.50390625 142.0546875 -102.50390625 141.0546875 C-104.06575425 140.97759445 -105.62846475 140.91745055 -107.19140625 140.8671875 C-112.12448806 140.43107447 -114.65688813 138.96789505 -118.2265625 135.625 C-119.87621578 133.59698587 -120.58938851 131.89132237 -120.3203125 129.2578125 C-120.23652344 128.61328125 -120.15273437 127.96875 -120.06640625 127.3046875 C-119.99637042 124.3631826 -120.19462439 123.39298666 -122.2109375 121.1875 C-123.6603266 120.01231965 -125.11879518 118.84825266 -126.5859375 117.6953125 C-129.31673827 115.35939331 -130.00801984 113.59673332 -130.50390625 110.0546875 C-130.56049398 103.88662545 -129.23957644 98.99666786 -125.50390625 94.0546875 C-125.12234375 93.7040625 -125.12234375 93.7040625 -123.19140625 91.9296875 C-122.63453125 91.3109375 -122.07765625 90.6921875 -121.50390625 90.0546875 C-121.65420422 87.19902606 -122.49631711 85.07343713 -123.56640625 82.4296875 C-125.12551889 77.75234959 -125.31776271 72.89573022 -124.50390625 68.0546875 C-122.1485032 63.75684167 -119.03420447 60.92166587 -114.50390625 59.0546875 C-111.25390625 58.9296875 -111.25390625 58.9296875 -108.50390625 59.0546875 C-108.60703125 58.1471875 -108.71015625 57.2396875 -108.81640625 56.3046875 C-108.50390625 53.0546875 -108.50390625 53.0546875 -106.25390625 50.6796875 C-103.46425062 49.03125462 -102.58412047 48.88356449 -99.50390625 49.0546875 C-99.29894531 48.41660156 -99.09398438 47.77851562 -98.8828125 47.12109375 C-98.61339844 46.29480469 -98.34398437 45.46851563 -98.06640625 44.6171875 C-97.79957031 43.79347656 -97.53273437 42.96976563 -97.2578125 42.12109375 C-96.50390625 40.0546875 -96.50390625 40.0546875 -95.50390625 39.0546875 C-95.09934733 34.28327203 -95.60482433 29.68159568 -96.578125 25.01171875 C-96.46820918 22.11341222 -95.06553351 20.4910994 -93.50390625 18.0546875 C-92.81888531 16.74114747 -92.14812166 15.42011788 -91.48828125 14.09375 C-85.13301634 1.46143446 -79.46376033 -7.07575997 -65.50390625 -11.9453125 C-41.7599634 -19.23056468 -19.57354908 -15.20690709 0 0 Z M-79.46875 -0.16796875 C-81.0616996 1.83061258 -82.28012891 3.80925821 -83.50390625 6.0546875 C-83.79346191 6.57466309 -84.08301758 7.09463867 -84.38134766 7.63037109 C-85.9578037 10.46637923 -87.49511049 13.31851182 -88.98828125 16.19921875 C-90.50390625 19.0546875 -90.50390625 19.0546875 -91.6953125 20.74609375 C-94.13596392 24.69594024 -92.22145042 31.59938341 -91.52734375 35.94140625 C-91.49906525 38.49118446 -92.31176423 39.83546928 -93.50390625 42.0546875 C-93.35252869 45.15792757 -92.98459183 46.55619875 -90.81640625 48.8046875 C-88.05407565 50.29783918 -85.60704353 50.70205826 -82.50390625 51.0546875 C-82.09140625 50.2709375 -81.67890625 49.4871875 -81.25390625 48.6796875 C-79.37196168 45.85677065 -78.73900361 44.92903814 -75.50390625 44.0546875 C-69.23567589 43.94071968 -64.02105241 46.30888559 -58.50390625 49.0546875 C-58.21257812 48.00410156 -57.92125 46.95351562 -57.62109375 45.87109375 C-55.29138525 37.77115862 -53.00701188 30.62027392 -47.50390625 24.0546875 C-47.00375 23.43335938 -46.50359375 22.81203125 -45.98828125 22.171875 C-38.07790278 13.30149914 -26.08675229 9.20813049 -14.50390625 8.0546875 C-8.83438644 7.76677745 -3.17505177 7.86931107 2.49609375 8.0546875 C-5.24863808 -2.58644811 -18.2483114 -8.61956749 -30.94140625 -11.2578125 C-47.10933609 -13.66678772 -66.76300722 -11.66123508 -79.46875 -0.16796875 Z M-29.50390625 14.0546875 C-30.22191406 14.32152344 -30.93992188 14.58835937 -31.6796875 14.86328125 C-40.76215385 18.83134907 -47.72714947 25.95910717 -51.50390625 35.0546875 C-53.33110516 40.00329719 -54.94397877 45.01645365 -56.50390625 50.0546875 C-59.26654914 50.65201569 -61.66423394 51.0546875 -64.50390625 51.0546875 C-64.27703125 51.7765625 -64.05015625 52.4984375 -63.81640625 53.2421875 C-63.41607048 56.84520947 -64.36475508 58.20248595 -66.50390625 61.0546875 C-66.83390625 61.2196875 -66.83390625 61.2196875 -68.50390625 62.0546875 C-68.33890625 61.6009375 -68.33890625 61.6009375 -67.50390625 59.3046875 C-66.66960328 56.59320283 -66.29069059 54.82649109 -66.50390625 52.0546875 C-69.14849004 50.73239561 -71.18151926 50.95791556 -74.12890625 50.9921875 C-74.63035156 50.99669922 -74.63035156 50.99669922 -77.16796875 51.01953125 C-77.93882813 51.03113281 -78.7096875 51.04273438 -79.50390625 51.0546875 C-80.68359375 55.6875 -80.68359375 55.6875 -79.06640625 58.9921875 C-77.18943635 61.56481757 -75.04757749 63.18421631 -72.44140625 64.9921875 C-69.52048423 67.02668711 -68.14238913 68.26009417 -67.12890625 71.6796875 C-66.2689538 74.2044197 -65.83603448 74.88113177 -63.42578125 76.140625 C-61.69049629 76.76341132 -59.95065232 77.37360515 -58.20703125 77.97265625 C-51.98808999 80.46203014 -46.04278947 85.07241357 -43.01953125 91.16015625 C-41.82396453 95.5529582 -42.55388697 100.16501278 -44.578125 104.19140625 C-45.50390625 106.0546875 -45.50390625 106.0546875 -45.19140625 108.1796875 C-44.50390625 110.0546875 -44.50390625 110.0546875 -43.50390625 112.0546875 C-43.66508147 114.13845287 -43.83270361 116.22172202 -44.00390625 118.3046875 C-44.16182891 121.93342154 -44.11197215 124.36262074 -41.609375 127.2109375 C-36.40102106 130.64390746 -31.31056174 132.66743627 -25.03515625 132.5859375 C-19.80535619 131.48832514 -16.25043456 127.66223169 -12.50390625 124.0546875 C-12.13523438 123.70599609 -12.13523438 123.70599609 -10.26953125 121.94140625 C1.75566198 109.57715682 2.78296307 94.1532404 2.56640625 77.859375 C2.54436179 76.59112085 2.52148102 75.32287913 2.49609375 74.0546875 C2.02824463 74.01972168 2.02824463 74.01972168 -0.33935547 73.84277344 C-42.35609916 70.65315396 -42.35609916 70.65315396 -51.77734375 65.91015625 C-54.24590572 64.68704523 -55.92441194 65.3381613 -58.50390625 66.0546875 C-58.50390625 65.0646875 -58.50390625 64.0746875 -58.50390625 63.0546875 C-55.69140625 61.4921875 -55.69140625 61.4921875 -52.50390625 60.0546875 C-52.00890625 60.2196875 -52.00890625 60.2196875 -49.50390625 61.0546875 C-50.16390625 61.7146875 -50.82390625 62.3746875 -51.50390625 63.0546875 C-46.93166813 65.14302527 -42.59595514 66.74219658 -37.62890625 67.6171875 C-36.94127197 67.73868164 -36.2536377 67.86017578 -35.54516602 67.98535156 C-27.23131031 69.29920596 -18.83421347 69.7801801 -10.44140625 70.3046875 C-9.71576477 70.35174835 -8.99012329 70.3988092 -8.24249268 70.44729614 C10.58355636 71.63970294 10.58355636 71.63970294 15.484375 68.97265625 C17.12010632 65.87171387 16.80892834 62.8090681 16.68359375 59.3671875 C16.67005859 58.66529297 16.65652344 57.96339844 16.64257812 57.24023438 C16.60729557 55.51138921 16.55348958 53.78293985 16.49609375 52.0546875 C14.51609375 52.0546875 12.53609375 52.0546875 10.49609375 52.0546875 C10.16609375 54.3646875 9.83609375 56.6746875 9.49609375 59.0546875 C6.80859375 60.2421875 6.80859375 60.2421875 3.49609375 61.0546875 C0.62109375 59.8671875 0.62109375 59.8671875 -1.50390625 58.0546875 C-1.50390625 57.0646875 -1.50390625 56.0746875 -1.50390625 55.0546875 C-0.94703125 55.5703125 -0.39015625 56.0859375 0.18359375 56.6171875 C2.49609375 58.0546875 2.49609375 58.0546875 5.24609375 57.7421875 C5.98859375 57.5153125 6.73109375 57.2884375 7.49609375 57.0546875 C7.33109375 56.2915625 7.16609375 55.5284375 6.99609375 54.7421875 C6.49609375 52.0546875 6.49609375 52.0546875 6.49609375 49.0546875 C6.00979214 47.79085282 5.48517894 46.5414256 4.93359375 45.3046875 C3.27665217 40.98395467 3.15109101 38.51000906 4.49609375 34.0546875 C6.42214296 31.45754101 8.58083572 29.51231651 11.49609375 28.0546875 C11.33109375 26.8996875 11.33109375 26.8996875 10.49609375 21.0546875 C8.84609375 20.3946875 7.19609375 19.7346875 5.49609375 19.0546875 C6.15609375 17.4046875 6.81609375 15.7546875 7.49609375 14.0546875 C5.83623003 12.02659921 4.94758597 11.13546534 2.32641602 10.66650391 C1.49682373 10.66312012 0.66723145 10.65973633 -0.1875 10.65625 C-1.10966309 10.65012695 -2.03182617 10.64400391 -2.98193359 10.63769531 C-3.95855957 10.65155273 -4.93518555 10.66541016 -5.94140625 10.6796875 C-6.9360791 10.68838867 -7.93075195 10.69708984 -8.95556641 10.70605469 C-16.20552246 10.85050914 -22.66946422 11.47922892 -29.50390625 14.0546875 Z M8.05859375 33.1171875 C6.15651515 36.69309527 5.77368263 39.0994866 6.49609375 43.0546875 C7.55859375 45.9296875 7.55859375 45.9296875 9.49609375 48.0546875 C11.89703292 49.12177157 13.89423863 49.47030112 16.49609375 49.0546875 C18.63510581 47.59845236 19.84632266 46.10440309 21.49609375 44.0546875 C21.16609375 43.0646875 20.83609375 42.0746875 20.49609375 41.0546875 C19.17609375 41.0546875 17.85609375 41.0546875 16.49609375 41.0546875 C16.82609375 40.3946875 17.15609375 39.7346875 17.49609375 39.0546875 C18.81609375 39.0546875 20.13609375 39.0546875 21.49609375 39.0546875 C21.14596588 36.46374128 20.7583841 34.4772664 19.37109375 32.2421875 C17.02151259 30.75411943 14.9778024 30.50989555 12.21484375 30.64453125 C10.49609375 31.0546875 10.49609375 31.0546875 8.05859375 33.1171875 Z M-104.50390625 54.0546875 C-104.68953125 55.1890625 -104.87515625 56.3234375 -105.06640625 57.4921875 C-105.484375 59.38671875 -105.484375 59.38671875 -106.50390625 61.0546875 C-109.25271829 62.1303096 -111.97818578 62.7014171 -114.859375 63.33203125 C-117.50390625 64.0546875 -117.50390625 64.0546875 -120.19140625 66.2421875 C-123.12630101 72.53124771 -121.41419908 77.75657732 -119.1953125 84.02734375 C-118.28682907 86.69120194 -117.84671491 88.2798796 -118.50390625 91.0546875 C-119.92439099 92.92260321 -121.45796107 94.64175967 -123.03515625 96.37890625 C-126.75774247 100.62621871 -126.99622605 105.22092573 -126.890625 110.6796875 C-126.25381976 114.59057222 -124.67067378 115.75158384 -121.50390625 118.0546875 C-120.79492188 118.29445313 -120.0859375 118.53421875 -119.35546875 118.78125 C-118.74445313 119.20148438 -118.1334375 119.62171875 -117.50390625 120.0546875 C-117.10546875 122.953125 -117.10546875 122.953125 -117.12890625 126.4296875 C-116.93535073 132.37321865 -116.93535073 132.37321865 -115.3984375 134.80078125 C-111.92763214 137.34107579 -108.725753 137.18273921 -104.58203125 136.9296875 C-102.07098425 137.08072792 -100.57406673 137.84818708 -98.37890625 139.0546875 C-94.86224516 140.97411265 -92.58017267 141.74852008 -88.50390625 141.0546875 C-84.72430338 139.42349047 -81.49588277 137.77800811 -79.50390625 134.0546875 C-79.11376909 132.064988 -78.77187976 130.06448881 -78.50390625 128.0546875 C-78.271875 128.126875 -78.271875 128.126875 -77.09765625 128.4921875 C-71.844593 129.90345822 -66.72900402 130.33019122 -61.31640625 130.4296875 C-60.63964844 130.45546875 -59.96289062 130.48125 -59.265625 130.5078125 C-54.13711934 130.52792429 -51.48129509 129.30238997 -47.50390625 126.0546875 C-45.14502661 122.08748084 -45.25448074 118.54434675 -45.50390625 114.0546875 C-45.83390625 113.0646875 -46.16390625 112.0746875 -46.50390625 111.0546875 C-47.16390625 110.7246875 -47.82390625 110.3946875 -48.50390625 110.0546875 C-48.05329342 107.42611268 -47.5588558 105.17428358 -46.44140625 102.7421875 C-44.71076851 97.78102599 -44.73915665 93.71718663 -46.94140625 88.9296875 C-51.06229503 83.61896464 -56.74791149 80.09675289 -63.37890625 79.2421875 C-65.65234375 78.859375 -65.65234375 78.859375 -67.50390625 78.0546875 C-68.56554186 75.88604724 -69.02138271 73.7912932 -69.5625 71.44140625 C-71.08734922 67.57550221 -74.09416683 65.84061873 -77.4453125 63.5625 C-79.50390625 62.0546875 -79.50390625 62.0546875 -80.4453125 60.484375 C-82.1087705 58.23778597 -84.2650197 57.89561615 -86.87890625 57.0546875 C-90.67548408 55.82668389 -93.37436617 54.51558135 -96.50390625 52.0546875 C-99.67973379 51.55846445 -101.95086613 52.09735674 -104.50390625 54.0546875 Z M17.30859375 69.9296875 C14.46489078 73.26368409 10.68890845 73.38664994 6.49609375 74.0546875 C6.44710937 74.663125 6.398125 75.2715625 6.34765625 75.8984375 C6.08711362 78.95307526 5.79502214 82.00355632 5.49609375 85.0546875 C5.46652588 85.37050781 5.46652588 85.37050781 5.31689453 86.96875 C4.54593671 94.9725869 3.52469467 102.23143625 0.3984375 109.72265625 C-0.54194924 112.15300641 -1.06219291 114.49092861 -1.50390625 117.0546875 C-2.16390625 117.0546875 -2.82390625 117.0546875 -3.50390625 117.0546875 C-3.83390625 118.3746875 -4.16390625 119.6946875 -4.50390625 121.0546875 C-2.40019195 121.24975373 -0.29632238 121.43599918 1.80859375 121.6171875 C2.40349609 121.67326172 2.99839844 121.72933594 3.61132812 121.78710938 C6.63904582 122.04082873 8.57172228 122.02947799 11.49609375 121.0546875 C12.12109375 119.53125 12.12109375 119.53125 12.49609375 117.6796875 C13.1331708 114.56066445 13.92556972 113.00024268 16.49609375 111.0546875 C19.26586983 110.09496891 22.01159749 109.32473244 24.84570312 108.59375 C29.15256521 107.39821604 29.15256521 107.39821604 30.890625 105.66015625 C31.59860745 103.78286086 31.69662676 102.36881236 31.62109375 100.3671875 C31.57984375 99.2740625 31.53859375 98.1809375 31.49609375 97.0546875 C30.83609375 97.0546875 30.17609375 97.0546875 29.49609375 97.0546875 C29.4201943 93.33561438 29.46674214 89.90655652 30.12109375 86.2421875 C30.18296875 85.71625 30.18296875 85.71625 30.49609375 83.0546875 C29.83609375 82.3946875 29.17609375 81.7346875 28.49609375 81.0546875 C27.95164448 78.53552935 27.60726814 76.01731953 27.25390625 73.46484375 C26.31061237 70.46478022 25.1687816 69.62685682 22.49609375 68.0546875 C19.65149396 67.45128754 18.90034157 67.41640146 17.30859375 69.9296875 Z " fill="#8b1414" transform="translate(155.50390625,43.9453125)"/>
<path d="M0 0 C0 0.99 0 1.98 0 3 C-1.83694437 4.83694437 -4.87047575 4.65454838 -7.375 5 C-10.68781609 5.46292627 -13.81003826 5.93667942 -17 7 C-17 5.68 -17 4.36 -17 3 C-11.10261508 0.70657253 -6.33393082 -0.34548714 0 0 Z " fill="#8b1414" transform="translate(148,58)"/>
<path d="M0 0 C0.391875 0.1753125 0.391875 0.1753125 2.375 1.0625 C5.43274472 2.12261432 7.69964968 1.86992343 10.875 1.375 C16.26007866 0.69375511 19.63616955 1.83546706 24 5 C27.55610625 8.28255961 28.73274623 11.22818301 29.09765625 15.9453125 C28.86827872 20.77141572 27.04022078 23.98715345 23.625 27.3125 C18.54594105 30.57760933 15.17622137 31.38609204 9.21484375 30.54296875 C4.99419886 29.50827803 2.35029246 27.25716885 -0.8125 24.3125 C-2.65347937 20.72743492 -2.75334693 16.9804703 -3 13 C-3.99 12.67 -4.98 12.34 -6 12 C-5.67 11.01 -5.34 10.02 -5 9 C-4.34 9.165 -4.34 9.165 -1 10 C-1.66 8.35 -2.32 6.7 -3 5 C-2.01 5 -1.02 5 0 5 C-0.0928125 4.6803125 -0.0928125 4.6803125 -0.5625 3.0625 C-0.706875 2.381875 -0.85125 1.70125 -1 1 C-0.67 0.67 -0.34 0.34 0 0 Z M2 10 C0.37895573 13.24208854 0.39484945 16.45460712 1 20 C2.76376689 23.07342962 4.82067597 25.41033799 8 27 C12.09157355 27.51512617 16.23589546 27.94367269 19.95703125 25.953125 C22.6356829 23.73720879 24.71101641 21.83298161 25.2734375 18.265625 C25.47759616 14.21386077 25.25768582 11.76043896 22.625 8.5625 C19.70520854 5.42927349 17.5107061 4.792846 13.25 4.625 C8.0836542 4.65490649 5.26537439 6.02371384 2 10 Z " fill="#8b1414" transform="translate(127,68)"/>
<path d="M0 0 C0.99 0.33 1.98 0.66 3 1 C2.67 2.32 2.34 3.64 2 5 C0.68 4.34 -0.64 3.68 -2 3 C-1.34 2.01 -0.68 1.02 0 0 Z " fill="#8b1414" transform="translate(146,82)"/>
<path d="M0 0 C4.29 0 8.58 0 13 0 C13 0.99 13 1.98 13 3 C7.66787783 4.00146457 4.02788818 4.13685248 -1 2 C-0.67 1.34 -0.34 0.68 0 0 Z " fill="#8b1414" transform="translate(142,120)"/>
</g>
<g filter="url(#glow)">
<path d="M0 0 C5.73093767 4.81512061 10.1068457 9.88694336 12.49609375 17.0546875 C13.90625 18.15234375 13.90625 18.15234375 15.55859375 19.1171875 C17.21875 20.08984375 17.21875 20.08984375 18.49609375 21.0546875 C18.49609375 21.7146875 18.49609375 22.3746875 18.49609375 23.0546875 C17.17609375 23.0546875 15.85609375 23.0546875 14.49609375 23.0546875 C14.82609375 24.0446875 15.15609375 25.0346875 15.49609375 26.0546875 C18.49609375 27.0546875 18.49609375 27.0546875 21.49609375 27.0546875 C23.68359375 28.0546875 23.68359375 28.0546875 25.49609375 29.0546875 C25.16609375 30.0446875 24.83609375 31.0346875 24.49609375 32.0546875 C25.48609375 32.3846875 26.47609375 32.7146875 27.49609375 33.0546875 C27.18671875 33.7353125 26.87734375 34.4159375 26.55859375 35.1171875 C25.69499178 37.50479295 25.31293735 39.15853265 25.05859375 41.6171875 C24.49609375 45.0546875 24.49609375 45.0546875 22.97265625 46.78515625 C20.82628093 50.08421461 21.1669583 52.96237208 21.30859375 56.8046875 C21.32212891 57.50207031 21.33566406 58.19945313 21.34960938 58.91796875 C21.38479925 60.63054291 21.4386022 62.34271691 21.49609375 64.0546875 C22.44871094 64.51488281 23.40132812 64.97507812 24.3828125 65.44921875 C27.34371457 66.87958687 28.94999523 68.04386406 30.49609375 71.0546875 C30.8145993 73.07613608 31.00399986 75.08602954 31.17578125 77.125 C31.49609375 79.0546875 31.49609375 79.0546875 33.12109375 81.3671875 C35.07943808 85.1948605 34.26621331 88.26859556 33.625 92.43359375 C33.4805506 95.37073147 34.10364475 96.53251573 35.49609375 99.0546875 C35.49609375 102.43055224 35.44275151 104.69269768 33.5078125 107.4765625 C30.18118688 110.6559923 26.69368476 111.64615732 22.30859375 112.8671875 C16.87702372 114.49665851 16.87702372 114.49665851 15.16015625 117.01171875 C14.43359375 119.1796875 14.43359375 119.1796875 14.0234375 121.25 C13.49609375 123.0546875 13.49609375 123.0546875 12.19360352 124.14379883 C10.26281164 125.17986736 8.98793973 125.34766872 6.80859375 125.43359375 C6.10992187 125.46775391 5.41125 125.50191406 4.69140625 125.53710938 C3.96695313 125.56353516 3.2425 125.58996094 2.49609375 125.6171875 C1.05843487 125.67730313 -0.37908094 125.74097051 -1.81640625 125.80859375 C-2.45191406 125.83252197 -3.08742188 125.8564502 -3.7421875 125.88110352 C-5.50390625 126.0546875 -5.50390625 126.0546875 -8.50390625 127.0546875 C-8.17777344 127.72113281 -7.85164063 128.38757813 -7.515625 129.07421875 C-1.99370238 140.72075172 0.59749986 151.51282877 0.40698242 164.34741211 C0.37451673 171.33866727 1.41490078 178.16208231 2.49609375 185.0546875 C1.17609375 185.0546875 -0.14390625 185.0546875 -1.50390625 185.0546875 C-2.16390625 180.1046875 -2.82390625 175.1546875 -3.50390625 170.0546875 C-4.82390625 170.0546875 -6.14390625 170.0546875 -7.50390625 170.0546875 C-7.17390625 172.5296875 -7.17390625 172.5296875 -5.50390625 185.0546875 C-6.82390625 185.0546875 -8.14390625 185.0546875 -9.50390625 185.0546875 C-10.01495173 181.43115756 -10.51066458 177.80568031 -11.00390625 174.1796875 C-11.14699219 173.16648438 -11.29007812 172.15328125 -11.4375 171.109375 C-12.29859783 164.71264827 -12.69712053 158.50768676 -12.50390625 152.0546875 C-11.51390625 152.3846875 -10.52390625 152.7146875 -9.50390625 153.0546875 C-8.38444495 155.9460961 -8.39622428 158.73231362 -8.44140625 161.8046875 C-8.45042969 162.60390625 -8.45945312 163.403125 -8.46875 164.2265625 C-8.48035156 164.82984375 -8.49195313 165.433125 -8.50390625 166.0546875 C-6.85390625 166.0546875 -5.20390625 166.0546875 -3.50390625 166.0546875 C-4.02116155 153.99728802 -5.90377451 143.19656547 -10.734375 132.015625 C-11.50390625 130.0546875 -11.50390625 130.0546875 -11.50390625 128.0546875 C-12.13296875 128.6321875 -12.76203125 129.2096875 -13.41015625 129.8046875 C-21.277655 136.62950569 -21.277655 136.62950569 -25.62890625 136.7421875 C-33.15997847 135.86507467 -39.31901021 132.21633298 -45.50390625 128.0546875 C-46.22578125 128.6734375 -46.94765625 129.2921875 -47.69140625 129.9296875 C-53.27531043 134.71589109 -59.52736816 134.53710769 -66.50390625 134.0546875 C-69.87729822 133.53432384 -73.18767466 132.86036632 -76.50390625 132.0546875 C-76.60316406 132.81265625 -76.70242187 133.570625 -76.8046875 134.3515625 C-77.92095026 138.66694702 -80.83916797 140.71580981 -84.50390625 143.0546875 C-86.62600962 143.7651308 -88.24591492 143.94454158 -90.50390625 144.0546875 C-92.77249452 151.32704139 -94.71035819 158.65153167 -96.50390625 166.0546875 C-87.81541238 166.71130782 -79.22476511 167.17415132 -70.50390625 167.0546875 C-69.51390625 162.1046875 -68.52390625 157.1546875 -67.50390625 152.0546875 C-66.51390625 152.0546875 -65.52390625 152.0546875 -64.50390625 152.0546875 C-65.51917343 167.06995468 -65.51917343 167.06995468 -69.50390625 171.0546875 C-70.12673689 173.43744324 -70.66077208 175.76736347 -71.12890625 178.1796875 C-71.26296875 178.83839844 -71.39703125 179.49710938 -71.53515625 180.17578125 C-71.86485439 181.8007221 -72.18527433 183.42754051 -72.50390625 185.0546875 C-73.49390625 185.0546875 -74.48390625 185.0546875 -75.50390625 185.0546875 C-75.60505951 180.09817774 -75.22615911 176.1104575 -74.50390625 171.0546875 C-80.44390625 171.0546875 -86.38390625 171.0546875 -92.50390625 171.0546875 C-92.99890625 173.3646875 -92.99890625 173.3646875 -95.50390625 185.0546875 C-96.82390625 185.0546875 -98.14390625 185.0546875 -99.50390625 185.0546875 C-99.33632812 183.92289063 -99.16875 182.79109375 -98.99609375 181.625 C-98.7897825 180.1433101 -98.58408508 178.66153464 -98.37890625 177.1796875 C-98.26675781 176.43332031 -98.15460938 175.68695313 -98.0390625 174.91796875 C-97.94238281 174.20253906 -97.84570312 173.48710937 -97.74609375 172.75 C-97.65183105 172.09016113 -97.55756836 171.43032227 -97.46044922 170.75048828 C-97.50390625 169.0546875 -97.50390625 169.0546875 -99.50390625 167.0546875 C-100.01499003 161.42566751 -98.79900404 156.9200034 -97.00390625 151.6171875 C-96.76542969 150.88564453 -96.52695313 150.15410156 -96.28125 149.40039062 C-95.69794453 147.6154759 -95.1022069 145.83463193 -94.50390625 144.0546875 C-95.45265625 143.7453125 -96.40140625 143.4359375 -97.37890625 143.1171875 C-100.50390625 142.0546875 -100.50390625 142.0546875 -102.50390625 141.0546875 C-104.06575425 140.97759445 -105.62846475 140.91745055 -107.19140625 140.8671875 C-112.12448806 140.43107447 -114.65688813 138.96789505 -118.2265625 135.625 C-119.87621578 133.59698587 -120.58938851 131.89132237 -120.3203125 129.2578125 C-120.23652344 128.61328125 -120.15273437 127.96875 -120.06640625 127.3046875 C-119.99637042 124.3631826 -120.19462439 123.39298666 -122.2109375 121.1875 C-123.6603266 120.01231965 -125.11879518 118.84825266 -126.5859375 117.6953125 C-129.31673827 115.35939331 -130.00801984 113.59673332 -130.50390625 110.0546875 C-130.56049398 103.88662545 -129.23957644 98.99666786 -125.50390625 94.0546875 C-125.12234375 93.7040625 -125.12234375 93.7040625 -123.19140625 91.9296875 C-122.63453125 91.3109375 -122.07765625 90.6921875 -121.50390625 90.0546875 C-121.65420422 87.19902606 -122.49631711 85.07343713 -123.56640625 82.4296875 C-125.12551889 77.75234959 -125.31776271 72.89573022 -124.50390625 68.0546875 C-122.1485032 63.75684167 -119.03420447 60.92166587 -114.50390625 59.0546875 C-111.25390625 58.9296875 -111.25390625 58.9296875 -108.50390625 59.0546875 C-108.60703125 58.1471875 -108.71015625 57.2396875 -108.81640625 56.3046875 C-108.50390625 53.0546875 -108.50390625 53.0546875 -106.25390625 50.6796875 C-103.46425062 49.03125462 -102.58412047 48.88356449 -99.50390625 49.0546875 C-99.29894531 48.41660156 -99.09398438 47.77851562 -98.8828125 47.12109375 C-98.61339844 46.29480469 -98.34398437 45.46851563 -98.06640625 44.6171875 C-97.79957031 43.79347656 -97.53273437 42.96976563 -97.2578125 42.12109375 C-96.50390625 40.0546875 -96.50390625 40.0546875 -95.50390625 39.0546875 C-95.09934733 34.28327203 -95.60482433 29.68159568 -96.578125 25.01171875 C-96.46820918 22.11341222 -95.06553351 20.4910994 -93.50390625 18.0546875 C-92.81888531 16.74114747 -92.14812166 15.42011788 -91.48828125 14.09375 C-85.13301634 1.46143446 -79.46376033 -7.07575997 -65.50390625 -11.9453125 C-41.7599634 -19.23056468 -19.57354908 -15.20690709 0 0 Z M-79.46875 -0.16796875 C-81.0616996 1.83061258 -82.28012891 3.80925821 -83.50390625 6.0546875 C-83.79346191 6.57466309 -84.08301758 7.09463867 -84.38134766 7.63037109 C-85.9578037 10.46637923 -87.49511049 13.31851182 -88.98828125 16.19921875 C-90.50390625 19.0546875 -90.50390625 19.0546875 -91.6953125 20.74609375 C-94.13596392 24.69594024 -92.22145042 31.59938341 -91.52734375 35.94140625 C-91.49906525 38.49118446 -92.31176423 39.83546928 -93.50390625 42.0546875 C-93.35252869 45.15792757 -92.98459183 46.55619875 -90.81640625 48.8046875 C-88.05407565 50.29783918 -85.60704353 50.70205826 -82.50390625 51.0546875 C-82.09140625 50.2709375 -81.67890625 49.4871875 -81.25390625 48.6796875 C-79.37196168 45.85677065 -78.73900361 44.92903814 -75.50390625 44.0546875 C-69.23567589 43.94071968 -64.02105241 46.30888559 -58.50390625 49.0546875 C-58.21257812 48.00410156 -57.92125 46.95351562 -57.62109375 45.87109375 C-55.29138525 37.77115862 -53.00701188 30.62027392 -47.50390625 24.0546875 C-47.00375 23.43335938 -46.50359375 22.81203125 -45.98828125 22.171875 C-38.07790278 13.30149914 -26.08675229 9.20813049 -14.50390625 8.0546875 C-8.83438644 7.76677745 -3.17505177 7.86931107 2.49609375 8.0546875 C-5.24863808 -2.58644811 -18.2483114 -8.61956749 -30.94140625 -11.2578125 C-47.10933609 -13.66678772 -66.76300722 -11.66123508 -79.46875 -0.16796875 Z M-29.50390625 14.0546875 C-30.22191406 14.32152344 -30.93992188 14.58835937 -31.6796875 14.86328125 C-40.76215385 18.83134907 -47.72714947 25.95910717 -51.50390625 35.0546875 C-53.33110516 40.00329719 -54.94397877 45.01645365 -56.50390625 50.0546875 C-59.26654914 50.65201569 -61.66423394 51.0546875 -64.50390625 51.0546875 C-64.27703125 51.7765625 -64.05015625 52.4984375 -63.81640625 53.2421875 C-63.41607048 56.84520947 -64.36475508 58.20248595 -66.50390625 61.0546875 C-66.83390625 61.2196875 -66.83390625 61.2196875 -68.50390625 62.0546875 C-68.33890625 61.6009375 -68.33890625 61.6009375 -67.50390625 59.3046875 C-66.66960328 56.59320283 -66.29069059 54.82649109 -66.50390625 52.0546875 C-69.14849004 50.73239561 -71.18151926 50.95791556 -74.12890625 50.9921875 C-74.63035156 50.99669922 -74.63035156 50.99669922 -77.16796875 51.01953125 C-77.93882813 51.03113281 -78.7096875 51.04273438 -79.50390625 51.0546875 C-80.68359375 55.6875 -80.68359375 55.6875 -79.06640625 58.9921875 C-77.18943635 61.56481757 -75.04757749 63.18421631 -72.44140625 64.9921875 C-69.52048423 67.02668711 -68.14238913 68.26009417 -67.12890625 71.6796875 C-66.2689538 74.2044197 -65.83603448 74.88113177 -63.42578125 76.140625 C-61.69049629 76.76341132 -59.95065232 77.37360515 -58.20703125 77.97265625 C-51.98808999 80.46203014 -46.04278947 85.07241357 -43.01953125 91.16015625 C-41.82396453 95.5529582 -42.55388697 100.16501278 -44.578125 104.19140625 C-45.50390625 106.0546875 -45.50390625 106.0546875 -45.19140625 108.1796875 C-44.50390625 110.0546875 -44.50390625 110.0546875 -43.50390625 112.0546875 C-43.66508147 114.13845287 -43.83270361 116.22172202 -44.00390625 118.3046875 C-44.16182891 121.93342154 -44.11197215 124.36262074 -41.609375 127.2109375 C-36.40102106 130.64390746 -31.31056174 132.66743627 -25.03515625 132.5859375 C-19.80535619 131.48832514 -16.25043456 127.66223169 -12.50390625 124.0546875 C-12.13523438 123.70599609 -12.13523438 123.70599609 -10.26953125 121.94140625 C1.75566198 109.57715682 2.78296307 94.1532404 2.56640625 77.859375 C2.54436179 76.59112085 2.52148102 75.32287913 2.49609375 74.0546875 C2.02824463 74.01972168 2.02824463 74.01972168 -0.33935547 73.84277344 C-42.35609916 70.65315396 -42.35609916 70.65315396 -51.77734375 65.91015625 C-54.24590572 64.68704523 -55.92441194 65.3381613 -58.50390625 66.0546875 C-58.50390625 65.0646875 -58.50390625 64.0746875 -58.50390625 63.0546875 C-55.69140625 61.4921875 -55.69140625 61.4921875 -52.50390625 60.0546875 C-52.00890625 60.2196875 -52.00890625 60.2196875 -49.50390625 61.0546875 C-50.16390625 61.7146875 -50.82390625 62.3746875 -51.50390625 63.0546875 C-46.93166813 65.14302527 -42.59595514 66.74219658 -37.62890625 67.6171875 C-36.94127197 67.73868164 -36.2536377 67.86017578 -35.54516602 67.98535156 C-27.23131031 69.29920596 -18.83421347 69.7801801 -10.44140625 70.3046875 C-9.71576477 70.35174835 -8.99012329 70.3988092 -8.24249268 70.44729614 C10.58355636 71.63970294 10.58355636 71.63970294 15.484375 68.97265625 C17.12010632 65.87171387 16.80892834 62.8090681 16.68359375 59.3671875 C16.67005859 58.66529297 16.65652344 57.96339844 16.64257812 57.24023438 C16.60729557 55.51138921 16.55348958 53.78293985 16.49609375 52.0546875 C14.51609375 52.0546875 12.53609375 52.0546875 10.49609375 52.0546875 C10.16609375 54.3646875 9.83609375 56.6746875 9.49609375 59.0546875 C6.80859375 60.2421875 6.80859375 60.2421875 3.49609375 61.0546875 C0.62109375 59.8671875 0.62109375 59.8671875 -1.50390625 58.0546875 C-1.50390625 57.0646875 -1.50390625 56.0746875 -1.50390625 55.0546875 C-0.94703125 55.5703125 -0.39015625 56.0859375 0.18359375 56.6171875 C2.49609375 58.0546875 2.49609375 58.0546875 5.24609375 57.7421875 C5.98859375 57.5153125 6.73109375 57.2884375 7.49609375 57.0546875 C7.33109375 56.2915625 7.16609375 55.5284375 6.99609375 54.7421875 C6.49609375 52.0546875 6.49609375 52.0546875 6.49609375 49.0546875 C6.00979214 47.79085282 5.48517894 46.5414256 4.93359375 45.3046875 C3.27665217 40.98395467 3.15109101 38.51000906 4.49609375 34.0546875 C6.42214296 31.45754101 8.58083572 29.51231651 11.49609375 28.0546875 C11.33109375 26.8996875 11.33109375 26.8996875 10.49609375 21.0546875 C8.84609375 20.3946875 7.19609375 19.7346875 5.49609375 19.0546875 C6.15609375 17.4046875 6.81609375 15.7546875 7.49609375 14.0546875 C5.83623003 12.02659921 4.94758597 11.13546534 2.32641602 10.66650391 C1.49682373 10.66312012 0.66723145 10.65973633 -0.1875 10.65625 C-1.10966309 10.65012695 -2.03182617 10.64400391 -2.98193359 10.63769531 C-3.95855957 10.65155273 -4.93518555 10.66541016 -5.94140625 10.6796875 C-6.9360791 10.68838867 -7.93075195 10.69708984 -8.95556641 10.70605469 C-16.20552246 10.85050914 -22.66946422 11.47922892 -29.50390625 14.0546875 Z M8.05859375 33.1171875 C6.15651515 36.69309527 5.77368263 39.0994866 6.49609375 43.0546875 C7.55859375 45.9296875 7.55859375 45.9296875 9.49609375 48.0546875 C11.89703292 49.12177157 13.89423863 49.47030112 16.49609375 49.0546875 C18.63510581 47.59845236 19.84632266 46.10440309 21.49609375 44.0546875 C21.16609375 43.0646875 20.83609375 42.0746875 20.49609375 41.0546875 C19.17609375 41.0546875 17.85609375 41.0546875 16.49609375 41.0546875 C16.82609375 40.3946875 17.15609375 39.7346875 17.49609375 39.0546875 C18.81609375 39.0546875 20.13609375 39.0546875 21.49609375 39.0546875 C21.14596588 36.46374128 20.7583841 34.4772664 19.37109375 32.2421875 C17.02151259 30.75411943 14.9778024 30.50989555 12.21484375 30.64453125 C10.49609375 31.0546875 10.49609375 31.0546875 8.05859375 33.1171875 Z M-104.50390625 54.0546875 C-104.68953125 55.1890625 -104.87515625 56.3234375 -105.06640625 57.4921875 C-105.484375 59.38671875 -105.484375 59.38671875 -106.50390625 61.0546875 C-109.25271829 62.1303096 -111.97818578 62.7014171 -114.859375 63.33203125 C-117.50390625 64.0546875 -117.50390625 64.0546875 -120.19140625 66.2421875 C-123.12630101 72.53124771 -121.41419908 77.75657732 -119.1953125 84.02734375 C-118.28682907 86.69120194 -117.84671491 88.2798796 -118.50390625 91.0546875 C-119.92439099 92.92260321 -121.45796107 94.64175967 -123.03515625 96.37890625 C-126.75774247 100.62621871 -126.99622605 105.22092573 -126.890625 110.6796875 C-126.25381976 114.59057222 -124.67067378 115.75158384 -121.50390625 118.0546875 C-120.79492188 118.29445313 -120.0859375 118.53421875 -119.35546875 118.78125 C-118.74445313 119.20148438 -118.1334375 119.62171875 -117.50390625 120.0546875 C-117.10546875 122.953125 -117.10546875 122.953125 -117.12890625 126.4296875 C-116.93535073 132.37321865 -116.93535073 132.37321865 -115.3984375 134.80078125 C-111.92763214 137.34107579 -108.725753 137.18273921 -104.58203125 136.9296875 C-102.07098425 137.08072792 -100.57406673 137.84818708 -98.37890625 139.0546875 C-94.86224516 140.97411265 -92.58017267 141.74852008 -88.50390625 141.0546875 C-84.72430338 139.42349047 -81.49588277 137.77800811 -79.50390625 134.0546875 C-79.11376909 132.064988 -78.77187976 130.06448881 -78.50390625 128.0546875 C-78.271875 128.126875 -78.271875 128.126875 -77.09765625 128.4921875 C-71.844593 129.90345822 -66.72900402 130.33019122 -61.31640625 130.4296875 C-60.63964844 130.45546875 -59.96289062 130.48125 -59.265625 130.5078125 C-54.13711934 130.52792429 -51.48129509 129.30238997 -47.50390625 126.0546875 C-45.14502661 122.08748084 -45.25448074 118.54434675 -45.50390625 114.0546875 C-45.83390625 113.0646875 -46.16390625 112.0746875 -46.50390625 111.0546875 C-47.16390625 110.7246875 -47.82390625 110.3946875 -48.50390625 110.0546875 C-48.05329342 107.42611268 -47.5588558 105.17428358 -46.44140625 102.7421875 C-44.71076851 97.78102599 -44.73915665 93.71718663 -46.94140625 88.9296875 C-51.06229503 83.61896464 -56.74791149 80.09675289 -63.37890625 79.2421875 C-65.65234375 78.859375 -65.65234375 78.859375 -67.50390625 78.0546875 C-68.56554186 75.88604724 -69.02138271 73.7912932 -69.5625 71.44140625 C-71.08734922 67.57550221 -74.09416683 65.84061873 -77.4453125 63.5625 C-79.50390625 62.0546875 -79.50390625 62.0546875 -80.4453125 60.484375 C-82.1087705 58.23778597 -84.2650197 57.89561615 -86.87890625 57.0546875 C-90.67548408 55.82668389 -93.37436617 54.51558135 -96.50390625 52.0546875 C-99.67973379 51.55846445 -101.95086613 52.09735674 -104.50390625 54.0546875 Z M17.30859375 69.9296875 C14.46489078 73.26368409 10.68890845 73.38664994 6.49609375 74.0546875 C6.44710937 74.663125 6.398125 75.2715625 6.34765625 75.8984375 C6.08711362 78.95307526 5.79502214 82.00355632 5.49609375 85.0546875 C5.46652588 85.37050781 5.46652588 85.37050781 5.31689453 86.96875 C4.54593671 94.9725869 3.52469467 102.23143625 0.3984375 109.72265625 C-0.54194924 112.15300641 -1.06219291 114.49092861 -1.50390625 117.0546875 C-2.16390625 117.0546875 -2.82390625 117.0546875 -3.50390625 117.0546875 C-3.83390625 118.3746875 -4.16390625 119.6946875 -4.50390625 121.0546875 C-2.40019195 121.24975373 -0.29632238 121.43599918 1.80859375 121.6171875 C2.40349609 121.67326172 2.99839844 121.72933594 3.61132812 121.78710938 C6.63904582 122.04082873 8.57172228 122.02947799 11.49609375 121.0546875 C12.12109375 119.53125 12.12109375 119.53125 12.49609375 117.6796875 C13.1331708 114.56066445 13.92556972 113.00024268 16.49609375 111.0546875 C19.26586983 110.09496891 22.01159749 109.32473244 24.84570312 108.59375 C29.15256521 107.39821604 29.15256521 107.39821604 30.890625 105.66015625 C31.59860745 103.78286086 31.69662676 102.36881236 31.62109375 100.3671875 C31.57984375 99.2740625 31.53859375 98.1809375 31.49609375 97.0546875 C30.83609375 97.0546875 30.17609375 97.0546875 29.49609375 97.0546875 C29.4201943 93.33561438 29.46674214 89.90655652 30.12109375 86.2421875 C30.18296875 85.71625 30.18296875 85.71625 30.49609375 83.0546875 C29.83609375 82.3946875 29.17609375 81.7346875 28.49609375 81.0546875 C27.95164448 78.53552935 27.60726814 76.01731953 27.25390625 73.46484375 C26.31061237 70.46478022 25.1687816 69.62685682 22.49609375 68.0546875 C19.65149396 67.45128754 18.90034157 67.41640146 17.30859375 69.9296875 Z " fill="#c81e1e" transform="translate(155.50390625,43.9453125)"/>
<path d="M0 0 C0 0.99 0 1.98 0 3 C-1.83694437 4.83694437 -4.87047575 4.65454838 -7.375 5 C-10.68781609 5.46292627 -13.81003826 5.93667942 -17 7 C-17 5.68 -17 4.36 -17 3 C-11.10261508 0.70657253 -6.33393082 -0.34548714 0 0 Z " fill="#c81e1e" transform="translate(148,58)"/>
<path d="M0 0 C0.391875 0.1753125 0.391875 0.1753125 2.375 1.0625 C5.43274472 2.12261432 7.69964968 1.86992343 10.875 1.375 C16.26007866 0.69375511 19.63616955 1.83546706 24 5 C27.55610625 8.28255961 28.73274623 11.22818301 29.09765625 15.9453125 C28.86827872 20.77141572 27.04022078 23.98715345 23.625 27.3125 C18.54594105 30.57760933 15.17622137 31.38609204 9.21484375 30.54296875 C4.99419886 29.50827803 2.35029246 27.25716885 -0.8125 24.3125 C-2.65347937 20.72743492 -2.75334693 16.9804703 -3 13 C-3.99 12.67 -4.98 12.34 -6 12 C-5.67 11.01 -5.34 10.02 -5 9 C-4.34 9.165 -4.34 9.165 -1 10 C-1.66 8.35 -2.32 6.7 -3 5 C-2.01 5 -1.02 5 0 5 C-0.0928125 4.6803125 -0.0928125 4.6803125 -0.5625 3.0625 C-0.706875 2.381875 -0.85125 1.70125 -1 1 C-0.67 0.67 -0.34 0.34 0 0 Z M2 10 C0.37895573 13.24208854 0.39484945 16.45460712 1 20 C2.76376689 23.07342962 4.82067597 25.41033799 8 27 C12.09157355 27.51512617 16.23589546 27.94367269 19.95703125 25.953125 C22.6356829 23.73720879 24.71101641 21.83298161 25.2734375 18.265625 C25.47759616 14.21386077 25.25768582 11.76043896 22.625 8.5625 C19.70520854 5.42927349 17.5107061 4.792846 13.25 4.625 C8.0836542 4.65490649 5.26537439 6.02371384 2 10 Z " fill="#c81e1e" transform="translate(127,68)"/>
<path d="M0 0 C0.99 0.33 1.98 0.66 3 1 C2.67 2.32 2.34 3.64 2 5 C0.68 4.34 -0.64 3.68 -2 3 C-1.34 2.01 -0.68 1.02 0 0 Z " fill="#c81e1e" transform="translate(146,82)"/>
<path d="M0 0 C4.29 0 8.58 0 13 0 C13 0.99 13 1.98 13 3 C7.66787783 4.00146457 4.02788818 4.13685248 -1 2 C-0.67 1.34 -0.34 0.68 0 0 Z " fill="#c81e1e" transform="translate(142,120)"/>
</g>
</g>
</svg>
