<?xml version="1.0" encoding="UTF-8"?>
<svg version="1.1" xmlns="http://www.w3.org/2000/svg" width="229" height="229" viewBox="0 0 229 229">
<defs>
<filter id="glow">
<feGaussianBlur stdDeviation="4" result="blur"/>
<feMerge>
<feMergeNode in="blur"/>
<feMergeNode in="blur"/>
<feMergeNode in="SourceGraphic"/>
</feMerge>
</filter>
</defs>
<g transform="translate(22.9,22.9) scale(0.8)">
<g transform="translate(2,2)">
<path d="M0 0 C1.59353922 1.49754288 3.06748265 3.06242618 4.546875 4.671875 C6.82027829 6.74971671 9.03613425 7.29431768 12 8 C12.33 6.68 12.66 5.36 13 4 C13.556875 4.28875 14.11375 4.5775 14.6875 4.875 C17 6 17 6 19.4375 6.5625 C25.01652999 9.69219975 27.32633262 17.06608839 29 23 C29.66 22.34 30.32 21.68 31 21 C31.99 21 32.98 21 34 21 C34.19398038 25.65552912 34.21590171 29.7294342 32.75 34.1875 C32.1953125 36.17578125 32.1953125 36.17578125 32 38 C33.625 40.875 33.625 40.875 34.77734375 42.28515625 C36.86339286 45.21095676 37.91279248 48.58031144 39.16796875 51.92578125 C40 54 40 54 41 55 C41.36977428 57.70359556 41.41722289 60.30159741 41 63 C39 65 39 65 37 66 C37.33 66.495 37.66 66.99 38 67.5 C39.39184001 70.97960002 39.34527342 74.29031816 39 78 C38.67 78.66 38.34 79.32 38 80 C37.87320787 81.26845631 37.79832215 82.54240277 37.75390625 83.81640625 C37.72256592 84.57614746 37.69122559 85.33588867 37.65893555 86.11865234 C37.62711182 86.92512207 37.59528809 87.7315918 37.5625 88.5625 C37.08440834 98.33703119 35.32085113 106.49169861 32 115.71484375 C30.93898926 119.20042981 30.23965579 122.65722144 29.55371094 126.23168945 C28.55411683 131.22921924 27.32603086 136.17275198 26.125 141.125 C25.86251465 142.21651367 25.6000293 143.30802734 25.32958984 144.43261719 C24.15573387 149.29891429 22.96889713 154.16050637 21.71875 159.0078125 C21.5316748 159.73597168 21.34459961 160.46413086 21.15185547 161.21435547 C20.81271029 162.52473198 20.46838934 163.83378545 20.11767578 165.14111328 C19.24769009 168.4965048 18.65825291 171.5337081 19 175 C20.6034526 176.92414312 22.11453055 178.37663617 24 180 C25.58549874 181.41424278 27.16860083 182.83117458 28.75 184.25 C29.18143311 184.63567139 29.61286621 185.02134277 30.05737305 185.41870117 C37.14998448 191.78803134 44.06620308 198.52074472 50 206 C50 206.33 50 206.66 50 207 C37.13 207 24.26 207 11 207 C11.33 198.75 11.66 190.5 12 182 C8.7 183.98 5.4 185.96 2 188 C-1.95116077 189.84273225 -5.94147509 191.3954669 -10 193 C-9.67 195.31 -9.67 195.31 -8 207 C-14.27 207 -20.54 207 -27 207 C-26.01 202.05 -25.02 197.1 -24 192 C-25.27875 191.9175 -26.5575 191.835 -27.875 191.75 C-36.33502649 190.79226115 -43.42658673 187.31096966 -50 182 C-49.93765583 183.73005058 -49.84838103 185.45912418 -49.75 187.1875 C-49.70359375 188.15042969 -49.6571875 189.11335937 -49.609375 190.10546875 C-48.70698847 195.87264417 -46.71668099 201.42078678 -45 207 C-59.19 207 -73.38 207 -88 207 C-84.30734767 202.07646355 -80.79038864 197.45474643 -76.625 193 C-76.15167236 192.48945068 -75.67834473 191.97890137 -75.19067383 191.45288086 C-64.66259988 180.15259395 -64.66259988 180.15259395 -59.4375 176.4375 C-59.0353125 176.0353125 -59.0353125 176.0353125 -57 174 C-57.22528396 168.56005502 -58.89428876 164.61406303 -61.4375 159.875 C-62.15695744 158.48541359 -62.87428989 157.09472555 -63.58984375 155.703125 C-63.9751123 154.95740234 -64.36038086 154.21167969 -64.75732422 153.44335938 C-67.08117959 148.87417577 -69.28969451 144.249895 -71.5 139.625 C-71.94529053 138.70315918 -72.39058105 137.78131836 -72.84936523 136.83154297 C-73.05468872 136.40172119 -73.05468872 136.40172119 -74.09375 134.2265625 C-74.46177734 133.45908691 -74.82980469 132.69161133 -75.20898438 131.90087891 C-76 130 -76 130 -76 128 C-76.825 127.979375 -77.65 127.95875 -78.5 127.9375 C-83.41589137 127.10845419 -86.76290285 123.57295492 -90 120 C-93.28564306 115.24072966 -93.97190322 109.64726925 -93 104 C-91.8893788 101.65375262 -90.66398387 100.02798034 -89 98 C-89.61875 97.71125 -90.2375 97.4225 -90.875 97.125 C-93 96 -93 96 -95 94 C-95.13071575 89.16351708 -93.68056088 84.48149569 -92 80 C-93.051875 79.9175 -94.10375 79.835 -95.1875 79.75 C-99.17574799 79.20688493 -101.10194348 77.72241673 -104 75 C-103.67 74.01 -103.34 73.02 -103 72 C-102.505 71.835 -102.505 71.835 -100 71 C-100.20625 70.05125 -100.4125 69.1025 -100.625 68.125 C-101.32036359 63.18791852 -100.21112176 58.78036884 -99 54 C-98.78085938 53.12472656 -98.56171875 52.24945313 -98.3359375 51.34765625 C-96.54314705 44.79707575 -94.06989486 40.37872483 -89.625 35.25 C-87.39134307 32.65320253 -85.71275002 29.90187504 -84 26.9375 C-81.69069697 22.9914487 -79.51447789 19.92873158 -76 17 C-75.34 17 -74.68 17 -74 17 C-74.33 16.01 -74.66 15.02 -75 14 C-75.64526138 7.70870154 -74.61766747 2.71835691 -72 -3 C-70.68 -3 -69.36 -3 -68 -3 C-67.01 0.63 -66.02 4.26 -65 8 C-64.11699219 7.46890625 -63.23398438 6.9378125 -62.32421875 6.390625 C-44.16754319 -4.37058246 -19.44513238 -12.79828246 0 0 Z M-74 50 C-74.05842731 52.89574753 -74.09373846 55.79134182 -74.125 58.6875 C-74.14175781 59.50412109 -74.15851563 60.32074219 -74.17578125 61.16210938 C-74.21210647 65.64827434 -73.91882663 68.87161544 -72 73 C-71.5859375 75.45703125 -71.5859375 75.45703125 -71.375 77.8125 C-71.30023438 78.60269531 -71.22546875 79.39289063 -71.1484375 80.20703125 C-71.09945312 80.79871094 -71.05046875 81.39039062 -71 82 C-58.40030431 81.81245379 -58.40030431 81.81245379 -55.02734375 79.85546875 C-53.75 78.5 -53.75 78.5 -52 76 C-48.29712287 74.14856144 -44.04094612 74.5296908 -40 75 C-37.2412793 76.21141428 -35.14122175 77.85877825 -33 80 C-31.44785727 80.09932814 -29.89125389 80.13080045 -28.3359375 80.1328125 C-27.85705078 80.13345703 -27.85705078 80.13345703 -25.43359375 80.13671875 C-24.92892578 80.13478516 -24.92892578 80.13478516 -22.375 80.125 C-21.88193359 80.12693359 -21.88193359 80.12693359 -19.38671875 80.13671875 C-5.59758384 80.11830869 -5.59758384 80.11830869 -2.3984375 77.87890625 C-2.06070313 77.44449219 -1.72296875 77.01007813 -1.375 76.5625 C1.175881 73.81023366 2.34666618 72.74727283 6 72 C11.26246809 72.54797693 14.80441916 73.81714557 19 77 C20.99923848 77.05518601 23.00088566 77.05951355 25 77 C24.97704297 74.26901376 24.89954481 71.54213597 24.8125 68.8125 C24.80669922 68.04357422 24.80089844 67.27464844 24.79492188 66.48242188 C24.64212166 62.52659403 24.40189272 59.89063697 21.60546875 56.9453125 C19 55 19 55 16.5 55.0625 C14 56 14 56 11.77734375 57.046875 C8.48020216 58.17838351 5.50085305 58.25782154 2.0625 58.1875 C1.46759766 58.18685547 0.87269531 58.18621094 0.25976562 58.18554688 C-2.62276952 58.15719407 -5.25805222 57.94708296 -8.0859375 57.3671875 C-11.58618896 56.92613705 -13.4268909 57.6445749 -16.6875 58.9375 C-32.22506744 64.3005702 -49.10120259 61.18450308 -63.65625 54.33203125 C-65.7303021 53.31491059 -67.74803272 52.24488447 -69.77734375 51.13671875 C-72 50 -72 50 -74 50 Z M27 61 C27.14063768 63.29209497 27.28727647 65.58353064 27.4375 67.875 C27.47681641 68.52597656 27.51613281 69.17695312 27.55664062 69.84765625 C27.88671875 74.7734375 27.88671875 74.7734375 29 77 C31.31 77 33.62 77 36 77 C36.52853461 71.71465387 35.32832469 67.23431565 32 63 C29.35546875 61.765625 29.35546875 61.765625 27 61 Z M-80.3125 73.8125 C-82.37470931 75.68934219 -84.10030742 77.05143584 -86.59765625 78.33203125 C-90.53635535 81.06670526 -90.85440826 84.60765224 -91.81640625 89.11328125 C-92 92 -92 92 -91.27734375 93.79296875 C-89.08608347 96.08287097 -86.75679674 97.1118735 -83.875 98.4375 C-80.12875192 100.47350439 -79.55141014 102.12147466 -78 106 C-77.34 106 -76.68 106 -76 106 C-74.86510599 101.20822528 -75.16222971 97.04972648 -75.74609375 92.171875 C-76 90 -76 90 -76 88 C-77.65 87.67 -79.3 87.34 -81 87 C-81 86.01 -81 85.02 -81 84 C-78.69 83.34 -76.38 82.68 -74 82 C-73.9728351 80.72928624 -73.95352941 79.458403 -73.9375 78.1875 C-73.92589844 77.47980469 -73.91429688 76.77210937 -73.90234375 76.04296875 C-74 74 -74 74 -75 71 C-77.70240066 71 -78.33862222 72.01368898 -80.3125 73.8125 Z M-1 78 C2.63689786 79.21530003 6.00003797 78.92101285 9.75 78.5625 C10.35199219 78.51029297 10.95398438 78.45808594 11.57421875 78.40429688 C13.05000858 78.27545808 14.52508918 78.13853931 16 78 C12.49048044 75.04543788 10.44580749 74.54481395 5.97265625 74.6953125 C3.18069741 75.12654575 1.23638882 76.32270839 -1 78 Z M-52 79 C-52 79.33 -52 79.66 -52 80 C-47.05 80 -42.1 80 -37 80 C-42.09691235 76.17731574 -46.40008143 75.41605211 -52 79 Z M-4 85 C-4.04641965 89.49342242 -3.56091773 93.09092644 -1.1875 96.9375 C2.09061149 100.02829084 3.86037287 100.87337476 8.375 101.375 C12.31243106 101.25645369 15.22810503 99.78047669 18 97 C20.01149655 93.85745993 20.22216795 91.44238198 20.125 87.75 C20.11597656 87.30398437 20.11597656 87.30398437 20.0703125 85.046875 C20.04710937 84.37140625 20.02390625 83.6959375 20 83 C-1.65979381 82.65979381 -1.65979381 82.65979381 -4 85 Z M23 83 C23.04640625 83.56847656 23.0928125 84.13695313 23.140625 84.72265625 C23.4117473 90.52273691 22.75623326 94.46904364 19 99 C15.72273027 102.46161615 12.65610966 103.26922863 7.9375 103.4375 C3.88819266 103.28481119 1.23795213 102.5903617 -2 100 C-1.75 102.375 -1.75 102.375 -1 105 C2.36439326 107.3938952 5.78122581 107.23839355 9.75 107.125 C10.05099609 107.12048828 10.05099609 107.12048828 11.57421875 107.09765625 C13.0496524 107.07423667 14.52487944 107.03837019 16 107 C16.33 107.66 16.66 108.32 17 109 C15.25021843 109.16894443 13.50016388 109.33506309 11.75 109.5 C10.77546875 109.5928125 9.8009375 109.685625 8.796875 109.78125 C6.51204262 109.95995197 4.28913829 110.04360263 2 110 C2.95745988 112.61125422 3.65621688 113.79164659 6.0625 115.25 C12.97878351 117.01585962 18.22493443 116.42905415 24.46875 112.97265625 C26 112 26 112 27 111 C27.09930006 109.43611767 27.13079998 107.86781169 27.1328125 106.30078125 C27.13410156 105.33849609 27.13539063 104.37621094 27.13671875 103.38476562 C27.13478516 102.8778418 27.13478516 102.8778418 27.125 100.3125 C27.12886719 99.31798828 27.13273437 98.32347656 27.13671875 97.29882812 C27.13021927 92.41446633 27.0264505 87.7819559 26 83 C25.01 83 24.02 83 23 83 Z M29 83 C29.12375 84.134375 29.2475 85.26875 29.375 86.4375 C29.44460937 87.07558594 29.51421875 87.71367188 29.5859375 88.37109375 C29.72257813 88.90863281 29.85921875 89.44617188 30 90 C30.66 90.33 31.32 90.66 32 91 C31.67 88.36 31.34 85.72 31 83 C30.34 83 29.68 83 29 83 Z M-24 86 C-28.93183847 112.46490981 -28.93183847 112.46490981 -25.25 118.5625 C-21.82420749 122.27377522 -21.82420749 122.27377522 -19 123 C-14.68807981 122.92160145 -12.23817559 122.61250971 -9.125 119.5625 C-5.40635627 115.07825315 -5.59230881 111.65445333 -6 106 C-6.6255819 102.44589193 -7.50467765 98.98459259 -8.4375 95.5 C-8.66759766 94.59507813 -8.89769531 93.69015625 -9.13476562 92.7578125 C-10.84493731 86.15506269 -10.84493731 86.15506269 -12 85 C-13.70703125 84.8671875 -13.70703125 84.8671875 -15.8125 84.875 C-16.15603516 84.87371094 -16.15603516 84.87371094 -17.89453125 84.8671875 C-20.04203189 85.00265136 -21.92428678 85.4537454 -24 86 Z M-57 86 C-57 95.06153846 -57 95.06153846 -55.25 97.875 C-54.92515625 98.42929688 -54.6003125 98.98359375 -54.265625 99.5546875 C-52.16516686 101.95335883 -49.97076999 102.84820687 -46.8515625 103.3359375 C-41.24275906 103.43433756 -38.21319057 102.80214759 -34 99 C-30.98901424 94.28715273 -32.23003108 92.15975137 -33 86 C-40.92 86 -48.84 86 -57 86 Z M-67 87 C-67.57526844 96.01253885 -67.06687723 105.11136703 -61.76171875 112.79296875 C-58.71733928 116.00700405 -55.56538977 117.81250206 -51.1953125 118.3359375 C-40.71753383 118.46924257 -40.71753383 118.46924257 -36 114 C-34.625 111.75 -34.625 111.75 -34 110 C-34.70511719 110.32742187 -35.41023438 110.65484375 -36.13671875 110.9921875 C-39.23867167 112.08400722 -41.54006053 112.20385396 -44.8125 112.125 C-45.30041016 112.11597656 -45.30041016 112.11597656 -47.76953125 112.0703125 C-48.50558594 112.04710937 -49.24164063 112.02390625 -50 112 C-49.67 111.34 -49.34 110.68 -49 110 C-48.49210937 110.03480469 -47.98421875 110.06960937 -47.4609375 110.10546875 C-42.30889699 110.30807708 -39.47199511 109.49599727 -35 107 C-34.01 107 -33.02 107 -32 107 C-31.67 104.69 -31.34 102.38 -31 100 C-31.4125 100.34933594 -31.825 100.69867188 -32.25 101.05859375 C-36.66343768 104.5361462 -40.30404555 106.34784455 -46 106 C-50.63210469 105.17651472 -53.95475866 103.5605712 -56.9375 99.875 C-59.51806247 95.83096418 -59.88241255 91.71418761 -60 87 C-62.31 87 -64.62 87 -67 87 Z M-73 95 C-72 98 -72 98 -72 98 Z M30 97 C30 98.65 30 100.3 30 102 C30.33 102 30.66 102 31 102 C31 100.35 31 98.7 31 97 C30.67 97 30.34 97 30 97 Z M-89 103 C-89.63278297 107.9151049 -90.14585909 113.88999366 -87.6875 118.375 C-86.13620577 120.331933 -84.97942733 121.00826307 -82.63671875 121.94921875 C-72.76820843 125.92733111 -70.38365145 133.16458571 -66.35546875 142.51953125 C-65.96278809 143.44717285 -65.57010742 144.37481445 -65.16552734 145.33056641 C-63.4905627 149.16677575 -61.56514677 152.85555604 -59.625 156.5625 C-57.23614434 161.16748133 -55.47567298 165.49125437 -54.125 170.5 C-52.04550856 177.21274429 -47.9131413 180.47256413 -42 184 C-36.96343494 186.60404447 -32.22282782 188.01632801 -26.625 188.8125 C-22.43671972 189.51713206 -22.43671972 189.51713206 -20.484375 191.67578125 C-19.48941281 193.42397186 -18.6777566 195.10835098 -18 197 C-17.34 197 -16.68 197 -16 197 C-15.68289062 196.09121094 -15.36578125 195.18242187 -15.0390625 194.24609375 C-12.80539855 189.79313444 -8.82020875 188.74300575 -4.375 187.0625 C-1.17768344 185.83338082 1.92017307 184.50054294 5 183 C5.78673096 182.64462158 6.57346191 182.28924316 7.3840332 181.9230957 C13.71621383 178.20550144 15.35979529 173.22204305 17.21484375 166.47265625 C18.1845199 162.68266662 19.0633364 158.87543631 19.9375 155.0625 C20.40658005 153.15748047 20.87856403 151.25317353 21.35351562 149.34960938 C23.97831145 138.62437209 25.9528383 127.99273509 27 117 C26.33500488 117.23058105 25.67000977 117.46116211 24.98486328 117.69873047 C18.13217453 120.02549692 10.5255929 121.9055475 3.625 118.75 C1.06664421 117.04442947 -0.95076361 115.28568675 -3 113 C-3.391875 114.0725 -3.78375 115.145 -4.1875 116.25 C-6.02903227 120.58198545 -8.80117481 122.90058741 -13 125 C-16.66634634 125.66584221 -19.75228553 125.74378319 -23.01171875 123.80078125 C-26.20271806 121.14496002 -28.291181 118.81580941 -30 115 C-30.53109375 115.40992188 -31.0621875 115.81984375 -31.609375 116.2421875 C-32.31578125 116.78101563 -33.0221875 117.31984375 -33.75 117.875 C-34.44609375 118.40867187 -35.1421875 118.94234375 -35.859375 119.4921875 C-41.73607107 123.6316121 -46.91914772 123.72717353 -54 123 C-59.76398115 121.33967155 -63.83535052 118.05381286 -67 113 C-69.04548436 109.13155259 -70.34196944 105.34300168 -71 101 C-71.226875 101.556875 -71.45375 102.11375 -71.6875 102.6875 C-73.39081925 105.68858629 -75.49699461 107.62873173 -78 110 C-80.61047801 108.694761 -80.68066423 107.64173426 -81.625 104.9375 C-81.88539062 104.20402344 -82.14578125 103.47054687 -82.4140625 102.71484375 C-82.60742188 102.14894531 -82.80078125 101.58304687 -83 101 C-86.75 100.75 -86.75 100.75 -89 103 Z " fill="#142d7a" transform="translate(139,22)"/>
<path d="M0 0 C3.27066566 -0.08706892 6.54103365 -0.14041241 9.8125 -0.1875 C10.74126953 -0.21263672 11.67003906 -0.23777344 12.62695312 -0.26367188 C13.07329102 -0.26850586 13.07329102 -0.26850586 15.33203125 -0.29296875 C15.74312134 -0.30082397 15.74312134 -0.30082397 17.82348633 -0.34057617 C20.47502434 0.07433079 21.33263592 0.95529751 23 3 C18.22907044 4.23402862 13.57530554 4.11265112 8.6875 4.0625 C7.85154297 4.05798828 7.01558594 4.05347656 6.15429688 4.04882812 C4.10278975 4.03710523 2.05143295 4.02069582 0 4 C0 2.68 0 1.36 0 0 Z " fill="#142d7a" transform="translate(136,88)"/>
<path d="M0 0 C-0.33 0.99 -0.66 1.98 -1 3 C-1.99 3.12117188 -2.98 3.24234375 -4 3.3671875 C-10.79040813 4.22125123 -17.4030299 5.1151514 -24 7 C-24 6.01 -24 5.02 -24 4 C-17.1487595 -0.30649403 -7.85241368 -2.0471842 0 0 Z " fill="#142d7a" transform="translate(105,90)"/>
<path d="M0 0 C0.66 0.165 0.66 0.165 4 1 C3.67 2.32 3.34 3.64 3 5 C1.68 4.67 0.36 4.34 -1 4 C-0.67 2.68 -0.34 1.36 0 0 Z " fill="#142d7a" transform="translate(145,113)"/>
<path d="M0 0 C0.66 0.165 0.66 0.165 4 1 C3.67 2.32 3.34 3.64 3 5 C1.68 4.67 0.36 4.34 -1 4 C-0.67 2.68 -0.34 1.36 0 0 Z " fill="#142d7a" transform="translate(94,115)"/>
<path d="M0 0 C0.66 0.33 1.32 0.66 2 1 C2.4140625 2.84765625 2.4140625 2.84765625 2.625 5.0625 C2.69976562 5.79597656 2.77453125 6.52945313 2.8515625 7.28515625 C2.90054688 7.85105469 2.94953125 8.41695312 3 9 C2.01 9.33 1.02 9.66 0 10 C-1.51740231 6.96519537 -1.12292393 4.38040802 -1 1 C-0.67 0.67 -0.34 0.34 0 0 Z " fill="#142d7a" transform="translate(53,129)"/>
<path d="M0 0 C-0.33 0.99 -0.66 1.98 -1 3 C-3.484375 4.09765625 -3.484375 4.09765625 -6.75 5.0625 C-7.79671875 5.38347656 -8.8434375 5.70445312 -9.921875 6.03515625 C-20.24704093 8.65935102 -30.40154764 9.32596146 -40.9934082 9.26074219 C-43.06426118 9.24999086 -45.13425063 9.26072554 -47.20507812 9.2734375 C-63.81554594 9.29418237 -63.81554594 9.29418237 -71 7 C-72.32055664 5.42675781 -72.32055664 5.42675781 -73 4 C-69.44665443 2.79017044 -66.90203165 3.24252383 -63.25 3.9375 C-44.87987915 6.92420672 -22.03917494 7.09357327 -4.7265625 -0.50073242 C-3 -1 -3 -1 0 0 Z " fill="#142d7a" transform="translate(157,145)"/>
<path d="M0 0 C0 0.66 0 1.32 0 2 C-8.39076512 5.07871683 -17.53133818 6.3480756 -26 3 C-25.67 2.34 -25.34 1.68 -25 1 C-24.75560181 0.98747192 -24.75560181 0.98747192 -23.51879883 0.92407227 C-21.28315027 0.80732614 -19.04784259 0.68495949 -16.8125 0.5625 C-16.04357422 0.52318359 -15.27464844 0.48386719 -14.48242188 0.44335938 C-11.28902269 0.26518689 -8.27347123 0.05708199 -5.13671875 -0.59765625 C-3 -1 -3 -1 0 0 Z " fill="#142d7a" transform="translate(137,158)"/>
</g>
<g filter="url(#glow)">
<path d="M0 0 C1.59353922 1.49754288 3.06748265 3.06242618 4.546875 4.671875 C6.82027829 6.74971671 9.03613425 7.29431768 12 8 C12.33 6.68 12.66 5.36 13 4 C13.556875 4.28875 14.11375 4.5775 14.6875 4.875 C17 6 17 6 19.4375 6.5625 C25.01652999 9.69219975 27.32633262 17.06608839 29 23 C29.66 22.34 30.32 21.68 31 21 C31.99 21 32.98 21 34 21 C34.19398038 25.65552912 34.21590171 29.7294342 32.75 34.1875 C32.1953125 36.17578125 32.1953125 36.17578125 32 38 C33.625 40.875 33.625 40.875 34.77734375 42.28515625 C36.86339286 45.21095676 37.91279248 48.58031144 39.16796875 51.92578125 C40 54 40 54 41 55 C41.36977428 57.70359556 41.41722289 60.30159741 41 63 C39 65 39 65 37 66 C37.33 66.495 37.66 66.99 38 67.5 C39.39184001 70.97960002 39.34527342 74.29031816 39 78 C38.67 78.66 38.34 79.32 38 80 C37.87320787 81.26845631 37.79832215 82.54240277 37.75390625 83.81640625 C37.72256592 84.57614746 37.69122559 85.33588867 37.65893555 86.11865234 C37.62711182 86.92512207 37.59528809 87.7315918 37.5625 88.5625 C37.08440834 98.33703119 35.32085113 106.49169861 32 115.71484375 C30.93898926 119.20042981 30.23965579 122.65722144 29.55371094 126.23168945 C28.55411683 131.22921924 27.32603086 136.17275198 26.125 141.125 C25.86251465 142.21651367 25.6000293 143.30802734 25.32958984 144.43261719 C24.15573387 149.29891429 22.96889713 154.16050637 21.71875 159.0078125 C21.5316748 159.73597168 21.34459961 160.46413086 21.15185547 161.21435547 C20.81271029 162.52473198 20.46838934 163.83378545 20.11767578 165.14111328 C19.24769009 168.4965048 18.65825291 171.5337081 19 175 C20.6034526 176.92414312 22.11453055 178.37663617 24 180 C25.58549874 181.41424278 27.16860083 182.83117458 28.75 184.25 C29.18143311 184.63567139 29.61286621 185.02134277 30.05737305 185.41870117 C37.14998448 191.78803134 44.06620308 198.52074472 50 206 C50 206.33 50 206.66 50 207 C37.13 207 24.26 207 11 207 C11.33 198.75 11.66 190.5 12 182 C8.7 183.98 5.4 185.96 2 188 C-1.95116077 189.84273225 -5.94147509 191.3954669 -10 193 C-9.67 195.31 -9.67 195.31 -8 207 C-14.27 207 -20.54 207 -27 207 C-26.01 202.05 -25.02 197.1 -24 192 C-25.27875 191.9175 -26.5575 191.835 -27.875 191.75 C-36.33502649 190.79226115 -43.42658673 187.31096966 -50 182 C-49.93765583 183.73005058 -49.84838103 185.45912418 -49.75 187.1875 C-49.70359375 188.15042969 -49.6571875 189.11335937 -49.609375 190.10546875 C-48.70698847 195.87264417 -46.71668099 201.42078678 -45 207 C-59.19 207 -73.38 207 -88 207 C-84.30734767 202.07646355 -80.79038864 197.45474643 -76.625 193 C-76.15167236 192.48945068 -75.67834473 191.97890137 -75.19067383 191.45288086 C-64.66259988 180.15259395 -64.66259988 180.15259395 -59.4375 176.4375 C-59.0353125 176.0353125 -59.0353125 176.0353125 -57 174 C-57.22528396 168.56005502 -58.89428876 164.61406303 -61.4375 159.875 C-62.15695744 158.48541359 -62.87428989 157.09472555 -63.58984375 155.703125 C-63.9751123 154.95740234 -64.36038086 154.21167969 -64.75732422 153.44335938 C-67.08117959 148.87417577 -69.28969451 144.249895 -71.5 139.625 C-71.94529053 138.70315918 -72.39058105 137.78131836 -72.84936523 136.83154297 C-73.05468872 136.40172119 -73.05468872 136.40172119 -74.09375 134.2265625 C-74.46177734 133.45908691 -74.82980469 132.69161133 -75.20898438 131.90087891 C-76 130 -76 130 -76 128 C-76.825 127.979375 -77.65 127.95875 -78.5 127.9375 C-83.41589137 127.10845419 -86.76290285 123.57295492 -90 120 C-93.28564306 115.24072966 -93.97190322 109.64726925 -93 104 C-91.8893788 101.65375262 -90.66398387 100.02798034 -89 98 C-89.61875 97.71125 -90.2375 97.4225 -90.875 97.125 C-93 96 -93 96 -95 94 C-95.13071575 89.16351708 -93.68056088 84.48149569 -92 80 C-93.051875 79.9175 -94.10375 79.835 -95.1875 79.75 C-99.17574799 79.20688493 -101.10194348 77.72241673 -104 75 C-103.67 74.01 -103.34 73.02 -103 72 C-102.505 71.835 -102.505 71.835 -100 71 C-100.20625 70.05125 -100.4125 69.1025 -100.625 68.125 C-101.32036359 63.18791852 -100.21112176 58.78036884 -99 54 C-98.78085938 53.12472656 -98.56171875 52.24945313 -98.3359375 51.34765625 C-96.54314705 44.79707575 -94.06989486 40.37872483 -89.625 35.25 C-87.39134307 32.65320253 -85.71275002 29.90187504 -84 26.9375 C-81.69069697 22.9914487 -79.51447789 19.92873158 -76 17 C-75.34 17 -74.68 17 -74 17 C-74.33 16.01 -74.66 15.02 -75 14 C-75.64526138 7.70870154 -74.61766747 2.71835691 -72 -3 C-70.68 -3 -69.36 -3 -68 -3 C-67.01 0.63 -66.02 4.26 -65 8 C-64.11699219 7.46890625 -63.23398438 6.9378125 -62.32421875 6.390625 C-44.16754319 -4.37058246 -19.44513238 -12.79828246 0 0 Z M-74 50 C-74.05842731 52.89574753 -74.09373846 55.79134182 -74.125 58.6875 C-74.14175781 59.50412109 -74.15851563 60.32074219 -74.17578125 61.16210938 C-74.21210647 65.64827434 -73.91882663 68.87161544 -72 73 C-71.5859375 75.45703125 -71.5859375 75.45703125 -71.375 77.8125 C-71.30023438 78.60269531 -71.22546875 79.39289063 -71.1484375 80.20703125 C-71.09945312 80.79871094 -71.05046875 81.39039062 -71 82 C-58.40030431 81.81245379 -58.40030431 81.81245379 -55.02734375 79.85546875 C-53.75 78.5 -53.75 78.5 -52 76 C-48.29712287 74.14856144 -44.04094612 74.5296908 -40 75 C-37.2412793 76.21141428 -35.14122175 77.85877825 -33 80 C-31.44785727 80.09932814 -29.89125389 80.13080045 -28.3359375 80.1328125 C-27.85705078 80.13345703 -27.85705078 80.13345703 -25.43359375 80.13671875 C-24.92892578 80.13478516 -24.92892578 80.13478516 -22.375 80.125 C-21.88193359 80.12693359 -21.88193359 80.12693359 -19.38671875 80.13671875 C-5.59758384 80.11830869 -5.59758384 80.11830869 -2.3984375 77.87890625 C-2.06070313 77.44449219 -1.72296875 77.01007813 -1.375 76.5625 C1.175881 73.81023366 2.34666618 72.74727283 6 72 C11.26246809 72.54797693 14.80441916 73.81714557 19 77 C20.99923848 77.05518601 23.00088566 77.05951355 25 77 C24.97704297 74.26901376 24.89954481 71.54213597 24.8125 68.8125 C24.80669922 68.04357422 24.80089844 67.27464844 24.79492188 66.48242188 C24.64212166 62.52659403 24.40189272 59.89063697 21.60546875 56.9453125 C19 55 19 55 16.5 55.0625 C14 56 14 56 11.77734375 57.046875 C8.48020216 58.17838351 5.50085305 58.25782154 2.0625 58.1875 C1.46759766 58.18685547 0.87269531 58.18621094 0.25976562 58.18554688 C-2.62276952 58.15719407 -5.25805222 57.94708296 -8.0859375 57.3671875 C-11.58618896 56.92613705 -13.4268909 57.6445749 -16.6875 58.9375 C-32.22506744 64.3005702 -49.10120259 61.18450308 -63.65625 54.33203125 C-65.7303021 53.31491059 -67.74803272 52.24488447 -69.77734375 51.13671875 C-72 50 -72 50 -74 50 Z M27 61 C27.14063768 63.29209497 27.28727647 65.58353064 27.4375 67.875 C27.47681641 68.52597656 27.51613281 69.17695312 27.55664062 69.84765625 C27.88671875 74.7734375 27.88671875 74.7734375 29 77 C31.31 77 33.62 77 36 77 C36.52853461 71.71465387 35.32832469 67.23431565 32 63 C29.35546875 61.765625 29.35546875 61.765625 27 61 Z M-80.3125 73.8125 C-82.37470931 75.68934219 -84.10030742 77.05143584 -86.59765625 78.33203125 C-90.53635535 81.06670526 -90.85440826 84.60765224 -91.81640625 89.11328125 C-92 92 -92 92 -91.27734375 93.79296875 C-89.08608347 96.08287097 -86.75679674 97.1118735 -83.875 98.4375 C-80.12875192 100.47350439 -79.55141014 102.12147466 -78 106 C-77.34 106 -76.68 106 -76 106 C-74.86510599 101.20822528 -75.16222971 97.04972648 -75.74609375 92.171875 C-76 90 -76 90 -76 88 C-77.65 87.67 -79.3 87.34 -81 87 C-81 86.01 -81 85.02 -81 84 C-78.69 83.34 -76.38 82.68 -74 82 C-73.9728351 80.72928624 -73.95352941 79.458403 -73.9375 78.1875 C-73.92589844 77.47980469 -73.91429688 76.77210937 -73.90234375 76.04296875 C-74 74 -74 74 -75 71 C-77.70240066 71 -78.33862222 72.01368898 -80.3125 73.8125 Z M-1 78 C2.63689786 79.21530003 6.00003797 78.92101285 9.75 78.5625 C10.35199219 78.51029297 10.95398438 78.45808594 11.57421875 78.40429688 C13.05000858 78.27545808 14.52508918 78.13853931 16 78 C12.49048044 75.04543788 10.44580749 74.54481395 5.97265625 74.6953125 C3.18069741 75.12654575 1.23638882 76.32270839 -1 78 Z M-52 79 C-52 79.33 -52 79.66 -52 80 C-47.05 80 -42.1 80 -37 80 C-42.09691235 76.17731574 -46.40008143 75.41605211 -52 79 Z M-4 85 C-4.04641965 89.49342242 -3.56091773 93.09092644 -1.1875 96.9375 C2.09061149 100.02829084 3.86037287 100.87337476 8.375 101.375 C12.31243106 101.25645369 15.22810503 99.78047669 18 97 C20.01149655 93.85745993 20.22216795 91.44238198 20.125 87.75 C20.11597656 87.30398437 20.11597656 87.30398437 20.0703125 85.046875 C20.04710937 84.37140625 20.02390625 83.6959375 20 83 C-1.65979381 82.65979381 -1.65979381 82.65979381 -4 85 Z M23 83 C23.04640625 83.56847656 23.0928125 84.13695313 23.140625 84.72265625 C23.4117473 90.52273691 22.75623326 94.46904364 19 99 C15.72273027 102.46161615 12.65610966 103.26922863 7.9375 103.4375 C3.88819266 103.28481119 1.23795213 102.5903617 -2 100 C-1.75 102.375 -1.75 102.375 -1 105 C2.36439326 107.3938952 5.78122581 107.23839355 9.75 107.125 C10.05099609 107.12048828 10.05099609 107.12048828 11.57421875 107.09765625 C13.0496524 107.07423667 14.52487944 107.03837019 16 107 C16.33 107.66 16.66 108.32 17 109 C15.25021843 109.16894443 13.50016388 109.33506309 11.75 109.5 C10.77546875 109.5928125 9.8009375 109.685625 8.796875 109.78125 C6.51204262 109.95995197 4.28913829 110.04360263 2 110 C2.95745988 112.61125422 3.65621688 113.79164659 6.0625 115.25 C12.97878351 117.01585962 18.22493443 116.42905415 24.46875 112.97265625 C26 112 26 112 27 111 C27.09930006 109.43611767 27.13079998 107.86781169 27.1328125 106.30078125 C27.13410156 105.33849609 27.13539063 104.37621094 27.13671875 103.38476562 C27.13478516 102.8778418 27.13478516 102.8778418 27.125 100.3125 C27.12886719 99.31798828 27.13273437 98.32347656 27.13671875 97.29882812 C27.13021927 92.41446633 27.0264505 87.7819559 26 83 C25.01 83 24.02 83 23 83 Z M29 83 C29.12375 84.134375 29.2475 85.26875 29.375 86.4375 C29.44460937 87.07558594 29.51421875 87.71367188 29.5859375 88.37109375 C29.72257813 88.90863281 29.85921875 89.44617188 30 90 C30.66 90.33 31.32 90.66 32 91 C31.67 88.36 31.34 85.72 31 83 C30.34 83 29.68 83 29 83 Z M-24 86 C-28.93183847 112.46490981 -28.93183847 112.46490981 -25.25 118.5625 C-21.82420749 122.27377522 -21.82420749 122.27377522 -19 123 C-14.68807981 122.92160145 -12.23817559 122.61250971 -9.125 119.5625 C-5.40635627 115.07825315 -5.59230881 111.65445333 -6 106 C-6.6255819 102.44589193 -7.50467765 98.98459259 -8.4375 95.5 C-8.66759766 94.59507813 -8.89769531 93.69015625 -9.13476562 92.7578125 C-10.84493731 86.15506269 -10.84493731 86.15506269 -12 85 C-13.70703125 84.8671875 -13.70703125 84.8671875 -15.8125 84.875 C-16.15603516 84.87371094 -16.15603516 84.87371094 -17.89453125 84.8671875 C-20.04203189 85.00265136 -21.92428678 85.4537454 -24 86 Z M-57 86 C-57 95.06153846 -57 95.06153846 -55.25 97.875 C-54.92515625 98.42929688 -54.6003125 98.98359375 -54.265625 99.5546875 C-52.16516686 101.95335883 -49.97076999 102.84820687 -46.8515625 103.3359375 C-41.24275906 103.43433756 -38.21319057 102.80214759 -34 99 C-30.98901424 94.28715273 -32.23003108 92.15975137 -33 86 C-40.92 86 -48.84 86 -57 86 Z M-67 87 C-67.57526844 96.01253885 -67.06687723 105.11136703 -61.76171875 112.79296875 C-58.71733928 116.00700405 -55.56538977 117.81250206 -51.1953125 118.3359375 C-40.71753383 118.46924257 -40.71753383 118.46924257 -36 114 C-34.625 111.75 -34.625 111.75 -34 110 C-34.70511719 110.32742187 -35.41023438 110.65484375 -36.13671875 110.9921875 C-39.23867167 112.08400722 -41.54006053 112.20385396 -44.8125 112.125 C-45.30041016 112.11597656 -45.30041016 112.11597656 -47.76953125 112.0703125 C-48.50558594 112.04710937 -49.24164063 112.02390625 -50 112 C-49.67 111.34 -49.34 110.68 -49 110 C-48.49210937 110.03480469 -47.98421875 110.06960937 -47.4609375 110.10546875 C-42.30889699 110.30807708 -39.47199511 109.49599727 -35 107 C-34.01 107 -33.02 107 -32 107 C-31.67 104.69 -31.34 102.38 -31 100 C-31.4125 100.34933594 -31.825 100.69867188 -32.25 101.05859375 C-36.66343768 104.5361462 -40.30404555 106.34784455 -46 106 C-50.63210469 105.17651472 -53.95475866 103.5605712 -56.9375 99.875 C-59.51806247 95.83096418 -59.88241255 91.71418761 -60 87 C-62.31 87 -64.62 87 -67 87 Z M-73 95 C-72 98 -72 98 -72 98 Z M30 97 C30 98.65 30 100.3 30 102 C30.33 102 30.66 102 31 102 C31 100.35 31 98.7 31 97 C30.67 97 30.34 97 30 97 Z M-89 103 C-89.63278297 107.9151049 -90.14585909 113.88999366 -87.6875 118.375 C-86.13620577 120.331933 -84.97942733 121.00826307 -82.63671875 121.94921875 C-72.76820843 125.92733111 -70.38365145 133.16458571 -66.35546875 142.51953125 C-65.96278809 143.44717285 -65.57010742 144.37481445 -65.16552734 145.33056641 C-63.4905627 149.16677575 -61.56514677 152.85555604 -59.625 156.5625 C-57.23614434 161.16748133 -55.47567298 165.49125437 -54.125 170.5 C-52.04550856 177.21274429 -47.9131413 180.47256413 -42 184 C-36.96343494 186.60404447 -32.22282782 188.01632801 -26.625 188.8125 C-22.43671972 189.51713206 -22.43671972 189.51713206 -20.484375 191.67578125 C-19.48941281 193.42397186 -18.6777566 195.10835098 -18 197 C-17.34 197 -16.68 197 -16 197 C-15.68289062 196.09121094 -15.36578125 195.18242187 -15.0390625 194.24609375 C-12.80539855 189.79313444 -8.82020875 188.74300575 -4.375 187.0625 C-1.17768344 185.83338082 1.92017307 184.50054294 5 183 C5.78673096 182.64462158 6.57346191 182.28924316 7.3840332 181.9230957 C13.71621383 178.20550144 15.35979529 173.22204305 17.21484375 166.47265625 C18.1845199 162.68266662 19.0633364 158.87543631 19.9375 155.0625 C20.40658005 153.15748047 20.87856403 151.25317353 21.35351562 149.34960938 C23.97831145 138.62437209 25.9528383 127.99273509 27 117 C26.33500488 117.23058105 25.67000977 117.46116211 24.98486328 117.69873047 C18.13217453 120.02549692 10.5255929 121.9055475 3.625 118.75 C1.06664421 117.04442947 -0.95076361 115.28568675 -3 113 C-3.391875 114.0725 -3.78375 115.145 -4.1875 116.25 C-6.02903227 120.58198545 -8.80117481 122.90058741 -13 125 C-16.66634634 125.66584221 -19.75228553 125.74378319 -23.01171875 123.80078125 C-26.20271806 121.14496002 -28.291181 118.81580941 -30 115 C-30.53109375 115.40992188 -31.0621875 115.81984375 -31.609375 116.2421875 C-32.31578125 116.78101563 -33.0221875 117.31984375 -33.75 117.875 C-34.44609375 118.40867187 -35.1421875 118.94234375 -35.859375 119.4921875 C-41.73607107 123.6316121 -46.91914772 123.72717353 -54 123 C-59.76398115 121.33967155 -63.83535052 118.05381286 -67 113 C-69.04548436 109.13155259 -70.34196944 105.34300168 -71 101 C-71.226875 101.556875 -71.45375 102.11375 -71.6875 102.6875 C-73.39081925 105.68858629 -75.49699461 107.62873173 -78 110 C-80.61047801 108.694761 -80.68066423 107.64173426 -81.625 104.9375 C-81.88539062 104.20402344 -82.14578125 103.47054687 -82.4140625 102.71484375 C-82.60742188 102.14894531 -82.80078125 101.58304687 -83 101 C-86.75 100.75 -86.75 100.75 -89 103 Z " fill="#1e40af" transform="translate(139,22)"/>
<path d="M0 0 C3.27066566 -0.08706892 6.54103365 -0.14041241 9.8125 -0.1875 C10.74126953 -0.21263672 11.67003906 -0.23777344 12.62695312 -0.26367188 C13.07329102 -0.26850586 13.07329102 -0.26850586 15.33203125 -0.29296875 C15.74312134 -0.30082397 15.74312134 -0.30082397 17.82348633 -0.34057617 C20.47502434 0.07433079 21.33263592 0.95529751 23 3 C18.22907044 4.23402862 13.57530554 4.11265112 8.6875 4.0625 C7.85154297 4.05798828 7.01558594 4.05347656 6.15429688 4.04882812 C4.10278975 4.03710523 2.05143295 4.02069582 0 4 C0 2.68 0 1.36 0 0 Z " fill="#1e40af" transform="translate(136,88)"/>
<path d="M0 0 C-0.33 0.99 -0.66 1.98 -1 3 C-1.99 3.12117188 -2.98 3.24234375 -4 3.3671875 C-10.79040813 4.22125123 -17.4030299 5.1151514 -24 7 C-24 6.01 -24 5.02 -24 4 C-17.1487595 -0.30649403 -7.85241368 -2.0471842 0 0 Z " fill="#1e40af" transform="translate(105,90)"/>
<path d="M0 0 C0.66 0.165 0.66 0.165 4 1 C3.67 2.32 3.34 3.64 3 5 C1.68 4.67 0.36 4.34 -1 4 C-0.67 2.68 -0.34 1.36 0 0 Z " fill="#1e40af" transform="translate(145,113)"/>
<path d="M0 0 C0.66 0.165 0.66 0.165 4 1 C3.67 2.32 3.34 3.64 3 5 C1.68 4.67 0.36 4.34 -1 4 C-0.67 2.68 -0.34 1.36 0 0 Z " fill="#1e40af" transform="translate(94,115)"/>
<path d="M0 0 C0.66 0.33 1.32 0.66 2 1 C2.4140625 2.84765625 2.4140625 2.84765625 2.625 5.0625 C2.69976562 5.79597656 2.77453125 6.52945313 2.8515625 7.28515625 C2.90054688 7.85105469 2.94953125 8.41695312 3 9 C2.01 9.33 1.02 9.66 0 10 C-1.51740231 6.96519537 -1.12292393 4.38040802 -1 1 C-0.67 0.67 -0.34 0.34 0 0 Z " fill="#1e40af" transform="translate(53,129)"/>
<path d="M0 0 C-0.33 0.99 -0.66 1.98 -1 3 C-3.484375 4.09765625 -3.484375 4.09765625 -6.75 5.0625 C-7.79671875 5.38347656 -8.8434375 5.70445312 -9.921875 6.03515625 C-20.24704093 8.65935102 -30.40154764 9.32596146 -40.9934082 9.26074219 C-43.06426118 9.24999086 -45.13425063 9.26072554 -47.20507812 9.2734375 C-63.81554594 9.29418237 -63.81554594 9.29418237 -71 7 C-72.32055664 5.42675781 -72.32055664 5.42675781 -73 4 C-69.44665443 2.79017044 -66.90203165 3.24252383 -63.25 3.9375 C-44.87987915 6.92420672 -22.03917494 7.09357327 -4.7265625 -0.50073242 C-3 -1 -3 -1 0 0 Z " fill="#1e40af" transform="translate(157,145)"/>
<path d="M0 0 C0 0.66 0 1.32 0 2 C-8.39076512 5.07871683 -17.53133818 6.3480756 -26 3 C-25.67 2.34 -25.34 1.68 -25 1 C-24.75560181 0.98747192 -24.75560181 0.98747192 -23.51879883 0.92407227 C-21.28315027 0.80732614 -19.04784259 0.68495949 -16.8125 0.5625 C-16.04357422 0.52318359 -15.27464844 0.48386719 -14.48242188 0.44335938 C-11.28902269 0.26518689 -8.27347123 0.05708199 -5.13671875 -0.59765625 C-3 -1 -3 -1 0 0 Z " fill="#1e40af" transform="translate(137,158)"/>
</g>
</g>
</svg>
