<?xml version="1.0" encoding="UTF-8"?>
<!-- Generator: visioncortex VTracer 0.6.12 -->
<svg version="1.1" xmlns="http://www.w3.org/2000/svg" width="229" height="229" viewBox="0 0 229 229">
<g transform="translate(45.8,45.8) scale(0.6)">
<path d="M0 0 C3.68913481 2.64687925 6.55032172 6.15806289 9.4921875 9.58984375 C16.27418043 17.48540105 16.27418043 17.48540105 20.921875 19.37890625 C20.90125 20.32765625 20.880625 21.27640625 20.859375 22.25390625 C20.921875 25.37890625 20.921875 25.37890625 21.921875 27.37890625 C21.99703837 28.87591001 22.06808813 30.37331633 22.11132812 31.87158203 C22.30650494 37.73790455 23.08831296 42.60415224 25.421875 48.00390625 C29.00287119 56.49066023 29.47680645 64.39485787 27.921875 73.37890625 C27.43507311 78.30101424 28.11638251 82.42512705 29.421875 87.19140625 C31.04575236 93.33727703 32.60001336 100.16204576 30.16015625 106.29296875 C28.2993753 109.27904411 26.04245408 111.77403701 22.921875 113.37890625 C20.52801902 113.61157044 18.33787365 113.51829079 15.921875 113.37890625 C16.210625 114.00539063 16.499375 114.631875 16.796875 115.27734375 C16.9825 115.68597656 16.9825 115.68597656 17.921875 117.75390625 C18.1075 118.15996094 18.1075 118.15996094 19.046875 120.21484375 C19.921875 122.37890625 19.921875 122.37890625 19.921875 124.37890625 C20.63085938 124.6109375 21.33984375 124.84296875 22.0703125 125.08203125 C25.41957352 126.60525681 27.88384158 128.64889313 30.546875 131.12890625 C30.80650024 131.37048462 30.80650024 131.37048462 32.12036133 132.59301758 C49.90963957 149.60544789 59.83580127 172.2007255 69.484375 194.44140625 C69.73598389 195.01906738 69.98759277 195.59672852 70.24682617 196.19189453 C71.921875 200.1322647 71.921875 200.1322647 71.921875 202.37890625 C70.601875 202.37890625 69.281875 202.37890625 67.921875 202.37890625 C67.61596436 201.67096924 67.31005371 200.96303223 66.99487305 200.23364258 C46.17162563 152.23278125 46.17162563 152.23278125 33.1640625 139.69140625 C30.921875 137.37890625 30.921875 137.37890625 30.921875 135.37890625 C30.633125 135.23453125 30.633125 135.23453125 29.171875 134.50390625 C27.08854167 133.46223958 25.00520833 132.42057292 22.921875 131.37890625 C23.68768191 133.27677554 24.45975077 135.17211869 25.234375 137.06640625 C25.66363281 138.12214844 26.09289062 139.17789063 26.53515625 140.265625 C27.921875 143.37890625 27.921875 143.37890625 29.58984375 146.109375 C31.15844869 148.78198342 30.921875 150.34439534 30.921875 153.37890625 C31.4375 153.81203125 31.953125 154.24515625 32.484375 154.69140625 C33.921875 156.37890625 33.921875 156.37890625 34.02807617 157.96411133 C33.42589963 164.15223685 30.9453687 168.549627 27.671875 173.75390625 C27.14335937 174.61081055 26.61484375 175.46771484 26.0703125 176.35058594 C22.18906657 182.55739061 18.13253533 188.64108183 13.921875 194.62890625 C13.38272461 195.40927246 12.84357422 196.18963867 12.28808594 196.99365234 C11.77536133 197.70344238 11.26263672 198.41323242 10.734375 199.14453125 C10.28707031 199.77133789 9.83976563 200.39814453 9.37890625 201.04394531 C7.921875 202.37890625 7.921875 202.37890625 5.74609375 202.58105469 C5.14410156 202.5143457 4.54210937 202.44763672 3.921875 202.37890625 C5.2033061 199.6990822 6.60376995 197.26800393 8.3125 194.83984375 C8.77229248 194.18113281 9.23208496 193.52242187 9.70581055 192.84375 C10.18961182 192.15410156 10.67341309 191.46445313 11.171875 190.75390625 C15.3418315 184.75801529 19.30468634 178.7280644 22.921875 172.37890625 C21.601875 172.37890625 20.281875 172.37890625 18.921875 172.37890625 C19.34339844 171.54746094 19.76492187 170.71601563 20.19921875 169.859375 C20.75271064 168.76177244 21.30609018 167.66411321 21.859375 166.56640625 C22.13716797 166.01919922 22.41496094 165.47199219 22.70117188 164.90820312 C23.95461105 162.41642645 25.03796447 160.03063784 25.921875 157.37890625 C26.911875 157.37890625 27.901875 157.37890625 28.921875 157.37890625 C27.44499968 156.20934034 25.96531207 155.04332479 24.484375 153.87890625 C23.66066406 153.22921875 22.83695313 152.57953125 21.98828125 151.91015625 C19.921875 150.37890625 19.921875 150.37890625 18.921875 150.37890625 C17.58619479 150.70270751 16.25264489 151.03548176 14.921875 151.37890625 C14.261875 150.05890625 13.601875 148.73890625 12.921875 147.37890625 C14.921875 145.37890625 14.921875 145.37890625 17.05078125 145.21875 C17.85386719 145.25097656 18.65695313 145.28320312 19.484375 145.31640625 C20.96268772 145.37080816 22.44270041 145.39916892 23.921875 145.37890625 C24.251875 145.04890625 24.581875 144.71890625 24.921875 144.37890625 C23.601875 144.37890625 22.281875 144.37890625 20.921875 144.37890625 C18.06799865 138.76033718 16.5436427 134.68277786 16.921875 128.37890625 C16.591875 127.38890625 16.261875 126.39890625 15.921875 125.37890625 C15.87232666 125.74165649 15.87232666 125.74165649 15.62158203 127.57739258 C13.39394324 143.37393617 10.32655349 158.67813949 5.859375 174.00390625 C5.64613586 174.7366275 5.43289673 175.46934875 5.2131958 176.22427368 C2.64079997 185.00764019 -0.11436924 193.71974654 -3.078125 202.37890625 C-4.398125 202.37890625 -5.718125 202.37890625 -7.078125 202.37890625 C-4.53728223 191.61468674 -1.36941229 181.05985509 1.81420898 170.47241211 C2.49289145 168.21179543 3.1666296 165.94975009 3.83984375 163.6875 C4.04917038 162.99692001 4.25849701 162.30634003 4.47416687 161.59483337 C5.32103462 158.74231455 5.921875 156.37343321 5.921875 153.37890625 C5.096875 153.70890625 5.096875 153.70890625 0.921875 155.37890625 C0.24125 154.65703125 -0.439375 153.93515625 -1.140625 153.19140625 C-4.078125 150.37890625 -4.078125 150.37890625 -11.078125 145.37890625 C-11.078125 164.18890625 -11.078125 182.99890625 -11.078125 202.37890625 C-12.068125 202.37890625 -13.058125 202.37890625 -14.078125 202.37890625 C-14.738125 194.12890625 -15.398125 185.87890625 -16.078125 177.37890625 C-17.398125 177.04890625 -18.718125 176.71890625 -20.078125 176.37890625 C-20.703125 174.50390625 -20.703125 174.50390625 -21.078125 172.37890625 C-20.418125 171.71890625 -19.758125 171.05890625 -19.078125 170.37890625 C-18.088125 170.37890625 -17.098125 170.37890625 -16.078125 170.37890625 C-15.748125 164.10890625 -15.418125 157.83890625 -15.078125 151.37890625 C-16.728125 151.04890625 -18.378125 150.71890625 -20.078125 150.37890625 C-20.408125 149.71890625 -20.738125 149.05890625 -21.078125 148.37890625 C-24.078125 149.37890625 -24.078125 149.37890625 -25.078125 151.31640625 C-25.408125 151.99703125 -25.738125 152.67765625 -26.078125 153.37890625 C-27.703125 154.62890625 -27.703125 154.62890625 -29.078125 155.37890625 C-30.728125 154.38890625 -32.378125 153.39890625 -34.078125 152.37890625 C-32.71228608 159.28280388 -30.7721929 165.95788897 -28.67407227 172.671875 C-28.14177796 174.37521677 -27.61437847 176.08001181 -27.08789062 177.78515625 C-25.1607139 184.00897263 -23.17343789 190.2095399 -21.078125 196.37890625 C-19.758125 195.71890625 -18.438125 195.05890625 -17.078125 194.37890625 C-16.418125 195.03890625 -15.758125 195.69890625 -15.078125 196.37890625 C-15.453125 199.00390625 -15.453125 199.00390625 -16.078125 201.37890625 C-18.718125 201.70890625 -21.358125 202.03890625 -24.078125 202.37890625 C-25.75031733 197.1652009 -27.39889603 191.94445542 -29.03320312 186.71875 C-29.77973782 184.33262976 -30.52854078 181.94728968 -31.27929688 179.5625 C-44.52913645 137.39673662 -44.52913645 137.39673662 -44.078125 124.37890625 C-44.738125 124.37890625 -45.398125 124.37890625 -46.078125 124.37890625 C-45.95953125 124.99636719 -45.8409375 125.61382812 -45.71875 126.25 C-44.67758594 133.09044788 -45.70028524 137.37707937 -49.078125 143.37890625 C-46.768125 144.03890625 -44.458125 144.69890625 -42.078125 145.37890625 C-41.453125 147.25390625 -41.453125 147.25390625 -41.078125 149.37890625 C-41.738125 150.03890625 -42.398125 150.69890625 -43.078125 151.37890625 C-46.01265761 151.01208967 -46.94249746 150.51453379 -49.078125 148.37890625 C-49.16964844 148.9821875 -49.26117188 149.58546875 -49.35546875 150.20703125 C-50.25532992 152.91147888 -51.28514519 153.58713765 -53.640625 155.12890625 C-54.28128906 155.556875 -54.92195313 155.98484375 -55.58203125 156.42578125 C-56.07574219 156.7403125 -56.56945312 157.05484375 -57.078125 157.37890625 C-56.848039 167.50269006 -49.18403398 176.77447748 -43.078125 184.37890625 C-41.758125 184.04890625 -40.438125 183.71890625 -39.078125 183.37890625 C-26.078125 199.41116431 -26.078125 199.41116431 -26.078125 202.37890625 C-32.78506595 203.29334627 -32.78506595 203.29334627 -35.59228516 201.30810547 C-36.99324249 199.71361931 -38.19628593 198.07112132 -39.390625 196.31640625 C-39.84574463 195.69386963 -40.30086426 195.07133301 -40.76977539 194.42993164 C-41.73226829 193.10842015 -42.68347172 191.77862263 -43.62402344 190.44140625 C-45.56543154 187.68770987 -47.57014849 184.98283901 -49.57299805 182.27368164 C-50.94794433 180.40823159 -52.3089565 178.53332315 -53.66796875 176.65625 C-55.72654933 173.82867357 -57.86905159 171.09027478 -60.078125 168.37890625 C-60.25351807 168.87592041 -60.42891113 169.37293457 -60.60961914 169.88500977 C-64.55932712 181.0099566 -68.86763378 191.78371286 -74.078125 202.37890625 C-75.068125 202.37890625 -76.058125 202.37890625 -77.078125 202.37890625 C-76.50391945 196.49086624 -74.15836321 191.55470298 -71.765625 186.19140625 C-68.60980979 178.98906679 -65.62081366 171.82208407 -63.078125 164.37890625 C-63.59366943 164.27223633 -64.10921387 164.16556641 -64.64038086 164.05566406 C-80.76523598 160.60782774 -96.87288858 155.78451649 -112.078125 149.37890625 C-112.36147705 149.26119873 -112.36147705 149.26119873 -113.79541016 148.66552734 C-122.26245641 145.0691895 -128.34062392 140.85390841 -132.515625 132.50390625 C-134.86812755 119.43444761 -130.41195133 109.2896705 -123.140625 98.69140625 C-113.58841256 85.15883184 -103.21625795 72.24898659 -92.29223633 59.80541992 C-91.14171808 58.4536246 -90.06232437 57.04222654 -88.98828125 55.62890625 C-87.09446834 53.3981573 -85.7719772 52.38463329 -83.140625 51.19140625 C-82.44453125 50.86398438 -81.7484375 50.5365625 -81.03125 50.19921875 C-79.078125 49.37890625 -79.078125 49.37890625 -76.390625 48.56640625 C-73.3588448 47.00954615 -72.25325431 44.93254372 -70.40625 42.1328125 C-68.33812453 39.40167034 -66.06108565 38.03610661 -63.078125 36.37890625 C-62.418125 36.37890625 -61.758125 36.37890625 -61.078125 36.37890625 C-61.14 35.32703125 -61.201875 34.27515625 -61.265625 33.19140625 C-61.25809108 29.41691129 -60.19023176 27.54706639 -58.078125 24.37890625 C-57.48204017 22.94664688 -56.90002891 21.50849153 -56.328125 20.06640625 C-54.1224501 14.98743837 -50.91975031 11.30838577 -47.078125 7.37890625 C-46.39621094 6.47914062 -45.71429688 5.579375 -45.01171875 4.65234375 C-42.54091229 2.19323397 -40.60543008 2.03961724 -37.171875 1.99609375 C-35.30630484 2.05695632 -33.44143125 2.14369694 -31.578125 2.25390625 C-20.52471145 2.81645962 -20.52471145 2.81645962 -16.078125 -0.62109375 C-10.80321167 -2.37939819 -5.12182902 -2.43169405 0 0 Z M-20.078125 5.37890625 C-20.408125 6.03890625 -20.738125 6.69890625 -21.078125 7.37890625 C-20.75199219 7.42789063 -20.75199219 7.42789063 -19.1015625 7.67578125 C-13.35551744 8.6588804 -9.73097777 9.91631814 -5.078125 13.37890625 C-2.4259675 14.57237713 0.21904807 15.47594235 2.984375 16.37890625 C5.921875 17.37890625 5.921875 17.37890625 8.109375 18.56640625 C9.921875 19.37890625 9.921875 19.37890625 12.921875 18.37890625 C11.50661378 16.79429754 10.08971851 15.21120182 8.671875 13.62890625 C8.27613281 13.18546875 7.88039062 12.74203125 7.47265625 12.28515625 C-1.03057176 2.80614798 -1.03057176 2.80614798 -7.1875 2.15625 C-12.34421592 1.95724922 -15.73745819 2.55747282 -20.078125 5.37890625 Z M-48.74609375 13.3359375 C-49.94171002 14.98032851 -51.04711333 16.6277407 -52.078125 18.37890625 C-51.748125 19.03890625 -51.418125 19.69890625 -51.078125 20.37890625 C-50.41425781 19.88519531 -49.75039062 19.39148437 -49.06640625 18.8828125 C-48.18339844 18.24214844 -47.30039063 17.60148437 -46.390625 16.94140625 C-45.52050781 16.30332031 -44.65039062 15.66523437 -43.75390625 15.0078125 C-41.09501758 13.38918976 -39.13925331 12.77051005 -36.078125 12.37890625 C-36.078125 13.69890625 -36.078125 15.01890625 -36.078125 16.37890625 C-30.75115261 14.9260956 -27.71409698 11.29779247 -24.078125 7.37890625 C-27.46522868 4.59744362 -30.9348293 4.85374165 -35.15625 4.9375 C-40.88882733 5.8035177 -45.04142404 8.98924072 -48.74609375 13.3359375 Z M-30.55859375 16.6171875 C-32.8192107 19.23810844 -34.83012226 20.22406083 -38.078125 21.37890625 C-40.453125 21.06640625 -40.453125 21.06640625 -42.078125 20.37890625 C-42.078125 19.38890625 -42.078125 18.39890625 -42.078125 17.37890625 C-55.45693295 25.61201883 -55.45693295 25.61201883 -57.875 31.23046875 C-58.140625 32.87890625 -58.140625 32.87890625 -58.078125 35.37890625 C-56.078125 36.25390625 -56.078125 36.25390625 -53.078125 36.37890625 C-50.94456413 35.04877834 -49.06526394 33.5170713 -47.11328125 31.93359375 C-44.80681414 30.17164767 -42.62388202 29.13190895 -39.93359375 28.09765625 C-36.98893436 26.95698819 -34.15091019 25.57886758 -31.2890625 24.24609375 C-20.5587682 20.03739175 -6.78191715 21.33118679 3.734375 25.40625 C5.14424579 26.03313898 6.54180966 26.68887358 7.921875 27.37890625 C7.921875 28.03890625 7.921875 28.69890625 7.921875 29.37890625 C7.39980469 29.18554688 6.87773437 28.9921875 6.33984375 28.79296875 C-7.8562949 23.77086716 -20.76292413 23.12286624 -35.06640625 28.05078125 C-37.078125 29.37890625 -37.078125 29.37890625 -37.87109375 32.01953125 C-37.93941406 32.798125 -38.00773437 33.57671875 -38.078125 34.37890625 C-37.50964844 34.17394531 -36.94117187 33.96898438 -36.35546875 33.7578125 C-23.13291784 29.14426803 -8.12122495 28.42559346 4.93359375 34.28125 C5.44535156 34.56097656 5.95710938 34.84070313 6.484375 35.12890625 C8.921875 36.37890625 8.921875 36.37890625 11.046875 36.06640625 C11.665625 35.83953125 12.284375 35.61265625 12.921875 35.37890625 C14.25466445 35.34082655 15.58933367 35.33295655 16.921875 35.37890625 C17.251875 35.37890625 17.581875 35.37890625 17.921875 35.37890625 C18.05724274 33.94400816 18.15404643 32.50543518 18.234375 31.06640625 C18.29238281 30.26589844 18.35039062 29.46539062 18.41015625 28.640625 C17.921875 26.37890625 17.921875 26.37890625 15.77734375 24.75 C12.84886054 23.34384732 9.92176587 22.00130985 6.921875 20.75390625 C5.91125 20.32851563 4.900625 19.903125 3.859375 19.46484375 C0.921875 18.37890625 0.921875 18.37890625 -1.79296875 17.8515625 C-4.94996266 17.19857743 -6.64380665 15.43871408 -9.078125 13.37890625 C-16.66762983 8.7390343 -25.01659461 9.96948537 -30.55859375 16.6171875 Z M-51.078125 38.37890625 C-50.748125 40.02890625 -50.418125 41.67890625 -50.078125 43.37890625 C-48.94613147 42.47089005 -47.82280137 41.55206799 -46.703125 40.62890625 C-46.38988281 40.37367187 -46.38988281 40.37367187 -44.8046875 39.08203125 C-42.99500182 37.29691144 -42.07695045 35.69940981 -41.078125 33.37890625 C-45.58498186 32.51220301 -48.01525991 35.52023217 -51.078125 38.37890625 Z M-37.078125 37.37890625 C-37.078125 38.03890625 -37.078125 38.69890625 -37.078125 39.37890625 C-35.428125 39.37890625 -33.778125 39.37890625 -32.078125 39.37890625 C-32.078125 40.03890625 -32.078125 40.69890625 -32.078125 41.37890625 C-33.08875 41.56453125 -34.099375 41.75015625 -35.140625 41.94140625 C-40.00464232 43.28149266 -42.83317717 46.69012057 -46.078125 50.37890625 C-45.748125 51.03890625 -45.418125 51.69890625 -45.078125 52.37890625 C-44.35625 52.06953125 -43.634375 51.76015625 -42.890625 51.44140625 C-36.31651509 48.95785362 -36.31651509 48.95785362 -31.953125 50.44140625 C-28.45526654 52.79865869 -27.38533581 54.38037907 -26.078125 58.37890625 C-25.76683856 61.73635286 -26.19410158 64.2365643 -28.28125 66.93359375 C-30.87072742 69.3458964 -32.60589577 70.3018076 -36.140625 70.87890625 C-39.52090566 70.30353933 -41.3799232 69.49371307 -44.078125 67.37890625 C-45.890625 64.69140625 -45.890625 64.69140625 -47.078125 62.37890625 C-48.98213638 64.28291763 -50.01332939 65.71316311 -50.27734375 68.42578125 C-50.26674898 70.41759805 -50.20836715 72.39150755 -50.078125 74.37890625 C-50.738125 74.37890625 -51.398125 74.37890625 -52.078125 74.37890625 C-52.408125 71.73890625 -52.738125 69.09890625 -53.078125 66.37890625 C-54.068125 67.03890625 -55.058125 67.69890625 -56.078125 68.37890625 C-55.79452613 69.81801965 -55.50091101 71.25516143 -55.203125 72.69140625 C-55.12191406 73.09166016 -55.12191406 73.09166016 -54.7109375 75.1171875 C-54.09701122 77.3114055 -53.57625518 78.67648559 -52.078125 80.37890625 C-51.088125 80.70890625 -50.098125 81.03890625 -49.078125 81.37890625 C-48.98015625 81.89195313 -48.8821875 82.405 -48.78125 82.93359375 C-48.23078675 85.75234525 -47.65451652 88.56533407 -47.078125 91.37890625 C-47.01101318 91.71664062 -47.01101318 91.71664062 -46.67138672 93.42578125 C-44.70314868 103.26043244 -42.44476017 112.29630511 -38.078125 121.37890625 C-37.75328125 122.05953125 -37.4284375 122.74015625 -37.09375 123.44140625 C-36.44416861 124.76508154 -35.76634824 126.07490432 -35.078125 127.37890625 C-34.748125 127.21390625 -34.748125 127.21390625 -33.078125 126.37890625 C-28.76085375 125.76215321 -26.60007283 126.51643408 -23.140625 128.94140625 C-20.29795144 130.88181631 -18.75935127 131.73873876 -15.328125 131.12890625 C-14.255625 130.88140625 -13.183125 130.63390625 -12.078125 130.37890625 C-11.42972656 130.57871094 -10.78132813 130.77851563 -10.11328125 130.984375 C-8.078125 131.37890625 -8.078125 131.37890625 -6.18359375 130.3828125 C-5.86712891 130.14498047 -5.86712891 130.14498047 -4.265625 128.94140625 C-0.25361221 126.21654953 2.14584365 125.88140298 6.921875 126.37890625 C7.74170386 124.33992229 8.5527961 122.29812826 9.359375 120.25390625 C9.58947266 119.68414062 9.81957031 119.114375 10.05664062 118.52734375 C10.27900391 117.96015625 10.50136719 117.39296875 10.73046875 116.80859375 C10.83258667 116.55198975 10.83258667 116.55198975 11.34936523 115.25341797 C12.8986565 110.18072786 13.10696946 105.04931756 13.23828125 99.79296875 C13.25906235 99.091185 13.27984344 98.38940125 13.30125427 97.66635132 C13.36613824 95.44562667 13.4253473 93.22479349 13.484375 91.00390625 C13.52761854 89.48957254 13.5712346 87.97524942 13.61523438 86.4609375 C13.72175598 82.76703557 13.82319169 79.07302555 13.921875 75.37890625 C14.55609375 75.26289062 15.1903125 75.146875 15.84375 75.02734375 C17.921875 74.37890625 17.921875 74.37890625 19.171875 72.00390625 C20.4942958 67.2710318 20.07765312 62.24264533 19.921875 57.37890625 C17.81553782 59.08719546 16.98385892 59.90039041 16.62890625 62.640625 C16.64630859 63.04087891 16.64630859 63.04087891 16.734375 65.06640625 C16.76144531 65.87464844 16.78851563 66.68289062 16.81640625 67.515625 C16.83380859 67.82306641 16.83380859 67.82306641 16.921875 69.37890625 C16.261875 69.37890625 15.601875 69.37890625 14.921875 69.37890625 C14.591875 66.07890625 14.261875 62.77890625 13.921875 59.37890625 C13.261875 59.37890625 12.601875 59.37890625 11.921875 59.37890625 C11.591875 59.04890625 11.591875 59.04890625 9.921875 57.37890625 C9.695 58.45140625 9.468125 59.52390625 9.234375 60.62890625 C8.08786257 64.55411895 6.5735699 66.35018686 2.921875 68.37890625 C0.42728157 68.98400214 -1.59357048 69.05393362 -4.078125 68.37890625 C-6.74360395 66.52674011 -8.6191326 64.29689105 -10.078125 61.37890625 C-10.492348 56.98814242 -10.64676596 55.25082238 -8.203125 51.50390625 C-5.64711901 48.94790026 -4.86694551 48.40621998 -1.2578125 48.28125 C-0.16726562 48.29285156 0.92328125 48.30445313 2.046875 48.31640625 C3.14257812 48.32542969 4.23828125 48.33445312 5.3671875 48.34375 C5.78871094 48.34955078 5.78871094 48.34955078 7.921875 48.37890625 C8.086875 48.70890625 8.086875 48.70890625 8.921875 50.37890625 C9.581875 50.37890625 10.241875 50.37890625 10.921875 50.37890625 C11.293826 46.7595369 11.222813 43.80215878 9.921875 40.37890625 C2.30140251 34.45448946 -6.49814847 33.18023005 -15.890625 33.19140625 C-16.2427002 33.19180908 -16.2427002 33.19180908 -18.02441406 33.19384766 C-24.92081678 33.274851 -30.92745639 34.14027986 -37.078125 37.37890625 Z M13.921875 38.37890625 C13.81204349 43.18708559 13.97772089 47.6581357 14.921875 52.37890625 C15.705625 52.31703125 16.489375 52.25515625 17.296875 52.19140625 C19.921875 52.37890625 19.921875 52.37890625 21.0390625 53.56640625 C23.81715096 59.2700923 23.2763012 66.62152075 21.78515625 72.625 C20.921875 74.37890625 20.921875 74.37890625 18.90600586 76.0402832 C16.29759612 79.11472111 16.31970974 81.69286003 16.3125 85.55078125 C16.29596375 86.23319885 16.27942749 86.91561646 16.26239014 87.61871338 C16.21397661 89.78886979 16.19255635 91.95832597 16.171875 94.12890625 C16.14370938 95.60420177 16.11378111 97.07946476 16.08203125 98.5546875 C16.00822082 102.16270271 15.95860673 105.77033077 15.921875 109.37890625 C16.53546875 109.07210937 17.1490625 108.7653125 17.78125 108.44921875 C19.828125 107.42578125 21.875 106.40234375 23.921875 105.37890625 C24.251875 106.03890625 24.581875 106.69890625 24.921875 107.37890625 C27.83033698 102.84170557 28.15176611 99.93849177 27.44140625 94.625 C26.921875 92.37890625 26.921875 92.37890625 25.89282227 90.13696289 C24.75141006 86.89468637 24.75573688 84.43438636 24.8671875 81.00390625 C24.89252262 79.75782447 24.91724128 78.51173003 24.94140625 77.265625 C24.99048508 75.33502919 25.0459536 73.40512908 25.11376953 71.47509766 C25.51337912 59.3011646 23.7191116 48.81751961 16.921875 38.37890625 C15.931875 38.37890625 14.941875 38.37890625 13.921875 38.37890625 Z M-72.85546875 50.84375 C-74.078125 53.37890625 -74.078125 53.37890625 -74.0234375 55.89453125 C-72.85483651 58.96573054 -71.26190747 60.80250267 -69.015625 63.19140625 C-68.28214844 63.98160156 -67.54867187 64.77179688 -66.79296875 65.5859375 C-66.22707031 66.17761719 -65.66117188 66.76929687 -65.078125 67.37890625 C-63.15847191 66.78429672 -61.24249421 66.17781364 -59.328125 65.56640625 C-58.26078125 65.22996094 -57.1934375 64.89351562 -56.09375 64.546875 C-53.228805 63.43726547 -51.25370031 62.53882994 -49.078125 60.37890625 C-48.65234375 58.40625 -48.65234375 58.40625 -48.765625 56.31640625 C-48.79011719 55.62417969 -48.81460938 54.93195313 -48.83984375 54.21875 C-49.078125 52.37890625 -49.078125 52.37890625 -50.078125 50.37890625 C-50.738125 50.37890625 -51.398125 50.37890625 -52.078125 50.37890625 C-52.408125 53.01890625 -52.738125 55.65890625 -53.078125 58.37890625 C-55.03028935 56.4267419 -55.92639145 54.84690672 -57.078125 52.37890625 C-58.068125 52.37890625 -59.058125 52.37890625 -60.078125 52.37890625 C-60.47 53.30703125 -60.861875 54.23515625 -61.265625 55.19140625 C-62.86694257 58.44793188 -64.79468801 59.78155852 -68.078125 61.37890625 C-67.43875 60.55390625 -66.799375 59.72890625 -66.140625 58.87890625 C-63.64769827 55.16584989 -63.41851193 51.74123346 -63.078125 47.37890625 C-62.76489472 45.70834476 -62.44133985 44.039317 -62.078125 42.37890625 C-60.758125 42.04890625 -59.438125 41.71890625 -58.078125 41.37890625 C-58.2534375 41.57484375 -58.2534375 41.57484375 -59.140625 42.56640625 C-60.45159696 45.10095204 -59.80291951 46.69716658 -59.078125 49.37890625 C-57.428125 49.04890625 -55.778125 48.71890625 -54.078125 48.37890625 C-52.74654605 42.93153783 -52.74654605 42.93153783 -54.203125 40.50390625 C-62.49189272 35.53064562 -68.61472609 45.01835615 -72.85546875 50.84375 Z M-47.078125 44.37890625 C-47.408125 44.87390625 -47.408125 44.87390625 -49.078125 47.37890625 C-47.758125 46.71890625 -46.438125 46.05890625 -45.078125 45.37890625 C-45.738125 45.04890625 -46.398125 44.71890625 -47.078125 44.37890625 Z M-6.078125 52.37890625 C-7.67427571 55.57120767 -7.48026176 58.87457162 -7.078125 62.37890625 C-5.65916116 64.5783002 -4.58507408 65.13417221 -2.265625 66.25390625 C1.29450478 66.45734224 3.0723196 65.46858021 5.921875 63.37890625 C7.34446431 59.68955375 7.43715474 56.56101858 5.859375 52.94140625 C2.03909095 49.86053202 -2.05264589 49.54616169 -6.078125 52.37890625 Z M-47.078125 52.37890625 C-46.078125 54.37890625 -46.078125 54.37890625 -46.078125 54.37890625 Z M-42.078125 54.37890625 C-43.54662364 57.31590354 -43.4551732 60.18466768 -43.078125 63.37890625 C-42.015625 65.81640625 -42.015625 65.81640625 -40.078125 67.37890625 C-35.91716241 67.98413717 -34.14013532 68.08691313 -30.640625 65.75390625 C-28.58020729 62.62207133 -28.4013705 61.06345852 -29.078125 57.37890625 C-30.87309901 54.66161358 -32.85556225 52.63823774 -36.140625 51.94140625 C-38.39237843 52.4498667 -40.11581911 53.16092328 -42.078125 54.37890625 Z M-79.078125 53.37890625 C-81.078125 55.37890625 -81.078125 55.37890625 -81.140625 58.44140625 C-79.835571 65.79576935 -73.53980329 71.47371877 -67.75390625 75.69921875 C-66.078125 76.37890625 -66.078125 76.37890625 -63.93359375 76.18359375 C-63.32128906 75.91804688 -62.70898438 75.6525 -62.078125 75.37890625 C-61.748125 74.38890625 -61.418125 73.39890625 -61.078125 72.37890625 C-61.573125 72.15203125 -61.573125 72.15203125 -64.078125 71.00390625 C-70.69030654 67.24667886 -75.57928338 60.46952791 -78.078125 53.37890625 C-78.408125 53.37890625 -78.738125 53.37890625 -79.078125 53.37890625 Z M-86.078125 57.37890625 C-93.41803577 64.78709526 -99.74275271 73.11931743 -106.078125 81.37890625 C-106.33062012 81.70560303 -106.33062012 81.70560303 -107.60839844 83.35888672 C-130.78170586 113.39108583 -130.78170586 113.39108583 -129.078125 130.37890625 C-127.82424845 135.84625986 -123.41049238 139.19354107 -119.078125 142.37890625 C-116.24911067 143.9533201 -113.33426067 145.18339788 -110.328125 146.37890625 C-109.50248047 146.71575439 -108.67683594 147.05260254 -107.82617188 147.3996582 C-92.97131746 153.33906597 -77.56938357 157.47266572 -62.078125 161.37890625 C-61.78164062 160.42757812 -61.48515625 159.47625 -61.1796875 158.49609375 C-60.13977011 155.5533488 -59.43655931 154.30853432 -57.078125 152.37890625 C-57.738125 152.04890625 -58.398125 151.71890625 -59.078125 151.37890625 C-58.33980713 146.04661052 -55.95630383 141.67400789 -53.60546875 136.90625 C-51.91336294 133.40167939 -50.61820152 130.27945888 -50.078125 126.37890625 C-58.97188788 124.35104596 -67.86998518 122.35432743 -76.828125 120.62890625 C-77.47007813 120.50153076 -78.11203125 120.37415527 -78.7734375 120.24291992 C-88.57325785 118.39899275 -88.57325785 118.39899275 -91.7578125 120.47265625 C-91.95503906 120.7046875 -91.95503906 120.7046875 -92.953125 121.87890625 C-93.654375 122.70390625 -94.355625 123.52890625 -95.078125 124.37890625 C-93.52197239 119.34315775 -90.47081932 115.90334605 -87.140625 111.94140625 C-85.96259891 110.51640384 -84.78553283 109.09060732 -83.609375 107.6640625 C-83.01769531 106.94879395 -82.42601562 106.23352539 -81.81640625 105.49658203 C-79.21334463 102.32538027 -76.67055074 99.10858926 -74.140625 95.87890625 C-73.69041992 95.30454834 -73.24021484 94.73019043 -72.77636719 94.13842773 C-69.48653298 89.92785762 -66.24566505 85.68248387 -63.078125 81.37890625 C-63.614375 81.1571875 -64.150625 80.93546875 -64.703125 80.70703125 C-67.90143405 78.91850316 -70.3952602 76.60590766 -73.078125 74.12890625 C-73.33851562 73.89623047 -73.33851562 73.89623047 -74.65625 72.71875 C-79.49724705 68.28116937 -82.86604896 63.64645502 -85.078125 57.37890625 C-85.408125 57.37890625 -85.738125 57.37890625 -86.078125 57.37890625 Z M-59.078125 75.37890625 C-59.94125387 81.48246038 -60.14604026 87.41991011 -60.015625 93.58203125 C-60.07668126 96.31429909 -60.50558591 98.71439739 -61.078125 101.37890625 C-61.24573181 103.75004969 -61.1649895 105.99013237 -61.078125 108.37890625 C-61.0575 109.12140625 -61.036875 109.86390625 -61.015625 110.62890625 C-59.41091668 113.62436178 -56.17236871 114.31248283 -53.078125 115.37890625 C-52.748125 114.38890625 -52.418125 113.39890625 -52.078125 112.37890625 C-49.768125 112.70890625 -47.458125 113.03890625 -45.078125 113.37890625 C-45.21089844 112.83492187 -45.21089844 112.83492187 -45.8828125 110.08203125 C-46.24031415 108.59783209 -46.5970303 107.1134436 -46.953125 105.62890625 C-47.1394751 104.85772461 -47.3258252 104.08654297 -47.51782227 103.29199219 C-48.59517231 98.74055459 -49.41859325 94.26604605 -50.015625 89.62890625 C-50.79634631 84.48036569 -52.05671433 82.59603478 -56.078125 79.37890625 C-57.390625 77.06640625 -57.390625 77.06640625 -58.078125 75.37890625 C-58.408125 75.37890625 -58.738125 75.37890625 -59.078125 75.37890625 Z M-64.078125 87.37890625 C-65.74323726 89.22834828 -67.35649781 91.09638555 -68.953125 93.00390625 C-69.43765137 93.57987549 -69.92217773 94.15584473 -70.42138672 94.74926758 C-74.08627609 99.13238085 -77.66757886 103.57848486 -81.203125 108.06640625 C-81.6760498 108.66598145 -82.14897461 109.26555664 -82.63623047 109.88330078 C-83.07338379 110.44259277 -83.51053711 111.00188477 -83.9609375 111.578125 C-84.15373291 111.82477905 -84.15373291 111.82477905 -85.12939453 113.07299805 C-86.078125 114.37890625 -86.078125 114.37890625 -87.078125 116.37890625 C-82.32853495 117.23893315 -77.57796682 118.09325551 -72.82641602 118.94238281 C-71.21122785 119.23184422 -69.59631446 119.52284334 -67.98168945 119.81542969 C-65.65647344 120.23650361 -63.33031482 120.65197844 -61.00390625 121.06640625 C-60.64495522 121.13202759 -60.64495522 121.13202759 -58.82844543 121.46411133 C-55.19466782 122.10572217 -51.78623409 122.53064473 -48.078125 122.37890625 C-47.418125 120.72890625 -46.758125 119.07890625 -46.078125 117.37890625 C-46.59375 117.46140625 -46.59375 117.46140625 -49.203125 117.87890625 C-50.49441461 118.04846953 -51.78608904 118.21512704 -53.078125 118.37890625 C-53.6040625 118.45109375 -53.6040625 118.45109375 -56.265625 118.81640625 C-59.078125 118.37890625 -59.078125 118.37890625 -61.390625 116.00390625 C-65.15806181 109.28872599 -64.34754049 101.86638358 -62.453125 94.703125 C-62.01862864 92.01015274 -62.40886389 90.00482656 -63.078125 87.37890625 C-63.408125 87.37890625 -63.738125 87.37890625 -64.078125 87.37890625 Z M-41.078125 123.37890625 C-40.7942546 125.92166023 -40.50129078 128.46282179 -40.203125 131.00390625 C-40.12449219 131.71675781 -40.04585938 132.42960938 -39.96484375 133.1640625 C-39.44959611 137.48421578 -38.60800015 141.30352456 -37.078125 145.37890625 C-35.50080063 139.90315417 -34.85557396 133.48600103 -36.97265625 128.10546875 C-38.078125 126.19140625 -38.078125 126.19140625 -40.078125 123.37890625 C-40.408125 123.37890625 -40.738125 123.37890625 -41.078125 123.37890625 Z M10.921875 123.37890625 C7.35816547 127.8770589 7.38613499 132.19769467 7.234375 137.69140625 C7.20021484 138.52736328 7.16605469 139.36332031 7.13085938 140.22460938 C7.04880745 142.27590749 6.97952376 144.32680157 6.921875 146.37890625 C7.581875 146.04890625 8.241875 145.71890625 8.921875 145.37890625 C9.42431641 143.78417969 9.42431641 143.78417969 9.7734375 141.73828125 C9.90234375 140.99707031 10.03125 140.25585938 10.1640625 139.4921875 C10.29039062 138.71230469 10.41671875 137.93242187 10.546875 137.12890625 C10.61390625 136.74669922 10.61390625 136.74669922 10.953125 134.8125 C11.60490417 130.96168225 12.09439243 127.29975687 11.921875 123.37890625 C11.591875 123.37890625 11.261875 123.37890625 10.921875 123.37890625 Z M-31.078125 128.37890625 C-32.7648693 132.06029262 -33.35040084 134.96084049 -33.328125 139.00390625 C-33.33328125 139.94492188 -33.3384375 140.8859375 -33.34375 141.85546875 C-33.07637812 144.39550156 -32.85094144 145.56444647 -31.078125 147.37890625 C-28.203125 147.81640625 -28.203125 147.81640625 -25.078125 147.37890625 C-22.703125 145.37890625 -22.703125 145.37890625 -21.078125 143.37890625 C-22.398125 143.37890625 -23.718125 143.37890625 -25.078125 143.37890625 C-25.078125 142.71890625 -25.078125 142.05890625 -25.078125 141.37890625 C-23.758125 140.71890625 -22.438125 140.05890625 -21.078125 139.37890625 C-23.828125 137.37890625 -23.828125 137.37890625 -26.078125 137.37890625 C-26.078125 136.38890625 -26.078125 135.39890625 -26.078125 134.37890625 C-24.428125 134.37890625 -22.778125 134.37890625 -21.078125 134.37890625 C-24.09699744 130.8955919 -26.64722029 129.58733481 -31.078125 128.37890625 Z M-6.078125 134.37890625 C-5.43875 134.50265625 -4.799375 134.62640625 -4.140625 134.75390625 C-3.46 134.96015625 -2.779375 135.16640625 -2.078125 135.37890625 C-1.748125 136.03890625 -1.418125 136.69890625 -1.078125 137.37890625 C-2.728125 137.70890625 -4.378125 138.03890625 -6.078125 138.37890625 C-5.418125 138.70890625 -5.418125 138.70890625 -2.078125 140.37890625 C-3.32184048 142.4221531 -3.88494628 143.28231689 -6.078125 144.37890625 C-1.77043269 147.45582933 -1.77043269 147.45582933 1.734375 147.06640625 C2.0953125 146.95296875 2.0953125 146.95296875 3.921875 146.37890625 C6.046875 133.62890625 6.046875 133.62890625 3.921875 129.37890625 C-1.31231529 128.63116478 -2.8211732 130.65667562 -6.078125 134.37890625 Z M-15.078125 133.37890625 C-16.140625 134.56640625 -16.140625 134.56640625 -17.078125 136.37890625 C-16.703125 139.06640625 -16.703125 139.06640625 -16.078125 141.37890625 C-14.428125 141.37890625 -12.778125 141.37890625 -11.078125 141.37890625 C-11.078125 139.06890625 -11.078125 136.75890625 -11.078125 134.37890625 C-12.398125 134.04890625 -13.718125 133.71890625 -15.078125 133.37890625 Z M-54.078125 144.37890625 C-54.408125 145.69890625 -54.738125 147.01890625 -55.078125 148.37890625 C-54.088125 148.37890625 -53.098125 148.37890625 -52.078125 148.37890625 C-52.078125 147.05890625 -52.078125 145.73890625 -52.078125 144.37890625 C-52.738125 144.37890625 -53.398125 144.37890625 -54.078125 144.37890625 Z M24.921875 146.37890625 C24.591875 147.03890625 24.261875 147.69890625 23.921875 148.37890625 C24.581875 148.37890625 25.241875 148.37890625 25.921875 148.37890625 C25.591875 147.71890625 25.261875 147.05890625 24.921875 146.37890625 Z M25.921875 166.37890625 C26.921875 168.37890625 26.921875 168.37890625 26.921875 168.37890625 Z M23.921875 169.37890625 C24.921875 171.37890625 24.921875 171.37890625 24.921875 171.37890625 Z " fill="#1e40af" transform="translate(135.078125,26.62109375)"/>
<path d="M0 0 C5.59862247 -0.3427728 8.96189055 0.53235455 14 3 C13.67 3.99 13.34 4.98 13 6 C8.71 5.34 4.42 4.68 0 4 C0 2.68 0 1.36 0 0 Z " fill="#1e40af" transform="translate(128,64)"/>
<path d="M0 0 C0.66 0.33 1.32 0.66 2 1 C2 1.99 2 2.98 2 4 C1.01 4 0.02 4 -1 4 C-0.67 2.68 -0.34 1.36 0 0 Z " fill="#1e40af" transform="translate(134,84)"/>
<path d="M0 0 C0.99 0 1.98 0 3 0 C2.67 1.32 2.34 2.64 2 4 C1.01 3.67 0.02 3.34 -1 3 C-0.67 2.01 -0.34 1.02 0 0 Z " fill="#1e40af" transform="translate(98,86)"/>
<path d="M0 0 C0.99 0.99 1.98 1.98 3 3 C1.67770588 5.51235884 0.57298801 7.55434266 -1.6875 9.3125 C-5.1730503 10.34874468 -8.40246536 10.59245114 -12 10 C-15.44312714 7.8755173 -16.71617547 6.85147359 -18 3 C-17.67 2.34 -17.34 1.68 -17 1 C-16.01 1.33 -15.02 1.66 -14 2 C-14 2.99 -14 3.98 -14 5 C-12.37509046 5.02698189 -10.75005367 5.04638757 -9.125 5.0625 C-8.22007813 5.07410156 -7.31515625 5.08570312 -6.3828125 5.09765625 C-4 5 -4 5 -2 4 C-0.875 1.9375 -0.875 1.9375 0 0 Z " fill="#1e40af" transform="translate(125,93)"/>
<path d="M0 0 C0.96292969 -0.020625 1.92585938 -0.04125 2.91796875 -0.0625 C8.44404134 -0.0929048 12.21735317 0.18458388 16.875 3.25 C18.875 5.25 18.875 5.25 19.25390625 8.109375 C18.78208369 12.02015165 17.77798316 12.98503264 14.8125 15.5 C14.05839844 16.16515625 13.30429688 16.8303125 12.52734375 17.515625 C7.16159934 21.02430028 1.61246063 21.61210346 -4.6875 21.625 C-5.00428711 21.63724609 -5.00428711 21.63724609 -6.60742188 21.69921875 C-12.43851826 21.73525024 -15.42511877 19.59199 -19.8046875 15.79296875 C-22.13916123 13.14570606 -23.4680522 11.14933651 -23.6875 7.5625 C-23.125 4.25 -23.125 4.25 -21.625 2.375 C-15.05597728 -0.58106023 -7.06543392 0.03813999 0 0 Z M-9.125 16.25 C-9.125 16.58 -9.125 16.91 -9.125 17.25 C-4.835 17.25 -0.545 17.25 3.875 17.25 C3.875 16.92 3.875 16.59 3.875 16.25 C-0.415 16.25 -4.705 16.25 -9.125 16.25 Z " fill="#1e40af" transform="translate(121.125,103.75)"/>
<path d="M0 0 C3.43705356 1.14568452 3.86654971 2.08782515 5.4453125 5.20703125 C5.71085937 5.75746094 5.97640625 6.30789062 6.25 6.875 C6.53101562 7.41769531 6.81203125 7.96039063 7.1015625 8.51953125 C9.12669335 12.61991995 9.12669335 12.61991995 8 16 C4.09949718 14.69983239 3.68856143 13.23996087 1.75 9.6875 C1.47929688 9.20474609 1.47929688 9.20474609 0.109375 6.76171875 C-1.05503177 3.86300189 -1.15811981 2.83470023 0 0 Z " fill="#1e40af" transform="translate(79,185)"/>
<path d="M0 0 C0.99 0.33 1.98 0.66 3 1 C4.11419639 3.35615396 5.05152952 5.62236902 5.9375 8.0625 C6.45823069 9.43592517 6.98165051 10.8083339 7.5078125 12.1796875 C7.76079102 12.8406543 8.01376953 13.50162109 8.27441406 14.18261719 C9.40724745 17.02003702 10.77806111 19.70656787 12.23828125 22.38671875 C13.10495483 24.22228894 13.56469626 26.02173846 14 28 C12.68 28 11.36 28 10 28 C8.34544965 24.44148536 6.70291536 20.87755003 5.0625 17.3125 C4.59392578 16.30509766 4.12535156 15.29769531 3.64257812 14.25976562 C3.41860352 13.7715332 3.41860352 13.7715332 2.28515625 11.30078125 C1.87144775 10.40528564 1.45773926 9.50979004 1.03149414 8.5871582 C0.01547749 6.03882012 -0.6410062 3.7181809 -1 1 C-0.67 0.67 -0.34 0.34 0 0 Z " fill="#1e40af" transform="translate(171,201)"/>
<path d="M0 0 C0.99 0.33 1.98 0.66 3 1 C1.44301719 5.90543378 -1.43323673 9.37950236 -4.625 13.3125 C-4.8828125 13.63508789 -4.8828125 13.63508789 -6.1875 15.26757812 C-7.45300575 16.84946031 -8.72388341 18.42667503 -10 20 C-11.32 19.67 -12.64 19.34 -14 19 C-13.6596875 18.55011719 -13.319375 18.10023438 -12.96875 17.63671875 C-8.57646085 11.80759033 -4.2810718 5.91092147 0 0 Z " fill="#1e40af" transform="translate(147,209)"/>
</g>
</svg>
