<?xml version="1.0" encoding="UTF-8"?>
<!-- Generator: visioncortex VTracer 0.6.12 -->
<svg version="1.1" xmlns="http://www.w3.org/2000/svg" width="229" height="229" viewBox="0 0 229 229">
<g transform="translate(45.8,45.8) scale(0.6)">
<path d="M0 0 C0.7017334 0.09394043 1.4034668 0.18788086 2.12646484 0.28466797 C22.25196261 3.24009616 39.33026977 15.69374638 51.4375 31.66015625 C60.33791486 44.68468576 65.61694285 58.68880481 62.6171875 74.6875 C59.8135592 86.35107921 54.45905283 97.18400723 49.41552734 108.00878906 C46.09613963 115.14192943 43.00642433 122.27184803 40.28686523 129.65698242 C37.93737595 135.67426402 34.90179005 139.18597784 29.25 142.3125 C28.26 142.3125 27.27 142.3125 26.25 142.3125 C26.085 143.6325 26.085 143.6325 25.25 150.3125 C26.136875 150.51875 27.02375 150.725 27.9375 150.9375 C31.89762021 152.28882064 34.27429974 154.64789468 36.25 158.3125 C36.90335761 160.98357966 37.17335674 163.56727792 37.25 166.3125 C37.50523437 166.38017578 37.50523437 166.38017578 38.796875 166.72265625 C57.11474427 172.14656435 71.66911904 185.16254967 81.25 201.3125 C81.68828125 202.03566406 82.1265625 202.75882813 82.578125 203.50390625 C85.25 208.01034331 85.25 208.01034331 85.25 210.3125 C83.48046875 210.21484375 83.48046875 210.21484375 81.25 209.3125 C79.86096479 207.17392117 78.70610177 205.13780278 77.5625 202.875 C68.98527412 187.00450355 56.15842538 178.85410223 40.25 171.3125 C40.16105469 171.89515625 40.07210937 172.4778125 39.98046875 173.078125 C37.27260766 181.36099422 25.06703006 186.6990794 17.81982422 190.52783203 C13.94896147 192.46266141 10.62123322 194.00269472 6.25 193.3125 C3.57533546 190.36829563 2.35013398 187.29219843 1.0625 183.5625 C0.71832031 182.57765625 0.37414062 181.5928125 0.01953125 180.578125 C-0.23441406 179.83046875 -0.48835938 179.0828125 -0.75 178.3125 C-3.99323101 185.03697433 -4.28308676 191.43595915 -4.4375 198.8125 C-4.47166016 199.92109375 -4.50582031 201.0296875 -4.54101562 202.171875 C-4.62288667 204.88531543 -4.69223404 207.59845747 -4.75 210.3125 C-6.07 210.3125 -7.39 210.3125 -8.75 210.3125 C-8.75 202.7225 -8.75 195.1325 -8.75 187.3125 C-11.39 186.9825 -14.03 186.6525 -16.75 186.3125 C-16.729375 187.26125 -16.70875 188.21 -16.6875 189.1875 C-16.75 192.3125 -16.75 192.3125 -17.75 194.3125 C-17.90320381 195.70551984 -18.02395626 197.10222825 -18.125 198.5 C-18.56566487 202.96444079 -19.78509596 206.29726131 -21.75 210.3125 C-22.74 210.3125 -23.73 210.3125 -24.75 210.3125 C-24.3610305 205.4094371 -23.90685307 200.64863755 -22.6875 195.875 C-21.43536474 190.69950758 -21.57187851 185.60666652 -21.75 180.3125 C-22.21019531 180.92609375 -22.67039063 181.5396875 -23.14453125 182.171875 C-23.91210937 183.1953125 -23.91210937 183.1953125 -27.75 188.3125 C-31.08434242 186.9093277 -32.80526479 185.34260195 -34.9375 182.4375 C-35.19208984 182.09847656 -35.19208984 182.09847656 -36.48046875 180.3828125 C-37.73995557 178.32888014 -38.31190327 176.66661015 -38.75 174.3125 C-50.84527138 180.63277501 -58.59696706 189.2939921 -62.71875 202.390625 C-63.44745159 205.02204742 -64.12833393 207.65399305 -64.75 210.3125 C-66.07 209.9825 -67.39 209.6525 -68.75 209.3125 C-65.35483453 194.86723075 -59.22979071 182.67022783 -46.69140625 173.8671875 C-42.39488636 171.3125 -42.39488636 171.3125 -39.75 171.3125 C-39.8325 170.3225 -39.915 169.3325 -40 168.3125 C-39.98123167 163.68610636 -38.42694597 160.05211241 -35.75 156.3125 C-33.81875621 154.63090479 -32.01738637 153.5492562 -29.75 152.3125 C-29.86479393 151.04070414 -29.99227409 149.77004968 -30.125 148.5 C-30.15980469 148.14615234 -30.15980469 148.14615234 -30.3359375 146.35546875 C-30.75 144.3125 -30.75 144.3125 -31.74072266 143.02026367 C-33.13565193 140.65995156 -33.13998351 138.67300014 -33.3125 135.9453125 C-33.38726562 134.89472656 -33.46203125 133.84414062 -33.5390625 132.76171875 C-33.57386719 132.21322266 -33.57386719 132.21322266 -33.75 129.4375 C-33.88832661 127.27294471 -34.03390821 125.10883819 -34.1875 122.9453125 C-34.24808594 121.98512207 -34.30867188 121.02493164 -34.37109375 120.03564453 C-34.92249239 116.07282209 -35.65730282 113.17891101 -38.84375 110.65234375 C-39.6378125 110.18957031 -40.431875 109.72679687 -41.25 109.25 C-44.58687996 107.29445833 -46.40832168 106.00211538 -47.75 102.3125 C-48.12038935 97.49743839 -47.47614944 93.6236769 -46.08984375 89.01171875 C-45.75 87.3125 -45.75 87.3125 -46.75 85.3125 C-47.29564932 80.83996458 -47.4998976 76.81537161 -44.875 73 C-44.524375 72.5565625 -44.524375 72.5565625 -42.75 70.3125 C-40.60645503 66.88282805 -40.6609342 64.32046113 -40.75 60.3125 C-39.75 59.3125 -39.75 59.3125 -37.1875 59.25 C-36.383125 59.270625 -35.57875 59.29125 -34.75 59.3125 C-34.62431641 58.879375 -34.62431641 58.879375 -33.98828125 56.6875 C-32.82868366 53.21786998 -31.01062602 50.30593898 -28.9375 47.3125 C-28.58365234 46.79139648 -28.22980469 46.27029297 -27.86523438 45.73339844 C-25.35469439 42.07733885 -22.69863592 38.62971541 -19.75 35.3125 C-20.14832031 34.8278125 -20.54664063 34.343125 -20.95703125 33.84375 C-26.22199283 27.18248473 -29.71240717 20.97416449 -28.75 12.3125 C-27.00615027 7.63164021 -24.93025185 5.03452446 -20.75 2.3125 C-13.81707165 -0.55110084 -7.31527119 -0.98142548 0 0 Z M-18.64038086 38.69213867 C-22.28412891 42.49029946 -25.10868411 46.62048366 -27.8125 51.125 C-28.19414307 51.75865479 -28.57578613 52.39230957 -28.96899414 53.04516602 C-31.37897779 57.22552465 -33.25829714 60.79541254 -32.26171875 65.73046875 C-30.71872469 73.51611052 -33.5525577 85.45660773 -37.375 92.4375 C-38.92581834 95.68012016 -39.07281505 97.7615344 -38.75 101.3125 C-38.42 101.9725 -38.09 102.6325 -37.75 103.3125 C-34.25992094 104.34365972 -32.4278924 104.61203385 -29.0625 103.125 C-26.80887827 101.35864783 -25.31284486 99.69789479 -23.75 97.3125 C-23.09 97.6425 -22.43 97.9725 -21.75 98.3125 C-24.79154103 102.77342685 -27.19955057 105.59291363 -32.625 106.75 C-33.9959812 106.96492279 -35.37042933 107.16228008 -36.75 107.3125 C-31.89556282 111.35786432 -24.53356937 110.50464494 -18.5625 110.5 C-18.1308252 110.50032227 -18.1308252 110.50032227 -15.94628906 110.50195312 C-6.80754974 110.42902884 2.19216758 109.46009868 11.25 108.3125 C11.58 108.9725 11.91 109.6325 12.25 110.3125 C-2.67549795 112.94502877 -17.65539309 112.51143541 -32.75 112.3125 C-32.61142578 112.85414795 -32.47285156 113.3957959 -32.33007812 113.95385742 C-30.78899165 120.34648704 -30.36660973 126.45105765 -30.18359375 133.00195312 C-29.85932298 141.29905534 -29.85932298 141.29905534 -26.375 144.625 C-24.18945449 145.54965387 -22.94553132 145.06957976 -20.75 144.3125 C-21.08 142.3325 -21.41 140.3525 -21.75 138.3125 C-21.09 138.6425 -20.43 138.9725 -19.75 139.3125 C-19.523125 140.26125 -19.29625 141.21 -19.0625 142.1875 C-17.52258316 145.85396867 -17.52258316 145.85396867 -14.75 147.25 C-10.10443671 148.93929574 -5.52126251 148.10931044 -0.75 147.3125 C-0.75 148.3025 -0.75 149.2925 -0.75 150.3125 C-9.37825889 150.59233542 -17.27428836 149.8435963 -25.75 148.3125 C-25.66312207 150.43951128 -25.55631731 152.5622395 -25.4375 154.6875 C-25.41494141 155.29078125 -25.39238281 155.8940625 -25.36914062 156.515625 C-25.26171875 158.2734375 -25.26171875 158.2734375 -24.75 161.3125 C-23.26953125 162.4765625 -23.26953125 162.4765625 -21.75 163.3125 C-21.0625 165.4375 -21.0625 165.4375 -20.75 167.3125 C-20.47736328 167.25900391 -20.47736328 167.25900391 -19.09765625 166.98828125 C-14.6587082 166.28260233 -11.56939706 166.1456645 -7.375 167.875 C0.37780289 170.78565437 7.78116455 167.61369253 15.109375 164.71875 C15.70347168 164.48704102 16.29756836 164.25533203 16.90966797 164.01660156 C18.35756453 163.45142665 19.80394445 162.88236884 21.25 162.3125 C21.32516846 161.55332275 21.40033691 160.79414551 21.4777832 160.01196289 C22.27880527 152.00961321 23.13459381 144.01484556 24.05401611 136.02520752 C24.23106074 134.47801059 24.40271874 132.93019958 24.57373047 131.38232422 C24.84677578 129.01907 25.16223152 126.66723649 25.5 124.3125 C25.57259033 123.64484619 25.64518066 122.97719238 25.7199707 122.28930664 C26.14903647 119.60188808 26.6730221 117.75707959 28.8671875 116.06640625 C30.765625 115 30.765625 115 32.63378906 114.13671875 C34.25 113.3125 34.25 113.3125 35.75 111.3125 C36.33903512 108.95635954 36.05953142 107.57918797 35.25 105.3125 C34.21875 105.828125 33.1875 106.34375 32.125 106.875 C28.48676455 108.42898316 26.0982674 108.53694872 22.25 107.3125 C19.97058349 105.60703729 19.3238982 104.66788828 18.73828125 101.8515625 C18.54649268 98.6721342 18.37833429 95.4951903 18.25 92.3125 C18.17394531 91.21421875 18.09789062 90.1159375 18.01953125 88.984375 C17.59535828 79.30864568 20.12388978 73.49056751 25.80859375 65.828125 C26.26057129 65.21573975 26.71254883 64.60335449 27.17822266 63.97241211 C28.08212947 62.76608709 29.00442041 61.57326198 29.94677734 60.39672852 C33.15897457 56.19415441 33.92660141 53.6051671 33.25 48.3125 C30.90794857 43.065404 25.14290067 39.88178466 20.25 37.3125 C16.52254092 36.07001364 13.27255728 36.12851131 9.375 36.125 C8.66730469 36.11275391 7.95960937 36.10050781 7.23046875 36.08789062 C3.07057215 36.0762708 0.08766063 36.54181467 -3.75 38.3125 C-5.875 38.1875 -5.875 38.1875 -7.75 37.3125 C-8.78145371 36.00334721 -9.78542166 34.67167857 -10.75 33.3125 C-14.27865218 33.3125 -16.2418522 36.31301345 -18.64038086 38.69213867 Z M-37.75 70.3125 C-41.32649542 73.52217538 -43.32214623 75.32087266 -43.75 80.3125 C-42.76 80.3125 -41.77 80.3125 -40.75 80.3125 C-40.75 80.9725 -40.75 81.6325 -40.75 82.3125 C-42.25 83.4375 -42.25 83.4375 -43.75 84.3125 C-42.925 84.4775 -42.925 84.4775 -38.75 85.3125 C-35.91128852 81.23956614 -34.9312142 78.20528328 -34.75 73.3125 C-36.1875 71.375 -36.1875 71.375 -37.75 70.3125 Z M-42.75 92.3125 C-44.40766798 93.97016798 -43.96049503 95.91596405 -44 98.1875 C-44.02578125 99.07179688 -44.0515625 99.95609375 -44.078125 100.8671875 C-43.69503183 103.72214372 -42.96462117 104.55245897 -40.75 106.3125 C-40.09 105.9825 -39.43 105.6525 -38.75 105.3125 C-39.265625 104.6525 -39.78125 103.9925 -40.3125 103.3125 C-42.22254151 99.32632641 -41.61930797 96.53335677 -40.75 92.3125 C-41.41 92.3125 -42.07 92.3125 -42.75 92.3125 Z M25.25 153.3125 C25.25 156.2825 25.25 159.2525 25.25 162.3125 C17.04620375 166.74698446 9.22295923 169.77666369 0.25 172.3125 C2.56 178.2525 4.87 184.1925 7.25 190.3125 C17.38572246 186.93392585 17.38572246 186.93392585 20.5234375 185.15625 C21.20277344 184.77339844 21.88210937 184.39054687 22.58203125 183.99609375 C22.91912109 183.80080078 22.91912109 183.80080078 24.625 182.8125 C24.97369141 182.61720703 24.97369141 182.61720703 26.73828125 181.62890625 C29.97377254 179.78448991 32.75170437 178.12284936 35.25 175.3125 C36.61410874 169.52172468 34.76268809 162.54110831 32.25 157.3125 C30.31618673 155.3484709 28.78193094 154.52342349 26.25 153.3125 C25.92 153.3125 25.59 153.3125 25.25 153.3125 Z M-32.75 157.875 C-36.06030519 161.90943445 -37.02924796 165.99555649 -36.75 171.1875 C-35.95166229 176.3413257 -32.83275795 180.23986564 -29.75 184.3125 C-27.27733876 182.05012373 -25.686134 179.73796667 -24.0625 176.8125 C-23.62550781 176.0390625 -23.18851563 175.265625 -22.73828125 174.46875 C-21.75 172.3125 -21.75 172.3125 -21.75 169.3125 C-22.53375 168.77625 -23.3175 168.24 -24.125 167.6875 C-27.51613799 165.24741771 -27.79593612 162.07873493 -28.48828125 158.140625 C-28.57464844 157.53734375 -28.66101563 156.9340625 -28.75 156.3125 C-30.75 156.3125 -30.75 156.3125 -32.75 157.875 Z M-17.75 170.3125 C-18.84898702 173.60946105 -18.62124444 174.71744903 -17.8125 178 C-17.461875 179.423125 -17.11125 180.84625 -16.75 182.3125 C-13.45 182.6425 -10.15 182.9725 -6.75 183.3125 C-6.234375 181.889375 -5.71875 180.46625 -5.1875 179 C-4.89746094 178.19949219 -4.60742188 177.39898437 -4.30859375 176.57421875 C-3.75 174.3125 -3.75 174.3125 -4.75 171.3125 C-7.76490557 170.30753148 -9.79181692 170.20914697 -12.9375 170.25 C-13.83855469 170.25902344 -14.73960938 170.26804688 -15.66796875 170.27734375 C-16.01150391 170.28314453 -16.01150391 170.28314453 -17.75 170.3125 Z " fill="#c81e1e" transform="translate(111.75,18.6875)"/>
<path d="M0 0 C2.32805616 1.76367891 2.78275441 2.90128669 3.33984375 5.71875 C3.5 7.5625 3.5 7.5625 3 11 C-0.83303819 14.70939179 -5.91405155 14.67866557 -11 15 C-10.67 15.66 -10.34 16.32 -10 17 C-9.3256292 22.52465306 -9.81499527 28.31067707 -13 33 C-15.52378214 34.77212316 -18.10594964 35.95511721 -21 37 C-19.68 37.33 -18.36 37.66 -17 38 C-17 38.99 -17 39.98 -17 41 C-23.34681182 41.23950233 -23.34681182 41.23950233 -25.875 40.3125 C-27.50682104 38.40870878 -27.57407727 36.43384416 -28 34 C-28.66 33.34 -29.32 32.68 -30 32 C-31.54256633 26.06705258 -30.41624529 22.50234075 -28 17 C-27.67 16.01 -27.34 15.02 -27 14 C-27.433125 13.74605469 -27.86625 13.49210937 -28.3125 13.23046875 C-28.869375 12.88628906 -29.42625 12.54210937 -30 12.1875 C-30.556875 11.85105469 -31.11375 11.51460937 -31.6875 11.16796875 C-32.120625 10.78253906 -32.55375 10.39710937 -33 10 C-33 9.01 -33 8.02 -33 7 C-23.59219624 2.72963746 -10.48641298 -2.10685923 0 0 Z M-26 20 C-26.88664156 22.65992468 -27.16190316 24.32363845 -27.1875 27.0625 C-27.20167969 27.75472656 -27.21585937 28.44695312 -27.23046875 29.16015625 C-27 31 -27 31 -25 33 C-22.125 33.4375 -22.125 33.4375 -19 33 C-16.00322598 30.08646971 -14.05944748 27.04516309 -13 23 C-13 19.87406701 -13.11844726 16.96551015 -15.3125 14.5625 C-20.92898158 12.69033947 -22.99373261 15.40678104 -26 20 Z " fill="#c81e1e" transform="translate(123,76)"/>
<path d="M0 0 C0.99 0 1.98 0 3 0 C2.67 1.32 2.34 2.64 2 4 C1.01 4 0.02 4 -1 4 C-0.67 2.68 -0.34 1.36 0 0 Z " fill="#c81e1e" transform="translate(98,101)"/>
<path d="M0 0 C2.97 0 5.94 0 9 0 C9 0.99 9 1.98 9 3 C6.36 3 3.72 3 1 3 C0.67 2.01 0.34 1.02 0 0 Z " fill="#c81e1e" transform="translate(82,133)"/>
</g>
</svg>
