<?xml version="1.0" encoding="UTF-8"?>
<!-- Generator: visioncortex VTracer 0.6.12 -->
<svg version="1.1" xmlns="http://www.w3.org/2000/svg" width="229" height="229" viewBox="0 0 229 229">
<g transform="translate(45.8,45.8) scale(0.6)">
<path d="M0 0 C0.99 0 1.98 0 3 0 C2.85876202 1.29217722 2.71184563 2.58373472 2.5625 3.875 C2.48128906 4.59429688 2.40007813 5.31359375 2.31640625 6.0546875 C2 8 2 8 1 10 C0.84109355 15.26661392 2.01012778 19.36058325 4.5625 23.9375 C6.99341036 28.41840884 7.23990755 31.47599633 7.01171875 36.48828125 C6.98595577 42.01014559 8.07434961 46.95301798 11.921875 51.04296875 C14.19982136 52.88496331 16.50438221 54.46767442 19 56 C19.68835938 56.43441406 20.37671875 56.86882813 21.0859375 57.31640625 C25.58288092 59.86704412 29.85990046 61.22002363 35 60 C37.13533675 58.7993767 39.10641304 57.45033992 41.12109375 56.05859375 C43 55 43 55 46.1875 55 C49 56 49 56 51.25 57.625 C55.34831953 59.67415977 59.65411778 59.40760433 64 58 C65.17578125 56.06640625 65.17578125 56.06640625 66 54 C68 52 68 52 70.2421875 51.875 C71.99219923 51.95808661 73.74219934 52.04141848 75.4921875 52.125 C78.25709325 51.98718538 79.72676223 51.56723221 82 50 C82.95417531 48.21914695 83.48613188 46.48138531 84.09375 44.55859375 C85 43 85 43 87.09375 42.28515625 C87.40828125 42.23810547 87.40828125 42.23810547 89 42 C89.25652344 42.56589844 89.51304688 43.13179687 89.77734375 43.71484375 C91.01973372 46.09504542 92.17202946 48.02528871 94 50 C96.43666271 50.73519996 98.47335747 50.87571981 101.01171875 50.8671875 C103 51 103 51 105 53 C105.12416325 54.66321 105.17565486 56.33220393 105.1875 58 C105.58720622 63.86492015 107.65232943 67.11737376 111.30859375 71.61328125 C115.08838312 76.94688704 115.27271909 82.09125732 115.125 88.375 C115.11597656 89.11105469 115.10695313 89.84710938 115.09765625 90.60546875 C115.07430144 92.4037888 115.03843836 94.20193911 115 96 C115.9590625 95.37609375 116.918125 94.7521875 117.90625 94.109375 C118.44572266 93.75842773 118.98519531 93.40748047 119.54101562 93.04589844 C121 92 121 92 122.5 90.25 C124 89 124 89 127 88.625 C130 89 130 89 131.8125 90.3125 C134.69589014 94.40994914 134.58351446 99.20038813 134 104 C132.19389589 108.70619127 128.49100008 111.8865882 124 114 C121.36082815 114.83843727 118.71801792 115.47571228 116 116 C115.67 117.0725 115.34 118.145 115 119.25 C114.814375 119.85328125 114.62875 120.4565625 114.4375 121.078125 C113.97454213 123.1118328 113.9264194 124.92134805 114 127 C121.91152058 126.01951241 121.91152058 126.01951241 124.41796875 123.671875 C125.4375 122.125 125.4375 122.125 127 119 C127.4125 118.21625 127.825 117.4325 128.25 116.625 C128.4975 116.08875 128.745 115.5525 129 115 C131.31 115 133.62 115 136 115 C138.48731587 110.75420965 140.17397712 107.21575925 140.4375 102.25 C140.7038553 98.39450705 140.7038553 98.39450705 142.09375 96.54296875 C144.04230849 94.93993952 145.44000016 94 148 94 C148.04898438 93.52949219 148.04898438 93.52949219 148.296875 91.1484375 C149.61615915 79.79224646 149.61615915 79.79224646 152.1875 76.5625 C154 74 154 74 154 70.875 C151.20781633 58.03671218 151.20781633 58.03671218 147.95239258 53.55908203 C146.81214469 51.69247782 146.74736303 50.55562509 146.7265625 48.3828125 C146.71625 48.03798828 146.71625 48.03798828 146.6640625 46.29296875 C146.63816372 44.85558647 146.61984915 43.41804617 146.609375 41.98046875 C146.42564439 36.49917221 146.42564439 36.49917221 143.96484375 33.61328125 C140.97214706 29.63293516 141.68100068 25.88679549 141.9375 21.0625 C142.29150066 13.83982984 142.37972336 9.09374942 137.61328125 3.3203125 C137.39865234 3.12308594 137.39865234 3.12308594 136.3125 2.125 C135.549375 1.42375 134.78625 0.7225 134 0 C136.125 -0.4375 136.125 -0.4375 139 0 C143.58611662 3.76756769 145.98384803 8.16347262 147 14 C147.18476802 17.65567591 147.00135486 21.29353634 146.83398438 24.94726562 C146.71425275 29.57551223 147.1323306 31.29408877 150 35 C150.42618015 37.59582454 150.41037476 40.18617366 150.4375 42.8125 C150.62178852 48.07704792 150.80520089 51.98181366 153.9453125 56.37109375 C157.3782643 61.67309708 159.33569865 69.74779355 158 76 C157.360625 76.763125 156.72125 77.52625 156.0625 78.3125 C153.65893339 81.44442013 153.80790977 82.47992595 153.75 86.3125 C153.58014513 89.75091353 153.47002204 91.43826634 151.23828125 94.10546875 C149.78266869 95.37292314 148.32430971 96.63722999 146.86328125 97.8984375 C144.02441065 101.10035025 143.90432838 104.30034809 143.421875 108.44140625 C142.66905 113.00715047 140.23220483 115.76779517 137 119 C136.0925 119.04125 135.185 119.0825 134.25 119.125 C129.91731455 120.29149224 128.7941796 122.44740232 126.39453125 126.08984375 C124.99580279 128.00574912 124.13666811 129.00392042 122 130 C119.73828125 130.1953125 119.73828125 130.1953125 117.3125 130.125 C116.50425781 130.10695312 115.69601563 130.08890625 114.86328125 130.0703125 C114.24839844 130.04710937 113.63351563 130.02390625 113 130 C108.71228058 137.13859669 106.90107812 144.97834886 105 153 C104.80019531 153.79921875 104.60039062 154.5984375 104.39453125 155.421875 C103.82558676 159.1397301 103.85565985 162.80728765 103.875 166.5625 C103.87113281 167.31724609 103.86726563 168.07199219 103.86328125 168.84960938 C103.86457031 169.58115234 103.86585938 170.31269531 103.8671875 171.06640625 C103.86775146 171.39612427 103.86775146 171.39612427 103.87060547 173.06469727 C104.01130902 175.16914458 104.33751374 176.99665877 105 179 C106.74609375 180.00390625 106.74609375 180.00390625 109 181 C126.15347987 193.64964885 138.96212464 209.29814843 149 228 C147.68 228.33 146.36 228.66 145 229 C144.77505859 228.57589844 144.77505859 228.57589844 143.63671875 226.4296875 C133.99916719 208.68463828 121.06598527 194.16275241 105 182 C102.35515253 184.05323685 100.09879324 185.87650845 98 188.5 C95.86063365 191.17420793 93.87366995 193.13211453 91 195 C88.875 195 88.875 195 87 194 C85.25 191.9375 85.25 191.9375 84 190 C82.95766434 192.08467132 82.79080355 193.32625025 82.61108398 195.62353516 C82.55109726 196.36415192 82.49111053 197.10476868 82.42930603 197.86782837 C82.36884598 198.66683563 82.30838593 199.4658429 82.24609375 200.2890625 C82.18092056 201.10748627 82.11574738 201.92591003 82.04859924 202.76913452 C81.84099814 205.38746577 81.63918543 208.00620707 81.4375 210.625 C81.29790656 212.39846749 81.15793736 214.17190545 81.01757812 215.9453125 C80.67331243 220.29650498 80.33687227 224.64820352 80 229 C73.07 229 66.14 229 59 229 C60.12465781 223.37671095 60.12465781 223.37671095 61.21508789 220.63427734 C61.45526138 220.02369476 61.69543488 219.41311218 61.94288635 218.7840271 C62.07154839 218.46259232 62.07154839 218.46259232 62.72265625 216.8359375 C63.26630221 215.45313529 63.8099212 214.07032247 64.35351562 212.6875 C65.21022331 210.52318586 66.06863436 208.35955769 66.92797852 206.19628906 C67.75958387 204.09863994 68.58509417 201.99866706 69.41015625 199.8984375 C69.66950455 199.25151947 69.92885284 198.60460144 70.19606018 197.93807983 C71.30098073 195.12112044 72 193.05789407 72 190 C67.93474673 191.48155897 66.23997063 194.17182893 64.125 197.75 C63.95278931 198.03637329 63.95278931 198.03637329 63.08129883 199.4855957 C57.6618112 208.73902245 53.72288647 218.63392344 51 229 C50.01 229 49.02 229 48 229 C48.46267166 223.53011341 49.5149265 218.81281944 51.625 213.75 C51.88716309 213.10885254 52.14932617 212.46770508 52.41943359 211.80712891 C55.43529814 204.64954797 59.01858527 197.45535496 64.11328125 191.55078125 C66.28274048 188.61774424 66.8596606 186.37090076 67.5625 182.8125 C68.66871917 177.2401786 68.66871917 177.2401786 70.5625 175.8671875 C71.036875 175.58101562 71.51125 175.29484375 72 175 C75.39504801 162.18445842 65.8546958 144.8434442 60 134 C59 132.28735352 59 132.28735352 58 131 C56.1953125 130.91796875 56.1953125 130.91796875 54.125 131.1875 C51.94921875 131.28125 51.94921875 131.28125 50 131 C47.9375 128.1875 47.9375 128.1875 47.0703125 126.51953125 C45.39667354 124.14345257 43.14154634 123.67083491 40.484375 122.72265625 C39 122 39 122 38.0625 119.8125 C38.041875 119.214375 38.02125 118.61625 38 118 C38.721875 117.443125 39.44375 116.88625 40.1875 116.3125 C45.03334481 112.40013238 48.6519169 108.87020775 51 103 C50.67 102.34 50.34 101.68 50 101 C49.54166667 94.8125 49.54166667 94.8125 51.375 91.5625 C53 90 53 90 55 90 C55 88.35 55 86.7 55 85 C53.68 84.67 52.36 84.34 51 84 C51.24363281 83.47148438 51.48726562 82.94296875 51.73828125 82.3984375 C52.134563 78.76684056 50.15109042 76.5089196 48.1875 73.625 C45.41840847 69.48827688 43.37214468 65.80613638 42 61 C41.21625 61.495 40.4325 61.99 39.625 62.5 C34.67549086 64.93973446 29.12602661 64.97434596 23.89453125 63.34375 C15.85103883 59.61901898 7.1914067 53.42084816 3.8125 45.0625 C3.03131268 42.03705418 2.88930485 39.08228124 2.76416016 35.96728516 C2.50287904 29.68821723 1.51114679 25.43921859 -1.91015625 20.07421875 C-4.24781547 15.62512539 -3.57317673 11.13964267 -2.3125 6.43359375 C-1.60434939 4.25807337 -0.84431907 2.12587481 0 0 Z M87 46 C86.79375 46.4640625 86.79375 46.4640625 85.75 48.8125 C84.42513893 51.79343741 82.83334987 53.36042166 80 55 C77.34375 55.1171875 77.34375 55.1171875 74.5 54.875 C71.5546875 54.78125 71.5546875 54.78125 69 55 C66.625 57.375 66.625 57.375 65 60 C61.22961411 62.13994875 57.26974429 62.78867888 53 62 C51.04081914 61.05405207 49.27901628 59.99969756 47.48046875 58.77734375 C46.99191406 58.52082031 46.50335938 58.26429687 46 58 C45.67 58.165 45.67 58.165 44 59 C52.60836338 76.88654178 52.60836338 76.88654178 56 80 C58.14453125 80.66796875 58.14453125 80.66796875 60 81 C59.34 81.66 58.68 82.32 58 83 C57.5 85.3125 57.5 85.3125 58 88 C59.44258483 89.39091015 60.99434084 90.54313454 62.58984375 91.75390625 C64 93 64 93 65 95.4375 C65 98.66425586 64.18512799 101.00599244 63 104 C62.71640625 104.78503906 62.4328125 105.57007813 62.140625 106.37890625 C60.90655586 109.21472952 59.39156184 111.44761582 57.5625 113.9375 C51 123.125 51 123.125 51 128 C53.64854928 127.92210149 55.4394681 127.48990187 57.45703125 125.7265625 C61.20226084 121.51688491 63.97776256 116.85731539 66.703125 111.94140625 C67.13109375 111.30074219 67.5590625 110.66007812 68 110 C68.66 110 69.32 110 70 110 C69.34 111.98 68.68 113.96 68 116 C68.54414551 116.0093457 69.08829102 116.01869141 69.64892578 116.02832031 C72.14183121 116.08238715 74.63293226 116.16595666 77.125 116.25 C77.9809375 116.26417969 78.836875 116.27835937 79.71875 116.29296875 C86.51596105 116.55439994 89.87725434 118.08543738 94.875 122.75 C95.24625 123.1625 95.6175 123.575 96 124 C95.835 124.495 95.835 124.495 95 127 C94.22398438 126.98839844 93.44796875 126.97679688 92.6484375 126.96484375 C84.38290441 126.89579992 76.2351355 127.30859432 68 128 C68.99 128.99 69.98 129.98 71 131 C66.25 130.25 66.25 130.25 64 128 C61.875 128.375 61.875 128.375 60 129 C60.37511719 129.59425781 60.75023438 130.18851562 61.13671875 130.80078125 C69.65979764 144.60516343 74.57496068 158.61307333 76.3125 174.70703125 C77 177 77 177 78.8359375 178.328125 C82.5063741 179.46768293 85.31247199 178.86691459 89 178 C89.87011719 177.86335937 90.74023438 177.72671875 91.63671875 177.5859375 C95.10644355 176.58300975 96.62228523 175.76671589 99 173 C100.61176733 167.76778826 100.86689251 162.25021511 101.36328125 156.82421875 C101.86237472 151.52407261 102.92893808 146.64079573 104.5 141.5625 C104.70214111 140.89637695 104.90428223 140.23025391 105.11254883 139.54394531 C106.11067192 136.39079286 107.25079863 133.36840141 108.59765625 130.34765625 C109.83709059 127.53576384 110.50020581 124.93114589 110.9375 121.875 C111.75875254 117.58623673 112.50226639 114.86993527 116 112 C118.96591398 111.03185191 121.91470176 110.44169868 125 110 C124.80664062 109.37738281 124.61328125 108.75476563 124.4140625 108.11328125 C124.27742188 107.41589844 124.14078125 106.71851563 124 106 C124.45375 105.401875 124.9075 104.80375 125.375 104.1875 C127.62996766 101.15196661 127.64077385 98.735952 128 95 C128.66 95 129.32 95 130 95 C129.67 94.01 129.34 93.02 129 92 C125.40387812 92.31730487 123.57252558 93.21908877 121 95.625 C118.3427306 98.00761624 118.3427306 98.00761624 115.1875 97.9375 C113 97 113 97 112 95 C112.00415398 93.41733339 112.01401924 91.83426231 112.06591797 90.25244141 C112.37551541 80.41440698 110.53574334 74.44513223 104.3046875 66.6640625 C102.04628807 63.78358897 101.88613889 61.97027754 101.9375 58.375 C101.94652344 57.55773438 101.95554688 56.74046875 101.96484375 55.8984375 C101.97644531 55.27195312 101.98804688 54.64546875 102 54 C101.39671875 53.98582031 100.7934375 53.97164062 100.171875 53.95703125 C93.5626072 53.5626072 93.5626072 53.5626072 90.5625 50.5625 C90.046875 49.716875 89.53125 48.87125 89 48 C88.34 47.34 87.68 46.68 87 46 Z M53.6875 93.1875 C52.79949394 95.52860689 52.8658466 97.51816218 53 100 C54.32 100 55.64 100 57 100 C57 100.99 57 101.98 57 103 C58.9375 102.625 58.9375 102.625 61 102 C62.38125018 99.23749964 62.19079306 97.05268901 62 94 C60 92 60 92 57.5 91.6875 C55 92 55 92 53.6875 93.1875 Z M130 96 C130 97.98 130 99.96 130 102 C130.33 102 130.66 102 131 102 C131 100.02 131 98.04 131 96 C130.67 96 130.34 96 130 96 Z M129 103 C130 105 130 105 130 105 Z M128 105 C127.505 105.66 127.505 105.66 125 109 C126.32 108.34 127.64 107.68 129 107 C128.67 106.34 128.34 105.68 128 105 Z M52 108 C49 111.31034483 49 111.31034483 49 114 C51.29296875 114.25 51.29296875 114.25 54 114 C55.80078125 112.25 55.80078125 112.25 57.3125 110 C57.82425781 109.2575 58.33601563 108.515 58.86328125 107.75 C59.05083984 107.46125 59.05083984 107.46125 60 106 C56.69747512 106 54.93840447 106.53079777 52 108 Z M42 118 C42.33 118.99 42.66 119.98 43 121 C46.0625 122.1875 46.0625 122.1875 49 123 C49.99 121.02 50.98 119.04 52 117 C50.7084482 116.97296752 49.41673447 116.95358922 48.125 116.9375 C47.40570313 116.92589844 46.68640625 116.91429688 45.9453125 116.90234375 C44 117 44 117 42 118 Z M65 119 C64.01 120.98 63.02 122.96 62 125 C64.99997881 125.0294382 67.99991963 125.04694403 71 125.0625 C71.83917969 125.07087891 72.67835937 125.07925781 73.54296875 125.08789062 C79.84160967 125.11230396 85.9851576 125.00494747 92 123 C86.58858404 118.37205503 82.05552792 118.50583506 75.125 118.75 C74.15046875 118.76804687 73.1759375 118.78609375 72.171875 118.8046875 C69.78022193 118.85158266 67.39063403 118.91719093 65 119 Z M92.375 179 C91.76398438 179.28617188 91.15296875 179.57234375 90.5234375 179.8671875 C89.01402614 180.57472408 87.50680145 181.28692213 86 182 C86.4794463 186.21912747 87.16625119 188.79663178 90 192 C99.5299463 183.97356464 99.5299463 183.97356464 102 180 C101.75 177.6875 101.75 177.6875 101 176 C97.82118832 176 95.19891972 177.66044834 92.375 179 Z M72 179 C73 181 73 181 73 181 Z M71 181 C71 182.65 71 184.3 71 186 C71.33 186 71.66 186 72 186 C72 184.35 72 182.7 72 181 C71.67 181 71.34 181 71 181 Z " fill="#1e40af" transform="translate(30,0)"/>
<path d="M0 0 C1.45945288 0.08708669 2.91765868 0.19526907 4.375 0.3125 C4.78105469 0.34150391 4.78105469 0.34150391 6.8359375 0.48828125 C9 1 9 1 10.2890625 2.54296875 C10.40636719 2.78337891 10.40636719 2.78337891 11 4 C8.00468461 4.99843846 6.82744268 5.00732761 3.8125 4.5625 C3.09707031 4.46066406 2.38164063 4.35882813 1.64453125 4.25390625 C1.37318359 4.21201172 1.37318359 4.21201172 0 4 C0 2.68 0 1.36 0 0 Z " fill="#1e40af" transform="translate(106,73)"/>
<path d="M0 0 C2.96689453 1.84744127 5.42691893 3.85383787 7 7 C7.67180257 12.24965721 7.79951584 16.57172648 4.5625 20.9375 C4.11003906 21.46214844 3.65757813 21.98679687 3.19140625 22.52734375 C2 24 2 24 1 27 C-0.98 27.33 -2.96 27.66 -5 28 C-5.226875 27.278125 -5.45375 26.55625 -5.6875 25.8125 C-7.30583977 22.34462906 -9.23392263 20.62422725 -12 18 C-13.61461257 14.77077487 -13.48673407 11.53868822 -13 8 C-10.32265093 1.92957487 -6.63421419 -0.91057842 0 0 Z M-8 5 C-10.5414092 9.235682 -9.90879507 12.36514515 -9 17 C-7.68 16.67 -6.36 16.34 -5 16 C-4.67 17.65 -4.34 19.3 -4 21 C-1.11050316 20.68762196 0.58633099 20.35661121 2.8125 18.4375 C4.52635393 14.91958931 4.82751334 11.83389206 4 8 C2.54881502 5.68144008 1.2592907 4.68133261 -1 3 C-4.19219704 3 -5.39608549 3.23605791 -8 5 Z " fill="#1e40af" transform="translate(112,84)"/>
<path d="M0 0 C0.66 0.33 1.32 0.66 2 1 C-0.08545727 5.8125937 -0.08545727 5.8125937 -3 7 C-5.6875 6.625 -5.6875 6.625 -8 6 C-8 5.34 -8 4.68 -8 4 C-7.50628906 3.79503906 -7.01257813 3.59007812 -6.50390625 3.37890625 C-5.86324219 3.10949219 -5.22257812 2.84007812 -4.5625 2.5625 C-3.92441406 2.29566406 -3.28632812 2.02882812 -2.62890625 1.75390625 C-1 1 -1 1 0 0 Z " fill="#1e40af" transform="translate(109,139)"/>
<path d="M0 0 C0.66 0.33 1.32 0.66 2 1 C1.26951699 5.68803656 -0.36636885 9.90885555 -2.0625 14.3125 C-2.34416016 15.05306641 -2.62582031 15.79363281 -2.91601562 16.55664062 C-3.60719685 18.37245571 -4.3019375 20.1868217 -5 22 C-5.99 22 -6.98 22 -8 22 C-7.45577432 16.70740527 -6.18481806 12.45839467 -4 7.625 C-3.72671875 6.99722656 -3.4534375 6.36945313 -3.171875 5.72265625 C-1.16276544 1.16276544 -1.16276544 1.16276544 0 0 Z " fill="#1e40af" transform="translate(92,207)"/>
</g>
</svg>
