<?xml version="1.0" encoding="UTF-8"?>
<svg version="1.1" xmlns="http://www.w3.org/2000/svg" width="229" height="229" viewBox="0 0 229 229">
<defs>
<filter id="glow">
<feGaussianBlur stdDeviation="4" result="blur"/>
<feMerge>
<feMergeNode in="blur"/>
<feMergeNode in="blur"/>
<feMergeNode in="SourceGraphic"/>
</feMerge>
</filter>
</defs>
<g transform="translate(22.9,22.9) scale(0.8)">
<g transform="translate(2,2)">
<path d="M0 0 C4.48720821 3.23596746 8.49741947 6.88232346 12.4375 10.7578125 C12.79972656 11.11359375 12.79972656 11.11359375 14.6328125 12.9140625 C25.28726231 24.09515811 28.8067965 36.51752456 28.57421875 51.6171875 C28.39666878 55.69576388 28.02205297 59.71813391 27.4375 63.7578125 C28.365625 63.8403125 29.29375 63.9228125 30.25 64.0078125 C33.4375 64.7578125 33.4375 64.7578125 35.3125 66.4453125 C37.05456992 70.02623401 37.0808995 72.76756338 35.8515625 76.5703125 C32.34702195 84.54394605 25.8997992 90.9021049 19.125 96.1953125 C14.39412074 100.21138694 12.99471639 104.89256092 11.4375 110.7578125 C11.13199219 111.69367188 10.82648438 112.62953125 10.51171875 113.59375 C8.67142401 120.33205997 8.67142401 120.33205997 10.5625 123.8515625 C11.75625374 125.2884883 12.98546265 126.69630065 14.23828125 128.08203125 C24.33941246 140.37203992 35.4375 163.56109068 35.4375 179.7578125 C34.4475 179.7578125 33.4575 179.7578125 32.4375 179.7578125 C32.24752441 179.14075439 32.05754883 178.52369629 31.86181641 177.88793945 C28.28022223 166.38751495 24.50878345 155.20393712 19.3125 144.3203125 C19.11503174 143.90446899 19.11503174 143.90446899 18.11572266 141.80004883 C15.33047767 136.13266582 12.05324477 130.93078753 8.4375 125.7578125 C5.49221609 127.19300952 2.91528547 128.78737591 0.25 130.6953125 C-12.59395127 139.27883115 -29.49033169 140.29278651 -44.37792969 137.40576172 C-51.52648331 135.7540886 -57.50696423 132.97033122 -63.5390625 128.83203125 C-64.20679688 128.47753906 -64.87453125 128.12304688 -65.5625 127.7578125 C-69.75004144 129.15365965 -70.89364589 131.66412412 -73.25 135.2578125 C-73.68844238 135.92345215 -74.12688477 136.5890918 -74.57861328 137.27490234 C-81.89643459 148.68264046 -86.936607 160.74408763 -90.5625 173.7578125 C-91.20736225 175.76591587 -91.88220157 177.76128449 -92.5625 179.7578125 C-93.5525 179.7578125 -94.5425 179.7578125 -95.5625 179.7578125 C-93.33149253 161.60202757 -84.90375207 143.76096938 -73.4440918 129.61230469 C-71.346025 126.99801349 -70.0629523 125.07628339 -69.5625 121.7578125 C-70.11548737 118.200361 -71.19298728 114.77754038 -72.1875 111.3203125 C-72.43628906 110.37865234 -72.68507813 109.43699219 -72.94140625 108.46679688 C-74.55518352 102.7784327 -75.98550282 99.51576808 -80.5625 95.7578125 C-95.43494026 81.73387914 -95.43494026 81.73387914 -97.1875 72.4453125 C-96.37410451 68.94771189 -95.16661331 67.22116293 -92.5625 64.7578125 C-89.8125 63.9453125 -89.8125 63.9453125 -87.5625 63.7578125 C-87.6346875 63.19835937 -87.706875 62.63890625 -87.78125 62.0625 C-89.66005352 45.83172518 -89.30331081 30.66187374 -79.5625 16.7578125 C-60.52027146 -6.92071387 -26.5833534 -16.9554081 0 0 Z M-75.48388672 16.28173828 C-84.27383356 28.31071488 -87.17226214 41.86749302 -85.0625 56.54296875 C-83.81260188 64.0621224 -81.93603358 70.37902241 -77.5625 76.7578125 C-77.2325 76.7578125 -76.9025 76.7578125 -76.5625 76.7578125 C-76.38951036 63.24539961 -76.38951036 63.24539961 -77.0625 58.3828125 C-78.21213009 49.37174134 -79.562632 37.78768551 -74.5625 29.7578125 C-71.85129782 26.45353484 -69.82259104 25.01842791 -65.49609375 24.51953125 C-59.37529062 24.33753554 -54.07074484 25.27061968 -48.1875 26.7578125 C-34.6706796 30.04727878 -21.03282499 30.30913099 -7.69311523 26.20141602 C-1.97839305 24.46111386 3.517044 23.67114652 9.4375 24.7578125 C13.42997357 26.89413608 15.16303496 30.55597361 16.4375 34.7578125 C16.71032713 38.09419702 16.67165001 41.41242363 16.625 44.7578125 C16.61855469 45.71445801 16.61210937 46.67110352 16.60546875 47.65673828 C16.5002648 57.70207151 16.0206099 67.73018322 15.4375 77.7578125 C22.86095872 71.07980571 24.63028329 60.0227629 25.6953125 50.4375 C26.31466549 37.92656956 21.79579088 26.63074866 14.4375 16.7578125 C14.24929687 16.47873047 14.24929687 16.47873047 13.296875 15.06640625 C5.69991138 4.66310159 -8.23371051 -2.58480205 -20.5625 -5.2421875 C-40.51069968 -7.72391596 -62.6280451 0.52642207 -75.48388672 16.28173828 Z M-71.5625 28.7578125 C-76.90273004 35.81454505 -76.19962546 45.52936188 -75.3359375 53.97265625 C-75.24570313 54.62363281 -75.15546875 55.27460937 -75.0625 55.9453125 C-74.0546251 63.46888569 -74.48287008 71.18316917 -74.5625 78.7578125 C-75.8825 78.7578125 -77.2025 78.7578125 -78.5625 78.7578125 C-79.7875284 81.2078693 -79.44407229 81.73100127 -78.625 84.2578125 C-77.98929584 86.24491425 -77.5625 87.6609384 -77.5625 89.7578125 C-80.15913324 87.4983112 -81.05889673 85.74863258 -81.9375 82.4453125 C-83.29867185 78.0994878 -84.97320849 74.66691757 -88.5625 71.7578125 C-91.375 70.8828125 -91.375 70.8828125 -93.5625 70.7578125 C-93.33201755 81.59048748 -83.85005909 88.71272303 -76.5625 95.7578125 C-75.89202637 96.34796143 -75.22155273 96.93811035 -74.53076172 97.54614258 C-72.24842092 100.11073267 -71.71273928 101.86170513 -70.95703125 105.1875 C-70.69470703 106.23035156 -70.43238281 107.27320313 -70.16210938 108.34765625 C-69.64018502 110.52601052 -69.13476621 112.70839008 -68.64648438 114.89453125 C-67.20574266 120.49856738 -66.05097964 124.03629623 -61.15234375 127.37109375 C-59.64554825 128.20969033 -58.11693503 129.01121447 -56.5625 129.7578125 C-56.08554688 129.99306641 -56.08554688 129.99306641 -53.671875 131.18359375 C-52.89328125 131.47621094 -52.1146875 131.76882812 -51.3125 132.0703125 C-50.91804688 132.22306641 -50.91804688 132.22306641 -48.921875 132.99609375 C-35.69007301 137.26795035 -17.17880913 136.61239063 -4.73046875 130.328125 C4.67270562 124.92029082 4.67270562 124.92029082 6.17358398 120.67651367 C6.2577356 120.28451782 6.2577356 120.28451782 6.68359375 118.30078125 C6.88146484 117.43517578 7.07933594 116.56957031 7.28320312 115.67773438 C7.67513509 113.86812111 8.06577775 112.05822809 8.45507812 110.24804688 C10.402202 101.74749636 13.72728617 97.06474994 20.3125 91.4453125 C26.17335321 86.24001383 32.06259952 80.79531689 33.3125 72.6953125 C33.35375 71.7259375 33.395 70.7565625 33.4375 69.7578125 C27.79019973 71.52951455 25.34395533 73.45440501 22.4375 78.6171875 C21.03353065 81.62255939 20.17808259 84.52617939 19.4375 87.7578125 C18.4375 86.7578125 18.4375 86.7578125 18.33984375 85.12890625 C18.37239583 83.33854167 18.40494792 81.54817708 18.4375 79.7578125 C16.7875 79.4278125 15.1375 79.0978125 13.4375 78.7578125 C13.32314602 73.24340942 13.47882926 67.81790122 13.9375 62.3203125 C14.39180853 56.48961041 14.61048907 50.66804719 14.6875 44.8203125 C14.70876953 44.02761963 14.73003906 43.23492676 14.75195312 42.41821289 C14.78330904 37.11402394 13.9954301 33.43739023 11.4375 28.7578125 C7.50513977 25.65376069 3.23292487 26.23790037 -1.5625 26.7578125 C-4.00720046 27.30954839 -6.40632651 27.99625708 -8.8125 28.6953125 C-23.4551949 32.89740222 -36.80645019 31.69024908 -51.375 28.1328125 C-57.98621225 26.54644367 -65.43062133 24.97047568 -71.5625 28.7578125 Z M28.4375 66.7578125 C25.875 67.9453125 25.875 67.9453125 23.4375 69.7578125 C23.1075 71.0778125 22.7775 72.3978125 22.4375 73.7578125 C25.0775 71.7778125 27.7175 69.7978125 30.4375 67.7578125 C29.7775 67.4278125 29.1175 67.0978125 28.4375 66.7578125 Z M-89.5625 67.7578125 C-88.60828192 68.90707516 -87.64897955 70.05211791 -86.6875 71.1953125 C-86.15382813 71.83339844 -85.62015625 72.47148438 -85.0703125 73.12890625 C-83.5625 74.7578125 -83.5625 74.7578125 -81.5625 75.7578125 C-83.3125 70.0078125 -83.3125 70.0078125 -85.5625 67.7578125 C-87.6875 67.6328125 -87.6875 67.6328125 -89.5625 67.7578125 Z M30.4375 67.7578125 C31.0975 68.4178125 31.7575 69.0778125 32.4375 69.7578125 C32.4375 69.0978125 32.4375 68.4378125 32.4375 67.7578125 C31.7775 67.7578125 31.1175 67.7578125 30.4375 67.7578125 Z M-81.5625 75.7578125 C-81.2325 76.7478125 -80.9025 77.7378125 -80.5625 78.7578125 C-80.5625 77.7678125 -80.5625 76.7778125 -80.5625 75.7578125 C-80.8925 75.7578125 -81.2225 75.7578125 -81.5625 75.7578125 Z " fill="#142d7a" transform="translate(144.5625,49.2421875)"/>
<path d="M0 0 C5.28712631 0.02065284 7.84824101 0.88395169 11.8125 4.3125 C8.80218256 5.24673645 7.94599732 5.35699911 4.8125 4.3125 C2.91779184 4.2439505 1.0208166 4.22769628 -0.875 4.25 C-1.86886719 4.25902344 -2.86273438 4.26804687 -3.88671875 4.27734375 C-4.64597656 4.28894531 -5.40523437 4.30054687 -6.1875 4.3125 C-6.1875 -0.59089577 -4.42315277 0.11341417 0 0 Z " fill="#142d7a" transform="translate(135.1875,96.6875)"/>
<path d="M0 0 C1.4375 1.5 1.4375 1.5 2 3 C-0.24137697 4.12068849 -1.76278675 4.19734191 -4.25 4.375 C-8.49602157 4.79342862 -11.34343079 5.84356175 -15 8 C-15 7.01 -15 6.02 -15 5 C-10.11147376 0.50784076 -6.42484363 -0.46726136 0 0 Z " fill="#142d7a" transform="translate(93,98)"/>
<path d="M0 0 C3.46836583 2.28596839 5.42839537 4.18127648 7 8 C7.74892176 12.29909896 7.98072396 16.32735424 5.7265625 20.171875 C2.65720494 23.79521416 0.635705 25.77549147 -4.1875 26.4375 C-8.40352553 26.40214549 -10.59826376 24.34686811 -13.6171875 21.60546875 C-16.47831968 18.2836458 -16.33832627 14.45229484 -16.27734375 10.28515625 C-15.84612102 6.73212393 -14.55748957 4.47066122 -12 2 C-7.70068048 -0.8973675 -4.9684016 -1.58566009 0 0 Z M-12 7 C-13.46700846 9.93401693 -13.39217186 12.80758348 -13 16 C-11.81941713 18.52982043 -10.61445892 20.32409519 -8.75 22.375 C-5.73407299 23.45211679 -2.94938606 23.01887882 0 22 C2.51334966 19.87331952 3.76055255 18.3468919 4.34375 15.06640625 C4.54688828 10.58889994 3.84207739 7.60725207 1 4 C-4.3181886 1.3409057 -8.52169077 2.45144177 -12 7 Z " fill="#142d7a" transform="translate(95,105)"/>
<path d="M0 0 C3.51052487 2.50642278 5.61072414 5.23713648 6.546875 9.4765625 C6.7880876 13.91219428 6.45698476 17.04576669 3.625 20.5625 C1.03411752 23.23671496 -1.03067474 24.18759214 -4.75 24.375 C-8.80447576 24.32339758 -10.92888114 23.21921508 -13.80859375 20.41796875 C-16.52565459 17.18422093 -17 14.81457513 -17 10.625 C-16.19603444 6.15416711 -13.3412891 2.94232921 -10 0 C-6.36284696 -1.21238435 -3.57214196 -1.31882878 0 0 Z M-11.5 4.4375 C-13.72780389 8.24333165 -13.92504768 11.70349754 -13 16 C-11.53135785 18.20550413 -10.12950456 19.34963396 -8 21 C-7.34 20.67 -6.68 20.34 -6 20 C-6 19.01 -6 18.02 -6 17 C-5.34 17 -4.68 17 -4 17 C-4 18.32 -4 19.64 -4 21 C1.37049229 19.16272632 1.37049229 19.16272632 3 16 C3.74186373 11.87661787 3.37282145 8.7456429 1.5 5 C-1.54102296 2.56718163 -3.28194447 2.3092869 -7.09375 2.59375 C-9 3 -9 3 -11.5 4.4375 Z " fill="#142d7a" transform="translate(142,106)"/>
<path d="M0 0 C0.99 0.33 1.98 0.66 3 1 C2.67 2.32 2.34 3.64 2 5 C1.01 4.67 0.02 4.34 -1 4 C-0.67 2.68 -0.34 1.36 0 0 Z " fill="#142d7a" transform="translate(90,122)"/>
<path d="M0 0 C0.66 0.33 1.32 0.66 2 1 C2.86073185 12.82071747 2.86073185 12.82071747 -0.3125 16.6875 C-2.98453371 19.40767846 -5.52694864 19.94644702 -9.3125 20.375 C-13.14526179 20.34245001 -15.07724756 18.8117148 -17.8359375 16.2890625 C-20.27923661 13.5833957 -20.10763567 11.39558192 -20.0625 7.875 C-20.05347656 6.96492187 -20.04445313 6.05484375 -20.03515625 5.1171875 C-20.02355469 4.41851562 -20.01195313 3.71984375 -20 3 C-19.01 3 -18.02 3 -17 3 C-16.34 6.96 -15.68 10.92 -15 15 C-7.66666667 16.22222222 -7.66666667 16.22222222 -4.5625 15.1875 C-3 14 -3 14 -2 12 C-1.68744353 9.14792222 -1.48962518 6.29503146 -1.28125 3.43359375 C-1 1 -1 1 0 0 Z " fill="#142d7a" transform="translate(124,123)"/>
<path d="M0 0 C0.99257812 0.26554688 1.98515625 0.53109375 3.0078125 0.8046875 C27.00291568 7.0986801 47.8679708 6.27306551 72 1 C72 1.99 72 2.98 72 4 C49.06356003 11.73307142 22.40895688 13.84659584 0 3 C0 2.01 0 1.02 0 0 Z " fill="#142d7a" transform="translate(78,138)"/>
<path d="M0 0 C0.45826172 0.00580078 0.45826172 0.00580078 2.77734375 0.03515625 C3.69644531 0.04417969 4.61554688 0.05320313 5.5625 0.0625 C6.27277344 0.07410156 6.98304687 0.08570313 7.71484375 0.09765625 C7.71484375 1.08765625 7.71484375 2.07765625 7.71484375 3.09765625 C5.04594883 3.62382793 2.43908596 4.0654167 -0.28515625 4.09765625 C-2.28515625 2.66015625 -2.28515625 2.66015625 -3.28515625 1.09765625 C-2.28515625 0.09765625 -2.28515625 0.09765625 0 0 Z " fill="#142d7a" transform="translate(111.28515625,149.90234375)"/>
<path d="M0 0 C0.83265381 0.00523682 1.66530762 0.01047363 2.52319336 0.01586914 C3.42231445 0.0190918 4.32143555 0.02231445 5.24780273 0.02563477 C5.72056641 0.02982422 5.72056641 0.02982422 8.11303711 0.05102539 C9.06243164 0.05553711 10.01182617 0.06004883 10.98999023 0.06469727 C13.34356776 0.07652429 15.69702188 0.09300514 18.05053711 0.11352539 C18.05053711 1.10352539 18.05053711 2.09352539 18.05053711 3.11352539 C14.39343225 4.25006926 10.7844022 4.33198757 6.98803711 4.36352539 C6.67576172 4.37383789 6.67576172 4.37383789 5.09545898 4.42602539 C2.16523346 4.45104332 0.46550917 4.43879642 -1.88305664 2.59790039 C-2.2349707 2.10805664 -2.58688477 1.61821289 -2.94946289 1.11352539 C-1.94946289 0.11352539 -1.94946289 0.11352539 0 0 Z " fill="#142d7a" transform="translate(105.949462890625,161.886474609375)"/>
<path d="M0 0 C3.96 0 7.92 0 12 0 C12 0.99 12 1.98 12 3 C8.04 3 4.08 3 0 3 C0 2.01 0 1.02 0 0 Z " fill="#142d7a" transform="translate(108,191)"/>
<path d="M0 0 C0.66 0.33 1.32 0.66 2 1 C1.67 2.65 1.34 4.3 1 6 C0.01 6 -0.98 6 -2 6 C-1.34 4.02 -0.68 2.04 0 0 Z " fill="#142d7a" transform="translate(68,223)"/>
<path d="M0 0 C0.66 0.33 1.32 0.66 2 1 C2 2.65 2 4.3 2 6 C1.01 6 0.02 6 -1 6 C-1.042721 4.33388095 -1.04063832 2.66617115 -1 1 C-0.67 0.67 -0.34 0.34 0 0 Z " fill="#142d7a" transform="translate(160,223)"/>
</g>
<g filter="url(#glow)">
<path d="M0 0 C4.48720821 3.23596746 8.49741947 6.88232346 12.4375 10.7578125 C12.79972656 11.11359375 12.79972656 11.11359375 14.6328125 12.9140625 C25.28726231 24.09515811 28.8067965 36.51752456 28.57421875 51.6171875 C28.39666878 55.69576388 28.02205297 59.71813391 27.4375 63.7578125 C28.365625 63.8403125 29.29375 63.9228125 30.25 64.0078125 C33.4375 64.7578125 33.4375 64.7578125 35.3125 66.4453125 C37.05456992 70.02623401 37.0808995 72.76756338 35.8515625 76.5703125 C32.34702195 84.54394605 25.8997992 90.9021049 19.125 96.1953125 C14.39412074 100.21138694 12.99471639 104.89256092 11.4375 110.7578125 C11.13199219 111.69367188 10.82648438 112.62953125 10.51171875 113.59375 C8.67142401 120.33205997 8.67142401 120.33205997 10.5625 123.8515625 C11.75625374 125.2884883 12.98546265 126.69630065 14.23828125 128.08203125 C24.33941246 140.37203992 35.4375 163.56109068 35.4375 179.7578125 C34.4475 179.7578125 33.4575 179.7578125 32.4375 179.7578125 C32.24752441 179.14075439 32.05754883 178.52369629 31.86181641 177.88793945 C28.28022223 166.38751495 24.50878345 155.20393712 19.3125 144.3203125 C19.11503174 143.90446899 19.11503174 143.90446899 18.11572266 141.80004883 C15.33047767 136.13266582 12.05324477 130.93078753 8.4375 125.7578125 C5.49221609 127.19300952 2.91528547 128.78737591 0.25 130.6953125 C-12.59395127 139.27883115 -29.49033169 140.29278651 -44.37792969 137.40576172 C-51.52648331 135.7540886 -57.50696423 132.97033122 -63.5390625 128.83203125 C-64.20679688 128.47753906 -64.87453125 128.12304688 -65.5625 127.7578125 C-69.75004144 129.15365965 -70.89364589 131.66412412 -73.25 135.2578125 C-73.68844238 135.92345215 -74.12688477 136.5890918 -74.57861328 137.27490234 C-81.89643459 148.68264046 -86.936607 160.74408763 -90.5625 173.7578125 C-91.20736225 175.76591587 -91.88220157 177.76128449 -92.5625 179.7578125 C-93.5525 179.7578125 -94.5425 179.7578125 -95.5625 179.7578125 C-93.33149253 161.60202757 -84.90375207 143.76096938 -73.4440918 129.61230469 C-71.346025 126.99801349 -70.0629523 125.07628339 -69.5625 121.7578125 C-70.11548737 118.200361 -71.19298728 114.77754038 -72.1875 111.3203125 C-72.43628906 110.37865234 -72.68507813 109.43699219 -72.94140625 108.46679688 C-74.55518352 102.7784327 -75.98550282 99.51576808 -80.5625 95.7578125 C-95.43494026 81.73387914 -95.43494026 81.73387914 -97.1875 72.4453125 C-96.37410451 68.94771189 -95.16661331 67.22116293 -92.5625 64.7578125 C-89.8125 63.9453125 -89.8125 63.9453125 -87.5625 63.7578125 C-87.6346875 63.19835937 -87.706875 62.63890625 -87.78125 62.0625 C-89.66005352 45.83172518 -89.30331081 30.66187374 -79.5625 16.7578125 C-60.52027146 -6.92071387 -26.5833534 -16.9554081 0 0 Z M-75.48388672 16.28173828 C-84.27383356 28.31071488 -87.17226214 41.86749302 -85.0625 56.54296875 C-83.81260188 64.0621224 -81.93603358 70.37902241 -77.5625 76.7578125 C-77.2325 76.7578125 -76.9025 76.7578125 -76.5625 76.7578125 C-76.38951036 63.24539961 -76.38951036 63.24539961 -77.0625 58.3828125 C-78.21213009 49.37174134 -79.562632 37.78768551 -74.5625 29.7578125 C-71.85129782 26.45353484 -69.82259104 25.01842791 -65.49609375 24.51953125 C-59.37529062 24.33753554 -54.07074484 25.27061968 -48.1875 26.7578125 C-34.6706796 30.04727878 -21.03282499 30.30913099 -7.69311523 26.20141602 C-1.97839305 24.46111386 3.517044 23.67114652 9.4375 24.7578125 C13.42997357 26.89413608 15.16303496 30.55597361 16.4375 34.7578125 C16.71032713 38.09419702 16.67165001 41.41242363 16.625 44.7578125 C16.61855469 45.71445801 16.61210937 46.67110352 16.60546875 47.65673828 C16.5002648 57.70207151 16.0206099 67.73018322 15.4375 77.7578125 C22.86095872 71.07980571 24.63028329 60.0227629 25.6953125 50.4375 C26.31466549 37.92656956 21.79579088 26.63074866 14.4375 16.7578125 C14.24929687 16.47873047 14.24929687 16.47873047 13.296875 15.06640625 C5.69991138 4.66310159 -8.23371051 -2.58480205 -20.5625 -5.2421875 C-40.51069968 -7.72391596 -62.6280451 0.52642207 -75.48388672 16.28173828 Z M-71.5625 28.7578125 C-76.90273004 35.81454505 -76.19962546 45.52936188 -75.3359375 53.97265625 C-75.24570313 54.62363281 -75.15546875 55.27460937 -75.0625 55.9453125 C-74.0546251 63.46888569 -74.48287008 71.18316917 -74.5625 78.7578125 C-75.8825 78.7578125 -77.2025 78.7578125 -78.5625 78.7578125 C-79.7875284 81.2078693 -79.44407229 81.73100127 -78.625 84.2578125 C-77.98929584 86.24491425 -77.5625 87.6609384 -77.5625 89.7578125 C-80.15913324 87.4983112 -81.05889673 85.74863258 -81.9375 82.4453125 C-83.29867185 78.0994878 -84.97320849 74.66691757 -88.5625 71.7578125 C-91.375 70.8828125 -91.375 70.8828125 -93.5625 70.7578125 C-93.33201755 81.59048748 -83.85005909 88.71272303 -76.5625 95.7578125 C-75.89202637 96.34796143 -75.22155273 96.93811035 -74.53076172 97.54614258 C-72.24842092 100.11073267 -71.71273928 101.86170513 -70.95703125 105.1875 C-70.69470703 106.23035156 -70.43238281 107.27320313 -70.16210938 108.34765625 C-69.64018502 110.52601052 -69.13476621 112.70839008 -68.64648438 114.89453125 C-67.20574266 120.49856738 -66.05097964 124.03629623 -61.15234375 127.37109375 C-59.64554825 128.20969033 -58.11693503 129.01121447 -56.5625 129.7578125 C-56.08554688 129.99306641 -56.08554688 129.99306641 -53.671875 131.18359375 C-52.89328125 131.47621094 -52.1146875 131.76882812 -51.3125 132.0703125 C-50.91804688 132.22306641 -50.91804688 132.22306641 -48.921875 132.99609375 C-35.69007301 137.26795035 -17.17880913 136.61239063 -4.73046875 130.328125 C4.67270562 124.92029082 4.67270562 124.92029082 6.17358398 120.67651367 C6.2577356 120.28451782 6.2577356 120.28451782 6.68359375 118.30078125 C6.88146484 117.43517578 7.07933594 116.56957031 7.28320312 115.67773438 C7.67513509 113.86812111 8.06577775 112.05822809 8.45507812 110.24804688 C10.402202 101.74749636 13.72728617 97.06474994 20.3125 91.4453125 C26.17335321 86.24001383 32.06259952 80.79531689 33.3125 72.6953125 C33.35375 71.7259375 33.395 70.7565625 33.4375 69.7578125 C27.79019973 71.52951455 25.34395533 73.45440501 22.4375 78.6171875 C21.03353065 81.62255939 20.17808259 84.52617939 19.4375 87.7578125 C18.4375 86.7578125 18.4375 86.7578125 18.33984375 85.12890625 C18.37239583 83.33854167 18.40494792 81.54817708 18.4375 79.7578125 C16.7875 79.4278125 15.1375 79.0978125 13.4375 78.7578125 C13.32314602 73.24340942 13.47882926 67.81790122 13.9375 62.3203125 C14.39180853 56.48961041 14.61048907 50.66804719 14.6875 44.8203125 C14.70876953 44.02761963 14.73003906 43.23492676 14.75195312 42.41821289 C14.78330904 37.11402394 13.9954301 33.43739023 11.4375 28.7578125 C7.50513977 25.65376069 3.23292487 26.23790037 -1.5625 26.7578125 C-4.00720046 27.30954839 -6.40632651 27.99625708 -8.8125 28.6953125 C-23.4551949 32.89740222 -36.80645019 31.69024908 -51.375 28.1328125 C-57.98621225 26.54644367 -65.43062133 24.97047568 -71.5625 28.7578125 Z M28.4375 66.7578125 C25.875 67.9453125 25.875 67.9453125 23.4375 69.7578125 C23.1075 71.0778125 22.7775 72.3978125 22.4375 73.7578125 C25.0775 71.7778125 27.7175 69.7978125 30.4375 67.7578125 C29.7775 67.4278125 29.1175 67.0978125 28.4375 66.7578125 Z M-89.5625 67.7578125 C-88.60828192 68.90707516 -87.64897955 70.05211791 -86.6875 71.1953125 C-86.15382813 71.83339844 -85.62015625 72.47148438 -85.0703125 73.12890625 C-83.5625 74.7578125 -83.5625 74.7578125 -81.5625 75.7578125 C-83.3125 70.0078125 -83.3125 70.0078125 -85.5625 67.7578125 C-87.6875 67.6328125 -87.6875 67.6328125 -89.5625 67.7578125 Z M30.4375 67.7578125 C31.0975 68.4178125 31.7575 69.0778125 32.4375 69.7578125 C32.4375 69.0978125 32.4375 68.4378125 32.4375 67.7578125 C31.7775 67.7578125 31.1175 67.7578125 30.4375 67.7578125 Z M-81.5625 75.7578125 C-81.2325 76.7478125 -80.9025 77.7378125 -80.5625 78.7578125 C-80.5625 77.7678125 -80.5625 76.7778125 -80.5625 75.7578125 C-80.8925 75.7578125 -81.2225 75.7578125 -81.5625 75.7578125 Z " fill="#1e40af" transform="translate(144.5625,49.2421875)"/>
<path d="M0 0 C5.28712631 0.02065284 7.84824101 0.88395169 11.8125 4.3125 C8.80218256 5.24673645 7.94599732 5.35699911 4.8125 4.3125 C2.91779184 4.2439505 1.0208166 4.22769628 -0.875 4.25 C-1.86886719 4.25902344 -2.86273438 4.26804687 -3.88671875 4.27734375 C-4.64597656 4.28894531 -5.40523437 4.30054687 -6.1875 4.3125 C-6.1875 -0.59089577 -4.42315277 0.11341417 0 0 Z " fill="#1e40af" transform="translate(135.1875,96.6875)"/>
<path d="M0 0 C1.4375 1.5 1.4375 1.5 2 3 C-0.24137697 4.12068849 -1.76278675 4.19734191 -4.25 4.375 C-8.49602157 4.79342862 -11.34343079 5.84356175 -15 8 C-15 7.01 -15 6.02 -15 5 C-10.11147376 0.50784076 -6.42484363 -0.46726136 0 0 Z " fill="#1e40af" transform="translate(93,98)"/>
<path d="M0 0 C3.46836583 2.28596839 5.42839537 4.18127648 7 8 C7.74892176 12.29909896 7.98072396 16.32735424 5.7265625 20.171875 C2.65720494 23.79521416 0.635705 25.77549147 -4.1875 26.4375 C-8.40352553 26.40214549 -10.59826376 24.34686811 -13.6171875 21.60546875 C-16.47831968 18.2836458 -16.33832627 14.45229484 -16.27734375 10.28515625 C-15.84612102 6.73212393 -14.55748957 4.47066122 -12 2 C-7.70068048 -0.8973675 -4.9684016 -1.58566009 0 0 Z M-12 7 C-13.46700846 9.93401693 -13.39217186 12.80758348 -13 16 C-11.81941713 18.52982043 -10.61445892 20.32409519 -8.75 22.375 C-5.73407299 23.45211679 -2.94938606 23.01887882 0 22 C2.51334966 19.87331952 3.76055255 18.3468919 4.34375 15.06640625 C4.54688828 10.58889994 3.84207739 7.60725207 1 4 C-4.3181886 1.3409057 -8.52169077 2.45144177 -12 7 Z " fill="#1e40af" transform="translate(95,105)"/>
<path d="M0 0 C3.51052487 2.50642278 5.61072414 5.23713648 6.546875 9.4765625 C6.7880876 13.91219428 6.45698476 17.04576669 3.625 20.5625 C1.03411752 23.23671496 -1.03067474 24.18759214 -4.75 24.375 C-8.80447576 24.32339758 -10.92888114 23.21921508 -13.80859375 20.41796875 C-16.52565459 17.18422093 -17 14.81457513 -17 10.625 C-16.19603444 6.15416711 -13.3412891 2.94232921 -10 0 C-6.36284696 -1.21238435 -3.57214196 -1.31882878 0 0 Z M-11.5 4.4375 C-13.72780389 8.24333165 -13.92504768 11.70349754 -13 16 C-11.53135785 18.20550413 -10.12950456 19.34963396 -8 21 C-7.34 20.67 -6.68 20.34 -6 20 C-6 19.01 -6 18.02 -6 17 C-5.34 17 -4.68 17 -4 17 C-4 18.32 -4 19.64 -4 21 C1.37049229 19.16272632 1.37049229 19.16272632 3 16 C3.74186373 11.87661787 3.37282145 8.7456429 1.5 5 C-1.54102296 2.56718163 -3.28194447 2.3092869 -7.09375 2.59375 C-9 3 -9 3 -11.5 4.4375 Z " fill="#1e40af" transform="translate(142,106)"/>
<path d="M0 0 C0.99 0.33 1.98 0.66 3 1 C2.67 2.32 2.34 3.64 2 5 C1.01 4.67 0.02 4.34 -1 4 C-0.67 2.68 -0.34 1.36 0 0 Z " fill="#1e40af" transform="translate(90,122)"/>
<path d="M0 0 C0.66 0.33 1.32 0.66 2 1 C2.86073185 12.82071747 2.86073185 12.82071747 -0.3125 16.6875 C-2.98453371 19.40767846 -5.52694864 19.94644702 -9.3125 20.375 C-13.14526179 20.34245001 -15.07724756 18.8117148 -17.8359375 16.2890625 C-20.27923661 13.5833957 -20.10763567 11.39558192 -20.0625 7.875 C-20.05347656 6.96492187 -20.04445313 6.05484375 -20.03515625 5.1171875 C-20.02355469 4.41851562 -20.01195313 3.71984375 -20 3 C-19.01 3 -18.02 3 -17 3 C-16.34 6.96 -15.68 10.92 -15 15 C-7.66666667 16.22222222 -7.66666667 16.22222222 -4.5625 15.1875 C-3 14 -3 14 -2 12 C-1.68744353 9.14792222 -1.48962518 6.29503146 -1.28125 3.43359375 C-1 1 -1 1 0 0 Z " fill="#1e40af" transform="translate(124,123)"/>
<path d="M0 0 C0.99257812 0.26554688 1.98515625 0.53109375 3.0078125 0.8046875 C27.00291568 7.0986801 47.8679708 6.27306551 72 1 C72 1.99 72 2.98 72 4 C49.06356003 11.73307142 22.40895688 13.84659584 0 3 C0 2.01 0 1.02 0 0 Z " fill="#1e40af" transform="translate(78,138)"/>
<path d="M0 0 C0.45826172 0.00580078 0.45826172 0.00580078 2.77734375 0.03515625 C3.69644531 0.04417969 4.61554688 0.05320313 5.5625 0.0625 C6.27277344 0.07410156 6.98304687 0.08570313 7.71484375 0.09765625 C7.71484375 1.08765625 7.71484375 2.07765625 7.71484375 3.09765625 C5.04594883 3.62382793 2.43908596 4.0654167 -0.28515625 4.09765625 C-2.28515625 2.66015625 -2.28515625 2.66015625 -3.28515625 1.09765625 C-2.28515625 0.09765625 -2.28515625 0.09765625 0 0 Z " fill="#1e40af" transform="translate(111.28515625,149.90234375)"/>
<path d="M0 0 C0.83265381 0.00523682 1.66530762 0.01047363 2.52319336 0.01586914 C3.42231445 0.0190918 4.32143555 0.02231445 5.24780273 0.02563477 C5.72056641 0.02982422 5.72056641 0.02982422 8.11303711 0.05102539 C9.06243164 0.05553711 10.01182617 0.06004883 10.98999023 0.06469727 C13.34356776 0.07652429 15.69702188 0.09300514 18.05053711 0.11352539 C18.05053711 1.10352539 18.05053711 2.09352539 18.05053711 3.11352539 C14.39343225 4.25006926 10.7844022 4.33198757 6.98803711 4.36352539 C6.67576172 4.37383789 6.67576172 4.37383789 5.09545898 4.42602539 C2.16523346 4.45104332 0.46550917 4.43879642 -1.88305664 2.59790039 C-2.2349707 2.10805664 -2.58688477 1.61821289 -2.94946289 1.11352539 C-1.94946289 0.11352539 -1.94946289 0.11352539 0 0 Z " fill="#1e40af" transform="translate(105.949462890625,161.886474609375)"/>
<path d="M0 0 C3.96 0 7.92 0 12 0 C12 0.99 12 1.98 12 3 C8.04 3 4.08 3 0 3 C0 2.01 0 1.02 0 0 Z " fill="#1e40af" transform="translate(108,191)"/>
<path d="M0 0 C0.66 0.33 1.32 0.66 2 1 C1.67 2.65 1.34 4.3 1 6 C0.01 6 -0.98 6 -2 6 C-1.34 4.02 -0.68 2.04 0 0 Z " fill="#1e40af" transform="translate(68,223)"/>
<path d="M0 0 C0.66 0.33 1.32 0.66 2 1 C2 2.65 2 4.3 2 6 C1.01 6 0.02 6 -1 6 C-1.042721 4.33388095 -1.04063832 2.66617115 -1 1 C-0.67 0.67 -0.34 0.34 0 0 Z " fill="#1e40af" transform="translate(160,223)"/>
</g>
</g>
</svg>
