<?xml version="1.0" encoding="UTF-8"?>
<svg version="1.1" xmlns="http://www.w3.org/2000/svg" width="229" height="229" viewBox="0 0 229 229">
<defs>
<filter id="glow">
<feGaussianBlur stdDeviation="4" result="blur"/>
<feMerge>
<feMergeNode in="blur"/>
<feMergeNode in="blur"/>
<feMergeNode in="SourceGraphic"/>
</feMerge>
</filter>
</defs>
<g transform="translate(34.35,34.35) scale(0.7)">
<g transform="translate(2,2)">
<path d="M0 0 C3.04476997 2.56165149 5.88257917 5.24768098 8.03125 8.6171875 C9 10 9 10 11.5 11.5 C13.89762141 12.93857284 14.62161826 13.7026971 16 16 C16.77601562 15.87882812 17.55203125 15.75765625 18.3515625 15.6328125 C20.64399863 15.27718398 22.93681114 14.92563963 25.23046875 14.578125 C27.65301582 14.21052302 30.07130455 13.8243622 32.48828125 13.421875 C48.0865714 10.94875991 61.47472891 10.76449792 74.93359375 20.37109375 C81.95286223 25.90424112 86.16884032 31.50652095 89 40 C89.09357692 41.85227252 89.12993909 43.7078718 89.125 45.5625 C89.12757813 46.53316406 89.13015625 47.50382812 89.1328125 48.50390625 C89 51 89 51 88 53 C88.08950823 55.33010147 88.23341265 57.61747256 88.4375 59.9375 C89 66.76388889 89 66.76388889 89 70 C89.33 70.99 89.66 71.98 90 73 C90.33 73.99 90.66 74.98 91 76 C90.67 76.66 90.34 77.32 90 78 C90.99 77.67 91.98 77.34 93 77 C93.66 78.32 94.32 79.64 95 81 C94.34 81.66 93.68 82.32 93 83 C92.51318262 84.5898949 92.08222495 86.19727582 91.6875 87.8125 C90.33413883 92.58378863 88.92226496 94.98287311 85 98 C84.34 98 83.68 98 83 98 C82.82984375 98.59167969 82.6596875 99.18335938 82.484375 99.79296875 C80.74883632 105.45193263 79.18616652 110.27774783 73.6875 113.25 C70.45266659 114.15274421 67.33538037 114.60760231 64 115 C62.85942492 121.46325879 62.85942492 121.46325879 63.6875 124.625 C64 127 64 127 62.0625 129.8125 C61.381875 130.534375 60.70125 131.25625 60 132 C60.969375 132.268125 61.93875 132.53625 62.9375 132.8125 C67.24151323 134.65461766 69.49782196 137.73903002 72.30151367 141.38696289 C75.35020663 145.31731354 78.68276201 148.7877934 82.25 152.25 C92.09242684 161.8960998 92.09242684 161.8960998 93.78125 167.671875 C95.17288737 172.03000364 97.83230493 175.61448782 100.375 179.375 C110 193.68382353 110 193.68382353 110 199 C109.01 199 108.02 199 107 199 C106.01 196.36 105.02 193.72 104 191 C96.43107575 192.38127253 90.73862144 193.56341127 85 199 C84.01 198.67 83.02 198.34 82 198 C86.01821372 193.66080471 89.50225685 190.27955204 95 188 C91.9848985 185.11052773 89.1949414 184.22398037 85.1328125 183.88671875 C77.66380459 184.2834243 72.3358893 190.1221266 67.19921875 194.9765625 C63.91578619 197.99755374 63.91578619 197.99755374 62 199 C59.8125 198.625 59.8125 198.625 58 198 C59.32 196.68 60.64 195.36 62 194 C48.11512441 189.4823107 48.11512441 189.4823107 41.24609375 192.86328125 C39.1122809 194.19498614 37.33728295 195.3751231 36.125 197.62109375 C35 199 35 199 32.8359375 199.29296875 C32.02382812 199.25816406 31.21171875 199.22335938 30.375 199.1875 C29.55773437 199.16042969 28.74046875 199.13335937 27.8984375 199.10546875 C27.27195312 199.07066406 26.64546875 199.03585938 26 199 C28.88087546 196.59927045 31.56404834 194.52708963 35 193 C33.29763764 189.24819169 30.99747453 186.60488836 28.2421875 183.5859375 C27 182 27 182 27 180 C30.24759446 181.39994772 32.11620667 183.0445494 34.4375 185.6875 C36.28515625 187.57421875 36.28515625 187.57421875 38 189 C40.375 189 40.375 189 43 188 C50.07413825 186.25385195 55.43139468 187.79812011 62.08203125 190.28515625 C65 191 65 191 67.0703125 190.37890625 C70.41671346 187.98765212 73.52065188 185.33292277 76.66015625 182.6796875 C79 181 79 181 82 181 C81.39414063 180.16339844 80.78828125 179.32679688 80.1640625 178.46484375 C75.09096689 171.42727717 70.14696475 164.32721591 65.40087891 157.06420898 C63.09280576 153.55219498 60.68073368 150.23768976 58 147 C57.79955078 147.24234375 57.79955078 147.24234375 56.78515625 148.46875 C45.86939581 161.33994145 32.98437879 171.19305785 16 174 C12.32981525 174.29193092 8.65224395 174.43956042 4.97460938 174.60546875 C4.60561523 174.62416016 4.60561523 174.62416016 2.73828125 174.71875 C2.06837158 174.74904297 1.39846191 174.77933594 0.70825195 174.81054688 C-1 175 -1 175 -3 176 C-3.29750255 178.72380117 -3.4113953 181.28373614 -3 184 C-0.9375 185.9375 -0.9375 185.9375 0.421875 186.80078125 C3.92377136 189.46187576 6.56637015 193.36708858 9 197 C9 197.66 9 198.32 9 199 C5.79580145 198.71855013 4.99753608 197.99711793 2.859375 195.49609375 C2.14516532 194.4842967 1.44230042 193.46441229 0.75 192.4375 C0.56824219 192.17743164 0.56824219 192.17743164 -0.3515625 190.86132812 C-1.24423988 189.58104083 -2.12346838 188.29139489 -3 187 C-2.67 190.96 -2.34 194.92 -2 199 C-2.99 199 -3.98 199 -5 199 C-8.8326232 183.26019793 -9.1586171 169.36070359 -4 154 C-5.03640625 153.97421875 -6.0728125 153.9484375 -7.140625 153.921875 C-8.51045801 153.86558049 -9.88024805 153.80823345 -11.25 153.75 C-11.93191406 153.73582031 -12.61382812 153.72164062 -13.31640625 153.70703125 C-16.51690316 153.55166732 -18.62021453 153.2089122 -21.45703125 151.6484375 C-24.00345256 147.27761813 -23.54208021 142.83557555 -23.4375 137.875 C-23.42356201 136.76552002 -23.40962402 135.65604004 -23.39526367 134.51293945 C-22.76335036 105.25761735 -19.68539767 68.5999208 -4.1015625 43.06640625 C-3 41 -3 41 -3 38 C-3.78375 37.46375 -4.5675 36.9275 -5.375 36.375 C-8.76613799 33.93491771 -9.04593612 30.76623493 -9.73828125 26.828125 C-9.82464844 26.22484375 -9.91101563 25.6215625 -10 25 C-11.093125 24.773125 -12.18625 24.54625 -13.3125 24.3125 C-13.61994141 24.24869141 -13.61994141 24.24869141 -15.17578125 23.92578125 C-17 24 -17 24 -18.53979492 25.25317383 C-23.19447681 30.82151506 -22.17725374 39.81751404 -22 46.625 C-21.89849145 54.95823919 -22.12976069 63.19289045 -22.8125 71.5 C-22.88275391 72.4482666 -22.95300781 73.3965332 -23.02539062 74.37353516 C-23.58571497 80.61666897 -24.38509924 86.38509924 -29 91 C-32.11711712 91.57992877 -34.12418606 91.55480586 -36.84375 89.83203125 C-40.32018307 86.96692009 -43.05223127 84.12468672 -45 80 C-45 79.34 -45 78.68 -45 78 C-45.7425 78.680625 -46.485 79.36125 -47.25 80.0625 C-50 82 -50 82 -52.1875 82.0625 C-54.92163509 80.45973115 -55.10837272 79.06472753 -56 76 C-56.29806902 72.43503332 -56.28393012 68.88803241 -56.25 65.3125 C-56.24323242 64.29027344 -56.23646484 63.26804687 -56.22949219 62.21484375 C-55.95644177 41.84401228 -54.29586531 19.59190132 -39.625 4.0625 C-27.85755058 -6.97564351 -13.68269892 -8.85085475 0 0 Z M-41.54296875 9.75 C-53.4499572 28.13719933 -56.00671949 57.71630605 -52 79 C-48.66462511 77.88820837 -47.36292656 76.52588702 -45 74 C-44.61328125 74.75925781 -44.2265625 75.51851563 -43.828125 76.30078125 C-43.30734375 77.29464844 -42.7865625 78.28851563 -42.25 79.3125 C-41.73953125 80.29863281 -41.2290625 81.28476563 -40.703125 82.30078125 C-39.00231031 84.99633848 -37.7406924 86.41553721 -35 88 C-31.75 88.1875 -31.75 88.1875 -29 88 C-28.690625 87.01 -28.38125 86.02 -28.0625 85 C-27.88847656 84.443125 -27.71445312 83.88625 -27.53515625 83.3125 C-26.08061803 77.02719615 -25.8509218 70.68443947 -25.7890625 64.2578125 C-25.7609977 62.59764633 -25.73233326 60.9374902 -25.703125 59.27734375 C-25.66196898 56.7016627 -25.62501198 54.12617018 -25.59863281 51.55029297 C-25.35817588 29.86356507 -25.35817588 29.86356507 -20.1875 22.375 C-17.04761665 20.40135904 -15.67814743 20.30600992 -12 21 C-10.4916167 21.97714612 -9.01438124 23.0032193 -7.5625 24.0625 C-2.73774666 27.4983092 -2.73774666 27.4983092 0.8125 27.125 C4.3221745 25.88629135 5.86485284 25.03847865 8 22 C9.125 19.375 9.125 19.375 9 16 C6.0740253 9.00953904 1.68040921 3.63492854 -5 0 C-18.41434667 -5.26339488 -32.61263506 -1.72254547 -41.54296875 9.75 Z M12 16 C11.78085938 16.60328125 11.56171875 17.2065625 11.3359375 17.828125 C9.51283685 22.42293153 8.06492471 25.8258478 3.66015625 28.29296875 C0.8257058 29.50011118 -2.00409865 30.28098368 -5 31 C-4.67 31.99 -4.34 32.98 -4 34 C-2.35 34.33 -0.7 34.66 1 35 C1 35.66 1 36.32 1 37 C5.04780259 38.34926753 7.56352724 37.86971884 11.28515625 36.078125 C14.21542184 34.23586235 16.36898636 32.06366076 18 29 C18.3125 25.625 18.3125 25.625 18 23 C17.34 22.67 16.68 22.34 16 22 C15.34 22.66 14.68 23.32 14 24 C13.67 21.36 13.34 18.72 13 16 C12.67 16 12.34 16 12 16 Z M35.375 16.375 C34.45976563 16.50132813 33.54453125 16.62765625 32.6015625 16.7578125 C27.8576244 17.44335269 23.48125801 18.28789146 19 20 C19.4125 21.010625 19.825 22.02125 20.25 23.0625 C21.11227649 26.13319684 21.04043161 27.78762075 19.5625 30.625 C17.06093792 34.32731188 14.1007173 37.15869753 10 39 C7.7578125 39.17578125 7.7578125 39.17578125 5.4375 39.1875 C2.43274224 39.3864568 1.37445412 39.60694996 -0.73046875 41.81640625 C-2.38882174 44.4723289 -3.71545455 47.14461745 -5 50 C-5.42925781 50.89460938 -5.85851562 51.78921875 -6.30078125 52.7109375 C-12.86225746 67.8653067 -14.81721142 84.9588216 -17.25 101.1875 C-17.41314697 102.27240723 -17.57629395 103.35731445 -17.74438477 104.47509766 C-19.38867839 115.9195213 -20.16549435 127.25336543 -20.0625 138.8125 C-20.05798828 139.80314453 -20.05347656 140.79378906 -20.04882812 141.81445312 C-20.03725686 144.20970461 -20.0209623 146.60481558 -20 149 C-16.83163269 150.58418366 -13.55783566 150.22540661 -10.0625 150.25 C-9.33353516 150.270625 -8.60457031 150.29125 -7.85351562 150.3125 C-2.54785011 150.35140497 -2.54785011 150.35140497 -0.24609375 148.875 C-0.04048828 148.565625 -0.04048828 148.565625 1 147 C1.639375 146.04609375 2.27875 145.0921875 2.9375 144.109375 C3.62940141 142.99229753 4.31679097 141.87241483 5 140.75 C5.34289062 140.20214844 5.68578125 139.65429688 6.0390625 139.08984375 C11.46029196 130.25448123 13.18776419 122.6683264 13.125 112.375 C13.12886719 111.73304688 13.13273437 111.09109375 13.13671875 110.4296875 C13.12932715 106.82258449 12.85167805 103.5283805 12 100 C11.46890625 99.97421875 10.9378125 99.9484375 10.390625 99.921875 C6.82990574 99.63597783 4.54668305 99.37847288 1.5625 97.3125 C-0.43136338 94.3615822 -1 92.57493999 -1 89 C0.42502939 85.53801685 2.53014192 83.37347694 5.4375 81.0625 C8.56666861 79.76503985 9.8509772 79.78883738 13 81 C14.37195574 82.29355827 15.71182656 83.62298702 17 85 C17.66 85 18.32 85 19 85 C20.86909281 80.24642487 21.27122763 76.27614521 21.1953125 71.1953125 C21.19389755 70.8333226 21.19389755 70.8333226 21.18673706 69.00143433 C21.17562087 66.7091151 21.15053312 64.41719937 21.125 62.125 C21.1149591 60.56250568 21.10583519 59.00000518 21.09765625 57.4375 C21.07570973 53.62484662 21.04124013 49.81249152 21 46 C21.67877197 46.01047363 22.35754395 46.02094727 23.05688477 46.03173828 C34.84735055 46.18941019 46.38098423 46.30187316 58.04296875 44.453125 C66.64008912 43.13573271 75.7620897 43.73606524 83 49 C83.66 49.66 84.32 50.32 85 51 C86.53209716 49.46790284 86.20614547 48.06809947 86.25 45.9375 C86.11836163 37.6179551 82.71138499 30.98394567 77 25 C63.92832993 14.45218608 51.40719297 14.00660786 35.375 16.375 Z M44.42578125 48.35375977 C37.26642983 49.44016356 30.17037833 48.69725098 23 48 C23.0721875 48.95519531 23.144375 49.91039062 23.21875 50.89453125 C25.20839202 78.05455587 25.20839202 78.05455587 20.0234375 87.84375 C19.68570313 88.2253125 19.34796875 88.606875 19 89 C18.34 89 17.68 89 17 89 C16.443125 88.01 15.88625 87.02 15.3125 86 C14.0971691 84.07913992 13.51142568 83.16451456 11.32421875 82.4609375 C8.0577819 82.30705825 6.34534986 82.77862189 3.5625 84.5625 C1.33022328 88.04485168 1.47820693 89.9001973 2 94 C3.234375 95.703125 3.234375 95.703125 5 97 C7.26171875 97.29296875 7.26171875 97.29296875 9.6875 97.1875 C10.49574219 97.16042969 11.30398437 97.13335937 12.13671875 97.10546875 C12.44416016 97.08806641 12.44416016 97.08806641 14 97 C17.80674034 116.28129459 13.83309072 131.21261667 3.34375 147.34765625 C-2.02673269 155.63276218 -3.85763783 163.27489048 -5 173 C-4.54753906 172.86722656 -4.09507813 172.73445313 -3.62890625 172.59765625 C0.96833746 171.40706572 5.32618948 170.89695528 10.05395508 170.75756836 C26.26334291 170.24038167 39.94743717 163.73503742 51.10449219 151.89916992 C56 146.48225293 56 146.48225293 56 144 C52.27884499 142.37199468 48.62906236 141.39559208 44.671875 140.5625 C43 140 43 140 42 138 C42.495 138.165 42.99 138.33 43.5 138.5 C47.00543498 139.201087 50.43721022 139.07782793 54 139 C54.66 136.69 55.32 134.38 56 132 C55.66806641 131.93941406 55.66806641 131.93941406 53.98828125 131.6328125 C43.89102202 129.71654433 43.89102202 129.71654433 41 128 C39.8125 125.875 39.8125 125.875 39 123 C38.82726562 122.4328125 38.65453125 121.865625 38.4765625 121.28125 C36.70990658 115.03394499 36 108.48868998 36 102 C36.66 102.66 37.32 103.32 38 104 C40.4953946 104.44240484 42.92371313 104.79054752 45.4375 105.0625 C46.79067034 105.21740408 48.14355101 105.3748647 49.49609375 105.53515625 C50.09607178 105.600979 50.6960498 105.66680176 51.31420898 105.73461914 C53 106 53 106 56 107 C60.14623994 107.2685184 64.15610294 107.14605911 68.25 106.4375 C71.15238071 105.97575761 73.17893869 106.25324848 76 107 C79 102.375 79 102.375 79 99 C77.7578125 97.8671875 77.7578125 97.8671875 76.125 96.875 C75.85816406 96.70871094 75.85816406 96.70871094 74.5078125 95.8671875 C73.35957083 95.2067998 72.18476018 94.59238009 71 94 C70.649375 95.093125 70.29875 96.18625 69.9375 97.3125 C68.67057597 100.26467203 67.62445111 101.59897803 64.6875 102.9375 C61.35306362 104.06067857 58.52114332 104.53582616 55 104 C53.0737148 102.82902137 51.65764278 101.56013438 50 100 C50.165 99.67 50.165 99.67 51 98 C51.20625 98.474375 51.4125 98.94875 51.625 99.4375 C53 101 53 101 55.625 101.8125 C59.74653706 102.04147428 63.08603113 101.20200567 67 100 C68.0217662 96.55782042 68.19844555 93.26482953 68.375 89.6875 C69.18872722 78.85399729 69.18872722 78.85399729 73.28515625 74.6953125 C77.12508852 71.72576488 80.25429375 71.6203435 85 72 C85 71.34 85 70.68 85 70 C82.69 69.34 80.38 68.68 78 68 C78 67.67 78 67.34 78 67 C80.31 66.67 82.62 66.34 85 66 C84.37662338 53.72592924 84.37662338 53.72592924 81 50 C75.74400995 46.61408792 71.210489 46.56823467 65.0625 46.6875 C64.13026611 46.69515381 63.19803223 46.70280762 62.23754883 46.71069336 C56.1945511 46.81098561 50.38017149 47.36933799 44.42578125 48.35375977 Z M74 77 C71.09424221 80.31215748 71.53771035 84.12725433 71.62109375 88.32421875 C72.00062225 91.00439422 72.34357136 92.19986097 74.125 94.1875 C77.54984225 96.34663968 79.03371841 96.82630866 83 96 C86.68 93.6 86.68 93.6 88 91 C88.4072392 87.62352309 88.29556031 84.3825236 88 81 C86.35 81.33 84.7 81.66 83 82 C82.375 80.1875 82.375 80.1875 82 78 C82.9375 76.25 82.9375 76.25 84 75 C79.58635998 73.61285599 77.66397918 74.227259 74 77 Z M42 109 C42 109.66 42 110.32 42 111 C43.64453125 112.078125 43.64453125 112.078125 45.8125 113.25 C49.89244865 115.6690846 51.36148132 117.59648105 53 122 C54.98 122 56.96 122 59 122 C59.66 119.36 60.32 116.72 61 114 C60.43990234 113.86142578 60.43990234 113.86142578 57.60546875 113.16015625 C56.13279698 112.79433333 54.66014158 112.42844447 53.1875 112.0625 C52.44951172 111.88009766 51.71152344 111.69769531 50.95117188 111.50976562 C50.23896484 111.33251953 49.52675781 111.15527344 48.79296875 110.97265625 C48.46566772 110.8914856 48.46566772 110.8914856 46.80932617 110.48071289 C45.18819768 110.05000152 43.59129284 109.53043095 42 109 Z M61 111 C62.60379341 111.05416188 64.20811406 111.09286638 65.8125 111.125 C66.70582031 111.14820313 67.59914063 111.17140625 68.51953125 111.1953125 C71.05043932 110.9960284 72.09199925 110.61007372 74 109 C72.58376784 108.94552953 71.16691809 108.90699492 69.75 108.875 C69.35554688 108.86339844 69.35554688 108.86339844 67.359375 108.8046875 C64.79268059 109.0171622 63.2083933 109.71345895 61 111 Z M40 115 C40.1097016 119.01906759 40.27549161 122.75058855 42.9375 125.9375 C46.60384608 129.10146046 51.34744044 129.16779723 56 129 C59.125 128.0625 59.125 128.0625 61 127 C61 126.34 61 125.68 61 125 C60.63777344 124.98710937 60.63777344 124.98710937 58.8046875 124.921875 C51.882726 124.51578659 47.55235228 123.919837 42.75390625 118.625 C41.79098809 117.45217235 40.88846838 116.23018698 40 115 Z M44 115 C45.04874998 117.62187494 45.64931313 118.79371361 48.125 120.25 C48.74375 120.4975 49.3625 120.745 50 121 C49.25 118.5625 49.25 118.5625 48 116 C45.875 115.1875 45.875 115.1875 44 115 Z M61 136 C63.31 140.62 65.62 145.24 68 150 C67.01 150 66.02 150 65 150 C66.38780795 153.89006773 68.2152227 156.96558708 70.625 160.3125 C71.25664062 161.19550781 71.88828125 162.07851562 72.5390625 162.98828125 C73.02117187 163.65214844 73.50328125 164.31601563 74 165 C75.45016176 160.64951473 74.03717303 157.50317874 72.8125 153.1875 C72.60302734 152.39279297 72.39355469 151.59808594 72.17773438 150.77929688 C70.80177278 145.8429836 69.31011517 141.95156345 66 138 C65.175 137.67 65.175 137.67 61 136 Z M58 137 C59.3961349 141.77012758 61.41663955 145.76128238 64 150 C65 147 65 147 63.8203125 144.51953125 C63.26085937 143.62621094 62.70140625 142.73289063 62.125 141.8125 C61.57070312 140.91144531 61.01640625 140.01039063 60.4453125 139.08203125 C59.96835938 138.39496094 59.49140625 137.70789063 59 137 C58.67 137 58.34 137 58 137 Z M56 141 C57 144 57 144 57 144 Z M74 148 C75.32 153.94 76.64 159.88 78 166 C80.90092502 166 81.7598956 165.79472235 84.1875 164.5 C85.115625 164.005 86.04375 163.51 87 163 C85.44740192 159.38008382 83.13662633 156.6807788 80.5 153.8125 C80.29826172 153.58723633 80.29826172 153.58723633 79.27734375 152.44726562 C77.59986636 150.60093325 76.25048243 149.12524121 74 148 Z M83.8125 170.5 C82.884375 170.995 81.95625 171.49 81 172 C81.60543243 175.3904216 82.71145204 177.42791512 85 180 C87.33984375 181.125 87.33984375 181.125 89.9375 182 C93.80311778 183.42209588 96.39142196 184.67999159 99 188 C99.99 187.67 100.98 187.34 102 187 C100.37941879 184.37224766 98.75278725 181.74829351 97.125 179.125 C96.89490234 178.75181641 96.89490234 178.75181641 95.73046875 176.86328125 C95.50810547 176.50556641 95.50810547 176.50556641 94.3828125 174.6953125 C94.17857666 174.36539307 94.17857666 174.36539307 93.14501953 172.69580078 C92 171 92 171 90 169 C87.09907498 169 86.2401044 169.20527765 83.8125 170.5 Z " fill="#8b1414" transform="translate(82,30)"/>
<path d="M0 0 C5.41727414 -0.25327515 9.88458542 0.12086811 15 2 C15.33 2.66 15.66 3.32 16 4 C14.35 4.33 12.7 4.66 11 5 C11.23525391 5.14566406 11.23525391 5.14566406 12.42578125 5.8828125 C16.70733613 8.70172441 19.43712218 10.92064708 21 16 C21.40535436 20.36161286 20.90846545 23.65429308 18.43359375 27.3203125 C12.87630636 33.79414624 12.87630636 33.79414624 8.828125 34.23828125 C2.7831965 34.41230192 -0.42166331 34.03329661 -5 30 C-9.24352866 25.63522767 -12 20.13883154 -12 14 C-11.67 13.67 -11.34 13.34 -11 13 C-11.33 12.01 -11.66 11.02 -12 10 C-11.34 9.34 -10.68 8.68 -10 8 C-9.67 7.34 -9.34 6.68 -9 6 C-8.01 6.33 -7.02 6.66 -6 7 C-6 7.66 -6 8.32 -6 9 C-5.5359375 8.6803125 -5.5359375 8.6803125 -3.1875 7.0625 C-1.04406858 5.58591391 0.46413788 4.84528737 3 4 C1.68 3.34 0.36 2.68 -1 2 C-0.67 1.34 -0.34 0.68 0 0 Z M-5 12 C-6.22485812 14.44971624 -6.16722808 16.14234461 -6.1875 18.875 C-6.20167969 19.73867187 -6.21585937 20.60234375 -6.23046875 21.4921875 C-5.98343797 24.18021729 -5.45540773 25.74041783 -4 28 C0.55540438 31.03693625 4.57274288 31.79614722 10 31 C13.49539257 29.67951836 15.2107042 28.11086517 16.9375 24.875 C18.61704863 20.35461484 17.81417658 16.37089986 16 12 C13.70908606 8.97008157 12.14189984 8.16312855 8.40234375 7.62890625 C2.57939722 7.37028278 -1.06643234 7.54195665 -5 12 Z " fill="#8b1414" transform="translate(120,91)"/>
<path d="M0 0 C3.875 1.75 3.875 1.75 5 4 C4.67 4.495 4.67 4.495 3 7 C1.35 6.67 -0.3 6.34 -2 6 C-2.125 4.125 -2.125 4.125 -2 2 C-1.34 1.34 -0.68 0.68 0 0 Z " fill="#8b1414" transform="translate(131,102)"/>
<path d="M0 0 C3.78383679 0.92493788 5.56693694 1.39371171 7.875 4.625 C8.060625 5.016875 8.060625 5.016875 9 7 C5.60406522 7 4.93380119 6.47834052 2.3125 4.5 C1.68988281 4.0359375 1.06726563 3.571875 0.42578125 3.09375 C-0.04472656 2.7328125 -0.51523438 2.371875 -1 2 C-0.67 1.34 -0.34 0.68 0 0 Z " fill="#8b1414" transform="translate(88,115)"/>
<path d="M0 0 C-2.2639961 2.46717524 -4.59060244 4.10134139 -7.5 5.75 C-8.2734375 6.19859375 -9.046875 6.6471875 -9.84375 7.109375 C-12 8 -12 8 -15 7 C-13.92130607 6.03644756 -12.83681257 5.07938583 -11.75 4.125 C-11.44835937 3.85816406 -11.44835937 3.85816406 -9.921875 2.5078125 C-6.44209619 -0.22225786 -4.30440492 -1.53728747 0 0 Z " fill="#8b1414" transform="translate(116,221)"/>
<path d="M0 0 C0.99 0.33 1.98 0.66 3 1 C1.4804948 3.72571036 -0.10849961 4.85109037 -2.875 6.25 C-3.55304688 6.60578125 -4.23109375 6.9615625 -4.9296875 7.328125 C-7.36680914 8.11903995 -8.61519919 7.83414558 -11 7 C-9.54261898 6.01941648 -8.08406325 5.04057868 -6.625 4.0625 C-5.81289062 3.51722656 -5.00078125 2.97195312 -4.1640625 2.41015625 C-2 1 -2 1 0 0 Z " fill="#8b1414" transform="translate(131,221)"/>
<path d="M0 0 C0.66 0.165 0.66 0.165 4 1 C4 1.33 4 1.66 4 2 C2.35 2 0.7 2 -1 2 C-0.67 1.34 -0.34 0.68 0 0 Z " fill="#8b1414" transform="translate(132,227)"/>
</g>
<g filter="url(#glow)">
<path d="M0 0 C3.04476997 2.56165149 5.88257917 5.24768098 8.03125 8.6171875 C9 10 9 10 11.5 11.5 C13.89762141 12.93857284 14.62161826 13.7026971 16 16 C16.77601562 15.87882812 17.55203125 15.75765625 18.3515625 15.6328125 C20.64399863 15.27718398 22.93681114 14.92563963 25.23046875 14.578125 C27.65301582 14.21052302 30.07130455 13.8243622 32.48828125 13.421875 C48.0865714 10.94875991 61.47472891 10.76449792 74.93359375 20.37109375 C81.95286223 25.90424112 86.16884032 31.50652095 89 40 C89.09357692 41.85227252 89.12993909 43.7078718 89.125 45.5625 C89.12757813 46.53316406 89.13015625 47.50382812 89.1328125 48.50390625 C89 51 89 51 88 53 C88.08950823 55.33010147 88.23341265 57.61747256 88.4375 59.9375 C89 66.76388889 89 66.76388889 89 70 C89.33 70.99 89.66 71.98 90 73 C90.33 73.99 90.66 74.98 91 76 C90.67 76.66 90.34 77.32 90 78 C90.99 77.67 91.98 77.34 93 77 C93.66 78.32 94.32 79.64 95 81 C94.34 81.66 93.68 82.32 93 83 C92.51318262 84.5898949 92.08222495 86.19727582 91.6875 87.8125 C90.33413883 92.58378863 88.92226496 94.98287311 85 98 C84.34 98 83.68 98 83 98 C82.82984375 98.59167969 82.6596875 99.18335938 82.484375 99.79296875 C80.74883632 105.45193263 79.18616652 110.27774783 73.6875 113.25 C70.45266659 114.15274421 67.33538037 114.60760231 64 115 C62.85942492 121.46325879 62.85942492 121.46325879 63.6875 124.625 C64 127 64 127 62.0625 129.8125 C61.381875 130.534375 60.70125 131.25625 60 132 C60.969375 132.268125 61.93875 132.53625 62.9375 132.8125 C67.24151323 134.65461766 69.49782196 137.73903002 72.30151367 141.38696289 C75.35020663 145.31731354 78.68276201 148.7877934 82.25 152.25 C92.09242684 161.8960998 92.09242684 161.8960998 93.78125 167.671875 C95.17288737 172.03000364 97.83230493 175.61448782 100.375 179.375 C110 193.68382353 110 193.68382353 110 199 C109.01 199 108.02 199 107 199 C106.01 196.36 105.02 193.72 104 191 C96.43107575 192.38127253 90.73862144 193.56341127 85 199 C84.01 198.67 83.02 198.34 82 198 C86.01821372 193.66080471 89.50225685 190.27955204 95 188 C91.9848985 185.11052773 89.1949414 184.22398037 85.1328125 183.88671875 C77.66380459 184.2834243 72.3358893 190.1221266 67.19921875 194.9765625 C63.91578619 197.99755374 63.91578619 197.99755374 62 199 C59.8125 198.625 59.8125 198.625 58 198 C59.32 196.68 60.64 195.36 62 194 C48.11512441 189.4823107 48.11512441 189.4823107 41.24609375 192.86328125 C39.1122809 194.19498614 37.33728295 195.3751231 36.125 197.62109375 C35 199 35 199 32.8359375 199.29296875 C32.02382812 199.25816406 31.21171875 199.22335938 30.375 199.1875 C29.55773437 199.16042969 28.74046875 199.13335937 27.8984375 199.10546875 C27.27195312 199.07066406 26.64546875 199.03585938 26 199 C28.88087546 196.59927045 31.56404834 194.52708963 35 193 C33.29763764 189.24819169 30.99747453 186.60488836 28.2421875 183.5859375 C27 182 27 182 27 180 C30.24759446 181.39994772 32.11620667 183.0445494 34.4375 185.6875 C36.28515625 187.57421875 36.28515625 187.57421875 38 189 C40.375 189 40.375 189 43 188 C50.07413825 186.25385195 55.43139468 187.79812011 62.08203125 190.28515625 C65 191 65 191 67.0703125 190.37890625 C70.41671346 187.98765212 73.52065188 185.33292277 76.66015625 182.6796875 C79 181 79 181 82 181 C81.39414063 180.16339844 80.78828125 179.32679688 80.1640625 178.46484375 C75.09096689 171.42727717 70.14696475 164.32721591 65.40087891 157.06420898 C63.09280576 153.55219498 60.68073368 150.23768976 58 147 C57.79955078 147.24234375 57.79955078 147.24234375 56.78515625 148.46875 C45.86939581 161.33994145 32.98437879 171.19305785 16 174 C12.32981525 174.29193092 8.65224395 174.43956042 4.97460938 174.60546875 C4.60561523 174.62416016 4.60561523 174.62416016 2.73828125 174.71875 C2.06837158 174.74904297 1.39846191 174.77933594 0.70825195 174.81054688 C-1 175 -1 175 -3 176 C-3.29750255 178.72380117 -3.4113953 181.28373614 -3 184 C-0.9375 185.9375 -0.9375 185.9375 0.421875 186.80078125 C3.92377136 189.46187576 6.56637015 193.36708858 9 197 C9 197.66 9 198.32 9 199 C5.79580145 198.71855013 4.99753608 197.99711793 2.859375 195.49609375 C2.14516532 194.4842967 1.44230042 193.46441229 0.75 192.4375 C0.56824219 192.17743164 0.56824219 192.17743164 -0.3515625 190.86132812 C-1.24423988 189.58104083 -2.12346838 188.29139489 -3 187 C-2.67 190.96 -2.34 194.92 -2 199 C-2.99 199 -3.98 199 -5 199 C-8.8326232 183.26019793 -9.1586171 169.36070359 -4 154 C-5.03640625 153.97421875 -6.0728125 153.9484375 -7.140625 153.921875 C-8.51045801 153.86558049 -9.88024805 153.80823345 -11.25 153.75 C-11.93191406 153.73582031 -12.61382812 153.72164062 -13.31640625 153.70703125 C-16.51690316 153.55166732 -18.62021453 153.2089122 -21.45703125 151.6484375 C-24.00345256 147.27761813 -23.54208021 142.83557555 -23.4375 137.875 C-23.42356201 136.76552002 -23.40962402 135.65604004 -23.39526367 134.51293945 C-22.76335036 105.25761735 -19.68539767 68.5999208 -4.1015625 43.06640625 C-3 41 -3 41 -3 38 C-3.78375 37.46375 -4.5675 36.9275 -5.375 36.375 C-8.76613799 33.93491771 -9.04593612 30.76623493 -9.73828125 26.828125 C-9.82464844 26.22484375 -9.91101563 25.6215625 -10 25 C-11.093125 24.773125 -12.18625 24.54625 -13.3125 24.3125 C-13.61994141 24.24869141 -13.61994141 24.24869141 -15.17578125 23.92578125 C-17 24 -17 24 -18.53979492 25.25317383 C-23.19447681 30.82151506 -22.17725374 39.81751404 -22 46.625 C-21.89849145 54.95823919 -22.12976069 63.19289045 -22.8125 71.5 C-22.88275391 72.4482666 -22.95300781 73.3965332 -23.02539062 74.37353516 C-23.58571497 80.61666897 -24.38509924 86.38509924 -29 91 C-32.11711712 91.57992877 -34.12418606 91.55480586 -36.84375 89.83203125 C-40.32018307 86.96692009 -43.05223127 84.12468672 -45 80 C-45 79.34 -45 78.68 -45 78 C-45.7425 78.680625 -46.485 79.36125 -47.25 80.0625 C-50 82 -50 82 -52.1875 82.0625 C-54.92163509 80.45973115 -55.10837272 79.06472753 -56 76 C-56.29806902 72.43503332 -56.28393012 68.88803241 -56.25 65.3125 C-56.24323242 64.29027344 -56.23646484 63.26804687 -56.22949219 62.21484375 C-55.95644177 41.84401228 -54.29586531 19.59190132 -39.625 4.0625 C-27.85755058 -6.97564351 -13.68269892 -8.85085475 0 0 Z M-41.54296875 9.75 C-53.4499572 28.13719933 -56.00671949 57.71630605 -52 79 C-48.66462511 77.88820837 -47.36292656 76.52588702 -45 74 C-44.61328125 74.75925781 -44.2265625 75.51851563 -43.828125 76.30078125 C-43.30734375 77.29464844 -42.7865625 78.28851563 -42.25 79.3125 C-41.73953125 80.29863281 -41.2290625 81.28476563 -40.703125 82.30078125 C-39.00231031 84.99633848 -37.7406924 86.41553721 -35 88 C-31.75 88.1875 -31.75 88.1875 -29 88 C-28.690625 87.01 -28.38125 86.02 -28.0625 85 C-27.88847656 84.443125 -27.71445312 83.88625 -27.53515625 83.3125 C-26.08061803 77.02719615 -25.8509218 70.68443947 -25.7890625 64.2578125 C-25.7609977 62.59764633 -25.73233326 60.9374902 -25.703125 59.27734375 C-25.66196898 56.7016627 -25.62501198 54.12617018 -25.59863281 51.55029297 C-25.35817588 29.86356507 -25.35817588 29.86356507 -20.1875 22.375 C-17.04761665 20.40135904 -15.67814743 20.30600992 -12 21 C-10.4916167 21.97714612 -9.01438124 23.0032193 -7.5625 24.0625 C-2.73774666 27.4983092 -2.73774666 27.4983092 0.8125 27.125 C4.3221745 25.88629135 5.86485284 25.03847865 8 22 C9.125 19.375 9.125 19.375 9 16 C6.0740253 9.00953904 1.68040921 3.63492854 -5 0 C-18.41434667 -5.26339488 -32.61263506 -1.72254547 -41.54296875 9.75 Z M12 16 C11.78085938 16.60328125 11.56171875 17.2065625 11.3359375 17.828125 C9.51283685 22.42293153 8.06492471 25.8258478 3.66015625 28.29296875 C0.8257058 29.50011118 -2.00409865 30.28098368 -5 31 C-4.67 31.99 -4.34 32.98 -4 34 C-2.35 34.33 -0.7 34.66 1 35 C1 35.66 1 36.32 1 37 C5.04780259 38.34926753 7.56352724 37.86971884 11.28515625 36.078125 C14.21542184 34.23586235 16.36898636 32.06366076 18 29 C18.3125 25.625 18.3125 25.625 18 23 C17.34 22.67 16.68 22.34 16 22 C15.34 22.66 14.68 23.32 14 24 C13.67 21.36 13.34 18.72 13 16 C12.67 16 12.34 16 12 16 Z M35.375 16.375 C34.45976563 16.50132813 33.54453125 16.62765625 32.6015625 16.7578125 C27.8576244 17.44335269 23.48125801 18.28789146 19 20 C19.4125 21.010625 19.825 22.02125 20.25 23.0625 C21.11227649 26.13319684 21.04043161 27.78762075 19.5625 30.625 C17.06093792 34.32731188 14.1007173 37.15869753 10 39 C7.7578125 39.17578125 7.7578125 39.17578125 5.4375 39.1875 C2.43274224 39.3864568 1.37445412 39.60694996 -0.73046875 41.81640625 C-2.38882174 44.4723289 -3.71545455 47.14461745 -5 50 C-5.42925781 50.89460938 -5.85851562 51.78921875 -6.30078125 52.7109375 C-12.86225746 67.8653067 -14.81721142 84.9588216 -17.25 101.1875 C-17.41314697 102.27240723 -17.57629395 103.35731445 -17.74438477 104.47509766 C-19.38867839 115.9195213 -20.16549435 127.25336543 -20.0625 138.8125 C-20.05798828 139.80314453 -20.05347656 140.79378906 -20.04882812 141.81445312 C-20.03725686 144.20970461 -20.0209623 146.60481558 -20 149 C-16.83163269 150.58418366 -13.55783566 150.22540661 -10.0625 150.25 C-9.33353516 150.270625 -8.60457031 150.29125 -7.85351562 150.3125 C-2.54785011 150.35140497 -2.54785011 150.35140497 -0.24609375 148.875 C-0.04048828 148.565625 -0.04048828 148.565625 1 147 C1.639375 146.04609375 2.27875 145.0921875 2.9375 144.109375 C3.62940141 142.99229753 4.31679097 141.87241483 5 140.75 C5.34289062 140.20214844 5.68578125 139.65429688 6.0390625 139.08984375 C11.46029196 130.25448123 13.18776419 122.6683264 13.125 112.375 C13.12886719 111.73304688 13.13273437 111.09109375 13.13671875 110.4296875 C13.12932715 106.82258449 12.85167805 103.5283805 12 100 C11.46890625 99.97421875 10.9378125 99.9484375 10.390625 99.921875 C6.82990574 99.63597783 4.54668305 99.37847288 1.5625 97.3125 C-0.43136338 94.3615822 -1 92.57493999 -1 89 C0.42502939 85.53801685 2.53014192 83.37347694 5.4375 81.0625 C8.56666861 79.76503985 9.8509772 79.78883738 13 81 C14.37195574 82.29355827 15.71182656 83.62298702 17 85 C17.66 85 18.32 85 19 85 C20.86909281 80.24642487 21.27122763 76.27614521 21.1953125 71.1953125 C21.19389755 70.8333226 21.19389755 70.8333226 21.18673706 69.00143433 C21.17562087 66.7091151 21.15053312 64.41719937 21.125 62.125 C21.1149591 60.56250568 21.10583519 59.00000518 21.09765625 57.4375 C21.07570973 53.62484662 21.04124013 49.81249152 21 46 C21.67877197 46.01047363 22.35754395 46.02094727 23.05688477 46.03173828 C34.84735055 46.18941019 46.38098423 46.30187316 58.04296875 44.453125 C66.64008912 43.13573271 75.7620897 43.73606524 83 49 C83.66 49.66 84.32 50.32 85 51 C86.53209716 49.46790284 86.20614547 48.06809947 86.25 45.9375 C86.11836163 37.6179551 82.71138499 30.98394567 77 25 C63.92832993 14.45218608 51.40719297 14.00660786 35.375 16.375 Z M44.42578125 48.35375977 C37.26642983 49.44016356 30.17037833 48.69725098 23 48 C23.0721875 48.95519531 23.144375 49.91039062 23.21875 50.89453125 C25.20839202 78.05455587 25.20839202 78.05455587 20.0234375 87.84375 C19.68570313 88.2253125 19.34796875 88.606875 19 89 C18.34 89 17.68 89 17 89 C16.443125 88.01 15.88625 87.02 15.3125 86 C14.0971691 84.07913992 13.51142568 83.16451456 11.32421875 82.4609375 C8.0577819 82.30705825 6.34534986 82.77862189 3.5625 84.5625 C1.33022328 88.04485168 1.47820693 89.9001973 2 94 C3.234375 95.703125 3.234375 95.703125 5 97 C7.26171875 97.29296875 7.26171875 97.29296875 9.6875 97.1875 C10.49574219 97.16042969 11.30398437 97.13335937 12.13671875 97.10546875 C12.44416016 97.08806641 12.44416016 97.08806641 14 97 C17.80674034 116.28129459 13.83309072 131.21261667 3.34375 147.34765625 C-2.02673269 155.63276218 -3.85763783 163.27489048 -5 173 C-4.54753906 172.86722656 -4.09507813 172.73445313 -3.62890625 172.59765625 C0.96833746 171.40706572 5.32618948 170.89695528 10.05395508 170.75756836 C26.26334291 170.24038167 39.94743717 163.73503742 51.10449219 151.89916992 C56 146.48225293 56 146.48225293 56 144 C52.27884499 142.37199468 48.62906236 141.39559208 44.671875 140.5625 C43 140 43 140 42 138 C42.495 138.165 42.99 138.33 43.5 138.5 C47.00543498 139.201087 50.43721022 139.07782793 54 139 C54.66 136.69 55.32 134.38 56 132 C55.66806641 131.93941406 55.66806641 131.93941406 53.98828125 131.6328125 C43.89102202 129.71654433 43.89102202 129.71654433 41 128 C39.8125 125.875 39.8125 125.875 39 123 C38.82726562 122.4328125 38.65453125 121.865625 38.4765625 121.28125 C36.70990658 115.03394499 36 108.48868998 36 102 C36.66 102.66 37.32 103.32 38 104 C40.4953946 104.44240484 42.92371313 104.79054752 45.4375 105.0625 C46.79067034 105.21740408 48.14355101 105.3748647 49.49609375 105.53515625 C50.09607178 105.600979 50.6960498 105.66680176 51.31420898 105.73461914 C53 106 53 106 56 107 C60.14623994 107.2685184 64.15610294 107.14605911 68.25 106.4375 C71.15238071 105.97575761 73.17893869 106.25324848 76 107 C79 102.375 79 102.375 79 99 C77.7578125 97.8671875 77.7578125 97.8671875 76.125 96.875 C75.85816406 96.70871094 75.85816406 96.70871094 74.5078125 95.8671875 C73.35957083 95.2067998 72.18476018 94.59238009 71 94 C70.649375 95.093125 70.29875 96.18625 69.9375 97.3125 C68.67057597 100.26467203 67.62445111 101.59897803 64.6875 102.9375 C61.35306362 104.06067857 58.52114332 104.53582616 55 104 C53.0737148 102.82902137 51.65764278 101.56013438 50 100 C50.165 99.67 50.165 99.67 51 98 C51.20625 98.474375 51.4125 98.94875 51.625 99.4375 C53 101 53 101 55.625 101.8125 C59.74653706 102.04147428 63.08603113 101.20200567 67 100 C68.0217662 96.55782042 68.19844555 93.26482953 68.375 89.6875 C69.18872722 78.85399729 69.18872722 78.85399729 73.28515625 74.6953125 C77.12508852 71.72576488 80.25429375 71.6203435 85 72 C85 71.34 85 70.68 85 70 C82.69 69.34 80.38 68.68 78 68 C78 67.67 78 67.34 78 67 C80.31 66.67 82.62 66.34 85 66 C84.37662338 53.72592924 84.37662338 53.72592924 81 50 C75.74400995 46.61408792 71.210489 46.56823467 65.0625 46.6875 C64.13026611 46.69515381 63.19803223 46.70280762 62.23754883 46.71069336 C56.1945511 46.81098561 50.38017149 47.36933799 44.42578125 48.35375977 Z M74 77 C71.09424221 80.31215748 71.53771035 84.12725433 71.62109375 88.32421875 C72.00062225 91.00439422 72.34357136 92.19986097 74.125 94.1875 C77.54984225 96.34663968 79.03371841 96.82630866 83 96 C86.68 93.6 86.68 93.6 88 91 C88.4072392 87.62352309 88.29556031 84.3825236 88 81 C86.35 81.33 84.7 81.66 83 82 C82.375 80.1875 82.375 80.1875 82 78 C82.9375 76.25 82.9375 76.25 84 75 C79.58635998 73.61285599 77.66397918 74.227259 74 77 Z M42 109 C42 109.66 42 110.32 42 111 C43.64453125 112.078125 43.64453125 112.078125 45.8125 113.25 C49.89244865 115.6690846 51.36148132 117.59648105 53 122 C54.98 122 56.96 122 59 122 C59.66 119.36 60.32 116.72 61 114 C60.43990234 113.86142578 60.43990234 113.86142578 57.60546875 113.16015625 C56.13279698 112.79433333 54.66014158 112.42844447 53.1875 112.0625 C52.44951172 111.88009766 51.71152344 111.69769531 50.95117188 111.50976562 C50.23896484 111.33251953 49.52675781 111.15527344 48.79296875 110.97265625 C48.46566772 110.8914856 48.46566772 110.8914856 46.80932617 110.48071289 C45.18819768 110.05000152 43.59129284 109.53043095 42 109 Z M61 111 C62.60379341 111.05416188 64.20811406 111.09286638 65.8125 111.125 C66.70582031 111.14820313 67.59914063 111.17140625 68.51953125 111.1953125 C71.05043932 110.9960284 72.09199925 110.61007372 74 109 C72.58376784 108.94552953 71.16691809 108.90699492 69.75 108.875 C69.35554688 108.86339844 69.35554688 108.86339844 67.359375 108.8046875 C64.79268059 109.0171622 63.2083933 109.71345895 61 111 Z M40 115 C40.1097016 119.01906759 40.27549161 122.75058855 42.9375 125.9375 C46.60384608 129.10146046 51.34744044 129.16779723 56 129 C59.125 128.0625 59.125 128.0625 61 127 C61 126.34 61 125.68 61 125 C60.63777344 124.98710937 60.63777344 124.98710937 58.8046875 124.921875 C51.882726 124.51578659 47.55235228 123.919837 42.75390625 118.625 C41.79098809 117.45217235 40.88846838 116.23018698 40 115 Z M44 115 C45.04874998 117.62187494 45.64931313 118.79371361 48.125 120.25 C48.74375 120.4975 49.3625 120.745 50 121 C49.25 118.5625 49.25 118.5625 48 116 C45.875 115.1875 45.875 115.1875 44 115 Z M61 136 C63.31 140.62 65.62 145.24 68 150 C67.01 150 66.02 150 65 150 C66.38780795 153.89006773 68.2152227 156.96558708 70.625 160.3125 C71.25664062 161.19550781 71.88828125 162.07851562 72.5390625 162.98828125 C73.02117187 163.65214844 73.50328125 164.31601563 74 165 C75.45016176 160.64951473 74.03717303 157.50317874 72.8125 153.1875 C72.60302734 152.39279297 72.39355469 151.59808594 72.17773438 150.77929688 C70.80177278 145.8429836 69.31011517 141.95156345 66 138 C65.175 137.67 65.175 137.67 61 136 Z M58 137 C59.3961349 141.77012758 61.41663955 145.76128238 64 150 C65 147 65 147 63.8203125 144.51953125 C63.26085937 143.62621094 62.70140625 142.73289063 62.125 141.8125 C61.57070312 140.91144531 61.01640625 140.01039063 60.4453125 139.08203125 C59.96835938 138.39496094 59.49140625 137.70789063 59 137 C58.67 137 58.34 137 58 137 Z M56 141 C57 144 57 144 57 144 Z M74 148 C75.32 153.94 76.64 159.88 78 166 C80.90092502 166 81.7598956 165.79472235 84.1875 164.5 C85.115625 164.005 86.04375 163.51 87 163 C85.44740192 159.38008382 83.13662633 156.6807788 80.5 153.8125 C80.29826172 153.58723633 80.29826172 153.58723633 79.27734375 152.44726562 C77.59986636 150.60093325 76.25048243 149.12524121 74 148 Z M83.8125 170.5 C82.884375 170.995 81.95625 171.49 81 172 C81.60543243 175.3904216 82.71145204 177.42791512 85 180 C87.33984375 181.125 87.33984375 181.125 89.9375 182 C93.80311778 183.42209588 96.39142196 184.67999159 99 188 C99.99 187.67 100.98 187.34 102 187 C100.37941879 184.37224766 98.75278725 181.74829351 97.125 179.125 C96.89490234 178.75181641 96.89490234 178.75181641 95.73046875 176.86328125 C95.50810547 176.50556641 95.50810547 176.50556641 94.3828125 174.6953125 C94.17857666 174.36539307 94.17857666 174.36539307 93.14501953 172.69580078 C92 171 92 171 90 169 C87.09907498 169 86.2401044 169.20527765 83.8125 170.5 Z " fill="#c81e1e" transform="translate(82,30)"/>
<path d="M0 0 C5.41727414 -0.25327515 9.88458542 0.12086811 15 2 C15.33 2.66 15.66 3.32 16 4 C14.35 4.33 12.7 4.66 11 5 C11.23525391 5.14566406 11.23525391 5.14566406 12.42578125 5.8828125 C16.70733613 8.70172441 19.43712218 10.92064708 21 16 C21.40535436 20.36161286 20.90846545 23.65429308 18.43359375 27.3203125 C12.87630636 33.79414624 12.87630636 33.79414624 8.828125 34.23828125 C2.7831965 34.41230192 -0.42166331 34.03329661 -5 30 C-9.24352866 25.63522767 -12 20.13883154 -12 14 C-11.67 13.67 -11.34 13.34 -11 13 C-11.33 12.01 -11.66 11.02 -12 10 C-11.34 9.34 -10.68 8.68 -10 8 C-9.67 7.34 -9.34 6.68 -9 6 C-8.01 6.33 -7.02 6.66 -6 7 C-6 7.66 -6 8.32 -6 9 C-5.5359375 8.6803125 -5.5359375 8.6803125 -3.1875 7.0625 C-1.04406858 5.58591391 0.46413788 4.84528737 3 4 C1.68 3.34 0.36 2.68 -1 2 C-0.67 1.34 -0.34 0.68 0 0 Z M-5 12 C-6.22485812 14.44971624 -6.16722808 16.14234461 -6.1875 18.875 C-6.20167969 19.73867187 -6.21585937 20.60234375 -6.23046875 21.4921875 C-5.98343797 24.18021729 -5.45540773 25.74041783 -4 28 C0.55540438 31.03693625 4.57274288 31.79614722 10 31 C13.49539257 29.67951836 15.2107042 28.11086517 16.9375 24.875 C18.61704863 20.35461484 17.81417658 16.37089986 16 12 C13.70908606 8.97008157 12.14189984 8.16312855 8.40234375 7.62890625 C2.57939722 7.37028278 -1.06643234 7.54195665 -5 12 Z " fill="#c81e1e" transform="translate(120,91)"/>
<path d="M0 0 C3.875 1.75 3.875 1.75 5 4 C4.67 4.495 4.67 4.495 3 7 C1.35 6.67 -0.3 6.34 -2 6 C-2.125 4.125 -2.125 4.125 -2 2 C-1.34 1.34 -0.68 0.68 0 0 Z " fill="#c81e1e" transform="translate(131,102)"/>
<path d="M0 0 C3.78383679 0.92493788 5.56693694 1.39371171 7.875 4.625 C8.060625 5.016875 8.060625 5.016875 9 7 C5.60406522 7 4.93380119 6.47834052 2.3125 4.5 C1.68988281 4.0359375 1.06726563 3.571875 0.42578125 3.09375 C-0.04472656 2.7328125 -0.51523438 2.371875 -1 2 C-0.67 1.34 -0.34 0.68 0 0 Z " fill="#c81e1e" transform="translate(88,115)"/>
<path d="M0 0 C-2.2639961 2.46717524 -4.59060244 4.10134139 -7.5 5.75 C-8.2734375 6.19859375 -9.046875 6.6471875 -9.84375 7.109375 C-12 8 -12 8 -15 7 C-13.92130607 6.03644756 -12.83681257 5.07938583 -11.75 4.125 C-11.44835937 3.85816406 -11.44835937 3.85816406 -9.921875 2.5078125 C-6.44209619 -0.22225786 -4.30440492 -1.53728747 0 0 Z " fill="#c81e1e" transform="translate(116,221)"/>
<path d="M0 0 C0.99 0.33 1.98 0.66 3 1 C1.4804948 3.72571036 -0.10849961 4.85109037 -2.875 6.25 C-3.55304688 6.60578125 -4.23109375 6.9615625 -4.9296875 7.328125 C-7.36680914 8.11903995 -8.61519919 7.83414558 -11 7 C-9.54261898 6.01941648 -8.08406325 5.04057868 -6.625 4.0625 C-5.81289062 3.51722656 -5.00078125 2.97195312 -4.1640625 2.41015625 C-2 1 -2 1 0 0 Z " fill="#c81e1e" transform="translate(131,221)"/>
<path d="M0 0 C0.66 0.165 0.66 0.165 4 1 C4 1.33 4 1.66 4 2 C2.35 2 0.7 2 -1 2 C-0.67 1.34 -0.34 0.68 0 0 Z " fill="#c81e1e" transform="translate(132,227)"/>
</g>
</g>
</svg>
