<?xml version="1.0" encoding="UTF-8"?>
<svg version="1.1" xmlns="http://www.w3.org/2000/svg" width="229" height="229" viewBox="0 0 229 229">
<defs>
<filter id="glow">
<feGaussianBlur stdDeviation="4" result="blur"/>
<feMerge>
<feMergeNode in="blur"/>
<feMergeNode in="blur"/>
<feMergeNode in="SourceGraphic"/>
</feMerge>
</filter>
</defs>
<g transform="translate(22.9,22.9) scale(0.8)">
<g transform="translate(2,2)">
<path d="M0 0 C1.05489353 0.6024069 2.09584838 1.22959983 3.125 1.875 C6.30461137 3.84198796 9.29227138 4.63509119 12.9375 5.4375 C21.22301272 7.3718207 26.14186258 10.6516963 31.375 17.25 C33.22446576 19.24173235 35.13193021 20.50430797 37.4375 21.9375 C44.13394126 26.17933357 49.03268659 31.18642504 51 39 C51.28890365 41.88133238 51.32506118 44.73090414 51.3125 47.625 C51.32861328 48.37523437 51.34472656 49.12546875 51.36132812 49.8984375 C51.36532874 54.41112598 50.93406292 56.45147364 48 60 C47.70703125 62.578125 47.70703125 62.578125 47.8125 65.25 C47.83957031 66.14203125 47.86664063 67.0340625 47.89453125 67.953125 C47.92933594 68.62859375 47.96414062 69.3040625 48 70 C48.66 69.67 49.32 69.34 50 69 C53.68012333 68.5999866 55.3489289 68.48970103 58.3125 70.8125 C62.32525322 76.01421714 61.51725594 82.75041448 61 89 C60.10159649 92.58430415 59.03697993 95.90052127 57 99 C54.859375 100.26953125 54.859375 100.26953125 53 101 C53.02320313 101.66902344 53.04640625 102.33804688 53.0703125 103.02734375 C53.20315597 110.09651428 52.66892007 116.86099791 51.71142578 123.85913086 C50.46668478 133.23240776 49.6683116 144.44341624 55.11035156 152.68066406 C57.96317361 156.33697756 61.15182339 159.69012123 64.29882812 163.09179688 C69.05110006 168.42241648 73.2229838 174.26489026 77.48779297 179.98632812 C78.8688707 181.82538676 80.27525728 183.64104636 81.69140625 185.453125 C88.1372647 193.87048253 99 208.19018247 99 219 C97.35 219 95.7 219 94 219 C93.74943848 218.43716309 93.49887695 217.87432617 93.24072266 217.29443359 C88.1477112 205.96046206 82.92009511 195.39636854 75.24560547 185.59423828 C73.98692445 183.98326473 72.75858133 182.35270954 71.53515625 180.71484375 C65.6547029 172.89010312 59.38445393 165.41616227 53 158 C52.764021 158.56283691 52.52804199 159.12567383 52.28491211 159.70556641 C44.30458383 178.68277544 44.30458383 178.68277544 40.1875 187 C39.92251709 187.54350098 39.65753418 188.08700195 39.38452148 188.64697266 C37.6086406 192.1586644 35.52838505 195.01639595 33 198 C31.13671875 197.765625 31.13671875 197.765625 29 197 C27.76953125 195.109375 27.76953125 195.109375 26.8125 192.75 C26.64814453 192.34587891 26.64814453 192.34587891 25.81640625 190.30078125 C24.95902927 187.88453705 24.32846123 185.54557456 24 183 C22.35 183.33 20.7 183.66 19 184 C18.67 182.68 18.34 181.36 18 180 C13.71 188.25 9.42 196.5 5 205 C6.32 205.33 7.64 205.66 9 206 C10.25 208.0625 10.25 208.0625 11 210 C10.01 211.32 9.02 212.64 8 214 C3.125 213.125 3.125 213.125 2 212 C1.67 214.31 1.34 216.62 1 219 C-0.65 219 -2.3 219 -4 219 C-4.05422947 217.5629191 -4.09289723 216.12524538 -4.125 214.6875 C-4.14820312 213.88699219 -4.17140625 213.08648437 -4.1953125 212.26171875 C-4 210 -4 210 -2.9296875 208.51953125 C-2 207 -2 207 -2.26464844 204.67504883 C-3.05395791 201.80371286 -4.08093641 200.07059794 -5.8359375 197.6796875 C-6.40570313 196.89722656 -6.97546875 196.11476562 -7.5625 195.30859375 C-8.160625 194.50550781 -8.75875 193.70242187 -9.375 192.875 C-9.67019531 192.46958984 -9.67019531 192.46958984 -11.1640625 190.41796875 C-13.62045823 187.07085294 -15.98992731 183.87279087 -19 181 C-19.66 181.66 -20.32 182.32 -21 183 C-23.125 183.125 -23.125 183.125 -25 183 C-25.25910156 183.87011719 -25.51820312 184.74023438 -25.78515625 185.63671875 C-26.9063236 188.9923322 -28.53562819 191.82267572 -30.4375 194.8125 C-30.73591797 195.29009766 -30.73591797 195.29009766 -32.24609375 197.70703125 C-34 200 -34 200 -37 201 C-46.74670521 192.97330159 -49.79217827 179.20013954 -53.484375 167.66015625 C-54.53356511 164.38111333 -55.64975421 161.17043006 -57 158 C-59.55999346 161.09727604 -62.1028495 164.20776638 -64.63525391 167.32763672 C-65.53883282 168.43488459 -66.44731121 169.53815374 -67.36083984 170.63720703 C-74.19892847 178.86485377 -79.7512159 187.26846204 -84.77294922 196.70800781 C-86.66347055 200.239288 -88.60647093 203.74134253 -90.54296875 207.24755859 C-92.70327126 211.16067725 -94.85194554 215.08014843 -97 219 C-98.65 219 -100.3 219 -102 219 C-92.4526903 197.86285011 -81.8352314 178.86912787 -66.0234375 161.76171875 C-60.05700126 155.20240981 -57.56985119 150.03810489 -57 141 C-56.76022442 139.85198358 -56.51186163 138.70568088 -56.25 137.5625 C-55.79443766 134.32723527 -56.36935791 131.45335433 -56.9375 128.25 C-58.45649421 119.53362381 -58.1820235 110.81973847 -58 102 C-58.78890625 101.87496094 -59.5778125 101.74992187 -60.390625 101.62109375 C-63 101 -63 101 -64.75 99.0625 C-67.9372172 91.25381786 -67.3919938 82.98617285 -65 75 C-63.86550871 72.64254791 -63.04824502 71.75563859 -61 70 C-58.25 69.1875 -58.25 69.1875 -56 69 C-56 67.35 -56 65.7 -56 64 C-56.99 63.67 -57.98 63.34 -59 63 C-60.62932666 59.74134669 -60.22598078 56.28137608 -60.25 52.6875 C-60.270625 51.92759766 -60.29125 51.16769531 -60.3125 50.38476562 C-60.36326676 43.08069842 -57.71428846 39.56318972 -52.75 34.3125 C-49.65220617 30.97238536 -46.89250397 27.581949 -44.3125 23.8125 C-38.41657277 15.20364042 -31.39136898 5.96860136 -20.83203125 3.15625 C-18.78066126 2.85045572 -16.72268027 2.58541585 -14.66015625 2.3671875 C-12.1859648 2.02566915 -10.7422157 1.5618231 -8.625 0.3125 C-5.18154932 -1.40922534 -3.65478898 -1.11881295 0 0 Z M-9.9609375 6.15234375 C-12.742052 7.30847756 -15.62095355 7.79653689 -18.5625 8.375 C-23.96008173 9.5272235 -26.74626511 10.54117811 -30 15 C-29.29875 14.79503906 -28.5975 14.59007812 -27.875 14.37890625 C-13.47042516 10.28847671 -0.67199573 10.66271696 14 13 C16.33227255 13.34132222 18.66591298 13.67121363 21 14 C18.94888784 11.94888784 18.15960689 11.58388739 15.48046875 10.81640625 C14.78759766 10.61080078 14.09472656 10.40519531 13.38085938 10.19335938 C11.93048076 9.77619794 10.4799621 9.35952306 9.02929688 8.94335938 C4.94701359 7.73113649 1.60808987 6.33189512 -2 4 C-5.30054963 3.36118394 -7.10956863 4.58043527 -9.9609375 6.15234375 Z M-42.53125 30.671875 C-45 33 -45 33 -47 34 C-47 34.66 -47 35.32 -47 36 C-47.66 36 -48.32 36 -49 36 C-50.5078125 37.57421875 -50.5078125 37.57421875 -52.125 39.6875 C-52.66382813 40.37199219 -53.20265625 41.05648437 -53.7578125 41.76171875 C-55.21051633 44.37932659 -55.23751225 46.05175015 -55 49 C-54.59910156 48.64808594 -54.19820312 48.29617187 -53.78515625 47.93359375 C-51.87133374 46.27147579 -49.93545647 44.63686374 -48 43 C-47.34773438 42.42378906 -46.69546875 41.84757812 -46.0234375 41.25390625 C-30.10843904 27.87219406 -9.09410805 25.3336785 11 27 C23.7888135 28.81616286 34.74466492 35.9838816 43.35546875 45.27734375 C43.89816406 45.84582031 44.44085938 46.41429688 45 47 C45.33 47 45.66 47 46 47 C46.40493388 40.25110199 46.0451776 35.50075536 41.51171875 30.2890625 C29.63897788 18.64513248 10.68619036 15.17818435 -5.3125 14.8125 C-21.22159885 15.03469412 -31.31929773 19.81683654 -42.53125 30.671875 Z M-27 35 C-26.38125 35.28875 -25.7625 35.5775 -25.125 35.875 C-23 37 -23 37 -21 39 C-21.71285156 39.09796875 -22.42570312 39.1959375 -23.16015625 39.296875 C-29.31847723 40.25833561 -33.80736161 41.53824107 -39 45 C-38.67 43.68 -38.34 42.36 -38 41 C-42.80444022 42.45589098 -46.67962729 45.26904357 -50 49 C-51.20640984 52.47129239 -51.07048117 55.76431558 -50.9921875 59.41015625 C-50.97468038 60.65949721 -50.95777122 61.90884668 -50.94140625 63.15820312 C-50.91039059 65.11588203 -50.87474937 67.07313329 -50.82861328 69.03051758 C-50.78628426 70.92795168 -50.76284815 72.82487926 -50.7421875 74.72265625 C-50.7311499 75.28859497 -50.7311499 75.28859497 -50.67529297 78.15258789 C-51 81 -51 81 -52.39111328 82.89233398 C-54 84 -54 84 -56 84 C-56.66 82.68 -57.32 81.36 -58 80 C-60.26325743 81.69744307 -61.82148381 83.00570635 -62.3359375 85.87109375 C-62.41393468 89.99714437 -61.87113844 93.25772312 -60 97 C-59.01 96.835 -59.01 96.835 -54 96 C-53.98541748 96.67877197 -53.97083496 97.35754395 -53.95581055 98.05688477 C-53.38845373 121.74353067 -51.69462584 144.55756134 -35 163 C-31.82218403 165.90014273 -28.47408074 168.46704021 -25 171 C-23.39124947 172.22316112 -21.78687376 173.45210332 -20.1875 174.6875 C-19.45273438 175.25082031 -18.71796875 175.81414062 -17.9609375 176.39453125 C-16.2428719 177.80115468 -14.79331466 179.22912639 -13.3125 180.875 C-8.76956826 185.04958593 -2.49585934 184.24425512 3.38671875 184.1328125 C6.8166152 183.95849788 8.99521916 183.74696561 12 182 C12.91194147 180.69326327 13.76994386 179.34839171 14.59375 177.984375 C18.14086396 172.51356887 22.50771903 168.1926906 27.1875 163.6875 C28.7873365 162.13114427 30.38507675 160.57263013 31.98046875 159.01171875 C32.68067139 158.33584717 33.38087402 157.65997559 34.10229492 156.96362305 C35.95709929 155.04439089 37.60259895 153.27736217 39 151 C38.1875 147.75 38.1875 147.75 37 145 C37.66 145.33 37.66 145.33 41 147 C45.41059532 136.12338629 47.46769101 125.74424104 47 114 C46.34 113.67 45.68 113.34 45 113 C44.67 112.01 44.34 111.02 44 110 C44.66 110.33 44.66 110.33 48 112 C48.33 106.72 48.66 101.44 49 96 C50.65 95.67 52.3 95.34 54 95 C55.69457134 90.57937912 56.24831969 87.04922622 56.1875 82.25 C56.18105469 81.12078125 56.17460937 79.9915625 56.16796875 78.828125 C56 76 56 76 55 74 C52.75 73.625 52.75 73.625 50 74 C48.34300387 75.86412064 47.26657763 77.82872406 46 80 C45.67 80 45.34 80 45 80 C44.94577881 79.13310547 44.89155762 78.26621094 44.83569336 77.37304688 C44.62363737 74.11990687 44.36926937 70.87116616 44.1027832 67.62207031 C43.99377524 66.22251756 43.89586452 64.82205012 43.80981445 63.42089844 C42.92703022 49.27617281 42.92703022 49.27617281 36.8034668 43.47265625 C36.20832275 42.98667969 35.61317871 42.50070313 35 42 C34.14277344 41.28328125 33.28554687 40.5665625 32.40234375 39.828125 C14.09113793 28.10431018 -6.79853852 28.59953696 -27 35 Z M-52 144 C-53 145 -53 145 -53.28515625 148.27734375 C-53.20069511 154.30357887 -51.25286265 159.86977284 -49.4375 165.5625 C-49.25936768 166.13393738 -49.08123535 166.70537476 -48.89770508 167.29412842 C-46.0020088 176.56613749 -42.54058639 185.40126453 -38 194 C-37.01 194 -36.02 194 -35 194 C-34.48050781 193.01257813 -33.96101563 192.02515625 -33.42578125 191.0078125 C-32.7221407 189.71311389 -32.0176698 188.41886632 -31.3125 187.125 C-31.14266602 186.79951172 -31.14266602 186.79951172 -30.28320312 185.15234375 C-28.50567183 181.92953 -27.57179586 180.2983984 -24.23046875 178.5546875 C-23.49441406 178.37164062 -22.75835937 178.18859375 -22 178 C-24.44096233 176.03162185 -26.88226833 174.08796265 -29.39453125 172.2109375 C-39.62594602 164.44233501 -45.76709454 155.53617794 -51 144 C-51.33 144 -51.66 144 -52 144 Z M46 145 C45.67128906 145.60585937 45.34257812 146.21171875 45.00390625 146.8359375 C38.33436166 158.58445778 28.54520081 167.60015758 19 177 C19.33 177.66 19.66 178.32 20 179 C20.66 178.34 21.32 177.68 22 177 C23.65 177.33 25.3 177.66 27 178 C28.32 182.62 29.64 187.24 31 192 C33.670337 189.329663 34.77434564 187.79058422 36.33984375 184.5 C36.76152832 183.61803955 37.18321289 182.7360791 37.61767578 181.82739258 C38.05321777 180.89435303 38.48875977 179.96131348 38.9375 179 C39.38335449 178.04826904 39.82920898 177.09653809 40.28857422 176.1159668 C49.54396966 156.17405229 49.54396966 156.17405229 48 147 C47.34 146.34 46.68 145.68 46 145 Z M7 187 C2.38 187.33 -2.24 187.66 -7 188 C-4.45335415 192.81033104 -2.00972202 196.32442148 2 200 C3.03046722 198.21385682 4.04913236 196.42089982 5.0625 194.625 C5.34673828 194.12613281 5.34673828 194.12613281 6.78515625 191.6015625 C7.18605469 190.74304688 7.58695313 189.88453125 8 189 C7.67 188.34 7.34 187.68 7 187 Z " fill="#142d7a" transform="translate(118,10)"/>
<path d="M0 0 C3.46087977 1.65487482 5.99140965 3.71492232 8 7 C7.67 7.165 7.67 7.165 6 8 C4.08203125 7.2578125 4.08203125 7.2578125 1.8125 6.125 C-2.22359419 4.23103994 -5.57436094 3.37665013 -10 3 C-10 2.01 -10 1.02 -10 0 C-6.71406016 -1.64296992 -3.48926778 -0.84961725 0 0 Z " fill="#142d7a" transform="translate(143,47)"/>
<path d="M0 0 C3.74164665 3.09056717 6.99849746 7.21504341 8 12 C8.16855105 18.16264769 7.28900695 22.8500272 3.31640625 27.66015625 C0.5382628 30.4877622 -1.40519109 30.91021752 -5.3125 31.5 C-9.33471154 31.36160132 -11.64368182 29.56146744 -14.484375 26.8359375 C-17.93862381 22.65166704 -19.34011897 18.28454712 -18.9375 12.875 C-17.96323637 7.58910156 -15.42233364 3.89354565 -11.25 0.5625 C-7.50233507 -1.67095688 -4.00134842 -1.64995841 0 0 Z M-13 7 C-14.33827901 9.67655801 -14.20578556 11.82434052 -14.25 14.8125 C-14.27578125 15.85019531 -14.3015625 16.88789062 -14.328125 17.95703125 C-13.95701851 21.39860214 -13.04491005 23.23540073 -11 26 C-8.02592986 27.48703507 -5.2165391 27.58105222 -2 27 C1.37947631 24.79599371 2.58868443 23.52592999 3.6328125 19.65234375 C4.41266518 14.1518935 4.22610676 10.56104749 1 6 C-1.17416204 3.82583796 -2.41530956 3.10494444 -5.4375 2.5625 C-8.85518391 3.14600701 -10.50831385 4.64674086 -13 7 Z " fill="#142d7a" transform="translate(95,57)"/>
<path d="M0 0 C3.74816277 3.06593139 7.00163626 7.23003991 8 12 C8.16855105 18.16264769 7.28900695 22.8500272 3.31640625 27.66015625 C0.5382628 30.4877622 -1.40519109 30.91021752 -5.3125 31.5 C-9.33533681 31.36157981 -11.64800143 29.56468485 -14.48046875 26.828125 C-17.66182408 23.00068465 -19.09621295 19.48614273 -18.90234375 14.4765625 C-17.86506297 7.76948485 -15.44055445 3.7287156 -10.1875 -0.4375 C-6.59043445 -1.36245971 -3.50588823 -1.27425553 0 0 Z M-13 7 C-14.33827901 9.67655801 -14.20578556 11.82434052 -14.25 14.8125 C-14.27578125 15.85019531 -14.3015625 16.88789062 -14.328125 17.95703125 C-13.95701851 21.39860214 -13.04491005 23.23540073 -11 26 C-8.02592986 27.48703507 -5.2165391 27.58105222 -2 27 C1.37947631 24.79599371 2.58868443 23.52592999 3.6328125 19.65234375 C4.41266518 14.1518935 4.22610676 10.56104749 1 6 C-1.17416204 3.82583796 -2.41530956 3.10494444 -5.4375 2.5625 C-8.85518391 3.14600701 -10.50831385 4.64674086 -13 7 Z " fill="#142d7a" transform="translate(144,57)"/>
<path d="M0 0 C1.32 0.66 2.64 1.32 4 2 C3.67 3.32 3.34 4.64 3 6 C1.68 6 0.36 6 -1 6 C-1.625 4.125 -1.625 4.125 -2 2 C-1.34 1.34 -0.68 0.68 0 0 Z " fill="#142d7a" transform="translate(90,70)"/>
<path d="M0 0 C1.32 0.66 2.64 1.32 4 2 C3.67 3.32 3.34 4.64 3 6 C1.68 6 0.36 6 -1 6 C-1.625 4.125 -1.625 4.125 -2 2 C-1.34 1.34 -0.68 0.68 0 0 Z " fill="#142d7a" transform="translate(139,70)"/>
<path d="M0 0 C0.99 0.33 1.98 0.66 3 1 C2.835 1.7425 2.67 2.485 2.5 3.25 C1.62346263 8.54733452 0.5537272 15.84013384 2.82421875 20.80078125 C4.71906568 22.73339921 6.72254334 22.98425121 9.33984375 23.1328125 C10.19707031 23.13023438 11.05429688 23.12765625 11.9375 23.125 C12.79214844 23.12757812 13.64679688 23.13015625 14.52734375 23.1328125 C17 23 17 23 21 22 C21 15.07 21 8.14 21 1 C22.32 1 23.64 1 25 1 C25.36625616 3.04013761 25.71815503 5.081146 26.0625 7.125 C26.16111328 7.69347656 26.16111328 7.69347656 26.66015625 10.5703125 C26.99756134 13.9753892 26.72330588 16.67178131 26 20 C26.27134766 19.91041016 26.27134766 19.91041016 27.64453125 19.45703125 C29.77714619 18.82301059 31.79076143 18.27452077 34 18 C36 19.375 36 19.375 37 21 C37.165 20.505 37.165 20.505 38 18 C40.68071023 19.51518404 40.95522984 19.86568952 42 23 C44.02239937 24.40242493 46.12813122 25.53598759 48.28515625 26.71875 C48.85105469 27.1415625 49.41695313 27.564375 50 28 C50 28.99 50 29.98 50 31 C49.195625 30.731875 48.39125 30.46375 47.5625 30.1875 C47.01851563 30.00703125 46.47453125 29.8265625 45.9140625 29.640625 C44.53179316 29.17798791 43.1518575 28.70835802 41.7734375 28.234375 C35.22734496 26.00125982 28.99005836 24.13525051 22 25 C21.236875 25.495 20.47375 25.99 19.6875 26.5 C15.41697327 28.8835498 10.78942336 28.54960596 6 28 C5.33097656 27.66226563 4.66195312 27.32453125 3.97265625 26.9765625 C-0.08283887 24.96889165 -4.71165447 26.14341518 -9 27 C-14.53598477 28.90528477 -19.78597795 31.34984695 -25 34 C-25.20703125 32.1640625 -25.20703125 32.1640625 -25 30 C-23.57421875 28.5859375 -23.57421875 28.5859375 -21.6875 27.375 C-21.07261719 26.97023438 -20.45773438 26.56546875 -19.82421875 26.1484375 C-18.67335499 25.42391085 -17.51040159 24.71793628 -16.33203125 24.0390625 C-15 23 -15 23 -14 20 C-13.01 20.66 -12.02 21.32 -11 22 C-10.566875 21.649375 -10.13375 21.29875 -9.6875 20.9375 C-9.130625 20.628125 -8.57375 20.31875 -8 20 C-7.01 20.33 -6.02 20.66 -5 21 C-4.01 21 -3.02 21 -2 21 C-2.66 19.68 -3.32 18.36 -4 17 C-4.66 17 -5.32 17 -6 17 C-5.67 15.68 -5.34 14.36 -5 13 C-4.67 13 -4.34 13 -4 13 C-3.79503906 12.14535156 -3.59007813 11.29070312 -3.37890625 10.41015625 C-3.10949219 9.30542969 -2.84007813 8.20070313 -2.5625 7.0625 C-2.29566406 5.96035156 -2.02882813 4.85820313 -1.75390625 3.72265625 C-1 1 -1 1 0 0 Z " fill="#142d7a" transform="translate(103,81)"/>
<path d="M0 0 C0.66 0.33 1.32 0.66 2 1 C2 2.65 2 4.3 2 6 C1.01 6.33 0.02 6.66 -1 7 C-1.33 8.65 -1.66 10.3 -2 12 C-2.99 11.67 -3.98 11.34 -5 11 C-4.50769231 4.6 -4.50769231 4.6 -1.9375 1.5625 C-1.298125 1.046875 -0.65875 0.53125 0 0 Z " fill="#142d7a" transform="translate(171,86)"/>
<path d="M0 0 C0.66 0 1.32 0 2 0 C1.13025803 2.00709684 0.28540273 3.68455488 -1.1875 5.3125 C-4.19750311 6.45422532 -6.87679087 5.58928474 -10 5 C-10 4.01 -10 3.02 -10 2 C-9.68095703 1.96970703 -9.68095703 1.96970703 -8.06640625 1.81640625 C-7.65326172 1.77451172 -7.65326172 1.77451172 -5.5625 1.5625 C-4.73878906 1.48128906 -3.91507812 1.40007812 -3.06640625 1.31640625 C-1 1 -1 1 0 0 Z " fill="#142d7a" transform="translate(96,88)"/>
<path d="M0 0 C0.495 0.165 0.99 0.33 1.5 0.5 C5.00543498 1.201087 8.43721022 1.07782793 12 1 C12 1.99 12 2.98 12 4 C9.58978936 5.51754003 8.31664378 6.02316906 5.4375 5.8125 C2.82391371 4.94130457 1.65574153 4.17860728 0 2 C0 1.34 0 0.68 0 0 Z " fill="#142d7a" transform="translate(132,89)"/>
<path d="M0 0 C0.495 0.33 0.495 0.33 3 2 C2.67 2.99 2.34 3.98 2 5 C1.01 4.01 0.02 3.02 -1 2 C-0.67 1.34 -0.34 0.68 0 0 Z " fill="#142d7a" transform="translate(160,92)"/>
<path d="M0 0 C0.99 0.33 1.98 0.66 3 1 C3.33 1.99 3.66 2.98 4 4 C3.01 4 2.02 4 1 4 C0.67 2.68 0.34 1.36 0 0 Z " fill="#142d7a" transform="translate(131,94)"/>
<path d="M0 0 C0.99 0.33 1.98 0.66 3 1 C2.67 2.32 2.34 3.64 2 5 C1.01 4.67 0.02 4.34 -1 4 C-0.67 2.68 -0.34 1.36 0 0 Z " fill="#142d7a" transform="translate(66,97)"/>
<path d="M0 0 C0.99 0.33 1.98 0.66 3 1 C2.01 1.99 1.02 2.98 0 4 C0 2.68 0 1.36 0 0 Z " fill="#142d7a" transform="translate(85,99)"/>
<path d="M0 0 C0.99 0.33 1.98 0.66 3 1 C3.33 1.99 3.66 2.98 4 4 C2.68 4 1.36 4 0 4 C0 2.68 0 1.36 0 0 Z " fill="#142d7a" transform="translate(146,99)"/>
<path d="M0 0 C0.66 0.33 1.32 0.66 2 1 C1.67 2.32 1.34 3.64 1 5 C0.34 4.67 -0.32 4.34 -1 4 C-0.67 2.68 -0.34 1.36 0 0 Z " fill="#142d7a" transform="translate(152,101)"/>
<path d="M0 0 C0.66 0.66 1.32 1.32 2 2 C1.505 2.33 1.505 2.33 -1 4 C-1 1 -1 1 0 0 Z " fill="#142d7a" transform="translate(80,104)"/>
<path d="M0 0 C0.99 0.33 1.98 0.66 3 1 C1.68 2.32 0.36 3.64 -1 5 C-1.33 4.34 -1.66 3.68 -2 3 C-1.34 2.01 -0.68 1.02 0 0 Z " fill="#142d7a" transform="translate(74,105)"/>
<path d="M0 0 C0.495 0.33 0.495 0.33 3 2 C2.67 2.99 2.34 3.98 2 5 C1.01 4.01 0.02 3.02 -1 2 C-0.67 1.34 -0.34 0.68 0 0 Z " fill="#142d7a" transform="translate(154,106)"/>
<path d="M0 0 C0.66 0.33 0.66 0.33 4 2 C3.67 2.99 3.34 3.98 3 5 C1.5 4.1875 1.5 4.1875 0 3 C0 2.01 0 1.02 0 0 Z " fill="#142d7a" transform="translate(159,106)"/>
<path d="M0 0 C0.66 0 1.32 0 2 0 C1.67 1.32 1.34 2.64 1 4 C0.34 3.67 -0.32 3.34 -1 3 C-0.67 2.01 -0.34 1.02 0 0 Z " fill="#142d7a" transform="translate(106,112)"/>
<path d="M0 0 C0.99 0.33 1.98 0.66 3 1 C3.6875 3.0625 3.6875 3.0625 4 5 C2.68 4.34 1.36 3.68 0 3 C0 2.01 0 1.02 0 0 Z " fill="#142d7a" transform="translate(131,112)"/>
<path d="M0 0 C0.66 0.66 1.32 1.32 2 2 C1.01 2.99 0.02 3.98 -1 5 C-1.04298839 3.66735985 -1.0403855 2.33272157 -1 1 C-0.67 0.67 -0.34 0.34 0 0 Z " fill="#142d7a" transform="translate(97,113)"/>
<path d="M0 0 C1.65 0.99 3.3 1.98 5 3 C3.25 5.0625 3.25 5.0625 1 7 C-1.25 6.75 -1.25 6.75 -3 6 C-1.125 1.125 -1.125 1.125 0 0 Z " fill="#142d7a" transform="translate(82,114)"/>
<path d="M0 0 C0.66 0 1.32 0 2 0 C1.34 1.65 0.68 3.3 0 5 C-0.99 5 -1.98 5 -3 5 C-1.125 1.125 -1.125 1.125 0 0 Z " fill="#142d7a" transform="translate(69,115)"/>
<path d="M0 0 C0.66 0.33 1.32 0.66 2 1 C1.34 2.65 0.68 4.3 0 6 C-0.99 6 -1.98 6 -3 6 C-1.125 1.125 -1.125 1.125 0 0 Z " fill="#142d7a" transform="translate(92,117)"/>
<path d="M0 0 C0.66 0.33 1.32 0.66 2 1 C1.67 2.65 1.34 4.3 1 6 C0.34 5.67 -0.32 5.34 -1 5 C-0.67 3.35 -0.34 1.7 0 0 Z " fill="#142d7a" transform="translate(113,117)"/>
<path d="M0 0 C0.99 0.33 1.98 0.66 3 1 C2.67 1.99 2.34 2.98 2 4 C1.01 3.67 0.02 3.34 -1 3 C-0.67 2.01 -0.34 1.02 0 0 Z " fill="#142d7a" transform="translate(124,118)"/>
<path d="M0 0 C0.66 0.33 0.66 0.33 4 2 C3.67 2.66 3.34 3.32 3 4 C2.01 3.67 1.02 3.34 0 3 C0 2.01 0 1.02 0 0 Z " fill="#142d7a" transform="translate(153,118)"/>
<path d="M0 0 C0.66 0 1.32 0 2 0 C1.67 1.32 1.34 2.64 1 4 C0.34 3.67 -0.32 3.34 -1 3 C-0.67 2.01 -0.34 1.02 0 0 Z " fill="#142d7a" transform="translate(102,119)"/>
<path d="M0 0 C0.66 0.33 1.32 0.66 2 1 C1.34 2.32 0.68 3.64 0 5 C-0.66 5 -1.32 5 -2 5 C-1.125 1.125 -1.125 1.125 0 0 Z " fill="#142d7a" transform="translate(72,122)"/>
<path d="M0 0 C0.66 0.33 0.66 0.33 4 2 C3.67 2.99 3.34 3.98 3 5 C1.5 4.1875 1.5 4.1875 0 3 C0 2.01 0 1.02 0 0 Z " fill="#142d7a" transform="translate(143,123)"/>
<path d="M0 0 C0.66 0.66 1.32 1.32 2 2 C1.01 2.99 0.02 3.98 -1 5 C-1.04298839 3.66735985 -1.0403855 2.33272157 -1 1 C-0.67 0.67 -0.34 0.34 0 0 Z " fill="#142d7a" transform="translate(95,128)"/>
<path d="M0 0 C0.99 0.33 1.98 0.66 3 1 C2.67 1.66 2.34 2.32 2 3 C1.34 3 0.68 3 0 3 C0 2.01 0 1.02 0 0 Z " fill="#142d7a" transform="translate(109,129)"/>
<path d="M0 0 C0.66 0.33 1.32 0.66 2 1 C1.34 2.98 0.68 4.96 0 7 C-0.66 6.67 -1.32 6.34 -2 6 C-1.125 1.125 -1.125 1.125 0 0 Z " fill="#142d7a" transform="translate(115,129)"/>
<path d="M0 0 C0.99 0.33 1.98 0.66 3 1 C2.67 2.65 2.34 4.3 2 6 C1.01 5.67 0.02 5.34 -1 5 C-0.67 3.35 -0.34 1.7 0 0 Z " fill="#142d7a" transform="translate(127,129)"/>
<path d="M0 0 C1.32 1.32 2.64 2.64 4 4 C3.34 4.66 2.68 5.32 2 6 C1.01 5.01 0.02 4.02 -1 3 C-0.67 2.01 -0.34 1.02 0 0 Z " fill="#142d7a" transform="translate(136,129)"/>
<path d="M0 0 C0.66 0.33 0.66 0.33 4 2 C4 2.66 4 3.32 4 4 C2.68 3.34 1.36 2.68 0 2 C0 1.34 0 0.68 0 0 Z " fill="#142d7a" transform="translate(158,129)"/>
<path d="M0 0 C0.66 0.66 1.32 1.32 2 2 C1.34 2.33 1.34 2.33 -2 4 C-1.34 2.68 -0.68 1.36 0 0 Z " fill="#142d7a" transform="translate(83,131)"/>
<path d="M0 0 C0.99 0.33 1.98 0.66 3 1 C2.01 1.99 1.02 2.98 0 4 C0 2.68 0 1.36 0 0 Z " fill="#142d7a" transform="translate(72,132)"/>
<path d="M0 0 C0.66 0.33 1.32 0.66 2 1 C1.67 1.99 1.34 2.98 1 4 C0.34 3.67 -0.32 3.34 -1 3 C-0.67 2.01 -0.34 1.02 0 0 Z " fill="#142d7a" transform="translate(105,136)"/>
<path d="M0 0 C0.66 0.33 1.32 0.66 2 1 C1.67 2.32 1.34 3.64 1 5 C0.01 5 -0.98 5 -2 5 C-1.34 3.35 -0.68 1.7 0 0 Z " fill="#142d7a" transform="translate(87,138)"/>
<path d="M0 0 C0.66 0.33 1.32 0.66 2 1 C1.34 2.32 0.68 3.64 0 5 C-0.66 4.67 -1.32 4.34 -2 4 C-1.34 2.68 -0.68 1.36 0 0 Z " fill="#142d7a" transform="translate(100,138)"/>
<path d="M0 0 C0.66 0.33 1.32 0.66 2 1 C1.67 3.64 1.34 6.28 1 9 C-0.32 9 -1.64 9 -3 9 C-2.01 6.03 -1.02 3.06 0 0 Z " fill="#142d7a" transform="translate(123,138)"/>
<path d="M0 0 C0.99 0.33 1.98 0.66 3 1 C2.67 1.99 2.34 2.98 2 4 C1.34 3.67 0.68 3.34 0 3 C0 2.01 0 1.02 0 0 Z " fill="#142d7a" transform="translate(142,139)"/>
<path d="M0 0 C0.495 0.33 0.495 0.33 3 2 C2.67 2.99 2.34 3.98 2 5 C1.01 4.01 0.02 3.02 -1 2 C-0.67 1.34 -0.34 0.68 0 0 Z " fill="#142d7a" transform="translate(152,139)"/>
<path d="M0 0 C1.32 0.99 2.64 1.98 4 3 C3.67 3.99 3.34 4.98 3 6 C1.68 4.68 0.36 3.36 -1 2 C-0.67 1.34 -0.34 0.68 0 0 Z " fill="#142d7a" transform="translate(157,139)"/>
<path d="M0 0 C0.99 0.33 1.98 0.66 3 1 C2.125 2.5 2.125 2.5 1 4 C0.34 4 -0.32 4 -1 4 C-0.67 2.68 -0.34 1.36 0 0 Z " fill="#142d7a" transform="translate(73,140)"/>
<path d="M0 0 C0.66 0.33 1.32 0.66 2 1 C1.34 2.65 0.68 4.3 0 6 C-0.66 5.67 -1.32 5.34 -2 5 C-1.125 1.125 -1.125 1.125 0 0 Z " fill="#142d7a" transform="translate(115,145)"/>
<path d="M0 0 C0.495 0.33 0.495 0.33 3 2 C2.67 2.99 2.34 3.98 2 5 C1.01 4.01 0.02 3.02 -1 2 C-0.67 1.34 -0.34 0.68 0 0 Z " fill="#142d7a" transform="translate(133,145)"/>
<path d="M0 0 C0.66 0.33 1.32 0.66 2 1 C1.34 2.32 0.68 3.64 0 5 C-0.66 4.34 -1.32 3.68 -2 3 C-1.34 2.01 -0.68 1.02 0 0 Z " fill="#142d7a" transform="translate(85,147)"/>
<path d="M0 0 C0.66 0.33 1.32 0.66 2 1 C1.34 2.32 0.68 3.64 0 5 C-0.66 4.34 -1.32 3.68 -2 3 C-1.34 2.01 -0.68 1.02 0 0 Z " fill="#142d7a" transform="translate(77,148)"/>
<path d="M0 0 C0.66 0.33 1.32 0.66 2 1 C1.34 2.32 0.68 3.64 0 5 C-0.66 4.67 -1.32 4.34 -2 4 C-1.34 2.68 -0.68 1.36 0 0 Z " fill="#142d7a" transform="translate(97,151)"/>
<path d="M0 0 C1.32 0.99 2.64 1.98 4 3 C3.67 3.99 3.34 4.98 3 6 C1.68 4.68 0.36 3.36 -1 2 C-0.67 1.34 -0.34 0.68 0 0 Z " fill="#142d7a" transform="translate(142,151)"/>
<path d="M0 0 C0.66 0 1.32 0 2 0 C1.67 1.32 1.34 2.64 1 4 C0.34 4 -0.32 4 -1 4 C-0.67 2.68 -0.34 1.36 0 0 Z " fill="#142d7a" transform="translate(105,153)"/>
<path d="M0 0 C0.66 0 1.32 0 2 0 C1.38461538 3.69230769 1.38461538 3.69230769 -0.5625 5.25 C-1.036875 5.4975 -1.51125 5.745 -2 6 C-2.33 5.34 -2.66 4.68 -3 4 C-1.625 2 -1.625 2 0 0 Z " fill="#142d7a" transform="translate(86,154)"/>
<path d="M0 0 C0.66 0.66 1.32 1.32 2 2 C1.34 3.32 0.68 4.64 0 6 C-0.66 5.67 -1.32 5.34 -2 5 C-1.125 1.125 -1.125 1.125 0 0 Z " fill="#142d7a" transform="translate(113,156)"/>
<path d="M0 0 C0.99 0.33 1.98 0.66 3 1 C2.67 1.99 2.34 2.98 2 4 C1.01 3.01 0.02 2.02 -1 1 C-0.67 0.67 -0.34 0.34 0 0 Z " fill="#142d7a" transform="translate(126,156)"/>
<path d="M0 0 C0.66 0 1.32 0 2 0 C1.67 1.32 1.34 2.64 1 4 C0.01 4 -0.98 4 -2 4 C-1.34 2.68 -0.68 1.36 0 0 Z " fill="#142d7a" transform="translate(89,160)"/>
<path d="M0 0 C0.66 0.33 1.32 0.66 2 1 C1.67 1.99 1.34 2.98 1 4 C0.34 3.67 -0.32 3.34 -1 3 C-0.67 2.01 -0.34 1.02 0 0 Z " fill="#142d7a" transform="translate(148,160)"/>
<path d="M0 0 C0.99 0.33 1.98 0.66 3 1 C3.33 2.65 3.66 4.3 4 6 C1 5 1 5 -0.1875 2.9375 C-0.455625 2.298125 -0.72375 1.65875 -1 1 C-0.67 0.67 -0.34 0.34 0 0 Z " fill="#142d7a" transform="translate(132,162)"/>
<path d="M0 0 C0.66 0.33 1.32 0.66 2 1 C1.34 2.65 0.68 4.3 0 6 C-0.99 6 -1.98 6 -3 6 C-1.125 1.125 -1.125 1.125 0 0 Z " fill="#142d7a" transform="translate(101,163)"/>
<path d="M0 0 C0.66 0.33 1.32 0.66 2 1 C1.67 2.65 1.34 4.3 1 6 C0.34 6 -0.32 6 -1 6 C-1.625 4.125 -1.625 4.125 -2 2 C-1.34 1.34 -0.68 0.68 0 0 Z " fill="#142d7a" transform="translate(115,169)"/>
<path d="M0 0 C0.99 0.99 1.98 1.98 3 3 C2.67 3.66 2.34 4.32 2 5 C1.01 4.67 0.02 4.34 -1 4 C-0.67 2.68 -0.34 1.36 0 0 Z " fill="#142d7a" transform="translate(124,174)"/>
</g>
<g filter="url(#glow)">
<path d="M0 0 C1.05489353 0.6024069 2.09584838 1.22959983 3.125 1.875 C6.30461137 3.84198796 9.29227138 4.63509119 12.9375 5.4375 C21.22301272 7.3718207 26.14186258 10.6516963 31.375 17.25 C33.22446576 19.24173235 35.13193021 20.50430797 37.4375 21.9375 C44.13394126 26.17933357 49.03268659 31.18642504 51 39 C51.28890365 41.88133238 51.32506118 44.73090414 51.3125 47.625 C51.32861328 48.37523437 51.34472656 49.12546875 51.36132812 49.8984375 C51.36532874 54.41112598 50.93406292 56.45147364 48 60 C47.70703125 62.578125 47.70703125 62.578125 47.8125 65.25 C47.83957031 66.14203125 47.86664063 67.0340625 47.89453125 67.953125 C47.92933594 68.62859375 47.96414062 69.3040625 48 70 C48.66 69.67 49.32 69.34 50 69 C53.68012333 68.5999866 55.3489289 68.48970103 58.3125 70.8125 C62.32525322 76.01421714 61.51725594 82.75041448 61 89 C60.10159649 92.58430415 59.03697993 95.90052127 57 99 C54.859375 100.26953125 54.859375 100.26953125 53 101 C53.02320313 101.66902344 53.04640625 102.33804688 53.0703125 103.02734375 C53.20315597 110.09651428 52.66892007 116.86099791 51.71142578 123.85913086 C50.46668478 133.23240776 49.6683116 144.44341624 55.11035156 152.68066406 C57.96317361 156.33697756 61.15182339 159.69012123 64.29882812 163.09179688 C69.05110006 168.42241648 73.2229838 174.26489026 77.48779297 179.98632812 C78.8688707 181.82538676 80.27525728 183.64104636 81.69140625 185.453125 C88.1372647 193.87048253 99 208.19018247 99 219 C97.35 219 95.7 219 94 219 C93.74943848 218.43716309 93.49887695 217.87432617 93.24072266 217.29443359 C88.1477112 205.96046206 82.92009511 195.39636854 75.24560547 185.59423828 C73.98692445 183.98326473 72.75858133 182.35270954 71.53515625 180.71484375 C65.6547029 172.89010312 59.38445393 165.41616227 53 158 C52.764021 158.56283691 52.52804199 159.12567383 52.28491211 159.70556641 C44.30458383 178.68277544 44.30458383 178.68277544 40.1875 187 C39.92251709 187.54350098 39.65753418 188.08700195 39.38452148 188.64697266 C37.6086406 192.1586644 35.52838505 195.01639595 33 198 C31.13671875 197.765625 31.13671875 197.765625 29 197 C27.76953125 195.109375 27.76953125 195.109375 26.8125 192.75 C26.64814453 192.34587891 26.64814453 192.34587891 25.81640625 190.30078125 C24.95902927 187.88453705 24.32846123 185.54557456 24 183 C22.35 183.33 20.7 183.66 19 184 C18.67 182.68 18.34 181.36 18 180 C13.71 188.25 9.42 196.5 5 205 C6.32 205.33 7.64 205.66 9 206 C10.25 208.0625 10.25 208.0625 11 210 C10.01 211.32 9.02 212.64 8 214 C3.125 213.125 3.125 213.125 2 212 C1.67 214.31 1.34 216.62 1 219 C-0.65 219 -2.3 219 -4 219 C-4.05422947 217.5629191 -4.09289723 216.12524538 -4.125 214.6875 C-4.14820312 213.88699219 -4.17140625 213.08648437 -4.1953125 212.26171875 C-4 210 -4 210 -2.9296875 208.51953125 C-2 207 -2 207 -2.26464844 204.67504883 C-3.05395791 201.80371286 -4.08093641 200.07059794 -5.8359375 197.6796875 C-6.40570313 196.89722656 -6.97546875 196.11476562 -7.5625 195.30859375 C-8.160625 194.50550781 -8.75875 193.70242187 -9.375 192.875 C-9.67019531 192.46958984 -9.67019531 192.46958984 -11.1640625 190.41796875 C-13.62045823 187.07085294 -15.98992731 183.87279087 -19 181 C-19.66 181.66 -20.32 182.32 -21 183 C-23.125 183.125 -23.125 183.125 -25 183 C-25.25910156 183.87011719 -25.51820312 184.74023438 -25.78515625 185.63671875 C-26.9063236 188.9923322 -28.53562819 191.82267572 -30.4375 194.8125 C-30.73591797 195.29009766 -30.73591797 195.29009766 -32.24609375 197.70703125 C-34 200 -34 200 -37 201 C-46.74670521 192.97330159 -49.79217827 179.20013954 -53.484375 167.66015625 C-54.53356511 164.38111333 -55.64975421 161.17043006 -57 158 C-59.55999346 161.09727604 -62.1028495 164.20776638 -64.63525391 167.32763672 C-65.53883282 168.43488459 -66.44731121 169.53815374 -67.36083984 170.63720703 C-74.19892847 178.86485377 -79.7512159 187.26846204 -84.77294922 196.70800781 C-86.66347055 200.239288 -88.60647093 203.74134253 -90.54296875 207.24755859 C-92.70327126 211.16067725 -94.85194554 215.08014843 -97 219 C-98.65 219 -100.3 219 -102 219 C-92.4526903 197.86285011 -81.8352314 178.86912787 -66.0234375 161.76171875 C-60.05700126 155.20240981 -57.56985119 150.03810489 -57 141 C-56.76022442 139.85198358 -56.51186163 138.70568088 -56.25 137.5625 C-55.79443766 134.32723527 -56.36935791 131.45335433 -56.9375 128.25 C-58.45649421 119.53362381 -58.1820235 110.81973847 -58 102 C-58.78890625 101.87496094 -59.5778125 101.74992187 -60.390625 101.62109375 C-63 101 -63 101 -64.75 99.0625 C-67.9372172 91.25381786 -67.3919938 82.98617285 -65 75 C-63.86550871 72.64254791 -63.04824502 71.75563859 -61 70 C-58.25 69.1875 -58.25 69.1875 -56 69 C-56 67.35 -56 65.7 -56 64 C-56.99 63.67 -57.98 63.34 -59 63 C-60.62932666 59.74134669 -60.22598078 56.28137608 -60.25 52.6875 C-60.270625 51.92759766 -60.29125 51.16769531 -60.3125 50.38476562 C-60.36326676 43.08069842 -57.71428846 39.56318972 -52.75 34.3125 C-49.65220617 30.97238536 -46.89250397 27.581949 -44.3125 23.8125 C-38.41657277 15.20364042 -31.39136898 5.96860136 -20.83203125 3.15625 C-18.78066126 2.85045572 -16.72268027 2.58541585 -14.66015625 2.3671875 C-12.1859648 2.02566915 -10.7422157 1.5618231 -8.625 0.3125 C-5.18154932 -1.40922534 -3.65478898 -1.11881295 0 0 Z M-9.9609375 6.15234375 C-12.742052 7.30847756 -15.62095355 7.79653689 -18.5625 8.375 C-23.96008173 9.5272235 -26.74626511 10.54117811 -30 15 C-29.29875 14.79503906 -28.5975 14.59007812 -27.875 14.37890625 C-13.47042516 10.28847671 -0.67199573 10.66271696 14 13 C16.33227255 13.34132222 18.66591298 13.67121363 21 14 C18.94888784 11.94888784 18.15960689 11.58388739 15.48046875 10.81640625 C14.78759766 10.61080078 14.09472656 10.40519531 13.38085938 10.19335938 C11.93048076 9.77619794 10.4799621 9.35952306 9.02929688 8.94335938 C4.94701359 7.73113649 1.60808987 6.33189512 -2 4 C-5.30054963 3.36118394 -7.10956863 4.58043527 -9.9609375 6.15234375 Z M-42.53125 30.671875 C-45 33 -45 33 -47 34 C-47 34.66 -47 35.32 -47 36 C-47.66 36 -48.32 36 -49 36 C-50.5078125 37.57421875 -50.5078125 37.57421875 -52.125 39.6875 C-52.66382813 40.37199219 -53.20265625 41.05648437 -53.7578125 41.76171875 C-55.21051633 44.37932659 -55.23751225 46.05175015 -55 49 C-54.59910156 48.64808594 -54.19820312 48.29617187 -53.78515625 47.93359375 C-51.87133374 46.27147579 -49.93545647 44.63686374 -48 43 C-47.34773438 42.42378906 -46.69546875 41.84757812 -46.0234375 41.25390625 C-30.10843904 27.87219406 -9.09410805 25.3336785 11 27 C23.7888135 28.81616286 34.74466492 35.9838816 43.35546875 45.27734375 C43.89816406 45.84582031 44.44085938 46.41429688 45 47 C45.33 47 45.66 47 46 47 C46.40493388 40.25110199 46.0451776 35.50075536 41.51171875 30.2890625 C29.63897788 18.64513248 10.68619036 15.17818435 -5.3125 14.8125 C-21.22159885 15.03469412 -31.31929773 19.81683654 -42.53125 30.671875 Z M-27 35 C-26.38125 35.28875 -25.7625 35.5775 -25.125 35.875 C-23 37 -23 37 -21 39 C-21.71285156 39.09796875 -22.42570312 39.1959375 -23.16015625 39.296875 C-29.31847723 40.25833561 -33.80736161 41.53824107 -39 45 C-38.67 43.68 -38.34 42.36 -38 41 C-42.80444022 42.45589098 -46.67962729 45.26904357 -50 49 C-51.20640984 52.47129239 -51.07048117 55.76431558 -50.9921875 59.41015625 C-50.97468038 60.65949721 -50.95777122 61.90884668 -50.94140625 63.15820312 C-50.91039059 65.11588203 -50.87474937 67.07313329 -50.82861328 69.03051758 C-50.78628426 70.92795168 -50.76284815 72.82487926 -50.7421875 74.72265625 C-50.7311499 75.28859497 -50.7311499 75.28859497 -50.67529297 78.15258789 C-51 81 -51 81 -52.39111328 82.89233398 C-54 84 -54 84 -56 84 C-56.66 82.68 -57.32 81.36 -58 80 C-60.26325743 81.69744307 -61.82148381 83.00570635 -62.3359375 85.87109375 C-62.41393468 89.99714437 -61.87113844 93.25772312 -60 97 C-59.01 96.835 -59.01 96.835 -54 96 C-53.98541748 96.67877197 -53.97083496 97.35754395 -53.95581055 98.05688477 C-53.38845373 121.74353067 -51.69462584 144.55756134 -35 163 C-31.82218403 165.90014273 -28.47408074 168.46704021 -25 171 C-23.39124947 172.22316112 -21.78687376 173.45210332 -20.1875 174.6875 C-19.45273438 175.25082031 -18.71796875 175.81414062 -17.9609375 176.39453125 C-16.2428719 177.80115468 -14.79331466 179.22912639 -13.3125 180.875 C-8.76956826 185.04958593 -2.49585934 184.24425512 3.38671875 184.1328125 C6.8166152 183.95849788 8.99521916 183.74696561 12 182 C12.91194147 180.69326327 13.76994386 179.34839171 14.59375 177.984375 C18.14086396 172.51356887 22.50771903 168.1926906 27.1875 163.6875 C28.7873365 162.13114427 30.38507675 160.57263013 31.98046875 159.01171875 C32.68067139 158.33584717 33.38087402 157.65997559 34.10229492 156.96362305 C35.95709929 155.04439089 37.60259895 153.27736217 39 151 C38.1875 147.75 38.1875 147.75 37 145 C37.66 145.33 37.66 145.33 41 147 C45.41059532 136.12338629 47.46769101 125.74424104 47 114 C46.34 113.67 45.68 113.34 45 113 C44.67 112.01 44.34 111.02 44 110 C44.66 110.33 44.66 110.33 48 112 C48.33 106.72 48.66 101.44 49 96 C50.65 95.67 52.3 95.34 54 95 C55.69457134 90.57937912 56.24831969 87.04922622 56.1875 82.25 C56.18105469 81.12078125 56.17460937 79.9915625 56.16796875 78.828125 C56 76 56 76 55 74 C52.75 73.625 52.75 73.625 50 74 C48.34300387 75.86412064 47.26657763 77.82872406 46 80 C45.67 80 45.34 80 45 80 C44.94577881 79.13310547 44.89155762 78.26621094 44.83569336 77.37304688 C44.62363737 74.11990687 44.36926937 70.87116616 44.1027832 67.62207031 C43.99377524 66.22251756 43.89586452 64.82205012 43.80981445 63.42089844 C42.92703022 49.27617281 42.92703022 49.27617281 36.8034668 43.47265625 C36.20832275 42.98667969 35.61317871 42.50070313 35 42 C34.14277344 41.28328125 33.28554687 40.5665625 32.40234375 39.828125 C14.09113793 28.10431018 -6.79853852 28.59953696 -27 35 Z M-52 144 C-53 145 -53 145 -53.28515625 148.27734375 C-53.20069511 154.30357887 -51.25286265 159.86977284 -49.4375 165.5625 C-49.25936768 166.13393738 -49.08123535 166.70537476 -48.89770508 167.29412842 C-46.0020088 176.56613749 -42.54058639 185.40126453 -38 194 C-37.01 194 -36.02 194 -35 194 C-34.48050781 193.01257813 -33.96101563 192.02515625 -33.42578125 191.0078125 C-32.7221407 189.71311389 -32.0176698 188.41886632 -31.3125 187.125 C-31.14266602 186.79951172 -31.14266602 186.79951172 -30.28320312 185.15234375 C-28.50567183 181.92953 -27.57179586 180.2983984 -24.23046875 178.5546875 C-23.49441406 178.37164062 -22.75835937 178.18859375 -22 178 C-24.44096233 176.03162185 -26.88226833 174.08796265 -29.39453125 172.2109375 C-39.62594602 164.44233501 -45.76709454 155.53617794 -51 144 C-51.33 144 -51.66 144 -52 144 Z M46 145 C45.67128906 145.60585937 45.34257812 146.21171875 45.00390625 146.8359375 C38.33436166 158.58445778 28.54520081 167.60015758 19 177 C19.33 177.66 19.66 178.32 20 179 C20.66 178.34 21.32 177.68 22 177 C23.65 177.33 25.3 177.66 27 178 C28.32 182.62 29.64 187.24 31 192 C33.670337 189.329663 34.77434564 187.79058422 36.33984375 184.5 C36.76152832 183.61803955 37.18321289 182.7360791 37.61767578 181.82739258 C38.05321777 180.89435303 38.48875977 179.96131348 38.9375 179 C39.38335449 178.04826904 39.82920898 177.09653809 40.28857422 176.1159668 C49.54396966 156.17405229 49.54396966 156.17405229 48 147 C47.34 146.34 46.68 145.68 46 145 Z M7 187 C2.38 187.33 -2.24 187.66 -7 188 C-4.45335415 192.81033104 -2.00972202 196.32442148 2 200 C3.03046722 198.21385682 4.04913236 196.42089982 5.0625 194.625 C5.34673828 194.12613281 5.34673828 194.12613281 6.78515625 191.6015625 C7.18605469 190.74304688 7.58695313 189.88453125 8 189 C7.67 188.34 7.34 187.68 7 187 Z " fill="#1e40af" transform="translate(118,10)"/>
<path d="M0 0 C3.46087977 1.65487482 5.99140965 3.71492232 8 7 C7.67 7.165 7.67 7.165 6 8 C4.08203125 7.2578125 4.08203125 7.2578125 1.8125 6.125 C-2.22359419 4.23103994 -5.57436094 3.37665013 -10 3 C-10 2.01 -10 1.02 -10 0 C-6.71406016 -1.64296992 -3.48926778 -0.84961725 0 0 Z " fill="#1e40af" transform="translate(143,47)"/>
<path d="M0 0 C3.74164665 3.09056717 6.99849746 7.21504341 8 12 C8.16855105 18.16264769 7.28900695 22.8500272 3.31640625 27.66015625 C0.5382628 30.4877622 -1.40519109 30.91021752 -5.3125 31.5 C-9.33471154 31.36160132 -11.64368182 29.56146744 -14.484375 26.8359375 C-17.93862381 22.65166704 -19.34011897 18.28454712 -18.9375 12.875 C-17.96323637 7.58910156 -15.42233364 3.89354565 -11.25 0.5625 C-7.50233507 -1.67095688 -4.00134842 -1.64995841 0 0 Z M-13 7 C-14.33827901 9.67655801 -14.20578556 11.82434052 -14.25 14.8125 C-14.27578125 15.85019531 -14.3015625 16.88789062 -14.328125 17.95703125 C-13.95701851 21.39860214 -13.04491005 23.23540073 -11 26 C-8.02592986 27.48703507 -5.2165391 27.58105222 -2 27 C1.37947631 24.79599371 2.58868443 23.52592999 3.6328125 19.65234375 C4.41266518 14.1518935 4.22610676 10.56104749 1 6 C-1.17416204 3.82583796 -2.41530956 3.10494444 -5.4375 2.5625 C-8.85518391 3.14600701 -10.50831385 4.64674086 -13 7 Z " fill="#1e40af" transform="translate(95,57)"/>
<path d="M0 0 C3.74816277 3.06593139 7.00163626 7.23003991 8 12 C8.16855105 18.16264769 7.28900695 22.8500272 3.31640625 27.66015625 C0.5382628 30.4877622 -1.40519109 30.91021752 -5.3125 31.5 C-9.33533681 31.36157981 -11.64800143 29.56468485 -14.48046875 26.828125 C-17.66182408 23.00068465 -19.09621295 19.48614273 -18.90234375 14.4765625 C-17.86506297 7.76948485 -15.44055445 3.7287156 -10.1875 -0.4375 C-6.59043445 -1.36245971 -3.50588823 -1.27425553 0 0 Z M-13 7 C-14.33827901 9.67655801 -14.20578556 11.82434052 -14.25 14.8125 C-14.27578125 15.85019531 -14.3015625 16.88789062 -14.328125 17.95703125 C-13.95701851 21.39860214 -13.04491005 23.23540073 -11 26 C-8.02592986 27.48703507 -5.2165391 27.58105222 -2 27 C1.37947631 24.79599371 2.58868443 23.52592999 3.6328125 19.65234375 C4.41266518 14.1518935 4.22610676 10.56104749 1 6 C-1.17416204 3.82583796 -2.41530956 3.10494444 -5.4375 2.5625 C-8.85518391 3.14600701 -10.50831385 4.64674086 -13 7 Z " fill="#1e40af" transform="translate(144,57)"/>
<path d="M0 0 C1.32 0.66 2.64 1.32 4 2 C3.67 3.32 3.34 4.64 3 6 C1.68 6 0.36 6 -1 6 C-1.625 4.125 -1.625 4.125 -2 2 C-1.34 1.34 -0.68 0.68 0 0 Z " fill="#1e40af" transform="translate(90,70)"/>
<path d="M0 0 C1.32 0.66 2.64 1.32 4 2 C3.67 3.32 3.34 4.64 3 6 C1.68 6 0.36 6 -1 6 C-1.625 4.125 -1.625 4.125 -2 2 C-1.34 1.34 -0.68 0.68 0 0 Z " fill="#1e40af" transform="translate(139,70)"/>
<path d="M0 0 C0.99 0.33 1.98 0.66 3 1 C2.835 1.7425 2.67 2.485 2.5 3.25 C1.62346263 8.54733452 0.5537272 15.84013384 2.82421875 20.80078125 C4.71906568 22.73339921 6.72254334 22.98425121 9.33984375 23.1328125 C10.19707031 23.13023438 11.05429688 23.12765625 11.9375 23.125 C12.79214844 23.12757812 13.64679688 23.13015625 14.52734375 23.1328125 C17 23 17 23 21 22 C21 15.07 21 8.14 21 1 C22.32 1 23.64 1 25 1 C25.36625616 3.04013761 25.71815503 5.081146 26.0625 7.125 C26.16111328 7.69347656 26.16111328 7.69347656 26.66015625 10.5703125 C26.99756134 13.9753892 26.72330588 16.67178131 26 20 C26.27134766 19.91041016 26.27134766 19.91041016 27.64453125 19.45703125 C29.77714619 18.82301059 31.79076143 18.27452077 34 18 C36 19.375 36 19.375 37 21 C37.165 20.505 37.165 20.505 38 18 C40.68071023 19.51518404 40.95522984 19.86568952 42 23 C44.02239937 24.40242493 46.12813122 25.53598759 48.28515625 26.71875 C48.85105469 27.1415625 49.41695313 27.564375 50 28 C50 28.99 50 29.98 50 31 C49.195625 30.731875 48.39125 30.46375 47.5625 30.1875 C47.01851563 30.00703125 46.47453125 29.8265625 45.9140625 29.640625 C44.53179316 29.17798791 43.1518575 28.70835802 41.7734375 28.234375 C35.22734496 26.00125982 28.99005836 24.13525051 22 25 C21.236875 25.495 20.47375 25.99 19.6875 26.5 C15.41697327 28.8835498 10.78942336 28.54960596 6 28 C5.33097656 27.66226563 4.66195312 27.32453125 3.97265625 26.9765625 C-0.08283887 24.96889165 -4.71165447 26.14341518 -9 27 C-14.53598477 28.90528477 -19.78597795 31.34984695 -25 34 C-25.20703125 32.1640625 -25.20703125 32.1640625 -25 30 C-23.57421875 28.5859375 -23.57421875 28.5859375 -21.6875 27.375 C-21.07261719 26.97023438 -20.45773438 26.56546875 -19.82421875 26.1484375 C-18.67335499 25.42391085 -17.51040159 24.71793628 -16.33203125 24.0390625 C-15 23 -15 23 -14 20 C-13.01 20.66 -12.02 21.32 -11 22 C-10.566875 21.649375 -10.13375 21.29875 -9.6875 20.9375 C-9.130625 20.628125 -8.57375 20.31875 -8 20 C-7.01 20.33 -6.02 20.66 -5 21 C-4.01 21 -3.02 21 -2 21 C-2.66 19.68 -3.32 18.36 -4 17 C-4.66 17 -5.32 17 -6 17 C-5.67 15.68 -5.34 14.36 -5 13 C-4.67 13 -4.34 13 -4 13 C-3.79503906 12.14535156 -3.59007813 11.29070312 -3.37890625 10.41015625 C-3.10949219 9.30542969 -2.84007813 8.20070313 -2.5625 7.0625 C-2.29566406 5.96035156 -2.02882813 4.85820313 -1.75390625 3.72265625 C-1 1 -1 1 0 0 Z " fill="#1e40af" transform="translate(103,81)"/>
<path d="M0 0 C0.66 0.33 1.32 0.66 2 1 C2 2.65 2 4.3 2 6 C1.01 6.33 0.02 6.66 -1 7 C-1.33 8.65 -1.66 10.3 -2 12 C-2.99 11.67 -3.98 11.34 -5 11 C-4.50769231 4.6 -4.50769231 4.6 -1.9375 1.5625 C-1.298125 1.046875 -0.65875 0.53125 0 0 Z " fill="#1e40af" transform="translate(171,86)"/>
<path d="M0 0 C0.66 0 1.32 0 2 0 C1.13025803 2.00709684 0.28540273 3.68455488 -1.1875 5.3125 C-4.19750311 6.45422532 -6.87679087 5.58928474 -10 5 C-10 4.01 -10 3.02 -10 2 C-9.68095703 1.96970703 -9.68095703 1.96970703 -8.06640625 1.81640625 C-7.65326172 1.77451172 -7.65326172 1.77451172 -5.5625 1.5625 C-4.73878906 1.48128906 -3.91507812 1.40007812 -3.06640625 1.31640625 C-1 1 -1 1 0 0 Z " fill="#1e40af" transform="translate(96,88)"/>
<path d="M0 0 C0.495 0.165 0.99 0.33 1.5 0.5 C5.00543498 1.201087 8.43721022 1.07782793 12 1 C12 1.99 12 2.98 12 4 C9.58978936 5.51754003 8.31664378 6.02316906 5.4375 5.8125 C2.82391371 4.94130457 1.65574153 4.17860728 0 2 C0 1.34 0 0.68 0 0 Z " fill="#1e40af" transform="translate(132,89)"/>
<path d="M0 0 C0.495 0.33 0.495 0.33 3 2 C2.67 2.99 2.34 3.98 2 5 C1.01 4.01 0.02 3.02 -1 2 C-0.67 1.34 -0.34 0.68 0 0 Z " fill="#1e40af" transform="translate(160,92)"/>
<path d="M0 0 C0.99 0.33 1.98 0.66 3 1 C3.33 1.99 3.66 2.98 4 4 C3.01 4 2.02 4 1 4 C0.67 2.68 0.34 1.36 0 0 Z " fill="#1e40af" transform="translate(131,94)"/>
<path d="M0 0 C0.99 0.33 1.98 0.66 3 1 C2.67 2.32 2.34 3.64 2 5 C1.01 4.67 0.02 4.34 -1 4 C-0.67 2.68 -0.34 1.36 0 0 Z " fill="#1e40af" transform="translate(66,97)"/>
<path d="M0 0 C0.99 0.33 1.98 0.66 3 1 C2.01 1.99 1.02 2.98 0 4 C0 2.68 0 1.36 0 0 Z " fill="#1e40af" transform="translate(85,99)"/>
<path d="M0 0 C0.99 0.33 1.98 0.66 3 1 C3.33 1.99 3.66 2.98 4 4 C2.68 4 1.36 4 0 4 C0 2.68 0 1.36 0 0 Z " fill="#1e40af" transform="translate(146,99)"/>
<path d="M0 0 C0.66 0.33 1.32 0.66 2 1 C1.67 2.32 1.34 3.64 1 5 C0.34 4.67 -0.32 4.34 -1 4 C-0.67 2.68 -0.34 1.36 0 0 Z " fill="#1e40af" transform="translate(152,101)"/>
<path d="M0 0 C0.66 0.66 1.32 1.32 2 2 C1.505 2.33 1.505 2.33 -1 4 C-1 1 -1 1 0 0 Z " fill="#1e40af" transform="translate(80,104)"/>
<path d="M0 0 C0.99 0.33 1.98 0.66 3 1 C1.68 2.32 0.36 3.64 -1 5 C-1.33 4.34 -1.66 3.68 -2 3 C-1.34 2.01 -0.68 1.02 0 0 Z " fill="#1e40af" transform="translate(74,105)"/>
<path d="M0 0 C0.495 0.33 0.495 0.33 3 2 C2.67 2.99 2.34 3.98 2 5 C1.01 4.01 0.02 3.02 -1 2 C-0.67 1.34 -0.34 0.68 0 0 Z " fill="#1e40af" transform="translate(154,106)"/>
<path d="M0 0 C0.66 0.33 0.66 0.33 4 2 C3.67 2.99 3.34 3.98 3 5 C1.5 4.1875 1.5 4.1875 0 3 C0 2.01 0 1.02 0 0 Z " fill="#1e40af" transform="translate(159,106)"/>
<path d="M0 0 C0.66 0 1.32 0 2 0 C1.67 1.32 1.34 2.64 1 4 C0.34 3.67 -0.32 3.34 -1 3 C-0.67 2.01 -0.34 1.02 0 0 Z " fill="#1e40af" transform="translate(106,112)"/>
<path d="M0 0 C0.99 0.33 1.98 0.66 3 1 C3.6875 3.0625 3.6875 3.0625 4 5 C2.68 4.34 1.36 3.68 0 3 C0 2.01 0 1.02 0 0 Z " fill="#1e40af" transform="translate(131,112)"/>
<path d="M0 0 C0.66 0.66 1.32 1.32 2 2 C1.01 2.99 0.02 3.98 -1 5 C-1.04298839 3.66735985 -1.0403855 2.33272157 -1 1 C-0.67 0.67 -0.34 0.34 0 0 Z " fill="#1e40af" transform="translate(97,113)"/>
<path d="M0 0 C1.65 0.99 3.3 1.98 5 3 C3.25 5.0625 3.25 5.0625 1 7 C-1.25 6.75 -1.25 6.75 -3 6 C-1.125 1.125 -1.125 1.125 0 0 Z " fill="#1e40af" transform="translate(82,114)"/>
<path d="M0 0 C0.66 0 1.32 0 2 0 C1.34 1.65 0.68 3.3 0 5 C-0.99 5 -1.98 5 -3 5 C-1.125 1.125 -1.125 1.125 0 0 Z " fill="#1e40af" transform="translate(69,115)"/>
<path d="M0 0 C0.66 0.33 1.32 0.66 2 1 C1.34 2.65 0.68 4.3 0 6 C-0.99 6 -1.98 6 -3 6 C-1.125 1.125 -1.125 1.125 0 0 Z " fill="#1e40af" transform="translate(92,117)"/>
<path d="M0 0 C0.66 0.33 1.32 0.66 2 1 C1.67 2.65 1.34 4.3 1 6 C0.34 5.67 -0.32 5.34 -1 5 C-0.67 3.35 -0.34 1.7 0 0 Z " fill="#1e40af" transform="translate(113,117)"/>
<path d="M0 0 C0.99 0.33 1.98 0.66 3 1 C2.67 1.99 2.34 2.98 2 4 C1.01 3.67 0.02 3.34 -1 3 C-0.67 2.01 -0.34 1.02 0 0 Z " fill="#1e40af" transform="translate(124,118)"/>
<path d="M0 0 C0.66 0.33 0.66 0.33 4 2 C3.67 2.66 3.34 3.32 3 4 C2.01 3.67 1.02 3.34 0 3 C0 2.01 0 1.02 0 0 Z " fill="#1e40af" transform="translate(153,118)"/>
<path d="M0 0 C0.66 0 1.32 0 2 0 C1.67 1.32 1.34 2.64 1 4 C0.34 3.67 -0.32 3.34 -1 3 C-0.67 2.01 -0.34 1.02 0 0 Z " fill="#1e40af" transform="translate(102,119)"/>
<path d="M0 0 C0.66 0.33 1.32 0.66 2 1 C1.34 2.32 0.68 3.64 0 5 C-0.66 5 -1.32 5 -2 5 C-1.125 1.125 -1.125 1.125 0 0 Z " fill="#1e40af" transform="translate(72,122)"/>
<path d="M0 0 C0.66 0.33 0.66 0.33 4 2 C3.67 2.99 3.34 3.98 3 5 C1.5 4.1875 1.5 4.1875 0 3 C0 2.01 0 1.02 0 0 Z " fill="#1e40af" transform="translate(143,123)"/>
<path d="M0 0 C0.66 0.66 1.32 1.32 2 2 C1.01 2.99 0.02 3.98 -1 5 C-1.04298839 3.66735985 -1.0403855 2.33272157 -1 1 C-0.67 0.67 -0.34 0.34 0 0 Z " fill="#1e40af" transform="translate(95,128)"/>
<path d="M0 0 C0.99 0.33 1.98 0.66 3 1 C2.67 1.66 2.34 2.32 2 3 C1.34 3 0.68 3 0 3 C0 2.01 0 1.02 0 0 Z " fill="#1e40af" transform="translate(109,129)"/>
<path d="M0 0 C0.66 0.33 1.32 0.66 2 1 C1.34 2.98 0.68 4.96 0 7 C-0.66 6.67 -1.32 6.34 -2 6 C-1.125 1.125 -1.125 1.125 0 0 Z " fill="#1e40af" transform="translate(115,129)"/>
<path d="M0 0 C0.99 0.33 1.98 0.66 3 1 C2.67 2.65 2.34 4.3 2 6 C1.01 5.67 0.02 5.34 -1 5 C-0.67 3.35 -0.34 1.7 0 0 Z " fill="#1e40af" transform="translate(127,129)"/>
<path d="M0 0 C1.32 1.32 2.64 2.64 4 4 C3.34 4.66 2.68 5.32 2 6 C1.01 5.01 0.02 4.02 -1 3 C-0.67 2.01 -0.34 1.02 0 0 Z " fill="#1e40af" transform="translate(136,129)"/>
<path d="M0 0 C0.66 0.33 0.66 0.33 4 2 C4 2.66 4 3.32 4 4 C2.68 3.34 1.36 2.68 0 2 C0 1.34 0 0.68 0 0 Z " fill="#1e40af" transform="translate(158,129)"/>
<path d="M0 0 C0.66 0.66 1.32 1.32 2 2 C1.34 2.33 1.34 2.33 -2 4 C-1.34 2.68 -0.68 1.36 0 0 Z " fill="#1e40af" transform="translate(83,131)"/>
<path d="M0 0 C0.99 0.33 1.98 0.66 3 1 C2.01 1.99 1.02 2.98 0 4 C0 2.68 0 1.36 0 0 Z " fill="#1e40af" transform="translate(72,132)"/>
<path d="M0 0 C0.66 0.33 1.32 0.66 2 1 C1.67 1.99 1.34 2.98 1 4 C0.34 3.67 -0.32 3.34 -1 3 C-0.67 2.01 -0.34 1.02 0 0 Z " fill="#1e40af" transform="translate(105,136)"/>
<path d="M0 0 C0.66 0.33 1.32 0.66 2 1 C1.67 2.32 1.34 3.64 1 5 C0.01 5 -0.98 5 -2 5 C-1.34 3.35 -0.68 1.7 0 0 Z " fill="#1e40af" transform="translate(87,138)"/>
<path d="M0 0 C0.66 0.33 1.32 0.66 2 1 C1.34 2.32 0.68 3.64 0 5 C-0.66 4.67 -1.32 4.34 -2 4 C-1.34 2.68 -0.68 1.36 0 0 Z " fill="#1e40af" transform="translate(100,138)"/>
<path d="M0 0 C0.66 0.33 1.32 0.66 2 1 C1.67 3.64 1.34 6.28 1 9 C-0.32 9 -1.64 9 -3 9 C-2.01 6.03 -1.02 3.06 0 0 Z " fill="#1e40af" transform="translate(123,138)"/>
<path d="M0 0 C0.99 0.33 1.98 0.66 3 1 C2.67 1.99 2.34 2.98 2 4 C1.34 3.67 0.68 3.34 0 3 C0 2.01 0 1.02 0 0 Z " fill="#1e40af" transform="translate(142,139)"/>
<path d="M0 0 C0.495 0.33 0.495 0.33 3 2 C2.67 2.99 2.34 3.98 2 5 C1.01 4.01 0.02 3.02 -1 2 C-0.67 1.34 -0.34 0.68 0 0 Z " fill="#1e40af" transform="translate(152,139)"/>
<path d="M0 0 C1.32 0.99 2.64 1.98 4 3 C3.67 3.99 3.34 4.98 3 6 C1.68 4.68 0.36 3.36 -1 2 C-0.67 1.34 -0.34 0.68 0 0 Z " fill="#1e40af" transform="translate(157,139)"/>
<path d="M0 0 C0.99 0.33 1.98 0.66 3 1 C2.125 2.5 2.125 2.5 1 4 C0.34 4 -0.32 4 -1 4 C-0.67 2.68 -0.34 1.36 0 0 Z " fill="#1e40af" transform="translate(73,140)"/>
<path d="M0 0 C0.66 0.33 1.32 0.66 2 1 C1.34 2.65 0.68 4.3 0 6 C-0.66 5.67 -1.32 5.34 -2 5 C-1.125 1.125 -1.125 1.125 0 0 Z " fill="#1e40af" transform="translate(115,145)"/>
<path d="M0 0 C0.495 0.33 0.495 0.33 3 2 C2.67 2.99 2.34 3.98 2 5 C1.01 4.01 0.02 3.02 -1 2 C-0.67 1.34 -0.34 0.68 0 0 Z " fill="#1e40af" transform="translate(133,145)"/>
<path d="M0 0 C0.66 0.33 1.32 0.66 2 1 C1.34 2.32 0.68 3.64 0 5 C-0.66 4.34 -1.32 3.68 -2 3 C-1.34 2.01 -0.68 1.02 0 0 Z " fill="#1e40af" transform="translate(85,147)"/>
<path d="M0 0 C0.66 0.33 1.32 0.66 2 1 C1.34 2.32 0.68 3.64 0 5 C-0.66 4.34 -1.32 3.68 -2 3 C-1.34 2.01 -0.68 1.02 0 0 Z " fill="#1e40af" transform="translate(77,148)"/>
<path d="M0 0 C0.66 0.33 1.32 0.66 2 1 C1.34 2.32 0.68 3.64 0 5 C-0.66 4.67 -1.32 4.34 -2 4 C-1.34 2.68 -0.68 1.36 0 0 Z " fill="#1e40af" transform="translate(97,151)"/>
<path d="M0 0 C1.32 0.99 2.64 1.98 4 3 C3.67 3.99 3.34 4.98 3 6 C1.68 4.68 0.36 3.36 -1 2 C-0.67 1.34 -0.34 0.68 0 0 Z " fill="#1e40af" transform="translate(142,151)"/>
<path d="M0 0 C0.66 0 1.32 0 2 0 C1.67 1.32 1.34 2.64 1 4 C0.34 4 -0.32 4 -1 4 C-0.67 2.68 -0.34 1.36 0 0 Z " fill="#1e40af" transform="translate(105,153)"/>
<path d="M0 0 C0.66 0 1.32 0 2 0 C1.38461538 3.69230769 1.38461538 3.69230769 -0.5625 5.25 C-1.036875 5.4975 -1.51125 5.745 -2 6 C-2.33 5.34 -2.66 4.68 -3 4 C-1.625 2 -1.625 2 0 0 Z " fill="#1e40af" transform="translate(86,154)"/>
<path d="M0 0 C0.66 0.66 1.32 1.32 2 2 C1.34 3.32 0.68 4.64 0 6 C-0.66 5.67 -1.32 5.34 -2 5 C-1.125 1.125 -1.125 1.125 0 0 Z " fill="#1e40af" transform="translate(113,156)"/>
<path d="M0 0 C0.99 0.33 1.98 0.66 3 1 C2.67 1.99 2.34 2.98 2 4 C1.01 3.01 0.02 2.02 -1 1 C-0.67 0.67 -0.34 0.34 0 0 Z " fill="#1e40af" transform="translate(126,156)"/>
<path d="M0 0 C0.66 0 1.32 0 2 0 C1.67 1.32 1.34 2.64 1 4 C0.01 4 -0.98 4 -2 4 C-1.34 2.68 -0.68 1.36 0 0 Z " fill="#1e40af" transform="translate(89,160)"/>
<path d="M0 0 C0.66 0.33 1.32 0.66 2 1 C1.67 1.99 1.34 2.98 1 4 C0.34 3.67 -0.32 3.34 -1 3 C-0.67 2.01 -0.34 1.02 0 0 Z " fill="#1e40af" transform="translate(148,160)"/>
<path d="M0 0 C0.99 0.33 1.98 0.66 3 1 C3.33 2.65 3.66 4.3 4 6 C1 5 1 5 -0.1875 2.9375 C-0.455625 2.298125 -0.72375 1.65875 -1 1 C-0.67 0.67 -0.34 0.34 0 0 Z " fill="#1e40af" transform="translate(132,162)"/>
<path d="M0 0 C0.66 0.33 1.32 0.66 2 1 C1.34 2.65 0.68 4.3 0 6 C-0.99 6 -1.98 6 -3 6 C-1.125 1.125 -1.125 1.125 0 0 Z " fill="#1e40af" transform="translate(101,163)"/>
<path d="M0 0 C0.66 0.33 1.32 0.66 2 1 C1.67 2.65 1.34 4.3 1 6 C0.34 6 -0.32 6 -1 6 C-1.625 4.125 -1.625 4.125 -2 2 C-1.34 1.34 -0.68 0.68 0 0 Z " fill="#1e40af" transform="translate(115,169)"/>
<path d="M0 0 C0.99 0.99 1.98 1.98 3 3 C2.67 3.66 2.34 4.32 2 5 C1.01 4.67 0.02 4.34 -1 4 C-0.67 2.68 -0.34 1.36 0 0 Z " fill="#1e40af" transform="translate(124,174)"/>
</g>
</g>
</svg>
