<?xml version="1.0" encoding="UTF-8"?>
<!-- Generator: visioncortex VTracer 0.6.12 -->
<svg version="1.1" xmlns="http://www.w3.org/2000/svg" width="229" height="229">
<path d="M0 0 C15.01087308 12.45879265 21.68413233 31.18740536 24.21484375 50.03515625 C24.6937251 55.65214991 24.65129135 61.2776955 24.58984375 66.91015625 C24.58585571 67.65395538 24.58186768 68.39775452 24.57775879 69.16409302 C24.47083008 86.17192614 24.01930174 108.08005757 11.21484375 121.03515625 C8.66796875 121.8984375 8.66796875 121.8984375 6.21484375 122.03515625 C3.90234375 120.09765625 3.90234375 120.09765625 2.21484375 118.03515625 C1.71984375 118.50953125 1.22484375 118.98390625 0.71484375 119.47265625 C-2.77984276 121.65683532 -5.69482561 121.69429536 -9.78515625 122.03515625 C-10.77515625 125.00515625 -11.76515625 127.97515625 -12.78515625 131.03515625 C-12.02332031 131.69 -11.26148438 132.34484375 -10.4765625 133.01953125 C3.44635578 145.22133406 15.9273149 161.62400294 20.21484375 180.03515625 C19.92809957 182.04236548 19.59617674 184.04375065 19.21484375 186.03515625 C19.84068294 188.64281954 20.64373188 191.13536334 21.5234375 193.66796875 C22.18601716 195.93646183 22.34988161 197.69089897 22.21484375 200.03515625 C21.22484375 200.03515625 20.23484375 200.03515625 19.21484375 200.03515625 C18.70972131 198.43259517 18.21092748 196.82803833 17.71484375 195.22265625 C17.43640625 194.32933594 17.15796875 193.43601563 16.87109375 192.515625 C16.21484375 190.03515625 16.21484375 190.03515625 16.21484375 187.03515625 C6.82560608 191.68717419 6.82560608 191.68717419 5.328125 194.9921875 C5.08984375 196.91015625 5.08984375 196.91015625 5.21484375 200.03515625 C4.22484375 200.03515625 3.23484375 200.03515625 2.21484375 200.03515625 C2.05628906 199.14054688 1.89773437 198.2459375 1.734375 197.32421875 C0.39768489 190.25759678 -1.21668495 184.31170919 -4.89453125 178.0234375 C-5.78515625 176.03515625 -5.78515625 176.03515625 -4.78515625 173.03515625 C-1.41424957 176.05431614 0.56591127 179.23539209 2.46484375 183.28515625 C2.59890625 183.56230469 2.59890625 183.56230469 3.27734375 184.96484375 C3.9306152 186.31804891 4.57378935 187.67612092 5.21484375 189.03515625 C5.91351563 188.60203125 6.6121875 188.16890625 7.33203125 187.72265625 C8.24210937 187.16578125 9.1521875 186.60890625 10.08984375 186.03515625 C10.99476563 185.47828125 11.8996875 184.92140625 12.83203125 184.34765625 C15.21484375 183.03515625 15.21484375 183.03515625 17.21484375 183.03515625 C2.26113701 145.56674474 2.26113701 145.56674474 -12.78515625 136.03515625 C-12.86443359 136.32519531 -12.86443359 136.32519531 -13.265625 137.79296875 C-15.56961625 145.50688421 -18.29029187 149.86121964 -25.34765625 153.91015625 C-32.84073264 157.35051376 -40.35170378 157.15632074 -48.09765625 154.53515625 C-53.19320637 152.1972948 -57.04355707 148.96826028 -59.78515625 144.03515625 C-60.30080172 141.25350911 -60.25145982 138.81817437 -59.78515625 136.03515625 C-73.99095947 146.03966873 -85.76634246 161.75875797 -89.28515625 179.03515625 C-89.47763489 180.3650087 -89.65654657 181.69761556 -89.78515625 183.03515625 C-89.15867187 183.37289062 -88.5321875 183.710625 -87.88671875 184.05859375 C-87.06945312 184.50460938 -86.2521875 184.950625 -85.41015625 185.41015625 C-85.00410156 185.63058594 -85.00410156 185.63058594 -82.94921875 186.74609375 C-80.78515625 188.03515625 -80.78515625 188.03515625 -78.78515625 190.03515625 C-76.80515625 184.75515625 -74.82515625 179.47515625 -72.78515625 174.03515625 C-71.46515625 174.03515625 -70.14515625 174.03515625 -68.78515625 174.03515625 C-68.95402344 174.51275391 -68.95402344 174.51275391 -69.80859375 176.9296875 C-72.47035038 184.59677952 -74.66214388 191.97293315 -75.78515625 200.03515625 C-76.77515625 200.03515625 -77.76515625 200.03515625 -78.78515625 200.03515625 C-78.92953125 199.00390625 -79.07390625 197.97265625 -79.22265625 196.91015625 C-80.49778988 192.20270805 -83.89374357 190.51372258 -87.88671875 188.1015625 C-88.51320313 187.74964844 -89.1396875 187.39773437 -89.78515625 187.03515625 C-89.91792969 187.72222656 -90.05070312 188.40929687 -90.1875 189.1171875 C-90.27580078 189.56771484 -90.27580078 189.56771484 -90.72265625 191.84765625 C-90.89667969 192.74097656 -91.07070312 193.63429687 -91.25 194.5546875 C-91.78515625 197.03515625 -91.78515625 197.03515625 -92.78515625 200.03515625 C-93.77515625 200.03515625 -94.76515625 200.03515625 -95.78515625 200.03515625 C-94.28515625 188.03515625 -94.28515625 188.03515625 -94.01953125 186.015625 C-93.86987794 184.75105454 -93.75199355 183.48204971 -93.67578125 182.2109375 C-92.48272416 166.40293104 -82.37394101 153.02916904 -71.78515625 142.03515625 C-71.37378418 141.60332031 -70.96241211 141.17148438 -70.53857422 140.7265625 C-65.26787311 135.20818961 -65.26787311 135.20818961 -62.78515625 133.03515625 C-62.12515625 133.03515625 -61.46515625 133.03515625 -60.78515625 133.03515625 C-61.09616236 131.7639565 -61.40902391 130.4932106 -61.72265625 129.22265625 C-61.89667969 128.51496094 -62.07070312 127.80726563 -62.25 127.078125 C-62.6952633 125.37832423 -63.2294961 123.70213671 -63.78515625 122.03515625 C-64.30464844 121.99777344 -64.82414062 121.96039063 -65.359375 121.921875 C-69.89903983 121.49392138 -72.98890019 120.76371529 -76.78515625 118.03515625 C-76.98109375 118.36515625 -76.98109375 118.36515625 -77.97265625 120.03515625 C-79.78515625 122.03515625 -79.78515625 122.03515625 -82.17578125 122.3515625 C-86.26680524 121.85549522 -87.65395107 119.84091631 -90.1484375 116.71875 C-103.27984962 95.18824851 -101.34962493 57.66107594 -95.78515625 34.03515625 C-91.68129483 18.2516667 -82.7685711 4.6579108 -69.03515625 -4.33984375 C-47.23628431 -16.49624469 -20.07495796 -14.1622775 0 0 Z M-77.78515625 36.03515625 C-77.35831993 37.30961079 -76.91818423 38.57961507 -76.47265625 39.84765625 C-76.22902344 40.55535156 -75.98539063 41.26304688 -75.734375 41.9921875 C-74.70337622 44.21116841 -73.67625636 45.49407981 -71.78515625 47.03515625 C-71.12515625 47.03515625 -70.46515625 47.03515625 -69.78515625 47.03515625 C-70.0498643 43.24100758 -70.57973501 40.87303717 -73.22265625 38.16015625 C-75.78515625 36.03515625 -75.78515625 36.03515625 -77.78515625 36.03515625 Z M-48.34765625 53.47265625 C-48.98832031 53.92511719 -49.62898438 54.37757812 -50.2890625 54.84375 C-50.78277344 55.23691406 -51.27648437 55.63007812 -51.78515625 56.03515625 C-51.78515625 56.36515625 -51.78515625 56.69515625 -51.78515625 57.03515625 C-50.79515625 57.20015625 -50.79515625 57.20015625 -45.78515625 58.03515625 C-45.78515625 58.36515625 -45.78515625 58.69515625 -45.78515625 59.03515625 C-46.76097656 59.15632813 -47.73679687 59.2775 -48.7421875 59.40234375 C-50.02739783 59.5712035 -51.31255121 59.74049706 -52.59765625 59.91015625 C-52.91895508 59.94947266 -52.91895508 59.94947266 -54.54492188 60.1484375 C-57.82378242 60.59014928 -60.13475823 61.06227719 -62.78515625 63.03515625 C-62.26606689 63.03926514 -61.74697754 63.04337402 -61.2121582 63.04760742 C-58.83953313 63.0806892 -56.46942751 63.15133853 -54.09765625 63.22265625 C-53.6893457 63.22555664 -53.6893457 63.22555664 -51.62304688 63.24023438 C-47.51612568 63.38987928 -44.79885484 63.49286997 -41.859375 66.546875 C-41.17488281 67.36800781 -40.49039063 68.18914062 -39.78515625 69.03515625 C-37.28515625 69.66015625 -37.28515625 69.66015625 -34.78515625 69.03515625 C-34.13160156 68.21402344 -33.47804688 67.39289063 -32.8046875 66.546875 C-29.62746567 63.2458653 -26.27754415 63.37715535 -21.88085938 63.24023438 C-20.92115234 63.23443359 -19.96144531 63.22863281 -18.97265625 63.22265625 C-18.48313477 63.21008789 -18.48313477 63.21008789 -16.00585938 63.14648438 C-13.59855428 63.08776962 -11.19306063 63.05137645 -8.78515625 63.03515625 C-12.29800703 61.14617045 -15.03566316 60.67099276 -19.03515625 60.41015625 C-20.1128125 60.33539063 -21.19046875 60.260625 -22.30078125 60.18359375 C-22.71070313 60.15910156 -22.71070313 60.15910156 -24.78515625 60.03515625 C-23.79515625 59.04515625 -22.80515625 58.05515625 -21.78515625 57.03515625 C-22.44515625 56.04515625 -23.10515625 55.05515625 -23.78515625 54.03515625 C-24.50703125 54.32390625 -25.22890625 54.61265625 -25.97265625 54.91015625 C-26.43671875 55.09578125 -26.43671875 55.09578125 -28.78515625 56.03515625 C-29.18734375 56.22078125 -29.18734375 56.22078125 -31.22265625 57.16015625 C-34.79118623 58.37867868 -38.02082151 58.70438667 -41.59765625 57.34765625 C-43.32543813 55.43800259 -43.45595826 53.53706098 -43.78515625 51.03515625 C-45.59474663 51.03515625 -46.92015378 52.45465954 -48.34765625 53.47265625 Z M-68.78515625 54.03515625 C-69.44515625 57.00515625 -70.10515625 59.97515625 -70.78515625 63.03515625 C-69.13515625 63.03515625 -67.48515625 63.03515625 -65.78515625 63.03515625 C-65.78515625 62.04515625 -65.78515625 61.05515625 -65.78515625 60.03515625 C-64.79515625 59.70515625 -63.80515625 59.37515625 -62.78515625 59.03515625 C-63.58953125 58.21015625 -64.39390625 57.38515625 -65.22265625 56.53515625 C-65.67511719 56.07109375 -66.12757812 55.60703125 -66.59375 55.12890625 C-67.78515625 54.03515625 -67.78515625 54.03515625 -68.78515625 54.03515625 Z M-11.78515625 58.03515625 C-11.33140625 58.32390625 -10.87765625 58.61265625 -10.41015625 58.91015625 C-8.78515625 60.03515625 -8.78515625 60.03515625 -6.78515625 62.03515625 C-4.66015625 62.66015625 -4.66015625 62.66015625 -2.78515625 63.03515625 C-3.44515625 60.72515625 -4.10515625 58.41515625 -4.78515625 56.03515625 C-7.43168975 56.03515625 -9.36597255 57.01655259 -11.78515625 58.03515625 Z M-28.78515625 72.03515625 C-28.9394257 74.3017305 -29.01679032 76.51696405 -29.03515625 78.78515625 C-29.05578125 79.40648438 -29.07640625 80.0278125 -29.09765625 80.66796875 C-29.13373668 84.94350021 -28.42551035 87.50821266 -25.78515625 91.03515625 C-22.4691275 93.52217781 -18.78026606 93.56894963 -14.78515625 93.03515625 C-10.98088083 92.03526456 -8.55918535 91.02190928 -6.09375 87.87890625 C-4.45151799 84.31011549 -4.44247647 81.58623492 -4.59765625 77.72265625 C-4.61119141 77.07748047 -4.62472656 76.43230469 -4.63867188 75.76757812 C-4.67373498 74.18973819 -4.72753273 72.61233341 -4.78515625 71.03515625 C-8.59764051 71.00628389 -12.41009695 70.98840133 -16.22265625 70.97265625 C-17.31126953 70.96427734 -18.39988281 70.95589844 -19.52148438 70.94726562 C-20.0387207 70.9456543 -20.0387207 70.9456543 -22.65625 70.9375 C-23.6145874 70.93226318 -24.5729248 70.92702637 -25.56030273 70.92163086 C-27.78515625 71.03515625 -27.78515625 71.03515625 -28.78515625 72.03515625 Z M-68.78515625 72.03515625 C-68.86765625 74.42765625 -68.95015625 76.82015625 -69.03515625 79.28515625 C-69.07157227 80.0318457 -69.10798828 80.77853516 -69.14550781 81.54785156 C-69.2046292 85.09322795 -69.1479718 86.57039253 -66.89453125 89.45703125 C-63.42826094 92.05031496 -61.21823617 92.24759082 -56.91015625 92.34765625 C-55.86085938 92.38503906 -54.8115625 92.42242187 -53.73046875 92.4609375 C-50.10963312 91.93750105 -49.03143841 90.85084482 -46.78515625 88.03515625 C-45.31470931 85.09426237 -45.68156611 82.12682359 -45.72265625 78.91015625 C-45.74328125 76.64140625 -45.76390625 74.37265625 -45.78515625 72.03515625 C-53.37515625 72.03515625 -60.96515625 72.03515625 -68.78515625 72.03515625 Z M-37.78515625 78.03515625 C-38.0275 79.13214844 -38.26984375 80.22914062 -38.51953125 81.359375 C-38.85737155 82.81396516 -39.1959525 84.26838344 -39.53515625 85.72265625 C-39.69242188 86.44388672 -39.8496875 87.16511719 -40.01171875 87.90820312 C-40.84602163 91.42190179 -41.55458759 94.06894603 -43.99609375 96.7890625 C-45.78515625 99.03515625 -45.78515625 99.03515625 -45.58984375 101.23828125 C-45.28304687 101.91375 -44.97625 102.58921875 -44.66015625 103.28515625 C-44.36882812 103.9709375 -44.0775 104.65671875 -43.77734375 105.36328125 C-42.78515625 107.03515625 -42.78515625 107.03515625 -40.78515625 108.03515625 C-34.54085823 108.37575432 -34.54085823 108.37575432 -32.12109375 107.28515625 C-29.76641348 105.08194664 -29.89913641 102.47135817 -29.64453125 99.38671875 C-29.83247578 96.24386849 -30.9841504 94.61850216 -32.7265625 92.07421875 C-34.94589129 87.79934928 -35.19491456 82.76485611 -35.78515625 78.03515625 C-36.44515625 78.03515625 -37.10515625 78.03515625 -37.78515625 78.03515625 Z M-71.78515625 96.03515625 C-71.41618031 105.03816926 -69.30189111 110.93615856 -63.72265625 117.97265625 C-59.09392174 123.99234886 -57.77214282 129.71375527 -57.41015625 137.22265625 C-57.09910174 141.67356347 -56.75226126 144.68528127 -53.48828125 147.85546875 C-47.00704914 152.34476255 -39.59506861 154.42546573 -31.78515625 153.03515625 C-26.12624995 151.11895599 -21.83818656 148.97929098 -18.60693359 143.765625 C-17.13966873 140.67591218 -16.73720454 137.46255091 -16.28515625 134.09765625 C-15.26230913 126.52714692 -12.4972847 121.47236055 -8.22265625 115.22265625 C-4.51200015 109.33599811 -2.5501023 103.00017594 -2.78515625 96.03515625 C-3.57148438 96.52628906 -4.3578125 97.01742187 -5.16796875 97.5234375 C-9.53050614 99.70470619 -13.88649619 99.36284657 -18.66015625 99.22265625 C-19.53929687 99.20912109 -20.4184375 99.19558594 -21.32421875 99.18164062 C-23.47851136 99.14651629 -25.63150327 99.09733604 -27.78515625 99.03515625 C-27.83341553 99.58365234 -27.8816748 100.13214844 -27.93139648 100.69726562 C-28.00559814 101.41720703 -28.0797998 102.13714844 -28.15625 102.87890625 C-28.22513428 103.59240234 -28.29401855 104.30589844 -28.36499023 105.04101562 C-28.9724322 107.9239825 -30.50736306 109.27170345 -32.78515625 111.03515625 C-30.90452121 112.91579129 -27.60517517 112.39468963 -25.03515625 112.53515625 C-20.86060653 112.76900032 -16.87682095 113.0981338 -12.78515625 114.03515625 C-12.78515625 114.36515625 -12.78515625 114.69515625 -12.78515625 115.03515625 C-13.04047371 115.03404594 -13.04047371 115.03404594 -14.33253479 115.02842712 C-19.67000628 115.0062221 -25.00746454 114.99118638 -30.3449707 114.98022461 C-32.33423394 114.97521061 -34.32349352 114.96839776 -36.31274414 114.9597168 C-39.17985947 114.94752241 -42.04692587 114.94189848 -44.9140625 114.9375 C-45.79663223 114.93233871 -46.67920197 114.92717743 -47.58851624 114.92185974 C-52.43161197 114.92142444 -57.00984103 115.21709691 -61.78515625 116.03515625 C-61.78515625 115.04515625 -61.78515625 114.05515625 -61.78515625 113.03515625 C-61.25559326 113.01533691 -60.72603027 112.99551758 -60.18041992 112.97509766 C-57.77733784 112.87974353 -55.37511279 112.77010849 -52.97265625 112.66015625 C-52.13927734 112.62921875 -51.30589844 112.59828125 -50.44726562 112.56640625 C-50.04604492 112.54707031 -50.04604492 112.54707031 -48.015625 112.44921875 C-47.27723389 112.41779785 -46.53884277 112.38637695 -45.77807617 112.35400391 C-43.62334233 112.00926761 -42.48289258 111.37362057 -40.78515625 110.03515625 C-41.38328125 109.87015625 -41.98140625 109.70515625 -42.59765625 109.53515625 C-45.97043423 107.22239421 -46.61831105 103.83624288 -47.78515625 100.03515625 C-48.84734375 99.99777344 -49.90953125 99.96039063 -51.00390625 99.921875 C-58.4495109 99.59727338 -64.955719 99.30759493 -71.78515625 96.03515625 Z " fill="#1e40af" transform="translate(151.78515625,28.96484375)"/>
<path d="M0 0 C2.125 0.375 2.125 0.375 4 1 C4 2.32 4 3.64 4 5 C2.68 5.33 1.36 5.66 0 6 C-0.66 4.68 -1.32 3.36 -2 2 C-1.34 1.34 -0.68 0.68 0 0 Z " fill="#1e40af" transform="translate(94,109)"/>
<path d="M0 0 C1.65 0.33 3.3 0.66 5 1 C4.625 2.9375 4.625 2.9375 4 5 C3.67 5.165 3.67 5.165 2 6 C1.01 5.34 0.02 4.68 -1 4 C-0.67 2.68 -0.34 1.36 0 0 Z " fill="#1e40af" transform="translate(132,110)"/>
<path d="M0 0 C0.309375 0.1753125 0.309375 0.1753125 1.875 1.0625 C6.37011449 2.41103435 10.40954987 1.65959866 15 1 C13.4375 3.5 13.4375 3.5 11 6 C6.69647463 6.78245916 6.69647463 6.78245916 4 6 C1.94118732 4.5073608 0.64002255 2.98790612 -1 1 C-0.67 0.67 -0.34 0.34 0 0 Z " fill="#1e40af" transform="translate(108,151)"/>
</svg>
