<?xml version="1.0" encoding="UTF-8"?>
<!-- Generator: visioncortex VTracer 0.6.12 -->
<svg version="1.1" xmlns="http://www.w3.org/2000/svg" width="229" height="229" viewBox="0 0 229 229">
<g transform="translate(45.8,45.8) scale(0.6)">
<path d="M0 0 C6.59366623 0.13283943 12.98502686 3.38165444 18.64453125 6.578125 C21.16922956 7.67365484 23.31985318 7.71359734 26.0625 7.8125 C29.65802643 8.09534808 31.47921631 8.35717021 34.6875 10.125 C36.625 12.4375 36.625 12.4375 37.5625 15.5625 C37.913125 16.51125 38.26375 17.46 38.625 18.4375 C39.511875 18.72625 40.39875 19.015 41.3125 19.3125 C46.33484075 21.01820063 49.08386992 23.79570239 51.625 28.4375 C52.42250624 31.56425912 52.70832109 34.728818 52.98486328 37.93725586 C53.32055771 41.67805132 53.7858281 44.3980218 55.75 47.6875 C60.59609279 56.23192676 56.89110196 66.54619856 54.59765625 75.421875 C52.73263074 82.87401063 52.53725295 89.72735863 52.92773438 97.38476562 C53.06038474 102.89221231 53.06038474 102.89221231 50.61328125 105.95703125 C50.28521484 106.20130859 50.28521484 106.20130859 48.625 107.4375 C53.76572737 108.530215 58.57799161 108.47412321 63.8125 108.1875 C64.65240479 108.14302734 65.49230957 108.09855469 66.35766602 108.05273438 C72.80761717 107.6399375 78.49248914 106.50792568 84.625 104.4375 C85.95520017 104.09187534 87.28764704 103.75432166 88.625 103.4375 C90.65734458 89.48748679 93.81882359 64.64557038 85.78125 52.20703125 C83.84636428 49.77790842 81.83388753 47.61417459 79.625 45.4375 C77.50450298 42.69964309 77.26736223 40.92446821 77.625 37.4375 C77.955 37.1075 77.955 37.1075 79.625 35.4375 C83.00797413 35.61555127 84.38772061 36.22587244 86.9375 38.5 C87.494375 39.139375 88.05125 39.77875 88.625 40.4375 C92.70939309 39.0808211 95.08412732 37.33455352 98.0625 34.25 C98.84109375 33.45078125 99.6196875 32.6515625 100.421875 31.828125 C102.31387736 29.77510116 104.07197104 27.68024154 105.8125 25.5 C108.40572239 22.41248937 110.55504261 21.1302587 114.625 20.4375 C117.25 20.4375 117.25 20.4375 119.625 21.4375 C122.61337961 24.8297147 124.35883142 27.61032781 124.0859375 32.3125 C122.81414991 38.17565634 120.21318135 44.02608703 116.921875 49.0234375 C115.38562242 51.88308838 115.44677469 52.82956162 116.1875 55.9375 C116.39375 56.88238281 116.6 57.82726562 116.8125 58.80078125 C116.93882812 59.35459473 117.06515625 59.9084082 117.1953125 60.47900391 C118.11609419 64.67588499 118.88472984 68.9043027 119.6875 73.125 C119.861604 74.01574219 120.03570801 74.90648438 120.21508789 75.82421875 C126.41009718 107.86305467 126.41009718 107.86305467 120.07421875 120.3125 C112.87524493 130.86840771 103.69889313 137.67481465 92.3125 143.125 C92.02882568 143.26176147 92.02882568 143.26176147 90.59326172 143.95385742 C84.48663048 146.74254674 78.05080207 148.5434703 71.625 150.4375 C71.95822266 151.53739258 72.29144531 152.63728516 72.63476562 153.77050781 C73.87030166 157.85396911 75.09859003 161.93958051 76.32470703 166.02587891 C76.85626124 167.79372638 77.38977584 169.56098565 77.92529297 171.32763672 C78.69495249 173.86794152 79.45752363 176.41028228 80.21875 178.953125 C80.45936157 179.74180969 80.69997314 180.53049438 80.94787598 181.34307861 C81.16810425 182.08354431 81.38833252 182.82401001 81.61523438 183.58691406 C81.81064819 184.23533264 82.00606201 184.88375122 82.20739746 185.55181885 C82.625 187.4375 82.625 187.4375 82.625 191.4375 C46.325 191.4375 10.025 191.4375 -27.375 191.4375 C-26.385 185.1675 -25.395 178.8975 -24.375 172.4375 C-24.08750358 165.96883053 -24.50829915 159.84489554 -25.375 153.4375 C-26.27476563 153.47230469 -27.17453125 153.50710937 -28.1015625 153.54296875 C-46.18346516 154.01464974 -73.05222056 153.32130861 -87.375 140.4375 C-102.17565046 124.76445347 -101.04997378 101.65035316 -100.55755615 81.43135071 C-99.95967802 61.57649677 -99.95967802 61.57649677 -93.82421875 54.69921875 C-89.08953979 50.46845241 -84.05357748 47.34117931 -78.4753418 44.3659668 C-74.84368274 42.40408309 -71.76325691 40.24825329 -68.68383789 37.49267578 C-66.57004113 35.7885479 -65.07618358 35.4375 -62.375 35.4375 C-59.74188894 36.03853622 -57.5864583 36.87412974 -55.375 38.4375 C-53.01564595 42.76298242 -53.07564078 46.76336323 -54.375 51.4375 C-55.72172046 53.55255993 -56.92663658 55.22048031 -58.5625 57.0625 C-58.93697266 57.51367188 -59.31144531 57.96484375 -59.69726562 58.4296875 C-61.83453674 60.93818783 -63.94860051 62.86158985 -66.63671875 64.76953125 C-68.39261594 66.20298544 -69.24497075 67.01506636 -69.91577148 69.19433594 C-70.11753732 71.32918289 -70.10142273 73.35797058 -70 75.5 C-69.98179199 76.27714355 -69.96358398 77.05428711 -69.94482422 77.85498047 C-69.44660763 89.94936871 -66.35809435 101.7580633 -63.375 113.4375 C-52.05096413 115.0265677 -40.79772701 115.93511154 -29.375 116.4375 C-29.64054687 116.12876953 -29.64054687 116.12876953 -30.984375 114.56640625 C-38.76944616 105.23284466 -42.98067552 96.81551425 -42.375 84.4375 C-41.78676992 79.91977135 -40.99399652 75.43279505 -40.17773438 70.95117188 C-39.06442334 64.07833174 -39.06442334 64.07833174 -40.79296875 60.51171875 C-41.31503906 59.82722656 -41.83710937 59.14273438 -42.375 58.4375 C-42.375 54.06586382 -41.97427956 51.680959 -38.9375 48.5 C-36.375 46.4375 -36.375 46.4375 -34.375 46.4375 C-34.42140625 45.83421875 -34.4678125 45.2309375 -34.515625 44.609375 C-34.62590868 42.16737914 -34.65634411 39.86729003 -34.375 37.4375 C-33.04166667 36.10416667 -31.70833333 34.77083333 -30.375 33.4375 C-29.76953125 30.96875 -29.76953125 30.96875 -29.3125 28.0625 C-27.97871818 19.83022369 -27.97871818 19.83022369 -25.375 16.4375 C-22.63960875 14.72629993 -19.8682967 13.24672944 -16.96875 11.83203125 C-14.59441942 10.55547099 -13.21864772 9.34241698 -11.375 7.4375 C-9.1875 7.25 -9.1875 7.25 -7.375 7.4375 C-7.08625 6.65375 -6.7975 5.87 -6.5 5.0625 C-4.86749788 1.25332839 -4.1759981 0.54133309 0 0 Z M115.625 23.4375 C114.09123771 25.36591458 112.5732818 27.30371794 111.0625 29.25 C110.62486328 29.79720703 110.18722656 30.34441406 109.73632812 30.90820312 C108.61911861 32.3596958 107.61371133 33.89560571 106.625 35.4375 C106.955 36.4275 107.285 37.4175 107.625 38.4375 C108.615 38.4375 109.605 38.4375 110.625 38.4375 C111.66072896 36.69627451 112.6781252 34.94413405 113.6875 33.1875 C114.25597656 32.21296875 114.82445312 31.2384375 115.41015625 30.234375 C116.625 27.4375 116.625 27.4375 116.30859375 25.078125 C116.08300781 24.53671875 115.85742188 23.9953125 115.625 23.4375 Z M107.625 27.4375 C105.315 30.0775 103.005 32.7175 100.625 35.4375 C103.625 35.4375 103.625 35.4375 105.01171875 34.125 C105.44097656 33.568125 105.87023437 33.01125 106.3125 32.4375 C106.74949219 31.880625 107.18648437 31.32375 107.63671875 30.75 C107.96285156 30.316875 108.28898438 29.88375 108.625 29.4375 C108.295 28.7775 107.965 28.1175 107.625 27.4375 Z M-25.375 28.4375 C-26.035 30.7475 -26.695 33.0575 -27.375 35.4375 C-26.55 36.05625 -25.725 36.675 -24.875 37.3125 C-24.05 38.01375 -23.225 38.715 -22.375 39.4375 C-22.375 40.0975 -22.375 40.7575 -22.375 41.4375 C-25.015 41.7675 -27.655 42.0975 -30.375 42.4375 C-30.01665398 45.66261419 -29.80232901 47.06196844 -27.3125 49.25 C-24.82625996 52.0570452 -24.73047301 53.80476904 -24.921875 57.46875 C-25.74263643 61.03481691 -27.44238298 62.28691419 -30.375 64.4375 C-33.05078125 65.06640625 -33.05078125 65.06640625 -35.375 65.4375 C-38.49355192 78.52428039 -41.76827923 93.22170107 -34.375 105.4375 C-31.61882042 109.43067633 -28.63563246 113.23902842 -25.55566406 116.98608398 C-24.48061312 118.30766749 -23.44864045 119.66400005 -22.421875 121.0234375 C-18.2418706 125.95329002 -12.46660609 131.04073651 -6.26953125 133.15625 C-4.11692329 133.26640478 -2.46747105 132.97374258 -0.375 132.4375 C0.61242187 132.20160156 1.59984375 131.96570313 2.6171875 131.72265625 C13.41876402 128.76175351 23.3747971 124.28365952 30.625 115.4375 C31.63783562 113.41182876 31.85667225 112.14265886 32.08984375 109.91796875 C32.12883789 109.5715332 32.12883789 109.5715332 32.32617188 107.81835938 C32.48243121 106.36811776 32.63612115 104.91759675 32.78710938 103.46679688 C33.67420936 95.67041404 33.67420936 95.67041404 35.625 92.4375 C37.90234375 91.6171875 37.90234375 91.6171875 40.5625 91.3125 C45.23097841 90.74870732 45.23097841 90.74870732 47.390625 89.04296875 C49.05417314 86.87930329 49.41717165 85.13926851 49.625 82.4375 C47.625 80.4375 47.625 80.4375 45.6796875 80.2421875 C45.32003906 80.25378906 45.32003906 80.25378906 43.5 80.3125 C42.77554688 80.33054688 42.05109375 80.34859375 41.3046875 80.3671875 C40.75039062 80.39039063 40.19609375 80.41359375 39.625 80.4375 C39.625 79.7775 39.625 79.1175 39.625 78.4375 C39.00753906 78.23382813 38.39007813 78.03015625 37.75390625 77.8203125 C34.69041168 75.8304463 34.49504579 73.79238949 33.5625 70.3125 C32.51910634 66.50929624 31.4395795 62.85176235 29.8125 59.25 C28.53552463 56.05756158 28.68394928 53.8236217 29.1875 50.4375 C29.91973739 45.07324406 28.86376428 41.75275899 25.625 37.4375 C20.96244909 32.36050013 15.86592068 28.94341248 8.97265625 28.12109375 C3.10955197 27.88225507 -1.70816772 28.66446691 -7.1875 30.5625 C-12.6143963 32.40388417 -15.17743359 32.81971794 -20.375 30.4375 C-21.344375 30.06625 -22.31375 29.695 -23.3125 29.3125 C-23.993125 29.02375 -24.67375 28.735 -25.375 28.4375 Z M118.625 28.4375 C118.22667969 29.19675781 117.82835937 29.95601562 117.41796875 30.73828125 C116.88816406 31.73214844 116.35835938 32.72601563 115.8125 33.75 C115.29042969 34.73613281 114.76835937 35.72226563 114.23046875 36.73828125 C112.43115375 39.76340695 110.95370151 41.81743929 107.75 43.3125 C103.83143247 45.38703575 101.04486919 48.17789243 99.625 52.4375 C98.965 52.4375 98.305 52.4375 97.625 52.4375 C98.87870604 47.42267583 100.26306162 45.49085687 104.625 42.4375 C105.285 41.7775 105.945 41.1175 106.625 40.4375 C103.62948367 39.39239764 100.8049843 38.58346649 97.625 38.4375 C95.74524692 39.52357956 94.48176865 40.7664568 92.96484375 42.30859375 C91.625 43.4375 91.625 43.4375 88.9375 43.4375 C86.53973011 42.40062653 85.40419888 41.29757155 83.625 39.4375 C82.635 39.4375 81.645 39.4375 80.625 39.4375 C81.97424649 43.44307551 83.72643656 45.77540228 86.625 48.8125 C94.57850678 58.73997495 92.79251991 72.38648588 92.875 84.5 C92.87786011 84.82116287 92.87786011 84.82116287 92.89233398 86.44644165 C92.90398996 88.30958425 92.90002176 90.17201234 92.890625 92.03515625 C92.88836914 93.12320557 92.88611328 94.21125488 92.88378906 95.33227539 C92.5253435 99.63328402 91.97475593 103.11647776 88.81298828 106.2109375 C80.32606909 110.96861235 70.17637707 111.07498642 60.703125 111.609375 C51.10508051 112.2713091 51.10508051 112.2713091 47.625 115.4375 C44.71549607 119.88770404 44.10561746 123.59073953 44.1875 128.75 C44.19362305 129.40718018 44.19974609 130.06436035 44.20605469 130.74145508 C44.42434603 137.56809707 46.59496521 142.35485457 50.3125 148 C55.15918562 151.01280457 61.42275307 149.62461269 66.75390625 148.40625 C68.56968479 147.93393862 70.38087072 147.44368215 72.1875 146.9375 C72.66650757 146.80472656 72.66650757 146.80472656 75.09057617 146.1328125 C83.85527838 143.58116562 91.750525 140.01901273 99.625 135.4375 C100.52734375 134.921875 101.4296875 134.40625 102.359375 133.875 C110.37404304 128.92634591 116.98869232 121.98273072 119.3125 112.6875 C120.80223836 97.19422109 118.22422284 81.40079088 115.1875 66.25 C114.98229736 65.19216309 114.77709473 64.13432617 114.56567383 63.04443359 C114.46266968 62.55563721 114.46266968 62.55563721 113.94140625 60.08203125 C113.76037354 59.20909424 113.57934082 58.33615723 113.39282227 57.43676758 C113.13944092 56.77700928 112.88605957 56.11725098 112.625 55.4375 C112.13 55.2725 112.13 55.2725 109.625 54.4375 C110.08390625 53.75945312 110.5428125 53.08140625 111.015625 52.3828125 C121.01287196 37.21892111 121.01287196 37.21892111 120.625 28.4375 C119.965 28.4375 119.305 28.4375 118.625 28.4375 Z M-72 43.4375 C-72.515625 43.8190625 -73.03125 44.200625 -73.5625 44.59375 C-74.83647737 45.53743694 -76.10615323 46.48692583 -77.375 47.4375 C-76.385 47.7675 -75.395 48.0975 -74.375 48.4375 C-72.1484375 47.07421875 -72.1484375 47.07421875 -69.75 45.125 C-68.95335937 44.48949219 -68.15671875 43.85398437 -67.3359375 43.19921875 C-65.375 41.4375 -65.375 41.4375 -64.375 39.4375 C-67.53532457 39.4375 -69.56266129 41.6064029 -72 43.4375 Z M-65.375 44.4375 C-65.69662109 44.65341797 -65.69662109 44.65341797 -67.32421875 45.74609375 C-67.95972656 46.18050781 -68.59523438 46.61492187 -69.25 47.0625 C-69.84554687 47.46726562 -70.44109375 47.87203125 -71.0546875 48.2890625 C-71.49039063 48.66804688 -71.92609375 49.04703125 -72.375 49.4375 C-72.375 50.0975 -72.375 50.7575 -72.375 51.4375 C-67.92675141 50.91653395 -65.49907776 49.31544815 -62.0625 46.5 C-61.17949219 45.78972656 -60.29648437 45.07945313 -59.38671875 44.34765625 C-58.72285156 43.71730469 -58.05898438 43.08695313 -57.375 42.4375 C-57.375 41.7775 -57.375 41.1175 -57.375 40.4375 C-60.60327243 40.4375 -62.81574029 42.6408188 -65.375 44.4375 Z M-62 48.9375 C-62.63164063 49.4015625 -63.26328125 49.865625 -63.9140625 50.34375 C-64.39617187 50.7046875 -64.87828125 51.065625 -65.375 51.4375 C-64.055 52.4275 -62.735 53.4175 -61.375 54.4375 C-58.57627563 51.90961993 -56.91726981 50.23338866 -56.375 46.4375 C-58.99951617 46.4375 -59.9105348 47.389748 -62 48.9375 Z M-84.75 51.625 C-85.22824219 51.92083984 -85.22824219 51.92083984 -87.6484375 53.41796875 C-93.08658919 57.4459407 -94.92540729 61.11494377 -96.00390625 67.5859375 C-98.65557693 87.96193324 -100.97181976 118.21084149 -88.07421875 135.54296875 C-76.59038257 148.3467861 -53.11409895 149.68626232 -37.17822266 150.55761719 C-33.90341457 150.65817762 -30.64565761 150.62740915 -27.375 150.4375 C-28.28725173 140.96560975 -28.28725173 140.96560975 -28.9375 136.5625 C-29.39249693 133.08953072 -29.41901422 129.68048715 -29.40234375 126.1796875 C-29.398396 125.10315918 -29.39444824 124.02663086 -29.39038086 122.91748047 C-29.38530518 122.09908691 -29.38022949 121.28069336 -29.375 120.4375 C-30.14577881 120.35709473 -30.91655762 120.27668945 -31.71069336 120.19384766 C-34.61301538 119.88856928 -37.51476243 119.57860902 -40.41625977 119.265625 C-41.66411157 119.13195528 -42.91215608 119.00007049 -44.16040039 118.87011719 C-51.33308973 118.12206294 -58.37450333 117.24355627 -65.375 115.4375 C-69.0634126 104.44742636 -71.9700011 93.33178107 -73.55844116 81.84414673 C-73.7268392 80.66321628 -73.91192677 79.48453729 -74.11416626 78.30892944 C-74.74665935 74.55338916 -75.12511463 71.18740756 -74.375 67.4375 C-72.2897194 65.06851866 -70.27774616 63.60276518 -67.55883789 62.01318359 C-64.9170387 60.10707158 -64.3157788 58.50515831 -63.375 55.4375 C-66.89567177 55.95524585 -69.50913584 57.01264763 -72.6328125 58.6796875 C-75.39508444 59.88121386 -78.27472439 60.3663966 -81.2265625 60.91015625 C-83.49342554 61.46656809 -85.33133858 62.32319592 -87.375 63.4375 C-86.375 60.4375 -86.375 60.4375 -85.16796875 59.3203125 C-82.72624122 58.11806757 -80.36816074 57.75402059 -77.6875 57.3125 C-76.69363281 57.14492187 -75.69976562 56.97734375 -74.67578125 56.8046875 C-73.91652344 56.68351562 -73.15726563 56.56234375 -72.375 56.4375 C-73.36835201 54.76686253 -74.36931758 53.10074401 -75.375 51.4375 C-75.725625 50.839375 -76.07625 50.24125 -76.4375 49.625 C-76.5921875 49.4290625 -76.5921875 49.4290625 -77.375 48.4375 C-80.41442369 48.4375 -82.20015294 50.02194602 -84.75 51.625 Z M-38.375 52.4375 C-37.715 53.7575 -37.055 55.0775 -36.375 56.4375 C-37.035 57.4275 -37.695 58.4175 -38.375 59.4375 C-37.25 61 -37.25 61 -35.375 62.4375 C-32.41935591 62.31686147 -30.30934962 62.16873014 -27.9375 60.3125 C-27.02395526 57.26735088 -27.46810869 54.45551535 -28.375 51.4375 C-30.02219159 49.63343302 -30.98487245 49.49845743 -33.375 49.125 C-35.91489086 49.52185795 -36.75917158 50.4985059 -38.375 52.4375 Z M-40.375 54.4375 C-39.375 57.4375 -39.375 57.4375 -39.375 57.4375 Z M41.625 77.4375 C43.935 77.4375 46.245 77.4375 48.625 77.4375 C48.295 76.7775 47.965 76.1175 47.625 75.4375 C43.875 75.1875 43.875 75.1875 41.625 77.4375 Z " fill="#1e40af" transform="translate(102.375,37.5625)"/>
<path d="M0 0 C1.12109375 1.37890625 1.12109375 1.37890625 2.55859375 3.87890625 C1.86499023 5.35400391 1.86499023 5.35400391 0.55859375 6.87890625 C-1.64038086 7.26708984 -1.64038086 7.26708984 -4.34375 7.27734375 C-5.31634766 7.28121094 -6.28894531 7.28507812 -7.29101562 7.2890625 C-8.31001953 7.27746094 -9.32902344 7.26585938 -10.37890625 7.25390625 C-11.39404297 7.26550781 -12.40917969 7.27710937 -13.45507812 7.2890625 C-14.42896484 7.28519531 -15.40285156 7.28132813 -16.40625 7.27734375 C-17.29948975 7.27395996 -18.19272949 7.27057617 -19.11303711 7.26708984 C-21.85056819 6.81069114 -22.73071229 6.00784815 -24.44140625 3.87890625 C-23.7890625 2.453125 -23.7890625 2.453125 -22.44140625 0.87890625 C-16.86475564 -0.74797934 -5.06080783 -3.93618387 0 0 Z " fill="#1e40af" transform="translate(122.44140625,76.12109375)"/>
<path d="M0 0 C4.11076605 1.10948011 6.91317383 3.04144659 9.2578125 6.609375 C10.42643069 11.17178849 9.90152587 14.48883691 7.5703125 18.546875 C3.96671702 21.76089259 1.65583724 22.58395637 -3.1796875 22.671875 C-7.15231779 21.93136277 -9.24461633 19.71937465 -11.62890625 16.5703125 C-13.05751354 14.05395861 -13.61066417 12.27044637 -13.31640625 9.38671875 C-11.20631127 2.85547239 -6.87481035 -0.60591549 0 0 Z M-8.7421875 6.609375 C-8.7421875 7.269375 -8.7421875 7.929375 -8.7421875 8.609375 C-8.0821875 8.609375 -7.4221875 8.609375 -6.7421875 8.609375 C-7.0515625 9.063125 -7.3609375 9.516875 -7.6796875 9.984375 C-8.7421875 11.609375 -8.7421875 11.609375 -9.7421875 13.609375 C-5.86805811 18.30528941 -5.86805811 18.30528941 -2.9921875 19.08203125 C0.17948419 19.23924773 2.06550001 18.73758333 4.6953125 16.984375 C6.75573021 13.85254008 6.934567 12.29392727 6.2578125 8.609375 C4.91573764 6.42207852 3.4481623 4.94760438 1.2578125 3.609375 C-3.10972391 2.89630783 -5.59216306 3.45935056 -8.7421875 6.609375 Z " fill="#1e40af" transform="translate(110.7421875,86.390625)"/>
<path d="M0 0 C0.99 0 1.98 0 3 0 C2.47731534 2.76276177 1.89130413 5.3260876 1 8 C0.30323162 14.01632699 0.30323162 14.01632699 2.0625 16.5 C5.20793276 17.31172458 8.01232032 17.20186205 11 16 C12.79960974 14.11145606 13.75733486 12.33621046 15 10 C15.66 10.33 16.32 10.66 17 11 C16.84518205 13.70931419 16.51827919 15.46584039 14.59765625 17.4453125 C13.09655286 18.6815153 11.57895113 19.86527977 10 21 C19.69942128 24.6700513 30.8094322 26.62982395 41 24 C41 25.32 41 26.64 41 28 C31.17215264 31.27594912 20.05200162 28.43881113 10.21704102 26.50219727 C2.47310711 25.00230964 -5.12413731 24.24535398 -13 24 C-13 22.68 -13 21.36 -13 20 C-8.38 20 -3.76 20 1 20 C-0.32 18.68 -1.64 17.36 -3 16 C-5.01721235 10.70481759 -3.05058616 6.89592346 -0.91015625 1.9765625 C-0.60980469 1.32429688 -0.30945313 0.67203125 0 0 Z " fill="#1e40af" transform="translate(80,95)"/>
<path d="M0 0 C0.51046875 0.20496094 1.0209375 0.40992188 1.546875 0.62109375 C7.99267815 3.00969811 14.1597091 3.66435121 21 4 C20.67 5.32 20.34 6.64 20 8 C13.07382535 8.52273016 7.23133967 7.13665077 1 4 C-0.3203125 2.36328125 -0.3203125 2.36328125 -1 1 C-0.67 0.67 -0.34 0.34 0 0 Z " fill="#1e40af" transform="translate(74,134)"/>
</g>
</svg>
